<svg width="255" height="398" viewBox="0 0 255 398" fill="none" xmlns="http://www.w3.org/2000/svg">
<g clip-path="url(#clip0_34_178)">
<rect width="255" height="398" rx="12" fill="white"/>
<path d="M0 12C0 5.37258 5.37258 0 12 0H84V64C84 75.0457 75.0457 84 64 84H0V12Z" fill="#F8FAFC"/>
<path d="M12 0.5H64C70.3513 0.5 75.5 5.64873 75.5 12V64C75.5 70.3513 70.3513 75.5 64 75.5H12C5.64873 75.5 0.5 70.3513 0.5 64V12C0.5 5.64873 5.64873 0.5 12 0.5Z" fill="white"/>
<path d="M12 0.5H64C70.3513 0.5 75.5 5.64873 75.5 12V64C75.5 70.3513 70.3513 75.5 64 75.5H12C5.64873 75.5 0.5 70.3513 0.5 64V12C0.5 5.64873 5.64873 0.5 12 0.5Z" stroke="#E9EFF5"/>
<path d="M0.156769 95.1188L0 97H-1V83H13V84L11.1188 84.1568C5.27809 84.6435 0.643493 89.2781 0.156769 95.1188Z" fill="#F8FAFC"/>
<path d="M84.1568 11.1188L84 13H83V-1H97V0L95.1188 0.156769C89.2781 0.643493 84.6435 5.27809 84.1568 11.1188Z" fill="#F8FAFC"/>
<path d="M0.5 385.53V96.0418C0.5 89.403 5.90291 84.0324 12.5416 84.0721L63.8802 84.3795C74.9725 84.4459 84 75.4724 84 64.3799V11.9699C84 5.35912 89.3591 0 95.9699 0H242.712C249.323 0 254.682 5.3591 254.682 11.9699V385.53C254.682 392.141 249.323 397.5 242.712 397.5H12.4699C5.85912 397.5 0.5 392.141 0.5 385.53Z" stroke="#E9EFF5" stroke-width="0.997494"/>
</g>
<defs>
<clipPath id="clip0_34_178">
<rect width="255" height="398" rx="12" fill="white"/>
</clipPath>
</defs>
</svg>
