<svg xmlns="http://www.w3.org/2000/svg" width="255" height="398" fill="none"><g clip-path="url(#a)"><rect width="255" height="398" fill="#fff" rx="12"/><path fill="#F8FAFC" d="M0 12C0 5.373 5.373 0 12 0h72v64c0 11.046-8.954 20-20 20H0z"/><path fill="#fff" d="M12 .5h52C70.351.5 75.5 5.649 75.5 12v52c0 6.351-5.149 11.5-11.5 11.5H12C5.649 75.5.5 70.351.5 64V12C.5 5.649 5.649.5 12 .5"/><path stroke="#E9EFF5" d="M12 .5h52C70.351.5 75.5 5.649 75.5 12v52c0 6.351-5.149 11.5-11.5 11.5H12C5.649 75.5.5 70.351.5 64V12C.5 5.649 5.649.5 12 .5Z"/><path fill="#F8FAFC" d="M.157 95.119 0 97h-1V83h14v1l-1.881.157A12 12 0 0 0 .157 95.119M84.157 11.119 84 13h-1V-1h14v1l-1.881.157a12 12 0 0 0-10.962 10.962"/><path stroke="#E9EFF5" stroke-width=".997" d="M.5 385.53V96.042c0-6.639 5.403-12.01 12.042-11.97l51.338.307c11.092.067 20.12-8.907 20.12-20V11.97C84 5.36 89.36 0 95.97 0h146.742c6.611 0 11.97 5.36 11.97 11.97v373.56c0 6.611-5.359 11.97-11.97 11.97H12.47C5.86 397.5.5 392.141.5 385.53Z"/></g><defs><clipPath id="a"><rect width="255" height="398" fill="#fff" rx="12"/></clipPath></defs></svg>