<svg width="30" height="30" viewBox="0 0 30 30" fill="none" xmlns="http://www.w3.org/2000/svg">
<path d="M15 15C18.866 15 22 11.866 22 8C22 4.13401 18.866 1 15 1C11.134 1 8 4.13401 8 8C8 11.866 11.134 15 15 15Z" stroke="#412BA8" stroke-width="2" stroke-miterlimit="10"/>
<path d="M8 22C11.866 22 15 18.866 15 15C15 11.134 11.866 8 8 8C4.13401 8 1 11.134 1 15C1 18.866 4.13401 22 8 22Z" stroke="#412BA8" stroke-width="2" stroke-miterlimit="10"/>
<path d="M15 29C18.866 29 22 25.866 22 22C22 18.134 18.866 15 15 15C11.134 15 8 18.134 8 22C8 25.866 11.134 29 15 29Z" stroke="#412BA8" stroke-width="2" stroke-miterlimit="10"/>
<path d="M22 22C25.866 22 29 18.866 29 15C29 11.134 25.866 8 22 8C18.134 8 15 11.134 15 15C15 18.866 18.134 22 22 22Z" stroke="#412BA8" stroke-width="2" stroke-miterlimit="10"/>
</svg>
