<svg xmlns="http://www.w3.org/2000/svg" width="550" height="595" fill="none"><g fill="#412BA8" opacity=".7"><path d="M927.752-192.148c32.946 51.426 8.342 125.07-33.283 163.76-21.221 19.722-47.27 35.237-72.459 50.24l-3.536 2.107a861 861 0 0 1-6.584 3.87c-23.687 13.834-59.482 34.74-60.868 61.836-1.066 20.865 21.385 37.384 39.426 50.657 5.191 3.82 10.095 7.428 14.042 10.829 21.715 18.708 34.77 39.771 38.801 62.606 4.144 23.475-11.903 35.765-27.422 47.651-3.466 2.656-7.052 5.402-10.348 8.225-24.825 21.257-43.069 48.206-55.766 82.376-4.885 13.146-9.324 26.676-13.617 39.762-10.24 31.209-20.828 63.48-38.155 92.493-7.427 12.435-16.278 24.689-24.838 36.54-8.884 12.3-18.07 25.018-25.833 38.139-.119.201-11.619 20.32-6.222 26.406 1.988 2.241 5.922 2.09 11.694-.45l-.476-1.081c-5.248 2.309-8.725 2.56-10.334.747-3.791-4.276 2.777-18.972 6.355-25.02 7.735-13.075 16.907-25.771 25.775-38.049 8.574-11.871 17.44-24.146 24.894-36.626 17.395-29.125 28.003-61.46 38.263-92.731 4.29-13.074 8.725-26.594 13.602-39.719 12.624-33.974 30.75-60.757 55.427-81.889 3.272-2.802 6.844-5.539 10.299-8.184 15.797-12.1 32.134-24.611 27.865-48.795-4.078-23.111-17.265-44.407-39.192-63.298-3.981-3.429-8.903-7.051-14.114-10.884-17.812-13.105-39.979-29.415-38.945-49.645 1.355-26.459 36.817-47.17 60.283-60.875a912 912 0 0 0 6.593-3.875l3.535-2.107c25.244-15.036 51.347-30.583 72.659-50.39 21.311-19.79 37.685-47.941 44.958-77.223 8.095-32.58 4.016-63.846-11.483-88.04z"/><path d="M922.225-198.278c32.508 52.172 1.739 124.574-43.743 166.224-22.405 20.52-48.802 37.8-76.142 55.157-2.785 1.767-5.873 3.655-9.142 5.654-24.4 14.916-57.817 35.343-59.371 61.856-1.39 23.737 24.369 41.388 49.28 58.456 17.08 11.704 33.214 22.759 40.474 35.326 5.65 9.782 9.895 21.83 11.076 31.444 1.733 14.085-5.466 28.62-18.349 37.029-7.185 4.69-15.153 11.853-23.688 21.297-17.615 19.492-30.974 40.727-40.842 64.921-2.878 7.056-5.249 14.722-7.382 21.956-1.582 5.363-3.129 10.71-4.67 16.035-10.044 34.721-19.532 67.517-36.632 98.963-3.086 5.676-6.628 11.613-10.527 17.647-7.913 12.246-17 24.227-25.789 35.814-9.455 12.465-19.232 25.354-27.659 38.707-.132.208-13.107 20.935-7.985 27.386 1.774 2.234 5.404 2.418 10.789.547l-.389-1.117c-4.859 1.689-8.047 1.632-9.475-.166-3.804-4.79 4.76-20.792 8.06-26.019 8.4-13.31 18.161-26.179 27.601-38.624 8.802-11.604 17.904-23.603 25.84-35.886 3.916-6.059 7.473-12.023 10.573-17.724 17.161-31.559 26.666-64.415 36.729-99.2 1.541-5.323 3.086-10.667 4.668-16.029 2.124-7.204 4.484-14.837 7.343-21.844 9.815-24.064 23.103-45.186 40.625-64.575 8.463-9.367 16.355-16.463 23.457-21.1 13.256-8.651 20.664-23.633 18.877-38.164-1.2-9.76-5.502-21.98-11.226-31.89-7.395-12.799-23.636-23.927-40.831-35.709-24.639-16.884-50.117-34.342-48.767-57.412 1.516-25.896 34.63-46.138 58.808-60.917 3.273-2.001 6.364-3.891 9.157-5.664 27.387-17.387 53.832-34.699 76.308-55.284 22.628-20.72 41.062-48.938 50.559-77.39 7.904-23.683 13.173-58.579-6.61-90.331z"/><path d="M916.664-204.403c33.737 55.43-7.838 125.451-53.675 168.531-24.198 22.75-53.092 42.96-75.562 58.025-3.723 2.496-8.013 5.181-12.555 8.023-23.731 14.849-56.233 35.186-58.454 61.206-2.139 25.058 29.273 44.969 56.986 62.537 17.329 10.986 33.697 21.362 40.889 31.956 7.225 10.645 10.896 20.683 11.552 31.593.978 16.289-9.462 25.27-20.517 34.778a450 450 0 0 0-3.442 2.98c-8.786 7.707-16.399 17.225-21.236 23.849-15.083 20.657-26.406 42.949-34.615 68.149-2.344 7.193-4.3 14.979-6.103 22.338-9.284 37.893-20.117 77.967-41.254 114.754-3.195 5.559-6.89 11.423-10.984 17.43-8.08 11.853-17.334 23.425-26.282 34.616-9.995 12.5-20.33 25.425-29.177 38.906-3.36 5.12-13.983 22.316-9.604 28.654 1.594 2.309 4.917 2.92 9.874 1.816l-.257-1.153c-4.441.988-7.349.539-8.645-1.335-4.06-5.877 7.301-23.8 9.62-27.333 8.817-13.434 19.134-26.338 29.112-38.816 8.963-11.209 18.23-22.799 26.336-34.69 4.111-6.031 7.822-11.921 11.032-17.505 21.214-36.921 32.073-77.087 41.378-115.062 1.797-7.337 3.747-15.099 6.078-22.252 8.17-25.081 19.437-47.264 34.446-67.819 4.802-6.576 12.35-16.017 21.061-23.658 1.139-1 2.288-1.987 3.433-2.972 11.283-9.704 21.939-18.873 20.925-35.745-.669-11.13-4.404-21.358-11.753-32.187-7.329-10.797-23.799-21.236-41.234-32.289-27.429-17.389-58.518-37.096-56.441-61.44 2.171-25.432 34.383-45.587 57.903-60.303 4.55-2.848 8.848-5.537 12.587-8.044 22.506-15.09 51.453-35.337 75.712-58.144 24.457-22.992 44.829-51.143 55.908-77.249 14.837-34.957 14.154-66.166-2.032-92.759z"/><path d="M911.06-210.516c36.012 58.116-14.241 124.86-62.739 170.61-24.93 23.52-50.684 44.579-74.479 60.902-4.492 3.082-9.782 6.378-15.381 9.868-25.076 15.629-56.281 35.077-59.513 61.085-3.312 26.665 32.677 48.045 64.429 66.908 16.833 10 32.734 19.446 40.189 28.324 9.389 11.185 13.692 21.435 13.15 31.337-.704 12.917-10.394 22.045-19.773 30.875-3.166 2.982-6.156 5.798-8.808 8.748-6.147 6.845-12.535 15.856-18.473 26.059-12.411 21.324-21.723 44.453-28.469 70.709-1.818 7.072-3.343 14.451-4.957 22.264l-.062.297c-9.8 47.424-22.615 82.501-41.55 113.734-4.268 7.04-7.868 12.467-11.332 17.077-6.949 9.251-14.55 18.166-22.598 27.604-11.898 13.954-24.201 28.384-34.032 43.805l-.333.52c-3.887 6.083-14.215 22.241-10.131 29.605 1.379 2.485 4.227 3.723 8.466 3.678l-.013-1.182c-3.771.04-6.267-.993-7.419-3.07-3.742-6.747 6.672-23.04 10.093-28.394l.334-.521c9.787-15.353 22.063-29.75 33.935-43.673 7.705-9.037 15.673-18.381 22.644-27.661 3.487-4.643 7.109-10.1 11.397-17.175 19.008-31.353 31.868-66.545 41.698-114.107l.061-.297c1.611-7.798 3.133-15.164 4.944-22.21 6.719-26.148 15.991-49.179 28.347-70.408 5.897-10.134 12.235-19.077 18.329-25.862 2.616-2.914 5.59-5.714 8.74-8.68 9.545-8.989 19.413-18.28 20.143-31.671.558-10.215-3.833-20.735-13.426-32.16-7.583-9.033-23.568-18.529-40.489-28.582-31.442-18.677-67.077-39.846-63.86-65.745 3.159-25.447 34.102-44.732 58.964-60.227 5.611-3.497 10.911-6.8 15.424-9.896 23.845-16.358 49.648-37.457 74.622-61.017 48.808-46.046 99.364-113.299 62.932-172.092z"/><path d="M905.384-216.627c42.77 70.566-41.259 147.485-68.868 172.761q-3.247 2.975-6.512 5.973c-21.784 20-44.309 40.68-68.76 57.289-4.889 3.32-10.606 6.849-16.657 10.583-25.942 16.01-58.224 35.933-62.971 62.317-5.104 28.378 37.339 52.155 71.443 71.26 15.949 8.935 31.013 17.373 38.354 24.733 6.186 6.203 17.701 17.747 15.715 30.632-1.565 10.165-11.372 20.207-20.024 29.067-4.627 4.737-8.996 9.211-11.984 13.472-5.221 7.447-10.571 17.106-15.47 27.934-9.687 21.412-17.081 45.176-22.605 72.652-1.127 5.606-2.143 11.317-3.218 17.362l-.941 5.274c-5.547 30.869-16.068 76.025-43.277 111.614-2.951 3.86-6.123 7.724-9.48 11.816-1.226 1.495-2.458 2.996-3.681 4.501-.643.791-1.861 2.223-3.525 4.181-16.551 19.47-66.916 78.721-60.733 97.329.915 2.751 3.015 4.521 6.244 5.259l.263-1.153c-2.837-.648-4.599-2.114-5.386-4.48-3.963-11.928 16.396-44.29 60.512-96.19 1.672-1.966 2.896-3.405 3.542-4.2 1.222-1.504 2.453-3.004 3.678-4.497 3.216-3.919 6.541-7.972 9.505-11.848 27.364-35.792 37.933-81.133 43.502-112.123l.941-5.276c1.074-6.039 2.089-11.743 3.213-17.336 5.506-27.387 12.874-51.069 22.524-72.398 4.869-10.762 10.18-20.355 15.361-27.743 2.932-4.181 7.269-8.622 11.861-13.324 8.776-8.987 18.724-19.173 20.348-29.714 2.075-13.475-9.714-25.295-16.048-31.646-7.456-7.475-21.895-15.564-38.612-24.929-33.777-18.922-75.814-42.47-70.858-70.019 4.654-25.867 36.686-45.634 62.428-61.52 6.064-3.742 11.791-7.276 16.701-10.612 24.522-16.657 47.081-37.368 68.895-57.396a6930 6930 0 0 1 6.51-5.97c19.926-18.243 48.43-46.154 65.832-77.829 19.462-35.424 20.556-67.864 3.249-96.418z"/><path d="M899.628-222.73c37.298 63.189-17.746 126.542-69.876 174.683l-3.606 3.331c-23.532 21.75-47.864 44.24-75.351 61.998-5.138 3.319-11.01 6.802-17.226 10.49-27.575 16.358-61.893 36.716-68.916 64.637-7.679 30.532 39.761 55.624 77.88 75.786 15.248 8.065 28.417 15.03 35.364 21.004 7.727 6.641 20.598 17.706 18.863 29.324-1.196 8.013-9.787 17.37-18.095 26.419-6.206 6.76-12.625 13.75-15.824 20.099-4.656 9.234-8.912 19.432-12.307 29.491-7.064 20.921-12.532 44.444-17.21 74.027-.428 2.709-.853 5.452-1.284 8.227-.728 4.696-1.469 9.481-2.263 14.341-6.818 41.713-21.554 75.39-47.784 109.196-4.062 5.236-8.37 10.683-12.536 15.951l-.252.319c-1.044 1.319-3.071 3.692-5.636 6.697-16.689 19.545-61.021 71.462-56.434 92.795.771 3.586 2.872 6.21 6.243 7.799l.504-1.07c-3.063-1.443-4.892-3.726-5.591-6.978-4.464-20.76 39.591-72.355 56.177-91.778 2.674-3.132 4.606-5.395 5.664-6.732l.252-.319c4.168-5.269 8.478-10.719 12.543-15.959 26.357-33.971 41.165-67.813 48.016-109.731.796-4.863 1.537-9.652 2.266-14.35.43-2.774.854-5.516 1.283-8.224 4.667-29.515 10.12-52.976 17.162-73.832 3.378-10.008 7.611-20.153 12.242-29.338 3.127-6.202 9.488-13.131 15.639-19.831 8.429-9.181 17.145-18.673 18.395-27.045 1.831-12.263-11.35-23.594-19.225-30.364-7.086-6.091-20.308-13.085-35.619-21.183-37.754-19.969-84.738-44.821-77.286-74.453 6.901-27.44 40.985-47.66 68.373-63.909 6.226-3.693 12.107-7.182 17.263-10.513C779.009.461 803.38-22.063 826.949-43.847l3.606-3.332c22.261-20.556 49.976-48.071 66.844-78.612 19.508-35.322 20.601-68.14 3.247-97.54z"/><path d="M893.78-228.824c16.936 29.703 16.417 62.268-1.541 96.79-16.004 30.768-43.224 58.539-65.149 79.296-23.439 22.19-51.2 47.553-84.105 67.72-5.753 3.526-12.218 7.164-19.063 11.016-29.255 16.462-65.666 36.95-75.59 66.282-11.017 32.563 43.1 59.845 82.615 79.765 13.794 6.954 25.708 12.96 32.166 17.869 9.7 7.374 24.144 21.331 21.607 27.392-2.041 4.877-6.831 10.989-12.378 18.067-7.876 10.05-16.804 21.443-21.104 33.373-3.458 9.59-6.597 20.23-9.078 30.769-5.754 24.45-9.173 49.372-12.451 74.881a744 744 0 0 1-3.198 22.359c-7.094 44.53-27.942 75.052-52.431 107.549a2312 2312 0 0 1-10.471 13.748l-1.815 2.371c-1.46 1.909-4.005 4.934-7.225 8.764-17.587 20.917-54.184 64.442-51.277 87.498.564 4.477 2.609 8.005 6.078 10.486l.687-.962c-3.19-2.281-5.072-5.535-5.593-9.671-2.842-22.543 33.53-65.802 51.01-86.59 3.23-3.842 5.782-6.877 7.259-8.807l1.815-2.371c3.535-4.618 7.053-9.212 10.476-13.755 24.586-32.625 45.518-63.276 52.655-108.074a746 746 0 0 0 3.202-22.395c3.274-25.477 6.688-50.365 12.43-74.76 2.471-10.495 5.596-21.091 9.039-30.64 4.236-11.751 13.101-23.064 20.923-33.044 5.599-7.145 10.434-13.315 12.537-18.339 3.793-9.059-21.724-28.594-21.982-28.79-6.544-4.975-18.503-11.003-32.349-17.984-39.128-19.725-92.716-46.74-82.028-78.33 9.777-28.901 45.969-49.268 75.051-65.63 6.854-3.859 13.328-7.502 19.102-11.04 33-20.226 60.816-45.637 84.298-67.868 50.836-48.127 104.383-111.799 66.905-177.531z"/><path d="M887.827-234.916c36.399 69.09-12.82 130.881-59.783 177.04-29.722 29.2-58.613 51.607-90.924 70.514-6.475 3.789-13.717 7.665-21.383 11.769-31.069 16.632-69.738 37.33-82.776 67.506-15.146 35.055 45.419 64.216 85.496 83.513 12.242 5.894 22.814 10.984 28.738 15.029.732.499 1.589 1.059 2.533 1.675 8.101 5.29 23.183 15.135 16.505 25.802l-2.413 3.842c-10.144 16.122-18.904 30.045-23.659 50.718-2.241 9.746-4.21 20.438-5.851 31.779-2.397 16.568-4.143 33.644-5.832 50.158-.843 8.244-1.715 16.77-2.655 25.096-.779 6.903-1.828 14.307-3.119 22.008-6.397 38.163-27.471 66.794-49.782 97.106a2414 2414 0 0 0-7.099 9.679c-2.714 3.728-5.476 7.476-8.241 11.231l-3.42 4.645c-1.583 2.151-4.131 5.302-7.359 9.292-20.26 25.044-62.417 77.155-40.489 95.931l.769-.898c-21.055-18.028 22.178-71.47 40.639-94.29 3.237-4.001 5.794-7.161 7.392-9.335l3.42-4.644c2.766-3.756 5.529-7.506 8.245-11.236 2.369-3.252 4.739-6.472 7.096-9.674 22.396-30.429 43.552-59.17 49.995-97.611 1.294-7.722 2.347-15.148 3.128-22.071.941-8.333 1.813-16.861 2.657-25.109 1.687-16.502 3.432-33.565 5.825-50.109 1.637-11.309 3.6-21.969 5.834-31.684 4.709-20.477 13.42-34.321 23.506-50.352l2.416-3.845c7.293-11.65-8.42-21.908-16.862-27.419a151 151 0 0 1-2.512-1.662c-5.997-4.095-16.606-9.203-28.891-15.118-39.671-19.101-99.62-47.965-84.924-81.978 12.874-29.795 51.339-50.388 82.249-66.933 7.677-4.109 14.928-7.99 21.421-11.79 32.398-18.958 61.364-41.421 91.155-70.692 47.235-46.425 96.764-108.654 60.002-178.433z"/><path d="M881.769-240.99c36.359 73.544-7.489 133.542-49.752 177.595-26.069 27.164-55.818 49.235-99.47 73.768-6.913 3.885-14.749 7.914-23.046 12.179-33.409 17.178-74.986 38.554-90.786 69.14-3.977 7.7-4.634 15.558-1.952 23.355 9.243 26.879 56.728 48.751 88.151 63.224 10.719 4.936 19.975 9.199 25.403 12.565 10.845 6.727 22.057 15.067 17.768 28.935-2.072 6.701-4.84 13.235-7.516 19.555-4.845 11.44-9.854 23.268-11.174 36.887-1.205 12.431-2.091 23.073-2.708 32.534-.419 6.418-.799 12.859-1.18 19.306-1.087 18.42-2.211 37.468-4.274 55.879-.722 6.446-1.806 13.485-3.314 21.519-6.025 32.106-27.105 60.849-47.49 88.646-4.651 6.34-9.043 12.329-13.246 18.345a2774 2774 0 0 1-6 8.54 3564 3564 0 0 0-4.923 7.002c-1.8 2.568-4.472 6.053-7.567 10.088-19.12 24.93-54.711 71.334-34.658 92.655l.861-.811c-19.364-20.588 15.829-66.473 34.735-91.125 3.103-4.046 5.783-7.54 7.598-10.129 1.63-2.328 3.275-4.663 4.921-7 2.005-2.847 4.013-5.697 6.002-8.544 4.196-6.004 8.584-11.988 13.23-18.323 20.463-27.903 41.624-56.756 47.699-89.126 1.514-8.063 2.602-15.131 3.327-21.606 2.066-18.442 3.192-37.505 4.28-55.941.38-6.445.76-12.883 1.178-19.298.617-9.449 1.501-20.079 2.705-32.497 1.302-13.44 6.276-25.183 11.086-36.539 2.687-6.347 5.467-12.911 7.557-19.669 4.918-15.901-10.17-25.26-18.275-30.289-5.49-3.403-14.778-7.681-25.531-12.634-31.24-14.389-78.45-36.133-87.529-62.534-2.571-7.48-1.937-15.026 1.886-22.428 15.621-30.25 57.016-51.532 90.276-68.631 8.306-4.271 16.152-8.304 23.085-12.2 43.759-24.593 73.578-46.717 99.743-73.98 28.72-29.937 46.504-56.074 55.965-82.257 11.875-32.863 9.911-64.487-6.006-96.681z"/><path d="M875.824-247.086c9.147 22.443 19.208 51.996 15.796 81.563-4.346 37.682-28.191 68.559-53.312 96.312-31.722 35.045-73.116 57.598-109.641 77.496-7.379 4.02-15.399 8.102-23.889 12.422-36.783 18.721-78.468 39.939-98.774 71.116-4.94 7.587-6.313 15.409-4.083 23.249 7.517 26.419 54.405 48.451 85.432 63.03 11.061 5.198 20.613 9.687 25.281 12.957 5.646 3.956 18.75 14.92 18.493 31.233-.163 10.341-3.39 21.08-6.511 31.466-2.744 9.131-5.336 17.757-5.967 26.044-.495 6.51-.245 13.98-.003 21.205.132 3.96.269 8.055.28 11.917.065 24.116-.311 49.857-3.476 74.704-.492 3.864-1.313 7.964-2.108 11.928-.601 2.998-1.223 6.099-1.676 8.993-1.957 12.486-11.313 26.995-19.567 39.797-2.063 3.199-4.011 6.22-5.756 9.077-12.374 20.25-25.678 40.476-38.212 59.318a3087 3087 0 0 1-3.878 5.812c-2.085 3.121-4.162 6.227-6.197 9.31-1.994 3.02-4.474 6.516-7.346 10.564-17.068 24.057-45.635 64.322-28.293 88.805l.964-.683c-16.857-23.799 11.407-63.637 28.293-87.438 2.878-4.057 5.363-7.559 7.368-10.597a1972 1972 0 0 1 6.193-9.304q1.941-2.9 3.881-5.814c12.54-18.852 25.851-39.09 38.235-59.357 1.738-2.844 3.683-5.86 5.742-9.053 8.318-12.9 17.744-27.521 19.74-40.254.45-2.869 1.042-5.82 1.668-8.943.799-3.985 1.625-8.106 2.123-12.012 3.172-24.913 3.549-50.701 3.484-74.856-.01-3.881-.148-7.985-.28-11.954-.241-7.193-.49-14.63 0-21.075.622-8.16 3.196-16.725 5.921-25.794 3.144-10.464 6.395-21.283 6.56-31.788.266-16.88-13.196-28.156-18.997-32.22-4.751-3.328-13.887-7.622-25.456-13.058-30.833-14.488-77.427-36.383-84.797-62.283-2.133-7.497-.809-14.994 3.937-22.282 20.131-30.917 61.669-52.053 98.319-70.706 8.498-4.324 16.524-8.41 23.918-12.438 36.608-19.943 78.105-42.556 109.952-77.74 25.253-27.9 49.226-58.957 53.61-96.97 3.442-29.835-6.675-59.571-15.875-82.144z"/><path d="M870.01-253.174c9.698 26.457 19.171 54.54 19.223 81.443.079 40.551-23.011 72.874-43.136 96.504-27.865 32.722-67.231 53.353-105.304 73.314a2436 2436 0 0 0-15.865 8.365c-7.572 4.04-15.574 8.091-24.044 12.38-38.38 19.43-81.88 41.453-106.005 73.26-6.677 8.801-9.022 17.637-6.974 26.263 5.639 23.738 42.615 41.847 72.326 56.398 13.729 6.724 25.587 12.531 31.465 17.56 10.494 8.978 20.97 18.919 23.738 32.945 2.831 14.359.619 30.131-1.522 45.384-.709 5.056-1.38 9.833-1.874 14.561-1.198 11.455-2.066 21.055-1.45 31.599 1.673 28.629.828 52.092-2.659 73.837-.149.931-.289 1.86-.43 2.79-.836 5.557-1.701 11.303-4.686 17.296-18.446 37.021-39.97 71.966-64.16 110.543l-2.055 3.272c-2.403 3.825-4.785 7.616-7.074 11.349-1.646 2.681-3.583 5.695-5.635 8.885-15.703 24.42-39.434 61.322-22.498 86.367l.979-.662c-16.498-24.399 6.979-60.907 22.513-85.065 2.055-3.197 3.996-6.215 5.648-8.907 2.288-3.729 4.667-7.516 7.068-11.338l2.055-3.273c24.207-38.603 45.748-73.575 64.217-110.643 3.069-6.161 3.947-12 4.798-17.648.139-.926.278-1.852.427-2.778 3.501-21.832 4.35-45.377 2.672-74.094-.611-10.455.253-20.006 1.446-31.407.492-4.707 1.161-9.474 1.869-14.52 2.154-15.35 4.381-31.223 1.51-45.777-2.839-14.398-13.477-24.5-24.129-33.614-5.991-5.127-17.911-10.965-31.714-17.724-29.487-14.442-66.184-32.414-71.694-55.609-1.964-8.266.312-16.77 6.764-25.276 23.961-31.59 67.333-53.548 105.597-72.92 8.477-4.291 16.483-8.345 24.068-12.39a2468 2468 0 0 1 15.856-8.362C779.516-20.88 818.987-41.57 846.997-74.46c20.257-23.785 43.498-56.335 43.419-97.274-.053-27.096-9.561-55.29-19.297-81.848z"/><path d="m864.189-259.271 1.396 4.134c8.22 24.323 17.538 51.891 20.864 77.253 4.381 33.402-5.786 64.081-31.993 96.548S787.276-28.45 747.653-8.698C738.3-4.037 729.465.367 720.825 4.927c-7.566 3.992-15.332 7.933-23.556 12.104-39.462 20.024-84.204 42.719-112.099 75.474-7.925 9.3-11.011 18.783-9.172 28.187 4.937 25.254 43.957 45.517 72.446 60.312 9.745 5.061 18.16 9.432 23.607 13.153 9.759 6.669 22.709 18.047 28.986 34.382 6.338 16.496 5.833 35.409 5.345 53.7-.079 2.95-.157 5.861-.203 8.717q-.05 3.186-.094 6.379c-.119 8.433-.242 17.153-.643 25.303-1.207 24.522-2.679 48.356-7.374 70.378-1.335 6.261-4.382 12.818-7.911 20.411l-.073.157c-16.983 36.548-37.72 72.044-57.774 106.372l-4.237 7.255c-2.611 4.471-5.078 8.694-7.426 12.901a888 888 0 0 1-3.395 6.006c-13.981 24.591-33.129 58.27-16.458 84.418l.997-.636c-16.289-25.547 2.656-58.868 16.489-83.198 1.182-2.079 2.324-4.087 3.399-6.013 2.343-4.197 4.807-8.415 7.415-12.882l4.237-7.255c20.068-34.351 40.819-69.872 57.826-106.469l.073-.157c3.558-7.658 6.632-14.272 7.994-20.664 4.714-22.107 6.19-45.994 7.399-70.566.402-8.171.525-16.902.645-25.344q.043-3.192.094-6.377c.046-2.851.124-5.759.202-8.705.492-18.406.999-37.439-5.423-54.156-6.385-16.618-19.525-28.169-29.422-34.933-5.506-3.762-13.951-8.148-23.73-13.226-28.276-14.684-67.002-34.795-71.83-59.491-1.766-9.032 1.232-18.18 8.911-27.193 27.76-32.56 72.372-55.211 111.736-75.185 8.226-4.175 15.997-8.118 23.572-12.115 8.627-4.552 17.456-8.953 26.803-13.612 39.736-19.805 80.831-40.287 107.195-72.953 26.062-32.287 36.61-64.161 32.246-97.444-3.342-25.478-12.679-53.104-20.916-77.478l-1.396-4.135z"/><path d="M858.363-265.379c2.394 7.96 4.98 15.992 7.482 23.759 17.414 54.075 33.863 105.151-3.506 154.212-25.04 32.885-70.915 54.688-111.387 73.926-12.446 5.917-24.201 11.504-35.046 17.227-6.944 3.664-13.969 7.274-21.406 11.097-40.875 21.007-87.184 44.819-117.768 78.23-9.173 10.032-12.993 20.232-11.349 30.315 4.042 24.796 40.239 44.891 66.67 59.563 9.054 5.026 16.874 9.368 22.309 13.212 10.851 7.675 26.137 19.737 33.578 35.804 9.302 20.078 11.313 42.95 12.576 64.655.74 12.746.867 23.282.388 32.212-1.215 22.632-7.485 41.223-14.746 62.748l-1.145 3.401c-2.396 7.118-5.804 15.27-8.822 22.307-13.843 32.274-30.828 63.795-47.253 94.278a5823 5823 0 0 0-10.525 19.595l-.163.306c-2.437 4.564-4.738 8.876-6.826 13.107l-.176.357c-12.064 24.465-28.586 57.969-10.718 84.65l.983-.658c-17.488-26.113-1.141-59.264 10.796-83.469l.176-.357c2.079-4.214 4.376-8.517 6.808-13.073l.164-.306c3.487-6.534 7.004-13.061 10.522-19.591 16.438-30.506 33.435-62.05 47.299-94.373 3.027-7.058 6.447-15.238 8.855-22.396l1.146-3.4c7.288-21.608 13.582-40.269 14.806-63.062.482-8.975.355-19.555-.389-32.344-1.269-21.819-3.294-44.816-12.683-65.084-7.56-16.324-23.007-28.519-33.968-36.272-5.488-3.882-13.333-8.238-22.418-13.28-26.219-14.556-62.128-34.489-66.077-58.719-1.583-9.71 2.136-19.577 11.056-29.327 30.416-33.267 76.647-57.016 117.434-77.978 7.44-3.823 14.468-7.435 21.418-11.103 10.823-5.71 22.568-11.293 35.002-17.204 40.592-19.296 86.595-41.161 111.821-74.278 37.741-49.552 21.201-100.913 3.69-155.29-2.5-7.762-5.085-15.789-7.477-23.739z"/><path d="M852.531-271.497c7.506 28.498 14.609 54.311 25.537 81.648 15.356 38.412 12.44 68.18-9.456 96.522-25.608 33.15-73.928 55.716-116.562 75.63-15.107 7.056-29.376 13.721-42.289 20.613-6.072 3.241-12.283 6.5-18.574 9.8-41.842 21.955-89.273 46.863-121.742 81.068-10.48 11.047-15.007 22.17-13.457 33.061 3.491 24.522 36.123 43.59 62.343 58.912 7.68 4.488 14.934 8.726 20.366 12.522 12.608 8.81 28.262 21 37.476 37.206 12.663 22.271 16.716 47.29 18.832 66.598 1.325 12.097 1.645 23.359.922 32.569-1.838 23.452-8.711 41.452-24.512 64.198-3.355 4.83-5.717 11.106-8.217 17.749a440 440 0 0 1-2.012 5.278c-11.032 28.214-24.681 55.896-37.881 82.667-5.168 10.482-10.512 21.32-15.619 32.031-2.296 4.812-4.182 8.806-5.823 12.729-11.006 26.311-18.793 54.101-1.399 79.083l.97-.675c-17.068-24.514-9.357-51.952 1.519-77.952 1.631-3.898 3.511-7.878 5.799-12.676 5.104-10.703 10.446-21.538 15.613-32.016 13.211-26.793 26.871-54.499 37.921-82.76.7-1.79 1.366-3.559 2.018-5.291 2.474-6.574 4.81-12.782 8.082-17.492 15.932-22.936 22.863-41.098 24.719-64.781.728-9.281.408-20.62-.925-32.79-2.129-19.421-6.21-44.593-18.979-67.052-9.332-16.412-25.117-28.711-37.827-37.591-5.471-3.823-12.746-8.074-20.447-12.574-26-15.193-58.358-34.102-61.769-58.057-1.497-10.517 2.925-21.31 13.144-32.081 32.324-34.068 79.674-58.924 121.434-80.834 6.294-3.303 12.506-6.563 18.581-9.805 12.885-6.878 27.141-13.536 42.233-20.586 42.753-19.968 91.211-42.602 116.997-75.977 22.182-28.712 25.148-58.839 9.619-97.685-10.904-27.274-17.996-53.05-25.493-81.509z"/><path d="M846.697-277.621q.794 3.582 1.568 7.102c5.665 25.765 11.016 50.101 23.456 74.955 15.82 31.605 26.804 65.184.288 96.625-27.417 32.505-74.713 54.994-120.449 76.734-17.612 8.373-34.248 16.282-49.528 24.638a4053 4053 0 0 1-14.309 7.777c-42.521 23.044-90.704 49.163-124.515 84.416-11.478 11.973-16.552 23.914-15.081 35.492 3.086 24.265 33.932 43.327 58.717 58.643 6.658 4.115 12.947 8.001 18.177 11.657 18.39 12.86 31.324 25.116 40.702 38.573 15.724 22.562 21.655 49.567 23.863 68.248 1.631 13.809 1.892 24.226.821 32.784-3.282 26.207-16.256 44.405-31.28 65.476-1.185 1.662-2.422 3.247-3.733 4.925-3.833 4.906-7.797 9.98-10.238 16.937-8.625 24.587-19.464 48.805-29.945 72.226-6.245 13.953-12.702 28.382-18.619 42.725-1.818 4.41-3.421 8.358-4.616 12.013-9.702 29.673-7.077 52.118 8.514 72.776l.944-.712c-15.334-20.317-17.904-42.429-8.334-71.697 1.182-3.616 2.776-7.541 4.586-11.929 5.909-14.328 12.363-28.748 18.604-42.693 10.492-23.443 21.34-47.684 29.982-72.317 2.376-6.774 6.279-11.77 10.053-16.602 1.262-1.614 2.564-3.282 3.765-4.965 15.116-21.202 28.171-39.513 31.489-66.016 1.084-8.655.824-19.163-.82-33.069-2.223-18.816-8.203-46.023-24.066-68.785-9.461-13.575-22.487-25.925-40.995-38.866-5.258-3.677-11.56-7.571-18.233-11.694-24.571-15.185-55.151-34.082-58.165-57.787-1.425-11.207 3.542-22.822 14.762-34.525 33.649-35.102 81.779-61.191 124.224-84.194 4.825-2.614 9.603-5.205 14.313-7.78 15.251-8.34 31.871-16.24 49.468-24.606 45.85-21.795 93.263-44.33 120.844-77.04 11.841-14.039 17.099-29.353 16.076-46.814-.849-14.467-6-30.705-16.209-51.102-12.375-24.723-17.71-48.988-23.36-74.68q-.773-3.522-1.567-7.105z"/><path d="M840.865-283.746c5.407 29.486 10.078 54.95 24.075 82.346 17.454 34.162 33.939 66.43 5.545 97.512-29.533 32.33-76.655 55.296-122.237 77.522-19.828 9.669-38.556 18.8-55.838 28.626l-8.036 4.56c-43.035 24.406-91.811 52.064-126.428 88.75-12.141 12.866-17.54 25.619-16.047 37.905 3.017 24.824 33.553 44.503 58.088 60.316 4.72 3.041 9.178 5.915 13.313 8.727 18.796 12.779 33.34 26.184 43.227 39.839 14.482 20.001 24.303 44.75 27.654 69.69 1.215 9.043 2.208 22.083.039 32.841-4.462 22.127-17.287 39.45-30.865 57.791-2.389 3.228-4.859 6.564-7.281 9.926-2.802 3.891-5.678 8.108-8.46 12.186-2.387 3.499-4.855 7.117-7.294 10.558-7.807 11.013-12.688 25.816-17.409 40.132-2.195 6.658-4.269 12.946-6.603 18.814-1.994 5.008-4.034 10.004-6.074 15-5.197 12.727-10.571 25.886-15.049 39.073-1.479 4.356-2.639 8.508-3.382 11.252-6.183 22.828-.243 43.875 18.693 66.236l.902-.763c-18.662-22.039-24.526-42.745-18.454-65.165.739-2.728 1.891-6.856 3.36-11.181 4.468-13.152 9.834-26.295 15.025-39.005 2.042-5 4.083-9.999 6.077-15.01 2.348-5.901 4.427-12.206 6.628-18.881 4.694-14.233 9.546-28.951 17.251-39.818 2.445-3.451 4.916-7.073 7.306-10.575 2.777-4.073 5.649-8.284 8.442-12.161 2.418-3.356 4.886-6.69 7.272-9.914 13.659-18.45 26.56-35.876 31.074-58.261 2.202-10.919 1.2-24.099-.027-33.232-3.376-25.13-13.273-50.07-27.867-70.226-9.968-13.767-24.61-27.266-43.52-40.124-4.147-2.819-8.612-5.696-13.337-8.742-24.328-15.679-54.605-35.192-57.554-59.464-1.47-12.09 3.677-24.176 15.732-36.952 34.498-36.584 83.189-64.17 126.151-88.532l8.037-4.562c17.25-9.807 35.962-18.931 55.771-28.59 45.684-22.276 92.922-45.307 122.592-77.788 28.947-31.688 12.281-64.309-5.364-98.847-13.919-27.243-18.575-52.628-23.966-82.021z"/><path d="M835.032-289.872c4.089 28.412 8.64 54.222 22.966 82.402l.739 1.452c18.43 36.233 34.348 67.525 4.909 97.827-30.701 31.643-75.888 54.433-119.586 76.51-21.469 10.847-43.67 22.064-63.429 34.026a4780 4780 0 0 1-11.693 7.047C628.711 33.576 583.125 60.989 553.586 96.6c-11.828 14.265-16.707 27.525-14.913 40.539 3.444 24.983 31.083 44.074 57.812 62.537 2.339 1.615 4.668 3.224 6.969 4.829 19.75 13.775 34.503 27.2 45.103 41.043 16.42 21.443 27.12 46.614 30.13 70.876 1.384 11.162.835 23.43-1.47 32.817-4.84 19.714-18.912 37.607-32.521 54.911-4.323 5.497-8.407 10.689-12.134 15.864-3.025 4.2-6.118 8.724-9.109 13.098-2.533 3.704-5.152 7.535-7.733 11.174-18.96 26.737-31.487 68.876-42.198 110.431-.823 3.194-1.528 6.632-2.154 10.513-4.172 25.856 14.22 44.541 28.998 59.555l.842-.83c-14.591-14.823-32.75-33.272-28.674-58.536.622-3.845 1.319-7.249 2.132-10.406 10.684-41.445 23.168-83.462 42.019-110.043 2.585-3.647 5.208-7.482 7.744-11.191 2.986-4.368 6.075-8.886 9.092-13.074 3.713-5.155 7.789-10.337 12.104-15.824 13.686-17.403 27.84-35.398 32.741-55.36 2.336-9.519 2.896-21.947 1.494-33.244-3.035-24.467-13.818-49.842-30.364-71.449-10.675-13.941-25.514-27.449-45.365-41.294a1685 1685 0 0 0-6.974-4.832c-26.518-18.318-53.94-37.259-57.313-61.727-1.746-12.666 3.047-25.627 14.654-39.622 29.402-35.467 74.905-62.814 115.048-86.95a4372 4372 0 0 0 11.698-7.049c19.72-11.938 41.9-23.144 63.35-33.98 43.784-22.122 89.097-45.02 119.9-76.742 30.029-30.909 13.159-64.075-4.703-99.188l-.738-1.451c-14.244-28.019-18.776-53.73-22.85-82.035z"/><path d="M829.201-295.998c3.212 30.495 7.953 54.884 21.648 82.217 17.89 35.709 34.79 69.439-.146 102.065-31.67 29.579-73.285 51.983-113.529 73.65-23.833 12.832-48.477 26.1-70.693 40.68-39.729 26.07-84.62 57.747-116.329 95-11.541 13.557-16.581 27.142-14.981 40.374 3.297 27.274 34.115 49.511 58.879 67.378l1.36.982c20.37 14.704 35.521 28.492 46.319 42.151 17.962 22.725 29.062 48.237 31.256 71.837 1.048 11.277-.382 23.792-3.732 32.661-7.31 19.359-21.5 37.359-35.222 54.766-5.399 6.851-10.5 13.321-15.164 19.829-4.983 6.951-11.506 16.154-17.786 25.691-23.69 35.981-34.505 78.623-39.405 108.06-.561 3.363-.776 6.676-.948 9.781-1.13 20.337 17.786 35.558 32.986 47.789 2.218 1.785 4.313 3.47 6.276 5.114l.759-.906c-1.972-1.652-4.071-3.341-6.294-5.129-14.989-12.06-33.644-27.071-32.547-46.803.171-3.072.384-6.347.934-9.651 4.882-29.325 15.65-71.796 39.226-107.605 6.268-9.519 12.784-18.71 17.759-25.653 4.648-6.485 9.741-12.945 15.132-19.784 13.777-17.478 28.024-35.551 35.4-55.081 3.409-9.026 4.866-21.744 3.802-33.188-2.214-23.825-13.403-49.558-31.506-72.461-10.866-13.746-26.094-27.608-46.553-42.376l-1.361-.983c-24.577-17.732-55.162-39.8-58.397-66.56-1.581-13.074 3.23-25.984 14.707-39.467 31.62-37.137 76.42-68.752 116.078-94.778 22.172-14.55 46.794-27.807 70.604-40.626 40.312-21.702 81.995-44.144 113.778-73.828 35.567-33.202 18.489-67.343.394-103.458-13.614-27.174-18.331-51.449-21.529-81.811z"/><path d="M823.373-302.124c1.804 28.205 5.938 52.923 20.244 81.877 19.937 40.354 31.062 71.507-7.822 104.829-30.197 25.897-66.929 46.665-102.453 66.75-28.271 15.984-57.504 32.512-83.548 51.636-43.542 31.973-77.962 64.166-102.309 95.676-11.178 14.468-15.696 28.289-13.814 42.254 3.525 26.139 29.298 47.489 55.393 67.117 14.462 10.879 32.86 25.615 46.878 43.153 13.499 16.888 29.833 43.19 30.99 72.586.368 9.355-1.588 23.01-6.788 32.429-10.718 19.415-24.686 38.141-38.194 56.25-5.563 7.459-11.317 15.172-16.714 22.767-5.649 7.95-12.276 17.371-18.595 26.977-21.717 33.011-34.48 69.67-36.908 106.014a50 50 0 0 0 .212 9.118c2.199 18.718 20.93 29.596 37.455 39.194 4.288 2.49 8.337 4.841 11.853 7.2l.659-.982c-3.548-2.38-7.613-4.741-11.917-7.241-16.287-9.458-34.746-20.178-36.876-38.309a48.7 48.7 0 0 1-.206-8.901c2.414-36.141 15.111-72.603 36.717-105.444 6.308-9.59 12.927-19 18.57-26.941 5.39-7.585 11.139-15.292 16.698-22.745 13.532-18.142 27.525-36.901 38.282-56.386 4.669-8.458 7.391-21.43 6.933-33.047-1.169-29.717-17.638-56.251-31.247-73.278-14.101-17.642-32.573-32.439-47.091-43.359-25.896-19.478-51.468-40.644-54.932-66.33-1.839-13.635 2.603-27.169 13.578-41.373C572.7 67.943 607.043 35.83 650.493 3.922c25.988-19.084 55.19-35.594 83.431-51.561 35.573-20.112 72.358-40.91 102.641-66.882 39.501-33.87 28.289-65.413 8.111-106.25-14.218-28.778-18.328-53.365-20.124-81.428z"/><path d="M817.55-308.249c.704 32.239 5.953 55.055 18.718 81.379a604 604 0 0 0 3.804 7.654c6.774 13.474 13.779 27.407 14.656 42.616 1.46 25.357-14.416 40.75-33.736 56.856-29.031 24.198-63.582 43.98-96.995 63.11-31.843 18.233-64.77 37.084-92.83 59.716-36.043 29.067-65.043 66.961-86.286 96.727-15.045 21.083-17.147 41.236-6.424 61.61 9.419 17.897 27.596 33.681 45.835 48.073 15.676 12.369 33.494 27.274 46.787 44.034 13.974 17.618 30.399 44.609 29.291 73.143-.396 10.202-4.756 23.423-10.602 32.151-16.474 24.593-35.408 52.039-57.883 83.906-5.9 8.366-12.808 18.252-19.307 28.148-25.033 38.119-36.086 71.272-34.785 104.333.12 3.031.557 5.892 1.3 8.504 4.965 17.442 26.908 26.548 44.54 33.865 5.279 2.191 10.266 4.261 14.41 6.371l.537-1.054c-4.185-2.131-9.193-4.209-14.494-6.409-17.397-7.219-39.047-16.204-43.856-33.097-.708-2.486-1.142-5.33-1.256-8.226-1.291-32.804 9.701-65.735 34.593-103.638 6.489-9.882 13.39-19.758 19.284-28.116 22.48-31.875 41.419-59.328 57.899-83.93 5.956-8.891 10.397-22.363 10.801-32.762 1.122-28.896-15.448-56.149-29.546-73.924-13.369-16.856-31.251-31.816-46.981-44.228-18.137-14.31-36.204-29.993-45.521-47.695-10.495-19.941-8.42-39.689 6.339-60.372 21.198-29.705 50.137-67.518 86.066-96.495 27.987-22.572 60.872-41.4 92.675-59.609 33.459-19.155 68.055-38.963 97.166-63.229 19.569-16.314 35.651-31.926 34.159-57.83-.891-15.455-7.952-29.499-14.781-43.081a588 588 0 0 1-3.795-7.638c-12.685-26.156-17.901-48.836-18.601-80.89z"/><path d="M811.732-314.37c-.642 30.782 4.152 53.424 17.096 80.758a666 666 0 0 0 2.979 6.185c6.777 13.957 13.785 28.389 13.716 44.193-.112 26.415-19.552 42.637-38.357 58.325l-.159.133c-29.847 24.902-64.765 45.794-98.534 65.998-31.037 18.57-63.129 37.772-91.241 60.055-28.171 22.338-45.37 50.712-63.577 80.755-3.796 6.265-7.721 12.745-11.734 19.13-29.336 46.684 4.764 81.059 39.029 109.615 16.264 13.554 33.217 28.177 46.049 44.789 14.122 18.283 30.117 45.88 26.119 73.524-1.596 11.045-8.565 23.684-14.13 32.341-19.533 30.386-41.286 61.856-59.989 88.633-6.172 8.834-13.311 19.107-19.945 29.212-18.95 28.863-38.698 63.009-33.09 103.041.397 2.827 1.186 5.583 2.285 7.972 7.793 16.95 32.65 24.102 52.623 29.849 5.626 1.619 10.941 3.148 15.374 4.75l.401-1.111c-4.469-1.616-9.802-3.15-15.448-4.775-19.741-5.68-44.309-12.749-51.877-29.207-1.049-2.285-1.806-4.928-2.186-7.642-5.551-39.626 14.074-73.546 32.906-102.229 6.625-10.092 13.759-20.355 19.925-29.183 18.71-26.786 40.472-58.268 60.015-88.67 5.628-8.757 12.679-21.557 14.306-32.812 4.058-28.054-12.092-55.952-26.354-74.416-12.905-16.707-29.913-31.379-46.228-44.975-33.881-28.236-67.613-62.202-38.785-108.078 4.018-6.394 7.946-12.876 11.745-19.145 18.15-29.952 35.293-58.242 63.3-80.44 28.051-22.237 60.11-41.419 91.114-59.968 33.808-20.227 68.766-41.143 98.684-66.106l.159-.132c19.01-15.861 38.668-32.262 38.783-59.227.068-16.079-7-30.637-13.836-44.715-1.002-2.064-2.001-4.121-2.974-6.175-12.858-27.153-17.619-49.646-16.982-80.225z"/><path d="M805.918-320.485c-1.877 29.417 2.442 51.859 15.405 80.043a946 946 0 0 0 2.094 4.51c6.748 14.473 13.726 29.438 12.565 45.867-1.784 25.266-22.051 42.695-39.931 58.069l-1.686 1.45c-30.355 26.144-65.746 48.435-99.971 69.993-28.927 18.22-58.838 37.06-85.567 58.139-19.497 15.37-39.656 31.266-49.703 57.242l-.588 1.517c-6.232 16.114-12.119 31.334-20.188 46.348-24.601 45.777 6.529 79.04 40.523 109.186 15.144 13.43 32.308 28.652 44.664 45.41 20.684 28.055 27.9 52.864 21.446 73.738-3.347 10.83-9.532 21.186-15.512 31.201l-1.213 2.032c-17.37 29.164-37.11 57.637-56.2 85.173l-5.326 7.685c-6.782 9.796-13.796 19.925-20.528 30.17-19.375 29.489-41.337 62.912-31.831 102.156.646 2.672 1.725 5.277 3.118 7.533 10.863 17.594 38.932 22.691 61.485 26.788 5.336.969 10.376 1.884 14.767 2.892l.265-1.152c-4.417-1.014-9.471-1.932-14.82-2.903-22.323-4.055-50.104-9.1-60.69-26.246-1.329-2.151-2.358-4.638-2.977-7.19-9.384-38.746 12.428-71.941 31.672-101.228 6.724-10.234 13.733-20.357 20.511-30.146l5.326-7.685c19.101-27.553 38.853-56.043 56.244-85.242l1.212-2.031c6.016-10.075 12.238-20.492 15.628-31.457 6.57-21.253-.706-46.417-21.625-74.79-12.43-16.857-29.644-32.123-44.831-45.592-33.64-29.832-64.459-62.725-40.267-107.742 8.104-15.078 14.004-30.332 20.25-46.481l.587-1.518c9.933-25.673 29.965-41.468 49.333-56.74 26.681-21.039 56.564-39.862 85.465-58.066 34.262-21.581 69.691-43.897 100.114-70.098l1.684-1.449c18.055-15.527 38.52-33.125 40.341-58.883 1.181-16.733-5.862-31.84-12.674-46.449a943 943 0 0 1-2.091-4.504c-12.874-27.989-17.163-50.271-15.3-79.474z"/><path d="M800.111-326.596c-3.043 28.489.662 49.977 13.672 79.279l1.116 2.506c6.722 15.074 13.674 30.661 11.258 47.795-3.381 23.994-23.019 41.944-40.343 57.784l-2.396 2.193c-30.963 28.392-67.415 52.733-102.666 76.272-25.178 16.813-51.213 34.199-74.977 52.888a735 735 0 0 1-8.015 6.182c-19.092 14.591-42.854 32.753-48.928 56.047-1.009 3.875-1.954 7.727-2.868 11.452-3.252 13.257-6.324 25.78-12.002 38.584-20.781 46.867 11.892 77.965 43.489 108.038l3.495 3.322c14.188 13.475 28.86 27.409 39.558 42.965 13.493 19.62 27.088 48.359 15.226 73.854-4.972 10.688-10.831 22.013-17.913 34.622-17.281 30.77-37.866 60.671-57.773 89.588l-7.216 10.487c-6.204 9.017-12.618 18.339-18.697 27.569l-1.433 2.176c-19.478 29.545-41.556 63.034-29.558 99.479.885 2.688 2.226 5.26 3.776 7.241 14.824 18.953 48.973 22.266 73.908 24.686 3.361.326 6.581.638 9.595.971l.129-1.175c-3.018-.333-6.243-.646-9.61-.973-24.722-2.399-58.58-5.684-73.092-24.237-1.467-1.876-2.74-4.321-3.583-6.883-11.819-35.902 10.091-69.137 29.422-98.459l1.434-2.176c6.072-9.22 12.483-18.538 18.683-27.549l7.216-10.487c19.922-28.938 40.523-58.862 57.831-89.68 7.095-12.635 12.968-23.985 17.954-34.701 12.096-26.002-1.657-55.15-15.325-75.023-10.768-15.657-25.485-29.635-39.718-43.153l-3.494-3.32c-32.741-31.163-63.666-60.597-43.222-106.702 5.719-12.9 8.803-25.472 12.068-38.781.914-3.722 1.857-7.57 2.865-11.436 5.969-22.902 29.553-40.925 48.5-55.406 2.787-2.131 5.486-4.192 8.028-6.193 23.729-18.66 49.744-36.033 74.904-52.833 35.289-23.565 71.778-47.931 102.807-76.385l2.396-2.192c17.472-15.972 37.274-34.075 40.716-58.491 2.463-17.47-4.558-33.215-11.349-48.442l-1.115-2.504c-12.916-29.09-16.597-50.413-13.577-78.675z"/><path d="M794.31-332.702c-4.755 31.463.776 52.63 11.936 78.561 19.711 45.801 4.719 72.962-31.911 109.947q-.641.649-1.287 1.293c-31.438 31.439-69.503 58.476-106.332 84.634-19.698 13.992-40.067 28.46-58.993 43.319-3.334 2.617-6.913 5.322-10.702 8.187-20.923 15.819-46.963 35.504-55.833 59.415-3.217 8.673-4.903 18.224-6.533 27.46-1.543 8.748-3.139 17.793-6.034 26.095-15.147 43.447 10.636 69.062 37.932 96.18 3.678 3.654 7.481 7.432 11.188 11.258 1.724 1.78 3.471 3.568 5.23 5.368 12.58 12.877 25.589 26.193 34.727 40.853 15.872 25.461 18.828 52.405 8.111 73.92-2.044 4.106-4.064 8.317-6.202 12.775-3.765 7.848-7.657 15.964-11.743 23.56-18.502 34.407-41.198 67.569-63.147 99.639l-4.902 7.151c-5.598 8.155-11.385 16.588-16.894 24.921-1.315 1.988-2.703 4.056-4.139 6.196-18.257 27.203-43.26 64.459-25.386 95.21 1.372 2.361 3.219 4.715 5.34 6.808 20.842 20.555 56.053 22.731 87.421 23.156l.016-1.182c-31.137-.423-66.077-2.569-86.606-22.816-2.048-2.019-3.828-4.288-5.149-6.56-17.502-30.112 7.263-67.013 25.346-93.957 1.437-2.142 2.827-4.213 4.143-6.204 5.503-8.324 11.288-16.752 16.882-24.903l4.903-7.152c21.967-32.096 44.682-65.285 63.214-99.747 4.098-7.62 7.997-15.748 11.767-23.609 2.137-4.454 4.154-8.661 6.195-12.758 10.904-21.893 7.928-49.256-8.166-75.074-9.206-14.769-22.26-28.132-34.886-41.054-1.756-1.798-3.503-3.585-5.226-5.364-3.715-3.834-7.522-7.616-11.203-11.274-27.025-26.848-52.551-52.208-37.649-94.952 2.926-8.393 4.531-17.486 6.082-26.278 1.621-9.186 3.297-18.683 6.477-27.256 8.751-23.587 34.636-43.156 55.437-58.883 3.794-2.867 7.376-5.576 10.719-8.2 18.905-14.842 39.261-29.301 58.948-43.284 36.867-26.186 74.976-53.254 106.483-84.761.432-.433.861-.863 1.291-1.298 15.068-15.215 29.948-31.869 36.731-50.541 6.73-18.526 5.276-37.817-4.574-60.707-11.076-25.733-16.565-46.733-11.853-77.916z"/><path d="M788.514-338.804c-5.838 30.285-.914 50.718 10.214 77.833 18.552 45.209-1.401 73.723-31.616 109.07-31.528 36.878-72.539 67.632-112.203 97.375-13.533 10.148-27.527 20.641-40.759 31.109a2164 2164 0 0 1-8.72 6.852c-24.862 19.467-50.569 39.597-67.261 66.09-7.88 12.503-10.136 26.38-12.318 39.798-1.005 6.173-2.043 12.556-3.613 18.794-10.453 41.53 11.856 63.027 37.687 87.92 6.064 5.843 12.334 11.886 18.339 18.374l.342.369c13.418 14.498 27.293 29.489 36.283 46.025 13.282 24.429 13.671 45.975 1.342 74.368-4.954 11.411-10.929 24.829-17.675 37.818-18.761 36.117-41.823 70.601-63.838 102.825a4118 4118 0 0 1-6.573 9.583c-5.137 7.477-10.45 15.208-15.522 22.837-1.517 2.281-3.124 4.65-4.783 7.096-18.115 26.701-42.925 63.271-21.964 93.398 1.571 2.259 3.591 4.504 5.839 6.496 22.405 19.842 61.816 26.6 89.169 23.019l-.154-1.172c-27.086 3.546-66.09-3.124-88.23-22.732-2.18-1.93-4.134-4.104-5.653-6.287-20.497-29.461 4.049-65.641 21.972-92.06a938 938 0 0 0 4.789-7.104c5.067-7.621 10.377-15.349 15.512-22.821 2.198-3.198 4.394-6.394 6.575-9.586 22.034-32.255 45.119-66.772 63.91-102.948 6.763-13.021 12.748-26.461 17.711-37.892 12.492-28.768 12.09-50.615-1.388-75.404-9.061-16.664-22.987-31.711-36.454-46.262l-.342-.369c-6.028-6.514-12.31-12.568-18.386-18.423-25.567-24.637-47.647-45.914-37.362-86.78 1.583-6.287 2.625-12.695 3.634-18.892 2.262-13.916 4.4-27.059 12.15-39.359 16.586-26.32 42.212-46.382 66.99-65.79a2185 2185 0 0 0 8.727-6.854c13.218-10.458 27.207-20.947 40.733-31.09 39.714-29.782 80.784-60.578 112.391-97.554 29.504-34.514 50.581-64.551 31.811-110.287-11.04-26.902-15.927-47.166-10.145-77.159z"/><path d="M782.719-344.893c-6.775 29.181-2.432 48.891 8.563 77.193 15.986 41.15-3.851 70.027-26.821 103.464l-2.9 4.229c-28.791 42.058-71.37 75.349-112.55 107.546-8.15 6.372-16.578 12.962-24.644 19.43l-1.41 1.13c-29.325 23.517-59.648 47.83-84.165 77.13-16.865 20.156-19.286 35.328-22.951 58.294-.336 2.107-.682 4.277-1.051 6.522-6.682 40.655 17.22 61.923 42.525 84.44 7.386 6.571 15.022 13.367 21.883 20.7 13.729 14.675 25.625 31.591 32.635 46.411 12.342 26.092 5.531 48.491-4.656 75.064-4.926 12.848-10.703 25.994-17.171 39.073-17.06 34.497-37.984 67.042-64.153 105.294-2.7 3.947-5.427 7.9-8.154 11.854-4.773 6.919-9.708 14.072-14.432 21.104a835 835 0 0 1-4.756 6.982c-18.141 26.457-42.986 62.691-19.38 92.134 1.741 2.171 3.91 4.347 6.272 6.292 21.843 17.987 60.19 28.74 89.198 25.012l-.151-1.173c-28.719 3.691-66.678-6.95-88.296-24.752-2.3-1.893-4.41-4.01-6.1-6.118-23.058-28.759 1.5-64.575 19.433-90.726a908 908 0 0 0 4.762-6.991c4.72-7.026 9.653-14.177 14.423-21.092 2.729-3.956 5.456-7.91 8.157-11.858 26.197-38.294 47.147-70.878 64.237-105.438 6.484-13.111 12.276-26.291 17.215-39.174 10.289-26.839 17.163-49.477 4.621-75.991-7.061-14.927-19.032-31.954-32.84-46.714-6.898-7.373-14.556-14.187-21.961-20.776-25.055-22.294-48.721-43.352-42.144-83.364.369-2.247.716-4.42 1.052-6.528 3.633-22.773 6.034-37.816 22.689-57.72 24.442-29.208 54.719-53.488 83.999-76.967l1.41-1.131c8.059-6.464 16.485-13.05 24.632-19.421 41.252-32.255 83.906-65.608 112.796-107.81l2.901-4.227c23.16-33.714 43.16-62.83 26.949-104.564-10.908-28.075-15.22-47.614-8.514-76.496z"/><path d="M776.91-350.981c-8.52 30.168-1.976 49.656 7.079 76.629 11.273 33.575-1.63 57.998-16.572 86.278-3.358 6.36-6.834 12.936-10.091 19.769-21.832 45.8-63.969 79.752-104.72 112.589-5.099 4.109-10.148 8.176-15.094 12.221-7.856 6.422-16.408 12.996-25.464 19.955-45.642 35.081-102.45 78.737-105.746 135.476-1.157 19.903-1.009 39.201 13.296 56.487 9.041 10.925 21.766 19.872 34.071 28.524 9.226 6.487 17.941 12.614 24.836 19.315 11.491 11.167 21.78 27.097 29.753 46.067 9.503 22.611.503 47.826-7.436 70.072-.695 1.948-1.383 3.877-2.053 5.784-4.658 13.274-10.199 26.77-16.47 40.114-17.931 38.158-41.54 74.149-64.381 107.358-3.036 4.414-6.11 8.833-9.185 13.255-4.591 6.601-9.338 13.426-13.884 20.133-1.42 2.097-2.914 4.262-4.449 6.487-18.123 26.261-42.942 62.228-17.336 90.942 1.916 2.148 4.152 4.231 6.645 6.192 23.9 18.793 60.476 30.129 88.947 27.568l-.106-1.177c-27.749 2.495-64.803-8.994-88.109-27.32-2.44-1.919-4.625-3.954-6.495-6.051-24.987-28.02-.473-63.544 17.427-89.483 1.537-2.228 3.033-4.395 4.455-6.495 4.541-6.701 9.286-13.523 13.876-20.122 3.076-4.422 6.151-8.844 9.187-13.259 22.87-33.251 46.51-69.291 64.478-107.526 6.288-13.38 11.845-26.913 16.516-40.224.669-1.906 1.356-3.833 2.05-5.778 8.013-22.449 17.093-47.894 7.413-70.928-8.034-19.115-18.415-35.18-30.02-46.457-6.962-6.766-15.713-12.919-24.979-19.434-12.242-8.608-24.901-17.508-33.841-28.311-14.031-16.954-14.168-36.005-13.026-55.665 3.265-56.196 59.833-99.673 105.287-134.606 9.062-6.965 17.622-13.543 25.49-19.978 4.946-4.043 9.991-8.108 15.088-12.216 40.854-32.917 83.097-66.957 105.047-113 3.247-6.811 6.714-13.376 10.068-19.725 14.442-27.334 28.081-53.151 16.647-87.206-8.988-26.773-15.483-46.116-7.062-75.932z"/><path d="M771.107-357.08c-9.246 28.209-3.454 46.824 4.563 72.589l1.171 3.771c8.205 26.499-.633 46.656-9.99 67.998-4.954 11.3-10.077 22.983-12.972 36.186-10.255 46.759-52.223 81.435-89.247 112.03-4.114 3.4-8.157 6.74-12.078 10.035-10.296 8.648-20.908 17.356-31.17 25.778-24.226 19.882-49.278 40.44-72.541 62.132q-1.769 1.649-3.6 3.346c-21.943 20.36-49.25 45.688-48.374 76.891.67 23.837 2.316 41.975 17.498 58.346 9.886 10.662 23.165 19.165 36.006 27.388 9.586 6.138 18.641 11.936 26.174 18.46 13.32 11.536 22.506 26.731 27.304 45.164 5.501 21.133-3.051 47.097-9.923 67.959a807 807 0 0 0-2.838 8.723c-3.923 12.377-9.031 25.769-15.616 40.942-17.105 39.407-41.288 75.466-64.592 109.023-3.139 4.522-6.325 9.049-9.512 13.579-4.644 6.599-9.446 13.423-14.026 20.125-1.322 1.934-2.712 3.934-4.142 5.992-18.144 26.105-42.993 61.857-15.613 89.599 2.269 2.299 4.611 4.381 6.96 6.187 21.166 16.277 56.796 31.981 88.682 30.372l-.06-1.182c-31.585 1.594-66.907-13.983-87.902-30.128-2.306-1.774-4.607-3.819-6.838-6.079-26.69-27.044-2.166-62.33 15.741-88.095 1.432-2.06 2.825-4.063 4.147-6 4.576-6.695 9.376-13.515 14.017-20.111 3.189-4.532 6.377-9.061 9.518-13.585 23.337-33.605 47.556-69.721 64.704-109.227 6.601-15.21 11.724-28.639 15.659-41.055a827 827 0 0 1 2.834-8.711c6.92-21.009 15.532-47.156 9.943-68.627-4.858-18.668-14.17-34.064-27.674-45.759-7.597-6.58-16.687-12.4-26.31-18.563-12.779-8.183-25.993-16.645-35.778-27.196-14.9-16.068-16.519-33.998-17.181-57.575-.861-30.666 26.229-55.796 47.995-75.99q1.833-1.7 3.603-3.348c23.235-21.668 48.272-42.215 72.484-62.084 10.265-8.423 20.88-17.134 31.181-25.787 3.919-3.292 7.96-6.631 12.07-10.028 37.174-30.716 79.307-65.531 89.649-112.689 2.87-13.089 7.97-24.717 12.901-35.964 9.448-21.549 18.371-41.904 10.036-68.823l-1.172-3.773c-8.247-26.508-13.697-44.018-4.568-71.868z"/><path d="M765.31-363.189c-9.926 26.568-4.858 43.825 2.157 67.71.803 2.735 1.633 5.56 2.47 8.498 5.255 18.458 6.111 32.056-4.39 51.035l-.284.514c-9.961 17.999-16.54 29.89-14.732 51.018 3.938 45.969-41.023 83.955-73.851 111.687-2.894 2.445-5.708 4.822-8.404 7.13C651.631-51.338 633.97-37.2 616.89-23.525c-20.059 16.057-40.8 32.662-60.354 49.806-2.937 2.575-6.256 5.388-9.77 8.367-24.081 20.408-60.476 51.248-60.149 80.492.236 21.073 3.01 43.013 21.546 60.716 10.517 10.044 23.799 17.896 36.644 25.49 10.338 6.112 20.103 11.885 28.419 18.656 15.849 12.902 23.354 26.022 25.097 43.868 2.069 21.18-5.574 47.638-11.715 68.897-.839 2.903-1.655 5.729-2.424 8.458-3.544 12.579-8.334 26.173-14.645 41.557-16.433 40.059-41.048 76.458-64.851 110.307a2064 2064 0 0 1-9.467 13.312c-4.829 6.753-9.823 13.735-14.527 20.586-1.118 1.628-2.28 3.301-3.469 5.013-18.027 25.949-42.716 61.487-14.623 88.728 2.401 2.328 4.833 4.441 7.228 6.279 20.335 15.611 55.698 33.715 88.44 33.361l-.012-1.182c-32.441.35-67.523-17.621-87.708-33.117-2.36-1.811-4.757-3.894-7.125-6.191-27.372-26.541-3.015-61.603 14.771-87.204 1.19-1.714 2.353-3.388 3.473-5.018 4.697-6.841 9.687-13.82 14.514-20.568 3.178-4.444 6.355-8.886 9.473-13.32 23.842-33.904 48.498-70.366 64.977-110.538 6.328-15.427 11.133-29.062 14.689-41.685.768-2.726 1.584-5.55 2.422-8.451 6.169-21.356 13.847-47.934 11.756-69.34-1.776-18.189-9.41-31.549-25.526-44.67-8.386-6.827-18.187-12.622-28.565-18.757-12.788-7.559-26.011-15.377-36.43-25.328-18.219-17.4-20.947-39.06-21.18-59.873-.321-28.685 35.818-59.312 59.731-79.577 3.518-2.982 6.841-5.797 9.786-8.38 19.533-17.126 40.263-33.722 60.311-49.771 17.088-13.68 34.758-27.825 51.419-42.096 2.693-2.307 5.504-4.683 8.396-7.125 33.027-27.9 78.257-66.112 74.268-112.692-1.779-20.768 4.733-32.534 14.588-50.344l.285-.515c10.698-19.336 9.831-33.168 4.491-51.929-.838-2.942-1.668-5.771-2.472-8.509-6.951-23.665-11.973-40.763-2.185-66.961z"/><path d="M759.514-369.304c-10.627 25.286-5.968 41.431.478 63.778 1.073 3.72 2.184 7.567 3.284 11.672 5.599 20.861 3.7 34.142-7.527 52.635l-.179.293c-10.386 17.106-17.888 29.466-9.151 49.277 19.296 43.768-28.847 85.038-60.71 112.347l-3.201 2.746c-20.045 17.233-41.368 34.071-61.99 50.356-18.315 14.464-37.252 29.418-55.335 44.674-4.354 3.674-9.068 7.524-14.059 11.6-30.064 24.553-67.477 55.112-73.335 85.617-8.033 41.838 27.456 64.874 61.778 87.153 9.776 6.346 19.885 12.908 28.832 19.804 12.09 9.319 25.623 22.546 22.945 42.273l-.053.392c-3.507 25.827-7.132 52.534-13.236 77.377-3.12 12.702-7.569 26.431-13.6 41.973-15.636 40.293-40.789 77.031-65.214 111.207-2.72 3.808-5.5 7.623-8.282 11.443-5.36 7.358-10.902 14.966-15.958 22.447-1.411 2.088-2.89 4.233-4.402 6.427-18.111 26.274-40.65 58.975-12.586 85.67 2.508 2.386 5.014 4.558 7.449 6.457 28.32 22.083 61.312 35.718 88.254 36.473l.033-1.181c-26.699-.749-59.432-14.291-87.56-36.224-2.404-1.875-4.881-4.022-7.36-6.381-27.334-26-5.112-58.239 12.743-84.143a836 836 0 0 0 4.408-6.436c5.045-7.464 10.581-15.063 15.935-22.413 2.784-3.822 5.566-7.641 8.289-11.451 24.467-34.237 49.668-71.046 65.354-111.466 6.049-15.591 10.513-29.368 13.646-42.119 6.119-24.904 9.748-51.643 13.259-77.501l.053-.391c2.76-20.328-11.053-33.855-23.394-43.368-8.985-6.927-19.115-13.502-28.911-19.861-33.993-22.066-69.143-44.882-61.26-85.937 5.777-30.083 43.006-60.49 72.922-84.925 4.995-4.08 9.713-7.933 14.073-11.612 18.068-15.243 36.997-30.192 55.305-44.65 20.63-16.291 41.964-33.139 62.028-50.387l3.201-2.745c32.124-27.538 80.673-69.152 61.02-113.721-8.487-19.248-1.118-31.387 9.082-48.188l.178-.293c11.423-18.815 13.355-32.329 7.659-53.555-1.105-4.114-2.216-7.967-3.291-11.693-6.379-22.113-10.989-38.09-.524-62.992z"/><path d="M753.724-375.426c-11.313 24.161-6.908 39.25-.811 60.131 1.285 4.402 2.614 8.955 3.896 13.932 5.812 22.557.965 35.829-10.673 53.84-9.742 15.078-16.345 28.076-5.666 46.511 9.091 15.69 15.098 28.123 9.575 45.283-8.756 27.214-34.004 49.415-54.295 67.252l-1.969 1.732c-22.961 20.209-47.694 39.679-71.611 58.507-15.86 12.484-32.258 25.393-48.024 38.424-5.601 4.63-11.459 9.319-17.662 14.284-32.995 26.406-70.387 56.336-84.671 90.456-18.892 45.128 22.742 69.653 59.476 91.292 11.282 6.645 21.938 12.923 30.664 19.572 17.331 13.208 24.087 26.509 20.653 40.663-3.045 12.545-4.217 26.709-5.352 40.407-1.033 12.494-2.103 25.413-4.581 37.258-2.666 12.746-6.762 26.549-12.521 42.197-14.779 40.155-40.574 77.213-65.729 111.728l-3.543 4.857c-6.793 9.307-13.819 18.93-20.393 28.452a911 911 0 0 1-4.503 6.44c-18.082 25.71-40.587 57.705-12.253 84.713a121 121 0 0 0 7.625 6.709c13.814 11.094 50.055 37.166 88.155 39.64l.076-1.18c-37.762-2.453-73.763-28.358-87.49-39.382a120 120 0 0 1-7.55-6.645c-27.597-26.304-6.345-56.518 12.405-83.175 1.537-2.187 3.051-4.338 4.508-6.449 6.565-9.51 13.586-19.126 20.375-28.427l3.544-4.857c25.203-34.583 51.051-71.719 65.883-112.016 5.779-15.703 9.89-29.561 12.568-42.363 2.493-11.918 3.565-24.874 4.603-37.403 1.13-13.653 2.299-27.771 5.321-40.227 3.557-14.658-3.339-28.358-21.085-41.881-8.781-6.692-19.467-12.987-30.779-19.65-36.318-21.394-77.48-45.64-58.986-89.816 14.167-33.843 51.437-63.672 84.319-89.991 6.206-4.967 12.069-9.66 17.678-14.296 15.753-13.021 32.147-25.925 48-38.405 23.93-18.84 48.675-38.319 71.661-58.548l1.969-1.733c20.397-17.929 45.784-40.252 54.641-67.777 5.67-17.624-.434-30.281-9.678-46.238-10.343-17.854-3.883-30.543 5.637-45.277 11.824-18.3 16.744-31.796 10.823-54.777-1.287-4.995-2.619-9.557-3.907-13.967-6.024-20.633-10.376-35.542.747-59.299z"/><path d="M747.935-381.548c-12.367 23.726-7.744 38.792-1.348 59.644 1.229 4.006 2.5 8.149 3.739 12.634 5.643 20.442.605 33.786-10.003 49.928-10.514 15.997-18.819 28.633-6.594 47.385 9.128 14.002 18.202 30.66 16.3 48.046-2.819 25.79-26.05 47.129-44.711 64.275-1.405 1.29-2.782 2.554-4.119 3.792-25.005 23.157-52.592 45.014-79.27 66.152-12.886 10.21-26.211 20.767-39.07 31.332-6.031 4.957-12.134 9.863-18.596 15.058-34.855 28.025-74.364 59.787-96.02 96.274-8.934 15.051-11.652 28.467-8.309 41.015 6.524 24.495 34.956 40.566 62.451 56.106 11.546 6.526 22.451 12.69 31.454 19.311 15.827 11.64 22.253 24.44 19.645 39.133-2.105 11.86-2.43 25.186-2.743 38.074-.317 13.047-.645 26.539-2.779 38.909-2.197 12.729-5.94 26.545-11.446 42.238-14.82 42.254-43.431 80.852-66.419 111.867a2427 2427 0 0 1-8.082 10.813c-5.349 7.128-10.881 14.5-16.083 21.788-1.17 1.639-2.365 3.296-3.571 4.969-19.47 27.001-41.537 57.604-12.7 85.604 2.707 2.628 5.246 4.928 7.762 7.032 17.265 14.436 51.678 39.192 88.178 42.792l.116-1.178c-36.185-3.568-70.376-28.172-87.536-42.521-2.493-2.085-5.011-4.366-7.696-6.974-28.105-27.289-6.355-57.451 12.835-84.064 1.207-1.674 2.403-3.333 3.574-4.974 5.194-7.276 10.721-14.642 16.066-21.764 2.707-3.608 5.413-7.213 8.086-10.819 23.037-31.079 51.707-69.758 66.586-112.18 5.527-15.756 9.287-29.634 11.495-42.428 2.149-12.455 2.478-25.991 2.796-39.082.312-12.843.635-26.124 2.725-37.896 2.695-15.18-3.883-28.36-20.109-40.292-9.059-6.663-19.994-12.844-31.572-19.388-27.282-15.42-55.494-31.366-61.891-55.382-3.256-12.224-.579-25.343 8.184-40.107 21.547-36.303 59.268-66.628 95.743-95.955 6.464-5.198 12.57-10.107 18.607-15.065 12.85-10.56 26.172-21.113 39.053-31.32 26.696-21.151 54.301-43.024 79.339-66.21 1.336-1.239 2.712-2.501 4.115-3.79 18.809-17.279 42.22-38.782 45.088-65.018 1.941-17.757-7.244-34.643-16.485-48.819-11.804-18.105-4.088-29.844 6.59-46.091 10.795-16.424 15.918-30.017 10.155-50.891-1.243-4.502-2.516-8.652-3.747-12.667-6.315-20.583-10.877-35.454 1.265-58.752z"/><path d="M742.147-387.671c-12.953 22.616-8.495 36.51-2.323 55.741 1.427 4.444 2.902 9.04 4.301 14.149 4.732 17.272-3.538 31.732-11.536 45.716-9.392 16.421-18.263 31.931-6.044 50.58 10.586 16.158 15.09 29.597 15.063 44.934-.061 32.334-17.11 52.209-37.701 73.041-29.694 30.06-65.023 57.538-99.166 84.105-50.208 39.066-102.126 79.459-138.068 129.319-24.075 33.394-22.897 60.713 3.601 83.518 12.629 10.869 28.328 17.929 43.509 24.756 10.285 4.626 20.921 9.408 30.283 15.277 13.538 8.486 19.79 20.151 20.272 37.82.138 5.04.328 10.11.518 15.192.754 20.162 1.534 41.01-1.049 60.451-1.675 12.604-4.982 25.982-10.41 42.101-13.524 40.165-39.663 75.709-67.536 111.601-2.492 3.21-5.018 6.42-7.547 9.635-5.733 7.286-11.661 14.821-17.157 22.315l-1.958 2.665c-20.094 27.331-42.87 58.308-13.491 87.637 2.924 2.92 5.421 5.276 7.859 7.414 17.222 15.111 51.602 41.161 88.358 45.858l.15-1.173c-36.445-4.657-70.608-30.552-87.728-45.574-2.419-2.121-4.898-4.46-7.804-7.361-28.659-28.612-6.203-59.153 13.609-86.1l1.959-2.667c5.483-7.477 11.405-15.004 17.132-22.283 2.53-3.217 5.058-6.429 7.552-9.64 27.937-35.976 54.139-71.609 67.722-111.95 5.452-16.192 8.777-29.64 10.461-42.322 2.597-19.54 1.815-40.44 1.059-60.65-.19-5.078-.38-10.145-.517-15.181-.494-18.107-6.917-30.07-20.827-38.79-9.431-5.912-20.104-10.712-30.426-15.353-15.104-6.792-30.723-13.816-43.223-24.574-25.944-22.329-27.061-49.128-3.413-81.931 35.845-49.719 87.693-90.063 137.835-129.077 34.172-26.59 69.508-54.06 99.281-84.207 20.777-21.02 37.981-41.088 38.042-73.869.028-15.586-4.534-29.219-15.257-45.585-11.821-18.043-3.125-33.248 6.082-49.345 8.118-14.193 16.513-28.869 11.651-46.616-1.407-5.133-2.885-9.741-4.316-14.198-6.078-18.941-10.47-32.627 2.223-54.791z"/><path d="M736.361-393.79c-13.516 21.581-9.173 34.301-3.161 51.906 1.615 4.732 3.287 9.624 4.824 15.226 4.835 17.616-3.755 31.638-12.06 45.197-9.938 16.226-19.324 31.551-7.113 52.088 23.799 40.024 7.481 90.256-17.752 119.991-33.191 39.108-75.242 73.12-115.911 106.012-41.818 33.823-85.062 68.799-118.46 109.209-24.747 29.945-42.863 61.814-8.155 91.989 11.696 10.169 26.52 16.566 40.854 22.753 12.193 5.262 23.708 10.232 33.137 17.265 14.103 10.521 18.471 20.203 22.435 36.656 5.531 22.967 7.377 49.895 5.061 73.879-1.202 12.446-4.205 25.727-9.452 41.796-13.967 42.773-44.748 80.619-69.48 111.03a2443 2443 0 0 1-5.75 7.033c-6.501 7.93-13.223 16.13-19.359 24.351-20.69 27.719-44.14 59.136-14.242 90.302 3 3.127 5.517 5.62 7.923 7.846 17.051 15.781 51.252 43.101 88.733 48.766l.176-1.169c-37.167-5.618-71.155-32.776-88.107-48.465-2.388-2.209-4.889-4.687-7.873-7.797-29.204-30.442-7.069-60.098 14.337-88.776 6.121-8.2 12.834-16.389 19.325-24.308 1.925-2.349 3.848-4.693 5.754-7.037 24.794-30.487 55.652-68.428 69.687-111.41 5.274-16.153 8.294-29.514 9.504-42.049 2.328-24.109.473-51.18-5.088-74.27-4.031-16.734-8.482-26.588-22.878-37.326-9.539-7.116-21.116-12.113-33.374-17.403-14.252-6.151-28.99-12.512-40.548-22.561-33.943-29.509-16.074-60.86 8.292-90.342 33.318-40.323 76.517-75.256 118.292-109.043C626.643-35.38 668.742-69.425 702-108.62c25.497-30.043 41.962-80.836 17.867-121.359-11.847-19.924-2.641-34.954 7.106-50.866 8.437-13.775 17.161-28.018 12.191-46.129-1.547-5.635-3.223-10.546-4.845-15.294-5.907-17.296-10.173-29.792 3.045-50.897z"/><path d="M730.575-399.907c-14.057 20.62-9.804 32.172-3.916 48.159 1.718 4.667 3.667 9.957 5.325 15.951 4.979 17.999-3.831 31.951-12.352 45.443-9.95 15.758-20.239 32.053-9.017 54.847 19.99 40.601-.79 84.381-17.486 119.559l-1.258 2.654c-12.166 25.666-41.542 49.626-67.465 70.764-8.03 6.548-15.613 12.732-22.631 18.872-7.89 6.902-15.998 13.913-23.84 20.695-37.977 32.84-77.249 66.8-109.89 103.829l-.161.183c-12.813 14.534-27.335 31.006-34.216 48.305-8.028 20.183-3.964 37.459 12.426 52.813 11.498 10.773 26.617 17.259 41.239 23.531 11.946 5.125 23.229 9.965 32.184 16.86 11.512 8.865 19.525 19.795 25.979 35.44 8.54 20.7 12.56 46.921 11.029 71.94-.748 12.23-3.483 25.363-8.607 41.33-12.892 40.179-41.43 73.918-69.029 106.545l-3.142 3.716q-2.043 2.417-4.1 4.839c-7.177 8.459-14.599 17.206-21.255 26.053-24.337 32.348-40.72 59.557-12.624 90.554 2.882 3.178 5.486 5.901 7.959 8.322 16.781 16.433 50.702 44.967 89.335 51.441l.196-1.166c-38.316-6.421-72.023-34.784-88.705-51.12-2.456-2.405-5.043-5.111-7.91-8.272-27.488-30.326-11.311-57.143 12.693-89.048 6.636-8.82 14.046-17.553 21.212-25.999q2.056-2.422 4.101-4.841l3.142-3.715c27.674-32.716 56.289-66.545 69.253-106.947 5.154-16.064 7.906-29.288 8.661-41.62 1.54-25.192-2.511-51.603-11.116-72.463-6.538-15.848-14.666-26.928-26.352-35.926-9.073-6.986-20.423-11.855-32.439-17.009-14.527-6.232-29.55-12.677-40.898-23.308-36.05-33.775-3.935-70.202 21.87-99.473l.161-.183c32.588-36.967 71.828-70.9 109.777-103.717 7.843-6.782 15.952-13.796 23.845-20.7 7.002-6.125 14.579-12.303 22.599-18.845 26.02-21.22 55.509-45.268 67.786-71.173l1.259-2.654c16.805-35.408 37.721-79.476 17.479-120.589-10.931-22.2-1.271-37.498 8.956-53.693 8.657-13.709 17.609-27.886 12.49-46.389-1.671-6.041-3.628-11.355-5.355-16.044-5.98-16.239-9.931-26.968 3.784-47.085z"/><path d="M724.79-406.019c-14.588 19.739-10.626 29.611-4.63 44.553 1.896 4.724 4.044 10.08 5.807 16.386 4.467 15.988-2.942 25.742-11.522 37.035-2.713 3.572-5.519 7.267-8.048 11.317-11.122 17.818-12.569 35.884-4.556 56.856 12.152 31.805-1.143 60.987-14 89.209-4.23 9.286-8.605 18.887-12.054 28.5-13.244 36.904-40.567 62.128-69.489 88.828l-2.243 2.07c-12.157 11.23-24.733 22.551-36.895 33.5-32.984 29.696-67.09 60.404-96.869 92.867-1.885 2.057-3.891 4.205-5.975 6.437-25.804 27.642-64.8 69.416-31.075 104.718 11.617 12.159 27.128 19.09 42.128 25.795 10.179 4.549 20.705 9.253 29.632 15.495 12.846 8.984 24.093 21.408 30.858 34.087 11.336 21.248 16.934 44.164 17.112 70.057.095 13.78-3.744 27.7-7.908 40.689-11.963 37.329-39.164 68.168-65.47 97.993a2448 2448 0 0 0-9.99 11.374l-2.601 2.987c-7.754 8.892-15.772 18.088-22.82 27.479-22.546 30.044-38.905 57.634-10.597 91.057a187 187 0 0 0 7.967 8.831c16.447 17.06 50.036 46.734 90.205 53.804l.205-1.165c-39.839-7.011-73.212-36.503-89.558-53.459a185 185 0 0 1-7.917-8.776c-27.792-32.815-12.387-58.896 10.641-89.582 7.022-9.357 15.025-18.536 22.765-27.413l2.603-2.986c3.288-3.778 6.627-7.564 9.985-11.37 26.385-29.915 53.67-60.848 65.71-98.414 4.192-13.083 8.06-27.112 7.963-41.057-.179-26.09-5.822-49.185-17.251-70.606-6.85-12.838-18.231-25.412-31.224-34.498-9.019-6.308-19.597-11.035-29.827-15.607-14.896-6.657-30.3-13.541-41.755-25.532-32.953-34.494 5.583-75.777 31.085-103.094a1021 1021 0 0 0 5.982-6.444c29.739-32.425 63.824-63.11 96.788-92.787 12.164-10.952 24.743-22.277 36.907-33.511l2.242-2.07c29.033-26.805 56.457-52.122 69.799-89.297 3.433-9.566 7.797-19.146 12.018-28.41 12.958-28.442 26.357-57.854 14.027-90.12-7.869-20.598-6.454-38.332 4.456-55.808 2.499-4.006 5.289-7.678 7.987-11.229 8.404-11.064 16.344-21.515 11.718-38.068-1.78-6.369-3.941-11.755-5.848-16.508-5.848-14.574-9.712-24.202 4.483-43.411z"/><path d="M719.002-412.127c-6.805 8.596-13.623 18.822-12.612 29.497.59 6.221 4.013 11.099 7.325 15.818 2.645 3.769 5.381 7.667 6.573 12.179 4.052 15.32-4.511 26.047-13.576 37.403-3.98 4.985-8.096 10.141-11.002 15.688-10.432 19.909-7.683 40.106-3.157 58.966 7.332 30.546-6.409 57.434-19.697 83.437-5.315 10.401-10.812 21.156-14.943 32.063-1.967 5.193-3.542 10.665-5.211 16.459-2.942 10.221-5.984 20.788-11.313 29.557-8.277 13.61-20.24 25.476-31.822 36.95-2.099 2.081-4.173 4.142-6.212 6.19-18.228 18.347-37.461 36.445-56.073 53.947-24.927 23.436-50.7 47.673-74.129 72.65-2.63 2.805-5.69 5.944-8.93 9.265-27.58 28.281-73.743 75.615-44.094 112.186 11.488 14.17 28.501 22.1 44.954 29.768 8.419 3.925 17.126 7.983 24.809 12.786 16.009 10.009 28.204 20.993 36.247 32.647 14.369 20.822 21.889 43.183 22.99 68.361.585 13.384-3.205 27.094-7.389 39.916-11.339 34.757-37.715 63.326-63.223 90.954-5.287 5.726-10.754 11.648-15.901 17.439l-1.295 1.457c-8.212 9.234-16.703 18.783-24 28.643-25.263 34.136-34.051 58.882-8.189 91.831a167 167 0 0 0 7.953 9.365c27.441 30.084 60.746 50.414 91.376 55.775l.204-1.164c-30.377-5.317-63.439-25.513-90.707-55.408a166 166 0 0 1-7.896-9.298c-25.395-32.353-16.706-56.731 8.209-90.398 7.265-9.816 15.738-19.345 23.933-28.56l1.295-1.457c5.141-5.783 10.603-11.7 15.886-17.423 25.595-27.721 52.06-56.386 63.479-91.389 4.217-12.928 8.039-26.762 7.445-40.335-1.11-25.407-8.698-47.97-23.198-68.98-8.135-11.788-20.446-22.884-36.593-32.978-7.744-4.842-16.484-8.916-24.937-12.856-16.33-7.612-33.218-15.483-44.535-29.442-28.985-35.753 16.717-82.616 44.023-110.615 3.243-3.326 6.308-6.468 8.946-9.28 23.403-24.955 49.163-49.177 74.076-72.6 18.62-17.507 37.864-35.608 56.103-53.974 2.036-2.048 4.11-4.106 6.205-6.183 11.628-11.52 23.648-23.442 31.998-37.177 5.413-8.904 8.477-19.549 11.442-29.843 1.66-5.77 3.229-11.22 5.179-16.367 4.108-10.847 9.589-21.572 14.889-31.944 13.387-26.195 27.229-53.28 19.796-84.251-4.472-18.637-7.198-38.578 3.055-58.142 2.852-5.446 6.933-10.556 10.877-15.499 8.849-11.086 18-22.548 13.796-38.444-1.247-4.715-4.043-8.701-6.749-12.556-3.371-4.803-6.555-9.34-7.115-15.251-.973-10.257 5.703-20.239 12.362-28.65z"/><path d="M713.216-418.231c-7.555 8.888-14.385 18.504-13.214 28.602.672 5.797 4.125 10.164 7.463 14.385 2.75 3.477 5.592 7.072 6.766 11.397 3.857 14.197-5.58 25.822-14.707 37.063-4.7 5.791-9.14 11.26-11.918 17.081-10.293 21.579-8.005 44.398-4.78 65.922 4.535 30.268-10.453 54.846-24.947 78.615-7.141 11.712-14.526 23.822-19.581 36.545-3.139 7.9-5.325 16.637-7.44 25.086-1.522 6.083-3.096 12.373-5.021 18.349-5.372 16.68-15.124 28.746-26.376 41.684-22.445 25.811-47.56 50.26-71.848 73.905-17.117 16.665-34.821 33.899-51.279 51.324-2.854 3.022-6.321 6.514-10.336 10.556-29.051 29.257-83.125 83.713-58.369 120.944 11.169 16.796 30.208 25.859 48.622 34.623 6.779 3.227 13.182 6.275 19.136 9.667 13.861 7.896 29.566 17.807 40.965 31.441 16.921 20.239 26.19 42.188 28.333 67.1 1.147 13.33-3.053 27.118-7.08 38.996-10.988 32.403-36.967 59.304-62.09 85.318-7.318 7.577-14.229 14.734-20.789 22.028l-.168.187c-8.549 9.506-17.389 19.336-24.791 29.603-23.532 32.641-31.372 57.115-5.459 92.916 2.219 3.065 4.809 6.307 7.92 9.908 26.798 31.039 60.654 51.915 92.887 57.275l.194-1.167c-31.965-5.315-65.566-26.047-92.186-56.88-3.088-3.577-5.658-6.792-7.858-9.83-25.491-35.22-17.747-59.34 5.461-91.531 7.365-10.215 16.183-20.021 24.711-29.504l.168-.187c6.545-7.278 13.45-14.428 20.76-21.997 25.214-26.108 51.287-53.106 62.359-85.76 4.066-11.992 8.306-25.92 7.139-39.478-2.165-25.161-11.521-47.324-28.604-67.756-11.519-13.778-27.334-23.761-41.286-31.71-5.993-3.413-12.416-6.471-19.214-9.707-18.268-8.695-37.157-17.686-48.145-34.21-24.223-36.427 29.41-90.439 58.223-119.456 4.021-4.048 7.493-7.545 10.357-10.577 16.441-17.408 34.135-34.632 51.244-51.289 24.305-23.662 49.435-48.128 71.916-73.977 11.339-13.037 21.168-25.204 26.61-42.097 1.935-6.013 3.515-12.323 5.042-18.425 2.104-8.412 4.281-17.108 7.39-24.937 5.018-12.629 12.376-24.695 19.492-36.365 14.605-23.949 29.706-48.713 25.107-79.407-3.198-21.341-5.47-43.958 4.68-65.235 2.716-5.695 7.113-11.111 11.768-16.845 9.313-11.473 18.944-23.336 14.929-38.117-1.238-4.56-4.157-8.253-6.98-11.822-3.384-4.281-6.582-8.325-7.216-13.788-1.118-9.648 5.558-19.016 12.939-27.7z"/><path d="M707.423-424.325c-7.835 8.867-15.315 18.423-13.291 29.168.899 4.777 4.002 8.445 7 11.992 2.708 3.202 5.507 6.512 6.588 10.585 3.478 13.104-6.539 26.011-16.225 38.492-5.79 7.463-11.261 14.511-13.877 21.491-7.938 21.184-6.457 44.25-5.023 66.557l.143 2.218c2.001 31.387-12.951 51.084-28.782 71.938-10.103 13.31-20.55 27.073-26.912 44.495-3.693 10.111-5.876 20.77-7.988 31.079-3.408 16.636-6.932 33.837-16.913 48.497-21.233 31.182-49.424 58.986-76.691 85.887-12.034 11.868-24.478 24.145-35.892 36.323l-3.086 3.29c-24.928 26.578-50.705 54.06-69.373 85.557-8.884 14.991-19.941 33.648-11.464 52.527 9.098 20.258 31.326 30.293 50.938 39.146 5.301 2.393 10.308 4.654 14.965 7.05 16.047 8.258 32.602 17.665 44.984 30.464 18.649 19.279 28.958 40.342 32.442 66.287 1.699 12.649-2.196 25.255-6.692 38.133-10.58 30.302-36.431 55.886-61.436 80.625-8.93 8.836-17.364 17.183-24.926 25.574-7.6 8.433-17.058 18.929-24.409 29.537-25.111 36.248-25.739 60.06-2.485 94.368 2.211 3.262 4.858 6.777 7.868 10.449 25.797 31.466 61.227 53.229 94.778 58.217l.174-1.17c-33.268-4.946-68.423-26.552-94.038-57.796-2.987-3.643-5.612-7.13-7.803-10.363-22.914-33.806-22.289-57.282 2.479-93.031 7.307-10.547 16.737-21.011 24.314-29.419 7.539-8.366 15.963-16.702 24.88-25.525 25.101-24.838 51.05-50.516 61.72-81.077 4.545-13.018 8.481-25.772 6.748-38.68-3.52-26.207-13.93-47.482-32.764-66.952-12.501-12.922-29.156-22.388-45.293-30.692-4.685-2.411-9.704-4.677-15.02-7.077-19.42-8.766-41.431-18.702-50.345-38.552-8.226-18.319 2.657-36.684 11.402-51.441 18.601-31.385 44.333-58.819 69.218-85.35l3.086-3.29c11.398-12.163 23.832-24.431 35.859-36.29 27.307-26.937 55.541-54.786 76.839-86.064 10.115-14.855 13.662-32.175 17.094-48.925 2.104-10.266 4.277-20.882 7.94-30.91 6.302-17.255 16.694-30.945 26.744-44.185 15.967-21.035 31.049-40.903 29.019-72.728l-.142-2.219c-1.425-22.183-2.899-45.121 4.95-66.067 2.553-6.811 7.97-13.791 13.704-21.181 9.863-12.709 20.061-25.85 16.434-39.521-1.15-4.328-4.037-7.743-6.828-11.045-3.034-3.587-5.899-6.975-6.741-11.447-1.926-10.221 5.374-19.519 13.016-28.166z"/><path d="M701.636-430.422c-6.485 6.913-16.287 17.36-13.933 28.407.946 4.44 4.01 7.702 6.973 10.856 2.788 2.967 5.671 6.035 6.682 10.039 3.049 12.082-7.325 25.792-17.358 39.052-6.253 8.263-12.158 16.069-14.625 23.201-7.233 20.919-7.111 43.763-6.994 65.855.018 3.327.036 6.636.028 9.914-.057 23.718-6.084 41.441-20.154 59.261-5.229 6.626-11.489 12.988-17.543 19.142-11.971 12.169-24.352 24.752-30.393 40.693-4.489 11.84-5.7 24.655-6.872 37.05-1.164 12.306-2.367 25.03-6.797 36.65-12.42 32.568-43.429 62.855-70.785 89.58-9.869 9.641-19.194 18.75-27.292 27.562l-5.089 5.533c-26.234 28.51-53.363 57.989-74.362 90.903l-.225.353c-9.591 15.029-22.726 35.613-18.337 54.054 5.516 23.179 30.947 34.039 51.381 42.766 4.436 1.895 8.626 3.684 12.438 5.507 15.863 7.589 34.006 17.055 48.303 29.732 20.386 18.076 31.976 39.58 35.432 65.741 1.775 13.436-2.43 26.591-6.778 37.687-11.304 28.845-37.038 53.639-61.923 77.615-9.764 9.406-18.986 18.292-27.231 27.297-7.211 7.874-16.414 18.326-23.638 29.345-22.921 34.957-22.759 60.148.617 96.267a151 151 0 0 0 7.802 10.972c25.238 32.276 61.531 54.15 97.085 58.513l.143-1.174c-35.248-4.325-71.247-26.033-96.297-58.067a151 151 0 0 1-7.741-10.886c-23.066-35.642-23.229-60.496-.622-94.975 7.178-10.949 16.341-21.354 23.522-29.196 8.22-8.978 17.429-17.849 27.179-27.243 24.98-24.067 50.806-48.951 62.204-78.036 4.403-11.236 8.66-24.571 6.85-38.274-3.495-26.454-15.212-48.197-35.82-66.47-14.406-12.774-32.641-22.29-48.577-29.913-3.835-1.835-8.036-3.629-12.484-5.529-20.191-8.622-45.318-19.353-50.696-41.952-4.273-17.954 8.707-38.292 18.183-53.144l.226-.353c20.943-32.826 48.035-62.267 74.235-90.738l5.091-5.533c8.074-8.79 17.388-17.887 27.247-27.517 27.446-26.812 58.552-57.194 71.062-90.004 4.489-11.771 5.7-24.577 6.87-36.96 1.165-12.317 2.369-25.053 6.801-36.743 5.954-15.708 18.245-28.201 30.131-40.283 6.076-6.176 12.358-12.561 17.628-19.239 14.247-18.045 20.35-35.987 20.408-59.99.008-3.282-.01-6.593-.028-9.924-.116-21.993-.238-44.733 6.93-65.463 2.406-6.955 8.256-14.688 14.45-22.874 10.2-13.482 20.75-27.423 17.561-40.056-1.085-4.3-4.075-7.48-6.965-10.557-2.984-3.175-5.803-6.175-6.679-10.293-2.226-10.443 7.321-20.619 13.639-27.351z"/><path d="m695.848-436.518-.308.311c-6.924 7.016-17.387 17.617-14.223 28.714 1.055 3.698 4.054 6.321 6.957 8.857 3.152 2.754 6.13 5.357 6.93 9.24 2.345 11.378-7.987 25.04-17.98 38.251-5.941 7.855-11.553 15.274-13.986 21.685-8.481 22.336-9.48 46.734-10.446 70.328-.229 5.594-.466 11.377-.801 16.991-1.586 26.602-10.261 46.58-28.128 64.777-5.185 5.286-11.004 10.285-17.164 15.586-14.62 12.58-29.741 25.587-36.4 42.798-5.001 12.921-4.822 26.804-4.649 40.23.111 8.653.227 17.601-1.046 26.204-5.024 33.953-34.708 64.786-60.898 91.988-6.68 6.938-12.989 13.492-18.569 19.776q-4.104 4.62-8.221 9.24c-24.1 27.065-49.021 55.051-70.296 85.052-.921 1.298-1.873 2.629-2.847 3.991-12.413 17.351-27.86 38.946-27.456 60.328.505 26.622 27.589 38.011 49.352 47.16 3.633 1.529 7.063 2.97 10.27 4.433 17.84 8.138 36.351 17.312 50.881 29.231 21.947 18.003 34.152 39.442 37.31 65.541 1.31 10.815-1.258 23.19-7.849 37.831-12.038 26.742-36.51 50.143-60.181 72.774-10.954 10.475-21.302 20.37-30.539 30.607-10.167 11.27-17.361 20.551-22.64 29.208-20.731 33.999-19.76 59.825 3.708 98.691a139 139 0 0 0 7.734 11.478c24.747 32.996 62.073 54.707 99.848 58.075l.105-1.178c-37.448-3.339-74.46-24.874-99.009-57.607a138 138 0 0 1-7.668-11.379c-23.195-38.414-24.165-63.918-3.711-97.465 5.24-8.593 12.393-17.818 22.51-29.032 9.206-10.205 19.539-20.085 30.478-30.543 23.75-22.71 48.309-46.192 60.442-73.144 6.681-14.843 9.281-27.423 7.945-38.458-3.198-26.417-15.541-48.108-37.735-66.314-14.634-12.004-33.227-21.22-51.139-29.391-3.223-1.471-6.662-2.917-10.303-4.447-21.446-9.018-48.138-20.241-48.628-46.094-.398-20.99 14.924-42.408 27.235-59.617.975-1.364 1.929-2.696 2.851-3.995 21.236-29.948 46.136-57.909 70.215-84.95 2.744-3.082 5.487-6.16 8.221-9.242 5.564-6.266 11.866-12.81 18.538-19.74 26.312-27.33 56.136-58.308 61.214-92.635 1.287-8.697 1.172-17.692 1.059-26.392-.171-13.314-.348-27.081 4.57-39.789 6.554-16.935 21.558-29.846 36.068-42.327 6.182-5.318 12-10.321 17.238-15.656 18.08-18.414 26.86-38.625 28.464-65.534.336-5.624.573-11.414.801-17.013.964-23.499 1.958-47.799 10.371-69.957 2.373-6.251 7.935-13.605 13.822-21.39 10.152-13.423 20.65-27.302 18.196-39.204-.881-4.272-4.149-7.129-7.31-9.891-2.9-2.535-5.638-4.929-6.597-8.291-2.976-10.433 7.197-20.739 13.927-27.559l.308-.312z"/><path d="M687.004-439.628c-11.408 11.408-15.027 18.747-6.377 32.652 1.281 2.058 2.449 3.677 3.48 5.105 3.822 5.297 5.252 7.279 1.724 16.931-3.191 8.728-8.97 16.033-15.089 23.768-6.387 8.076-12.993 16.427-16.482 26.619-6.53 19.077-7.752 39.855-8.932 59.946-1.426 24.233-2.899 49.29-13.764 71.26-9.217 18.635-26.525 31.786-43.266 44.502-18.061 13.721-35.122 26.682-43.083 46.004-5.422 13.161-2.952 27.844-.563 42.042 1.821 10.824 3.704 22.018 2.175 32.632-2.612 18.14-15.186 34.313-26.278 48.58a1019 1019 0 0 0-3.766 4.865c-14.112 18.398-29.48 36.306-44.343 53.622-5.721 6.666-11.636 13.56-17.397 20.384l-.749.886c-22.175 26.267-45.106 53.429-63.719 82.823l-1.667 2.626c-9.664 15.179-21.691 34.072-19.932 51.82 2.256 22.756 26.8 32.96 46.522 41.16 3.099 1.288 6.026 2.506 8.751 3.722 43.818 19.562 88.864 46.105 90.725 94.653 1.571 41.025-36.045 76.727-69.231 108.229-11.896 11.29-23.131 21.954-31.632 32.032-38.209 45.291-42.356 81.988-14.79 130.887 21.955 38.946 65.432 65.935 110.762 68.758l.073-1.181c-44.94-2.798-88.041-29.551-109.805-68.157-27.275-48.385-23.163-84.705 14.664-129.545 8.458-10.026 19.672-20.669 31.542-31.936 33.369-31.675 71.19-67.573 69.598-109.131-1.884-49.196-47.273-75.978-91.424-95.688-2.739-1.222-5.673-2.442-8.779-3.734-19.431-8.079-43.614-18.134-45.798-40.185-1.72-17.342 10.186-36.042 19.751-51.07l1.67-2.626c18.569-29.327 41.473-56.457 63.623-82.693l.749-.887c5.757-6.82 11.672-13.712 17.392-20.376 14.872-17.33 30.251-35.249 44.384-53.673 1.227-1.6 2.485-3.219 3.759-4.858C532.665-3.245 545.341-19.55 547.998-38c1.555-10.796-.344-22.082-2.18-32.995-2.469-14.682-4.803-28.547.491-41.396 7.838-19.028 24.775-31.894 42.704-45.513 16.848-12.797 34.268-26.03 43.611-44.92 10.972-22.185 12.452-47.364 13.884-71.714 1.176-20.013 2.392-40.707 8.871-59.632 3.424-10.001 9.965-18.271 16.291-26.269 5.907-7.468 12.015-15.189 15.272-24.097 3.744-10.241 1.982-12.681-1.876-18.028-1.02-1.412-2.176-3.013-3.435-5.038-8.964-14.408-4.325-21.147 9.25-34.162l-.818-.854a205 205 0 0 0-3.059 2.989"/></g></svg>