<svg xmlns="http://www.w3.org/2000/svg" width="352" height="595" fill="none"><g fill="#412BA8" opacity=".7"><path d="M-152.509 509.75c-29.117-26.545-26.081-76.543-6.603-107.603 9.931-15.834 23.572-29.851 36.764-43.406l1.852-1.904a566 566 0 0 1 3.456-3.51c12.451-12.576 31.266-31.581 27.605-48.696-2.82-13.181-19.568-19.726-33.026-24.985-3.873-1.513-7.531-2.942-10.559-4.403-16.655-8.032-28.307-18.978-34.632-32.534-6.502-13.936 1.446-24.274 9.131-34.272 1.717-2.234 3.493-4.544 5.076-6.853 11.92-17.392 18.789-37.231 20.996-60.644.849-9.008 1.356-18.18 1.846-27.051 1.17-21.158 2.379-43.036 8.332-64.008 2.552-8.99 6.022-18.103 9.377-26.917 3.482-9.148 7.083-18.607 9.73-28.08.04-.145 3.847-14.602-.532-17.493-1.613-1.065-4.04-.314-7.212 2.232l.477.595c2.885-2.315 5.009-3.053 6.315-2.191 3.076 2.031 1.437 12.286.217 16.652-2.637 9.439-6.232 18.882-9.708 28.014-3.361 8.83-6.836 17.958-9.397 26.98-5.977 21.054-7.188 42.974-8.36 64.174-.49 8.863-.997 18.029-1.845 27.022-2.193 23.279-9.017 42.995-20.865 60.283-1.571 2.293-3.341 4.595-5.052 6.82-7.823 10.177-15.915 20.702-9.217 35.059 6.401 13.721 18.174 24.789 34.992 32.9 3.053 1.472 6.725 2.907 10.613 4.426 13.287 5.192 29.824 11.655 32.557 24.433 3.574 16.714-15.066 35.541-27.4 48a541 541 0 0 0-3.462 3.515l-1.851 1.904c-13.22 13.584-26.89 27.631-36.864 43.533-9.975 15.889-15.478 36.166-15.121 55.627.396 21.654 8.158 40.457 21.856 52.945z"/><path d="M-148.041 512.648c-28.969-27.083-21.884-77.338-.496-110.886 10.535-16.528 24.099-31.703 38.238-47.085 1.44-1.566 3.049-3.258 4.752-5.049 12.714-13.369 30.128-31.678 26.669-48.459-3.097-15.024-22.096-21.722-40.469-28.199-12.598-4.441-24.498-8.636-31.12-15.255-5.154-5.152-9.811-11.951-12.152-17.745-3.432-8.488-1.373-18.747 5.251-26.138 3.694-4.122 7.464-9.916 11.206-17.226 7.721-15.088 12.5-30.551 14.61-47.275.615-4.878.813-10.051.934-14.915.09-3.606.161-7.196.233-10.771.461-23.314.898-45.335 6.303-67.785.975-4.053 2.191-8.344 3.613-12.755 2.886-8.952 6.549-17.936 10.091-26.623 3.81-9.347 7.75-19.01 10.772-28.739.048-.152 4.672-15.234.403-18.398-1.478-1.097-3.771-.605-6.814 1.46l.429.631c2.745-1.864 4.741-2.36 5.932-1.479 3.17 2.35.505 13.751-.678 17.56-3.012 9.697-6.946 19.346-10.751 28.677-3.547 8.7-7.215 17.697-10.11 26.677-1.428 4.43-2.649 8.74-3.629 12.81-5.425 22.531-5.861 44.592-6.324 67.949-.071 3.574-.142 7.162-.232 10.768-.121 4.843-.318 9.994-.929 14.838-2.098 16.634-6.852 32.015-14.533 47.022-3.71 7.251-7.443 12.991-11.094 17.066-6.816 7.604-8.931 18.177-5.391 26.933 2.377 5.882 7.098 12.778 12.32 17.999 6.746 6.74 18.724 10.963 31.406 15.434 18.173 6.407 36.965 13.031 39.976 27.633 3.379 16.39-13.876 34.533-26.475 47.78-1.705 1.793-3.316 3.487-4.761 5.058-14.163 15.408-27.751 30.611-38.32 47.192-10.641 16.69-17.416 37.351-18.583 56.667-.971 16.077 1.572 38.703 19.201 55.185z"/><path d="M-143.553 515.537c-30.279-28.908-16.063-79.484 5.308-113.982 11.28-18.217 25.911-35.635 37.398-48.775 1.903-2.177 4.128-4.567 6.483-7.096 12.309-13.215 29.167-31.315 26.206-47.901-2.851-15.971-25.75-23.134-45.952-29.455-12.633-3.952-24.565-7.684-30.816-13.085-6.279-5.427-10.243-11.07-12.474-17.759-3.329-9.987 1.677-17.326 6.978-25.097.551-.807 1.103-1.616 1.648-2.432 4.188-6.27 7.343-13.472 9.251-18.407 5.95-15.391 9.283-31.173 10.191-48.247.259-4.873.178-10.052.073-14.939-.541-25.163-.482-51.944 6.547-78.396 1.062-3.998 2.386-8.27 3.934-12.696 3.056-8.735 6.89-17.491 10.598-25.96 4.141-9.457 8.423-19.238 11.686-29.115 1.238-3.751 4.987-16.241 1.2-19.46-1.38-1.172-3.552-.998-6.457.517l.353.676c2.603-1.357 4.49-1.563 5.61-.611 3.511 2.984-.576 16.05-1.431 18.639-3.251 9.843-7.526 19.607-11.66 29.048-3.713 8.482-7.553 17.251-10.619 26.015-1.554 4.444-2.884 8.734-3.951 12.75-7.055 26.55-7.115 53.392-6.573 78.609.105 4.873.186 10.035-.072 14.882-.903 16.993-4.22 32.698-10.141 48.013-1.894 4.899-5.021 12.042-9.174 18.259-.543.813-1.094 1.62-1.643 2.425-5.411 7.931-10.52 15.424-7.071 25.768 2.276 6.824 6.311 12.574 12.698 18.095 6.37 5.504 18.376 9.259 31.086 13.236 19.996 6.256 42.66 13.345 45.43 28.861 2.894 16.211-13.814 34.149-26.013 47.247-2.36 2.534-4.589 4.927-6.5 7.114-11.505 13.161-26.163 30.611-37.472 48.874-11.401 18.411-19.395 39.355-21.94 57.473-3.409 24.261 2.228 43.594 16.754 57.463z"/><path d="M-139.041 518.41c-32.144-30.202-11.973-80.185 10.609-116.791 11.608-18.818 24.141-36.242 36.243-50.387 2.285-2.67 5.03-5.608 7.937-8.717 13.016-13.926 29.214-31.255 26.886-48.002-2.39-17.169-28.385-24.483-51.321-30.936-12.159-3.42-23.645-6.652-29.773-10.94-7.719-5.401-12.111-11.07-13.427-17.331-1.718-8.167 2.796-15.473 7.167-22.541 1.474-2.387 2.868-4.641 4.027-6.923 2.688-5.292 5.164-11.973 7.161-19.322 4.173-15.361 6.114-31.329 5.934-48.816-.048-4.711-.33-9.564-.629-14.702l-.011-.195c-1.811-31.189.318-55.187 6.902-77.81 1.484-5.1 2.821-9.083 4.21-12.535 2.785-6.925 6.034-13.749 9.473-20.974C-102.569.806-97.312-10.24-93.76-21.492l.12-.379c1.407-4.44 5.144-16.233 1.37-20.14-1.274-1.319-3.256-1.614-5.89-.878l.206.734c2.343-.654 4.07-.428 5.135.674 3.46 3.58-.31 15.472-1.548 19.38l-.12.38c-3.536 11.2-8.782 22.222-13.855 32.88-3.293 6.918-6.698 14.072-9.492 21.018-1.398 3.476-2.744 7.481-4.235 12.606-6.609 22.711-8.747 46.788-6.931 78.068l.012.195c.298 5.129.579 9.973.627 14.665.179 17.417-1.753 33.316-5.908 48.608-1.983 7.3-4.439 13.931-7.104 19.177-1.143 2.252-2.529 4.494-3.996 6.868-4.447 7.195-9.045 14.633-7.264 23.099 1.358 6.458 5.85 12.281 13.736 17.799 6.234 4.363 17.78 7.611 30.003 11.05 22.711 6.389 48.452 13.63 50.772 30.306 2.28 16.385-13.782 33.569-26.687 47.376-2.913 3.116-5.664 6.059-7.96 8.742-12.127 14.175-24.684 31.631-36.312 50.482-22.726 36.843-43 87.193-10.481 117.747z"/><path d="M-134.483 521.271c-38.434-36.833 1.085-98.795 14.069-119.155q1.527-2.396 3.06-4.809c10.236-16.1 20.82-32.748 33.283-47.181 2.492-2.886 5.465-6.039 8.612-9.376 13.493-14.308 30.283-32.114 28.836-49.347-1.558-18.536-31.977-26.266-56.419-32.477-11.43-2.904-22.226-5.647-28.03-9.008-4.89-2.832-13.993-8.103-14.907-16.464-.722-6.596 3.712-14.491 7.625-21.457 2.092-3.724 4.067-7.242 5.218-10.395 2.01-5.513 3.731-12.425 4.975-19.991 2.462-14.96 3.102-31.003 1.956-49.047-.233-3.682-.554-7.41-.894-11.357l-.294-3.443c-1.697-20.163-2.681-50.058 8.332-76.778 1.194-2.898 2.525-5.836 3.934-8.946a788 788 0 0 0 1.543-3.42c.268-.6.788-1.696 1.498-3.194 7.063-14.896 28.555-60.227 21.595-70.79-1.03-1.562-2.635-2.315-4.77-2.235l.029.762c1.876-.07 3.22.55 4.104 1.892 4.461 6.772-2.822 30.338-21.647 70.045-.713 1.505-1.235 2.605-1.505 3.209a886 886 0 0 1-1.541 3.416c-1.35 2.98-2.745 6.06-3.945 8.97-11.076 26.873-10.091 56.892-8.387 77.133l.294 3.445c.339 3.942.66 7.666.893 11.339 1.142 17.986.505 33.973-1.947 48.876-1.238 7.519-2.945 14.384-4.94 19.853-1.129 3.094-3.09 6.586-5.167 10.283-3.968 7.065-8.466 15.074-7.718 21.913.957 8.744 10.277 14.141 15.284 17.041 5.895 3.413 16.242 6.043 28.224 9.088 24.207 6.151 54.334 13.806 55.846 31.8 1.419 16.896-15.242 34.563-28.63 48.761-3.154 3.344-6.132 6.502-8.635 9.401-12.5 14.474-23.099 31.146-33.349 47.269l-3.059 4.808c-9.371 14.695-22.473 36.847-28.028 59.49-6.213 25.324-1.478 45.722 14.074 60.626z"/><path d="M-129.877 524.112c-33.793-33.148-10.071-81.817 14.376-120.52l1.691-2.678c11.032-17.482 22.44-35.56 36.603-51.215 2.648-2.927 5.725-6.077 8.982-9.413 14.453-14.798 32.439-33.214 32.153-51.786-.313-20.308-34.065-28.023-61.185-34.222-10.848-2.48-20.218-4.621-25.544-7.184-5.924-2.848-15.792-7.594-16.651-15.124-.592-5.193 3.199-12.458 6.865-19.484 2.739-5.248 5.571-10.676 6.505-15.166 1.359-6.532 2.308-13.598 2.745-20.433.908-14.216.388-29.788-1.637-49.003q-.279-2.639-.573-5.341c-.331-3.048-.668-6.153-.984-9.314-2.717-27.132.843-50.579 11.543-76.024 1.657-3.941 3.432-8.055 5.149-12.033l.104-.24c.43-.997 1.297-2.815 2.394-5.115 7.136-14.966 26.092-54.72 19.672-67.248-1.08-2.106-2.827-3.39-5.192-3.818l-.136.751c2.15.388 3.67 1.505 4.65 3.415 6.248 12.191-12.591 51.698-19.683 66.571-1.143 2.399-1.969 4.131-2.405 5.141l-.104.24c-1.718 3.98-3.493 8.096-5.152 12.04-10.752 25.57-14.329 49.13-11.599 76.396.316 3.163.654 6.271.984 9.321.195 1.8.389 3.58.574 5.338 2.02 19.172 2.539 34.702 1.634 48.874-.435 6.8-1.379 13.829-2.731 20.326-.912 4.387-3.719 9.767-6.434 14.969-3.72 7.129-7.566 14.499-6.947 19.924.907 7.948 11.012 12.808 17.05 15.712 5.432 2.612 14.84 4.762 25.733 7.253 26.86 6.139 60.288 13.781 60.592 33.49.281 18.252-17.581 36.543-31.935 51.241-3.264 3.341-6.346 6.497-9.002 9.434-14.208 15.704-25.634 33.81-36.683 51.32l-1.691 2.678c-10.44 16.526-23.116 38.3-28.528 60.148-6.259 25.268-1.46 45.901 14.263 61.324z"/><path d="M-125.215 526.933c-15.513-15.681-20.627-36.06-15.201-60.571 4.835-21.846 17.16-43.696 27.357-60.292 10.901-17.741 23.965-38.181 41.102-56.242 2.997-3.158 6.418-6.504 10.04-10.048 15.482-15.143 34.75-33.99 36.037-53.925 1.428-22.131-36.85-30.095-64.8-35.91-9.757-2.031-18.184-3.784-23.028-5.765-7.276-2.975-18.607-9.261-18.038-13.461.457-3.38 2.422-7.989 4.697-13.326 3.23-7.578 6.891-16.168 7.579-24.319.553-6.554.732-13.709.518-20.69-.496-16.197-2.527-32.298-4.743-48.741a476 476 0 0 1-1.741-14.467c-3.015-28.933 4.88-51.434 14.715-75.773 1.374-3.4 2.798-6.849 4.229-10.315l.735-1.781c.591-1.433 1.672-3.743 3.039-6.668 7.467-15.97 23.004-49.204 17.344-63.086-1.1-2.695-2.963-4.552-5.539-5.52l-.268.715c2.37.889 4.085 2.602 5.1 5.093 5.535 13.573-9.907 46.602-17.328 62.475-1.372 2.934-2.455 5.251-3.053 6.7l-.735 1.78c-1.432 3.469-2.857 6.919-4.232 10.321-9.873 24.436-17.799 47.03-14.766 76.138.48 4.608 1.051 9.347 1.744 14.49 2.214 16.423 4.242 32.502 4.737 48.662.213 6.953.034 14.077-.517 20.603-.677 8.03-4.313 16.559-7.52 24.085-2.296 5.387-4.279 10.039-4.751 13.521-.85 6.278 18.312 14.191 18.506 14.27 4.908 2.007 13.367 3.767 23.16 5.805 27.677 5.758 65.58 13.645 64.195 35.115-1.267 19.642-20.419 38.377-35.809 53.429-3.627 3.549-7.053 6.9-10.06 10.069-17.187 18.113-30.278 38.593-41.199 56.367-23.642 38.478-46.378 87.096-12.048 121.799z"/><path d="M-120.489 529.735c-34.218-36.975-13.864-83.698 7.694-120.303 13.645-23.16 27.907-41.946 44.885-59.123 3.402-3.442 7.267-7.067 11.36-10.904 16.583-15.552 37.223-34.906 40.31-55.888 3.584-24.373-39.026-32.432-67.221-37.765-8.614-1.629-16.051-3.036-20.418-4.567a97 97 0 0 0-1.858-.621c-5.932-1.944-16.974-5.561-14.594-13.323l.863-2.797c3.629-11.74 6.763-21.879 6.274-35.555-.231-6.447-.789-13.439-1.66-20.779-1.272-10.725-3.036-21.658-4.741-32.231-.851-5.278-1.731-10.736-2.536-16.081a270 270 0 0 1-1.731-14.235c-2.385-24.85 5.966-46.21 14.808-68.824.934-2.39 1.874-4.793 2.807-7.217 1.069-2.776 2.164-5.573 3.261-8.374l1.355-3.466c.627-1.604 1.69-3.994 3.034-7.019 8.444-18.989 26.013-58.5 9.213-66.54l-.329.688c16.13 7.72-1.887 48.24-9.58 65.542-1.35 3.034-2.415 5.43-3.048 7.052l-1.355 3.465c-1.097 2.802-2.193 5.6-3.263 8.378-.932 2.422-1.872 4.825-2.806 7.214-8.876 22.7-17.259 44.143-14.856 69.173a270 270 0 0 0 1.736 14.277c.805 5.349 1.686 10.809 2.537 16.089 1.704 10.565 3.466 21.49 4.737 32.199.868 7.32 1.425 14.29 1.655 20.717.484 13.546-2.632 23.628-6.241 35.302l-.863 2.799c-2.6 8.478 8.905 12.246 15.086 14.271.685.224 1.307.428 1.843.616 4.42 1.55 11.884 2.962 20.527 4.597 27.91 5.279 70.087 13.255 66.608 36.905-3.047 20.715-23.578 39.971-40.077 55.442-4.098 3.842-7.968 7.471-11.38 10.923-17.023 17.224-31.322 36.058-44.999 59.272-21.683 36.817-42.157 83.865-7.597 121.209z"/><path d="M-115.7 532.509c-34.936-39.758-17.63-84.467 1.35-118.976 11.709-21.279 26.562-40 49.667-62.576 3.66-3.575 7.87-7.395 12.328-11.437 17.95-16.283 40.29-36.546 45.029-58.244 1.192-5.462.29-10.468-2.684-14.879-10.247-15.207-43.49-20.907-65.488-24.679-7.503-1.287-13.983-2.398-17.927-3.589-7.882-2.381-16.261-5.706-15.904-15.064.173-4.521.806-9.055 1.419-13.441 1.109-7.937 2.255-16.144.804-24.851-1.325-7.948-2.55-14.727-3.745-20.726-.811-4.069-1.649-8.146-2.489-12.227-2.398-11.66-4.878-23.718-6.666-35.535-.627-4.137-1.126-8.704-1.528-13.963-1.606-21.013 6.73-42.443 14.792-63.168 1.839-4.728 3.576-9.194 5.191-13.644.764-2.105 1.539-4.216 2.313-6.323q.955-2.599 1.899-5.186c.692-1.9 1.776-4.519 3.03-7.55 7.752-18.727 22.183-53.587 6.126-63.524l-.4.649c15.504 9.596 1.235 44.065-6.43 62.584-1.258 3.039-2.345 5.664-3.043 7.58q-.944 2.586-1.898 5.184c-.774 2.109-1.55 4.22-2.314 6.326-1.612 4.442-3.347 8.904-5.185 13.627-8.092 20.805-16.461 42.318-14.841 63.504.403 5.277.905 9.863 1.534 14.019 1.791 11.837 4.273 23.904 6.674 35.574a1993 1993 0 0 1 2.487 12.222c1.194 5.991 2.418 12.763 3.741 20.702 1.432 8.592.294 16.741-.807 24.621-.615 4.403-1.251 8.957-1.425 13.518-.41 10.73 10.555 14.042 16.445 15.823 3.99 1.204 10.491 2.319 18.019 3.61 21.87 3.75 54.92 9.417 64.985 24.353 2.851 4.232 3.716 9.04 2.57 14.291-4.684 21.458-26.925 41.632-44.796 57.841-4.463 4.048-8.679 7.871-12.348 11.457-23.162 22.631-38.05 41.396-49.803 62.754-12.898 23.451-19.615 42.708-21.139 60.603-1.913 22.461 4.591 41.84 19.885 59.244z"/><path d="M-110.977 535.315c-9.447-12.458-20.651-29.194-23.462-48.188-3.583-24.207 6.12-47.43 17.14-68.918 13.916-27.135 35.945-48.1 55.383-66.599 3.927-3.737 8.243-7.62 12.813-11.73 19.795-17.807 42.228-37.989 49.676-60.807 1.811-5.553 1.36-10.657-1.338-15.17-9.095-15.208-41.992-21.108-63.76-25.012-7.761-1.392-14.463-2.595-17.918-3.853-4.178-1.522-14.175-6.166-16.739-16.375-1.625-6.471-1.407-13.702-1.197-20.695.185-6.148.36-11.956-.63-17.226-.778-4.139-2.181-8.753-3.538-13.214-.744-2.445-1.513-4.974-2.165-7.38-4.067-15.017-8.131-31.12-10.307-47.131-.339-2.491-.512-5.182-.678-7.785-.126-1.969-.257-4.005-.458-5.884-.865-8.108 2.542-18.711 5.549-28.066.751-2.338 1.46-4.546 2.071-6.618 4.33-14.685 9.243-29.51 13.907-43.344q.721-2.139 1.447-4.27c.778-2.292 1.553-4.575 2.306-6.836.739-2.215 1.7-4.807 2.814-7.809 6.62-17.841 17.698-47.702 2.803-60.063l-.487.587c14.478 12.015 3.518 41.56-3.031 59.21-1.116 3.009-2.08 5.607-2.822 7.834-.753 2.26-1.528 4.541-2.306 6.832q-.724 2.131-1.447 4.271c-4.666 13.841-9.582 28.675-13.915 43.372-.608 2.063-1.316 4.267-2.066 6.6-3.03 9.428-6.463 20.113-5.58 28.38.198 1.864.322 3.801.453 5.852.168 2.617.341 5.322.683 7.84 2.183 16.054 6.254 32.187 10.328 47.228.654 2.416 1.425 4.951 2.171 7.402 1.351 4.442 2.748 9.035 3.518 13.133.975 5.189.802 10.956.618 17.062-.212 7.046-.432 14.33 1.22 20.904 2.652 10.563 12.924 15.342 17.218 16.906 3.515 1.281 9.926 2.431 18.043 3.886 21.632 3.881 54.323 9.745 63.24 24.654 2.58 4.315 3.007 9.208 1.267 14.541-7.382 22.628-29.738 42.735-49.461 60.477-4.573 4.114-8.893 8-12.828 11.745-19.482 18.54-41.565 39.56-55.536 66.802-11.078 21.602-20.831 44.959-17.216 69.378 2.837 19.167 14.107 36.007 23.609 48.538z"/><path d="M-106.337 538.138c-10.461-14.867-21.053-30.785-25.578-47.541-6.82-25.256 2.172-49.254 10.767-67.339 11.901-25.043 32.986-44.473 53.379-63.268 2.848-2.625 5.687-5.241 8.489-7.862 4.044-3.782 8.354-7.642 12.916-11.729 20.672-18.516 44.102-39.503 53.824-63.352 2.691-6.599 2.678-12.497-.039-17.53-7.477-13.851-33.543-18.961-54.486-23.067-9.679-1.899-18.038-3.537-22.54-5.689-8.038-3.843-16.227-8.289-20.293-16.566-4.162-8.475-5.417-18.673-6.63-28.535-.402-3.27-.782-6.358-1.263-9.387-1.166-7.338-2.228-13.465-4.373-19.933-5.822-17.561-9.213-32.323-10.671-46.455q-.096-.907-.199-1.811c-.406-3.602-.827-7.327.033-11.56 5.313-26.15 12.891-51.52 21.524-79.598l.734-2.382c.858-2.785 1.71-5.544 2.513-8.253.578-1.946 1.282-4.147 2.028-6.477 5.707-17.84 14.334-44.798-.401-57.576l-.5.576c14.355 12.449 5.821 39.119.174 56.767-.747 2.335-1.452 4.54-2.032 6.493-.803 2.706-1.653 5.463-2.511 8.245l-.734 2.383c-8.639 28.098-16.223 53.487-21.542 79.67-.884 4.351-.457 8.137-.044 11.798q.103.9.198 1.803c1.464 14.189 4.866 29.002 10.706 46.617 2.127 6.413 3.183 12.509 4.344 19.812.48 3.016.858 6.098 1.26 9.361 1.22 9.925 2.482 20.188 6.702 28.778 4.173 8.498 12.49 13.017 20.649 16.917 4.589 2.195 12.992 3.843 22.721 5.75 20.786 4.076 46.655 9.148 53.962 22.682 2.603 4.823 2.605 10.502.004 16.88-9.656 23.685-33.016 44.61-53.626 63.071-4.566 4.09-8.879 7.952-12.93 11.74-2.8 2.62-5.637 5.234-8.484 7.858-20.447 18.846-41.588 38.329-53.551 63.501-8.652 18.204-17.699 42.369-10.814 67.866 4.557 16.876 15.19 32.858 25.691 47.781z"/><path d="m-101.692 540.965-1.56-2.343c-9.184-13.784-19.593-29.407-25.9-44.656-8.308-20.083-7.095-40.898 3.815-65.506s33.032-44.173 54.425-63.097c5.05-4.466 9.82-8.686 14.443-12.969 4.049-3.751 8.23-7.504 12.658-11.477 21.247-19.067 45.339-40.679 57.252-65.749 3.386-7.118 3.725-13.543 1.01-19.095-7.294-14.913-34.992-21.025-55.216-25.488-6.917-1.526-12.89-2.844-16.906-4.254-7.195-2.526-17.165-7.454-23.804-16.585-6.704-9.221-9.547-21.092-12.297-32.571a545 545 0 0 0-1.329-5.466q-.5-1.993-1.006-3.99c-1.335-5.275-2.714-10.729-3.825-15.875-3.342-15.482-6.405-30.581-7.156-45.087-.213-4.125.591-8.72 1.522-14.04l.019-.11c4.481-25.61 11.476-51.192 18.241-75.932l1.429-5.229c.88-3.222 1.712-6.265 2.473-9.28.348-1.377.724-2.817 1.113-4.308 4.606-17.659 10.915-41.843-3.84-55.353l-.515.562c14.416 13.2 8.174 37.127 3.617 54.598a570 570 0 0 0-1.114 4.315c-.76 3.006-1.59 6.046-2.47 9.265l-1.429 5.229c-6.77 24.756-13.77 50.356-18.257 76.001l-.019.11c-.939 5.366-1.749 10.001-1.531 14.211.754 14.563 3.822 29.695 7.171 45.209 1.115 5.159 2.496 10.62 3.83 15.901q.507 1.996 1.007 3.989c.447 1.784.884 3.609 1.327 5.458 2.767 11.552 5.629 23.497 12.422 32.842 6.754 9.289 16.87 14.294 24.167 16.856 4.06 1.425 10.054 2.748 16.996 4.279 20.072 4.43 47.562 10.495 54.694 25.078 2.608 5.334 2.268 11.535-1.013 18.434C.891 299.766-23.128 321.33-44.32 340.35c-4.43 3.975-8.614 7.729-12.666 11.485-4.617 4.277-9.384 8.493-14.43 12.957-21.455 18.977-43.643 38.602-54.617 63.359-10.85 24.472-12.101 46.095-3.824 66.107 6.336 15.318 16.768 30.974 25.97 44.787l1.561 2.344z"/><path d="M-97.041 543.799c-2.821-4.561-5.774-9.134-8.63-13.556-19.88-30.789-38.659-59.871-23.564-96.682 10.113-24.673 35.059-45.92 57.067-64.666 6.768-5.765 13.16-11.209 18.962-16.586 3.716-3.443 7.49-6.866 11.487-10.489 21.963-19.916 46.844-42.486 60.324-68.414 4.041-7.782 4.718-14.776 2.01-20.785-6.659-14.777-32.57-21.255-51.49-25.985-6.482-1.62-12.08-3.02-16.108-4.508-8.043-2.971-19.583-7.934-26.902-16.704-9.15-10.959-14.221-24.876-18.632-38.19-2.59-7.819-4.428-14.363-5.62-20.008-3.023-14.306-2.22-26.938-1.29-41.564l.147-2.31c.304-4.836 1.066-10.485 1.773-15.373 3.237-22.424 8.558-44.902 13.703-66.64 1.102-4.657 2.204-9.313 3.287-13.968l.05-.218c.757-3.25 1.471-6.322 2.065-9.307l.05-.252c3.433-17.259 8.135-40.896-7.455-54.539l-.502.574C-71.052-43.018-75.703-19.63-79.1-2.554l-.05.251c-.592 2.973-1.305 6.038-2.06 9.284l-.05.218c-1.083 4.654-2.184 9.308-3.286 13.965-5.15 21.754-10.474 44.249-13.717 66.706-.708 4.903-1.473 10.572-1.779 15.434l-.146 2.31c-.933 14.682-1.74 27.361 1.304 41.769 1.198 5.673 3.044 12.245 5.642 20.09 4.434 13.385 9.536 27.378 18.77 38.44 7.438 8.909 19.1 13.929 27.224 16.931 4.069 1.502 9.684 2.907 16.188 4.532 18.768 4.693 44.473 11.118 50.98 25.558 2.607 5.786 1.937 12.555-1.993 20.121-13.399 25.808-38.242 48.327-60.159 68.199-3.998 3.625-7.774 7.049-11.492 10.495-5.791 5.366-12.178 10.806-18.939 16.565-22.073 18.802-47.089 40.109-57.279 64.958-15.244 37.179 3.639 66.423 23.63 97.384 2.854 4.42 5.805 8.99 8.623 13.545z"/><path d="M-92.386 546.637c-9.436-16.505-18.172-31.404-29.546-46.615-15.983-21.372-19.137-40.408-10.224-61.726 10.422-24.934 36.765-47.063 60.007-66.591 8.236-6.919 16.014-13.455 22.91-19.906 3.243-3.034 6.57-6.101 9.938-9.209 22.408-20.667 47.806-44.108 62.328-70.844 4.686-8.634 5.65-16.321 2.865-22.849-6.27-14.698-29.788-21.131-48.686-26.301-5.535-1.514-10.762-2.945-14.781-4.403-9.328-3.384-21.118-8.367-29.566-16.927-11.609-11.764-18.312-26.677-22.855-38.356-2.845-7.317-4.925-14.282-6.013-20.141-2.77-14.921-1.493-27.285 4.556-44.098 1.284-3.57 1.708-7.875 2.157-12.433.116-1.185.236-2.395.372-3.624 2.164-19.424 6.047-38.953 9.803-57.84 1.47-7.394 2.99-15.04 4.384-22.567.627-3.382 1.136-6.186 1.503-8.905 2.466-18.233 2.678-36.85-12.332-49.514l-.492.584C-71.33-43.204-71.553-24.819-73.988-6.8c-.366 2.702-.873 5.496-1.498 8.868-1.393 7.522-2.913 15.165-4.383 22.557-3.759 18.902-7.645 38.448-9.812 57.904a279 279 0 0 0-.374 3.634c-.444 4.51-.863 8.768-2.116 12.249-6.098 16.953-7.385 29.428-4.587 44.496 1.096 5.905 3.189 12.918 6.051 20.278 4.57 11.747 11.316 26.752 23.023 38.615 8.555 8.669 20.446 13.697 29.849 17.109 4.047 1.468 9.29 2.903 14.84 4.421 18.74 5.126 42.06 11.506 48.185 25.864 2.69 6.304 1.736 13.768-2.834 22.186-14.454 26.627-39.81 50.022-62.174 70.648-3.37 3.109-6.697 6.178-9.941 9.212-6.881 6.438-14.653 12.967-22.88 19.88-23.308 19.581-49.725 41.777-60.221 66.88-9.028 21.596-5.846 40.865 10.317 62.478 11.348 15.176 20.072 30.054 29.495 46.536z"/><path d="M-87.728 549.48q-1.094-2.1-2.163-4.165c-7.832-15.109-15.23-29.381-27.132-42.791-15.135-17.053-27.587-36.144-16.313-60.164 11.657-24.833 37.375-46.744 62.245-67.928 9.577-8.158 18.623-15.864 26.75-23.622 2.504-2.391 5.048-4.802 7.618-7.236 22.649-21.46 48.313-45.781 63.496-73.394 5.153-9.378 6.321-17.666 3.471-24.635-5.975-14.606-28.379-21.333-46.381-26.739-4.836-1.453-9.404-2.824-13.273-4.229-13.607-4.943-23.713-10.421-31.804-17.241-13.566-11.434-21.771-27.271-26.266-38.544-3.322-8.332-5.224-14.78-5.986-20.292-2.33-16.879 2.716-30.385 8.56-46.024.46-1.234.967-2.428 1.504-3.692 1.57-3.698 3.192-7.522 3.551-12.265 1.27-16.76 3.98-33.662 6.601-50.007 1.562-9.737 3.176-19.807 4.468-29.732.397-3.052.737-5.78.871-8.257 1.091-20.11-4.292-33.659-17.457-43.929l-.47.602c12.948 10.1 18.242 23.45 17.165 43.286-.132 2.45-.47 5.163-.866 8.199-1.29 9.915-2.903 19.979-4.464 29.71-2.624 16.36-5.337 33.278-6.609 50.071-.35 4.618-1.947 8.383-3.492 12.024-.517 1.216-1.05 2.473-1.517 3.723-5.88 15.735-10.957 29.325-8.6 46.395.77 5.575 2.687 12.079 6.033 20.47 4.527 11.354 12.796 27.309 26.482 38.845 8.162 6.879 18.342 12.4 32.036 17.374 3.89 1.413 8.467 2.788 13.314 4.243 17.847 5.359 40.058 12.029 45.894 26.298 2.76 6.745 1.604 14.813-3.434 23.979-15.107 27.492-40.743 51.786-63.352 73.207a2669 2669 0 0 0-7.62 7.238c-8.111 7.743-17.149 15.442-26.717 23.593-24.933 21.237-50.715 43.196-62.441 68.185-5.034 10.725-5.754 21.146-2.2 31.856 2.944 8.873 8.865 18.132 18.632 29.138 11.84 13.339 19.216 27.57 27.027 42.636a2634 2634 0 0 0 2.162 4.166z"/><path d="M-83.07 552.322c-8.294-17.47-15.456-32.559-28.753-47.293-16.58-18.374-32.241-35.729-19.737-59.839 13.005-25.077 38.535-47.257 63.228-68.718 10.741-9.335 20.887-18.153 30.016-27.161l4.246-4.184c22.742-22.394 48.518-47.773 63.964-76.414 5.418-10.044 6.653-18.893 3.67-26.299-6.024-14.966-28.338-22.13-46.268-27.887-3.449-1.108-6.706-2.154-9.753-3.215-13.846-4.826-25.147-10.75-33.589-17.608-12.364-10.046-22.616-23.829-28.868-38.81-2.267-5.433-5.063-13.392-5.508-20.459-.915-14.533 4.185-27.469 9.584-41.166.95-2.41 1.932-4.901 2.88-7.4 1.096-2.893 2.184-6 3.237-9.007.903-2.579 1.837-5.245 2.782-7.797 3.026-8.166 3.596-18.205 4.147-27.915.257-4.515.499-8.78.974-12.827.406-3.453.843-6.907 1.28-10.36 1.113-8.799 2.265-17.896 2.854-26.861.194-2.962.224-5.743.229-7.577.041-15.258-7.175-27.381-22.708-38.154l-.435.626c15.31 10.618 22.42 22.542 22.38 37.526-.005 1.824-.034 4.588-.227 7.53-.588 8.94-1.738 18.027-2.85 26.814a1159 1159 0 0 0-1.28 10.368c-.478 4.069-.721 8.345-.978 12.872-.548 9.653-1.115 19.635-4.101 27.693-.948 2.558-1.883 5.228-2.787 7.81-1.051 3.001-2.138 6.105-3.23 8.987a604 604 0 0 1-2.877 7.392c-5.43 13.778-10.56 26.791-9.635 41.494.45 7.172 3.275 15.218 5.565 20.704 6.3 15.096 16.631 28.985 29.091 39.108 8.51 6.915 19.889 12.882 33.82 17.737 3.054 1.064 6.317 2.112 9.77 3.221 17.777 5.708 39.903 12.812 45.794 27.445 2.934 7.288 1.745 15.679-3.634 25.653-15.39 28.557-41.125 53.877-63.829 76.232l-4.246 4.184c-9.112 8.992-19.249 17.802-29.98 27.129-24.748 21.509-50.339 43.748-63.405 68.943-12.747 24.579 3.086 42.124 19.848 60.7 13.222 14.652 20.362 29.694 28.63 47.11z"/><path d="M-78.413 555.166c-7.292-17.022-14.438-32.346-28.07-47.514l-.703-.782c-17.535-19.501-32.679-36.343-19.393-60.141 13.847-24.844 38.2-46.59 61.744-67.644 11.568-10.344 23.53-21.041 33.844-31.794 2.01-2.095 4.051-4.21 6.11-6.344 21.03-21.787 44.86-46.481 57.32-73.604 4.99-10.864 5.815-19.941 2.525-27.751-6.318-14.994-26.73-22.275-46.468-29.317-1.727-.616-3.447-1.23-5.15-1.846-14.606-5.286-26.041-11.189-34.958-18.045-13.813-10.621-24.683-24.519-30.61-39.135-2.726-6.725-4.432-14.461-4.563-20.695-.276-13.093 5.506-26.593 11.097-39.648 1.776-4.148 3.454-8.065 4.912-11.912 1.184-3.122 2.356-6.458 3.49-9.683a522 522 0 0 1 2.952-8.254c7.351-19.827 8.12-48.178 7.857-75.861-.02-2.128-.155-4.388-.413-6.91-1.717-16.81-16.298-25.382-28.014-32.27l-.386.657c11.567 6.801 25.963 15.266 27.642 31.69.255 2.5.389 4.736.409 6.84.263 27.61-.502 55.878-7.81 75.589a521 521 0 0 0-2.957 8.266c-1.132 3.221-2.302 6.552-3.483 9.665-1.453 3.833-3.127 7.743-4.9 11.882-5.623 13.13-11.438 26.707-11.16 39.965.134 6.322 1.861 14.159 4.62 20.965 5.977 14.74 16.934 28.752 30.852 39.454 8.98 6.904 20.482 12.844 35.164 18.157 1.704.617 3.424 1.23 5.152 1.847 19.584 6.987 39.834 14.211 46.022 28.895 3.203 7.601 2.38 16.478-2.516 27.137-12.4 27.01-36.189 51.65-57.174 73.392-2.06 2.135-4.102 4.25-6.112 6.346-10.296 10.732-22.246 21.418-33.803 31.753-23.59 21.095-48.004 42.93-61.902 67.841-13.551 24.275 2.499 42.125 19.492 61.024l.702.781c13.555 15.081 20.672 30.346 27.937 47.304z"/><path d="M-73.757 558.01c-7.093-18.466-14.12-32.873-27.217-47.619-17.111-19.264-33.274-37.461-16.952-63.625 14.797-23.721 36.988-44.631 58.448-64.852 12.709-11.975 25.85-24.358 37.26-37.153 20.404-22.879 43.089-50.114 56.628-78.622 4.928-10.376 5.8-19.683 2.594-27.661-6.609-16.445-29.526-25.156-47.94-32.155l-1.012-.385c-15.149-5.762-26.892-11.824-35.901-18.533-14.988-11.161-26.165-25.206-31.472-39.545-2.537-6.853-3.735-14.89-3.129-20.977 1.324-13.284 7.16-26.869 12.805-40.008 2.22-5.17 4.319-10.054 6.138-14.888 1.944-5.164 4.473-11.988 6.794-18.979 8.754-26.377 8.374-54.756 6.512-73.917-.212-2.19-.631-4.29-1.042-6.253-2.692-12.862-17.021-19.189-28.535-24.272a269 269 0 0 1-4.765-2.14l-.322.692c1.505.7 3.095 1.402 4.779 2.145 11.354 5.013 25.485 11.252 28.096 23.731.407 1.943.821 4.02 1.03 6.17 1.854 19.089 2.236 47.353-6.477 73.604-2.316 6.978-4.842 13.793-6.783 18.95-1.814 4.817-3.909 9.693-6.126 14.855-5.667 13.192-11.527 26.833-12.862 40.235-.617 6.194.598 14.362 3.172 21.316 5.358 14.476 16.627 28.644 31.732 39.893 9.066 6.752 20.87 12.847 36.085 18.634l1.012.384c18.276 6.947 41.02 15.592 47.504 31.727 3.168 7.883 2.325 16.731-2.575 27.049-13.503 28.422-36.141 55.603-56.509 78.442-11.387 12.77-24.517 25.142-37.213 37.105-21.496 20.255-43.724 41.2-58.573 65.004-16.62 26.628-.277 45.051 17.029 64.536 13.02 14.659 20.013 28.999 27.076 47.385z"/><path d="M-69.102 560.854c-5.834-17.275-12.537-31.988-26.286-47.642-19.162-21.817-31.296-39.372-12.629-66.629 14.492-21.18 33.914-40.255 52.698-58.702 14.948-14.681 30.405-29.862 43.44-46.127C9.917 314.56 25.99 288.751 35.9 265.051c4.55-10.882 5.058-20.249 1.553-28.637-6.561-15.7-26.186-24.701-45.725-32.575-10.828-4.364-24.754-10.475-36.417-19.063-11.232-8.27-25.802-21.933-31.431-40.058-1.792-5.768-2.853-14.604-1.185-21.341 3.437-13.888 9.014-27.89 14.408-41.43 2.222-5.576 4.519-11.344 6.614-16.978 2.193-5.897 4.749-12.874 7.083-19.915 8.021-24.197 9.853-49.172 5.298-72.225a32 32 0 0 0-1.655-5.647c-4.495-11.297-17.984-14.948-29.884-18.17-3.088-.835-6.004-1.624-8.588-2.507l-.247.722c2.608.891 5.536 1.683 8.635 2.522 11.728 3.175 25.021 6.773 29.375 17.715a31.4 31.4 0 0 1 1.615 5.513c4.53 22.924 2.707 47.765-5.273 71.837-2.33 7.03-4.884 13.999-7.074 19.89-2.092 5.626-4.388 11.388-6.608 16.961-5.403 13.565-10.99 27.591-14.44 41.529-1.497 6.05-1.027 14.588 1.197 21.751 5.691 18.323 20.384 32.108 31.707 40.445 11.733 8.639 25.715 14.776 36.585 19.156 19.39 7.814 38.859 16.734 45.306 32.162 3.422 8.19 2.914 17.365-1.553 28.048-9.883 23.636-25.921 49.381-47.67 76.52-13.007 16.231-28.448 31.396-43.38 46.061-18.81 18.472-38.259 37.575-52.793 58.815-18.96 27.702-6.706 45.486 12.686 67.564 13.665 15.559 20.332 30.194 26.137 47.382z"/><path d="M-64.45 563.699c-5.823-19.972-12.903-33.314-25.253-47.586a390 390 0 0 0-3.648-4.135c-6.472-7.264-13.163-14.777-16.249-24.109-5.144-15.557 2.179-27.8 11.529-41.062 14.05-19.927 32.277-38.023 49.905-55.523 16.798-16.678 34.169-33.923 47.876-52.711 17.606-24.131 29.35-52.587 37.618-74.683 5.855-15.65 3.8-28.559-6.284-39.464-8.858-9.58-22.82-16.381-36.589-22.304-11.834-5.09-25.426-11.403-36.508-19.628-11.65-8.645-26.391-22.722-30.465-40.688-1.457-6.423-.948-15.39 1.238-21.804 6.16-18.076 13.376-38.34 22.06-61.951 2.28-6.198 4.933-13.512 7.33-20.765 9.235-27.933 10.588-50.437 4.256-70.823-.58-1.868-1.33-3.578-2.23-5.081-6.006-10.04-21.2-12.051-33.409-13.666-3.656-.484-7.109-.941-10.044-1.564l-.158.746c2.964.629 6.431 1.088 10.102 1.574 12.046 1.594 27.038 3.578 32.855 13.301.856 1.431 1.602 3.13 2.156 4.917 6.282 20.226 4.93 42.582-4.251 70.357-2.394 7.242-5.045 14.548-7.323 20.74-8.686 23.617-15.904 43.887-22.066 61.969-2.226 6.535-2.745 15.672-1.26 22.219 4.126 18.194 19.002 32.41 30.755 41.132 11.145 8.271 24.786 14.608 36.66 19.716 13.692 5.889 27.57 12.645 36.33 22.12 9.87 10.674 11.875 23.326 6.131 38.68-8.25 22.05-19.97 50.445-37.52 74.501-13.671 18.739-31.02 35.962-47.797 52.619-17.651 17.523-35.902 35.643-49.991 55.625-9.47 13.433-16.885 25.847-11.63 41.74 3.135 9.483 9.881 17.055 16.404 24.378a390 390 0 0 1 3.64 4.126c12.272 14.181 19.309 27.443 25.097 47.3z"/><path d="M-59.804 566.541c-4.74-19.289-11.507-32.597-24.138-47.469a437 437 0 0 0-2.888-3.357c-6.554-7.566-13.33-15.389-15.926-25.249-4.341-16.479 5.064-29.833 14.163-42.749l.077-.109c14.441-20.502 32.712-39.351 50.382-57.58 16.239-16.754 33.031-34.078 46.829-52.657 13.824-18.624 19.804-39.177 26.133-60.938 1.32-4.538 2.684-9.231 4.119-13.88 10.485-33.989-16.504-49.716-42.624-61.79-12.398-5.73-25.404-12.012-36.174-20.221-11.853-9.035-26.428-23.562-28.553-41.455-.849-7.15 1.384-16.189 3.406-22.513 7.098-22.196 15.399-45.439 22.583-65.248 2.37-6.535 5.104-14.129 7.55-21.533 6.99-21.15 13.594-45.726 3.415-69.735-.719-1.696-1.67-3.282-2.754-4.586-7.687-9.261-24.37-9.568-37.776-9.814-3.776-.07-7.344-.135-10.373-.394l-.065.76c3.055.26 6.634.326 10.424.396 13.25.243 29.74.546 37.203 9.539 1.036 1.248 1.948 2.769 2.639 4.396 10.075 23.766 3.51 48.18-3.437 69.199-2.443 7.394-5.175 14.981-7.543 21.512-7.187 19.816-15.49 43.067-22.593 65.276-2.045 6.396-4.301 15.549-3.436 22.835 2.156 18.159 16.878 32.847 28.848 41.972 10.832 8.255 23.88 14.558 36.317 20.307 25.827 11.938 52.519 27.471 42.215 60.872-1.437 4.655-2.802 9.351-4.123 13.891-6.309 21.696-12.268 42.187-26.014 60.696-13.766 18.541-30.541 35.846-46.765 52.582-17.69 18.25-35.98 37.121-50.456 57.671l-.077.11c-9.198 13.057-18.71 26.56-14.278 43.382 2.642 10.031 9.477 17.922 16.088 25.554.969 1.119 1.935 2.234 2.884 3.351 12.546 14.773 19.269 27.995 23.978 47.157z"/><path d="M-55.16 569.381c-3.741-18.644-10.18-31.908-22.964-47.306-.681-.821-1.37-1.64-2.058-2.461-6.621-7.892-13.468-16.053-15.488-26.484-3.107-16.042 6.612-30.287 15.187-42.853l.808-1.185c14.55-21.36 32.883-41.16 50.61-60.308 14.984-16.184 30.477-32.919 43.613-50.516 9.583-12.834 19.491-26.106 21.415-43.97l.113-1.043c1.193-11.082 2.32-21.55 4.841-32.253 7.687-32.633-17.266-48.163-43.482-61.273-11.68-5.84-24.917-12.46-35.415-20.839-17.574-14.029-26.212-28.284-25.676-42.369.277-7.308 2.402-14.794 4.457-22.033l.416-1.469c5.955-21.073 13.502-42.113 20.8-62.459l2.035-5.678c2.591-7.237 5.27-14.72 7.755-22.228 7.15-21.611 15.254-46.105 2.778-68.973-.849-1.557-1.956-3-3.2-4.174-9.708-9.15-28.05-7.64-42.788-6.426-3.487.287-6.78.558-9.685.663l.028.763c2.921-.106 6.224-.378 9.72-.666 14.587-1.2 32.741-2.696 42.2 6.221a16.2 16.2 0 0 1 3.056 3.984C-13.767-23.377-21.816.95-28.918 22.414c-2.481 7.5-5.159 14.978-7.748 22.21l-2.035 5.679c-7.303 20.358-14.854 41.41-20.816 62.509l-.416 1.468c-2.067 7.282-4.204 14.813-4.486 22.212-.546 14.341 8.19 28.806 25.963 42.994 10.56 8.429 23.836 15.068 35.55 20.925 25.943 12.973 50.64 28.325 43.081 60.416-2.532 10.749-3.662 21.239-4.858 32.346l-.112 1.044c-1.903 17.656-11.748 30.843-21.267 43.595-13.114 17.564-28.593 34.284-43.563 50.453-17.746 19.169-36.097 38.991-50.68 60.398l-.808 1.184c-8.659 12.69-18.473 27.074-15.307 43.428 2.058 10.625 8.97 18.863 15.654 26.829q1.033 1.228 2.055 2.457c12.695 15.292 19.089 28.461 22.804 46.97z"/><path d="M-50.52 572.219c-2.86-18.261-8.758-31.032-21.757-47.119l-1.114-1.375c-6.706-8.271-13.64-16.824-14.996-27.904-1.9-15.517 7.34-29.981 15.491-42.744l1.127-1.767c14.554-22.862 33.205-44.116 51.241-64.671 12.882-14.681 26.203-29.862 37.89-45.476 1.25-1.668 2.584-3.4 3.964-5.19 9.46-12.281 21.235-27.566 21.13-43.096a531 531 0 0 0-.125-7.615c-.187-8.804-.363-17.12 1.037-26.047 5.124-32.675-20.429-46.598-45.14-60.062l-2.732-1.487c-11.091-6.028-22.56-12.261-31.825-20.169-11.684-9.972-24.954-25.611-21.82-43.479 1.315-7.49 3.075-15.526 5.382-24.565 5.631-22.06 13.466-44.13 21.043-65.474l2.745-7.74c2.36-6.654 4.801-13.534 7.048-20.301l.53-1.595c7.204-21.664 15.37-46.218 1.809-66.926-1-1.527-2.266-2.906-3.562-3.882-12.403-9.334-34.236-5.697-50.178-3.042-2.149.358-4.208.701-6.14.997l.114.754c1.937-.296 3.999-.64 6.152-.998 15.806-2.633 37.452-6.24 49.593 2.899 1.228.924 2.43 2.234 3.383 3.69 13.36 20.399 5.256 44.768-1.895 66.268l-.53 1.595c-2.244 6.759-4.684 13.636-7.043 20.286l-2.745 7.74c-7.583 21.36-15.423 43.446-21.063 65.54-2.312 9.058-4.076 17.112-5.394 24.622-3.196 18.223 10.24 34.09 22.076 44.192 9.325 7.959 20.83 14.211 31.956 20.258l2.731 1.486c25.606 13.952 49.792 27.13 44.75 59.274-1.41 8.994-1.232 17.343-1.045 26.182.053 2.472.107 5.027.125 7.604.104 15.268-11.583 30.437-20.972 42.625-1.38 1.793-2.718 3.528-3.968 5.199-11.671 15.59-24.982 30.76-37.855 45.43-18.055 20.576-36.725 41.853-51.31 64.765l-1.126 1.765c-8.222 12.871-17.538 27.459-15.607 43.248 1.382 11.297 8.387 19.937 15.161 28.291l1.113 1.374c12.906 15.971 18.76 28.644 21.597 46.759z"/><path d="M-45.886 575.056c-2.29-20.399-9.27-32.667-20.555-46.962-19.93-25.25-15.123-44.678 1.527-73.841q.291-.512.586-1.021c14.342-24.841 33.547-48.044 52.13-70.494 9.938-12.008 20.215-24.424 29.528-36.844 1.64-2.188 3.419-4.471 5.301-6.889 10.397-13.351 23.337-29.966 24.872-46.347.557-5.941.013-12.174-.514-18.202-.499-5.709-1.015-11.612-.597-17.269 2.185-29.603-18.159-41.259-39.697-53.601-2.901-1.662-5.902-3.382-8.85-5.147q-2.06-1.23-4.156-2.472c-9.99-5.923-20.32-12.049-28.462-19.659-14.142-13.215-20.482-29.512-17.397-44.708.589-2.9 1.144-5.861 1.732-8.997 1.035-5.519 2.106-11.226 3.384-16.641 5.784-24.53 14.39-48.985 22.713-72.634l1.86-5.275c2.127-6.016 4.325-12.238 6.367-18.35.487-1.458 1.007-2.98 1.544-4.552 6.835-20 16.195-47.39-.078-63.569-1.25-1.242-2.793-2.4-4.464-3.35-16.42-9.33-38.725-4.806-58.343.166l.187.74c19.474-4.936 41.605-9.433 57.779-.243 1.613.916 3.101 2.033 4.303 3.228C.75-42.035-8.522-14.905-15.29 4.904a687 687 0 0 0-1.546 4.557c-2.04 6.107-4.237 12.325-6.362 18.338l-1.862 5.275c-8.33 23.669-16.942 48.143-22.736 72.713-1.282 5.432-2.354 11.148-3.39 16.676-.588 3.132-1.143 6.091-1.73 8.985-3.14 15.462 3.283 32.017 17.623 45.418 8.203 7.666 18.569 13.813 28.594 19.758q2.094 1.24 4.152 2.47c2.955 1.769 5.959 3.49 8.864 5.154 21.323 12.219 41.464 23.759 39.315 52.883-.422 5.719.096 11.653.598 17.391.523 5.995 1.065 12.193.515 18.066-1.516 16.16-14.378 32.676-24.714 45.949-1.885 2.42-3.665 4.706-5.31 6.9-9.303 12.405-19.573 24.814-29.507 36.815-18.6 22.473-37.829 45.704-52.201 70.598q-.296.512-.588 1.025c-6.85 11.997-13.341 24.859-14.45 37.627-1.1 12.668 3.026 24.447 12.987 37.066 11.198 14.186 18.125 26.355 20.395 46.574z"/><path d="M-41.256 577.89c-1.418-19.846-7.898-31.757-19.36-46.796-19.11-25.074-11.437-46.174 1.49-73.245 13.489-28.245 33.91-54.257 53.66-79.414 6.739-8.583 13.707-17.459 20.204-26.191 1.41-1.895 2.845-3.804 4.29-5.726 12.242-16.282 24.9-33.118 30.878-52.414 2.823-9.107 1.912-18.131 1.031-26.858-.404-4.014-.823-8.165-.887-12.314-.42-27.624-17.911-37.296-38.164-48.494-4.755-2.629-9.67-5.347-14.496-8.388l-.275-.173c-10.782-6.794-21.931-13.819-30.294-22.622-12.356-13.005-16.196-26.366-13.254-46.118 1.182-7.938 2.665-17.297 4.7-26.518 5.66-25.639 14.273-50.978 22.611-74.734q1.24-3.53 2.496-7.07c1.953-5.516 3.973-11.221 5.86-16.822.564-1.674 1.17-3.419 1.795-5.22C-2.14-20.89 7.214-47.82-10.879-63.095c-1.356-1.145-2.99-2.207-4.723-3.073-17.275-8.624-42.962-6.254-59.409.544l.292.705c16.286-6.732 41.705-9.088 58.776-.567 1.68.839 3.261 1.868 4.572 2.974C6.32-47.576-2.934-20.932-9.691-1.476A604 604 0 0 0-11.49 3.75c-1.885 5.596-3.903 11.298-5.855 16.811a2719 2719 0 0 0-2.497 7.072c-8.345 23.778-16.967 49.142-22.636 74.823-2.04 9.243-3.526 18.618-4.71 26.569-2.98 20.013.918 33.559 13.456 46.756 8.429 8.872 19.619 15.923 30.44 22.741l.275.174c4.844 3.052 9.77 5.775 14.534 8.409 20.045 11.084 37.357 20.656 37.771 47.839.064 4.182.484 8.349.89 12.379.914 9.05 1.777 17.596-1 26.555-5.94 19.171-18.559 35.952-30.759 52.182a1466 1466 0 0 0-4.293 5.729C7.635 360.513.669 369.385-6.066 377.964c-19.775 25.19-40.225 51.237-53.747 79.557-12.623 26.433-20.741 48.67-1.408 74.036 11.37 14.921 17.8 26.732 19.205 46.388z"/><path d="M-36.627 580.718c-.651-19.316-6.649-30.873-18.226-46.673-16.832-22.973-9.292-44.28-.562-68.952l1.102-3.119c10.918-31.016 31.892-58.871 52.177-85.81 4.015-5.332 8.167-10.846 12.113-16.223l.69-.94c14.347-19.55 29.183-39.764 39.568-62.116 7.145-15.376 6.12-25.234 4.569-40.158-.143-1.369-.29-2.779-.434-4.24-2.624-26.449-21.07-35.711-40.599-45.517-5.7-2.862-11.592-5.822-17.093-9.246-11.005-6.852-21.242-15.407-28.085-23.472-12.048-14.198-11.544-29.293-9.632-47.553.924-8.829 2.33-17.986 4.176-27.215 4.87-24.345 12.475-48.12 22.395-76.326 1.024-2.91 2.063-5.829 3.102-8.748 1.82-5.108 3.7-10.39 5.47-15.56A568 568 0 0 1-4.1-6.296c6.887-19.516 16.32-46.244-3.307-60.65-1.447-1.062-3.162-2.056-4.959-2.873-16.614-7.562-42.305-7.86-59.76-.693l.29.706c17.28-7.095 42.711-6.803 59.155.68 1.75.797 3.417 1.763 4.823 2.795C11.313-52.26 1.99-25.84-4.818-6.55c-.626 1.774-1.234 3.496-1.8 5.152-1.768 5.166-3.648 10.446-5.466 15.551-1.04 2.922-2.08 5.84-3.104 8.752-9.93 28.237-17.544 52.04-22.424 76.429-1.85 9.253-3.26 18.433-4.186 27.286-1.93 18.442-2.434 33.697 9.809 48.125 6.893 8.123 17.195 16.734 28.264 23.627 5.53 3.442 11.44 6.409 17.154 9.279 19.336 9.709 37.6 18.88 40.182 44.911.145 1.462.291 2.874.434 4.244 1.538 14.797 2.554 24.572-4.501 39.757C39.19 318.845 24.377 339.03 10.05 358.55l-.69.94c-3.942 5.374-8.093 10.885-12.106 16.215-20.32 26.987-41.33 54.893-52.288 86.015l-1.102 3.119c-8.802 24.876-16.403 46.359.667 69.658 11.485 15.674 17.434 27.129 18.078 46.246z"/><path d="M-31.991 583.541c.271-20.222-7.06-31.273-17.207-46.569-12.63-19.04-8.668-36.414-4.079-56.531 1.031-4.524 2.099-9.202 2.987-14.004 5.958-32.185 26.546-60.378 46.458-87.645 2.49-3.412 4.958-6.789 7.365-10.136 3.823-5.313 8.054-10.838 12.535-16.686 22.585-29.482 50.695-66.172 43.275-102.078-2.602-12.596-5.916-24.597-17.717-32.98-7.458-5.298-16.881-8.749-25.994-12.086-6.832-2.502-13.286-4.865-18.701-7.889-9.026-5.04-18.097-13.249-26.233-23.739-9.697-12.503-8.299-29.718-7.066-44.907q.163-1.995.313-3.947c.686-9.049 1.886-18.384 3.566-27.747 4.802-26.772 13.505-53.141 22.193-77.65 1.155-3.257 2.332-6.524 3.51-9.793 1.759-4.88 3.578-9.926 5.29-14.864a610 610 0 0 1 1.69-4.785c6.908-19.39 16.369-45.947-4.382-59.565a33.5 33.5 0 0 0-5.175-2.75c-18.031-7.72-42.716-8.676-60.03-2.326l.263.716c16.874-6.189 41.883-5.216 59.466 2.312a33 33 0 0 1 5.058 2.686C15.643-56.133 6.298-29.903-.525-10.75-1.11-9.106-1.68-7.505-2.216-5.96c-1.711 4.934-3.53 9.978-5.287 14.856-1.179 3.27-2.357 6.538-3.512 9.796-8.699 24.54-17.412 50.945-22.225 77.77-1.684 9.389-2.887 18.75-3.575 27.824-.099 1.3-.206 2.615-.313 3.944-1.245 15.326-2.655 32.698 7.223 45.435 8.198 10.571 17.35 18.848 26.464 23.938 5.468 3.053 11.95 5.427 18.811 7.939 9.066 3.32 18.44 6.752 25.815 11.991 11.574 8.222 14.84 20.071 17.412 32.513 7.348 35.564-20.643 72.102-43.134 101.459-4.484 5.854-8.72 11.382-12.549 16.706a1792 1792 0 0 1-7.362 10.131c-19.962 27.334-40.602 55.599-46.592 87.956-.886 4.786-1.95 9.457-2.98 13.973-4.435 19.444-8.624 37.809 4.187 57.122 10.071 15.182 17.348 26.151 17.08 46.137z"/><path d="M-27.357 586.372c1.052-19.122-5.666-29.755-14.963-44.471l-1.36-2.155c-9.537-15.142-7.396-29.179-5.129-44.04 1.201-7.869 2.442-16.005 2.042-24.716-1.417-30.85 18.945-59.466 36.908-84.713 1.996-2.805 3.958-5.562 5.851-8.27 4.972-7.108 10.13-14.306 15.119-21.268 11.777-16.434 23.955-33.428 34.83-50.83q.826-1.321 1.685-2.686c10.273-16.351 23.06-36.693 17.305-55.991-4.398-14.742-8.452-25.77-20.646-33.437-7.941-4.993-17.635-8.074-27.01-11.054-6.999-2.225-13.61-4.326-19.393-7.134-10.226-4.964-18.488-12.899-24.555-23.584-6.957-12.251-5.963-29.858-5.164-44.006.115-2.035.227-4.012.312-5.909.378-8.368 1.325-17.566 2.895-28.12 4.079-27.413 13.127-53.921 22.046-78.723 1.201-3.342 2.43-6.695 3.66-10.05C-1.13.327.723-4.727 2.457-9.668c.501-1.426 1.034-2.904 1.581-4.426C10.985-33.39 20.5-59.818-1.194-72.534a44 44 0 0 0-5.37-2.693c-15.908-6.609-40.733-10.445-60.334-4.119l.235.727c19.416-6.268 44.028-2.458 59.807 4.097 1.733.72 3.508 1.61 5.276 2.646 21.147 12.396 11.757 38.48 4.9 57.525a572 572 0 0 0-1.583 4.43C.004-4.983-1.848.069-3.639 4.954a1701 1701 0 0 0-3.663 10.054c-8.93 24.838-17.993 51.387-22.082 78.869-1.574 10.58-2.524 19.804-2.903 28.197-.085 1.895-.197 3.869-.311 5.902-.805 14.247-1.806 31.979 5.262 44.425 6.145 10.821 14.518 18.861 24.886 23.894 5.833 2.831 12.468 4.941 19.494 7.174 9.33 2.966 18.977 6.032 26.836 10.974 11.968 7.524 15.97 18.427 20.32 33.008 5.657 18.966-7.028 39.149-17.22 55.367q-.859 1.366-1.686 2.688c-10.861 17.382-23.032 34.366-34.802 50.79-4.99 6.963-10.15 14.164-15.125 21.276-1.892 2.706-3.853 5.461-5.847 8.264-18.036 25.347-38.478 54.078-37.048 85.191.396 8.635-.84 16.733-2.034 24.565-2.29 15.006-4.452 29.179 5.237 44.563l1.36 2.155c9.566 15.141 15.885 25.143 14.847 44.022z"/><path d="M-22.724 589.212c1.749-18.213-4.29-28.12-12.65-41.833a709 709 0 0 1-2.958-4.883c-6.356-10.625-9.16-18.956-5.786-32.535l.091-.368c3.202-12.879 5.316-21.388.662-34.252-10.13-27.988 11.545-59.166 27.372-81.928 1.395-2.007 2.752-3.958 4.046-5.847 7.991-11.664 16.636-23.424 24.996-34.796 9.819-13.355 19.971-27.166 29.293-41.114 1.4-2.095 3-4.402 4.692-6.845 11.598-16.738 29.128-42.033 24.042-60.202-3.666-13.092-9.058-26.301-23.565-34.237-8.23-4.503-17.818-7.179-27.09-9.766-7.463-2.082-14.512-4.049-20.825-6.88-12.03-5.394-18.898-12.316-22.964-23.146-4.826-12.853-4.48-30.616-4.203-44.889.038-1.949.074-3.846.098-5.675.108-8.431.823-17.701 2.187-28.342 3.552-27.706 12.812-54.498 21.993-79.565C-2.09 8.827-.853 5.53.384 2.233 2.266-2.782 4.212-7.967 6-13.021c.424-1.201.87-2.438 1.324-3.703 6.9-19.18 16.352-45.448-5.703-57.732a54 54 0 0 0-5.552-2.706c-15.278-6.333-40.338-11.71-60.682-6.022l.205.734c20.157-5.634 45.02-.294 60.185 5.992A53 53 0 0 1 1.25-73.79C22.74-61.82 13.415-35.905 6.607-16.982q-.686 1.9-1.327 3.707C3.496-8.228 1.551-3.045-.33 1.965c-1.238 3.3-2.476 6.598-3.679 9.882-9.196 25.108-18.472 51.946-22.033 79.73-1.368 10.671-2.085 19.97-2.194 28.43-.023 1.826-.06 3.722-.098 5.67-.278 14.338-.625 32.182 4.252 45.172 4.144 11.038 11.132 18.088 23.366 23.574 6.365 2.854 13.44 4.828 20.931 6.918 9.232 2.576 18.777 5.24 26.93 9.701 14.26 7.8 19.576 20.842 23.196 33.773 4.99 17.822-12.416 42.941-23.934 59.562-1.694 2.446-3.295 4.755-4.699 6.856-9.312 13.933-19.46 27.736-29.272 41.085-8.365 11.377-17.014 23.143-25.013 34.817-1.293 1.888-2.648 3.837-4.042 5.842-15.922 22.901-37.727 54.264-27.464 82.624 4.576 12.645 2.483 21.064-.684 33.808l-.092.369c-3.438 13.835-.588 22.31 5.873 33.109a653 653 0 0 0 2.96 4.889c8.284 13.587 14.268 23.403 12.543 41.362z"/><path d="M-18.092 592.055c2.4-17.532-3.198-26.815-10.946-39.664a404 404 0 0 1-3.996-6.725c-6.972-12.064-8.006-20.657-4.098-34.056l.063-.212c3.615-12.394 6.226-21.349-2.526-32.235-19.332-24.052 3.777-57.808 19.072-80.146l1.537-2.245c9.614-14.086 20.09-28.139 30.22-41.73 8.999-12.071 18.303-24.552 27.023-37.078 2.1-3.016 4.395-6.203 6.824-9.576 14.635-20.32 32.846-45.61 31.403-65.597-1.98-27.412-27.941-35.842-53.048-43.994-7.152-2.322-14.548-4.723-21.274-7.527-9.09-3.788-19.732-9.771-21.357-22.511l-.032-.253c-2.127-16.68-4.327-33.927-4.672-50.427-.176-8.436.303-17.735 1.467-28.427C-19.417 61.933-9.876 34.84-.363 9.465.697 6.638 1.79 3.797 2.887.952 5-4.528 7.183-10.195 9.085-15.7c.53-1.537 1.094-3.12 1.67-4.74 6.898-19.397 15.483-43.538-6.462-55.487a65 65 0 0 0-5.72-2.78c-21.335-9.032-44.17-12.02-61.085-7.993l.177.742c16.762-3.991 39.42-1.018 60.61 7.953a65 65 0 0 1 5.653 2.747C25.3-63.62 16.837-39.82 10.035-20.696a554 554 0 0 0-1.672 4.746C6.465-10.456 4.285-4.796 2.175.678 1.08 3.524-.017 6.368-1.077 9.197c-9.531 25.42-19.089 52.566-22.114 80.373-1.167 10.725-1.648 20.055-1.47 28.524.344 16.541 2.547 33.809 4.677 50.508l.032.253c1.675 13.128 12.54 19.251 21.82 23.119 6.755 2.816 14.165 5.222 21.332 7.549 24.867 8.074 50.58 16.423 52.523 43.322 1.423 19.711-16.7 44.876-31.261 65.097-2.431 3.377-4.728 6.565-6.83 9.586-8.715 12.515-18.015 24.992-27.009 37.057-10.135 13.597-20.617 27.658-30.24 41.757l-1.535 2.244c-15.42 22.525-38.725 56.562-19.037 81.054 8.503 10.577 5.937 19.372 2.387 31.544l-.062.213c-3.977 13.632-2.925 22.376 4.169 34.651 1.376 2.38 2.712 4.595 4.003 6.738 7.668 12.714 13.208 21.9 10.845 39.165z"/><path d="M-13.461 594.903c3.015-16.945-2.249-25.612-9.535-37.607-1.536-2.528-3.124-5.143-4.754-8.031-7.388-13.085-6.584-22.165-2.34-35.332 3.554-11.022 5.498-20.225-4.234-29.929-8.285-8.26-14.105-15.004-13.528-26.619.912-18.42 12.938-36.471 22.605-50.974l.937-1.408c10.934-16.427 23.095-32.689 34.856-48.415 7.798-10.428 15.861-21.21 23.51-31.963 2.717-3.82 5.585-7.721 8.62-11.85 16.152-21.964 34.456-46.859 37.66-70.505 4.237-31.276-25.802-39.607-52.306-46.958-8.14-2.257-15.828-4.389-22.376-7.076-13.005-5.337-19.436-12.497-19.659-21.89-.198-8.326-1.832-17.348-3.412-26.074-1.442-7.958-2.933-16.187-3.366-23.982-.467-8.388-.22-17.673.756-28.386 2.505-27.49 12.392-54.89 22.303-80.598l1.397-3.618c2.68-6.934 5.451-14.103 7.958-21.134a592 592 0 0 1 1.73-4.765c6.976-19.04 15.657-42.736-6.509-54.835A78 78 0 0 0 .98-79.954c-10.46-4.607-37.397-14.802-61.552-9.982l.15.748c23.94-4.776 50.7 5.355 61.095 9.933a77 77 0 0 1 5.814 2.88c21.589 11.783 13.39 34.16 6.158 53.902-.593 1.619-1.177 3.212-1.732 4.77C8.409-10.68 5.64-3.514 2.963 3.415L1.564 7.033C-8.366 32.79-18.273 60.248-20.786 87.835c-.98 10.751-1.228 20.073-.759 28.498.437 7.842 1.932 16.095 3.377 24.076 1.575 8.696 3.204 17.689 3.4 25.955.232 9.729 6.817 17.114 20.133 22.578 6.59 2.704 14.3 4.842 22.461 7.106 26.204 7.267 55.902 15.503 51.754 46.119-3.178 23.455-21.422 48.266-37.517 70.157-3.038 4.131-5.908 8.034-8.63 11.86-7.642 10.745-15.703 21.523-23.498 31.947-11.766 15.735-23.934 32.005-34.88 48.449l-.937 1.409c-9.717 14.578-21.81 32.727-22.733 51.358-.59 11.93 5.327 18.798 13.752 27.197 9.426 9.399 7.52 18.385 4.047 29.156-4.313 13.378-5.125 22.609 2.402 35.941 1.636 2.898 3.227 5.518 4.766 8.052 7.2 11.851 12.4 20.415 9.437 37.076z"/><path d="M-8.832 597.751c3.745-16.85-1.651-25.466-9.119-37.392-1.434-2.291-2.918-4.661-4.439-7.248-6.93-11.797-6.018-20.954-2.103-32.784 3.88-11.723 6.946-20.984-3.803-30.628-8.026-7.201-16.462-16.066-18.18-27.218-2.55-16.542 8.364-33.718 17.13-47.519.66-1.038 1.307-2.056 1.933-3.05 11.716-18.605 25.257-36.832 38.352-54.459 6.325-8.514 12.865-17.317 19.115-26.048 2.93-4.095 5.914-8.172 9.073-12.488 17.04-23.283 36.357-49.673 43.76-76.026 3.054-10.87 2.507-19.684-1.67-26.945-8.156-14.175-28.557-19.442-48.285-24.535-8.285-2.139-16.11-4.159-22.825-6.782-11.806-4.61-17.948-11.514-18.776-21.105-.668-7.743-2.691-16.101-4.648-24.184-1.98-8.184-4.03-16.645-4.765-24.71-.756-8.299-.73-17.533.08-28.232 2.18-28.804 13.564-57.634 22.71-80.8A1492 1492 0 0 1 7.94-2.488c2.143-5.335 4.36-10.852 6.384-16.262q.686-1.828 1.396-3.693c7.624-20.077 16.265-42.832-6.38-55.464a91 91 0 0 0-6.01-3.087c-13.17-6.113-38.748-15.793-62.093-11.942l.124.753c23.144-3.818 48.558 5.805 61.647 11.881a90 90 0 0 1 5.96 3.06c22.07 12.313 13.554 34.74 6.04 54.528q-.712 1.868-1.398 3.697c-2.021 5.4-4.236 10.914-6.377 16.244C6.147-.074 5.063 2.625 4 5.318c-9.166 23.214-20.574 52.103-22.763 81.023-.813 10.74-.839 20.017-.078 28.358.74 8.12 2.796 16.61 4.783 24.821 1.95 8.055 3.966 16.385 4.63 24.069.855 9.91 7.154 17.025 19.258 21.751 6.758 2.639 14.604 4.665 22.911 6.81 19.576 5.054 39.819 10.28 47.815 24.177 4.07 7.074 4.592 15.696 1.597 26.359-7.366 26.22-25.808 51.415-43.64 75.781-3.161 4.318-6.146 8.396-9.08 12.494-6.244 8.726-12.783 17.527-19.106 26.038-13.104 17.638-26.654 35.877-38.385 54.506q-.94 1.492-1.931 3.049c-8.836 13.908-19.834 31.216-17.24 48.044 1.754 11.389 10.298 20.378 18.423 27.669 10.379 9.311 7.53 17.915 3.59 29.822-3.985 12.037-4.907 21.362 2.169 33.408 1.526 2.598 3.012 4.971 4.45 7.268 7.372 11.771 12.698 20.277 9.021 36.822z"/><path d="M-4.203 600.6c4.296-16.256-.803-24.17-7.86-35.123-1.63-2.531-3.317-5.148-5.042-8.099-5.833-9.972-3.094-20.364-.445-30.414 3.111-11.801 6.05-22.947-4.679-32.528-9.294-8.301-14.345-15.923-16.889-25.485-5.361-20.159 1.944-35.391 11.298-51.81 13.484-23.69 30.911-46.712 47.752-68.968 24.764-32.727 50.372-66.567 64.444-103.639 9.426-24.829 4.13-41.656-16.19-51.442-9.685-4.665-20.646-6.443-31.246-8.162-7.181-1.165-14.607-2.37-21.421-4.464-9.853-3.027-15.697-9.252-18.948-20.182a974 974 0 0 0-2.86-9.381c-3.835-12.438-7.802-25.299-9.439-37.844-1.061-8.134-1.234-17.023-.543-27.973C-14.549 57.798-4.196 31.284 7.18 4.264 8.197 1.848 9.235-.574 10.274-3c2.356-5.497 4.792-11.182 6.965-16.77l.776-1.987c7.958-20.387 16.978-43.493-6.226-56.864-2.31-1.331-4.26-2.382-6.136-3.308C-7.6-88.469-33.375-98.962-57.064-95.75l.103.755c23.488-3.183 49.1 7.25 62.277 13.751 1.861.919 3.797 1.962 6.092 3.285 22.636 13.044 13.742 35.825 5.896 55.925l-.776 1.989C14.36-14.471 11.927-8.792 9.573-3.3 8.533-.873 7.495 1.55 6.477 3.968c-11.402 27.083-21.78 53.663-23.509 81.069-.694 11-.52 19.936.548 28.12 1.645 12.61 5.621 25.503 9.467 37.971.967 3.132 1.931 6.258 2.857 9.373 3.331 11.201 9.331 17.584 19.455 20.694 6.864 2.11 14.317 3.319 21.523 4.487 10.547 1.711 21.452 3.48 31.038 8.096 19.896 9.583 25.066 26.096 15.807 50.486-14.035 36.967-39.608 70.765-64.34 103.448-16.854 22.276-34.286 45.293-47.806 69.051-9.437 16.568-16.807 31.946-11.372 52.383 2.585 9.717 7.705 17.451 17.12 25.859 10.378 9.27 7.498 20.196 4.448 31.765-2.688 10.199-5.469 20.747.523 30.993 1.735 2.964 3.425 5.589 5.06 8.127 6.951 10.789 11.973 18.584 7.764 34.515z"/><path d="M.425 603.447c4.818-15.706-.012-22.907-6.698-32.873-1.796-2.679-3.654-5.449-5.548-8.683-5.954-10.17-2.943-20.342-.031-30.178 3.483-11.771 6.774-22.888-4.265-33.646-21.513-20.967-19.732-54.994-8.973-77.737 14.153-29.912 34.678-58.127 54.528-85.415 20.412-28.059 41.52-57.074 55.584-87.832 10.421-22.792 16.389-45.676-10.278-58.684-8.986-4.384-19.292-5.896-29.257-7.357-8.477-1.244-16.482-2.418-23.532-5.226-10.545-4.202-14.884-9.506-20.1-19.096-7.283-13.389-12.929-29.861-15.49-45.193-1.33-7.956-1.675-16.734-1.089-27.623 1.561-28.986 14.423-57.71 24.758-80.79Q11.23.446 12.442-2.228c2.727-6.027 5.546-12.26 7.997-18.407 8.265-20.727 17.633-44.22-6.202-58.65-2.392-1.447-4.377-2.58-6.248-3.566-13.26-6.987-39.134-18.3-63.436-15.572l.085.758c24.1-2.705 49.813 8.543 62.996 15.489 1.857.978 3.83 2.105 6.208 3.544 23.282 14.094 14.44 36.27 5.89 57.715-2.446 6.132-5.261 12.355-7.984 18.374-.807 1.785-1.614 3.567-2.41 5.346-10.36 23.138-23.254 51.933-24.824 81.06-.59 10.947-.24 19.777 1.099 27.79 2.574 15.412 8.25 31.971 15.571 45.432 5.306 9.755 9.726 15.151 20.489 19.439 7.133 2.842 15.181 4.023 23.703 5.273 9.908 1.453 20.154 2.956 29.034 7.288 26.079 12.721 20.179 35.241 9.918 57.681-14.03 30.69-35.116 59.672-55.506 87.701-19.871 27.317-40.42 55.562-54.601 85.538-10.872 22.979-12.65 57.38 9.13 78.609 10.709 10.437 7.482 21.34 4.065 32.883-2.957 9.993-6.016 20.325.105 30.781 1.906 3.253 3.77 6.033 5.573 8.721 6.569 9.792 11.314 16.866 6.601 32.225z"/><path d="M5.052 606.293c5.317-15.197.737-21.685-5.601-30.664-1.85-2.622-3.948-5.593-5.982-9.051-6.108-10.385-2.947-20.55.11-30.38 3.569-11.482 7.26-23.354-3.54-35.684-19.236-21.963-13.597-52.713-9.066-77.423l.34-1.864c3.296-18.024 17.601-37.86 30.226-55.36 3.91-5.422 7.603-10.542 10.951-15.539 3.764-5.618 7.646-11.341 11.4-16.877 18.182-26.805 36.985-54.524 51.142-83.049l.07-.141c5.557-11.196 11.856-23.886 13.256-35.815 1.632-13.917-3.785-24.004-16.562-30.835-8.964-4.793-19.468-6.31-29.627-7.778-8.3-1.199-16.139-2.331-22.87-5.132-8.654-3.602-15.473-9.075-22.107-17.747-8.778-11.472-15.66-27.141-18.885-42.987-1.575-7.746-2.064-16.387-1.537-27.192 1.325-27.19 13.475-52.98 25.225-77.92l1.338-2.84q.87-1.847 1.747-3.7c3.06-6.469 6.224-13.159 8.894-19.783 9.765-24.222 15.43-43.912-7.253-58.536a125 125 0 0 0-6.349-3.858C-2.828-91.3-28.73-103.417-53.886-101l.073.759c24.948-2.397 50.688 9.65 63.811 17.044a124 124 0 0 1 6.31 3.834c22.193 14.308 16.59 33.72 6.96 57.61C20.604-15.15 17.445-8.47 14.39-2.012q-.878 1.854-1.748 3.702l-1.338 2.84C-.476 29.537-12.659 55.395-13.992 82.737c-.53 10.87-.036 19.57 1.552 27.381 3.247 15.955 10.181 31.737 19.027 43.299 6.72 8.784 13.635 14.331 22.42 17.987 6.82 2.838 14.705 3.977 23.054 5.183 10.093 1.458 20.53 2.966 29.377 7.696 28.104 15.027 14.174 43.089 2.981 65.638l-.07.14c-14.135 28.478-32.921 56.175-51.09 82.961a3687 3687 0 0 0-11.402 16.88c-3.34 4.986-7.03 10.102-10.936 15.518-12.671 17.567-27.032 37.477-30.357 55.669l-.341 1.864c-4.56 24.87-10.236 55.823 9.243 78.063 10.518 12.009 7.053 23.155 3.384 34.954-3.105 9.989-6.317 20.318-.037 30.993 2.05 3.486 4.156 6.47 6.016 9.104 6.437 9.121 10.69 15.146 5.503 29.972z"/><path d="M9.677 609.136c5.795-14.736 1.678-20.226-4.554-28.537-1.97-2.627-4.203-5.605-6.355-9.241-5.452-9.217-2.464-16.532.996-25.002 1.095-2.679 2.227-5.45 3.126-8.396C6.845 525 4.731 513.5-3.764 501.769c-12.883-17.79-9.47-38.194-6.172-57.927 1.086-6.493 2.21-13.207 2.753-19.773 2.091-25.208 14.906-45.488 28.47-66.955l1.053-1.665c5.7-9.027 11.646-18.182 17.397-27.036 15.596-24.012 31.721-48.842 44.857-74.044.832-1.596 1.723-3.27 2.649-5.009 11.464-21.533 28.789-54.076 1.88-70.443-9.27-5.637-20.093-7.367-30.56-9.04-7.102-1.135-14.447-2.309-21.052-4.708-9.505-3.453-18.588-9.318-24.92-16.089-10.613-11.348-17.927-24.693-22.362-40.799-2.36-8.57-2.291-17.886-1.866-26.675C-10.415 56.346 1.386 32.588 12.8 9.61c1.457-2.933 2.906-5.852 4.326-8.756l1.122-2.295c3.347-6.836 6.808-13.905 9.632-20.934 9.033-22.486 14.62-42.41-8.6-58.511a120 120 0 0 0-6.44-4.173c-13.097-7.885-38.983-20.768-65.194-18.467l.066.761c25.996-2.283 51.717 10.522 64.735 18.359a119 119 0 0 1 6.398 4.147c22.798 15.808 17.553 34.633 8.327 57.6-2.813 7.003-6.268 14.059-9.61 20.883L16.44.52c-1.419 2.903-2.867 5.82-4.324 8.752C.668 32.319-11.17 56.15-12.4 81.57c-.428 8.852-.495 18.24 1.894 26.914 4.468 16.228 11.84 29.677 22.539 41.117 6.412 6.857 15.603 12.792 25.217 16.285 6.673 2.424 14.055 3.604 21.193 4.745 10.394 1.661 21.142 3.379 30.282 8.938 26.294 15.992 9.174 48.152-2.156 69.433a645 645 0 0 0-2.652 5.014C70.799 279.187 54.683 304 39.097 327.997c-5.752 8.856-11.7 18.013-17.404 27.045l-1.05 1.665c-13.617 21.55-26.48 41.905-28.586 67.299-.542 6.534-1.662 13.232-2.745 19.71-3.326 19.887-6.764 40.453 6.306 58.5C3.96 513.738 6.04 525.025 2.16 537.737c-.889 2.913-2.014 5.668-3.103 8.331-3.39 8.298-6.592 16.136-.945 25.678 2.172 3.672 4.418 6.668 6.4 9.311 6.078 8.105 10.093 13.46 4.455 27.8z"/><path d="M14.304 611.975c2.805-6.492 5.346-14.003 2.934-20.486-1.407-3.779-4.354-6.247-7.206-8.634-2.277-1.907-4.633-3.88-6.13-6.492-5.083-8.87-1.538-16.984 2.215-25.574 1.648-3.772 3.352-7.672 4.237-11.613 3.176-14.148-1.91-26.275-7.879-37.272-9.669-17.81-5.596-36.86-1.657-55.283 1.575-7.369 3.205-14.988 3.958-22.474.358-3.565.426-7.238.499-11.127.126-6.86.257-13.953 2.114-20.307 2.885-9.864 8.36-19.255 13.66-28.34a823 823 0 0 0 2.838-4.894c8.295-14.476 17.259-28.965 25.934-42.979 11.62-18.766 23.634-38.173 34.063-57.65 1.17-2.187 2.553-4.653 4.017-7.264 12.465-22.228 33.328-59.432 8.746-77.271-9.525-6.911-21.45-9.012-32.984-11.044-5.901-1.039-12.005-2.115-17.594-3.825-11.647-3.564-21.08-8.372-28.038-14.291C5.6 134.579-2.82 121.9-7.71 106.395c-2.6-8.243-2.528-17.42-2.062-26.108C-8.508 56.735 3.158 34.528 14.44 13.053c2.338-4.451 4.756-9.054 6.997-13.522L22-1.594c3.575-7.125 7.272-14.493 10.172-21.855 10.043-25.49 11.388-42.378-10.23-58.592a108 108 0 0 0-6.52-4.508c-22.122-14.165-46.27-21.272-66.253-19.499l.067.759c19.818-1.758 43.792 5.307 65.776 19.383a107 107 0 0 1 6.473 4.475c21.226 15.92 19.883 32.562 9.978 57.702-2.888 7.33-6.577 14.683-10.145 21.793l-.564 1.124c-2.237 4.462-4.653 9.062-6.99 13.51-11.32 21.548-23.026 43.83-24.297 67.548-.47 8.76-.541 18.019 2.095 26.378 4.934 15.647 13.43 28.44 25.973 39.111 7.038 5.988 16.563 10.846 28.31 14.44 5.634 1.725 11.76 2.804 17.686 3.848 11.447 2.016 23.285 4.101 32.668 10.91 24.032 17.44 3.377 54.273-8.963 76.28-1.466 2.615-2.851 5.084-4.026 7.277-10.416 19.458-22.424 38.853-34.037 57.609-8.68 14.019-17.65 28.511-25.949 43.001a795 795 0 0 1-2.834 4.89C15.07 373.11 9.57 382.546 6.66 392.499c-1.887 6.452-2.019 13.597-2.147 20.507-.071 3.873-.14 7.531-.495 11.064-.749 7.445-2.373 15.043-3.944 22.392-3.968 18.558-8.071 37.748 1.732 55.806 5.898 10.866 10.926 22.838 7.804 36.741-.868 3.87-2.557 7.736-4.19 11.474-3.663 8.386-7.452 17.057-2.178 26.26 1.564 2.73 3.972 4.747 6.302 6.698 2.903 2.43 5.645 4.726 6.98 8.315 2.32 6.229-.174 13.564-2.92 19.917z"/><path d="M18.928 614.812c3.224-6.799 5.874-13.932 3.459-20.029-1.387-3.5-4.268-5.645-7.053-7.718-2.294-1.707-4.665-3.473-6.12-5.972-4.773-8.203-.833-17.023 2.977-25.552 1.962-4.393 3.816-8.543 4.574-12.634 2.812-15.165-2.424-29.003-8.027-41.877-7.88-18.104-2.645-35.923 2.419-53.154 2.494-8.491 5.074-17.27 6.1-26.042.637-5.448.54-11.257.447-16.875-.067-4.045-.137-8.227.065-12.273.563-11.29 4.625-20.438 9.477-30.379 9.676-19.832 21.244-39.261 32.431-58.05 7.884-13.243 16.039-26.938 23.384-40.545 1.274-2.359 2.852-5.114 4.679-8.304 13.218-23.082 37.821-66.045 16.178-85.111-9.764-8.602-23.142-11.07-36.08-13.457-4.762-.879-9.261-1.709-13.538-2.829-9.956-2.606-21.398-6.16-30.777-12.752C9.6 131.472.16 119.342-5.337 104.176c-2.94-8.115-2.625-17.408-2.099-25.482C-5.999 56.667 5.698 35.566 17.01 15.16c3.295-5.944 6.406-11.558 9.276-17.198l.074-.145c3.74-7.351 7.607-14.952 10.505-22.586 9.214-24.27 10.013-40.83-12.112-58.812-1.895-1.54-4.05-3.127-6.59-4.852-21.882-14.867-46.465-22.223-67.446-20.181l.074.759c20.807-2.025 45.207 5.284 66.943 20.053 2.522 1.713 4.66 3.288 6.538 4.813 21.765 17.69 20.967 34.015 11.88 57.95C33.27-17.444 29.411-9.86 25.68-2.529l-.074.145c-2.863 5.629-5.972 11.237-9.263 17.174C4.99 35.271-6.75 56.447-8.197 78.644c-.53 8.152-.848 17.54 2.143 25.793 5.55 15.318 15.082 27.566 29.138 37.446 9.479 6.662 21.001 10.243 31.022 12.866 4.305 1.127 8.817 1.96 13.595 2.841 12.835 2.368 26.107 4.817 35.713 13.279 21.176 18.655-3.226 61.268-16.336 84.16-1.83 3.194-3.41 5.953-4.688 8.321-7.338 13.593-15.488 27.28-23.368 40.517-11.195 18.803-22.77 38.245-32.463 58.106-4.889 10.017-8.982 19.24-9.553 30.676-.202 4.07-.133 8.266-.065 12.323.093 5.593.189 11.376-.442 16.774-1.018 8.708-3.588 17.455-6.074 25.915-5.102 17.362-10.377 35.315-2.387 53.675 5.557 12.765 10.749 26.479 7.977 41.432-.742 4.002-2.578 8.112-4.521 12.462-3.888 8.704-7.908 17.705-2.939 26.245 1.533 2.635 3.969 4.449 6.324 6.201 2.824 2.103 5.492 4.089 6.799 7.388 2.308 5.825-.288 12.777-3.438 19.421z"/><path d="M23.555 617.643c3.402-6.834 6.468-14.038 3.413-20.395-1.358-2.827-3.904-4.595-6.365-6.304-2.222-1.544-4.519-3.139-5.872-5.496-4.356-7.586-.269-17.301 3.683-26.696 2.362-5.617 4.595-10.922 5.059-15.709 1.41-14.526-3.365-28.652-7.983-42.314l-.46-1.358c-6.487-19.224-.458-33.995 5.924-49.634 4.073-9.981 8.285-20.301 9.341-32.22.613-6.917.194-13.924-.212-20.701-.653-10.935-1.33-22.243 2.442-33.044 8.025-22.977 20.95-45.01 33.45-66.326 5.516-9.405 11.221-19.133 16.3-28.628l1.374-2.565c11.096-20.725 22.571-42.154 28.944-64.898 3.033-10.825 6.808-24.298-1.627-34.646-9.052-11.105-24.578-13.647-38.278-15.889-3.702-.606-7.2-1.179-10.502-1.894-11.379-2.467-23.266-5.564-33.119-11.473-14.84-8.899-24.78-20.303-31.284-35.889-3.17-7.599-2.848-16.105-2.197-24.88 1.534-20.65 13.37-40.908 24.821-60.5C24.497 9.187 28.36 2.578 31.67-3.914c3.328-6.524 7.47-14.643 10.278-22.481 9.596-26.781 6.011-41.725-14.208-59.22-1.922-1.664-4.159-3.413-6.647-5.198-21.33-15.301-47.042-22.946-68.781-20.452l.087.758c21.556-2.474 47.07 5.121 68.249 20.313 2.47 1.772 4.688 3.506 6.593 5.155C47.164-67.8 50.695-53.065 41.23-26.653c-2.792 7.792-6.921 15.888-10.24 22.392-3.3 6.472-7.158 13.074-11.241 20.06C8.254 35.47-3.628 55.802-5.174 76.627c-.659 8.872-.982 17.477 2.253 25.231 6.57 15.743 16.609 27.262 31.596 36.25 9.947 5.965 21.907 9.083 33.349 11.563 3.322.72 6.828 1.294 10.541 1.902 13.566 2.22 28.941 4.737 37.81 15.618 8.185 10.041 4.469 23.303 1.484 33.959-6.351 22.663-17.805 44.055-28.882 64.742l-1.374 2.566c-5.072 9.483-10.772 19.204-16.286 28.602-12.518 21.345-25.462 43.413-33.512 66.46-3.822 10.946-3.141 22.331-2.482 33.342.403 6.748.82 13.727.213 20.587-1.046 11.805-5.236 22.071-9.289 32-6.437 15.773-12.518 30.672-5.938 50.165l.458 1.359c4.592 13.585 9.34 27.633 7.947 41.996-.454 4.671-2.664 9.925-5.003 15.487-4.024 9.567-8.185 19.458-3.642 27.372 1.44 2.505 3.808 4.15 6.1 5.742 2.489 1.729 4.84 3.362 6.111 6.008 2.907 6.047-.09 13.06-3.408 19.725z"/><path d="M28.18 620.476c2.887-5.391 7.25-13.538 3.94-20.028-1.332-2.609-3.785-4.13-6.159-5.601-2.233-1.383-4.541-2.814-5.84-5.14-3.917-7.02.258-17.295 4.296-27.234 2.517-6.193 4.893-12.043 5.24-16.899 1.014-14.244-2.876-28.458-6.638-42.205-.567-2.071-1.13-4.129-1.673-6.174-3.924-14.789-3.128-26.839 2.664-40.293 2.153-5.002 4.991-10.012 7.736-14.857 5.428-9.582 11.042-19.491 12.145-30.433.82-8.127-.565-16.316-1.904-24.236-1.33-7.862-2.704-15.992-1.884-23.973 2.301-22.368 16.567-46.419 29.152-67.64 4.54-7.656 8.83-14.889 12.405-21.732l2.247-4.298c11.588-22.146 23.571-45.046 31.161-69.062l.081-.258c3.467-10.967 8.215-25.986 2.401-36.745-7.307-13.523-24.968-16.044-39.159-18.07-3.08-.44-5.99-.856-8.67-1.355-11.152-2.081-24.039-4.95-35.064-10.462C18.935 125.92 8.122 114.456 1.6 98.731c-3.35-8.077-2.926-16.977-2.07-24.617C1.76 54.252 13.657 34.504 25.16 15.409 29.673 7.917 33.936.84 37.571-6.148c3.178-6.11 7.168-14.16 9.83-22.233 8.446-25.61 4.139-41.281-16.459-59.885a98 98 0 0 0-6.693-5.535C3.131-109.7-23.136-117.27-46.02-114.053l.107.756c22.687-3.191 48.744 4.326 69.703 20.105a97 97 0 0 1 6.64 5.491c20.326 18.36 24.577 33.82 16.247 59.08-2.645 8.02-6.618 16.035-9.783 22.12-3.623 6.968-7.88 14.033-12.388 21.515C12.96 34.182 1.02 54.001-1.226 74.028-2.094 81.765-2.52 90.786.896 99.022c6.595 15.902 17.527 27.494 33.42 35.44 11.11 5.555 24.062 8.44 35.265 10.53 2.697.503 5.614.919 8.703 1.36 14.021 2.002 31.471 4.493 38.596 17.678 5.66 10.474.968 25.316-2.458 36.153l-.081.257c-7.57 23.952-19.537 46.822-31.11 68.939l-2.247 4.297c-3.564 6.826-7.85 14.05-12.385 21.697-12.626 21.291-26.937 45.417-29.254 67.951-.832 8.085.552 16.267 1.89 24.179 1.33 7.869 2.707 16.007 1.897 24.031-1.087 10.783-6.66 20.621-12.05 30.134-2.755 4.863-5.603 9.891-7.772 14.932-5.865 13.624-6.672 25.823-2.7 40.79.542 2.047 1.106 4.107 1.674 6.18 3.744 13.685 7.617 27.836 6.612 41.95-.338 4.736-2.693 10.531-5.186 16.666-4.105 10.105-8.35 20.554-4.254 27.893 1.394 2.499 3.788 3.982 6.103 5.416 2.39 1.481 4.647 2.879 5.88 5.299 3.131 6.136-1.12 14.071-3.932 19.321z"/><path d="m32.804 623.309.14-.246c3.144-5.528 7.893-13.881 4.069-20.268-1.275-2.128-3.582-3.262-5.814-4.358-2.424-1.189-4.715-2.314-5.861-4.601-3.362-6.698.796-16.937 4.817-26.838 2.39-5.886 4.649-11.447 5.094-15.847 1.556-15.336-1.895-30.706-5.233-45.57-.791-3.524-1.61-7.167-2.338-10.721-3.453-16.842-1.383-30.74 6.712-45.062 2.349-4.16 5.14-8.247 8.093-12.579 7.01-10.28 14.261-20.91 15.537-32.747.959-8.887-1.47-17.508-3.82-25.845-1.514-5.374-3.08-10.931-3.724-16.504-2.538-21.996 10.811-46.166 22.59-67.491 3.003-5.438 5.84-10.576 8.269-15.423q1.785-3.564 3.58-7.131c10.498-20.889 21.355-42.49 29.603-64.737q.537-1.445 1.108-2.963c4.838-12.885 10.858-28.921 7.036-42.177-4.76-16.506-23.539-19.08-38.628-21.148-2.52-.346-4.898-.671-7.14-1.047-12.476-2.093-25.543-4.719-36.587-9.72-16.682-7.554-27.867-18.875-34.193-34.612-2.622-6.52-3.089-14.66-1.426-24.884 3.036-18.675 14.379-37.343 25.35-55.398 5.078-8.357 9.874-16.25 13.92-24.172 4.454-8.72 7.387-15.705 9.232-21.981 7.241-24.648 2.324-40.58-18.79-60.88a89 89 0 0 0-6.736-5.861c-20.93-16.43-47.815-23.726-71.916-19.518l.13.752c23.894-4.172 50.554 3.068 71.316 19.366a89 89 0 0 1 6.679 5.81c20.868 20.065 25.73 35.796 18.586 60.116-1.83 6.23-4.747 13.172-9.18 21.85-4.032 7.896-8.821 15.778-13.892 24.122C18.38 33.112 6.997 51.846 3.936 70.667 2.251 81.032 2.732 89.305 5.406 95.96c6.404 15.927 17.717 27.383 34.588 35.022 11.123 5.037 24.248 7.676 36.775 9.777 2.253.378 4.638.705 7.162 1.051 14.87 2.038 33.376 4.575 37.999 20.603 3.752 13.014-2.219 28.919-7.017 41.698q-.572 1.519-1.11 2.966c-8.233 22.207-19.08 43.789-29.57 64.66q-1.794 3.567-3.58 7.131c-2.42 4.834-5.255 9.965-8.255 15.397-11.833 21.424-25.245 45.707-22.679 67.946.65 5.634 2.224 11.221 3.747 16.623 2.33 8.268 4.74 16.817 3.796 25.557-1.256 11.648-8.45 22.199-15.408 32.399-2.964 4.346-5.754 8.435-8.128 12.634-8.191 14.494-10.288 28.554-6.795 45.59.73 3.561 1.55 7.208 2.342 10.736 3.323 14.804 6.76 30.112 5.218 45.325-.435 4.291-2.673 9.802-5.042 15.637-4.085 10.059-8.309 20.461-4.793 27.468 1.263 2.515 3.776 3.749 6.207 4.943 2.23 1.095 4.337 2.13 5.496 4.065 3.596 6.004-1.022 14.125-4.077 19.499l-.14.246z"/><path d="M38.836 623.77c5.203-9.014 6.233-14.191-1.479-21.412-1.142-1.069-2.14-1.883-3.02-2.6-3.267-2.662-4.49-3.659-3.902-10.262.531-5.972 2.912-11.489 5.434-17.331 2.632-6.099 5.354-12.406 5.826-19.34.884-12.978-1.824-26.129-4.443-38.846-3.158-15.339-6.424-31.199-3.322-46.704 2.633-13.151 11.222-24.236 19.531-34.955 8.964-11.567 17.43-22.491 19.166-35.862 1.18-9.106-2.81-17.843-6.67-26.292-2.941-6.441-5.984-13.102-6.803-19.971-1.402-11.74 3.733-23.918 8.263-34.661.521-1.236 1.036-2.456 1.534-3.66 5.722-13.821 12.31-27.546 18.68-40.818 2.451-5.11 4.986-10.393 7.437-15.607l.319-.678c9.432-20.071 19.186-40.825 25.877-62.25l.6-1.914c3.488-11.073 7.828-24.854 3.768-35.62-5.205-13.804-22.204-16.064-35.862-17.881-2.146-.285-4.173-.555-6.075-.858-30.572-4.874-63.074-13.892-72.34-43.835-7.829-25.302 9.65-53.83 25.07-79.002C41.954 4.39 47.175-4.132 50.79-11.83 67.036-46.434 63.493-69.994 38.15-95.863c-20.184-20.603-51.783-30.162-80.501-24.352l.151.748c28.472-5.76 59.797 3.715 79.805 24.138 25.076 25.596 28.578 48.916 12.493 83.174C46.5-4.495 41.29 4.01 35.775 13.012 20.27 38.323 2.695 67.008 10.627 92.639 20.015 122.98 52.77 132.09 83.575 137c1.91.305 3.943.575 6.094.862 13.457 1.789 30.205 4.017 35.249 17.394 3.967 10.519-.33 24.16-3.781 35.122l-.602 1.915c-6.675 21.376-16.418 42.106-25.84 62.154l-.317.677a2083 2083 0 0 1-7.436 15.601c-6.374 13.283-12.966 27.017-18.696 40.857-.497 1.203-1.012 2.421-1.532 3.655-4.566 10.832-9.743 23.108-8.318 35.048.833 6.988 3.901 13.704 6.867 20.198 3.99 8.736 7.76 16.987 6.606 25.877-1.707 13.166-10.113 24.012-19.011 35.492-8.362 10.787-17.008 21.942-19.676 35.273-3.133 15.657.15 31.595 3.323 47.007 2.609 12.667 5.306 25.766 4.429 38.641-.464 6.804-3.16 13.049-5.766 19.09-2.434 5.639-4.95 11.471-5.493 17.566-.623 7.006.882 8.232 4.18 10.92.87.71 1.858 1.515 2.98 2.566 7.993 7.482 6.227 12.456-.059 22.832l.652.396q.747-1.23 1.408-2.373"/></g></svg>