<svg width="352" height="595" viewBox="0 0 352 595" fill="none" xmlns="http://www.w3.org/2000/svg">
<g opacity="0.7">
<path d="M-152.509 509.75C-181.626 483.205 -178.59 433.207 -159.112 402.147C-149.181 386.313 -135.54 372.296 -122.348 358.741L-120.496 356.837C-119.424 355.735 -118.263 354.562 -117.04 353.327C-104.589 340.751 -85.7743 321.746 -89.4349 304.631C-92.2541 291.45 -109.003 284.905 -122.461 279.646C-126.334 278.133 -129.992 276.704 -133.02 275.243C-149.675 267.211 -161.327 256.265 -167.652 242.709C-174.154 228.773 -166.206 218.435 -158.521 208.437C-156.804 206.203 -155.028 203.893 -153.445 201.584C-141.525 184.192 -134.656 164.353 -132.449 140.94C-131.6 131.932 -131.093 122.76 -130.603 113.889C-129.433 92.7312 -128.224 70.8533 -122.271 49.8813C-119.719 40.8918 -116.249 31.778 -112.894 22.9642C-109.412 13.8161 -105.811 4.35685 -103.164 -5.11592C-103.124 -5.26067 -99.3167 -19.7184 -103.696 -22.6095C-105.309 -23.6742 -107.736 -22.9232 -110.908 -20.3767L-110.431 -19.7821C-107.546 -22.0974 -105.422 -22.8346 -104.116 -21.9731C-101.04 -19.9419 -102.679 -9.68744 -103.899 -5.32113C-106.536 4.11796 -110.131 13.561 -113.607 22.6927C-116.968 31.5221 -120.443 40.6513 -123.004 49.6727C-128.981 70.7266 -130.192 92.6473 -131.364 113.847C-131.854 122.71 -132.361 131.876 -133.209 140.869C-135.402 164.148 -142.226 183.864 -154.074 201.152C-155.645 203.445 -157.415 205.747 -159.126 207.972C-166.949 218.149 -175.041 228.674 -168.343 243.031C-161.942 256.752 -150.169 267.82 -133.351 275.931C-130.298 277.403 -126.626 278.838 -122.738 280.357C-109.451 285.549 -92.9139 292.012 -90.1806 304.79C-86.607 321.504 -105.247 340.331 -117.581 352.79C-118.807 354.027 -119.97 355.202 -121.043 356.305L-122.894 358.209C-136.114 371.793 -149.784 385.84 -159.758 401.742C-169.733 417.631 -175.236 437.908 -174.879 457.369C-174.483 479.023 -166.721 497.826 -153.023 510.314L-152.509 509.75Z" fill="#412BA8"/>
<path d="M-148.041 512.648C-177.01 485.565 -169.925 435.31 -148.537 401.762C-138.002 385.234 -124.438 370.059 -110.299 354.677C-108.859 353.111 -107.25 351.419 -105.547 349.628C-92.8326 336.259 -75.4194 317.95 -78.8784 301.169C-81.9754 286.145 -100.974 279.447 -119.347 272.97C-131.945 268.529 -143.845 264.334 -150.467 257.715C-155.621 252.563 -160.278 245.764 -162.619 239.97C-166.051 231.482 -163.992 221.223 -157.368 213.832C-153.674 209.71 -149.904 203.916 -146.162 196.606C-138.441 181.518 -133.662 166.055 -131.552 149.331C-130.937 144.453 -130.739 139.28 -130.618 134.416C-130.528 130.81 -130.457 127.22 -130.385 123.645C-129.924 100.331 -129.487 78.3101 -124.082 55.8597C-123.107 51.8073 -121.891 47.516 -120.469 43.105C-117.583 34.1527 -113.92 25.1693 -110.378 16.4815C-106.568 7.13531 -102.628 -2.52883 -99.6055 -12.2569C-99.5583 -12.4088 -94.9336 -27.4911 -99.2025 -30.6555C-100.681 -31.7518 -102.974 -31.2604 -106.017 -29.1951L-105.588 -28.564C-102.843 -30.4276 -100.847 -30.9248 -99.6564 -30.0428C-96.4863 -27.6931 -99.1509 -16.2916 -100.334 -12.4831C-103.346 -2.78631 -107.28 6.86265 -111.085 16.1938C-114.632 24.8944 -118.3 33.8914 -121.195 42.871C-122.623 47.3004 -123.844 51.6103 -124.824 55.6811C-130.249 78.2123 -130.685 100.273 -131.148 123.63C-131.219 127.204 -131.29 130.792 -131.38 134.398C-131.501 139.241 -131.698 144.392 -132.309 149.236C-134.407 165.87 -139.161 181.251 -146.842 196.258C-150.552 203.509 -154.285 209.249 -157.936 213.324C-164.752 220.928 -166.867 231.501 -163.327 240.257C-160.95 246.139 -156.229 253.035 -151.007 258.256C-144.261 264.996 -132.283 269.219 -119.601 273.69C-101.428 280.097 -82.6361 286.721 -79.6255 301.323C-76.2465 317.713 -93.5012 335.856 -106.1 349.103C-107.805 350.896 -109.416 352.59 -110.861 354.161C-125.024 369.569 -138.612 384.772 -149.181 401.353C-159.822 418.043 -166.597 438.704 -167.764 458.02C-168.735 474.097 -166.192 496.723 -148.563 513.205L-148.041 512.648Z" fill="#412BA8"/>
<path d="M-143.553 515.537C-173.832 486.629 -159.616 436.053 -138.245 401.555C-126.965 383.338 -112.334 365.92 -100.847 352.78C-98.9444 350.603 -96.7192 348.213 -94.3635 345.684C-82.0551 332.469 -65.197 314.369 -68.1577 297.783C-71.0092 281.812 -93.9079 274.649 -114.11 268.328C-126.743 264.376 -138.675 260.644 -144.926 255.243C-151.205 249.816 -155.169 244.173 -157.4 237.484C-160.729 227.497 -155.723 220.158 -150.422 212.387C-149.871 211.58 -149.319 210.771 -148.774 209.955C-144.586 203.685 -141.431 196.483 -139.523 191.548C-133.573 176.157 -130.24 160.375 -129.332 143.301C-129.073 138.428 -129.154 133.249 -129.259 128.362C-129.8 103.199 -129.741 76.4183 -122.712 49.9655C-121.65 45.9682 -120.326 41.6969 -118.778 37.2703C-115.722 28.5348 -111.888 19.7786 -108.18 11.3108C-104.039 1.8528 -99.7568 -7.92751 -96.4945 -17.8051C-95.2559 -21.5563 -91.5074 -34.0461 -95.2944 -37.2645C-96.6735 -38.437 -98.8458 -38.2631 -101.751 -36.7476L-101.398 -36.0716C-98.7953 -37.4292 -96.9082 -37.635 -95.7882 -36.6835C-92.2767 -33.6987 -96.3637 -20.6331 -97.219 -18.0444C-100.47 -8.20072 -104.745 1.5626 -108.879 11.0044C-112.592 19.4859 -116.432 28.2554 -119.498 37.0185C-121.052 41.4633 -122.382 45.7533 -123.449 49.7692C-130.504 76.3185 -130.564 103.161 -130.022 128.378C-129.917 133.251 -129.836 138.413 -130.094 143.26C-130.997 160.253 -134.314 175.958 -140.235 191.273C-142.129 196.172 -145.256 203.315 -149.409 209.532C-149.952 210.345 -150.503 211.152 -151.052 211.957C-156.463 219.888 -161.572 227.381 -158.123 237.725C-155.847 244.549 -151.812 250.299 -145.425 255.82C-139.055 261.324 -127.049 265.079 -114.339 269.056C-94.3426 275.312 -71.6789 282.401 -68.9087 297.917C-66.0151 314.128 -82.7227 332.066 -94.9217 345.164C-97.2819 347.698 -99.5109 350.091 -101.422 352.278C-112.927 365.439 -127.585 382.889 -138.894 401.152C-150.295 419.563 -158.289 440.507 -160.834 458.625C-164.243 482.886 -158.606 502.219 -144.08 516.088L-143.553 515.537Z" fill="#412BA8"/>
<path d="M-139.041 518.41C-171.185 488.208 -151.014 438.225 -128.432 401.619C-116.824 382.801 -104.291 365.377 -92.1891 351.232C-89.9044 348.562 -87.1589 345.624 -84.2522 342.515C-71.236 328.589 -55.0376 311.26 -57.3662 294.513C-59.7551 277.344 -85.7508 270.03 -108.687 263.577C-120.846 260.157 -132.332 256.925 -138.46 252.637C-146.179 247.236 -150.571 241.567 -151.887 235.306C-153.605 227.139 -149.091 219.833 -144.72 212.765C-143.246 210.378 -141.852 208.124 -140.693 205.842C-138.005 200.55 -135.529 193.869 -133.532 186.52C-129.359 171.159 -127.418 155.191 -127.598 137.704C-127.646 132.993 -127.928 128.14 -128.227 123.002L-128.238 122.807C-130.049 91.6185 -127.92 67.6204 -121.336 44.9961C-119.852 39.8964 -118.515 35.9138 -117.126 32.4622C-114.341 25.5374 -111.092 18.713 -107.653 11.4876C-102.569 0.805622 -97.3119 -10.2401 -93.7604 -21.4915L-93.6401 -21.871C-92.2332 -26.3109 -88.4956 -38.1042 -92.27 -42.0109C-93.5441 -43.3295 -95.5258 -43.6253 -98.1598 -42.8892L-97.9544 -42.1547C-95.6112 -42.8093 -93.8834 -42.5828 -92.8187 -41.4809C-89.3599 -37.901 -93.129 -26.0093 -94.3672 -22.1017L-94.4878 -21.7215C-98.0234 -10.5203 -103.269 0.501264 -108.342 11.1595C-111.635 18.0773 -115.04 25.2308 -117.834 32.1773C-119.232 35.6529 -120.578 39.6581 -122.069 44.7829C-128.678 67.4944 -130.816 91.5714 -129 122.851L-128.988 123.046C-128.69 128.175 -128.409 133.019 -128.361 137.711C-128.182 155.128 -130.114 171.027 -134.269 186.319C-136.252 193.619 -138.708 200.25 -141.373 205.496C-142.516 207.748 -143.902 209.99 -145.369 212.364C-149.816 219.559 -154.414 226.997 -152.633 235.463C-151.275 241.921 -146.783 247.744 -138.897 253.262C-132.663 257.625 -121.117 260.873 -108.894 264.312C-86.1828 270.701 -60.4418 277.942 -58.1221 294.618C-55.8417 311.003 -71.9037 328.187 -84.8095 341.994C-87.7219 345.11 -90.4731 348.053 -92.7685 350.736C-104.896 364.911 -117.453 382.367 -129.081 401.218C-151.807 438.061 -172.081 488.411 -139.562 518.965L-139.041 518.41Z" fill="#412BA8"/>
<path d="M-134.483 521.271C-172.917 484.438 -133.398 422.476 -120.414 402.116C-119.396 400.519 -118.376 398.915 -117.354 397.307C-107.118 381.207 -96.5345 364.559 -84.0714 350.126C-81.5792 347.24 -78.6059 344.087 -75.4587 340.75C-61.9665 326.442 -45.1762 308.636 -46.6235 291.403C-48.1813 272.867 -78.5998 265.137 -103.042 258.926C-114.472 256.022 -125.268 253.279 -131.072 249.918C-135.962 247.086 -145.065 241.815 -145.979 233.454C-146.701 226.858 -142.267 218.963 -138.354 211.997C-136.262 208.273 -134.287 204.755 -133.136 201.602C-131.126 196.089 -129.405 189.177 -128.161 181.611C-125.699 166.651 -125.059 150.608 -126.205 132.564C-126.438 128.882 -126.759 125.154 -127.099 121.207L-127.393 117.764C-129.09 97.6014 -130.074 67.706 -119.061 40.9856C-117.867 38.0878 -116.536 35.1502 -115.127 32.0396C-114.612 30.9033 -114.095 29.7624 -113.584 28.6205C-113.316 28.0198 -112.796 26.9243 -112.086 25.4264C-105.023 10.53 -83.5315 -34.8013 -90.4914 -45.3645C-91.5209 -46.9263 -93.1255 -47.6785 -95.2608 -47.5991L-95.2322 -46.8368C-93.3555 -46.9067 -92.0129 -46.2876 -91.128 -44.9446C-86.6666 -38.1733 -93.9497 -14.6075 -112.775 25.0998C-113.488 26.6046 -114.01 27.7055 -114.28 28.3086C-114.791 29.4497 -115.307 30.59 -115.821 31.7249C-117.171 34.7043 -118.566 37.7853 -119.766 40.6949C-130.842 67.5682 -129.857 97.5865 -128.153 117.828L-127.859 121.273C-127.52 125.215 -127.199 128.939 -126.966 132.612C-125.824 150.598 -126.461 166.585 -128.913 181.488C-130.151 189.007 -131.858 195.872 -133.853 201.341C-134.982 204.435 -136.943 207.927 -139.02 211.624C-142.988 218.689 -147.486 226.698 -146.738 233.537C-145.781 242.281 -136.461 247.678 -131.454 250.578C-125.559 253.991 -115.212 256.621 -103.23 259.666C-79.0229 265.817 -48.8959 273.472 -47.3839 291.466C-45.965 308.362 -62.6255 326.029 -76.0139 340.227C-79.1677 343.571 -82.1463 346.729 -84.6491 349.628C-97.1487 364.102 -107.748 380.774 -117.998 396.897C-119.02 398.505 -120.04 400.109 -121.057 401.705C-130.428 416.4 -143.53 438.552 -149.085 461.195C-155.298 486.519 -150.563 506.917 -135.011 521.821L-134.483 521.271Z" fill="#412BA8"/>
<path d="M-129.877 524.112C-163.67 490.964 -139.948 442.295 -115.501 403.592L-113.81 400.914C-102.778 383.432 -91.3705 365.354 -77.2072 349.699C-74.5594 346.772 -71.4824 343.622 -68.2245 340.286C-53.7722 325.488 -35.7864 307.072 -36.0719 288.5C-36.385 268.192 -70.137 260.477 -97.2568 254.278C-108.105 251.798 -117.475 249.657 -122.801 247.094C-128.725 244.246 -138.593 239.5 -139.452 231.97C-140.044 226.777 -136.253 219.512 -132.587 212.486C-129.848 207.238 -127.016 201.81 -126.082 197.32C-124.723 190.788 -123.774 183.722 -123.337 176.887C-122.429 162.671 -122.949 147.099 -124.974 127.884C-125.159 126.125 -125.352 124.344 -125.547 122.543C-125.878 119.495 -126.215 116.39 -126.531 113.229C-129.248 86.097 -125.688 62.6502 -114.988 37.2047C-113.331 33.2637 -111.556 29.1501 -109.839 25.1718L-109.735 24.9311C-109.305 23.9345 -108.438 22.1174 -107.341 19.8166C-100.205 4.85071 -81.2485 -34.9037 -87.6692 -47.4313C-88.7485 -49.5372 -90.4957 -50.8215 -92.8614 -51.2488L-92.9972 -50.498C-90.8474 -50.11 -89.3267 -48.9929 -88.3479 -47.0832C-82.0994 -34.8917 -100.938 4.61529 -108.03 19.4882C-109.173 21.8866 -109.999 23.6191 -110.435 24.629L-110.539 24.8695C-112.257 28.8493 -114.032 32.9648 -115.691 36.909C-126.443 62.4784 -130.02 86.0396 -127.29 113.305C-126.974 116.468 -126.636 119.576 -126.306 122.626C-126.111 124.426 -125.917 126.206 -125.732 127.964C-123.712 147.136 -123.193 162.666 -124.098 176.838C-124.533 183.638 -125.477 190.667 -126.829 197.164C-127.741 201.551 -130.548 206.931 -133.263 212.133C-136.983 219.262 -140.829 226.632 -140.21 232.057C-139.303 240.005 -129.198 244.865 -123.16 247.769C-117.728 250.381 -108.32 252.531 -97.4269 255.022C-70.5667 261.161 -37.1387 268.803 -36.8347 288.512C-36.5536 306.764 -54.4165 325.055 -68.7705 339.753C-72.0335 343.094 -75.1155 346.25 -77.7724 349.187C-91.9802 364.891 -103.406 382.997 -114.455 400.507L-116.146 403.185C-126.586 419.711 -139.262 441.485 -144.674 463.333C-150.933 488.601 -146.134 509.234 -130.411 524.657L-129.877 524.112Z" fill="#412BA8"/>
<path d="M-125.215 526.933C-140.728 511.252 -145.842 490.873 -140.416 466.362C-135.581 444.516 -123.256 422.666 -113.059 406.07C-102.158 388.329 -89.0936 367.889 -71.9567 349.828C-68.9604 346.67 -65.5389 343.324 -61.9168 339.78C-46.4354 324.637 -27.1666 305.79 -25.8804 285.855C-24.4523 263.724 -62.7303 255.76 -90.6802 249.945C-100.437 247.914 -108.864 246.161 -113.708 244.18C-120.984 241.205 -132.315 234.919 -131.746 230.719C-131.289 227.339 -129.324 222.73 -127.049 217.393C-123.819 209.815 -120.158 201.225 -119.47 193.074C-118.917 186.52 -118.738 179.365 -118.952 172.384C-119.448 156.187 -121.479 140.086 -123.695 123.643C-124.388 118.508 -124.957 113.776 -125.436 109.176C-128.451 80.243 -120.556 57.7421 -110.721 33.4025C-109.347 30.0021 -107.923 26.554 -106.492 23.0875L-105.757 21.3067C-105.166 19.8737 -104.085 17.5637 -102.718 14.6393C-95.2512 -1.33187 -79.7137 -34.565 -85.3745 -48.447C-86.4734 -51.1425 -88.3368 -52.9993 -90.9129 -53.9664L-91.1807 -53.2524C-88.8118 -52.3634 -87.0958 -50.6498 -86.0805 -48.1592C-80.5456 -34.5862 -95.9878 -1.55676 -103.409 14.3162C-104.781 17.2497 -105.864 19.567 -106.462 21.016L-107.197 22.7968C-108.629 26.2645 -110.054 29.7147 -111.429 33.1173C-121.302 57.5526 -129.228 80.1477 -126.195 109.255C-125.715 113.863 -125.144 118.602 -124.451 123.745C-122.237 140.168 -120.209 156.247 -119.714 172.407C-119.501 179.36 -119.68 186.484 -120.231 193.01C-120.908 201.04 -124.544 209.569 -127.751 217.095C-130.047 222.482 -132.03 227.134 -132.502 230.616C-133.352 236.894 -114.19 244.807 -113.996 244.886C-109.088 246.893 -100.629 248.653 -90.8352 250.691C-63.1593 256.449 -25.2557 264.336 -26.6411 285.806C-27.9078 305.448 -47.06 324.183 -62.45 339.235C-66.0775 342.784 -69.5034 346.135 -72.5102 349.304C-89.6974 367.417 -102.788 387.897 -113.709 405.671C-137.351 444.149 -160.087 492.767 -125.757 527.47L-125.215 526.933Z" fill="#412BA8"/>
<path d="M-120.489 529.735C-154.707 492.76 -134.353 446.037 -112.795 409.432C-99.1503 386.272 -84.888 367.486 -67.9103 350.309C-64.5081 346.867 -60.6428 343.242 -56.5509 339.405C-39.967 323.853 -19.3269 304.499 -16.2406 283.517C-12.6556 259.144 -55.2655 251.085 -83.4615 245.752C-92.0745 244.123 -99.5123 242.716 -103.879 241.185C-104.418 240.996 -105.046 240.79 -105.737 240.564C-111.669 238.62 -122.711 235.003 -120.331 227.241L-119.468 224.444C-115.839 212.704 -112.705 202.565 -113.194 188.889C-113.425 182.442 -113.983 175.45 -114.854 168.11C-116.126 157.385 -117.89 146.452 -119.595 135.879C-120.446 130.601 -121.326 125.143 -122.131 119.798C-122.798 115.366 -123.38 110.577 -123.862 105.563C-126.247 80.7132 -117.896 59.3531 -109.054 36.7391C-108.12 34.3497 -107.18 31.9456 -106.247 29.5224C-105.178 26.7462 -104.083 23.9493 -102.986 21.1481L-101.631 17.6823C-101.004 16.0775 -99.9418 13.6883 -98.5965 10.6634C-90.1532 -8.32555 -72.5841 -47.8379 -89.3837 -55.8768L-89.7129 -55.1887C-73.5822 -47.4698 -91.5995 -6.94932 -99.2935 10.3535C-100.643 13.3872 -101.708 15.7837 -102.341 17.4048L-103.696 20.8701C-104.793 23.6723 -105.889 26.4708 -106.959 29.2482C-107.891 31.6704 -108.831 34.0729 -109.765 36.4615C-118.641 59.1626 -127.024 80.6048 -124.621 105.635C-124.138 110.663 -123.554 115.467 -122.885 119.912C-122.08 125.261 -121.199 130.721 -120.348 136.001C-118.644 146.566 -116.882 157.491 -115.611 168.2C-114.743 175.52 -114.186 182.49 -113.956 188.917C-113.472 202.463 -116.588 212.545 -120.197 224.219L-121.06 227.018C-123.66 235.496 -112.155 239.264 -105.974 241.289C-105.289 241.513 -104.667 241.717 -104.131 241.905C-99.7106 243.455 -92.2467 244.867 -83.6038 246.502C-55.6938 251.781 -13.5169 259.757 -16.9956 283.407C-20.0431 304.122 -40.5743 323.378 -57.0731 338.849C-61.1707 342.691 -65.041 346.32 -68.4531 349.772C-85.4763 366.996 -99.7754 385.83 -113.452 409.044C-135.135 445.861 -155.609 492.909 -121.049 530.253L-120.489 529.735Z" fill="#412BA8"/>
<path d="M-115.7 532.509C-150.636 492.751 -133.33 448.042 -114.35 413.533C-102.641 392.254 -87.788 373.533 -64.6828 350.957C-61.0237 347.382 -56.8129 343.562 -52.3553 339.52C-34.4044 323.237 -12.065 302.974 -7.32642 281.276C-6.13396 275.814 -7.03646 270.808 -10.0096 266.397C-20.2573 251.19 -53.4999 245.49 -75.4976 241.718C-83.0008 240.431 -89.4807 239.32 -93.4251 238.129C-101.307 235.748 -109.686 232.423 -109.329 223.065C-109.156 218.544 -108.523 214.01 -107.91 209.624C-106.801 201.687 -105.655 193.48 -107.106 184.773C-108.431 176.825 -109.656 170.046 -110.851 164.047C-111.662 159.978 -112.5 155.901 -113.34 151.82C-115.738 140.16 -118.218 128.102 -120.006 116.285C-120.633 112.148 -121.132 107.581 -121.534 102.322C-123.14 81.3093 -114.804 59.8789 -106.742 39.1535C-104.903 34.4258 -103.166 29.9604 -101.551 25.5099C-100.787 23.4048 -100.012 21.294 -99.2383 19.1866C-98.6024 17.4552 -97.9674 15.7248 -97.3394 14.001C-96.647 12.1001 -95.5634 9.48225 -94.3088 6.4512C-86.5565 -12.2763 -72.1263 -47.1356 -88.1825 -57.0734L-88.5838 -56.4244C-73.0793 -46.8282 -87.3478 -12.3587 -95.0134 6.1598C-96.2713 9.19902 -97.3581 11.8238 -98.0563 13.7403C-98.6839 15.4633 -99.3186 17.1927 -99.9542 18.9241C-100.728 21.0328 -101.504 23.1441 -102.268 25.2504C-103.88 29.6925 -105.615 34.1542 -107.453 38.8774C-115.545 59.6822 -123.914 81.195 -122.294 102.381C-121.891 107.658 -121.389 112.244 -120.76 116.4C-118.969 128.237 -116.487 140.304 -114.086 151.974C-113.247 156.053 -112.409 160.129 -111.599 164.196C-110.405 170.187 -109.181 176.959 -107.858 184.898C-106.426 193.49 -107.564 201.639 -108.665 209.519C-109.28 213.922 -109.916 218.476 -110.09 223.037C-110.5 233.767 -99.5353 237.079 -93.6448 238.86C-89.6553 240.064 -83.1537 241.179 -75.6261 242.47C-53.7563 246.22 -20.7069 251.887 -10.6411 266.823C-7.78965 271.055 -6.92508 275.863 -8.0714 281.114C-12.7548 302.572 -34.9965 322.746 -52.8668 338.955C-57.3301 343.003 -61.5457 346.826 -65.2151 350.412C-88.3771 373.043 -103.265 391.808 -115.018 413.166C-127.916 436.617 -134.633 455.874 -136.157 473.769C-138.07 496.23 -131.566 515.609 -116.272 533.013L-115.7 532.509Z" fill="#412BA8"/>
<path d="M-110.977 535.315C-120.424 522.857 -131.628 506.121 -134.439 487.127C-138.022 462.92 -128.319 439.697 -117.299 418.209C-103.383 391.074 -81.3537 370.109 -61.9161 351.61C-57.989 347.873 -53.673 343.99 -49.1035 339.88C-29.3081 322.073 -6.87501 301.891 0.572685 279.073C2.3843 273.52 1.93376 268.416 -0.764665 263.903C-9.86005 248.695 -42.7568 242.795 -64.5257 238.891C-72.2861 237.499 -78.9883 236.296 -82.4427 235.038C-86.6215 233.516 -96.6182 228.872 -99.1819 218.663C-100.807 212.192 -100.589 204.961 -100.379 197.968C-100.194 191.82 -100.019 186.012 -101.009 180.742C-101.787 176.603 -103.19 171.989 -104.547 167.528C-105.291 165.083 -106.06 162.554 -106.712 160.148C-110.779 145.131 -114.843 129.028 -117.019 113.017C-117.358 110.526 -117.531 107.835 -117.697 105.232C-117.823 103.263 -117.954 101.227 -118.155 99.3476C-119.02 91.2403 -115.613 80.6369 -112.606 71.2816C-111.855 68.9436 -111.146 66.7355 -110.535 64.6642C-106.205 49.9792 -101.292 35.1536 -96.6282 21.3197C-96.1477 19.8945 -95.6639 18.4705 -95.1815 17.0503C-94.4033 14.7578 -93.6279 12.475 -92.8746 10.2145C-92.1361 7.99917 -91.1744 5.4069 -90.061 2.40514C-83.4417 -15.4364 -72.3635 -45.2973 -87.2579 -57.6581L-87.7446 -57.0714C-73.2668 -45.0557 -84.2273 -15.5117 -90.776 2.13985C-91.8918 5.14796 -92.8557 7.74573 -93.5977 9.97333C-94.3508 12.2326 -95.1257 14.514 -95.9036 16.8049C-96.3864 18.2258 -96.87 19.6503 -97.3508 21.076C-102.017 34.9173 -106.933 49.7511 -111.266 64.4484C-111.874 66.511 -112.582 68.715 -113.332 71.0486C-116.362 80.4759 -119.795 91.1609 -118.912 99.4286C-118.714 101.292 -118.59 103.229 -118.459 105.28C-118.291 107.897 -118.118 110.602 -117.776 113.12C-115.593 129.174 -111.522 145.307 -107.448 160.348C-106.794 162.764 -106.023 165.299 -105.277 167.75C-103.926 172.192 -102.529 176.785 -101.759 180.883C-100.784 186.072 -100.957 191.839 -101.141 197.945C-101.353 204.991 -101.573 212.275 -99.9213 218.849C-97.2691 229.412 -86.9971 234.191 -82.7035 235.755C-79.1878 237.036 -72.7772 238.186 -64.6604 239.641C-43.0279 243.522 -10.3369 249.386 -1.42017 264.295C1.16094 268.61 1.58744 273.503 -0.152953 278.836C-7.5351 301.464 -29.8906 321.571 -49.614 339.313C-54.1874 343.427 -58.5072 347.313 -62.4419 351.058C-81.9242 369.598 -104.007 390.618 -117.978 417.86C-129.056 439.462 -138.809 462.819 -135.194 487.238C-132.357 506.405 -121.087 523.245 -111.585 535.776L-110.977 535.315Z" fill="#412BA8"/>
<path d="M-106.337 538.138C-116.798 523.271 -127.39 507.353 -131.915 490.597C-138.735 465.341 -129.743 441.343 -121.148 423.258C-109.247 398.215 -88.1615 378.785 -67.7692 359.99C-64.9206 357.365 -62.0823 354.749 -59.2801 352.128C-55.2359 348.346 -50.926 344.486 -46.3639 340.399C-25.6917 321.883 -2.26225 300.896 7.46043 277.047C10.1514 270.448 10.1377 264.55 7.42102 259.517C-0.0564508 245.666 -26.1217 240.556 -47.0655 236.45C-56.7439 234.551 -65.1028 232.913 -69.6052 230.761C-77.6434 226.918 -85.8317 222.472 -89.8981 214.195C-94.06 205.72 -95.3148 195.522 -96.5278 185.66C-96.9299 182.39 -97.3096 179.302 -97.7913 176.273C-98.9569 168.935 -100.019 162.808 -102.164 156.34C-107.986 138.779 -111.377 124.017 -112.835 109.885C-112.898 109.28 -112.966 108.677 -113.034 108.074C-113.44 104.472 -113.861 100.747 -113.001 96.5138C-107.688 70.3644 -100.11 44.9943 -91.4774 16.916L-90.7434 14.5342C-89.8847 11.7493 -89.0335 8.98959 -88.2299 6.28122C-87.6525 4.3353 -86.9481 2.13397 -86.2024 -0.196353C-80.4946 -18.0355 -71.8684 -44.9936 -86.6035 -57.7725L-87.103 -57.1964C-72.7483 -44.7471 -81.282 -18.077 -86.9288 -0.429266C-87.6756 1.90569 -88.3811 4.1108 -88.961 6.06408C-89.7639 8.77001 -90.6144 11.5271 -91.4723 14.3093L-92.2063 16.692C-100.845 44.7896 -108.429 70.1787 -113.748 96.3617C-114.632 100.713 -114.205 104.499 -113.792 108.16C-113.724 108.76 -113.656 109.36 -113.594 109.963C-112.13 124.152 -108.728 138.965 -102.888 156.58C-100.761 162.993 -99.7048 169.089 -98.5445 176.392C-98.0649 179.408 -97.6859 182.49 -97.2848 185.753C-96.064 195.678 -94.8016 205.941 -90.5823 214.531C-86.4088 223.029 -78.0929 227.548 -69.9335 231.448C-65.3443 233.643 -56.9414 235.291 -47.2117 237.198C-26.4259 241.274 -0.556833 246.346 6.74951 259.88C9.3533 264.703 9.35474 270.382 6.75445 276.76C-2.90211 300.445 -26.2625 321.37 -46.8725 339.831C-51.4382 343.921 -55.7505 347.783 -59.8012 351.571C-62.6021 354.191 -65.4387 356.805 -68.2859 359.429C-88.7328 378.275 -109.874 397.758 -121.837 422.93C-130.489 441.134 -139.536 465.299 -132.651 490.796C-128.094 507.672 -117.461 523.654 -106.96 538.577L-106.337 538.138Z" fill="#412BA8"/>
<path d="M-101.692 540.965L-103.252 538.622C-112.436 524.838 -122.845 509.215 -129.152 493.966C-137.46 473.883 -136.247 453.068 -125.337 428.46C-114.427 403.853 -92.305 384.287 -70.9116 365.363C-65.8618 360.897 -61.0916 356.677 -56.4689 352.394C-52.4205 348.643 -48.2389 344.89 -43.8113 340.917C-22.5637 321.85 1.52791 300.238 13.4412 275.168C16.8267 268.05 17.1662 261.625 14.4506 256.073C7.15713 241.16 -20.5413 235.048 -40.7647 230.585C-47.6822 229.059 -53.6559 227.741 -57.6714 226.331C-64.866 223.805 -74.8359 218.877 -81.4746 209.746C-88.1788 200.525 -91.022 188.654 -93.7718 177.175C-94.2152 175.324 -94.653 173.497 -95.101 171.709C-95.4341 170.381 -95.771 169.05 -96.1074 167.719C-97.4415 162.444 -98.8206 156.99 -99.9315 151.844C-103.274 136.362 -106.337 121.263 -107.088 106.757C-107.301 102.632 -106.497 98.0373 -105.566 92.7168L-105.547 92.6067C-101.066 66.9965 -94.0711 41.4145 -87.306 16.6748L-85.8772 11.4462C-84.9965 8.22412 -84.1648 5.18061 -83.4042 2.1669C-83.0561 0.788728 -82.6803 -0.651166 -82.2914 -2.14247C-77.6847 -19.8007 -71.3763 -43.985 -86.1307 -57.4954L-86.6456 -56.9326C-72.2301 -43.7329 -78.4718 -19.8058 -83.0292 -2.33506C-83.4189 -0.842009 -83.795 0.60034 -84.1434 1.97986C-84.9025 4.98631 -85.7335 8.02629 -86.6132 11.2451L-88.0419 16.4735C-94.8115 41.2299 -101.812 66.8297 -106.299 92.475L-106.318 92.5851C-107.257 97.9514 -108.067 102.586 -107.849 106.796C-107.095 121.359 -104.027 136.491 -100.678 152.005C-99.5634 157.164 -98.1824 162.625 -96.8473 167.906C-96.5108 169.236 -96.1741 170.567 -95.8413 171.895C-95.3939 173.679 -94.9567 175.504 -94.5137 177.353C-91.7466 188.905 -88.885 200.85 -82.0918 210.195C-75.3379 219.484 -65.2213 224.489 -57.9246 227.051C-53.8655 228.476 -47.8708 229.799 -40.9292 231.33C-20.8572 235.76 6.63312 241.825 13.7648 256.408C16.3732 261.742 16.0327 267.943 12.7524 274.842C0.890707 299.766 -23.1272 321.33 -44.3214 340.35C-48.7509 344.325 -52.9348 348.079 -56.9874 351.835C-61.6036 356.112 -66.3705 360.328 -71.4171 364.792C-92.8718 383.769 -115.06 403.394 -126.034 428.151C-136.884 452.623 -138.135 474.246 -129.858 494.258C-123.522 509.576 -113.09 525.232 -103.888 539.045L-102.327 541.389L-101.692 540.965Z" fill="#412BA8"/>
<path d="M-97.0411 543.799C-99.8624 539.238 -102.815 534.665 -105.671 530.243C-125.551 499.454 -144.33 470.372 -129.235 433.561C-119.122 408.888 -94.176 387.641 -72.1681 368.895C-65.4003 363.13 -59.0084 357.686 -53.2059 352.309C-49.4902 348.866 -45.7159 345.443 -41.7195 341.82C-19.756 321.904 5.12536 299.334 18.6048 273.406C22.6465 265.624 23.3233 258.63 20.6156 252.621C13.9563 237.844 -11.9551 231.366 -30.8751 226.636C-37.3566 225.016 -42.9541 223.616 -46.983 222.128C-55.0262 219.157 -66.5658 214.194 -73.8851 205.424C-83.0345 194.465 -88.1063 180.548 -92.5174 167.234C-95.1072 159.415 -96.9455 152.871 -98.1379 147.226C-101.16 132.92 -100.357 120.288 -99.4263 105.662L-99.2804 103.352C-98.9759 98.5165 -98.2136 92.8673 -97.5075 87.9786C-94.2704 65.5552 -88.9495 43.0774 -83.804 21.3395C-82.7016 16.6818 -81.5998 12.0263 -80.5171 7.37132L-80.4665 7.15327C-79.7103 3.90232 -78.9959 0.831072 -78.4018 -2.15367L-78.3517 -2.40592C-74.919 -19.665 -70.2172 -43.3022 -85.8066 -56.945L-86.3092 -56.3707C-71.0515 -43.0185 -75.7033 -19.631 -79.1 -2.55438L-79.1502 -2.30264C-79.7417 0.670214 -80.4548 3.73539 -81.2095 6.98078L-81.2605 7.19864C-82.3426 11.8527 -83.4444 16.5072 -84.5465 21.1638C-89.6959 42.918 -95.0203 65.4127 -98.2627 87.8696C-98.9706 92.7731 -99.736 98.4417 -100.042 103.304L-100.188 105.614C-101.121 120.296 -101.928 132.975 -98.8844 147.383C-97.6864 153.056 -95.8404 159.628 -93.2417 167.473C-88.8078 180.858 -83.7058 194.851 -74.4711 205.913C-67.0344 214.822 -55.3723 219.842 -47.2477 222.844C-43.1795 224.346 -37.5636 225.751 -31.0601 227.376C-12.2916 232.069 13.4132 238.494 19.9197 252.934C22.5275 258.72 21.8571 265.489 17.9271 273.055C4.52806 298.863 -20.3154 321.382 -42.2319 341.254C-46.2296 344.879 -50.0058 348.303 -53.7243 351.749C-59.5151 357.115 -65.9018 362.555 -72.663 368.314C-94.7361 387.116 -119.752 408.423 -129.942 433.272C-145.186 470.451 -126.303 499.695 -106.312 530.656C-103.458 535.076 -100.507 539.646 -97.6891 544.201L-97.0411 543.799Z" fill="#412BA8"/>
<path d="M-92.3858 546.637C-101.822 530.132 -110.558 515.233 -121.932 500.022C-137.915 478.65 -141.069 459.614 -132.156 438.296C-121.734 413.362 -95.3911 391.233 -72.1493 371.705C-63.9135 364.786 -56.1347 358.25 -49.2384 351.799C-45.9957 348.765 -42.6696 345.698 -39.3006 342.59C-16.8929 321.923 8.5049 298.482 23.0268 271.746C27.7131 263.112 28.6766 255.425 25.8918 248.897C19.622 234.199 -3.89638 227.766 -22.7936 222.596C-28.3286 221.082 -33.5565 219.651 -37.5755 218.193C-46.9029 214.809 -58.6931 209.826 -67.1409 201.266C-78.75 189.502 -85.4533 174.589 -89.9957 162.91C-92.8414 155.593 -94.9209 148.628 -96.0086 142.769C-98.7788 127.848 -97.5017 115.484 -91.4529 98.6706C-90.1689 95.1008 -89.7451 90.7957 -89.2963 86.2384C-89.1797 85.0531 -89.0603 83.843 -88.9236 82.6139C-86.7603 63.1904 -82.877 43.661 -79.1215 24.7748C-77.6513 17.3802 -76.131 9.73433 -74.7366 2.20695C-74.1095 -1.17536 -73.6012 -3.97853 -73.2336 -6.69752C-70.7681 -24.931 -70.5559 -43.5486 -85.5664 -56.2116L-86.0583 -55.6285C-71.3291 -43.2028 -71.5531 -24.8172 -73.9889 -6.79983C-74.3543 -4.09847 -74.8611 -1.30437 -75.4859 2.06757C-76.8795 9.5897 -78.3994 17.2333 -79.8695 24.6255C-83.628 43.5273 -87.5143 63.0731 -89.6814 82.5291C-89.8188 83.7614 -89.9381 84.9744 -90.055 86.163C-90.4991 90.6724 -90.9185 94.9313 -92.1707 98.412C-98.2695 115.365 -99.5558 127.84 -96.7579 142.908C-95.6619 148.813 -93.5693 155.826 -90.7065 163.186C-86.1371 174.933 -79.3908 189.938 -67.6838 201.801C-59.1287 210.47 -47.2384 215.498 -37.8353 218.91C-33.7877 220.378 -28.5449 221.813 -22.9947 223.331C-4.25595 228.457 19.0652 234.837 25.1904 249.195C27.8794 255.499 26.9258 262.963 22.3565 271.381C7.90229 298.008 -17.4533 321.403 -39.8176 342.029C-43.1884 345.138 -46.5151 348.207 -49.7593 351.241C-56.6402 357.679 -64.4118 364.208 -72.6397 371.121C-95.947 390.702 -122.364 412.898 -132.86 438.001C-141.888 459.597 -138.706 478.866 -122.543 500.479C-111.195 515.655 -102.471 530.533 -93.0477 547.015L-92.3858 546.637Z" fill="#412BA8"/>
<path d="M-87.7283 549.48C-88.4578 548.08 -89.1772 546.692 -89.891 545.315C-97.7231 530.206 -105.121 515.934 -117.023 502.524C-132.158 485.471 -144.61 466.38 -133.336 442.36C-121.679 417.527 -95.9611 395.616 -71.0914 374.432C-61.514 366.274 -52.4678 358.568 -44.3419 350.81C-41.8375 348.419 -39.293 346.008 -36.7232 343.574C-14.0744 322.114 11.5898 297.793 26.7726 270.18C31.9262 260.802 33.0941 252.514 30.244 245.545C24.2693 230.939 1.86502 224.212 -16.1374 218.806C-20.9731 217.353 -25.5408 215.982 -29.4101 214.577C-43.0174 209.634 -53.1233 204.156 -61.2144 197.336C-74.7797 185.902 -82.985 170.065 -87.4798 158.792C-90.8022 150.46 -92.7042 144.012 -93.4655 138.5C-95.7965 121.621 -90.75 108.115 -84.9065 92.4759C-84.4453 91.2421 -83.9388 90.0481 -83.4023 88.7838C-81.8328 85.086 -80.2102 81.2623 -79.8508 76.5195C-78.5814 59.7581 -75.8709 42.8573 -73.2498 26.5123C-71.6882 16.7748 -70.0736 6.70533 -68.7818 -3.22029C-68.3847 -6.27213 -68.0453 -9.00017 -67.911 -11.4769C-66.8196 -31.5879 -72.2034 -45.136 -85.368 -55.4056L-85.8373 -54.8044C-72.8898 -44.7042 -67.5961 -31.3541 -68.6725 -11.5182C-68.8055 -9.06757 -69.1433 -6.35517 -69.5386 -3.31902C-70.8284 6.59604 -72.4424 16.6595 -74.003 26.3918C-76.6268 42.7516 -79.3396 59.6687 -80.6116 76.4621C-80.9611 81.0798 -82.5588 84.8447 -84.1041 88.4856C-84.6206 89.702 -85.1538 90.9594 -85.621 92.2087C-91.5005 107.944 -96.5781 121.534 -94.2206 138.604C-93.451 144.179 -91.5341 150.683 -88.1882 159.074C-83.6612 170.428 -75.3917 186.383 -61.7058 197.919C-53.5441 204.798 -43.3644 210.319 -29.6704 215.293C-25.7805 216.706 -21.2029 218.081 -16.3563 219.536C1.49056 224.895 23.7018 231.565 29.538 245.834C32.2971 252.579 31.1416 260.647 26.104 269.813C10.9969 297.305 -14.6393 321.599 -37.2478 343.02C-39.818 345.454 -42.363 347.867 -44.8679 350.258C-52.9792 358.001 -62.017 365.7 -71.5854 373.851C-96.5175 395.088 -122.3 417.047 -134.026 442.036C-139.06 452.761 -139.78 463.182 -136.226 473.892C-133.282 482.765 -127.361 492.024 -117.594 503.03C-105.754 516.369 -98.378 530.6 -90.5672 545.666C-89.8536 547.043 -89.1338 548.431 -88.4046 549.832L-87.7283 549.48Z" fill="#412BA8"/>
<path d="M-83.0707 552.322C-91.3638 534.852 -98.526 519.763 -111.823 505.029C-128.403 486.655 -144.064 469.3 -131.56 445.19C-118.555 420.113 -93.0255 397.933 -68.3319 376.472C-57.5906 367.137 -47.4452 358.319 -38.3163 349.311L-34.0703 345.127C-11.3281 322.733 14.4483 297.354 29.8944 268.713C35.3117 258.669 36.5466 249.82 33.5646 242.414C27.5398 227.448 5.22596 220.284 -12.7036 214.527C-16.1527 213.419 -19.4104 212.373 -22.4568 211.312C-36.3034 206.486 -47.6043 200.562 -56.0458 193.704C-68.4096 183.658 -78.662 169.875 -84.9141 154.894C-87.1814 149.461 -89.9774 141.502 -90.4221 134.435C-91.3365 119.902 -86.237 106.966 -80.8384 93.2693C-79.8886 90.8594 -78.9063 88.3678 -77.9586 85.8681C-76.862 82.9762 -75.7737 79.8681 -74.7211 76.862C-73.818 74.2833 -72.8844 71.6167 -71.9389 69.0651C-68.913 60.899 -68.3429 50.8595 -67.7915 41.1502C-67.5351 36.6348 -67.2931 32.3701 -66.818 28.3234C-66.412 24.8703 -65.9751 21.4165 -65.5379 17.9624C-64.4246 9.1641 -63.273 0.0666775 -62.6842 -8.89838C-62.4896 -11.8604 -62.4603 -14.6409 -62.4553 -16.4751C-62.4139 -31.7326 -69.6297 -43.8563 -85.1633 -54.629L-85.598 -54.0028C-70.2889 -43.3854 -63.1775 -31.4611 -63.218 -16.4767C-63.2231 -14.6532 -63.2518 -11.8887 -63.445 -8.94789C-64.0328 -0.00627333 -65.1825 9.07992 -66.2946 17.8668C-66.7322 21.3233 -67.1696 24.7794 -67.5754 28.2346C-68.0532 32.3038 -68.296 36.5802 -68.553 41.1071C-69.1012 50.7601 -69.6678 60.7415 -72.6541 68.8001C-73.6018 71.3584 -74.5369 74.0283 -75.4412 76.6096C-76.4921 79.6114 -77.5787 82.7149 -78.6717 85.5973C-79.6177 88.0924 -80.5989 90.582 -81.548 92.9893C-86.9785 106.767 -92.1082 119.78 -91.1834 134.483C-90.7321 141.655 -87.9076 149.701 -85.6177 155.187C-79.3182 170.283 -68.9867 184.172 -56.5267 194.295C-48.0164 201.21 -36.6383 207.177 -22.7076 212.032C-19.6527 213.096 -16.3904 214.144 -12.9369 215.253C4.84044 220.961 26.9656 228.065 32.8566 242.698C35.791 249.986 34.6016 258.377 29.2225 268.351C13.8338 296.908 -11.9019 322.228 -34.6055 344.583L-38.8524 348.767C-47.964 357.759 -58.1008 366.569 -68.8319 375.896C-93.5803 397.405 -119.171 419.644 -132.237 444.839C-144.984 469.418 -129.151 486.963 -112.389 505.539C-99.1671 520.191 -92.0266 535.233 -83.7597 552.649L-83.0707 552.322Z" fill="#412BA8"/>
<path d="M-78.4129 555.166C-85.7051 538.144 -92.851 522.82 -106.483 507.652L-107.186 506.87C-124.721 487.369 -139.865 470.527 -126.579 446.729C-112.732 421.885 -88.3788 400.139 -64.8352 379.085C-53.2674 368.741 -41.3058 358.044 -30.9906 347.291C-28.9804 345.196 -26.9398 343.081 -24.8805 340.947C-3.85143 319.16 19.9782 294.466 32.439 267.343C37.4283 256.479 38.2544 247.402 34.9635 239.592C28.6458 224.598 8.23472 217.317 -11.504 210.275C-13.2313 209.659 -14.9511 209.045 -16.6533 208.429C-31.2602 203.143 -42.6953 197.24 -51.6118 190.384C-65.4246 179.763 -76.2951 165.865 -82.2218 151.249C-84.948 144.524 -86.654 136.788 -86.7852 130.554C-87.0609 117.461 -81.2791 103.961 -75.688 90.9059C-73.9119 86.7584 -72.2342 82.8412 -70.7757 78.9944C-69.5919 75.8716 -68.4198 72.5364 -67.2865 69.3115C-66.3265 66.5798 -65.3339 63.7554 -64.3337 61.0571C-56.9827 41.2299 -56.2131 12.8794 -56.4769 -14.804C-56.4974 -16.9316 -56.6322 -19.1918 -56.8898 -21.7145C-58.6071 -38.5232 -73.1878 -47.0958 -84.9037 -53.9843L-85.2902 -53.3268C-73.7227 -46.5256 -59.3266 -38.0614 -57.6482 -21.6374C-57.3934 -19.1379 -57.2595 -16.9006 -57.2393 -14.7973C-56.9764 12.8133 -57.7405 41.0806 -65.0487 60.7918C-66.051 63.496 -67.045 66.3236 -68.0059 69.0584C-69.1377 72.2792 -70.3082 75.61 -71.4888 78.7234C-72.9415 82.5557 -74.6162 86.4658 -76.3891 90.6052C-82.0121 103.735 -87.8269 117.312 -87.5481 130.57C-87.4146 136.892 -85.6879 144.729 -82.9285 151.535C-76.9518 166.275 -65.9951 180.287 -52.077 190.989C-43.0973 197.893 -31.5948 203.833 -16.9127 209.146C-15.2095 209.763 -13.4887 210.376 -11.7606 210.993C7.82288 217.98 28.0733 225.204 34.2605 239.888C37.4636 247.489 36.6409 256.366 31.7449 267.025C19.345 294.035 -4.44387 318.675 -25.4292 340.417C-27.4898 342.552 -29.5305 344.667 -31.5414 346.763C-41.8366 357.495 -53.787 368.181 -65.3443 378.516C-88.9343 399.611 -113.348 421.446 -127.246 446.357C-140.797 470.632 -124.747 488.482 -107.754 507.381L-107.052 508.162C-93.4967 523.243 -86.3796 538.508 -79.115 555.466L-78.4129 555.166Z" fill="#412BA8"/>
<path d="M-73.7567 558.01C-80.8498 539.544 -87.8769 525.137 -100.974 510.391C-118.085 491.127 -134.248 472.93 -117.926 446.766C-103.129 423.045 -80.9379 402.135 -59.4781 381.914C-46.769 369.939 -33.6276 357.556 -22.2181 344.761C-1.81385 321.882 20.8706 294.647 34.4098 266.139C39.3379 255.763 40.2103 246.456 37.004 238.478C30.3954 222.033 7.47815 213.322 -10.9365 206.323L-11.9483 205.938C-27.0967 200.176 -38.8403 194.114 -47.8494 187.405C-62.837 176.244 -74.014 162.199 -79.3214 147.86C-81.8575 141.007 -83.0562 132.97 -82.4496 126.883C-81.1264 113.599 -75.2897 100.014 -69.6455 86.875C-67.4245 81.7045 -65.3262 76.8212 -63.5066 71.987C-61.5625 66.8231 -59.0337 59.9994 -56.7131 53.008C-47.9588 26.6307 -48.3394 -1.74757 -50.2007 -20.9092C-50.413 -23.0986 -50.8321 -25.1986 -51.2432 -27.1622C-53.9348 -40.0244 -68.2642 -46.3506 -79.778 -51.4342C-81.4582 -52.1759 -83.0448 -52.8764 -84.5428 -53.5733L-84.8647 -52.882C-83.3595 -52.182 -81.7696 -51.4799 -80.0862 -50.7367C-68.7319 -45.7239 -54.6009 -39.4851 -51.9898 -27.0058C-51.5831 -25.0633 -51.1688 -22.9865 -50.9598 -20.8358C-49.1057 -1.74716 -48.7245 26.5169 -57.437 52.7676C-59.7532 59.746 -62.2788 66.5608 -64.22 71.7181C-66.0336 76.5354 -68.1285 81.4113 -70.3459 86.5735C-76.013 99.765 -81.8732 113.406 -83.2082 126.808C-83.8253 133.002 -82.6099 141.17 -80.0363 148.124C-74.6783 162.6 -63.409 176.768 -48.3045 188.017C-39.2379 194.769 -27.4343 200.864 -12.2192 206.651L-11.2071 207.035C7.06863 213.982 29.8127 222.627 36.2967 238.762C39.4647 246.645 38.6222 255.493 33.7217 265.811C20.2186 294.233 -2.4193 321.414 -22.7866 344.253C-34.1738 357.023 -47.3036 369.395 -60.0001 381.358C-81.4965 401.613 -103.724 422.558 -118.573 446.362C-135.193 472.99 -118.85 491.413 -101.544 510.898C-88.5236 525.557 -81.531 539.897 -74.4683 558.283L-73.7567 558.01Z" fill="#412BA8"/>
<path d="M-69.1022 560.854C-74.936 543.579 -81.6389 528.866 -95.3881 513.212C-114.55 491.395 -126.684 473.84 -108.017 446.583C-93.5247 425.403 -74.1026 406.328 -55.3194 387.881C-40.3711 373.2 -24.9145 358.019 -11.8784 341.754C9.91567 314.56 25.9893 288.751 35.8996 265.051C40.4494 254.169 40.9575 244.802 37.4525 236.414C30.8916 220.714 11.2668 211.713 -8.27168 203.839C-19.1004 199.475 -33.0256 193.364 -44.689 184.776C-55.9208 176.506 -70.4912 162.843 -76.1204 144.718C-77.9118 138.95 -78.9728 130.114 -77.3054 123.377C-73.8683 109.489 -68.2908 95.4876 -62.8971 81.9474C-60.6754 76.3706 -58.3783 70.6033 -56.2828 64.9691C-54.0902 59.0724 -51.5341 52.0948 -49.2002 45.0541C-41.1789 20.8572 -39.3468 -4.11811 -43.9022 -27.1711C-44.2892 -29.1315 -44.8459 -31.0312 -45.5566 -32.8176C-50.0523 -44.1145 -63.5409 -47.7657 -75.4413 -50.9871C-78.5287 -51.8226 -81.4445 -52.6117 -84.0294 -53.4946L-84.276 -52.7726C-81.6676 -51.882 -78.7402 -51.0898 -75.6408 -50.2506C-63.9127 -47.0763 -50.6199 -43.478 -46.2656 -32.5357C-45.572 -30.7925 -45.0286 -28.9376 -44.6507 -27.0233C-40.1207 -4.09905 -41.9444 20.742 -49.9244 44.8144C-52.2544 51.8437 -54.8079 58.8128 -56.9983 64.7035C-59.0903 70.3298 -61.3858 76.0924 -63.6057 81.6651C-69.0089 95.2296 -74.5962 109.256 -78.046 123.194C-79.5434 129.244 -79.0734 137.782 -76.8488 144.945C-71.158 163.268 -56.4651 177.053 -45.1417 185.39C-33.4087 194.029 -19.4272 200.166 -8.55709 204.546C10.8322 212.36 30.3017 221.28 36.7486 236.708C40.1713 244.898 39.6631 254.073 35.1959 264.756C25.3134 288.392 9.27469 314.137 -12.4731 341.276C-25.4815 357.507 -40.9219 372.672 -55.854 387.337C-74.6631 405.809 -94.1127 424.912 -108.647 446.152C-127.607 473.854 -115.353 491.638 -95.961 513.716C-82.2957 529.275 -75.6293 543.91 -69.8244 561.098L-69.1022 560.854Z" fill="#412BA8"/>
<path d="M-64.4509 563.699C-70.273 543.727 -77.3532 530.385 -89.7034 516.113C-90.8973 514.734 -92.1212 513.359 -93.3515 511.978C-99.8227 504.714 -106.514 497.201 -109.6 487.869C-114.744 472.312 -107.421 460.069 -98.0714 446.807C-84.0209 426.88 -65.7936 408.784 -48.1663 391.284C-31.3675 374.606 -13.9974 357.361 -0.290271 338.573C17.3163 314.442 29.0604 285.986 37.3277 263.89C43.1828 248.24 41.1276 235.331 31.044 224.426C22.1859 214.846 8.22368 208.045 -5.54497 202.122C-17.3788 197.032 -30.9708 190.719 -42.0531 182.494C-53.7023 173.849 -68.4441 159.772 -72.5179 141.806C-73.9748 135.383 -73.4655 126.416 -71.2797 120.002C-65.1203 101.926 -57.9043 81.6614 -49.2204 58.0509C-46.9406 51.8526 -44.2866 44.5386 -41.8892 37.2864C-32.6547 9.35329 -31.3022 -13.1515 -37.6336 -33.5366C-38.2142 -35.4053 -38.9644 -37.1153 -39.8635 -38.6184C-45.8698 -48.6584 -61.0641 -50.669 -73.2728 -52.2845C-76.9287 -52.7683 -80.3816 -53.2255 -83.3165 -53.8484L-83.4748 -53.102C-80.5113 -52.473 -77.0436 -52.0143 -73.3731 -51.5284C-61.3268 -49.9344 -46.3351 -47.9504 -40.518 -38.2265C-39.6619 -36.796 -38.9165 -35.0961 -38.3618 -33.3103C-32.0801 -13.0845 -33.4312 9.27226 -42.6135 37.047C-45.0072 44.2886 -47.6583 51.5953 -49.9358 57.7874C-58.6221 81.4037 -65.8398 101.674 -72.0018 119.756C-74.2284 126.291 -74.7465 135.428 -73.2618 141.975C-69.1361 160.169 -54.2601 174.385 -42.5072 183.107C-31.3618 191.378 -17.7205 197.715 -5.84615 202.823C7.84515 208.712 21.7227 215.468 30.4839 224.943C40.3533 235.617 42.358 248.269 36.6141 263.623C28.3646 285.673 16.6449 314.068 -0.905911 338.124C-14.577 356.863 -31.9253 374.086 -48.7028 390.743C-66.3541 408.266 -84.6055 426.386 -98.6945 446.368C-108.164 459.801 -115.579 472.215 -110.324 488.108C-107.189 497.591 -100.443 505.163 -93.92 512.486C-92.6925 513.864 -91.4711 515.236 -90.2799 516.612C-78.0078 530.793 -70.9712 544.055 -65.1825 563.912L-64.4509 563.699Z" fill="#412BA8"/>
<path d="M-59.8036 566.541C-64.5433 547.252 -71.3113 533.944 -83.9415 519.072C-84.8918 517.953 -85.8592 516.835 -86.8301 515.715C-93.384 508.149 -100.16 500.326 -102.756 490.466C-107.097 473.987 -97.6918 460.633 -88.5929 447.717L-88.5159 447.608C-74.075 427.106 -55.8045 408.257 -38.1345 390.028C-21.895 373.274 -5.10253 355.95 8.69469 337.371C22.5193 318.747 28.4993 298.194 34.8283 276.433C36.1479 271.895 37.512 267.202 38.9467 262.553C49.432 228.564 22.4431 212.837 -3.67671 200.763C-16.0749 195.033 -29.0809 188.751 -39.8507 180.542C-51.7038 171.507 -66.2791 156.98 -68.4036 139.087C-69.2528 131.937 -67.0204 122.898 -64.998 116.574C-57.9 94.3775 -49.5992 71.1351 -42.4151 51.3262C-40.0445 44.7905 -37.3109 37.1972 -34.8642 29.7927C-27.8751 8.64268 -21.2707 -15.9326 -31.4497 -39.9425C-32.1688 -41.6376 -33.1207 -43.2235 -34.2041 -44.5283C-41.8907 -53.7894 -58.5742 -54.0959 -71.9799 -54.3424C-75.7565 -54.4117 -79.3237 -54.4771 -82.3535 -54.7355L-82.4182 -53.9756C-79.3633 -53.7152 -75.7839 -53.6496 -71.9941 -53.5799C-58.7441 -53.3367 -42.2542 -53.0336 -34.7907 -44.0413C-33.755 -42.7927 -32.8425 -41.2724 -32.1524 -39.6445C-22.0766 -15.8787 -28.6427 8.53552 -35.5885 29.5536C-38.0316 36.9484 -40.7635 44.5352 -43.1319 51.0663C-50.3186 70.8818 -58.6225 94.1328 -65.7247 116.342C-67.7697 122.738 -70.0261 131.891 -69.1606 139.177C-67.0051 157.336 -52.2833 172.024 -40.3128 181.149C-29.4813 189.404 -16.4332 195.707 -3.99627 201.456C21.831 213.394 48.5225 228.927 38.2185 262.328C36.7824 266.983 35.4166 271.679 34.0962 276.219C27.787 297.915 21.8282 318.406 8.08248 336.915C-5.68446 355.456 -22.4595 372.761 -38.6826 389.497C-56.3721 407.747 -74.6638 426.618 -89.1392 447.168L-89.2162 447.278C-98.414 460.335 -107.926 473.838 -103.494 490.66C-100.852 500.691 -94.0169 508.582 -87.4065 516.214C-86.4372 517.333 -85.4715 518.448 -84.5221 519.565C-71.9762 534.338 -65.2535 547.56 -60.5445 566.722L-59.8036 566.541Z" fill="#412BA8"/>
<path d="M-55.1596 569.381C-58.9013 550.737 -65.3401 537.473 -78.1239 522.075C-78.8051 521.254 -79.4932 520.435 -80.182 519.614C-86.8033 511.722 -93.6502 503.561 -95.6703 493.13C-98.777 477.088 -89.0578 462.843 -80.4829 450.277L-79.6749 449.092C-65.1243 427.732 -46.7925 407.932 -29.0646 388.784C-14.0813 372.6 1.41174 355.865 14.5484 338.268C24.1315 325.434 34.0392 312.162 35.9632 294.298L36.0761 293.255C37.2692 282.173 38.3964 271.705 40.9173 261.002C48.6038 228.369 23.6513 212.839 -2.56534 199.729C-14.2446 193.889 -27.482 187.269 -37.9798 178.89C-55.5536 164.861 -64.1925 150.606 -63.6564 136.521C-63.3785 129.213 -61.2538 121.727 -59.1992 114.488L-58.7827 113.019C-52.8281 91.9456 -45.2814 70.9063 -37.9832 50.5601L-35.9478 44.8817C-33.357 37.6452 -30.6779 30.1625 -28.1935 22.6538C-21.0433 1.04302 -12.9389 -23.4512 -25.4149 -46.3192C-26.2638 -47.8764 -27.371 -49.3197 -28.6159 -50.4927C-38.3227 -59.6424 -56.6648 -58.1323 -71.403 -56.9192C-74.8899 -56.6321 -78.1835 -56.361 -81.088 -56.256L-81.0604 -55.4934C-78.1386 -55.5994 -74.8364 -55.8713 -71.3405 -56.159C-56.7532 -57.3599 -38.599 -58.8545 -29.1395 -49.9378C-27.9521 -48.8192 -26.8959 -47.4414 -26.0843 -45.9541C-13.7668 -23.3767 -21.8163 0.950582 -28.9179 22.4139C-31.3992 29.914 -34.0769 37.3925 -36.6661 44.6242L-38.7014 50.3026C-46.0041 70.6612 -53.5549 91.7131 -59.5173 112.812L-59.9329 114.28C-61.9999 121.562 -64.1373 129.093 -64.4191 136.492C-64.9646 150.833 -56.2293 165.298 -38.4558 179.486C-27.8953 187.915 -14.6196 194.554 -2.9068 200.411C23.0368 213.384 47.7339 228.736 40.1752 260.827C37.6426 271.576 36.5134 282.066 35.3174 293.173L35.2051 294.217C33.3023 311.873 23.4568 325.06 13.9377 337.812C0.824302 355.376 -14.6548 372.096 -29.6245 388.265C-47.3713 407.434 -65.7224 427.256 -80.3059 448.663L-81.1135 449.847C-89.7717 462.537 -99.5863 476.921 -96.4201 493.275C-94.3622 503.9 -87.4504 512.138 -80.7663 520.104C-80.0784 520.923 -79.3917 521.742 -78.7114 522.561C-66.0157 537.853 -59.6223 551.022 -55.9072 569.531L-55.1596 569.381Z" fill="#412BA8"/>
<path d="M-50.5207 572.219C-53.3809 553.958 -59.2776 541.187 -72.2775 525.1L-73.3913 523.725C-80.0973 515.454 -87.0317 506.901 -88.3872 495.821C-90.2864 480.304 -81.0461 465.84 -72.8956 453.077L-71.7688 451.31C-57.215 428.448 -38.5645 407.194 -20.528 386.639C-7.64572 371.958 5.67493 356.777 17.3628 341.163C18.6116 339.495 19.9462 337.763 21.3255 335.973C30.786 323.692 42.5608 308.407 42.4559 292.877C42.4379 290.294 42.3836 287.736 42.331 285.262C42.1443 276.458 41.9678 268.142 43.3676 259.215C48.4921 226.54 22.9393 212.617 -1.77142 199.153L-4.50388 197.666C-15.5955 191.638 -27.0647 185.405 -36.3286 177.497C-48.0128 167.525 -61.2828 151.886 -58.1483 134.018C-56.8344 126.528 -55.0742 118.492 -52.7667 109.453C-47.1357 87.3924 -39.3011 65.3228 -31.7242 43.9793L-28.9786 36.2394C-26.6183 29.585 -24.1778 22.7047 -21.9309 15.9379L-21.4009 14.3431C-14.1965 -7.32072 -6.03057 -31.8754 -19.5922 -52.5826C-20.5927 -54.11 -21.8576 -55.489 -23.1542 -56.4646C-35.5566 -65.7994 -57.39 -62.1623 -73.3318 -59.5068C-75.481 -59.1487 -77.5395 -58.8058 -79.4729 -58.5099L-79.3576 -57.7561C-77.4209 -58.0524 -75.3594 -58.3957 -73.2063 -58.7544C-57.4005 -61.387 -35.7536 -64.9932 -23.6127 -55.8554C-22.385 -54.931 -21.1836 -53.6205 -20.2301 -52.1646C-6.87075 -31.766 -14.9745 -7.39731 -22.1247 14.1025L-22.6548 15.6976C-24.8991 22.4569 -27.3387 29.334 -29.6976 35.9844L-32.4431 43.7243C-40.0256 65.0835 -47.8663 87.1703 -53.506 109.264C-55.818 118.322 -57.5824 126.376 -58.8999 133.886C-62.0963 152.109 -48.6593 167.976 -36.8237 178.078C-27.4993 186.037 -15.9945 192.289 -4.86833 198.336L-2.13667 199.822C23.469 213.774 47.655 226.952 42.6135 259.096C41.2036 268.09 41.3812 276.439 41.5684 285.278C41.6206 287.75 41.6754 290.305 41.6926 292.882C41.7974 308.15 30.1102 323.319 20.7213 335.507C19.3402 337.3 18.003 339.035 16.7527 340.706C5.08197 356.296 -8.22877 371.466 -21.102 386.136C-39.1572 406.712 -57.8273 427.989 -72.4118 450.901L-73.5385 452.666C-81.7597 465.537 -91.0763 480.125 -89.1446 495.914C-87.7626 507.211 -80.7584 515.851 -73.9836 524.205L-72.8712 525.579C-59.965 541.55 -54.1112 554.223 -51.2743 572.338L-50.5207 572.219Z" fill="#412BA8"/>
<path d="M-45.8858 575.056C-48.1763 554.657 -55.1569 542.389 -66.441 528.094C-86.3715 502.844 -81.5641 483.416 -64.9139 454.253C-64.72 453.912 -64.5241 453.571 -64.3281 453.232C-49.9865 428.391 -30.7809 405.188 -12.1989 382.738C-2.26029 370.73 8.01677 358.314 17.3297 345.894C18.9703 343.706 20.7489 341.423 22.6314 339.005C33.0284 325.654 45.9683 309.039 47.5029 292.658C48.0597 286.717 47.5156 280.484 46.9887 274.456C46.49 268.747 45.9744 262.844 46.3917 257.187C48.5765 227.584 28.233 215.928 6.6953 203.586C3.79358 201.924 0.792802 200.204 -2.15591 198.439C-3.52755 197.618 -4.91516 196.795 -6.31125 195.967C-16.301 190.044 -26.631 183.918 -34.7731 176.308C-48.9148 163.093 -55.2554 146.796 -52.17 131.6C-51.5814 128.7 -51.0259 125.739 -50.438 122.603C-49.4025 117.084 -48.332 111.377 -47.0545 105.962C-41.2701 81.4314 -32.6639 56.977 -24.3411 33.3276L-22.4803 28.0533C-20.3539 22.0367 -18.1557 15.8153 -16.1142 9.70275C-15.627 8.24459 -15.1072 6.72382 -14.5697 5.15054C-7.73505 -14.8493 1.62483 -42.2399 -14.6478 -58.4179C-15.8971 -59.6604 -17.441 -60.8189 -19.1124 -61.7684C-35.532 -71.0973 -57.837 -66.5741 -77.4549 -61.6015L-77.2677 -60.8622C-57.7936 -65.798 -35.6626 -70.2946 -19.4894 -61.1052C-17.8762 -60.1887 -16.388 -59.0724 -15.1856 -57.8768C0.748785 -42.0352 -8.52215 -14.9054 -15.2915 4.90424C-15.8298 6.47884 -16.3499 8.00139 -16.8375 9.46148C-18.8771 15.5675 -21.0744 21.7858 -23.1993 27.7991L-25.0607 33.0744C-33.3901 56.7429 -42.0033 81.2169 -47.7974 105.787C-49.0787 111.219 -50.1508 116.935 -51.1879 122.463C-51.7754 125.595 -52.3302 128.554 -52.9177 131.448C-56.0574 146.91 -49.6336 163.465 -35.2938 176.866C-27.0914 184.532 -16.7253 190.679 -6.70024 196.624C-5.30546 197.451 -3.91884 198.273 -2.54785 199.094C0.407126 200.863 3.41103 202.584 6.31588 204.248C27.6394 216.467 47.7798 228.007 45.6311 257.131C45.2091 262.85 45.7271 268.784 46.2286 274.522C46.7525 280.517 47.2939 286.715 46.7438 292.588C45.2285 308.748 32.366 325.264 22.0296 338.537C20.1447 340.957 18.3647 343.243 16.7197 345.437C7.41688 357.842 -2.85313 370.251 -12.7868 382.252C-31.3877 404.725 -50.6156 427.956 -64.9884 452.85C-65.1857 453.192 -65.381 453.532 -65.5764 453.875C-72.4256 465.872 -78.9173 478.734 -80.0261 491.502C-81.1269 504.17 -76.9998 515.949 -67.0393 528.568C-55.8409 542.754 -48.9139 554.923 -46.6436 575.142L-45.8858 575.056Z" fill="#412BA8"/>
<path d="M-41.2558 577.89C-42.6744 558.044 -49.1545 546.133 -60.6159 531.094C-79.7252 506.02 -72.0526 484.92 -59.1261 457.849C-45.6374 429.604 -25.2164 403.592 -5.46631 378.435C1.27254 369.852 8.24077 360.976 14.7382 352.244C16.1482 350.349 17.5827 348.44 19.028 346.518C31.2702 330.236 43.9287 313.4 49.9064 294.104C52.7292 284.997 51.8183 275.973 50.9374 267.246C50.5328 263.232 50.1136 259.081 50.0503 254.932C49.6302 227.308 32.1389 217.636 11.8856 206.438C7.1313 203.809 2.21532 201.091 -2.60983 198.05L-2.88477 197.877C-13.6669 191.083 -24.816 184.058 -33.1791 175.255C-45.5348 162.25 -49.3748 148.889 -46.433 129.137C-45.251 121.199 -43.7681 111.84 -41.7331 102.619C-36.073 76.9804 -27.4595 51.6414 -19.122 27.885C-18.2958 25.5319 -17.4613 23.1747 -16.6261 20.8157C-14.673 15.2988 -12.6535 9.59404 -10.7664 3.99343C-10.2022 2.31907 -9.59633 0.574075 -8.9707 -1.22687C-2.14062 -20.8905 7.21362 -47.8213 -10.8787 -63.0952C-12.2348 -64.2404 -13.8685 -65.3025 -15.6021 -66.168C-32.8766 -74.7919 -58.5642 -72.4221 -75.0108 -65.6238L-74.7194 -64.9188C-58.4326 -71.6512 -33.0137 -74.0075 -15.9431 -65.4855C-14.2628 -64.647 -12.682 -63.6185 -11.3713 -62.5121C6.32102 -47.5757 -2.934 -20.9315 -9.69152 -1.47636C-10.318 0.326764 -10.9245 2.07376 -11.4896 3.75029C-13.3746 9.34573 -15.393 15.0475 -17.3454 20.5614C-18.1809 22.9211 -19.0157 25.2792 -19.8417 27.6327C-28.187 51.4112 -36.8089 76.775 -42.4779 102.456C-44.5182 111.699 -46.0036 121.074 -47.1877 129.025C-50.1683 149.038 -46.2701 162.584 -33.7321 175.781C-25.3033 184.653 -14.113 191.704 -3.29136 198.522L-3.01677 198.696C1.82681 201.748 6.75272 204.471 11.5166 207.105C31.562 218.189 48.8739 227.761 49.2883 254.944C49.3517 259.126 49.772 263.293 50.1784 267.323C51.0922 276.373 51.9547 284.919 49.1785 293.878C43.2378 313.049 30.6192 329.83 18.419 346.06C16.9725 347.983 15.5374 349.893 14.1257 351.789C7.63479 360.513 0.669343 369.385 -6.06613 377.964C-25.8412 403.154 -46.2913 429.201 -59.8135 457.521C-72.4361 483.954 -80.5544 506.191 -61.2214 531.557C-49.8502 546.478 -43.4214 558.289 -42.0163 577.945L-41.2558 577.89Z" fill="#412BA8"/>
<path d="M-36.6274 580.718C-37.2782 561.402 -43.2757 549.845 -54.853 534.045C-71.6851 511.072 -64.1454 489.765 -55.4151 465.093L-54.3135 461.974C-43.3954 430.958 -22.4208 403.103 -2.13588 376.164C1.87891 370.832 6.03072 365.318 9.9766 359.941L10.6664 359.001C25.0137 339.451 39.8503 319.237 50.2354 296.885C57.3795 281.509 56.3549 271.651 54.8039 256.727C54.6612 255.358 54.5146 253.948 54.3698 252.487C51.7457 226.038 33.3001 216.776 13.7713 206.97C8.07169 204.108 2.17861 201.148 -3.32155 197.724C-14.3267 190.872 -24.564 182.317 -31.4073 174.252C-43.4545 160.054 -42.9506 144.959 -41.0393 126.699C-40.1149 117.87 -38.7098 108.713 -36.8635 99.4839C-31.9924 75.1385 -24.3878 51.3646 -14.4677 23.1582C-13.4442 20.2478 -12.4051 17.3295 -11.3655 14.4099C-9.54687 9.30171 -7.66616 4.01996 -5.89659 -1.15091C-5.33072 -2.80449 -4.72407 -4.52415 -4.0986 -6.29547C2.78822 -25.8114 12.2208 -52.5389 -7.4057 -66.9448C-8.85309 -68.0071 -10.5681 -69.0008 -12.3647 -69.8182C-28.9793 -77.3796 -54.6705 -77.6777 -72.1243 -70.5109L-71.8346 -69.8053C-54.5546 -76.9003 -29.1239 -76.6079 -12.6802 -69.1241C-10.9306 -68.3282 -9.26267 -67.3617 -7.85711 -66.33C11.3131 -52.2591 1.98981 -25.8399 -4.81819 -6.54975C-5.44417 -4.77565 -6.05171 -3.05408 -6.61839 -1.39832C-8.38643 3.76837 -10.2663 9.04794 -12.0843 14.1535C-13.1243 17.0745 -14.1635 19.9937 -15.1875 22.9051C-25.1183 51.1418 -32.732 74.9448 -37.6116 99.334C-39.4627 108.587 -40.8715 117.767 -41.7979 126.62C-43.7281 145.062 -44.2318 160.317 -31.989 174.745C-25.0965 182.868 -14.7941 191.479 -3.72475 198.372C1.80488 201.814 7.71406 204.781 13.429 207.651C32.7646 217.36 51.0281 226.531 53.6107 252.562C53.7556 254.024 53.9022 255.436 54.0446 256.806C55.5831 271.603 56.599 281.378 49.5439 296.563C39.19 318.845 24.3771 339.03 10.0514 358.55L9.36159 359.49C5.41876 364.864 1.26829 370.375 -2.74479 375.705C-23.0657 402.692 -44.0759 430.598 -55.0326 461.72L-56.1345 464.839C-64.9371 489.715 -72.5384 511.198 -55.4681 534.497C-43.983 550.171 -38.034 561.626 -37.3905 580.743L-36.6274 580.718Z" fill="#412BA8"/>
<path d="M-31.991 583.541C-31.7196 563.319 -39.0512 552.268 -49.1978 536.972C-61.8287 517.932 -57.866 500.558 -53.277 480.441C-52.246 475.917 -51.1783 471.239 -50.2896 466.437C-44.3322 434.252 -23.7437 406.059 -3.83226 378.792C-1.34131 375.38 1.12568 372.003 3.53265 368.656C7.35553 363.343 11.5874 357.818 16.0684 351.97C38.6529 322.488 66.7632 285.798 59.343 249.892C56.7408 237.296 53.4268 225.295 41.6262 216.912C34.168 211.614 24.7447 208.163 15.6321 204.826C8.79991 202.324 2.34626 199.961 -3.06907 196.937C-12.0946 191.897 -21.1659 183.688 -29.3019 173.198C-38.9987 160.695 -37.6009 143.48 -36.3683 128.291C-36.2603 126.962 -36.1536 125.644 -36.0549 124.344C-35.3686 115.295 -34.1688 105.96 -32.4892 96.5974C-27.6866 69.8253 -18.9844 43.4557 -10.2959 18.9474C-9.14135 15.6903 -7.96386 12.4232 -6.78589 9.15419C-5.02696 4.27443 -3.20841 -0.77151 -1.49592 -5.71002C-0.960752 -7.25363 -0.391355 -8.85233 0.193668 -10.4949C7.10195 -29.8858 16.5625 -56.4422 -4.18829 -70.0597C-5.74045 -71.0785 -7.48184 -72.0033 -9.36321 -72.8093C-27.394 -80.5294 -52.0791 -81.4863 -69.3928 -75.1363L-69.1302 -74.4204C-52.2557 -80.6087 -27.2467 -79.6365 -9.66365 -72.1077C-7.82317 -71.3195 -6.12168 -70.4159 -4.6063 -69.4219C15.6429 -56.1334 6.29834 -29.9031 -0.524639 -10.7506C-1.11047 -9.1059 -1.68092 -7.50539 -2.21638 -5.95975C-3.92725 -1.02558 -5.74515 4.01809 -7.5032 8.89595C-8.6818 12.1657 -9.8599 15.4342 -11.0147 18.6924C-19.714 43.2316 -28.4273 69.637 -33.2396 96.4628C-34.924 105.851 -36.1271 115.212 -36.8152 124.286C-36.9139 125.586 -37.0205 126.901 -37.1283 128.23C-38.3728 143.556 -39.7828 160.928 -29.9046 173.665C-21.7066 184.236 -12.5555 192.513 -3.44084 197.603C2.0274 200.656 8.50831 203.03 15.37 205.542C24.4355 208.862 33.8102 212.294 41.1847 217.533C52.7593 225.755 56.0258 237.604 58.5968 250.046C65.9452 285.61 37.954 322.148 15.4629 351.505C10.9788 357.359 6.74299 362.887 2.91423 368.211C0.507345 371.556 -1.95784 374.932 -4.44803 378.342C-24.41 405.676 -45.05 433.941 -51.0398 466.298C-51.9259 471.084 -52.9906 475.755 -54.0205 480.271C-58.4555 499.715 -62.6443 518.08 -49.8326 537.393C-39.7616 552.575 -32.4849 563.544 -32.7534 583.53L-31.991 583.541Z" fill="#412BA8"/>
<path d="M-27.3567 586.372C-26.3054 567.25 -33.0231 556.617 -42.3203 541.901L-43.68 539.746C-53.2172 524.604 -51.076 510.567 -48.8088 495.706C-47.608 487.837 -46.3665 479.701 -46.767 470.99C-48.1843 440.14 -27.8219 411.524 -9.85918 386.277C-7.8631 383.472 -5.90123 380.715 -4.00783 378.007C0.96377 370.899 6.12249 363.701 11.111 356.739C22.8882 340.305 35.0664 323.311 45.9407 305.909C46.4909 305.028 47.054 304.133 47.6256 303.223C57.8993 286.872 70.6865 266.53 64.9308 247.232C60.5335 232.49 56.4788 221.462 44.2852 213.795C36.3439 208.802 26.6496 205.721 17.2747 202.741C10.2762 200.516 3.6657 198.415 -2.11776 195.607C-12.3444 190.643 -20.6058 182.708 -26.6733 172.023C-33.6296 159.772 -32.6357 142.165 -31.8374 128.017C-31.7221 125.982 -31.6105 124.005 -31.5252 122.108C-31.1472 113.74 -30.2002 104.542 -28.6302 93.9877C-24.551 66.5752 -15.5026 40.0669 -6.58384 15.2648C-5.38273 11.9233 -4.15314 8.56975 -2.92331 5.21506C-1.13134 0.327286 0.721768 -4.72665 2.45645 -9.66776C2.95713 -11.0937 3.48951 -12.5722 4.03719 -14.0936C10.9849 -33.39 20.4998 -59.8177 -1.19429 -72.5337C-2.99201 -73.5875 -4.79886 -74.4935 -6.56431 -75.2267C-22.4719 -81.8356 -47.2967 -85.6723 -66.8976 -79.3457L-66.6632 -78.6194C-47.247 -84.8866 -22.6351 -81.0773 -6.85646 -74.5224C-5.12306 -73.8019 -3.34797 -72.9118 -1.5802 -71.8756C19.5673 -59.4798 10.1765 -33.3966 3.31986 -14.3514C2.77132 -12.8285 2.23823 -11.348 1.73735 -9.92022C0.00405654 -4.98381 -1.84805 0.0676271 -3.63901 4.95291C-4.86961 8.30891 -6.09963 11.6639 -7.30169 15.0071C-16.2329 39.845 -25.2947 66.3944 -29.3843 93.8757C-30.9581 104.456 -31.9077 113.68 -32.2867 122.073C-32.3724 123.968 -32.4837 125.942 -32.5983 127.975C-33.4026 142.222 -34.4036 159.954 -27.3359 172.4C-21.1911 183.221 -12.8182 191.261 -2.45049 196.294C3.38258 199.125 10.0185 201.235 17.0444 203.468C26.3738 206.434 36.0209 209.5 43.8801 214.442C55.8478 221.966 59.8509 232.869 64.2002 247.45C69.8567 266.416 57.1718 286.599 46.9802 302.817C46.4083 303.727 45.8453 304.624 45.2942 305.505C34.4329 322.887 22.2621 339.871 10.4919 356.295C5.50152 363.258 0.341379 370.459 -4.63253 377.571C-6.52487 380.277 -8.48562 383.032 -10.4799 385.835C-28.5157 411.182 -48.958 439.913 -47.5282 471.026C-47.1316 479.661 -48.3675 487.759 -49.5623 495.591C-51.8518 510.597 -54.0137 524.77 -44.3252 540.154L-42.9646 542.309C-33.3994 557.45 -27.0798 567.452 -28.1179 586.331L-27.3567 586.372Z" fill="#412BA8"/>
<path d="M-22.7242 589.212C-20.975 570.999 -27.0147 561.092 -35.3739 547.379C-36.3312 545.809 -37.3196 544.187 -38.3323 542.496C-44.6885 531.871 -47.4928 523.54 -44.1181 509.961L-44.027 509.593C-40.8251 496.714 -38.7109 488.205 -43.3654 475.341C-53.4946 447.353 -31.8198 416.175 -15.9935 393.413C-14.5984 391.406 -13.2415 389.455 -11.9471 387.566C-3.95551 375.902 4.68922 364.142 13.0493 352.77C22.8679 339.415 33.02 325.604 42.3422 311.656C43.7427 309.561 45.3414 307.254 47.0338 304.811C58.6319 288.073 76.1618 262.778 71.0755 244.609C67.4095 231.517 62.0177 218.308 47.5112 210.372C39.2807 205.869 29.6927 203.193 20.4203 200.606C12.9576 198.524 5.90875 196.557 -0.404072 193.726C-12.4344 188.332 -19.3018 181.41 -23.3677 170.58C-28.1936 157.727 -27.8485 139.964 -27.5711 125.691C-27.5334 123.742 -27.4966 121.845 -27.4733 120.016C-27.3653 111.585 -26.6496 102.315 -25.2859 91.6745C-21.7345 63.9681 -12.4736 37.1761 -3.29257 12.1088C-2.09069 8.82692 -0.853501 5.53042 0.384356 2.23278C2.26586 -2.78188 4.21201 -7.96683 5.99954 -13.0212C6.42429 -14.2225 6.8691 -15.459 7.32425 -16.724C14.2249 -35.9043 23.6755 -62.1722 1.62117 -74.4564C-0.263579 -75.5063 -2.13192 -76.4167 -3.93139 -77.1624C-19.2092 -83.4948 -44.2689 -88.8716 -64.6132 -83.1845L-64.4077 -82.45C-44.2509 -88.0844 -19.3889 -82.7436 -4.22306 -76.4578C-2.45052 -75.723 -0.608913 -74.8254 1.25029 -73.7896C22.7388 -61.8209 13.4149 -35.9047 6.60659 -16.982C6.15101 -15.7155 5.70589 -14.4781 5.28044 -13.2752C3.49564 -8.22784 1.55105 -3.04595 -0.330001 1.96523C-1.56806 5.26474 -2.80631 8.56347 -4.00888 11.8469C-13.2049 36.9549 -22.4812 63.7931 -26.0425 91.5779C-27.4099 102.248 -28.1273 111.547 -28.2359 120.007C-28.2592 121.833 -28.296 123.729 -28.3338 125.677C-28.6123 140.015 -28.9587 157.859 -24.0816 170.849C-19.9378 181.887 -12.9499 188.937 -0.716443 194.423C5.64882 197.277 12.7242 199.251 20.2154 201.341C29.4467 203.917 38.9917 206.581 47.1455 211.042C61.4044 218.842 66.7207 231.884 70.3412 244.815C75.3305 262.637 57.925 287.756 46.4067 304.377C44.7126 306.823 43.1121 309.132 41.7082 311.233C32.3957 325.166 22.2489 338.969 12.4356 352.318C4.07124 363.695 -4.57756 375.461 -12.5772 387.135C-13.8698 389.023 -15.2252 390.972 -16.6193 392.977C-32.5414 415.878 -54.3458 447.241 -44.083 475.601C-39.5068 488.246 -41.5997 496.665 -44.7671 509.409L-44.8586 509.778C-48.2966 523.613 -45.4472 532.088 -38.9865 542.887C-37.9733 544.581 -36.9835 546.205 -36.0253 547.776C-27.7423 561.363 -21.7582 571.179 -23.4832 589.138L-22.7242 589.212Z" fill="#412BA8"/>
<path d="M-18.0916 592.055C-15.6913 574.523 -21.2901 565.24 -29.0383 552.391C-30.3286 550.252 -31.6627 548.04 -33.0339 545.666C-40.006 533.602 -41.0402 525.009 -37.1318 511.61L-37.0693 511.398C-33.4538 499.004 -30.8427 490.049 -39.5947 479.163C-58.9272 455.111 -35.818 421.355 -20.5226 399.017L-18.9862 396.772C-9.37248 382.686 1.10358 368.633 11.2347 355.042C20.2329 342.971 29.5365 330.49 38.2572 317.964C40.3571 314.948 42.6516 311.761 45.081 308.388C59.7157 288.068 77.9273 262.778 76.4839 242.791C74.5043 215.379 48.5426 206.949 23.4356 198.797C16.2839 196.475 8.88848 194.074 2.16191 191.27C-6.92778 187.482 -17.5696 181.499 -19.1946 168.759L-19.2269 168.506C-21.3543 151.826 -23.5543 134.579 -23.8991 118.079C-24.0752 109.643 -23.5955 100.344 -22.4323 89.6523C-19.4166 61.9333 -9.87649 34.8398 -0.363118 9.46502C0.696459 6.63824 1.79145 3.79666 2.88765 0.951824C4.99878 -4.52804 7.18186 -10.1947 9.08352 -15.7004C9.61446 -17.2374 10.1776 -18.8208 10.7537 -20.4405C17.6523 -39.8375 26.2374 -63.978 4.29204 -75.9273C2.33055 -76.9953 0.406354 -77.9303 -1.42808 -78.7069C-22.7628 -87.7394 -45.598 -90.7273 -62.5129 -86.6996L-62.3362 -85.9577C-45.5739 -89.9491 -22.9156 -86.9758 -1.72514 -78.0047C0.0858696 -77.2379 1.98764 -76.3136 3.92679 -75.2577C25.3007 -63.6198 16.8363 -39.8196 10.0351 -20.6964C9.458 -19.0742 8.89442 -17.4886 8.36287 -15.9498C6.46535 -10.4562 4.2848 -4.79626 2.1754 0.677564C1.07874 3.52433 -0.016886 6.36819 -1.07744 9.19704C-10.608 34.6172 -20.1656 61.7626 -23.1908 89.5696C-24.3576 100.295 -24.8385 109.625 -24.6619 118.094C-24.3166 134.635 -22.1137 151.903 -19.9839 168.602L-19.9516 168.855C-18.2769 181.983 -7.41121 188.106 1.8679 191.974C8.62304 194.79 16.0334 197.196 23.1996 199.523C48.0667 207.597 73.7802 215.946 75.7228 242.845C77.1457 262.556 59.0236 287.721 44.4618 307.942C42.0305 311.319 39.7338 314.507 37.6311 317.528C28.9173 330.043 19.6173 342.52 10.6232 354.585C0.487683 368.182 -9.99361 382.243 -19.6164 396.342L-21.1524 398.586C-36.5727 421.111 -59.8772 455.148 -40.189 479.64C-31.6862 490.217 -34.2518 499.012 -37.8022 511.184L-37.8641 511.397C-41.8408 525.029 -40.7885 533.773 -33.695 546.048C-32.3191 548.428 -30.9835 550.643 -29.6918 552.786C-22.0243 565.5 -16.4842 574.686 -18.8472 591.951L-18.0916 592.055Z" fill="#412BA8"/>
<path d="M-13.4615 594.903C-10.4461 577.958 -15.71 569.291 -22.996 557.296C-24.5317 554.768 -26.1201 552.153 -27.7504 549.265C-35.1383 536.18 -34.334 527.1 -30.0893 513.933C-26.5362 502.911 -24.5919 493.708 -34.3243 484.004C-42.6089 475.744 -48.4287 469 -47.8523 457.385C-46.9398 438.965 -34.9136 420.914 -25.2472 406.411L-24.3098 405.003C-13.3758 388.576 -1.21455 372.314 10.5458 356.588C18.3441 346.16 26.4072 335.378 34.0558 324.625C36.7731 320.805 39.6409 316.904 42.6768 312.775C58.8284 290.811 77.1317 265.916 80.336 242.27C84.5733 210.994 54.534 202.663 28.0302 195.312C19.8903 193.055 12.2017 190.923 5.65439 188.236C-7.35085 182.899 -13.7816 175.739 -14.005 166.346C-14.2026 158.02 -15.8371 148.998 -17.4173 140.272C-18.8591 132.314 -20.3498 124.085 -20.7833 116.29C-21.2504 107.902 -21.0028 98.6173 -20.0267 87.9044C-17.5219 60.4146 -7.63543 33.0149 2.27641 7.30649L3.67336 3.68831C6.3529 -3.24552 9.12415 -10.4153 11.6306 -17.4464C12.1858 -19.0033 12.7688 -20.5946 13.3612 -22.2115C20.3366 -41.2515 29.0181 -64.9471 6.8523 -77.0459C4.8271 -78.151 2.85178 -79.1294 0.980139 -79.9537C-9.48017 -84.5605 -36.417 -94.7556 -60.5718 -89.9355L-60.4221 -89.1876C-36.4812 -93.9645 -9.72162 -83.8326 0.672515 -79.255C2.52416 -78.4392 4.48067 -77.4706 6.48701 -76.3754C28.0757 -64.5919 19.8777 -42.2155 12.645 -22.4735C12.052 -20.8541 11.4679 -19.2608 10.9126 -17.7022C8.40912 -10.6801 5.63994 -3.51513 2.96222 3.41403L1.56457 7.03268C-8.36608 32.7912 -18.2727 60.2482 -20.7863 87.8353C-21.7658 98.5861 -22.0138 107.908 -21.5448 116.333C-21.1082 124.175 -19.6133 132.428 -18.1678 140.409C-16.5925 149.105 -14.9635 158.098 -14.7671 166.364C-14.536 176.093 -7.95115 183.478 5.36485 188.942C11.9543 191.646 19.6642 193.784 27.8261 196.048C54.0296 203.315 83.7281 211.551 79.58 242.167C76.4023 265.622 58.1583 290.433 42.0628 312.324C39.0247 316.455 36.1548 320.358 33.4334 324.184C25.791 334.929 17.7301 345.707 9.93518 356.131C-1.83137 371.866 -13.9986 388.136 -24.9445 404.58L-25.8822 405.989C-35.5987 420.567 -47.6913 438.716 -48.6147 457.347C-49.2055 469.277 -43.2879 476.145 -34.8632 484.544C-25.4368 493.943 -27.3438 502.929 -30.8161 513.7C-35.1286 527.078 -35.9413 536.309 -28.4144 549.641C-26.778 552.539 -25.1866 555.159 -23.6478 557.693C-16.4487 569.544 -11.2472 578.108 -14.2115 594.769L-13.4615 594.903Z" fill="#412BA8"/>
<path d="M-8.83186 597.751C-5.0871 580.901 -10.4831 572.285 -17.9508 560.359C-19.3853 558.068 -20.8693 555.698 -22.3898 553.111C-29.3196 541.314 -28.4082 532.157 -24.493 520.327C-20.6124 508.604 -17.5468 499.343 -28.2962 489.699C-36.3224 482.498 -44.758 473.633 -46.4761 462.481C-49.0252 445.939 -38.112 428.763 -29.3461 414.962C-28.6862 413.924 -28.0393 412.906 -27.4127 411.912C-15.6975 393.307 -2.15631 375.08 10.9387 357.453C17.2639 348.939 23.8043 340.136 30.0535 331.405C32.9839 327.31 35.9681 323.233 39.1274 318.917C56.1677 295.634 75.484 269.244 82.8867 242.891C85.9409 232.021 85.3943 223.207 81.2165 215.946C73.0607 201.771 52.6603 196.504 32.9319 191.411C24.6474 189.272 16.8226 187.252 10.1071 184.629C-1.69918 180.019 -7.84076 173.115 -8.66856 163.524C-9.33714 155.781 -11.3602 147.423 -13.3169 139.34C-15.2976 131.156 -17.3461 122.695 -18.0818 114.63C-18.8384 106.331 -18.8124 97.0969 -18.002 86.3984C-15.8221 57.5935 -4.43812 28.7637 4.7088 5.59862C5.77217 2.90635 6.85533 0.209206 7.93932 -2.48899C10.0825 -7.82418 12.2985 -13.3412 14.3234 -18.7514C14.7789 -19.9686 15.2469 -21.2005 15.7189 -22.4444C23.3432 -42.5207 31.9842 -65.2756 9.33921 -77.9085C7.21352 -79.0944 5.24758 -80.1039 3.32834 -80.9949C-9.8407 -87.1079 -35.4186 -96.7885 -58.7642 -92.937L-58.6399 -92.184C-35.496 -96.0022 -10.0819 -86.3794 3.00729 -80.303C4.90906 -79.42 6.85903 -78.419 8.9676 -77.2423C31.0377 -64.9302 22.5206 -42.5028 15.0061 -22.7152C14.5333 -21.4702 14.0652 -20.2369 13.609 -19.0185C11.5875 -13.6172 9.37327 -8.10442 7.2318 -2.77374C6.14709 -0.073522 5.06329 2.62478 3.99966 5.31822C-5.16639 28.5317 -16.5738 57.4211 -18.7627 86.3412C-19.5759 97.0819 -19.6016 106.358 -18.8414 114.699C-18.1006 122.819 -16.0454 131.309 -14.0582 139.52C-12.1083 147.575 -10.092 155.905 -9.42827 163.589C-8.573 173.499 -2.27368 180.614 9.82958 185.34C16.5878 187.979 24.434 190.005 32.7411 192.15C52.3168 197.204 72.5595 202.43 80.5556 216.327C84.6258 223.401 85.1482 232.023 82.1527 242.686C74.787 268.906 56.3449 294.101 38.5123 318.467C35.3519 322.785 32.3666 326.863 29.4329 330.961C23.1886 339.687 16.6495 348.488 10.3269 356.999C-2.77726 374.637 -16.3271 392.876 -28.0581 411.505C-28.6841 412.5 -29.3301 413.516 -29.9893 414.554C-38.825 428.462 -49.8234 445.77 -47.2297 462.598C-45.4746 473.987 -36.9313 482.976 -28.8058 490.267C-18.4274 499.578 -21.2755 508.182 -25.2164 520.089C-29.2012 532.126 -30.1235 541.451 -23.0474 553.497C-21.5209 556.095 -20.0348 558.468 -18.5972 560.765C-11.2254 572.536 -5.89942 581.042 -9.5759 597.587L-8.83186 597.751Z" fill="#412BA8"/>
<path d="M-4.20294 600.6C0.0925426 584.344 -5.00561 576.43 -12.0622 565.477C-13.6936 562.946 -15.3801 560.329 -17.1053 557.378C-22.9379 547.406 -20.1987 537.014 -17.5496 526.964C-14.4389 515.163 -11.5007 504.017 -22.2289 494.436C-31.5235 486.135 -36.5742 478.513 -39.1177 468.951C-44.479 448.792 -37.1736 433.56 -27.8204 417.141C-14.3357 393.451 3.09098 370.429 19.9315 348.173C44.6955 315.446 70.3035 281.606 84.3756 244.534C93.8022 219.705 88.5063 202.878 68.1867 193.092C58.5015 188.427 47.5404 186.649 36.9403 184.93C29.7587 183.765 22.3327 182.56 15.519 180.466C5.66561 177.439 -0.178338 171.214 -3.42881 160.284C-4.35629 157.166 -5.32105 154.038 -6.28813 150.903C-10.1243 138.465 -14.0915 125.604 -15.728 113.059C-16.789 104.925 -16.9616 96.0357 -16.2707 85.0855C-14.5494 57.7984 -4.19583 31.2849 7.17997 4.26461C8.19697 1.84831 9.23506 -0.573624 10.2743 -2.99952C12.63 -8.49717 15.0661 -14.1825 17.2392 -19.7698L18.0145 -21.7574C25.9725 -42.1437 34.9931 -65.2498 11.7887 -78.6211C9.47899 -79.952 7.52956 -81.0031 5.65325 -81.9287C-7.60145 -88.4692 -33.3748 -98.9618 -57.0638 -95.7515L-56.9614 -94.9958C-33.4734 -98.1789 -7.86088 -87.7464 5.31575 -81.2446C7.17706 -80.3265 9.11276 -79.2829 11.4079 -77.9605C34.0441 -64.9163 25.1502 -42.135 17.3038 -22.0352L16.5283 -20.0464C14.3599 -14.4711 11.9265 -8.79193 9.57334 -3.30011C8.53339 -0.873062 7.49476 1.55057 6.4769 3.96836C-4.9253 31.0511 -15.3031 57.6306 -17.0316 85.037C-17.7256 96.0374 -17.552 104.973 -16.4839 113.157C-14.8395 125.767 -10.8626 138.66 -7.01653 151.128C-6.05032 154.26 -5.08603 157.386 -4.15965 160.501C-0.828524 171.702 5.17141 178.085 15.2952 181.195C22.159 183.305 29.6116 184.514 36.8183 185.682C47.365 187.393 58.2704 189.162 67.8558 193.778C87.7515 203.361 92.922 219.874 83.6634 244.264C69.6283 281.231 44.0553 315.029 19.3239 347.712C2.46947 369.988 -14.9633 393.005 -28.4828 416.763C-37.92 433.331 -45.2898 448.709 -39.8545 469.146C-37.2698 478.863 -32.1502 486.597 -22.7358 495.005C-12.3571 504.275 -15.2373 515.201 -18.2867 526.77C-20.9753 536.969 -23.7559 547.517 -17.7635 557.763C-16.0294 560.727 -14.3391 563.352 -12.7032 565.89C-5.75301 576.679 -0.730815 584.474 -4.93983 600.405L-4.20294 600.6Z" fill="#412BA8"/>
<path d="M0.424872 603.447C5.24349 587.741 0.41328 580.54 -6.27265 570.574C-8.06911 567.895 -9.92742 565.125 -11.8206 561.891C-17.7748 551.721 -14.7635 541.549 -11.8522 531.713C-8.36856 519.942 -5.07844 508.825 -16.1167 498.067C-37.63 477.1 -35.8491 443.073 -25.09 420.33C-10.9371 390.418 9.58808 362.203 29.4383 334.915C49.85 306.856 70.9575 277.841 85.0218 247.083C95.4431 224.291 101.411 201.407 74.7441 188.399C65.7579 184.015 55.4523 182.503 45.4866 181.042C37.0102 179.798 29.0049 178.624 21.9551 175.816C11.4096 171.614 7.07135 166.31 1.85411 156.72C-5.42781 143.331 -11.0737 126.859 -13.6353 111.527C-14.9645 103.571 -15.3105 94.7933 -14.724 83.9037C-13.1626 54.9181 -0.300845 26.1943 10.0335 3.1144C10.8296 1.33615 11.6352 -0.445184 12.4422 -2.22842C15.1689 -8.25542 17.9883 -14.4876 20.4395 -20.6348C28.7041 -41.3624 38.0715 -64.8555 14.2368 -79.2843C11.8452 -80.7318 9.86011 -81.8653 7.98911 -82.8509C-5.2711 -89.8375 -31.1451 -101.151 -55.4469 -98.4233L-55.3616 -97.6653C-31.2627 -100.37 -5.54874 -89.1218 7.63405 -82.176C9.49114 -81.1976 11.4636 -80.0712 13.8421 -78.6315C37.1236 -64.5379 28.2822 -42.3623 19.7314 -20.917C17.2863 -14.7854 14.4705 -8.56174 11.7476 -2.54272C10.9405 -0.758212 10.1338 1.02384 9.3371 2.80307C-1.02288 25.9408 -13.9164 54.736 -15.4857 83.8633C-16.0754 94.8096 -15.7263 103.64 -14.3874 111.653C-11.8126 127.065 -6.13664 143.624 1.1843 157.085C6.49035 166.84 10.9095 172.236 21.6729 176.524C28.8055 179.366 36.8543 180.547 45.3761 181.797C55.2839 183.25 65.5299 184.753 74.4103 189.085C100.489 201.806 94.5889 224.326 84.3277 246.766C70.2983 277.456 49.2119 306.438 28.8218 334.467C8.95057 361.784 -11.5985 390.029 -25.7793 420.005C-36.6507 442.984 -38.4299 477.385 -16.6488 498.614C-5.94029 509.051 -9.16723 519.954 -12.5838 531.497C-15.5415 541.49 -18.5997 551.822 -12.4785 562.278C-10.5733 565.531 -8.70918 568.311 -6.90582 570.999C-0.337218 580.791 4.40776 587.865 -0.304676 603.224L0.424872 603.447Z" fill="#412BA8"/>
<path d="M5.05157 606.293C10.3686 591.096 5.78915 584.608 -0.549217 575.629C-2.39936 573.007 -4.49665 570.036 -6.53114 566.578C-12.6388 556.193 -9.47838 546.028 -6.42148 536.198C-2.85219 524.716 0.838752 512.844 -9.96042 500.514C-29.1966 478.551 -23.5576 447.801 -19.0268 423.091L-18.6861 421.227C-15.3907 403.203 -1.08555 383.367 11.5391 365.867C15.4491 360.445 19.1423 355.325 22.4901 350.328C26.2542 344.71 30.1363 338.987 33.8903 333.451C52.0724 306.646 70.8746 278.927 85.0316 250.402L85.1017 250.261C90.6592 239.065 96.9579 226.375 98.3576 214.446C99.9904 200.529 94.5728 190.442 81.7962 183.611C72.8321 178.818 62.3276 177.301 52.1692 175.833C43.8694 174.634 36.0302 173.502 29.2986 170.701C20.6445 167.099 13.8263 161.626 7.19202 152.954C-1.58551 141.482 -8.46885 125.813 -11.6926 109.967C-13.2683 102.221 -13.7568 93.5802 -13.2301 82.7752C-11.9052 55.5847 0.245123 29.7956 11.9952 4.85572L13.3328 2.0153C13.912 0.784017 14.4957 -0.449569 15.0797 -1.68466C18.1397 -8.15398 21.304 -14.8436 23.9744 -21.4683C33.7386 -45.6896 39.4049 -65.38 16.7214 -80.0044C14.3945 -81.5039 12.3175 -82.7658 10.3723 -83.8618C-2.82865 -91.2997 -28.731 -103.417 -53.8858 -101L-53.8133 -100.241C-28.865 -102.638 -3.12473 -90.5913 9.99833 -83.197C11.9304 -82.1086 13.9942 -80.8543 16.3085 -79.3629C38.5011 -65.0552 32.8983 -45.6433 23.2674 -21.7536C20.605 -15.1496 17.4457 -8.47012 14.3907 -2.01092C13.8062 -0.775166 13.2225 0.458575 12.643 1.69078L11.3054 4.53036C-0.476487 29.538 -12.6595 55.3962 -13.9918 82.7377C-14.5216 93.6081 -14.0285 102.308 -12.4397 110.119C-9.19341 126.074 -2.2587 141.856 6.58651 153.418C13.3069 162.202 20.2215 167.749 29.0062 171.405C35.8263 174.243 43.7123 175.382 52.0608 176.588C62.154 178.046 72.5911 179.554 81.4377 184.284C109.542 199.311 95.6116 227.373 84.419 249.922L84.3491 250.062C70.2144 278.54 51.428 306.237 33.2598 333.023C29.5048 338.559 25.6226 344.284 21.8568 349.903C18.5161 354.889 14.8267 360.005 10.9207 365.421C-1.75025 382.988 -16.111 402.898 -19.4356 421.09L-19.777 422.954C-24.3372 447.824 -30.013 478.777 -10.5341 501.017C-0.0156942 513.026 -3.48084 524.172 -7.14977 535.971C-10.2554 545.96 -13.4667 556.289 -7.18728 566.964C-5.13771 570.45 -3.03083 573.434 -1.17146 576.068C5.26649 585.189 9.51956 591.214 4.33237 606.04L5.05157 606.293Z" fill="#412BA8"/>
<path d="M9.67718 609.136C15.4715 594.4 11.3547 588.91 5.123 580.599C3.15298 577.972 0.919806 574.994 -1.23167 571.358C-6.6845 562.141 -3.69624 554.826 -0.235501 546.356C0.858932 543.677 1.99067 540.906 2.89005 537.96C6.84539 525 4.731 513.5 -3.76414 501.769C-16.6471 483.979 -13.2349 463.575 -9.9356 443.842C-8.8498 437.349 -7.72674 430.635 -7.18271 424.069C-5.09188 398.861 7.72292 378.581 21.2873 357.114L22.3396 355.449C28.0402 346.422 33.9864 337.267 39.7369 328.413C55.3326 304.401 71.4582 279.571 84.5944 254.369C85.4258 252.773 86.317 251.099 87.2427 249.36C98.7069 227.827 116.032 195.284 89.1221 178.917C79.8533 173.28 69.0301 171.55 58.5631 169.877C51.4606 168.742 44.1157 167.568 37.5112 165.169C28.0061 161.716 18.923 155.851 12.5902 149.08C1.97816 137.732 -5.33632 124.387 -9.77067 108.281C-12.1307 99.7106 -12.0624 90.3954 -11.6369 81.606C-10.4148 56.3467 1.38634 32.5876 12.7988 9.61027C14.2559 6.67698 15.7052 3.75835 17.1245 0.854145L18.2472 -1.44125C21.5944 -8.27717 25.0551 -15.3461 27.8791 -22.3749C36.912 -44.8615 42.4992 -64.7853 19.2783 -80.8861C17.123 -82.3803 14.9565 -83.7846 12.8393 -85.0594C-0.258234 -92.9438 -26.1438 -105.827 -52.3554 -103.526L-52.2885 -102.765C-26.2926 -105.048 -0.571986 -92.2425 12.4455 -84.406C14.5491 -83.1396 16.7015 -81.7441 18.8439 -80.259C41.6419 -64.4514 36.3969 -45.6264 27.1711 -22.6595C24.3577 -15.6563 20.9029 -8.59999 17.5619 -1.77634L16.4385 0.519522C15.0204 3.42269 13.5717 6.33923 12.1152 9.27152C0.667961 32.3186 -11.1696 56.1507 -12.3997 81.5696C-12.8277 90.4224 -12.8951 99.8101 -10.5064 108.484C-6.0385 124.712 1.33417 138.161 12.0326 149.601C18.4446 156.458 27.6362 162.393 37.2501 165.886C43.9233 168.31 51.3046 169.49 58.4425 170.631C68.8366 172.292 79.5847 174.01 88.7249 179.569C115.019 195.561 97.8986 227.721 86.5687 249.002C85.6419 250.742 84.7499 252.418 83.917 254.016C70.7992 279.187 54.6827 304 39.0966 327.997C33.345 336.853 27.3974 346.01 21.6934 355.042L20.6422 356.707C7.02593 378.257 -5.8365 398.612 -7.94289 424.006C-8.48493 430.54 -9.60516 437.238 -10.6884 443.716C-14.0141 463.603 -17.4525 484.169 -4.3821 502.216C3.96095 513.738 6.04037 525.025 2.16006 537.737C1.2711 540.65 0.146024 543.405 -0.942598 546.068C-4.33223 554.366 -7.53467 562.204 -1.88819 571.746C0.28441 575.418 2.53038 578.414 4.5123 581.057C10.5897 589.162 14.6052 594.517 8.96718 608.857L9.67718 609.136Z" fill="#412BA8"/>
<path d="M14.3039 611.975C17.109 605.483 19.6504 597.972 17.2378 591.489C15.8312 587.71 12.8836 585.242 10.0322 582.855C7.75463 580.948 5.39891 578.975 3.90226 576.363C-1.18066 567.493 2.3644 559.379 6.11738 550.789C7.76502 547.017 9.46865 543.117 10.3537 539.176C13.5302 525.028 8.44437 512.901 2.47527 501.904C-7.19399 484.094 -3.12097 465.044 0.817939 446.621C2.39321 439.252 4.02291 431.633 4.7759 424.147C5.13428 420.582 5.20192 416.909 5.27494 413.02C5.40137 406.16 5.53247 399.067 7.38937 392.713C10.2742 382.849 15.7482 373.458 21.0496 364.373C22.0097 362.727 22.9583 361.096 23.8866 359.479C32.1825 345.003 41.1456 330.514 49.8214 316.5C61.441 297.734 73.4548 278.327 83.8837 258.85C85.0543 256.663 86.4371 254.197 87.9013 251.586C100.366 229.358 121.229 192.154 96.6468 174.315C87.1221 167.404 75.1964 165.303 63.6635 163.271C57.7617 162.232 51.6584 161.156 46.0688 159.446C34.4216 155.882 24.9886 151.074 18.0306 145.155C5.59979 134.579 -2.82012 121.9 -7.70982 106.395C-10.3097 98.1518 -10.2367 88.9757 -9.77059 80.2871C-8.50838 56.7351 3.15777 34.5285 14.44 13.0529C16.7784 8.60175 19.1962 3.9991 21.4368 -0.469384L22.0006 -1.59352C25.5762 -8.719 29.2728 -16.0873 32.1733 -23.4492C42.2163 -48.9399 43.5607 -65.8271 21.9434 -82.041C19.927 -83.5531 17.7334 -85.0699 15.4236 -86.5488C-6.69919 -100.714 -30.8479 -107.821 -50.8298 -106.048L-50.7626 -105.289C-30.9452 -107.047 -6.97094 -99.9825 15.0126 -85.9064C17.3069 -84.4378 19.4847 -82.9319 21.4856 -81.4307C42.7122 -65.5105 41.3687 -48.8687 31.4639 -23.7291C28.5759 -16.3989 24.887 -9.04621 21.3192 -1.93564L20.7554 -0.811506C18.5177 3.65048 16.1018 8.24984 13.7649 12.6982C2.44458 34.246 -9.26091 56.5272 -10.5321 80.2461C-11.0017 89.0063 -11.0732 98.265 -8.43708 106.624C-3.50263 122.271 4.99317 135.064 17.5365 145.735C24.5741 151.723 34.0988 156.581 45.8459 160.175C51.4799 161.9 57.6068 162.979 63.5319 164.023C74.979 166.039 86.8166 168.124 96.1995 174.933C120.232 192.373 99.5773 229.206 87.2365 251.213C85.7709 253.828 84.3858 256.297 83.2114 258.49C72.7945 277.948 60.7866 297.343 49.1736 316.099C40.4934 330.118 31.524 344.61 23.2251 359.1C22.2981 360.716 21.3498 362.346 20.3911 363.99C15.0686 373.11 9.56852 382.546 6.65855 392.499C4.77233 398.951 4.64032 406.096 4.51185 413.006C4.44059 416.879 4.37283 420.537 4.01736 424.07C3.26848 431.515 1.64407 439.113 0.0727624 446.462C-3.89524 465.02 -7.99844 484.21 1.80475 502.268C7.70342 513.134 12.7314 525.106 9.60925 539.009C8.74086 542.879 7.05158 546.745 5.41863 550.483C1.75554 558.869 -2.0326 567.54 3.24108 576.743C4.80523 579.473 7.2135 581.49 9.54327 583.441C12.4458 585.871 15.1875 588.167 16.5235 591.756C18.8421 597.985 16.3486 605.32 13.6039 611.673L14.3039 611.975Z" fill="#412BA8"/>
<path d="M18.9284 614.812C22.1522 608.013 24.8024 600.88 22.3867 594.783C21.0001 591.283 18.1193 589.138 15.3344 587.065C13.0404 585.358 10.6687 583.592 9.21494 581.093C4.44118 572.89 8.3806 564.07 12.191 555.541C14.153 551.148 16.0069 546.998 16.7655 542.907C19.5766 527.742 14.341 513.904 8.73767 501.03C0.857677 482.926 6.09322 465.107 11.1566 447.876C13.651 439.385 16.231 430.606 17.2567 421.834C17.8936 416.386 17.7968 410.577 17.7043 404.959C17.6367 400.914 17.5675 396.732 17.7691 392.686C18.3317 381.396 22.3937 372.248 27.2455 362.307C36.9219 342.475 48.4901 323.046 59.677 304.257C67.561 291.014 75.7158 277.319 83.0615 263.712C84.3353 261.353 85.9128 258.598 87.7398 255.408C100.958 232.326 125.561 189.363 103.918 170.297C94.1541 161.695 80.7764 159.227 67.8387 156.84C63.0756 155.961 58.5767 155.131 54.3002 154.011C44.3439 151.405 32.9023 147.851 23.5231 141.259C9.59917 131.472 0.158758 119.342 -5.3366 104.176C-8.27734 96.0613 -7.96187 86.7676 -7.43572 78.6935C-5.99908 56.6673 5.69777 35.5665 17.0097 15.1605C20.3048 9.21729 23.4164 3.60347 26.2863 -2.03699L26.3596 -2.18183C30.0998 -9.53304 33.9673 -17.1343 36.8653 -24.7685C46.079 -49.0373 46.8779 -65.5972 24.7527 -83.5799C22.858 -85.1197 20.7027 -86.7069 18.1631 -88.4321C-3.71869 -103.299 -28.3018 -110.655 -49.2828 -108.613L-49.2086 -107.854C-28.4021 -109.879 -4.00227 -102.57 17.7344 -87.801C20.2556 -86.0878 22.394 -84.5135 24.2718 -82.9876C46.0374 -65.2971 45.2392 -48.9735 36.1522 -25.0389C33.2685 -17.4434 29.411 -9.86049 25.68 -2.52752L25.6064 -2.38287C22.743 3.24568 19.6341 8.85386 16.3429 14.7912C4.99016 35.2705 -6.7491 56.4474 -8.19641 78.6443C-8.72789 86.7958 -9.04457 96.1835 -6.05362 104.437C-0.503216 119.755 9.02786 132.003 23.0845 141.883C32.5628 148.545 44.0852 152.126 54.1063 154.749C58.4107 155.876 62.9235 156.709 67.7005 157.59C80.5356 159.958 93.8076 162.407 103.414 170.869C124.59 189.524 100.188 232.137 87.0779 255.029C85.2482 258.223 83.6685 260.982 82.3901 263.35C75.052 276.943 66.9019 290.63 59.0216 303.867C47.8268 322.67 36.2525 342.112 26.5593 361.973C21.6704 371.99 17.577 381.213 17.0065 392.649C16.8043 396.719 16.8734 400.915 16.941 404.972C17.0341 410.565 17.1299 416.348 16.4992 421.746C15.4813 430.454 12.9107 439.201 10.425 447.661C5.32292 465.023 0.0477968 482.976 8.03848 501.336C13.5947 514.101 18.7869 527.815 16.0148 542.768C15.273 546.77 13.4373 550.88 11.494 555.23C7.60645 563.934 3.58581 572.935 8.55528 581.475C10.0884 584.11 12.5237 585.924 14.8788 587.676C17.7028 589.779 20.3708 591.765 21.6777 595.064C23.9858 600.889 21.3895 607.841 18.2399 614.485L18.9284 614.812Z" fill="#412BA8"/>
<path d="M23.5553 617.643C26.9571 610.809 30.0231 603.605 26.968 597.248C25.6096 594.421 23.064 592.653 20.6031 590.944C18.3814 589.4 16.0842 587.805 14.7308 585.448C10.3754 577.862 14.4621 568.147 18.4138 558.752C20.7762 553.135 23.0085 547.83 23.4729 543.043C24.8827 528.517 20.1081 514.391 15.49 500.729L15.0307 499.371C8.5431 480.147 14.5716 465.376 20.9541 449.737C25.0274 439.756 29.2393 429.436 30.2953 417.517C30.908 410.6 30.4886 403.593 30.0835 396.816C29.4297 385.881 28.7533 374.573 32.5254 363.772C40.5502 340.795 53.4742 318.762 65.9745 297.446C71.4913 288.041 77.1963 278.313 82.2757 268.818L83.6488 266.253C94.7452 245.528 106.22 224.099 112.593 201.355C115.626 190.53 119.401 177.057 110.966 166.709C101.914 155.604 86.3875 153.062 72.6883 150.82C68.9856 150.214 65.488 149.641 62.1856 148.926C50.8073 146.459 38.9202 143.362 29.0673 137.453C14.227 128.554 4.28605 117.15 -2.21694 101.564C-5.38738 93.9653 -5.06535 85.4592 -4.41406 76.6837C-2.88034 56.0346 8.9568 35.7758 20.4074 16.1842C24.497 9.18728 28.3591 2.57772 31.6704 -3.91385C34.998 -10.4378 39.1391 -18.5574 41.9484 -26.3955C51.5443 -53.176 47.9592 -68.1195 27.7404 -85.6159C25.8182 -87.2793 23.5813 -89.0278 21.0928 -90.8133C-0.236215 -106.114 -25.9487 -113.759 -47.6883 -111.265L-47.6013 -110.507C-26.0447 -112.981 -0.530761 -105.386 20.648 -90.1938C23.1178 -88.4221 25.3361 -86.6876 27.2411 -85.0391C47.1645 -67.7986 50.6947 -53.0655 41.23 -26.653C38.4375 -18.8608 34.3086 -10.7654 30.9909 -4.2608C27.6899 2.21097 23.832 8.81257 19.749 15.7992C8.25416 35.4681 -3.62832 55.802 -5.17442 76.6274C-5.83299 85.4987 -6.15616 94.1036 -2.92074 101.858C3.64833 117.601 13.688 129.12 28.6751 138.108C38.6224 144.073 50.5819 147.191 62.0239 149.671C65.3459 150.391 68.8521 150.965 72.565 151.573C86.1307 153.793 101.506 156.31 110.375 167.191C118.56 177.232 114.844 190.494 111.859 201.15C105.508 223.813 94.0538 245.205 82.9769 265.892L81.6029 268.458C76.5314 277.941 70.8314 287.662 65.3168 297.06C52.7987 318.405 39.8548 340.473 31.8054 363.52C27.9826 374.466 28.664 385.851 29.3225 396.862C29.7256 403.61 30.1435 410.589 29.5357 417.449C28.4898 429.254 24.3 439.52 20.2475 449.449C13.8102 465.222 7.72921 480.121 14.3085 499.614L14.7669 500.973C19.3591 514.558 24.1078 528.606 22.7139 542.969C22.2604 547.64 20.0503 552.894 17.7108 558.456C13.6869 568.023 9.52647 577.914 14.0693 585.828C15.5083 588.333 17.8774 589.978 20.1681 591.57C22.6576 593.299 25.009 594.932 26.2801 597.578C29.1868 603.625 26.1906 610.638 22.8723 617.303L23.5553 617.643Z" fill="#412BA8"/>
<path d="M28.1799 620.476C31.0671 615.085 35.4306 606.938 32.1194 600.448C30.7884 597.839 28.3345 596.318 25.961 594.847C23.7284 593.464 21.4197 592.033 20.1214 589.707C16.2039 582.687 20.3792 572.412 24.417 562.473C26.9338 556.28 29.3102 550.43 29.6566 545.574C30.6712 531.33 26.781 517.116 23.0192 503.369C22.4523 501.298 21.8888 499.24 21.3464 497.195C17.4219 482.406 18.2181 470.356 24.0102 456.902C26.1627 451.9 29.001 446.89 31.7459 442.045C37.1741 432.463 42.7882 422.554 43.891 411.612C44.7112 403.485 43.3262 395.296 41.9867 387.376C40.6576 379.514 39.2828 371.384 40.1028 363.403C42.4045 341.035 56.6704 316.984 69.2547 295.763C73.7951 288.107 78.0853 280.874 81.6597 274.031L83.907 269.733C95.4949 247.587 107.478 224.687 115.068 200.671L115.149 200.413C118.616 189.446 123.364 174.427 117.55 163.668C110.243 150.145 92.582 147.624 78.391 145.598C75.3104 145.158 72.4007 144.742 69.7211 144.243C58.569 142.162 45.6823 139.293 34.6567 133.781C18.9349 125.92 8.12204 114.456 1.60057 98.7306C-1.74903 90.6541 -1.3252 81.7543 -0.468403 74.1136C1.75941 54.2519 13.6557 34.5043 25.1592 15.4087C29.6731 7.91717 33.9361 0.84047 37.5705 -6.14779C40.7491 -12.2589 44.7386 -20.3085 47.4007 -28.3813C55.8468 -53.9914 51.5397 -69.6622 30.9423 -88.2665C28.761 -90.237 26.5087 -92.099 24.2485 -93.801C3.13207 -109.7 -23.1364 -117.27 -46.0199 -114.053L-45.9134 -113.297C-23.2262 -116.488 2.83104 -108.971 23.7897 -93.192C26.0317 -91.5032 28.2664 -89.6557 30.4308 -87.7009C50.756 -69.3418 55.0074 -53.8817 46.6767 -28.6212C44.0318 -20.6002 40.0592 -12.586 36.894 -6.50046C33.2707 0.466683 29.0136 7.53246 24.5064 15.0142C12.9587 34.1825 1.02006 54.0009 -1.22598 74.0281C-2.09361 81.7654 -2.51988 90.7857 0.896219 99.0223C7.49124 114.924 18.4231 126.516 34.3158 134.462C45.4258 140.017 58.3776 142.902 69.581 144.992C72.2776 145.495 75.1946 145.911 78.2838 146.352C92.3052 148.354 109.755 150.845 116.88 164.03C122.54 174.504 117.848 189.346 114.422 200.183L114.341 200.44C106.771 224.392 94.8043 247.262 83.2316 269.379L80.9835 273.676C77.4195 280.502 73.1343 287.726 68.5989 295.373C55.973 316.664 41.6619 340.79 39.3449 363.324C38.5133 371.409 39.8968 379.591 41.235 387.503C42.5657 395.372 43.942 403.51 43.1323 411.534C42.0449 422.317 36.4718 432.155 31.0824 441.668C28.327 446.531 25.4785 451.559 23.3096 456.6C17.4446 470.224 16.6376 482.423 20.6093 497.39C21.1522 499.437 21.7163 501.497 22.2837 503.57C26.028 517.255 29.9009 531.406 28.8958 545.52C28.5578 550.256 26.2034 556.051 23.7103 562.186C19.6054 572.291 15.3591 582.74 19.4557 590.079C20.8498 592.578 23.2438 594.061 25.559 595.495C27.9486 596.976 30.2055 598.374 31.4394 600.794C34.5701 606.93 30.3199 614.865 27.5073 620.115L28.1799 620.476Z" fill="#412BA8"/>
<path d="M32.8042 623.309L32.9444 623.063C36.0876 617.535 40.8374 609.182 37.0128 602.795C35.738 600.667 33.4311 599.533 31.1989 598.437C28.7749 597.248 26.4843 596.123 25.3378 593.836C21.9763 587.138 26.1339 576.899 30.1549 566.998C32.5456 561.112 34.8039 555.551 35.2494 551.151C36.8047 535.815 33.3536 520.445 30.0164 505.581C29.2248 502.057 28.4067 498.414 27.678 494.86C24.2246 478.018 26.2948 464.12 34.3903 449.798C36.7387 445.638 39.5302 441.551 42.4834 437.219C49.4936 426.939 56.744 416.309 58.0201 404.472C58.9787 395.585 56.5491 386.964 54.2001 378.627C52.6856 373.253 51.1197 367.696 50.4764 362.123C47.938 340.127 61.287 315.957 73.0653 294.632C76.0694 289.194 78.9067 284.056 81.3345 279.209C82.5248 276.833 83.7189 274.456 84.9144 272.078C95.4131 251.189 106.27 229.588 114.518 207.341C114.875 206.378 115.246 205.39 115.626 204.378C120.464 191.493 126.484 175.457 122.662 162.201C117.902 145.695 99.123 143.121 84.034 141.053C81.5149 140.707 79.1365 140.382 76.8939 140.006C64.4181 137.913 51.3511 135.287 40.3071 130.286C23.6246 122.732 12.4397 111.411 6.11352 95.674C3.49167 89.1534 3.02533 81.0132 4.68814 70.7897C7.72425 52.1155 19.0665 33.4468 30.0385 15.3916C35.1158 7.03532 39.9118 -0.858295 43.9582 -8.77981C48.4119 -17.5003 51.3453 -24.4849 53.1895 -30.7613C60.4313 -55.4088 55.5141 -71.3402 34.4002 -91.6411C32.2443 -93.7141 29.9783 -95.6858 27.6644 -97.5021C6.73405 -113.932 -20.1508 -121.228 -44.2524 -117.02L-44.1212 -116.268C-20.2285 -120.44 6.43166 -113.2 27.1944 -96.902C29.4882 -95.1016 31.7352 -93.1465 33.8727 -91.0913C54.7405 -71.027 59.6039 -55.2959 52.459 -30.9764C50.6285 -24.7466 47.7117 -17.8038 43.2796 -9.12646C39.2471 -1.23017 34.4576 6.65205 29.3875 14.9956C18.3795 33.1125 6.99661 51.8458 3.93604 70.6672C2.25083 81.0322 2.73164 89.3051 5.40659 95.9588C11.81 111.886 23.1232 123.342 39.9936 130.981C51.1169 136.018 64.2418 138.657 76.7685 140.758C79.0222 141.136 81.4067 141.463 83.9308 141.809C98.8011 143.847 117.307 146.384 121.93 162.412C125.682 175.426 119.711 191.331 114.913 204.11C114.533 205.122 114.161 206.112 113.803 207.076C105.57 229.283 94.7228 250.865 84.2331 271.736C83.0379 274.114 81.8429 276.491 80.653 278.867C78.2322 283.701 75.3981 288.832 72.3977 294.264C60.5645 315.688 47.1525 339.971 49.7193 362.21C50.3696 367.844 51.9433 373.431 53.4661 378.833C55.7961 387.101 58.2051 395.65 57.2623 404.39C56.006 416.038 48.812 426.589 41.8537 436.789C38.8896 441.135 36.0995 445.224 33.7263 449.423C25.5345 463.917 23.4381 477.977 26.931 495.013C27.6609 498.574 28.4803 502.221 29.2726 505.749C32.596 520.553 36.0337 535.861 34.4909 551.074C34.0557 555.365 31.8182 560.876 29.4492 566.711C25.3642 576.77 21.1402 587.172 24.6564 594.179C25.9187 596.694 28.4321 597.928 30.8632 599.122C33.0933 600.217 35.1999 601.252 36.3586 603.187C39.9548 609.191 35.3368 617.312 32.2817 622.686L32.1415 622.932L32.8042 623.309Z" fill="#412BA8"/>
<path d="M38.8356 623.77C44.0394 614.756 45.0693 609.579 37.3574 602.358C36.2154 601.289 35.2173 600.475 34.3363 599.758C31.07 597.096 29.8478 596.099 30.4349 589.496C30.9663 583.524 33.3473 578.007 35.8688 572.165C38.5008 566.066 41.2226 559.759 41.6951 552.825C42.5792 539.847 39.871 526.696 37.2519 513.979C34.094 498.64 30.8281 482.78 33.9303 467.275C36.5625 454.124 45.152 443.039 53.461 432.32C62.4247 420.753 70.8917 409.829 72.6268 396.458C73.8077 387.352 69.8168 378.615 65.9575 370.166C63.0157 363.725 59.9731 357.064 59.1535 350.195C57.7523 338.455 62.8873 326.277 67.4173 315.534C67.938 314.298 68.4528 313.078 68.9515 311.874C74.6734 298.053 81.2601 284.328 87.6303 271.056C90.0821 265.946 92.6173 260.663 95.0677 255.449L95.3867 254.771C104.819 234.7 114.573 213.946 121.264 192.521L121.864 190.607C125.352 179.534 129.692 165.753 125.632 154.987C120.427 141.183 103.428 138.923 89.7698 137.106C87.6236 136.821 85.5965 136.551 83.6952 136.248C53.1233 131.374 20.6211 122.356 11.3558 92.4133C3.52633 67.1114 21.0055 38.5831 36.4257 13.4111C41.9532 4.38973 47.1739 -4.13175 50.7885 -11.8309C67.0358 -46.4335 63.4928 -69.9938 38.1504 -95.8626C17.966 -116.466 -13.6326 -126.025 -42.3512 -120.215L-42.1999 -119.467C-13.7282 -125.227 17.5973 -115.752 37.6054 -95.3291C62.6805 -69.7325 66.183 -46.4128 50.0979 -12.1548C46.5012 -4.49521 41.2907 4.00988 35.7751 13.0125C20.2698 38.3228 2.6958 67.0072 10.6268 92.6382C20.0155 122.98 52.7713 132.09 83.575 137C85.4858 137.305 87.5176 137.575 89.6687 137.862C103.126 139.651 119.874 141.879 124.918 155.256C128.885 165.775 124.588 179.416 121.137 190.378L120.535 192.293C113.86 213.669 104.117 234.399 94.6956 254.447L94.3775 255.124C91.9286 260.336 89.3934 265.618 86.9416 270.725C80.5675 284.008 73.9764 297.742 68.2459 311.582C67.7486 312.785 67.2344 314.003 66.7144 315.237C62.1476 326.069 56.9712 338.345 58.3958 350.285C59.2294 357.273 62.2971 363.989 65.2634 370.483C69.2537 379.219 73.0229 387.47 71.8695 396.36C70.1624 409.526 61.7563 420.372 52.8578 431.852C44.4957 442.639 35.8503 453.794 33.1824 467.125C30.0492 482.782 33.3315 498.72 36.5051 514.132C39.1137 526.799 41.8109 539.898 40.9339 552.773C40.47 559.577 37.7749 565.822 35.1683 571.863C32.7344 577.502 30.2174 583.334 29.6752 589.429C29.0521 596.435 30.5573 597.661 33.8544 600.349C34.7253 601.059 35.7132 601.864 36.8359 602.915C44.8276 610.397 43.0621 615.371 36.776 625.747L37.4283 626.143C37.9251 625.323 38.3956 624.532 38.8356 623.77Z" fill="#412BA8"/>
</g>
</svg>
