<svg width="550" height="595" viewBox="0 0 550 595" fill="none" xmlns="http://www.w3.org/2000/svg">
<g opacity="0.7">
<path d="M927.752 -192.148C960.698 -140.722 936.094 -67.0786 894.469 -28.3886C873.248 -8.66602 847.199 6.84903 822.01 21.8525L818.474 23.9592C816.427 25.1795 814.217 26.4703 811.89 27.829C788.203 41.6635 752.408 62.5697 751.022 89.6649C749.956 110.53 772.407 127.049 790.448 140.322C795.639 144.142 800.543 147.75 804.49 151.151C826.205 169.859 839.26 190.922 843.291 213.757C847.435 237.232 831.388 249.522 815.869 261.408C812.403 264.064 808.817 266.81 805.521 269.633C780.696 290.89 762.452 317.839 749.755 352.009C744.87 365.155 740.431 378.685 736.138 391.771C725.898 422.98 715.31 455.251 697.983 484.264C690.556 496.699 681.705 508.953 673.145 520.804C664.261 533.104 655.075 545.822 647.312 558.943C647.193 559.144 635.693 579.263 641.09 585.349C643.078 587.59 647.012 587.439 652.784 584.899L652.308 583.818C647.06 586.127 643.583 586.378 641.974 584.565C638.183 580.289 644.751 565.593 648.329 559.545C656.064 546.47 665.236 533.774 674.104 521.496C682.678 509.625 691.544 497.35 698.998 484.87C716.393 455.745 727.001 423.41 737.261 392.139C741.551 379.065 745.986 365.545 750.863 352.42C763.487 318.446 781.613 291.663 806.29 270.531C809.562 267.729 813.134 264.992 816.589 262.347C832.386 250.247 848.723 237.736 844.454 213.552C840.376 190.441 827.189 169.145 805.262 150.254C801.281 146.825 796.359 143.203 791.148 139.37C773.336 126.265 751.169 109.955 752.203 89.7249C753.558 63.2664 789.02 42.5555 812.486 28.8502C814.816 27.4892 817.029 26.1963 819.079 24.9751L822.614 22.868C847.858 7.83196 873.961 -7.7153 895.273 -27.5229C916.584 -47.3116 932.958 -75.463 940.231 -104.745C948.326 -137.325 944.247 -168.591 928.748 -192.785L927.752 -192.148Z" fill="#412BA8"/>
<path d="M922.225 -198.278C954.733 -146.106 923.964 -73.7043 878.482 -32.054C856.077 -11.5342 829.68 5.74563 802.34 23.103C799.555 24.8705 796.467 26.758 793.198 28.7566C768.798 43.6729 735.381 64.1002 733.827 90.6134C732.437 114.35 758.196 132.001 783.107 149.069C800.187 160.773 816.321 171.828 823.581 184.395C829.231 194.177 833.476 206.225 834.657 215.839C836.39 229.924 829.191 244.459 816.308 252.868C809.123 257.558 801.155 264.721 792.62 274.165C775.005 293.657 761.646 314.892 751.778 339.086C748.9 346.142 746.529 353.808 744.396 361.042C742.814 366.405 741.267 371.752 739.726 377.077C729.682 411.798 720.194 444.594 703.094 476.04C700.008 481.716 696.466 487.653 692.567 493.687C684.654 505.933 675.567 517.914 666.778 529.501C657.323 541.966 647.546 554.855 639.119 568.208C638.987 568.416 626.012 589.143 631.134 595.594C632.908 597.828 636.538 598.012 641.923 596.141L641.534 595.024C636.675 596.713 633.487 596.656 632.059 594.858C628.255 590.068 636.819 574.066 640.119 568.839C648.519 555.529 658.28 542.66 667.72 530.215C676.522 518.611 685.624 506.612 693.56 494.329C697.476 488.27 701.033 482.306 704.133 476.605C721.294 445.046 730.799 412.19 740.862 377.405C742.403 372.082 743.948 366.738 745.53 361.376C747.654 354.172 750.014 346.539 752.873 339.532C762.688 315.468 775.976 294.346 793.498 274.957C801.961 265.59 809.853 258.494 816.955 253.857C830.211 245.206 837.619 230.224 835.832 215.693C834.632 205.933 830.33 193.713 824.606 183.803C817.211 171.004 800.97 159.876 783.775 148.094C759.136 131.21 733.658 113.752 735.008 90.6824C736.524 64.7857 769.638 44.5438 793.816 29.7648C797.089 27.7639 800.18 25.8739 802.973 24.101C830.36 6.71367 856.805 -10.5979 879.281 -31.1833C901.909 -51.9035 920.343 -80.1206 929.84 -108.573C937.744 -132.256 943.013 -167.152 923.23 -198.904L922.225 -198.278Z" fill="#412BA8"/>
<path d="M916.664 -204.403C950.401 -148.973 908.826 -78.9518 862.989 -35.8719C838.791 -13.1223 809.897 7.08768 787.427 22.1527C783.704 24.6492 779.414 27.334 774.872 30.1758C751.141 45.0249 718.639 65.3618 716.418 91.382C714.279 116.44 745.691 136.351 773.404 153.919C790.733 164.905 807.101 175.281 814.293 185.875C821.518 196.52 825.189 206.558 825.845 217.468C826.823 233.757 816.383 242.738 805.328 252.246C804.18 253.233 803.029 254.223 801.886 255.226C793.1 262.933 785.487 272.451 780.65 279.075C765.567 299.732 754.244 322.024 746.035 347.224C743.691 354.417 741.735 362.203 739.932 369.562C730.648 407.455 719.815 447.529 698.678 484.316C695.483 489.875 691.788 495.739 687.694 501.746C679.614 513.599 670.36 525.171 661.412 536.362C651.417 548.862 641.082 561.787 632.235 575.268C628.875 580.388 618.252 597.584 622.631 603.922C624.225 606.231 627.548 606.842 632.505 605.738L632.248 604.585C627.807 605.573 624.899 605.124 623.603 603.25C619.543 597.373 630.904 579.45 633.223 575.917C642.04 562.483 652.357 549.579 662.335 537.101C671.298 525.892 680.565 514.302 688.671 502.411C692.782 496.38 696.493 490.49 699.703 484.906C720.917 447.985 731.776 407.819 741.081 369.844C742.878 362.507 744.828 354.745 747.159 347.592C755.329 322.511 766.596 300.328 781.605 279.773C786.407 273.197 793.955 263.756 802.666 256.115C803.805 255.115 804.954 254.128 806.099 253.143C817.382 243.439 828.038 234.27 827.024 217.398C826.355 206.268 822.62 196.04 815.271 185.211C807.942 174.414 791.472 163.975 774.037 152.922C746.608 135.533 715.519 115.826 717.596 91.4829C719.767 66.05 751.979 45.895 775.499 31.179C780.049 28.3313 784.347 25.6422 788.086 23.1354C810.592 8.04504 839.539 -12.2017 863.798 -35.0092C888.255 -58.0008 908.627 -86.1523 919.706 -112.258C934.543 -147.215 933.86 -178.424 917.674 -205.017L916.664 -204.403Z" fill="#412BA8"/>
<path d="M911.06 -210.516C947.072 -152.4 896.819 -85.6553 848.321 -39.906C823.391 -16.3868 797.637 4.67252 773.842 20.9958C769.35 24.0781 764.06 27.3742 758.461 30.8643C733.385 46.493 702.18 65.9406 698.948 91.9489C695.636 118.614 731.625 139.994 763.377 158.857C780.21 168.857 796.111 178.303 803.566 187.181C812.955 198.366 817.258 208.616 816.716 218.518C816.012 231.435 806.322 240.563 796.943 249.393C793.777 252.375 790.787 255.191 788.135 258.141C781.988 264.986 775.6 273.997 769.662 284.2C757.251 305.524 747.939 328.653 741.193 354.909C739.375 361.981 737.85 369.36 736.236 377.173L736.174 377.47C726.374 424.894 713.559 459.971 694.624 491.204C690.356 498.244 686.756 503.671 683.292 508.281C676.343 517.532 668.742 526.447 660.694 535.885C648.796 549.839 636.493 564.269 626.662 579.69L626.329 580.21C622.442 586.293 612.114 602.451 616.198 609.815C617.577 612.3 620.425 613.538 624.664 613.493L624.651 612.311C620.88 612.351 618.384 611.318 617.232 609.241C613.49 602.494 623.904 586.201 627.325 580.847L627.659 580.326C637.446 564.973 649.722 550.576 661.594 536.653C669.299 527.616 677.267 518.272 684.238 508.992C687.725 504.349 691.347 498.892 695.635 491.817C714.643 460.464 727.503 425.272 737.333 377.71L737.394 377.413C739.005 369.615 740.527 362.249 742.338 355.203C749.057 329.055 758.329 306.024 770.685 284.795C776.582 274.661 782.92 265.718 789.014 258.933C791.63 256.019 794.604 253.219 797.754 250.253C807.299 241.264 817.167 231.973 817.897 218.582C818.455 208.367 814.064 197.847 804.471 186.422C796.888 177.389 780.903 167.893 763.982 157.84C732.54 139.163 696.905 117.994 700.122 92.0945C703.281 66.6481 734.224 47.3629 759.086 31.8677C764.697 28.3707 769.997 25.0675 774.51 21.9719C798.355 5.61391 824.158 -15.4851 849.132 -39.0452C897.94 -85.0912 948.496 -152.344 912.064 -211.137L911.06 -210.516Z" fill="#412BA8"/>
<path d="M905.384 -216.627C948.154 -146.061 864.125 -69.1416 836.516 -43.8657C834.351 -41.8835 832.181 -39.8914 830.004 -37.8934C808.22 -17.8936 785.695 2.7863 761.244 19.3959C756.355 22.7166 750.638 26.2447 744.587 29.9789C718.645 45.9889 686.363 65.9121 681.616 92.2959C676.512 120.674 718.955 144.451 753.059 163.556C769.008 172.491 784.072 180.929 791.413 188.289C797.599 194.492 809.114 206.036 807.128 218.921C805.563 229.086 795.756 239.128 787.104 247.988C782.477 252.725 778.108 257.199 775.12 261.46C769.899 268.907 764.549 278.566 759.65 289.394C749.963 310.806 742.569 334.57 737.045 362.046C735.918 367.652 734.902 373.363 733.827 379.408L732.886 384.682C727.339 415.551 716.818 460.707 689.609 496.296C686.658 500.156 683.486 504.02 680.129 508.112C678.903 509.607 677.671 511.108 676.448 512.613C675.805 513.404 674.587 514.836 672.923 516.794C656.372 536.264 606.007 595.515 612.19 614.123C613.105 616.874 615.205 618.644 618.434 619.382L618.697 618.229C615.86 617.581 614.098 616.115 613.311 613.749C609.348 601.821 629.707 569.459 673.823 517.559C675.495 515.593 676.719 514.154 677.365 513.359C678.587 511.855 679.818 510.355 681.043 508.862C684.259 504.943 687.584 500.89 690.548 497.014C717.912 461.222 728.481 415.881 734.05 384.891L734.991 379.615C736.065 373.576 737.08 367.872 738.204 362.279C743.71 334.892 751.078 311.21 760.728 289.881C765.597 279.119 770.908 269.526 776.089 262.138C779.021 257.957 783.358 253.516 787.95 248.814C796.726 239.827 806.674 229.641 808.298 219.1C810.373 205.625 798.584 193.805 792.25 187.454C784.794 179.979 770.355 171.89 753.638 162.525C719.861 143.603 677.824 120.055 682.78 92.506C687.434 66.6394 719.466 46.8717 745.208 30.9852C751.272 27.2437 756.999 23.7096 761.909 20.374C786.431 3.71655 808.99 -16.994 830.804 -37.0216C832.98 -39.0192 835.15 -41.0112 837.314 -42.9927C857.24 -61.2354 885.744 -89.1464 903.146 -120.821C922.608 -156.245 923.702 -188.685 906.395 -217.239L905.384 -216.627Z" fill="#412BA8"/>
<path d="M899.628 -222.73C936.926 -159.541 881.882 -96.1877 829.752 -48.0474L826.146 -44.7155C802.614 -22.9663 778.282 -0.476308 750.795 17.2817C745.657 20.601 739.785 24.0842 733.569 27.7714C705.994 44.1295 671.676 64.4879 664.653 92.4085C656.974 122.941 704.414 148.033 742.533 168.195C757.781 176.26 770.95 183.225 777.897 189.199C785.624 195.84 798.495 206.905 796.76 218.523C795.564 226.536 786.973 235.893 778.665 244.942C772.459 251.702 766.04 258.692 762.841 265.041C758.185 274.275 753.929 284.473 750.534 294.532C743.47 315.453 738.002 338.976 733.324 368.559C732.896 371.268 732.471 374.011 732.04 376.786C731.312 381.482 730.571 386.267 729.777 391.127C722.959 432.84 708.223 466.517 681.993 500.323C677.931 505.559 673.623 511.006 669.457 516.274L669.205 516.593C668.161 517.912 666.134 520.285 663.569 523.29C646.88 542.835 602.548 594.752 607.135 616.085C607.906 619.671 610.007 622.295 613.378 623.884L613.882 622.814C610.819 621.371 608.99 619.088 608.291 615.836C603.827 595.076 647.882 543.481 664.468 524.058C667.142 520.926 669.074 518.663 670.132 517.326L670.384 517.007C674.552 511.738 678.862 506.288 682.927 501.048C709.284 467.077 724.092 433.235 730.943 391.317C731.739 386.454 732.48 381.665 733.209 376.967C733.639 374.193 734.063 371.451 734.492 368.743C739.159 339.228 744.612 315.767 751.654 294.911C755.032 284.903 759.265 274.758 763.896 265.573C767.023 259.371 773.384 252.442 779.535 245.742C787.964 236.561 796.68 227.069 797.93 218.697C799.761 206.434 786.58 195.103 778.705 188.333C771.619 182.242 758.397 175.248 743.086 167.15C705.332 147.181 658.348 122.329 665.8 92.6966C672.701 65.2568 706.785 45.0366 734.173 28.7882C740.399 25.0949 746.28 21.6061 751.436 18.2753C779.009 0.46148 803.38 -22.0634 826.949 -43.8471L830.555 -47.1795C852.816 -67.7349 880.531 -95.25 897.399 -125.791C916.907 -161.113 918 -193.931 900.646 -223.331L899.628 -222.73Z" fill="#412BA8"/>
<path d="M893.78 -228.824C910.716 -199.121 910.197 -166.556 892.239 -132.034C876.235 -101.266 849.015 -73.4953 827.09 -52.7376C803.651 -30.5473 775.89 -5.18545 742.985 14.9815C737.232 18.5075 730.767 22.1457 723.922 25.9976C694.667 42.4596 658.256 62.948 648.332 92.2804C637.315 124.843 691.432 152.125 730.947 172.045C744.741 178.999 756.655 185.005 763.113 189.914C772.813 197.288 787.257 211.245 784.72 217.306C782.679 222.183 777.889 228.295 772.342 235.373C764.466 245.423 755.538 256.816 751.238 268.746C747.78 278.336 744.641 288.976 742.16 299.515C736.406 323.965 732.987 348.887 729.709 374.396C728.685 382.362 727.639 389.676 726.511 396.755C719.417 441.285 698.569 471.807 674.08 504.304C670.658 508.844 667.143 513.436 663.609 518.052L661.794 520.423C660.334 522.332 657.789 525.357 654.569 529.187C636.982 550.104 600.385 593.629 603.292 616.685C603.856 621.162 605.901 624.69 609.37 627.171L610.057 626.209C606.867 623.928 604.985 620.674 604.464 616.538C601.622 593.995 637.994 550.736 655.474 529.948C658.704 526.106 661.256 523.071 662.733 521.141L664.548 518.77C668.083 514.152 671.601 509.558 675.024 505.015C699.61 472.39 720.542 441.739 727.679 396.941C728.808 389.85 729.856 382.525 730.881 374.546C734.155 349.069 737.569 324.181 743.311 299.786C745.782 289.291 748.907 278.695 752.35 269.146C756.586 257.395 765.451 246.082 773.273 236.102C778.872 228.957 783.707 222.787 785.81 217.763C789.603 208.704 764.086 189.169 763.828 188.973C757.284 183.998 745.325 177.97 731.479 170.989C692.351 151.264 638.763 124.249 649.451 92.6589C659.228 63.7579 695.42 43.3909 724.502 27.0282C731.356 23.1703 737.83 19.5274 743.604 15.9888C776.604 -4.23661 804.42 -29.6484 827.902 -51.8786C878.738 -100.006 932.285 -163.678 894.807 -229.41L893.78 -228.824Z" fill="#412BA8"/>
<path d="M887.827 -234.916C924.226 -165.826 875.007 -104.035 828.044 -57.8768C798.322 -28.6753 769.431 -6.26869 737.12 12.638C730.645 16.427 723.403 20.3031 715.737 24.4065C684.668 41.0391 645.999 61.7367 632.961 91.9132C617.815 126.968 678.38 156.129 718.457 175.426C730.699 181.32 741.271 186.41 747.195 190.455C747.927 190.954 748.784 191.514 749.728 192.13C757.829 197.42 772.911 207.265 766.233 217.932L763.82 221.774C753.676 237.896 744.916 251.819 740.161 272.492C737.92 282.238 735.951 292.93 734.31 304.271C731.913 320.839 730.167 337.915 728.478 354.429C727.635 362.673 726.763 371.199 725.823 379.525C725.044 386.428 723.995 393.832 722.704 401.533C716.307 439.696 695.233 468.327 672.922 498.639C670.564 501.842 668.193 505.065 665.823 508.318C663.109 512.046 660.347 515.794 657.582 519.549L654.162 524.194C652.579 526.345 650.031 529.496 646.803 533.486C626.543 558.53 584.386 610.641 606.314 629.417L607.083 628.519C586.028 610.491 629.261 557.049 647.722 534.229C650.959 530.228 653.516 527.068 655.114 524.894L658.534 520.25C661.3 516.494 664.063 512.744 666.779 509.014C669.148 505.762 671.518 502.542 673.875 499.34C696.271 468.911 717.427 440.17 723.87 401.729C725.164 394.007 726.217 386.581 726.998 379.658C727.939 371.325 728.811 362.797 729.655 354.549C731.342 338.047 733.087 320.984 735.48 304.44C737.117 293.131 739.08 282.471 741.314 272.756C746.023 252.279 754.734 238.435 764.82 222.404L767.236 218.559C774.529 206.909 758.816 196.651 750.374 191.14C749.438 190.529 748.588 189.974 747.862 189.478C741.865 185.383 731.256 180.275 718.971 174.36C679.3 155.259 619.351 126.395 634.047 92.3816C646.921 62.5871 685.386 41.994 716.296 25.4492C723.973 21.3403 731.224 17.4588 737.717 13.6592C770.115 -5.29935 799.081 -27.7621 828.872 -57.0326C876.107 -103.458 925.636 -165.687 888.874 -235.466L887.827 -234.916Z" fill="#412BA8"/>
<path d="M881.769 -240.99C918.128 -167.446 874.28 -107.448 832.017 -63.3947C805.948 -36.2309 776.199 -14.1596 732.547 10.373C725.634 14.2578 717.798 18.2867 709.501 22.5518C676.092 39.7296 634.515 61.1056 618.715 91.6922C614.738 99.3915 614.081 107.25 616.763 115.047C626.006 141.926 673.491 163.798 704.914 178.271C715.633 183.207 724.889 187.47 730.317 190.836C741.162 197.563 752.374 205.903 748.085 219.771C746.013 226.472 743.245 233.006 740.569 239.326C735.724 250.766 730.715 262.594 729.395 276.213C728.19 288.644 727.304 299.286 726.687 308.747C726.268 315.165 725.888 321.606 725.507 328.053C724.42 346.473 723.296 365.521 721.233 383.932C720.511 390.378 719.427 397.417 717.919 405.451C711.894 437.557 690.814 466.3 670.429 494.097C665.778 500.437 661.386 506.426 657.183 512.442C655.194 515.287 653.188 518.137 651.183 520.982C649.537 523.319 647.892 525.655 646.26 527.984C644.46 530.552 641.788 534.037 638.693 538.072C619.573 563.002 583.982 609.406 604.035 630.727L604.896 629.916C585.532 609.328 620.725 563.443 639.631 538.791C642.734 534.745 645.414 531.251 647.229 528.662C648.859 526.334 650.504 523.999 652.15 521.662C654.155 518.815 656.163 515.965 658.152 513.118C662.348 507.114 666.736 501.13 671.382 494.795C691.845 466.892 713.006 438.039 719.081 405.669C720.595 397.606 721.683 390.538 722.408 384.063C724.474 365.621 725.6 346.558 726.688 328.122C727.068 321.677 727.448 315.239 727.866 308.824C728.483 299.375 729.367 288.745 730.571 276.327C731.873 262.887 736.847 251.144 741.657 239.788C744.344 233.441 747.124 226.877 749.214 220.119C754.132 204.218 739.044 194.859 730.939 189.83C725.449 186.427 716.161 182.149 705.408 177.196C674.168 162.807 626.958 141.063 617.879 114.662C615.308 107.182 615.942 99.6359 619.765 92.2335C635.386 61.9843 676.781 40.7021 710.041 23.6026C718.347 19.332 726.193 15.2989 733.126 11.4027C776.885 -13.1904 806.704 -35.3138 832.869 -62.5771C861.589 -92.5141 879.373 -118.651 888.834 -144.834C900.709 -177.697 898.745 -209.321 882.828 -241.515L881.769 -240.99Z" fill="#412BA8"/>
<path d="M875.824 -247.086C884.971 -224.643 895.032 -195.09 891.62 -165.523C887.274 -127.841 863.429 -96.9643 838.308 -69.2111C806.586 -34.1664 765.192 -11.6135 728.667 8.28513C721.288 12.3058 713.268 16.3872 704.778 20.7074C667.995 39.4283 626.31 60.6458 606.004 91.8226C601.064 99.4095 599.691 107.232 601.921 115.072C609.438 141.491 656.326 163.523 687.353 178.102C698.414 183.3 707.966 187.789 712.634 191.059C718.28 195.015 731.384 205.979 731.127 222.292C730.964 232.633 727.737 243.372 724.616 253.758C721.872 262.889 719.28 271.515 718.649 279.802C718.154 286.312 718.404 293.782 718.646 301.007C718.778 304.967 718.915 309.062 718.926 312.924C718.991 337.04 718.615 362.781 715.45 387.628C714.958 391.492 714.137 395.592 713.342 399.556C712.741 402.554 712.119 405.655 711.666 408.549C709.709 421.035 700.353 435.544 692.099 448.346C690.036 451.545 688.088 454.566 686.343 457.423C673.969 477.673 660.665 497.899 648.131 516.741C646.84 518.682 645.545 520.62 644.253 522.553C642.168 525.674 640.091 528.78 638.056 531.863C636.062 534.883 633.582 538.379 630.71 542.427C613.642 566.484 585.075 606.749 602.417 631.232L603.381 630.549C586.524 606.75 614.788 566.912 631.674 543.111C634.552 539.054 637.037 535.552 639.042 532.514C641.076 529.433 643.151 526.328 645.235 523.21C646.528 521.277 647.824 519.338 649.116 517.396C661.656 498.544 674.967 478.306 687.351 458.039C689.089 455.195 691.034 452.179 693.093 448.986C701.411 436.086 710.837 421.465 712.833 408.732C713.283 405.863 713.875 402.912 714.501 399.789C715.3 395.804 716.126 391.683 716.624 387.777C719.796 362.864 720.173 337.076 720.108 312.921C720.098 309.04 719.96 304.936 719.828 300.967C719.587 293.774 719.338 286.337 719.828 279.892C720.45 271.732 723.024 263.167 725.749 254.098C728.893 243.634 732.144 232.815 732.309 222.31C732.575 205.43 719.113 194.154 713.312 190.09C708.561 186.762 699.425 182.468 687.856 177.032C657.023 162.544 610.429 140.649 603.059 114.749C600.926 107.252 602.25 99.7554 606.996 92.4674C627.127 61.5502 668.665 40.4137 705.315 21.7613C713.813 17.4368 721.839 13.3516 729.233 9.32341C765.841 -10.6205 807.338 -33.2328 839.185 -68.4167C864.438 -96.3164 888.411 -127.374 892.795 -165.387C896.237 -195.222 886.12 -224.958 876.92 -247.531L875.824 -247.086Z" fill="#412BA8"/>
<path d="M870.01 -253.174C879.708 -226.717 889.181 -198.634 889.233 -171.731C889.312 -131.18 866.222 -98.8569 846.097 -75.2266C818.232 -42.5049 778.866 -21.8736 740.793 -1.91326C735.475 0.873948 730.175 3.65214 724.928 6.45167C717.356 10.4929 709.354 14.5431 700.884 18.8318C662.504 38.2614 619.004 60.2846 594.879 92.0924C588.202 100.893 585.857 109.729 587.905 118.355C593.544 142.093 630.52 160.202 660.231 174.753C673.96 181.477 685.818 187.284 691.696 192.313C702.19 201.291 712.666 211.232 715.434 225.258C718.265 239.617 716.053 255.389 713.912 270.642C713.203 275.698 712.532 280.475 712.038 285.203C710.84 296.658 709.972 306.258 710.588 316.802C712.261 345.431 711.416 368.894 707.929 390.639C707.78 391.57 707.64 392.499 707.499 393.429C706.663 398.986 705.798 404.732 702.813 410.725C684.367 447.746 662.843 482.691 638.653 521.268L636.598 524.54C634.195 528.365 631.813 532.156 629.524 535.889C627.878 538.57 625.941 541.584 623.889 544.774C608.186 569.194 584.455 606.096 601.391 631.141L602.37 630.479C585.872 606.08 609.349 569.572 624.883 545.414C626.938 542.217 628.879 539.199 630.531 536.507C632.819 532.778 635.198 528.991 637.599 525.169L639.654 521.896C663.861 483.293 685.402 448.321 703.871 411.253C706.94 405.092 707.818 399.253 708.669 393.605C708.808 392.679 708.947 391.753 709.096 390.827C712.597 368.995 713.446 345.45 711.768 316.733C711.157 306.278 712.021 296.727 713.214 285.326C713.706 280.619 714.375 275.852 715.083 270.806C717.237 255.456 719.464 239.583 716.593 225.029C713.754 210.631 703.116 200.529 692.464 191.415C686.473 186.288 674.553 180.45 660.75 173.691C631.263 159.249 594.566 141.277 589.056 118.082C587.092 109.816 589.368 101.312 595.82 92.8059C619.781 61.2168 663.153 39.2581 701.417 19.8866C709.894 15.5948 717.9 11.5414 725.485 7.49522C730.73 4.6967 736.026 1.91996 741.341 -0.866414C779.516 -20.8797 818.987 -41.5702 846.997 -74.4598C867.254 -98.2447 890.495 -130.795 890.416 -171.734C890.363 -198.83 880.855 -227.024 871.119 -253.582L870.01 -253.174Z" fill="#412BA8"/>
<path d="M864.189 -259.271L865.585 -255.137C873.805 -230.814 883.123 -203.246 886.449 -177.884C890.83 -144.482 880.663 -113.803 854.456 -81.3361C828.248 -48.8702 787.276 -28.4488 747.653 -8.69832C738.3 -4.03681 729.465 0.36705 720.825 4.92654C713.259 8.91864 705.493 12.8595 697.269 17.0313C657.807 37.0553 613.065 59.7497 585.17 92.5053C577.245 101.805 574.159 111.288 575.998 120.692C580.935 145.946 619.955 166.209 648.444 181.004C658.189 186.065 666.604 190.436 672.051 194.157C681.81 200.826 694.76 212.204 701.037 228.539C707.375 245.035 706.87 263.948 706.382 282.239C706.303 285.189 706.225 288.1 706.179 290.956C706.145 293.079 706.115 295.207 706.085 297.335C705.966 305.768 705.843 314.488 705.442 322.638C704.235 347.16 702.763 370.994 698.068 393.016C696.733 399.277 693.686 405.834 690.157 413.427L690.084 413.584C673.101 450.132 652.364 485.628 632.31 519.956L628.073 527.211C625.462 531.682 622.995 535.905 620.647 540.112C619.573 542.036 618.433 544.041 617.252 546.118C603.271 570.709 584.123 604.388 600.794 630.536L601.791 629.9C585.502 604.353 604.447 571.032 618.28 546.702C619.462 544.623 620.604 542.615 621.679 540.689C624.022 536.492 626.486 532.274 629.094 527.807L633.331 520.552C653.399 486.201 674.15 450.68 691.157 414.083L691.23 413.926C694.788 406.268 697.862 399.654 699.224 393.262C703.938 371.155 705.414 347.268 706.623 322.696C707.025 314.525 707.148 305.794 707.268 297.352C707.298 295.225 707.327 293.097 707.362 290.975C707.408 288.124 707.486 285.216 707.564 282.27C708.056 263.864 708.563 244.831 702.141 228.114C695.756 211.496 682.616 199.945 672.719 193.181C667.213 189.419 658.768 185.033 648.989 179.955C620.713 165.271 581.987 145.16 577.159 120.464C575.393 111.432 578.391 102.284 586.07 93.2709C613.83 60.7111 658.442 38.06 697.806 18.0857C706.032 13.9114 713.803 9.96845 721.378 5.97112C730.005 1.41893 738.834 -2.98154 748.181 -7.64075C787.917 -27.4461 829.012 -47.9283 855.376 -80.5938C881.438 -112.881 891.986 -144.755 887.622 -178.038C884.28 -203.516 874.943 -231.142 866.706 -255.516L865.31 -259.651L864.189 -259.271Z" fill="#412BA8"/>
<path d="M858.363 -265.379C860.757 -257.419 863.343 -249.387 865.845 -241.62C883.259 -187.545 899.708 -136.469 862.339 -87.408C837.299 -54.5233 791.424 -32.72 750.952 -13.4819C738.506 -7.5653 726.751 -1.97797 715.906 3.74506C708.962 7.40902 701.937 11.0191 694.5 14.8416C653.625 35.8486 607.316 59.6605 576.732 93.0725C567.559 103.104 563.739 113.304 565.383 123.387C569.425 148.183 605.622 168.278 632.053 182.95C641.107 187.976 648.927 192.318 654.362 196.162C665.213 203.837 680.499 215.899 687.94 231.966C697.242 252.044 699.253 274.916 700.516 296.621C701.256 309.367 701.383 319.903 700.904 328.833C699.689 351.465 693.419 370.056 686.158 391.581L685.013 394.982C682.617 402.1 679.209 410.252 676.191 417.289C662.348 449.563 645.363 481.084 628.938 511.567C625.419 518.098 621.902 524.627 618.413 531.162L618.25 531.468C615.813 536.032 613.512 540.344 611.424 544.575L611.248 544.932C599.184 569.397 582.662 602.901 600.53 629.582L601.513 628.924C584.025 602.811 600.372 569.66 612.309 545.455L612.485 545.098C614.564 540.884 616.861 536.581 619.293 532.025L619.457 531.719C622.944 525.185 626.461 518.658 629.979 512.128C646.417 481.622 663.414 450.078 677.278 417.755C680.305 410.697 683.725 402.517 686.133 395.359L687.279 391.959C694.567 370.351 700.861 351.69 702.085 328.897C702.567 319.922 702.44 309.342 701.696 296.553C700.427 274.734 698.402 251.737 689.013 231.469C681.453 215.145 666.006 202.95 655.045 195.197C649.557 191.315 641.712 186.959 632.627 181.917C606.408 167.361 570.499 147.428 566.55 123.198C564.967 113.488 568.686 103.621 577.606 93.8711C608.022 60.6043 654.253 36.8551 695.04 15.8933C702.48 12.0701 709.508 8.45841 716.458 4.79027C727.281 -0.920614 739.026 -6.503 751.46 -12.4139C792.052 -31.7096 838.055 -53.5754 863.281 -86.6919C901.022 -136.244 884.482 -187.605 866.971 -241.982C864.471 -249.744 861.886 -257.771 859.494 -265.721L858.363 -265.379Z" fill="#412BA8"/>
<path d="M852.531 -271.497C860.037 -242.999 867.14 -217.186 878.068 -189.849C893.424 -151.437 890.508 -121.669 868.612 -93.3273C843.004 -60.1761 794.684 -37.6111 752.05 -17.6966C736.943 -10.6412 722.674 -3.97601 709.761 2.91593C703.689 6.15708 697.478 9.41539 691.187 12.7169C649.345 34.6708 601.914 59.5793 569.445 93.7841C558.965 104.831 554.438 115.954 555.988 126.845C559.479 151.367 592.111 170.435 618.331 185.757C626.011 190.245 633.265 194.483 638.697 198.279C651.305 207.089 666.959 219.279 676.173 235.485C688.836 257.756 692.889 282.775 695.005 302.083C696.33 314.18 696.65 325.442 695.927 334.652C694.089 358.104 687.216 376.104 671.415 398.85C668.06 403.68 665.698 409.956 663.198 416.599C662.548 418.327 661.884 420.091 661.186 421.877C650.154 450.091 636.505 477.773 623.305 504.544C618.137 515.026 612.793 525.864 607.686 536.575C605.39 541.387 603.504 545.381 601.863 549.304C590.857 575.615 583.07 603.405 600.464 628.387L601.434 627.712C584.366 603.198 592.077 575.76 602.953 549.76C604.584 545.862 606.464 541.882 608.752 537.084C613.856 526.381 619.198 515.546 624.365 505.068C637.576 478.275 651.236 450.569 662.286 422.308C662.986 420.518 663.652 418.749 664.304 417.017C666.778 410.443 669.114 404.235 672.386 399.525C688.318 376.589 695.249 358.427 697.105 334.744C697.833 325.463 697.513 314.124 696.18 301.954C694.051 282.533 689.97 257.361 677.201 234.902C667.869 218.49 652.084 206.191 639.374 197.311C633.903 193.488 626.628 189.237 618.927 184.737C592.927 169.544 560.569 150.635 557.158 126.68C555.661 116.163 560.083 105.37 570.302 94.5986C602.626 60.5309 649.976 35.6749 691.736 13.7648C698.03 10.4616 704.242 7.20186 710.317 3.95991C723.202 -2.91828 737.458 -9.57619 752.55 -16.6257C795.303 -36.5937 843.761 -59.2284 869.547 -92.6033C891.729 -121.315 894.695 -151.442 879.166 -190.288C868.262 -217.562 861.17 -243.338 853.673 -271.797L852.531 -271.497Z" fill="#412BA8"/>
<path d="M846.697 -277.621C847.228 -275.233 847.748 -272.866 848.265 -270.519C853.93 -244.754 859.281 -220.418 871.721 -195.564C887.541 -163.959 898.525 -130.38 872.009 -98.939C844.592 -66.4335 797.296 -43.9452 751.56 -22.2049C733.948 -13.8318 717.312 -5.92326 702.032 2.43253C697.324 5.0076 692.547 7.59621 687.723 10.2095C645.202 33.254 597.019 59.3733 563.208 94.6256C551.73 106.599 546.656 118.54 548.127 130.118C551.213 154.383 582.059 173.445 606.844 188.761C613.502 192.876 619.791 196.762 625.021 200.418C643.411 213.278 656.345 225.534 665.723 238.991C681.447 261.553 687.378 288.558 689.586 307.239C691.217 321.048 691.478 331.465 690.407 340.023C687.125 366.23 674.151 384.428 659.127 405.499C657.942 407.161 656.705 408.746 655.394 410.424C651.561 415.33 647.597 420.404 645.156 427.361C636.531 451.948 625.692 476.166 615.211 499.587C608.966 513.54 602.509 527.969 596.592 542.312C594.774 546.722 593.171 550.67 591.976 554.325C582.274 583.998 584.899 606.443 600.49 627.101L601.434 626.389C586.1 606.072 583.53 583.96 593.1 554.692C594.282 551.076 595.876 547.151 597.686 542.763C603.595 528.435 610.049 514.015 616.29 500.07C626.782 476.627 637.63 452.386 646.272 427.753C648.648 420.979 652.551 415.983 656.325 411.151C657.587 409.537 658.889 407.869 660.09 406.186C675.206 384.984 688.261 366.673 691.579 340.17C692.663 331.515 692.403 321.007 690.759 307.101C688.536 288.285 682.556 261.078 666.693 238.316C657.232 224.741 644.206 212.391 625.698 199.45C620.44 195.773 614.138 191.879 607.465 187.756C582.894 172.571 552.314 153.674 549.3 129.969C547.875 118.762 552.842 107.147 564.062 95.4438C597.711 60.3416 645.841 34.2528 688.286 11.25C693.111 8.63581 697.889 6.0453 702.599 3.46978C717.85 -4.86989 734.47 -12.7709 752.067 -21.1359C797.917 -42.9313 845.33 -65.4665 872.911 -98.1761C884.752 -112.215 890.01 -127.529 888.987 -144.99C888.138 -159.457 882.987 -175.695 872.778 -196.092C860.403 -220.815 855.068 -245.08 849.418 -270.772C848.902 -273.12 848.381 -275.488 847.851 -277.877L846.697 -277.621Z" fill="#412BA8"/>
<path d="M840.865 -283.746C846.272 -254.26 850.943 -228.796 864.94 -201.4C882.394 -167.238 898.879 -134.97 870.485 -103.888C840.952 -71.5584 793.83 -48.5919 748.248 -26.3658C728.42 -16.6973 709.692 -7.56569 692.41 2.25955L684.374 6.82075C641.339 31.2256 592.563 58.8843 557.946 95.5701C545.805 108.436 540.406 121.189 541.899 133.475C544.916 158.299 575.452 177.978 599.987 193.791C604.707 196.832 609.165 199.706 613.3 202.518C632.096 215.297 646.64 228.702 656.527 242.357C671.009 262.358 680.83 287.107 684.181 312.047C685.396 321.09 686.389 334.13 684.22 344.888C679.758 367.015 666.933 384.338 653.355 402.679C650.966 405.907 648.496 409.243 646.074 412.605C643.272 416.496 640.396 420.713 637.614 424.791C635.227 428.29 632.759 431.908 630.32 435.349C622.513 446.362 617.632 461.165 612.911 475.481C610.716 482.139 608.642 488.427 606.308 494.295C604.314 499.303 602.274 504.299 600.234 509.295C595.037 522.022 589.663 535.181 585.185 548.368C583.706 552.724 582.546 556.876 581.803 559.62C575.62 582.448 581.56 603.495 600.496 625.856L601.398 625.093C582.736 603.054 576.872 582.348 582.944 559.928C583.683 557.2 584.835 553.072 586.304 548.747C590.772 535.595 596.138 522.452 601.329 509.742C603.371 504.742 605.412 499.743 607.406 494.732C609.754 488.831 611.833 482.526 614.034 475.851C618.728 461.618 623.58 446.9 631.285 436.033C633.73 432.582 636.201 428.96 638.591 425.458C641.368 421.385 644.24 417.174 647.033 413.297C649.451 409.941 651.919 406.607 654.305 403.383C667.964 384.933 680.865 367.507 685.379 345.122C687.581 334.203 686.579 321.023 685.352 311.89C681.976 286.76 672.079 261.82 657.485 241.664C647.517 227.897 632.875 214.398 613.965 201.54C609.818 198.721 605.353 195.844 600.628 192.798C576.3 177.119 546.023 157.606 543.074 133.334C541.604 121.244 546.751 109.158 558.806 96.3823C593.304 59.7976 641.995 32.2123 684.957 7.84992L692.994 3.28847C710.244 -6.51884 728.956 -15.6431 748.765 -25.3028C794.449 -47.5779 841.687 -70.6094 871.357 -103.09C900.304 -134.778 883.638 -167.399 865.993 -201.937C852.074 -229.18 847.418 -254.565 842.027 -283.958L840.865 -283.746Z" fill="#412BA8"/>
<path d="M835.032 -289.872C839.121 -261.46 843.672 -235.65 857.998 -207.47L858.737 -206.018C877.167 -169.785 893.085 -138.493 863.646 -108.191C832.945 -76.5478 787.758 -53.7579 744.06 -31.6807C722.591 -20.8339 700.39 -9.61653 680.631 2.34514C676.781 4.67506 672.877 7.02318 668.938 9.39156C628.711 33.5759 583.125 60.989 553.586 96.5998C541.758 110.865 536.879 124.125 538.673 137.139C542.117 162.122 569.756 181.213 596.485 199.676C598.824 201.291 601.153 202.9 603.454 204.505C623.204 218.28 637.957 231.705 648.557 245.548C664.977 266.991 675.677 292.162 678.687 316.424C680.071 327.586 679.522 339.854 677.217 349.241C672.377 368.955 658.305 386.848 644.696 404.152C640.373 409.649 636.289 414.841 632.562 420.016C629.537 424.216 626.444 428.74 623.453 433.114C620.92 436.818 618.301 440.649 615.72 444.288C596.76 471.025 584.233 513.164 573.522 554.719C572.699 557.913 571.994 561.351 571.368 565.232C567.196 591.088 585.588 609.773 600.366 624.787L601.208 623.957C586.617 609.134 568.458 590.685 572.534 565.421C573.156 561.576 573.853 558.172 574.666 555.015C585.35 513.57 597.834 471.553 616.685 444.972C619.27 441.325 621.893 437.49 624.429 433.781C627.415 429.413 630.504 424.895 633.521 420.707C637.234 415.552 641.31 410.37 645.625 404.883C659.311 387.48 673.465 369.485 678.366 349.523C680.702 340.004 681.262 327.576 679.86 316.279C676.825 291.812 666.042 266.437 649.496 244.83C638.821 230.889 623.982 217.381 604.131 203.536C601.828 201.929 599.498 200.32 597.157 198.704C570.639 180.386 543.217 161.445 539.844 136.977C538.098 124.311 542.891 111.35 554.498 97.3546C583.9 61.8883 629.403 34.5406 669.546 10.4054C673.488 8.03619 677.392 5.68803 681.244 3.35645C700.964 -8.58176 723.144 -19.7876 744.594 -30.6247C788.378 -52.746 833.691 -75.6437 864.494 -107.366C894.523 -138.275 877.653 -171.441 859.791 -206.554L859.053 -208.005C844.809 -236.024 840.277 -261.735 836.203 -290.04L835.032 -289.872Z" fill="#412BA8"/>
<path d="M829.201 -295.998C832.413 -265.503 837.154 -241.114 850.849 -213.781C868.739 -178.072 885.639 -144.342 850.703 -111.716C819.033 -82.1373 777.418 -59.7326 737.174 -38.0653C713.341 -25.2337 688.697 -11.9657 666.481 2.61351C626.752 28.6845 581.861 60.361 550.152 97.6134C538.611 111.171 533.571 124.756 535.171 137.988C538.468 165.262 569.286 187.499 594.05 205.366L595.41 206.348C615.78 221.052 630.931 234.84 641.729 248.499C659.691 271.224 670.791 296.736 672.985 320.336C674.033 331.613 672.603 344.128 669.253 352.997C661.943 372.356 647.753 390.356 634.031 407.763C628.632 414.614 623.531 421.084 618.867 427.592C613.884 434.543 607.361 443.746 601.081 453.283C577.391 489.264 566.576 531.906 561.676 561.343C561.115 564.706 560.9 568.019 560.728 571.124C559.598 591.461 578.514 606.682 593.714 618.913C595.932 620.698 598.027 622.383 599.99 624.027L600.749 623.121C598.777 621.469 596.678 619.78 594.455 617.992C579.466 605.932 560.811 590.921 561.908 571.189C562.079 568.117 562.292 564.842 562.842 561.538C567.724 532.213 578.492 489.742 602.068 453.933C608.336 444.414 614.852 435.223 619.827 428.28C624.475 421.795 629.568 415.335 634.959 408.496C648.736 391.018 662.983 372.945 670.359 353.415C673.768 344.389 675.225 331.671 674.161 320.227C671.947 296.402 660.758 270.669 642.655 247.766C631.789 234.02 616.561 220.158 596.102 205.39L594.741 204.407C570.164 186.675 539.579 164.607 536.344 137.847C534.763 124.773 539.574 111.863 551.051 98.3798C582.671 61.2425 627.471 29.6281 667.129 3.60203C689.301 -10.9487 713.923 -24.2046 737.733 -37.0238C778.045 -58.7261 819.728 -81.1684 851.511 -110.852C887.078 -144.054 870 -178.195 851.905 -214.31C838.291 -241.484 833.574 -265.759 830.376 -296.121L829.201 -295.998Z" fill="#412BA8"/>
<path d="M823.373 -302.124C825.177 -273.919 829.311 -249.201 843.617 -220.247C863.554 -179.893 874.679 -148.74 835.795 -115.418C805.598 -89.5213 768.866 -68.7529 733.342 -48.6685C705.071 -32.6842 675.838 -16.156 649.794 2.96805C606.252 34.9407 571.832 67.1341 547.485 98.6439C536.307 113.112 531.789 126.933 533.671 140.898C537.196 167.037 562.969 188.387 589.064 208.015C603.526 218.894 621.924 233.63 635.942 251.168C649.441 268.056 665.775 294.358 666.932 323.754C667.3 333.109 665.344 346.764 660.144 356.183C649.426 375.598 635.458 394.324 621.95 412.433C616.387 419.892 610.633 427.605 605.236 435.2C599.587 443.15 592.96 452.571 586.641 462.177C564.924 495.188 552.161 531.847 549.733 568.191C549.526 571.282 549.597 574.349 549.945 577.309C552.144 596.027 570.875 606.905 587.4 616.503C591.688 618.993 595.737 621.344 599.253 623.703L599.912 622.721C596.364 620.341 592.299 617.98 587.995 615.48C571.708 606.022 553.249 595.302 551.119 577.171C550.78 574.283 550.711 571.288 550.913 568.27C553.327 532.129 566.024 495.667 587.63 462.826C593.938 453.236 600.557 443.826 606.2 435.885C611.59 428.3 617.339 420.593 622.898 413.14C636.43 394.998 650.423 376.239 661.18 356.754C665.849 348.296 668.571 335.324 668.113 323.707C666.944 293.99 650.475 267.456 636.866 250.429C622.765 232.787 604.293 217.99 589.775 207.07C563.879 187.592 538.307 166.426 534.843 140.74C533.004 127.105 537.446 113.571 548.421 99.367C572.7 67.9427 607.043 35.8305 650.493 3.92153C676.481 -15.1617 705.683 -31.6721 733.924 -47.6392C769.497 -67.7514 806.282 -88.5493 836.565 -114.521C876.066 -148.391 864.854 -179.934 844.676 -220.771C830.458 -249.549 826.348 -274.136 824.552 -302.199L823.373 -302.124Z" fill="#412BA8"/>
<path d="M817.55 -308.249C818.254 -276.01 823.503 -253.194 836.268 -226.87C837.503 -224.326 838.784 -221.776 840.072 -219.216C846.846 -205.742 853.851 -191.809 854.728 -176.6C856.188 -151.243 840.312 -135.85 820.992 -119.744C791.961 -95.5455 757.41 -75.7633 723.997 -56.6332C692.154 -38.4014 659.227 -19.5497 631.167 3.08159C595.124 32.1488 566.124 70.0431 544.881 99.8089C529.836 120.892 527.734 141.045 538.457 161.419C547.876 179.316 566.053 195.1 584.292 209.492C599.968 221.861 617.786 236.766 631.079 253.526C645.053 271.144 661.478 298.135 660.37 326.669C659.974 336.871 655.614 350.092 649.768 358.82C633.294 383.413 614.36 410.859 591.885 442.726C585.985 451.092 579.077 460.978 572.578 470.874C547.545 508.993 536.492 542.146 537.793 575.207C537.913 578.238 538.35 581.099 539.093 583.711C544.058 601.153 566.001 610.259 583.633 617.576C588.912 619.767 593.899 621.837 598.043 623.947L598.58 622.893C594.395 620.762 589.387 618.684 584.086 616.484C566.689 609.265 545.039 600.28 540.23 583.387C539.522 580.901 539.088 578.057 538.974 575.161C537.683 542.357 548.675 509.426 573.567 471.523C580.056 461.641 586.957 451.765 592.851 443.407C615.331 411.532 634.27 384.079 650.75 359.477C656.706 350.586 661.147 337.114 661.551 326.715C662.673 297.819 646.103 270.566 632.005 252.791C618.636 235.935 600.754 220.975 585.024 208.563C566.887 194.253 548.82 178.57 539.503 160.868C529.008 140.927 531.083 121.179 545.842 100.496C567.04 70.7911 595.979 32.9777 631.908 4.00121C659.895 -18.5715 692.78 -37.3994 724.583 -55.6076C758.042 -74.7628 792.638 -94.5711 821.749 -118.837C841.318 -135.151 857.4 -150.763 855.908 -176.667C855.017 -192.122 847.956 -206.166 841.127 -219.748C839.842 -222.303 838.563 -224.847 837.332 -227.386C824.647 -253.542 819.431 -276.222 818.731 -308.276L817.55 -308.249Z" fill="#412BA8"/>
<path d="M811.732 -314.37C811.09 -283.588 815.884 -260.946 828.828 -233.612C829.802 -231.555 830.802 -229.494 831.807 -227.427C838.584 -213.47 845.592 -199.038 845.523 -183.234C845.411 -156.819 825.971 -140.597 807.166 -124.909L807.007 -124.776C777.16 -99.8738 742.242 -78.982 708.473 -58.7776C677.436 -40.2077 645.344 -21.0059 617.232 1.27694C589.061 23.6154 571.862 51.9893 553.655 82.0323C549.859 88.2973 545.934 94.7765 541.921 101.162C512.585 147.846 546.685 182.221 580.95 210.777C597.214 224.331 614.167 238.954 626.999 255.566C641.121 273.849 657.116 301.446 653.118 329.09C651.522 340.135 644.553 352.774 638.988 361.431C619.455 391.817 597.702 423.287 578.999 450.064C572.827 458.898 565.688 469.171 559.054 479.276C540.104 508.139 520.356 542.285 525.964 582.317C526.361 585.144 527.15 587.9 528.249 590.289C536.042 607.239 560.899 614.391 580.872 620.138C586.498 621.757 591.813 623.286 596.246 624.888L596.647 623.777C592.178 622.161 586.845 620.627 581.199 619.002C561.458 613.322 536.89 606.253 529.322 589.795C528.273 587.51 527.516 584.867 527.136 582.153C521.585 542.527 541.21 508.607 560.042 479.924C566.667 469.832 573.801 459.569 579.967 450.741C598.677 423.955 620.439 392.473 639.982 362.071C645.61 353.314 652.661 340.514 654.288 329.259C658.346 301.205 642.196 273.307 627.934 254.843C615.029 238.136 598.021 223.464 581.706 209.868C547.825 181.632 514.093 147.666 542.921 101.79C546.939 95.3963 550.867 88.9142 554.666 82.6451C572.816 52.693 589.959 24.4031 617.966 2.20411C646.017 -20.0323 678.076 -39.2137 709.08 -57.763C742.888 -77.9904 777.846 -98.9063 807.764 -123.869L807.923 -124.001C826.933 -139.862 846.591 -156.263 846.706 -183.228C846.774 -199.307 839.706 -213.865 832.87 -227.943C831.868 -230.007 830.869 -232.064 829.896 -234.118C817.038 -261.271 812.277 -283.764 812.914 -314.343L811.732 -314.37Z" fill="#412BA8"/>
<path d="M805.918 -320.485C804.041 -291.068 808.36 -268.626 821.323 -240.442C822.014 -238.94 822.715 -237.437 823.417 -235.932C830.165 -221.459 837.143 -206.494 835.982 -190.065C834.198 -164.799 813.931 -147.37 796.051 -131.996L794.365 -130.546C764.01 -104.402 728.619 -82.1108 694.394 -60.553C665.467 -42.3325 635.556 -23.4924 608.827 -2.41444C589.33 12.9568 569.171 28.8522 559.124 54.8277L558.536 56.3446C552.304 72.4588 546.417 87.679 538.348 102.693C513.747 148.47 544.877 181.733 578.871 211.879C594.015 225.309 611.179 240.531 623.535 257.289C644.219 285.344 651.435 310.153 644.981 331.027C641.634 341.857 635.449 352.213 629.469 362.228L628.256 364.26C610.886 393.424 591.146 421.897 572.056 449.433L566.73 457.118C559.948 466.914 552.934 477.043 546.202 487.288C526.827 516.777 504.865 550.2 514.371 589.444C515.017 592.116 516.096 594.721 517.489 596.977C528.352 614.571 556.421 619.668 578.974 623.765C584.31 624.734 589.35 625.649 593.741 626.657L594.006 625.505C589.589 624.491 584.535 623.573 579.186 622.602C556.863 618.547 529.082 613.502 518.496 596.356C517.167 594.205 516.138 591.718 515.519 589.166C506.135 550.42 527.947 517.225 547.191 487.938C553.915 477.704 560.924 467.581 567.702 457.792L573.028 450.107C592.129 422.554 611.881 394.064 629.272 364.865L630.484 362.834C636.5 352.759 642.722 342.342 646.112 331.377C652.682 310.124 645.406 284.96 624.487 256.587C612.057 239.73 594.843 224.464 579.656 210.995C546.016 181.163 515.197 148.27 539.389 103.253C547.493 88.1747 553.393 72.9211 559.639 56.7718L560.226 55.254C570.159 29.5814 590.191 13.7863 609.559 -1.4869C636.24 -22.5247 666.123 -41.3478 695.024 -59.5519C729.286 -81.1335 764.715 -103.449 795.138 -129.65L796.822 -131.099C814.877 -146.626 835.342 -164.224 837.163 -189.982C838.344 -206.715 831.301 -221.822 824.489 -236.431C823.788 -237.934 823.088 -239.435 822.398 -240.935C809.524 -268.924 805.235 -291.206 807.098 -320.409L805.918 -320.485Z" fill="#412BA8"/>
<path d="M800.111 -326.596C797.068 -298.107 800.773 -276.619 813.783 -247.317L814.899 -244.811C821.621 -229.737 828.573 -214.15 826.157 -197.016C822.776 -173.022 803.138 -155.072 785.814 -139.232L783.418 -137.039C752.455 -108.647 716.003 -84.3064 680.752 -60.7673C655.574 -43.9543 629.539 -26.5681 605.775 -7.87923C603.236 -5.88224 600.543 -3.824 597.76 -1.69744C578.668 12.894 554.906 31.0559 548.832 54.3502C547.823 58.2249 546.878 62.0767 545.964 65.8019C542.712 79.0587 539.64 91.5816 533.962 104.386C513.181 151.253 545.854 182.351 577.451 212.424L580.946 215.746C595.134 229.221 609.806 243.155 620.504 258.711C633.997 278.331 647.592 307.07 635.73 332.565C630.758 343.253 624.899 354.578 617.817 367.187C600.536 397.957 579.951 427.858 560.044 456.775L552.828 467.262C546.624 476.279 540.21 485.601 534.131 494.831L532.698 497.007C513.22 526.552 491.142 560.041 503.14 596.486C504.025 599.174 505.366 601.746 506.916 603.727C521.74 622.68 555.889 625.993 580.824 628.413C584.185 628.739 587.405 629.051 590.419 629.384L590.548 628.209C587.53 627.876 584.305 627.563 580.938 627.236C556.216 624.837 522.358 621.552 507.846 602.999C506.379 601.123 505.106 598.678 504.263 596.116C492.444 560.214 514.354 526.979 533.685 497.657L535.119 495.481C541.191 486.261 547.602 476.943 553.802 467.932L561.018 457.445C580.94 428.507 601.541 398.583 618.849 367.765C625.944 355.13 631.817 343.78 636.803 333.064C648.899 307.062 635.146 277.914 621.478 258.041C610.71 242.384 595.993 228.406 581.76 214.888L578.266 211.568C545.525 180.405 514.6 150.971 535.044 104.866C540.763 91.9653 543.847 79.3936 547.112 66.0847C548.026 62.3627 548.969 58.515 549.977 54.6493C555.946 31.7468 579.53 13.724 598.477 -0.757382C601.264 -2.88833 603.963 -4.94948 606.505 -6.94981C630.234 -25.6103 656.249 -42.9833 681.409 -59.7833C716.698 -83.3479 753.187 -107.714 784.216 -136.168L786.612 -138.36C804.084 -154.332 823.886 -172.435 827.328 -196.851C829.791 -214.321 822.77 -230.066 815.979 -245.293L814.864 -247.797C801.948 -276.887 798.267 -298.21 801.287 -326.472L800.111 -326.596Z" fill="#412BA8"/>
<path d="M794.31 -332.702C789.555 -301.239 795.086 -280.072 806.246 -254.141C825.957 -208.34 810.965 -181.179 774.335 -144.194C773.908 -143.762 773.478 -143.33 773.048 -142.901C741.61 -111.462 703.545 -84.425 666.716 -58.2667C647.018 -44.2751 626.649 -29.8077 607.723 -14.9483C604.389 -12.331 600.81 -9.62552 597.021 -6.7614C576.098 9.05795 550.058 28.7432 541.188 52.6539C537.971 61.3265 536.285 70.8776 534.655 80.1143C533.112 88.8615 531.516 97.907 528.621 106.209C513.474 149.656 539.257 175.271 566.553 202.389C570.231 206.043 574.034 209.821 577.741 213.647C579.465 215.427 581.212 217.215 582.971 219.015C595.551 231.892 608.56 245.208 617.698 259.868C633.57 285.329 636.526 312.273 625.809 333.788C623.765 337.894 621.745 342.105 619.607 346.563C615.842 354.411 611.95 362.527 607.864 370.123C589.362 404.53 566.666 437.692 544.717 469.762L539.815 476.913C534.217 485.068 528.43 493.501 522.921 501.834C521.606 503.822 520.218 505.89 518.782 508.03C500.525 535.233 475.522 572.489 493.396 603.24C494.768 605.601 496.615 607.955 498.736 610.048C519.578 630.603 554.789 632.779 586.157 633.204L586.173 632.022C555.036 631.599 520.096 629.453 499.567 609.206C497.519 607.187 495.739 604.918 494.418 602.646C476.916 572.534 501.681 535.633 519.764 508.689C521.201 506.547 522.591 504.476 523.907 502.485C529.41 494.161 535.195 485.733 540.789 477.582L545.692 470.43C567.659 438.334 590.374 405.145 608.906 370.683C613.004 363.063 616.903 354.935 620.673 347.074C622.81 342.62 624.827 338.413 626.868 334.316C637.772 312.423 634.796 285.06 618.702 259.242C609.496 244.473 596.442 231.11 583.816 218.188C582.06 216.39 580.313 214.603 578.59 212.824C574.875 208.99 571.068 205.208 567.387 201.55C540.362 174.702 514.836 149.342 529.738 106.598C532.664 98.2054 534.269 89.1123 535.82 80.3197C537.441 71.1342 539.117 61.6371 542.297 53.0642C551.048 29.4767 576.933 9.90753 597.734 -5.81882C601.528 -8.68607 605.11 -11.3947 608.453 -14.0198C627.358 -28.861 647.714 -43.3203 667.401 -57.3028C704.268 -83.4889 742.377 -110.557 773.884 -142.064C774.316 -142.497 774.745 -142.927 775.175 -143.362C790.243 -158.577 805.123 -175.231 811.906 -193.903C818.636 -212.429 817.182 -231.72 807.332 -254.61C796.256 -280.343 790.767 -301.343 795.479 -332.526L794.31 -332.702Z" fill="#412BA8"/>
<path d="M788.514 -338.804C782.676 -308.519 787.6 -288.086 798.728 -260.971C817.28 -215.762 797.327 -187.248 767.112 -151.901C735.584 -115.023 694.573 -84.2687 654.909 -54.5265C641.376 -44.3779 627.382 -33.8847 614.15 -23.4174C611.279 -21.1454 608.365 -18.8635 605.43 -16.5653C580.568 2.90188 554.861 23.0318 538.169 49.525C530.289 62.0275 528.033 75.9044 525.851 89.3234C524.846 95.4958 523.808 101.879 522.238 108.117C511.785 149.647 534.094 171.144 559.925 196.037C565.989 201.88 572.259 207.923 578.264 214.411L578.606 214.78C592.024 229.278 605.899 244.269 614.889 260.805C628.171 285.234 628.56 306.78 616.231 335.173C611.277 346.584 605.302 360.002 598.556 372.991C579.795 409.108 556.733 443.592 534.718 475.816C532.537 479.008 530.342 482.203 528.145 485.399C523.008 492.876 517.695 500.607 512.623 508.236C511.106 510.517 509.499 512.886 507.84 515.332C489.725 542.033 464.915 578.603 485.876 608.73C487.447 610.989 489.467 613.234 491.715 615.226C514.12 635.068 553.531 641.826 580.884 638.245L580.73 637.073C553.644 640.619 514.64 633.949 492.5 614.341C490.32 612.411 488.366 610.237 486.847 608.054C466.35 578.593 490.896 542.413 508.819 515.994C510.48 513.546 512.089 511.174 513.608 508.89C518.675 501.269 523.985 493.541 529.12 486.069C531.318 482.871 533.514 479.675 535.695 476.483C557.729 444.228 580.814 409.711 599.605 373.535C606.368 360.514 612.353 347.074 617.316 335.643C629.808 306.875 629.406 285.028 615.928 260.239C606.867 243.575 592.941 228.528 579.474 213.977L579.132 213.608C573.104 207.094 566.822 201.04 560.746 195.185C535.179 170.548 513.099 149.271 523.384 108.405C524.967 102.118 526.009 95.71 527.018 89.5126C529.28 75.597 531.418 62.4545 539.168 50.1544C555.754 23.8337 581.38 3.7715 606.158 -15.6353C609.096 -17.9343 612.01 -20.217 614.885 -22.4904C628.103 -32.9479 642.092 -43.4367 655.618 -53.5807C695.332 -83.3623 736.402 -114.158 768.009 -151.134C797.513 -185.648 818.59 -215.685 799.82 -261.421C788.78 -288.323 783.893 -308.587 789.675 -338.58L788.514 -338.804Z" fill="#412BA8"/>
<path d="M782.719 -344.893C775.944 -315.712 780.287 -296.002 791.282 -267.7C807.268 -226.55 787.431 -197.673 764.461 -164.236L761.561 -160.007C732.77 -117.949 690.191 -84.6581 649.011 -52.461C640.861 -46.089 632.433 -39.4988 624.367 -33.0307L622.957 -31.9001C593.632 -8.38435 563.309 15.929 538.792 45.2296C521.927 65.3848 519.506 80.5565 515.841 103.523C515.505 105.63 515.159 107.8 514.79 110.045C508.108 150.7 532.01 171.968 557.315 194.485C564.701 201.056 572.337 207.852 579.198 215.185C592.927 229.86 604.823 246.776 611.833 261.596C624.175 287.688 617.364 310.087 607.177 336.66C602.251 349.508 596.474 362.654 590.006 375.733C572.946 410.23 552.022 442.775 525.853 481.027C523.153 484.974 520.426 488.927 517.699 492.881C512.926 499.8 507.991 506.953 503.267 513.985C501.757 516.234 500.159 518.566 498.511 520.967C480.37 547.424 455.525 583.658 479.131 613.101C480.872 615.272 483.041 617.448 485.403 619.393C507.246 637.38 545.593 648.133 574.601 644.405L574.45 643.232C545.731 646.923 507.772 636.282 486.154 618.48C483.854 616.587 481.744 614.47 480.054 612.362C456.996 583.603 481.554 547.787 499.487 521.636C501.136 519.231 502.736 516.897 504.249 514.645C508.969 507.619 513.902 500.468 518.672 493.553C521.401 489.597 524.128 485.643 526.829 481.695C553.026 443.401 573.976 410.817 591.066 376.257C597.55 363.146 603.342 349.966 608.281 337.083C618.57 310.244 625.444 287.606 612.902 261.092C605.841 246.165 593.87 229.138 580.062 214.378C573.164 207.005 565.506 200.191 558.101 193.602C533.046 171.308 509.38 150.25 515.957 110.238C516.326 107.991 516.673 105.818 517.009 103.71C520.642 80.9373 523.043 65.894 539.698 45.9891C564.14 16.7815 594.417 -7.49837 623.697 -30.9773L625.107 -32.108C633.166 -38.5723 641.592 -45.1589 649.739 -51.5294C690.991 -83.7838 733.645 -117.137 762.535 -159.339L765.436 -163.566C788.596 -197.28 808.596 -226.396 792.385 -268.13C781.477 -296.205 777.165 -315.744 783.871 -344.626L782.719 -344.893Z" fill="#412BA8"/>
<path d="M776.91 -350.981C768.39 -320.813 774.934 -301.325 783.989 -274.352C795.262 -240.777 782.359 -216.354 767.417 -188.074C764.059 -181.714 760.583 -175.138 757.326 -168.305C735.494 -122.505 693.357 -88.5535 652.606 -55.7162C647.507 -51.6072 642.458 -47.5399 637.512 -43.4945C629.656 -37.0729 621.104 -30.499 612.048 -23.5401C566.406 11.5414 509.598 55.1971 506.302 111.936C505.145 131.839 505.293 151.137 519.598 168.423C528.639 179.348 541.364 188.295 553.669 196.947C562.895 203.434 571.61 209.561 578.505 216.262C589.996 227.429 600.285 243.359 608.258 262.329C617.761 284.94 608.761 310.155 600.822 332.401C600.127 334.349 599.439 336.278 598.769 338.185C594.111 351.459 588.57 364.955 582.299 378.299C564.368 416.457 540.759 452.448 517.918 485.657C514.882 490.071 511.808 494.49 508.733 498.912C504.142 505.513 499.395 512.338 494.849 519.045C493.429 521.142 491.935 523.307 490.4 525.532C472.277 551.793 447.458 587.76 473.064 616.474C474.98 618.622 477.216 620.705 479.709 622.666C503.609 641.459 540.185 652.795 568.656 650.234L568.55 649.057C540.801 651.552 503.747 640.063 480.441 621.737C478.001 619.818 475.816 617.783 473.946 615.686C448.959 587.666 473.473 552.142 491.373 526.203C492.91 523.975 494.406 521.808 495.828 519.708C500.369 513.007 505.114 506.185 509.704 499.586C512.78 495.164 515.855 490.742 518.891 486.327C541.761 453.076 565.401 417.036 583.369 378.801C589.657 365.421 595.214 351.888 599.885 338.577C600.554 336.671 601.241 334.744 601.935 332.799C609.948 310.35 619.028 284.905 609.348 261.871C601.314 242.756 590.933 226.691 579.328 215.414C572.366 208.648 563.615 202.495 554.349 195.98C542.107 187.372 529.448 178.472 520.508 167.669C506.477 150.715 506.34 131.664 507.482 112.004C510.747 55.8078 567.315 12.331 612.769 -22.6019C621.831 -29.5675 630.391 -36.1453 638.259 -42.58C643.205 -46.6229 648.25 -50.6885 653.347 -54.7957C694.201 -87.7131 736.444 -121.753 758.394 -167.796C761.641 -174.607 765.108 -181.172 768.462 -187.521C782.904 -214.855 796.543 -240.672 785.109 -274.727C776.121 -301.5 769.626 -320.843 778.047 -350.659L776.91 -350.981Z" fill="#412BA8"/>
<path d="M771.107 -357.08C761.861 -328.871 767.653 -310.256 775.67 -284.491L776.841 -280.72C785.046 -254.221 776.208 -234.064 766.851 -212.722C761.897 -201.422 756.774 -189.739 753.879 -176.536C743.624 -129.777 701.656 -95.1007 664.632 -64.5053C660.518 -61.1066 656.475 -57.7651 652.554 -54.4711C642.258 -45.8229 631.646 -37.1152 621.384 -28.6931C597.158 -8.81143 572.106 11.7465 548.843 33.4394C547.665 34.5381 546.463 35.6527 545.243 36.785C523.3 57.1453 495.993 82.4728 496.869 113.676C497.539 137.513 499.185 155.651 514.367 172.022C524.253 182.684 537.532 191.187 550.373 199.41C559.959 205.548 569.014 211.346 576.547 217.87C589.867 229.406 599.053 244.601 603.851 263.034C609.352 284.167 600.8 310.131 593.928 330.993C592.939 333.994 591.979 336.91 591.09 339.716C587.167 352.093 582.059 365.485 575.474 380.658C558.369 420.065 534.186 456.124 510.882 489.681C507.743 494.203 504.557 498.73 501.37 503.26C496.726 509.859 491.924 516.683 487.344 523.385C486.022 525.319 484.632 527.319 483.202 529.377C465.058 555.482 440.209 591.234 467.589 618.976C469.858 621.275 472.2 623.357 474.549 625.163C495.715 641.44 531.345 657.144 563.231 655.535L563.171 654.353C531.586 655.947 496.264 640.37 475.269 624.225C472.963 622.451 470.662 620.406 468.431 618.146C441.741 591.102 466.265 555.816 484.172 530.051C485.604 527.991 486.997 525.988 488.319 524.051C492.895 517.356 497.695 510.536 502.336 503.94C505.525 499.408 508.713 494.879 511.854 490.355C535.191 456.75 559.41 420.634 576.558 381.128C583.159 365.918 588.282 352.489 592.217 340.073C593.105 337.271 594.064 334.359 595.051 331.362C601.971 310.353 610.583 284.206 604.994 262.735C600.136 244.067 590.824 228.671 577.32 216.976C569.723 210.396 560.633 204.576 551.01 198.413C538.231 190.23 525.017 181.768 515.232 171.217C500.332 155.149 498.713 137.219 498.051 113.642C497.19 82.9762 524.28 57.8459 546.046 37.652C547.267 36.5188 548.47 35.4027 549.649 34.3038C572.884 12.6357 597.921 -7.91089 622.133 -27.7796C632.398 -36.2033 643.013 -44.9142 653.314 -53.5674C657.233 -56.8591 661.274 -60.1981 665.384 -63.5952C702.558 -94.3107 744.691 -129.126 755.033 -176.284C757.903 -189.373 763.003 -201.001 767.934 -212.248C777.382 -233.797 786.305 -254.152 777.97 -281.071L776.798 -284.844C768.551 -311.352 763.101 -328.862 772.23 -356.712L771.107 -357.08Z" fill="#412BA8"/>
<path d="M765.31 -363.189C755.384 -336.621 760.452 -319.364 767.467 -295.479C768.27 -292.744 769.1 -289.919 769.937 -286.981C775.192 -268.523 776.048 -254.925 765.547 -235.946L765.263 -235.432C755.302 -217.433 748.723 -205.542 750.531 -184.414C754.469 -138.445 709.508 -100.459 676.68 -72.7268C673.786 -70.2818 670.972 -67.9052 668.276 -65.5964C651.631 -51.3387 633.97 -37.1995 616.89 -23.5256C596.831 -7.46858 576.09 9.13623 556.536 26.28C553.599 28.8551 550.28 31.6682 546.766 34.6466C522.685 55.0552 486.29 85.8951 486.617 115.139C486.853 136.212 489.627 158.152 508.163 175.855C518.68 185.899 531.962 193.751 544.807 201.345C555.145 207.457 564.91 213.23 573.226 220.001C589.075 232.903 596.58 246.023 598.323 263.869C600.392 285.049 592.749 311.507 586.608 332.766C585.769 335.669 584.953 338.495 584.184 341.224C580.64 353.803 575.85 367.397 569.539 382.781C553.106 422.84 528.491 459.239 504.688 493.088C501.572 497.519 498.397 501.959 495.221 506.4C490.392 513.153 485.398 520.135 480.694 526.986C479.576 528.614 478.414 530.287 477.225 531.999C459.198 557.948 434.509 593.486 462.602 620.727C465.003 623.055 467.435 625.168 469.83 627.006C490.165 642.617 525.528 660.721 558.27 660.367L558.258 659.185C525.817 659.535 490.735 641.564 470.55 626.068C468.19 624.257 465.793 622.174 463.425 619.877C436.053 593.336 460.41 558.274 478.196 532.673C479.386 530.959 480.549 529.285 481.669 527.655C486.366 520.814 491.356 513.835 496.183 507.087C499.361 502.643 502.538 498.201 505.656 493.767C529.498 459.863 554.154 423.401 570.633 383.229C576.961 367.802 581.766 354.167 585.322 341.544C586.09 338.818 586.906 335.994 587.744 333.093C593.913 311.737 601.591 285.159 599.5 263.753C597.724 245.564 590.09 232.204 573.974 219.083C565.588 212.256 555.787 206.461 545.409 200.326C532.621 192.767 519.398 184.949 508.979 174.998C490.76 157.598 488.032 135.938 487.799 115.125C487.478 86.4402 523.617 55.8128 547.53 35.5481C551.048 32.5656 554.371 29.7508 557.316 27.1684C576.849 10.042 597.579 -6.55397 617.627 -22.6034C634.715 -36.2822 652.385 -50.4281 669.046 -64.6988C671.739 -67.0059 674.55 -69.3816 677.442 -71.8244C710.469 -99.7241 755.699 -137.936 751.71 -184.516C749.931 -205.284 756.443 -217.05 766.298 -234.86L766.583 -235.375C777.281 -254.711 776.414 -268.543 771.074 -287.304C770.236 -290.246 769.406 -293.075 768.602 -295.813C761.651 -319.478 756.629 -336.576 766.417 -362.774L765.31 -363.189Z" fill="#412BA8"/>
<path d="M759.514 -369.304C748.887 -344.018 753.546 -327.873 759.992 -305.526C761.065 -301.806 762.176 -297.959 763.276 -293.854C768.875 -272.993 766.976 -259.712 755.749 -241.219L755.57 -240.926C745.184 -223.82 737.682 -211.46 746.419 -191.649C765.715 -147.881 717.572 -106.611 685.709 -79.3019L682.508 -76.5563C662.463 -59.3229 641.14 -42.4846 620.518 -26.1998C602.203 -11.7365 583.266 3.21845 565.183 18.4745C560.829 22.1475 556.115 25.9977 551.124 30.074C521.06 54.6272 483.647 85.1864 477.789 115.691C469.756 157.529 505.245 180.565 539.567 202.844C549.343 209.19 559.452 215.752 568.399 222.648C580.489 231.967 594.022 245.194 591.344 264.921L591.291 265.313C587.784 291.14 584.159 317.847 578.055 342.69C574.935 355.392 570.486 369.121 564.455 384.663C548.819 424.956 523.666 461.694 499.241 495.87C496.521 499.678 493.741 503.493 490.959 507.313C485.599 514.671 480.057 522.279 475.001 529.76C473.59 531.848 472.111 533.993 470.599 536.187C452.488 562.461 429.949 595.162 458.013 621.857C460.521 624.243 463.027 626.415 465.462 628.314C493.782 650.397 526.774 664.032 553.716 664.787L553.749 663.606C527.05 662.857 494.317 649.315 466.189 627.382C463.785 625.507 461.308 623.36 458.829 621.001C431.495 595.001 453.717 562.762 471.572 536.858C473.087 534.661 474.567 532.513 475.98 530.422C481.025 522.958 486.561 515.359 491.915 508.009C494.699 504.187 497.481 500.368 500.204 496.558C524.671 462.321 549.872 425.512 565.558 385.092C571.607 369.501 576.071 355.724 579.204 342.973C585.323 318.069 588.952 291.33 592.463 265.472L592.516 265.081C595.276 244.753 581.463 231.226 569.122 221.713C560.137 214.786 550.007 208.211 540.211 201.852C506.218 179.786 471.068 156.97 478.951 115.915C484.728 85.8318 521.957 55.4243 551.873 30.9903C556.868 26.91 561.586 23.0573 565.946 19.3778C584.014 4.13492 602.943 -10.8143 621.251 -25.2713C641.881 -41.5634 663.215 -58.4108 683.279 -75.6595L686.48 -78.4043C718.604 -105.942 767.153 -147.556 747.5 -192.125C739.013 -211.373 746.382 -223.512 756.582 -240.313L756.76 -240.606C768.183 -259.421 770.115 -272.935 764.419 -294.161C763.314 -298.275 762.203 -302.128 761.128 -305.854C754.749 -327.967 750.139 -343.944 760.604 -368.846L759.514 -369.304Z" fill="#412BA8"/>
<path d="M753.724 -375.426C742.411 -351.265 746.816 -336.176 752.913 -315.295C754.198 -310.893 755.527 -306.34 756.809 -301.363C762.621 -278.806 757.774 -265.534 746.136 -247.523C736.394 -232.445 729.791 -219.447 740.47 -201.012C749.561 -185.322 755.568 -172.889 750.045 -155.729C741.289 -128.515 716.041 -106.314 695.75 -88.4767L693.781 -86.7449C670.82 -66.5365 646.087 -47.0663 622.17 -28.2384C606.31 -15.7538 589.912 -2.84495 574.146 10.1857C568.545 14.8155 562.687 19.505 556.484 24.4696C523.489 50.8759 486.097 80.8063 471.813 114.926C452.921 160.054 494.555 184.579 531.289 206.218C542.571 212.863 553.227 219.141 561.953 225.79C579.284 238.998 586.04 252.299 582.606 266.453C579.561 278.998 578.389 293.162 577.254 306.86C576.221 319.354 575.151 332.273 572.673 344.118C570.007 356.864 565.911 370.667 560.152 386.315C545.373 426.47 519.578 463.528 494.423 498.043L490.88 502.9C484.087 512.207 477.061 521.83 470.487 531.352C469.031 533.46 467.52 535.609 465.984 537.792C447.902 563.502 425.397 595.497 453.731 622.505C456.32 624.972 458.885 627.229 461.356 629.214C475.17 640.308 511.411 666.38 549.511 668.854L549.587 667.674C511.825 665.221 475.824 639.316 462.097 628.292C459.652 626.327 457.112 624.092 454.547 621.647C426.95 595.343 448.202 565.129 466.952 538.472C468.489 536.285 470.003 534.134 471.46 532.023C478.025 522.513 485.046 512.897 491.835 503.596L495.379 498.739C520.582 464.156 546.43 427.02 561.262 386.723C567.041 371.02 571.152 357.162 573.83 344.36C576.323 332.442 577.395 319.486 578.433 306.957C579.563 293.304 580.732 279.186 583.754 266.73C587.311 252.072 580.415 238.372 562.669 224.849C553.888 218.157 543.202 211.862 531.89 205.199C495.572 183.805 454.41 159.559 472.904 115.383C487.071 81.5401 524.341 51.7105 557.223 25.3915C563.429 20.4246 569.292 15.7328 574.901 11.0963C590.654 -1.92535 607.048 -14.8294 622.901 -27.3089C646.831 -46.1481 671.576 -65.6276 694.562 -85.8573L696.531 -87.5896C716.928 -105.519 742.315 -127.842 751.172 -155.367C756.842 -172.991 750.738 -185.648 741.494 -201.605C731.151 -219.459 737.611 -232.148 747.131 -246.882C758.955 -265.182 763.875 -278.678 757.954 -301.659C756.667 -306.654 755.335 -311.216 754.047 -315.626C748.023 -336.259 743.671 -351.168 754.794 -374.925L753.724 -375.426Z" fill="#412BA8"/>
<path d="M747.935 -381.548C735.568 -357.822 740.191 -342.756 746.587 -321.904C747.816 -317.898 749.087 -313.755 750.326 -309.27C755.969 -288.828 750.931 -275.484 740.323 -259.342C729.809 -243.345 721.504 -230.709 733.729 -211.957C742.857 -197.955 751.931 -181.297 750.029 -163.911C747.21 -138.121 723.979 -116.782 705.318 -99.6361C703.913 -98.3453 702.536 -97.0816 701.199 -95.8439C676.194 -72.6874 648.607 -50.8298 621.929 -29.6917C609.043 -19.4816 595.718 -8.9247 582.859 1.64021C576.828 6.59663 570.725 11.5031 564.263 16.698C529.408 44.7226 489.899 76.4853 468.243 112.972C459.309 128.023 456.591 141.439 459.934 153.987C466.458 178.482 494.89 194.553 522.385 210.093C533.931 216.619 544.836 222.783 553.839 229.404C569.666 241.044 576.092 253.844 573.484 268.537C571.379 280.397 571.054 293.723 570.741 306.611C570.424 319.658 570.096 333.15 567.962 345.52C565.765 358.249 562.022 372.065 556.516 387.758C541.696 430.012 513.085 468.61 490.097 499.625C487.424 503.229 484.72 506.833 482.015 510.438C476.666 517.566 471.134 524.938 465.932 532.226C464.762 533.865 463.567 535.522 462.361 537.195C442.891 564.196 420.824 594.799 449.661 622.799C452.368 625.427 454.907 627.727 457.423 629.831C474.688 644.267 509.101 669.023 545.601 672.623L545.717 671.445C509.532 667.877 475.341 643.273 458.181 628.924C455.688 626.839 453.17 624.558 450.485 621.95C422.38 594.661 444.13 564.499 463.32 537.886C464.527 536.212 465.723 534.553 466.894 532.912C472.088 525.636 477.615 518.27 482.96 511.148C485.667 507.54 488.373 503.935 491.046 500.329C514.083 469.25 542.753 430.571 557.632 388.149C563.159 372.393 566.919 358.515 569.127 345.721C571.276 333.266 571.605 319.73 571.923 306.639C572.235 293.796 572.558 280.515 574.648 268.743C577.343 253.563 570.765 240.383 554.539 228.451C545.48 221.788 534.545 215.607 522.967 209.063C495.685 193.643 467.473 177.697 461.076 153.681C457.82 141.457 460.497 128.338 469.26 113.574C490.807 77.2712 528.528 46.9456 565.003 17.6186C571.467 12.4214 577.573 7.51249 583.61 2.55355C596.46 -8.00594 609.782 -18.5593 622.663 -28.766C649.359 -49.9173 676.964 -71.7897 702.002 -94.9763C703.338 -96.2148 704.714 -97.477 706.117 -98.7661C724.926 -116.045 748.337 -137.548 751.205 -163.784C753.146 -181.541 743.961 -198.427 734.72 -212.603C722.916 -230.708 730.632 -242.447 741.31 -258.694C752.105 -275.118 757.228 -288.711 751.465 -309.585C750.222 -314.087 748.949 -318.237 747.718 -322.252C741.403 -342.835 736.841 -357.706 748.983 -381.004L747.935 -381.548Z" fill="#412BA8"/>
<path d="M742.147 -387.671C729.194 -365.055 733.652 -351.161 739.824 -331.93C741.251 -327.486 742.726 -322.89 744.125 -317.781C748.857 -300.509 740.587 -286.049 732.589 -272.065C723.197 -255.644 714.326 -240.134 726.545 -221.485C737.131 -205.327 741.635 -191.888 741.608 -176.551C741.547 -144.217 724.498 -124.342 703.907 -103.51C674.213 -73.4503 638.884 -45.9725 604.741 -19.4052C554.533 19.6605 502.615 60.054 466.673 109.914C442.598 143.308 443.776 170.627 470.274 193.432C482.903 204.301 498.602 211.361 513.783 218.188C524.068 222.814 534.704 227.596 544.066 233.465C557.604 241.951 563.856 253.616 564.338 271.285C564.476 276.325 564.666 281.395 564.856 286.477C565.61 306.639 566.39 327.487 563.807 346.928C562.132 359.532 558.825 372.91 553.397 389.029C539.873 429.194 513.734 464.738 485.861 500.63C483.369 503.84 480.843 507.05 478.314 510.265C472.581 517.551 466.653 525.086 461.157 532.58L459.199 535.245C439.105 562.576 416.329 593.553 445.708 622.882C448.632 625.802 451.129 628.158 453.567 630.296C470.789 645.407 505.169 671.457 541.925 676.154L542.075 674.981C505.63 670.324 471.467 644.429 454.347 629.407C451.928 627.286 449.449 624.947 446.543 622.046C417.884 593.434 440.34 562.893 460.152 535.946L462.111 533.279C467.594 525.802 473.516 518.275 479.243 510.996C481.773 507.779 484.301 504.567 486.795 501.356C514.732 465.38 540.934 429.747 554.517 389.406C559.969 373.214 563.294 359.766 564.978 347.084C567.575 327.544 566.793 306.644 566.037 286.434C565.847 281.356 565.657 276.289 565.52 271.253C565.026 253.146 558.603 241.183 544.693 232.463C535.262 226.551 524.589 221.751 514.267 217.11C499.163 210.318 483.544 203.294 471.044 192.536C445.1 170.207 443.983 143.408 467.631 110.605C503.476 60.8862 555.324 20.5423 605.466 -18.472C639.638 -45.0629 674.974 -72.5317 704.747 -102.679C725.524 -123.699 742.728 -143.767 742.789 -176.548C742.817 -192.134 738.255 -205.767 727.532 -222.133C715.711 -240.176 724.407 -255.381 733.614 -271.478C741.732 -285.671 750.127 -300.347 745.265 -318.094C743.858 -323.227 742.38 -327.835 740.949 -332.292C734.871 -351.233 730.479 -364.919 743.172 -387.083L742.147 -387.671Z" fill="#412BA8"/>
<path d="M736.361 -393.79C722.845 -372.209 727.188 -359.489 733.2 -341.884C734.815 -337.152 736.487 -332.26 738.024 -326.658C742.859 -309.042 734.269 -295.02 725.964 -281.461C716.026 -265.235 706.64 -249.91 718.851 -229.373C742.65 -189.349 726.332 -139.117 701.099 -109.382C667.908 -70.2737 625.857 -36.2622 585.188 -3.36955C543.37 30.4532 500.126 65.4288 466.728 105.839C441.981 135.784 423.865 167.653 458.573 197.828C470.269 207.997 485.093 214.394 499.427 220.581C511.62 225.843 523.135 230.813 532.564 237.846C546.667 248.367 551.035 258.049 554.999 274.502C560.53 297.469 562.376 324.397 560.06 348.381C558.858 360.827 555.855 374.108 550.608 390.177C536.641 432.95 505.86 470.796 481.128 501.207C479.222 503.55 477.301 505.894 475.378 508.24C468.877 516.17 462.155 524.37 456.019 532.591C435.329 560.31 411.879 591.727 441.777 622.893C444.777 626.02 447.294 628.513 449.7 630.739C466.751 646.52 500.952 673.84 538.433 679.505L538.609 678.336C501.442 672.718 467.454 645.56 450.502 629.871C448.114 627.662 445.613 625.184 442.629 622.074C413.425 591.632 435.56 561.976 456.966 533.298C463.087 525.098 469.8 516.909 476.291 508.99C478.216 506.641 480.139 504.297 482.045 501.953C506.839 471.466 537.697 433.525 551.732 390.543C557.006 374.39 560.026 361.029 561.236 348.494C563.564 324.385 561.709 297.314 556.148 274.224C552.117 257.49 547.666 247.636 533.27 236.898C523.731 229.782 512.154 224.785 499.896 219.495C485.644 213.344 470.906 206.983 459.348 196.934C425.405 167.425 443.274 136.074 467.64 106.592C500.958 66.269 544.157 31.3357 585.932 -2.45114C626.643 -35.3792 668.742 -69.4247 702 -108.619C727.497 -138.662 743.962 -189.455 719.867 -229.978C708.02 -249.902 717.226 -264.932 726.973 -280.844C735.41 -294.619 744.134 -308.862 739.164 -326.973C737.617 -332.608 735.941 -337.519 734.319 -342.267C728.412 -359.563 724.146 -372.059 737.364 -393.164L736.361 -393.79Z" fill="#412BA8"/>
<path d="M730.575 -399.907C716.518 -379.287 720.771 -367.735 726.659 -351.748C728.377 -347.081 730.326 -341.791 731.984 -335.797C736.963 -317.798 728.153 -303.846 719.632 -290.354C709.682 -274.596 699.393 -258.301 710.615 -235.507C730.605 -194.906 709.825 -151.126 693.129 -115.948L691.871 -113.294C679.705 -87.6283 650.329 -63.6677 624.406 -42.5302C616.376 -35.9818 608.793 -29.7976 601.775 -23.6582C593.885 -16.7563 585.777 -9.74498 577.935 -2.96316C539.958 29.8775 500.686 63.8365 468.045 100.866L467.884 101.049C455.071 115.583 440.549 132.055 433.668 149.354C425.64 169.537 429.704 186.813 446.094 202.167C457.592 212.94 472.711 219.426 487.333 225.698C499.279 230.823 510.562 235.663 519.517 242.558C531.029 251.423 539.042 262.353 545.496 277.998C554.036 298.698 558.056 324.919 556.525 349.938C555.777 362.168 553.042 375.301 547.918 391.268C535.026 431.447 506.488 465.186 478.889 497.813L475.747 501.529C474.386 503.141 473.017 504.753 471.647 506.368C464.47 514.827 457.048 523.574 450.392 532.421C426.055 564.769 409.672 591.978 437.768 622.975C440.65 626.153 443.254 628.876 445.727 631.297C462.508 647.73 496.429 676.264 535.062 682.738L535.258 681.572C496.942 675.151 463.235 646.788 446.553 630.452C444.097 628.047 441.51 625.341 438.643 622.18C411.155 591.854 427.332 565.037 451.336 533.132C457.972 524.312 465.382 515.579 472.548 507.133C473.918 505.518 475.287 503.905 476.649 502.292L479.791 498.577C507.465 465.861 536.08 432.032 549.044 391.63C554.198 375.566 556.95 362.342 557.705 350.01C559.245 324.818 555.194 298.407 546.589 277.547C540.051 261.699 531.923 250.619 520.237 241.621C511.164 234.635 499.814 229.766 487.798 224.612C473.271 218.38 458.248 211.935 446.9 201.304C410.85 167.529 442.965 131.102 468.77 101.831L468.931 101.648C501.519 64.6807 540.759 30.7478 578.708 -2.06926C586.551 -8.85106 594.66 -15.8648 602.553 -22.7683C609.555 -28.8937 617.132 -35.0725 625.152 -41.6142C651.172 -62.8334 680.661 -86.8821 692.938 -112.787L694.197 -115.441C711.002 -150.849 731.918 -194.917 711.676 -236.03C700.745 -258.23 710.405 -273.528 720.632 -289.723C729.289 -303.432 738.241 -317.609 733.122 -336.112C731.451 -342.153 729.494 -347.467 727.767 -352.156C721.787 -368.395 717.836 -379.124 731.551 -399.241L730.575 -399.907Z" fill="#412BA8"/>
<path d="M724.79 -406.019C710.202 -386.28 714.164 -376.408 720.16 -361.466C722.056 -356.742 724.204 -351.386 725.967 -345.08C730.434 -329.092 723.025 -319.338 714.445 -308.045C711.732 -304.473 708.926 -300.778 706.397 -296.728C695.275 -278.91 693.828 -260.844 701.841 -239.872C713.993 -208.067 700.698 -178.885 687.841 -150.663C683.611 -141.377 679.236 -131.776 675.787 -122.163C662.543 -85.2586 635.22 -60.035 606.298 -33.3353L604.055 -31.265C591.898 -20.0355 579.322 -8.71356 567.16 2.23526C534.176 31.9311 500.07 62.6389 470.291 95.1023C468.406 97.1589 466.4 99.3068 464.316 101.539C438.512 129.181 399.516 170.955 433.241 206.257C444.858 218.416 460.369 225.347 475.369 232.052C485.548 236.601 496.074 241.305 505.001 247.547C517.847 256.531 529.094 268.955 535.859 281.634C547.195 302.882 552.793 325.798 552.971 351.691C553.066 365.471 549.227 379.391 545.063 392.38C533.1 429.709 505.899 460.548 479.593 490.373C476.235 494.18 472.894 497.969 469.603 501.747L467.002 504.734C459.248 513.626 451.23 522.822 444.182 532.213C421.636 562.257 405.277 589.847 433.585 623.27C436.213 626.371 438.893 629.343 441.552 632.101C457.999 649.161 491.588 678.835 531.757 685.905L531.962 684.74C492.123 677.729 458.75 648.237 442.404 631.281C439.762 628.541 437.099 625.588 434.487 622.505C406.695 589.69 422.1 563.609 445.128 532.923C452.15 523.566 460.153 514.387 467.893 505.51L470.496 502.524C473.784 498.746 477.123 494.96 480.481 491.154C506.866 461.239 534.151 430.306 546.191 392.74C550.383 379.657 554.251 365.628 554.154 351.683C553.975 325.593 548.332 302.498 536.903 281.077C530.053 268.239 518.672 255.665 505.679 246.579C496.66 240.271 486.082 235.544 475.852 230.972C460.956 224.315 445.552 217.431 434.097 205.44C401.144 170.946 439.68 129.663 465.182 102.346C467.268 100.112 469.276 97.9602 471.164 95.9024C500.903 63.4772 534.988 32.7915 567.952 3.11451C580.116 -7.83682 592.695 -19.1619 604.859 -30.3964L607.101 -32.4668C636.134 -59.2709 663.558 -84.5875 676.9 -121.763C680.333 -131.329 684.697 -140.909 688.918 -150.173C701.876 -178.615 715.275 -208.027 702.945 -240.293C695.076 -260.891 696.491 -278.625 707.401 -296.101C709.9 -300.107 712.69 -303.779 715.388 -307.33C723.792 -318.394 731.732 -328.845 727.106 -345.398C725.326 -351.767 723.165 -357.153 721.258 -361.906C715.41 -376.48 711.546 -386.108 725.741 -405.317L724.79 -406.019Z" fill="#412BA8"/>
<path d="M719.002 -412.127C712.197 -403.531 705.379 -393.305 706.39 -382.63C706.98 -376.409 710.403 -371.531 713.715 -366.812C716.36 -363.043 719.096 -359.145 720.288 -354.633C724.34 -339.313 715.777 -328.586 706.712 -317.23C702.732 -312.245 698.616 -307.089 695.71 -301.542C685.278 -281.633 688.027 -261.436 692.553 -242.576C699.885 -212.03 686.144 -185.142 672.856 -159.139C667.541 -148.738 662.044 -137.983 657.913 -127.076C655.946 -121.883 654.371 -116.411 652.702 -110.617C649.76 -100.396 646.718 -89.8286 641.389 -81.0605C633.112 -67.4494 621.149 -55.5839 609.567 -44.1092C607.468 -42.029 605.394 -39.9675 603.355 -37.9193C585.127 -19.5731 565.894 -1.47506 547.282 16.027C522.355 39.4626 496.582 63.6996 473.153 88.6777C470.523 91.4825 467.463 94.6206 464.223 97.9422C436.643 126.223 390.48 173.557 420.129 210.128C431.617 224.298 448.63 232.228 465.083 239.896C473.502 243.821 482.209 247.879 489.892 252.682C505.901 262.691 518.096 273.675 526.139 285.329C540.508 306.151 548.028 328.512 549.129 353.69C549.714 367.074 545.924 380.784 541.74 393.606C530.401 428.363 504.025 456.932 478.517 484.56C473.23 490.286 467.763 496.208 462.616 501.999L461.321 503.456C453.109 512.69 444.618 522.239 437.321 532.099C412.058 566.235 403.27 590.981 429.132 623.93C431.544 627.002 434.22 630.154 437.085 633.295C464.526 663.379 497.831 683.709 528.461 689.07L528.665 687.906C498.288 682.589 465.226 662.393 437.958 632.498C435.112 629.378 432.456 626.25 430.062 623.2C404.667 590.847 413.356 566.469 438.271 532.802C445.536 522.986 454.009 513.457 462.204 504.242L463.499 502.785C468.64 497.002 474.102 491.085 479.385 485.362C504.98 457.641 531.445 428.976 542.864 393.973C547.081 381.045 550.903 367.211 550.309 353.638C549.199 328.231 541.611 305.668 527.111 284.658C518.976 272.87 506.665 261.774 490.518 251.68C482.774 246.838 474.034 242.764 465.581 238.824C449.251 231.212 432.363 223.341 421.046 209.382C392.061 173.629 437.763 126.766 465.069 98.7672C468.312 95.4407 471.377 92.2995 474.015 89.4863C497.418 64.5321 523.178 40.3103 548.091 16.8869C566.711 -0.620069 585.955 -18.7213 604.194 -37.0871C606.23 -39.1346 608.304 -41.1935 610.399 -43.2705C622.027 -54.7908 634.047 -66.7119 642.397 -80.4471C647.81 -89.3509 650.874 -99.9958 653.839 -110.29C655.499 -116.06 657.068 -121.51 659.018 -126.657C663.126 -137.504 668.607 -148.229 673.907 -158.601C687.294 -184.796 701.136 -211.881 693.703 -242.852C689.231 -261.489 686.505 -281.43 696.758 -300.994C699.61 -306.44 703.691 -311.55 707.635 -316.493C716.484 -327.579 725.635 -339.041 721.431 -354.937C720.184 -359.652 717.388 -363.638 714.682 -367.493C711.311 -372.296 708.127 -376.833 707.567 -382.744C706.594 -393.001 713.27 -402.983 719.929 -411.394L719.002 -412.127Z" fill="#412BA8"/>
<path d="M713.216 -418.231C705.661 -409.343 698.831 -399.727 700.002 -389.629C700.674 -383.832 704.127 -379.465 707.465 -375.244C710.215 -371.767 713.057 -368.172 714.231 -363.847C718.088 -349.65 708.651 -338.025 699.524 -326.784C694.824 -320.993 690.384 -315.524 687.606 -309.703C677.313 -288.124 679.601 -265.305 682.826 -243.781C687.361 -213.513 672.373 -188.935 657.879 -165.166C650.738 -153.454 643.353 -141.344 638.298 -128.621C635.159 -120.721 632.973 -111.984 630.858 -103.535C629.336 -97.4517 627.762 -91.1621 625.837 -85.186C620.465 -68.5068 610.713 -56.4396 599.461 -43.5022C577.016 -17.6907 551.901 6.75823 527.613 30.4027C510.496 47.0679 492.792 64.3017 476.334 81.727C473.48 84.7489 470.013 88.2407 465.998 92.2833C436.947 121.54 382.873 175.996 407.629 213.227C418.798 230.023 437.837 239.086 456.251 247.85C463.03 251.077 469.433 254.125 475.387 257.517C489.248 265.413 504.953 275.324 516.352 288.958C533.273 309.197 542.542 331.146 544.685 356.058C545.832 369.388 541.632 383.176 537.605 395.054C526.617 427.457 500.638 454.358 475.515 480.372C468.197 487.949 461.286 495.106 454.726 502.4L454.558 502.587C446.009 512.093 437.169 521.923 429.767 532.19C406.235 564.831 398.395 589.305 424.308 625.106C426.527 628.171 429.117 631.413 432.228 635.014C459.026 666.053 492.882 686.929 525.115 692.289L525.309 691.122C493.344 685.807 459.743 665.075 433.123 634.242C430.035 630.665 427.465 627.45 425.265 624.412C399.774 589.192 407.518 565.072 430.726 532.881C438.091 522.666 446.909 512.86 455.437 503.377L455.605 503.19C462.15 495.912 469.055 488.762 476.365 481.193C501.579 455.085 527.652 428.087 538.724 395.433C542.79 383.441 547.03 369.513 545.863 355.955C543.698 330.794 534.342 308.631 517.259 288.199C505.74 274.421 489.925 264.438 475.973 256.489C469.98 253.076 463.557 250.018 456.759 246.782C438.491 238.087 419.602 229.096 408.614 212.572C384.391 176.145 438.024 122.133 466.837 93.1164C470.858 89.0679 474.33 85.5711 477.194 82.5392C493.635 65.1306 511.329 47.907 528.438 31.25C552.743 7.58813 577.873 -16.8785 600.354 -42.7267C611.693 -55.7639 621.522 -67.9308 626.964 -84.8237C628.899 -90.8366 630.479 -97.1466 632.006 -103.249C634.11 -111.661 636.287 -120.357 639.396 -128.186C644.414 -140.815 651.772 -152.881 658.888 -164.551C673.493 -188.5 688.594 -213.264 683.995 -243.958C680.797 -265.299 678.525 -287.916 688.675 -309.193C691.391 -314.888 695.788 -320.304 700.443 -326.038C709.756 -337.511 719.387 -349.374 715.372 -364.155C714.134 -368.715 711.215 -372.408 708.392 -375.977C705.008 -380.258 701.81 -384.302 701.176 -389.765C700.058 -399.413 706.734 -408.781 714.115 -417.465L713.216 -418.231Z" fill="#412BA8"/>
<path d="M707.423 -424.325C699.588 -415.458 692.108 -405.902 694.132 -395.157C695.031 -390.38 698.134 -386.712 701.132 -383.165C703.84 -379.963 706.639 -376.653 707.72 -372.58C711.198 -359.476 701.181 -346.569 691.495 -334.088C685.705 -326.625 680.234 -319.577 677.618 -312.597C669.68 -291.413 671.161 -268.347 672.595 -246.04L672.738 -243.822C674.739 -212.435 659.787 -192.738 643.956 -171.884C633.853 -158.574 623.406 -144.811 617.044 -127.389C613.351 -117.278 611.168 -106.619 609.056 -96.31C605.648 -79.6741 602.124 -62.4726 592.143 -47.8132C570.91 -16.6314 542.719 11.1734 515.452 38.0739C503.418 49.9419 490.974 62.2185 479.56 74.3969L476.474 77.6878C451.546 104.265 425.769 131.747 407.101 163.244C398.217 178.235 387.16 196.892 395.637 215.771C404.735 236.029 426.963 246.064 446.575 254.917C451.876 257.31 456.883 259.571 461.54 261.967C477.587 270.225 494.142 279.632 506.524 292.431C525.173 311.71 535.482 332.773 538.966 358.718C540.665 371.367 536.77 383.973 532.274 396.851C521.694 427.153 495.843 452.737 470.838 477.476C461.908 486.312 453.474 494.659 445.912 503.05C438.312 511.483 428.854 521.979 421.503 532.587C396.392 568.835 395.764 592.647 419.018 626.955C421.229 630.217 423.876 633.732 426.886 637.404C452.683 668.87 488.113 690.633 521.664 695.621L521.838 694.451C488.57 689.505 453.415 667.899 427.8 636.655C424.813 633.012 422.188 629.525 419.997 626.292C397.083 592.486 397.708 569.01 422.476 533.261C429.783 522.714 439.213 512.25 446.79 503.842C454.329 495.476 462.753 487.14 471.67 478.317C496.771 453.479 522.72 427.801 533.39 397.24C537.935 384.222 541.871 371.468 540.138 358.56C536.618 332.353 526.208 311.078 507.374 291.608C494.873 278.686 478.218 269.22 462.081 260.916C457.396 258.505 452.377 256.239 447.061 253.839C427.641 245.073 405.63 235.137 396.716 215.287C388.49 196.968 399.373 178.603 408.118 163.846C426.719 132.461 452.451 105.027 477.336 78.4966L480.422 75.2061C491.82 63.0426 504.254 50.7747 516.281 38.9159C543.588 11.9787 571.822 -15.8696 593.12 -47.1476C603.235 -62.0028 606.782 -79.3228 610.214 -96.0728C612.318 -106.339 614.491 -116.955 618.154 -126.983C624.456 -144.238 634.848 -157.928 644.898 -171.168C660.865 -192.203 675.947 -212.071 673.917 -243.896L673.775 -246.115C672.35 -268.298 670.876 -291.236 678.725 -312.182C681.278 -318.993 686.695 -325.973 692.429 -333.363C702.292 -346.072 712.49 -359.213 708.863 -372.884C707.713 -377.212 704.826 -380.627 702.035 -383.929C699.001 -387.516 696.136 -390.904 695.294 -395.376C693.368 -405.597 700.668 -414.895 708.31 -423.542L707.423 -424.325Z" fill="#412BA8"/>
<path d="M701.636 -430.422C695.151 -423.509 685.349 -413.062 687.703 -402.015C688.649 -397.575 691.713 -394.313 694.676 -391.159C697.464 -388.192 700.347 -385.124 701.358 -381.12C704.407 -369.038 694.033 -355.328 684 -342.068C677.747 -333.805 671.842 -325.999 669.375 -318.867C662.142 -297.948 662.264 -275.104 662.381 -253.012C662.399 -249.685 662.417 -246.376 662.409 -243.098C662.352 -219.38 656.325 -201.657 642.255 -183.837C637.026 -177.211 630.766 -170.849 624.712 -164.695C612.741 -152.526 600.36 -139.943 594.319 -124.002C589.83 -112.162 588.619 -99.3465 587.447 -86.9511C586.283 -74.6463 585.08 -61.9219 580.65 -50.3013C568.23 -17.7342 537.221 12.5528 509.865 39.2784C499.996 48.9193 490.671 58.0275 482.573 66.8402L477.484 72.3734C451.25 100.883 424.121 130.362 403.122 163.276L402.897 163.629C393.306 178.658 380.171 199.242 384.56 217.683C390.076 240.862 415.507 251.722 435.941 260.449C440.377 262.344 444.567 264.133 448.379 265.956C464.242 273.545 482.385 283.011 496.682 295.688C517.068 313.764 528.658 335.268 532.114 361.429C533.889 374.865 529.684 388.02 525.336 399.116C514.032 427.961 488.298 452.755 463.413 476.731C453.649 486.137 444.427 495.023 436.182 504.028C428.971 511.902 419.768 522.354 412.544 533.373C389.623 568.33 389.785 593.521 413.161 629.64C415.636 633.465 418.261 637.157 420.963 640.612C446.201 672.888 482.494 694.762 518.048 699.125L518.191 697.951C482.943 693.626 446.944 671.918 421.894 639.884C419.215 636.456 416.61 632.793 414.153 628.998C391.087 593.356 390.924 568.502 413.531 534.023C420.709 523.074 429.872 512.669 437.053 504.827C445.273 495.849 454.482 486.978 464.232 477.584C489.212 453.517 515.038 428.633 526.436 399.548C530.839 388.312 535.096 374.977 533.286 361.274C529.791 334.82 518.074 313.077 497.466 294.804C483.06 282.03 464.825 272.514 448.889 264.891C445.054 263.056 440.853 261.262 436.405 259.362C416.214 250.74 391.087 240.009 385.709 217.41C381.436 199.456 394.416 179.118 403.892 164.266L404.118 163.913C425.061 131.087 452.153 101.646 478.353 73.1748L483.444 67.6419C491.518 58.852 500.832 49.7553 510.691 40.1248C538.137 13.3126 569.243 -17.069 581.753 -49.8793C586.242 -61.6501 587.453 -74.4555 588.623 -86.8385C589.788 -99.1557 590.992 -111.892 595.424 -123.582C601.378 -139.29 613.669 -151.783 625.555 -163.865C631.631 -170.041 637.913 -176.426 643.183 -183.104C657.43 -201.149 663.533 -219.091 663.591 -243.094C663.599 -246.376 663.581 -249.687 663.563 -253.018C663.447 -275.011 663.325 -297.751 670.493 -318.481C672.899 -325.436 678.749 -333.169 684.943 -341.355C695.143 -354.837 705.693 -368.778 702.504 -381.411C701.419 -385.711 698.429 -388.891 695.539 -391.968C692.555 -395.143 689.736 -398.143 688.86 -402.261C686.634 -412.704 696.181 -422.88 702.499 -429.612L701.636 -430.422Z" fill="#412BA8"/>
<path d="M695.848 -436.518L695.54 -436.207C688.616 -429.191 678.153 -418.59 681.317 -407.493C682.372 -403.795 685.371 -401.172 688.274 -398.636C691.426 -395.882 694.404 -393.279 695.204 -389.396C697.549 -378.018 687.217 -364.356 677.224 -351.145C671.283 -343.29 665.671 -335.871 663.238 -329.46C654.757 -307.124 653.758 -282.726 652.792 -259.132C652.563 -253.538 652.326 -247.755 651.991 -242.141C650.405 -215.539 641.73 -195.561 623.863 -177.364C618.678 -172.078 612.859 -167.079 606.699 -161.778C592.079 -149.198 576.958 -136.191 570.299 -118.98C565.298 -106.059 565.477 -92.1759 565.65 -78.7501C565.761 -70.097 565.877 -61.1486 564.604 -52.546C559.58 -18.5935 529.896 12.2395 503.706 39.4422C497.026 46.3799 490.717 52.9341 485.137 59.2179C482.402 62.2977 479.66 65.3773 476.916 68.4575C452.816 95.5229 427.895 123.509 406.62 153.51C405.699 154.808 404.747 156.139 403.773 157.501C391.36 174.852 375.913 196.447 376.317 217.829C376.822 244.451 403.906 255.84 425.669 264.989C429.302 266.518 432.732 267.959 435.939 269.422C453.779 277.56 472.29 286.734 486.82 298.653C508.767 316.656 520.972 338.095 524.13 364.194C525.44 375.009 522.872 387.384 516.281 402.025C504.243 428.767 479.771 452.168 456.1 474.799C445.146 485.274 434.798 495.169 425.561 505.406C415.394 516.676 408.2 525.957 402.921 534.614C382.19 568.613 383.161 594.439 406.629 633.305C409.025 637.274 411.627 641.135 414.363 644.783C439.11 677.779 476.436 699.49 514.211 702.858L514.316 701.68C476.868 698.341 439.856 676.806 415.307 644.073C412.595 640.457 410.015 636.628 407.639 632.694C384.444 594.28 383.474 568.776 403.928 535.229C409.168 526.636 416.321 517.411 426.438 506.197C435.644 495.992 445.977 486.112 456.916 475.654C480.666 452.944 505.225 429.462 517.358 402.51C524.039 387.667 526.639 375.087 525.303 364.052C522.105 337.635 509.762 315.944 487.568 297.738C472.934 285.734 454.341 276.518 436.429 268.347C433.206 266.876 429.767 265.43 426.126 263.9C404.68 254.882 377.988 243.659 377.498 217.806C377.1 196.816 392.422 175.398 404.733 158.189C405.708 156.825 406.662 155.493 407.584 154.194C428.82 124.246 453.72 96.2851 477.799 69.2442C480.543 66.1621 483.286 63.0833 486.02 60.0022C491.584 53.7362 497.886 47.1912 504.558 40.2617C530.87 12.9317 560.694 -18.0457 565.772 -52.3732C567.059 -61.0696 566.944 -70.0654 566.831 -78.7649C566.66 -92.0788 566.483 -105.846 571.401 -118.554C577.955 -135.489 592.959 -148.4 607.469 -160.881C613.651 -166.199 619.469 -171.202 624.707 -176.537C642.787 -194.951 651.567 -215.162 653.171 -242.071C653.507 -247.695 653.744 -253.485 653.972 -259.084C654.936 -282.583 655.93 -306.883 664.343 -329.041C666.716 -335.292 672.278 -342.646 678.165 -350.431C688.317 -363.854 698.815 -377.733 696.361 -389.635C695.48 -393.907 692.212 -396.764 689.051 -399.526C686.151 -402.061 683.413 -404.455 682.454 -407.817C679.478 -418.25 689.651 -428.556 696.381 -435.376L696.689 -435.688L695.848 -436.518Z" fill="#412BA8"/>
<path d="M687.004 -439.628C675.596 -428.22 671.977 -420.881 680.627 -406.976C681.908 -404.918 683.076 -403.299 684.107 -401.871C687.929 -396.574 689.359 -394.592 685.831 -384.94C682.64 -376.212 676.861 -368.907 670.742 -361.172C664.355 -353.096 657.749 -344.745 654.26 -334.553C647.73 -315.476 646.508 -294.698 645.328 -274.607C643.902 -250.374 642.429 -225.317 631.564 -203.347C622.347 -184.712 605.039 -171.561 588.298 -158.845C570.237 -145.124 553.176 -132.163 545.215 -112.841C539.793 -99.6795 542.263 -84.9974 544.652 -70.7986C546.473 -59.9747 548.356 -48.781 546.827 -38.167C544.215 -20.0273 531.641 -3.85434 520.549 10.4138C519.273 12.0549 518.013 13.6761 516.783 15.278C502.671 33.6764 487.303 51.5835 472.44 68.9001C466.719 75.5665 460.804 82.4602 455.043 89.2838L454.294 90.1704C432.119 116.437 409.188 143.599 390.575 172.993L388.908 175.619C379.244 190.798 367.217 209.691 368.976 227.439C371.232 250.195 395.776 260.399 415.498 268.599C418.597 269.887 421.524 271.105 424.249 272.321C468.067 291.883 513.113 318.426 514.974 366.974C516.545 407.999 478.929 443.701 445.743 475.203C433.847 486.493 422.612 497.157 414.111 507.235C375.902 552.526 371.755 589.223 399.321 638.122C421.276 677.068 464.753 704.057 510.083 706.88L510.156 705.699C465.216 702.901 422.115 676.148 400.351 637.542C373.076 589.157 377.188 552.837 415.015 507.997C423.473 497.971 434.687 487.328 446.557 476.061C479.926 444.386 517.747 408.488 516.155 366.93C514.271 317.734 468.882 290.952 424.731 271.242C421.992 270.02 419.058 268.8 415.952 267.508C396.521 259.429 372.338 249.374 370.154 227.323C368.434 209.981 380.34 191.281 389.905 176.253L391.575 173.627C410.144 144.3 433.048 117.17 455.198 90.9336L455.947 90.0466C461.704 83.2263 467.619 76.335 473.339 69.6711C488.211 52.3413 503.59 34.4222 517.723 15.9983C518.95 14.3971 520.208 12.7792 521.482 11.1399C532.665 -3.24511 545.341 -19.5488 547.998 -37.9985C549.553 -48.7954 547.654 -60.0813 545.818 -70.9942C543.349 -85.6756 541.015 -99.5414 546.309 -112.39C554.147 -131.418 571.084 -144.284 589.013 -157.903C605.861 -170.7 623.281 -183.933 632.624 -202.823C643.596 -225.008 645.076 -250.187 646.508 -274.537C647.684 -294.55 648.9 -315.244 655.379 -334.169C658.803 -344.17 665.344 -352.44 671.67 -360.438C677.577 -367.906 683.685 -375.627 686.942 -384.535C690.686 -394.776 688.924 -397.216 685.066 -402.563C684.046 -403.975 682.89 -405.576 681.631 -407.601C672.667 -422.009 677.306 -428.748 690.881 -441.763L690.063 -442.617C688.99 -441.588 687.968 -440.592 687.004 -439.628Z" fill="#412BA8"/>
</g>
</svg>
