<svg width="996" height="367" viewBox="0 0 996 367" fill="none" xmlns="http://www.w3.org/2000/svg">
<g opacity="0.7">
<path d="M1607.38 -484.753C1624.14 -393.018 1551.33 -294.69 1474.38 -256.241C1435.15 -236.642 1391.68 -225.529 1349.64 -214.784L1343.73 -213.274C1340.32 -212.399 1336.64 -211.495 1332.77 -210.543C1293.39 -200.846 1233.87 -186.192 1217.42 -146.486C1204.75 -115.91 1226.14 -80.9799 1243.33 -52.9133C1248.27 -44.8358 1252.95 -37.2072 1256.44 -30.3267C1275.66 7.52347 1281.93 44.8949 1275.08 80.7494C1268.04 117.611 1239.78 128.524 1212.46 139.08C1206.36 141.438 1200.04 143.877 1194.08 146.563C1149.16 166.789 1110.06 198.517 1074.55 243.551C1060.89 260.877 1047.62 278.979 1034.79 296.488C1004.19 338.244 972.55 381.422 933.573 416.645C916.866 431.743 898.336 445.915 880.417 459.62C861.818 473.845 842.587 488.554 825.058 504.518C824.789 504.762 798.455 529.426 802.459 540.972C803.935 545.224 809.321 546.81 818.471 545.685L818.412 543.855C810.092 544.878 805.267 543.652 804.074 540.211C801.261 532.1 818.026 513.241 826.106 505.883C843.572 489.975 862.772 475.292 881.337 461.092C899.288 447.362 917.849 433.167 934.615 418.015C973.744 382.655 1005.45 339.392 1036.11 297.553C1048.93 280.06 1062.19 261.971 1075.82 244.674C1111.13 199.897 1149.98 168.361 1194.63 148.254C1200.55 145.588 1206.84 143.158 1212.92 140.809C1240.74 130.064 1269.5 118.954 1276.76 80.9797C1283.69 44.6914 1277.37 6.91377 1257.96 -31.3062C1254.44 -38.2453 1249.75 -45.9028 1244.79 -54.0094C1227.82 -81.7196 1206.7 -116.208 1218.98 -145.854C1235.04 -184.626 1294.01 -199.141 1333.03 -208.748C1336.9 -209.702 1340.58 -210.608 1344 -211.483L1349.91 -212.993C1392.04 -223.763 1435.6 -234.898 1475 -254.581C1514.39 -274.238 1551.62 -308.618 1577.18 -348.869C1605.63 -393.654 1616.95 -442.086 1609.07 -485.243L1607.38 -484.753Z" fill="#A1A7FF"/>
<path d="M1603.23 -497.963C1618.99 -405.307 1538.55 -311.637 1454.81 -270.535C1413.55 -250.284 1368.66 -236.695 1322.45 -223.424C1317.75 -222.073 1312.57 -220.683 1307.08 -219.21C1266.15 -208.222 1210.1 -193.176 1193.74 -154.405C1179.09 -119.694 1204.33 -81.5554 1228.74 -44.6741C1245.48 -19.3846 1261.28 4.50293 1264.31 26.5586C1266.67 43.7264 1265.91 63.6224 1262.33 78.4846C1257.09 100.259 1239.56 118.593 1217.66 125.188C1205.45 128.867 1190.85 135.869 1174.26 146.006C1140.02 166.931 1110.58 192.41 1084.26 223.9C1076.58 233.084 1069.26 243.411 1062.49 253.203C1057.47 260.463 1052.51 267.713 1047.56 274.934C1015.34 322.023 984.898 366.5 944.921 405.464C937.705 412.497 929.734 419.71 921.23 426.902C903.971 441.499 885.27 455.161 867.184 468.373C847.727 482.587 827.609 497.284 809.06 513.293C808.77 513.543 780.121 538.441 783.557 550.404C784.747 554.548 789.543 556.493 797.812 556.183L797.889 554.341C790.428 554.621 786.159 553.07 785.201 549.735C782.649 540.851 802.807 520.96 810.069 514.693C828.558 498.735 848.645 484.061 868.07 469.871C886.183 456.639 904.913 442.957 922.224 428.315C930.764 421.093 938.77 413.849 946.018 406.783C986.14 367.679 1016.63 323.121 1048.92 275.947C1053.86 268.727 1058.82 261.48 1063.84 254.222C1070.58 244.471 1077.87 234.189 1085.49 225.069C1111.68 193.747 1140.96 168.404 1175.02 147.59C1191.47 137.534 1205.93 130.597 1218.01 126.959C1240.54 120.174 1258.59 101.271 1263.99 78.8078C1267.63 63.7196 1268.4 43.5419 1266.01 26.1483C1262.93 3.68498 1247.01 -20.3605 1230.17 -45.8185C1206.02 -82.2998 1181.06 -120.023 1195.29 -153.759C1211.27 -191.629 1266.82 -206.539 1307.37 -217.425C1312.86 -218.899 1318.05 -220.291 1322.77 -221.647C1369.06 -234.94 1414.03 -248.554 1455.41 -268.87C1497.08 -289.317 1537.12 -322.859 1565.23 -360.864C1588.63 -392.497 1614.51 -442.043 1604.92 -498.433L1603.23 -497.963Z" fill="#A1A7FF"/>
<path d="M1599.03 -511.187C1614.7 -413.092 1520.97 -327.894 1435.99 -284.793C1391.12 -262.029 1341.28 -245.208 1302.88 -233.097C1296.52 -231.09 1289.29 -229.063 1281.63 -226.918C1241.64 -215.709 1186.88 -200.358 1169.88 -162.615C1153.52 -126.267 1185.16 -82.1573 1213.08 -43.2401C1230.54 -18.905 1247.03 4.08011 1251.02 23.1712C1255.04 42.3517 1254.59 58.9958 1249.6 75.5511C1242.16 100.267 1223.25 108.846 1203.23 117.928C1201.15 118.87 1199.06 119.816 1196.98 120.785C1180.99 128.227 1165.6 138.905 1155.52 146.548C1124.07 170.388 1096.8 198.391 1072.18 232.159C1065.15 241.797 1058.32 252.497 1051.93 262.631C1019.02 314.815 982.857 369.535 934.565 414.62C927.266 421.432 919.128 428.469 910.377 435.535C893.104 449.478 874.401 462.463 856.313 475.02C836.111 489.046 815.221 503.55 796.039 519.564C788.754 525.646 765.178 546.381 767.673 557.837C768.581 562.01 772.732 564.448 780.01 565.083L780.284 563.246C773.763 562.677 770.084 560.671 769.346 557.283C767.033 546.659 791.995 525.183 797.023 520.986C816.139 505.026 836.993 490.547 857.161 476.546C875.277 463.968 894.009 450.964 911.336 436.976C920.124 429.881 928.297 422.814 935.63 415.97C984.099 370.721 1020.35 315.876 1053.33 263.58C1059.7 253.475 1066.5 242.809 1073.5 233.223C1098.01 199.616 1125.13 171.749 1156.43 148.027C1166.44 140.439 1181.7 129.845 1197.56 122.468C1199.63 121.502 1201.71 120.559 1203.79 119.618C1224.22 110.351 1243.52 101.591 1251.23 75.989C1256.32 59.0986 1256.78 42.1443 1252.7 22.632C1248.63 3.17576 1232.03 -19.9505 1214.47 -44.4347C1186.84 -82.9547 1155.52 -126.611 1171.42 -161.923C1188.03 -198.814 1242.31 -214.027 1281.94 -225.135C1289.61 -227.285 1296.85 -229.315 1303.24 -231.33C1341.71 -243.462 1391.63 -260.314 1436.61 -283.136C1481.96 -306.142 1524.58 -338.713 1553.56 -372.511C1592.37 -417.767 1608.24 -464.575 1600.72 -511.638L1599.03 -511.187Z" fill="#A1A7FF"/>
<path d="M1594.78 -524.417C1612.08 -421.244 1508.41 -344.85 1418.41 -298.944C1372.15 -275.343 1326.09 -255.788 1285.23 -242.392C1277.51 -239.862 1268.61 -237.379 1259.18 -234.75C1216.96 -222.977 1164.43 -208.329 1146.08 -171.048C1127.27 -132.823 1164.29 -84.418 1196.96 -41.7104C1214.27 -19.0694 1230.63 2.31701 1235.91 18.977C1242.55 39.963 1242.84 57.2183 1236.78 71.7296C1228.88 90.6585 1210.91 99.8124 1193.51 108.663C1187.64 111.654 1182.09 114.477 1176.93 117.656C1164.96 125.034 1151.5 135.53 1138.01 148.009C1109.8 174.091 1084.8 204.287 1061.58 240.322C1055.33 250.029 1049.3 260.328 1042.92 271.231L1042.68 271.646C1003.95 337.83 967.805 384.226 925.474 422.079C915.932 430.612 908.159 437.046 901.008 442.327C886.662 452.922 871.617 462.717 855.689 473.088C832.141 488.42 807.79 504.274 786.238 522.742L785.51 523.365C776.996 530.645 754.379 549.984 755.924 562.837C756.446 567.175 759.621 570.329 765.361 572.21L765.979 570.442C760.873 568.768 758.063 566.083 757.627 562.457C756.211 550.68 779.017 531.18 786.511 524.772L787.24 524.149C808.695 505.762 832.993 489.943 856.489 474.645C871.739 464.716 887.51 454.449 901.901 443.821C909.101 438.503 916.919 432.033 926.507 423.458C969.002 385.458 1005.27 338.912 1044.11 272.535L1044.35 272.121C1050.72 261.237 1056.74 250.958 1062.97 241.288C1086.09 205.4 1110.98 175.332 1139.06 149.366C1152.47 136.971 1165.82 126.554 1177.69 119.24C1182.78 116.099 1188.3 113.292 1194.14 110.319C1211.85 101.306 1230.15 91.9911 1238.34 72.3678C1244.59 57.3977 1244.33 39.6985 1237.54 18.261C1232.17 1.31185 1215.73 -20.187 1198.32 -42.9475C1165.97 -85.2358 1129.31 -133.165 1147.58 -170.291C1165.53 -206.769 1217.63 -221.296 1259.48 -232.967C1268.93 -235.601 1277.85 -238.089 1285.6 -240.63C1326.55 -254.055 1372.7 -273.647 1419.04 -297.288C1509.62 -343.494 1613.97 -420.507 1596.47 -524.882L1594.78 -524.417Z" fill="#A1A7FF"/>
<path d="M1590.44 -537.697C1610.15 -412.809 1455.49 -336.662 1404.67 -311.638C1400.69 -309.676 1396.69 -307.7 1392.68 -305.72C1352.56 -285.891 1311.06 -265.389 1269.16 -251.841C1260.79 -249.132 1251.18 -246.495 1241.02 -243.703C1197.43 -231.734 1143.19 -216.84 1122.6 -179.668C1100.45 -139.684 1144.89 -84.7343 1180.59 -40.5812C1197.29 -19.9325 1213.06 -0.430228 1219 13.918C1224 26.0089 1233.31 48.5133 1223.71 66.82C1216.13 81.2635 1197.51 91.7388 1181.08 100.981C1172.29 105.923 1163.99 110.59 1157.67 115.572C1146.63 124.283 1134.22 136.234 1121.79 150.135C1097.22 177.623 1074.46 209.673 1052.24 248.117C1047.7 255.962 1043.26 264.013 1038.56 272.537L1034.46 279.97C1010.37 323.466 971.9 385.986 916.075 426.576C910.02 430.977 903.666 435.285 896.939 439.847C894.481 441.514 892.014 443.187 889.555 444.87C888.262 445.755 885.851 447.332 882.553 449.488C849.768 470.929 749.996 536.179 748.323 566.772C748.077 571.296 749.957 574.9 753.913 577.483L754.888 575.884C751.41 573.615 749.823 570.62 750.036 566.73C751.109 547.119 795.963 508.198 883.356 451.043C886.668 448.877 889.091 447.292 890.39 446.404C892.846 444.722 895.313 443.05 897.767 441.385C904.211 437.016 910.875 432.497 916.955 428.078C973.099 387.256 1011.73 324.482 1035.91 280.817L1040.02 273.379C1044.72 264.865 1049.15 256.824 1053.67 248.998C1075.83 210.677 1098.5 178.738 1122.98 151.356C1135.34 137.54 1147.66 125.67 1158.61 117.029C1164.82 112.139 1173.05 107.507 1181.77 102.602C1198.44 93.2267 1217.33 82.601 1225.19 67.625C1235.23 48.479 1225.7 25.4369 1220.57 13.057C1214.54 -1.51672 1199.43 -20.2094 1181.92 -41.8539C1146.56 -85.5826 1102.56 -140.005 1124.06 -178.82C1144.24 -215.264 1198.06 -230.041 1241.31 -241.917C1251.5 -244.714 1261.12 -247.356 1269.54 -250.077C1311.56 -263.663 1353.11 -284.196 1393.29 -304.052C1397.3 -306.033 1401.3 -308.008 1405.28 -309.969C1441.96 -328.03 1495.4 -356.574 1535.89 -395.827C1581.19 -439.727 1600.11 -487.611 1592.14 -538.145L1590.44 -537.697Z" fill="#A1A7FF"/>
<path d="M1586 -551.013C1602.3 -439.595 1494.02 -370.29 1397.86 -322.353L1391.2 -319.034C1347.79 -297.368 1302.89 -274.963 1256.28 -261.068C1247.57 -258.471 1237.78 -255.965 1227.42 -253.314C1181.45 -241.548 1124.24 -226.905 1099.75 -188.456C1072.98 -146.409 1123.44 -87.1979 1163.98 -39.6206C1180.2 -20.5892 1194.21 -4.15295 1200.36 7.94914C1207.2 21.4059 1218.6 43.8239 1210.02 60.368C1204.09 71.7788 1187.48 81.8031 1171.41 91.4976C1159.41 98.7397 1147 106.229 1139.27 114.237C1128.03 125.883 1116.81 139.152 1106.82 152.606C1086.05 180.591 1066.03 213.191 1043.81 255.197C1041.77 259.043 1039.73 262.943 1037.65 266.887C1034.15 273.561 1030.57 280.363 1026.89 287.252C995.265 346.381 957.287 389.885 903.747 428.308C895.455 434.26 886.718 440.413 878.268 446.364L877.757 446.724C875.641 448.215 871.632 450.827 866.558 454.135C833.548 475.65 745.864 532.801 740.575 566.745C739.686 572.451 741.107 577.33 744.796 581.248L746.051 579.883C742.699 576.324 741.461 572.078 742.267 566.903C747.414 533.87 834.552 477.075 867.357 455.693C872.646 452.245 876.468 449.754 878.613 448.244L879.124 447.885C887.577 441.931 896.318 435.775 904.616 429.818C958.416 391.208 996.58 347.492 1028.36 288.071C1032.05 281.178 1035.62 274.371 1039.13 267.693C1041.2 263.75 1043.25 259.852 1045.28 256.007C1067.45 214.098 1087.42 181.584 1108.13 153.685C1118.06 140.299 1129.23 127.099 1140.41 115.515C1147.96 107.692 1160.26 100.269 1172.16 93.0909C1188.46 83.2548 1205.31 73.0853 1211.5 61.1641C1220.56 43.7014 1208.89 20.7439 1201.91 7.02735C1195.64 -5.31289 1181.57 -21.8168 1165.29 -40.9272C1125.13 -88.0483 1075.16 -146.692 1101.14 -187.5C1125.21 -225.288 1182.03 -239.832 1227.69 -251.519C1238.07 -254.175 1247.87 -256.685 1256.61 -259.291C1303.36 -273.23 1348.33 -295.669 1391.82 -317.37L1398.47 -320.69C1439.54 -341.157 1491.7 -369.51 1530.86 -407.356C1576.16 -451.125 1595.28 -499.603 1587.7 -551.443L1586 -551.013Z" fill="#A1A7FF"/>
<path d="M1581.44 -564.376C1588.29 -512.252 1570.08 -463.851 1527.31 -420.518C1489.2 -381.898 1437.57 -352.895 1396.85 -331.939C1353.33 -309.537 1302.27 -284.38 1247.07 -269.338C1237.42 -266.708 1226.75 -264.237 1215.45 -261.62C1167.17 -250.44 1107.07 -236.525 1077.92 -197.262C1045.56 -153.676 1103.83 -88.1287 1146.38 -40.268C1161.24 -23.5592 1174.07 -9.12945 1180.13 1.16142C1189.24 16.6204 1201.2 44.0857 1194.52 51.9754C1189.15 58.3254 1179.41 65.2589 1168.12 73.288C1152.1 84.6895 1133.94 97.614 1121.73 113.461C1111.91 126.201 1101.96 140.654 1092.95 155.258C1072.04 189.138 1054.03 224.795 1035.9 261.392C1030.23 272.822 1024.89 283.266 1019.56 293.322C986.055 356.58 941.54 392.613 891.055 429.928C884.001 435.141 876.794 440.387 869.549 445.663L865.826 448.372C862.832 450.553 857.776 453.906 851.375 458.151C816.42 481.333 743.686 529.57 735.205 565.338C733.557 572.282 734.417 578.489 737.758 583.785L739.202 582.663C736.129 577.794 735.342 572.071 736.864 565.655C745.157 530.683 817.445 482.741 852.186 459.702C858.606 455.444 863.678 452.081 866.706 449.875L870.428 447.165C877.676 441.889 884.888 436.639 891.946 431.422C942.63 393.961 987.327 357.774 1021.04 294.134C1026.37 284.061 1031.72 273.601 1037.4 262.154C1055.51 225.603 1073.5 189.994 1094.35 156.191C1103.33 141.647 1113.24 127.254 1123.02 114.569C1135.04 98.9591 1153.08 86.1255 1168.99 74.8028C1180.38 66.6977 1190.21 59.698 1195.75 53.1578C1205.73 41.3651 1181.84 0.495 1181.6 0.0842436C1175.45 -10.3449 1162.58 -24.829 1147.67 -41.6006C1105.53 -88.9927 1047.83 -153.9 1079.22 -196.184C1107.95 -234.87 1167.68 -248.704 1215.68 -259.816C1226.99 -262.436 1237.68 -264.91 1247.36 -267.55C1302.72 -282.635 1353.88 -307.842 1397.49 -330.284C1491.89 -378.869 1598.31 -449.429 1583.14 -564.78L1581.44 -564.376Z" fill="#A1A7FF"/>
<path d="M1576.74 -577.807C1588.65 -457.87 1489.09 -388.039 1400.98 -340.544C1345.22 -310.501 1294.23 -290.236 1240.52 -276.767C1229.75 -274.068 1217.91 -271.589 1205.37 -268.965C1154.55 -258.328 1091.31 -245.093 1057.51 -205.955C1018.25 -160.49 1084.19 -89.1736 1127.83 -41.9818C1141.16 -27.5669 1152.67 -15.1177 1158.48 -6.35997C1159.2 -5.27843 1160.05 -4.04869 1160.99 -2.69622C1169.07 8.92004 1184.1 30.5412 1169.36 43.4287L1164.04 48.0668C1141.7 67.5217 1122.41 84.3226 1104.89 113.046C1096.63 126.588 1088.22 141.669 1079.91 157.87C1067.77 181.538 1056.24 206.264 1045.08 230.175C1039.51 242.112 1033.75 254.457 1028.01 266.472C1023.25 276.433 1017.85 287.021 1011.97 297.942C982.829 352.058 939.031 385.206 892.663 420.301C887.763 424.009 882.834 427.74 877.891 431.519C872.228 435.848 866.491 440.187 860.744 444.533L853.637 449.911C850.348 452.402 845.219 455.946 838.723 460.431C797.952 488.591 713.113 547.185 732.57 585.29L734.09 584.3C715.407 547.712 802.41 487.622 839.562 461.963C846.076 457.465 851.222 453.911 854.544 451.393L861.65 446.017C867.399 441.67 873.139 437.328 878.805 432.997C883.746 429.22 888.672 425.492 893.57 421.785C940.117 386.555 984.083 353.279 1013.44 298.768C1019.33 287.818 1024.75 277.199 1029.52 267.208C1035.27 255.183 1041.03 242.836 1046.6 230.893C1057.75 206.999 1069.28 182.292 1081.4 158.658C1089.69 142.504 1098.06 127.468 1106.3 113.969C1123.66 85.5174 1142.84 68.8103 1165.05 49.4661L1170.38 44.8246C1186.47 30.7497 1170.81 8.22217 1162.4 -3.88055C1161.46 -5.22169 1160.62 -6.44125 1159.9 -7.5147C1154.02 -16.3809 1142.47 -28.8734 1129.1 -43.3395C1085.9 -90.0525 1020.62 -160.644 1058.72 -204.758C1092.09 -243.399 1155.01 -256.571 1205.56 -267.151C1218.12 -269.778 1229.98 -272.261 1240.77 -274.967C1294.63 -288.474 1345.75 -308.789 1401.64 -338.903C1490.26 -386.674 1590.48 -457.016 1578.45 -578.15L1576.74 -577.807Z" fill="#A1A7FF"/>
<path d="M1571.91 -591.278C1581.36 -464.622 1490.01 -394.915 1409.37 -348.338C1359.64 -319.622 1307.68 -300.207 1235.67 -283.469C1224.27 -280.818 1211.54 -278.375 1198.07 -275.789C1143.81 -265.369 1076.29 -252.404 1038.55 -213.871C1029.05 -204.171 1023.94 -192.715 1023.36 -179.824C1021.37 -135.384 1073.6 -80.9449 1108.16 -44.9216C1119.95 -32.6346 1130.13 -22.023 1135.63 -14.5055C1146.63 0.51935 1157.25 18.1233 1144.02 36.909C1137.62 45.9864 1130.38 54.4967 1123.38 62.7282C1110.7 77.6265 1097.59 93.0311 1088.48 112.802C1080.18 130.849 1073.26 146.364 1067.34 160.237C1063.33 169.648 1059.35 179.109 1055.37 188.581C1044 215.641 1032.25 243.623 1019.57 270.224C1015.13 279.537 1009.88 289.572 1003.53 300.903C978.149 346.179 934.289 379.539 891.872 411.802C882.196 419.161 873.057 426.112 864.158 433.189C859.949 436.537 855.713 439.882 851.482 443.222C848.007 445.965 844.534 448.708 841.082 451.446C837.277 454.465 831.802 458.457 825.462 463.078C786.292 491.63 713.381 544.776 728.939 585.845L730.536 585.026C715.511 545.368 787.607 492.816 826.339 464.583C832.696 459.949 838.186 455.947 842.024 452.903C845.473 450.166 848.944 447.425 852.419 444.682C856.652 441.34 860.89 437.994 865.101 434.644C873.983 427.58 883.115 420.635 892.781 413.282C935.36 380.896 979.389 347.408 1004.98 301.759C1011.36 290.389 1016.62 280.312 1021.08 270.957C1033.78 244.312 1045.55 216.307 1056.93 189.223C1060.9 179.756 1064.88 170.297 1068.89 160.891C1074.8 147.037 1081.71 131.538 1090.01 113.511C1098.99 94 1112.01 78.706 1124.59 63.9156C1131.63 55.6497 1138.9 47.1013 1145.35 37.9473C1160.53 16.4064 1145.23 -4.49506 1137.01 -15.7256C1131.44 -23.3285 1121.23 -33.9755 1109.4 -46.3034C1075.04 -82.1169 1023.11 -136.239 1025.07 -179.889C1025.63 -192.256 1030.54 -203.255 1039.68 -212.581C1076.99 -250.691 1144.22 -263.599 1198.23 -273.97C1211.72 -276.56 1224.46 -279.005 1235.9 -281.664C1308.09 -298.444 1360.17 -317.904 1410.08 -346.725C1464.88 -378.377 1502.9 -409.347 1529.73 -444.191C1563.4 -487.924 1577.76 -536.134 1573.62 -591.578L1571.91 -591.278Z" fill="#A1A7FF"/>
<path d="M1567.25 -604.712C1567.5 -566.926 1565.17 -518.077 1544.68 -475.36C1518.56 -420.92 1469.83 -385.578 1421.06 -355.497C1359.48 -317.513 1291.58 -302.654 1231.67 -289.544C1219.57 -286.895 1206.57 -284.447 1192.81 -281.857C1133.18 -270.629 1065.61 -257.902 1021.49 -220.494C1010.75 -211.39 1004.7 -200.303 1003.48 -187.545C999.408 -144.551 1050.74 -90.138 1084.7 -54.1302C1096.81 -41.2938 1107.27 -30.2077 1111.8 -23.1787C1117.28 -14.6755 1129.04 7.72929 1119.92 32.0395C1114.14 47.4502 1104.02 62.0575 1094.23 76.1838C1085.63 88.6037 1077.5 100.335 1072.19 112.457C1068.02 121.979 1064.34 133.279 1060.78 144.208C1058.83 150.198 1056.82 156.393 1054.75 162.182C1041.88 198.323 1027.53 236.697 1009.91 272.457C1007.16 278.019 1003.85 283.782 1000.65 289.355C998.23 293.57 995.725 297.929 993.558 302.056C984.208 319.859 963.802 337.311 945.797 352.708C941.298 356.557 937.049 360.191 933.162 363.671C905.601 388.341 876.801 412.55 849.784 435.038C847.001 437.355 844.213 439.665 841.433 441.969C836.946 445.689 832.478 449.393 828.079 453.079C823.767 456.691 818.547 460.792 812.502 465.541C776.569 493.768 716.431 541.01 726.633 585.595L728.299 585.012C718.383 541.674 777.883 494.932 813.433 467.006C819.491 462.247 824.723 458.137 829.057 454.504C833.454 450.821 837.92 447.119 842.404 443.402C845.185 441.098 847.973 438.786 850.758 436.469C877.79 413.969 906.605 389.745 934.188 365.054C938.06 361.589 942.301 357.962 946.792 354.121C964.935 338.605 985.498 321.018 995.032 302.863C997.181 298.772 999.565 294.624 1002.09 290.233C1005.31 284.631 1008.64 278.838 1011.41 273.216C1029.08 237.359 1043.45 198.917 1056.35 162.716C1058.42 156.901 1060.44 150.692 1062.4 144.688C1065.94 133.808 1069.6 122.557 1073.73 113.129C1078.96 101.195 1087.03 89.545 1095.58 77.2104C1105.44 62.9778 1115.63 48.2626 1121.51 32.6069C1130.94 7.45273 1118.86 -15.5832 1113.23 -24.3192C1108.62 -31.473 1098.62 -42.0772 1085.96 -55.5028C1052.2 -91.2847 1001.2 -145.359 1005.19 -187.509C1006.35 -199.71 1012.16 -210.33 1022.48 -219.076C1066.22 -256.175 1133.55 -268.847 1192.96 -280.034C1206.74 -282.627 1219.75 -285.077 1231.88 -287.731C1291.92 -300.87 1359.99 -315.771 1421.82 -353.907C1470.84 -384.147 1519.84 -419.701 1546.19 -474.62C1566.87 -517.723 1569.22 -566.873 1568.96 -604.878L1567.25 -604.712Z" fill="#A1A7FF"/>
<path d="M1562.77 -618.046C1561.61 -573.965 1559.28 -527.55 1544.88 -487.202C1523.18 -426.388 1474.7 -388.48 1434.88 -362.248C1379.75 -325.923 1315.63 -312.967 1253.61 -300.428C1244.94 -298.678 1236.31 -296.932 1227.74 -295.131C1215.36 -292.531 1202.41 -290.112 1188.69 -287.55C1126.54 -275.946 1056.1 -262.792 1006.5 -226.129C992.77 -215.985 984.86 -203.813 982.982 -189.949C977.815 -151.796 1017.89 -107.777 1050.09 -72.4078C1064.97 -56.0621 1077.82 -41.9461 1083.04 -31.7264C1092.35 -13.4799 1101.12 6.20171 1097.3 28.4866C1093.4 51.3003 1081.94 73.9306 1070.85 95.8145C1067.18 103.07 1063.71 109.923 1060.5 116.784C1052.73 133.405 1046.4 147.398 1041.56 163.483C1028.42 207.157 1014.66 241.938 998.275 272.938C997.573 274.265 996.885 275.595 996.196 276.924C992.082 284.87 987.828 293.088 980.583 300.708C935.83 347.777 888.045 390.33 834.715 437.109L830.189 441.075C824.895 445.711 819.649 450.305 814.557 454.855C810.899 458.124 806.668 461.756 802.189 465.601C767.906 495.034 716.096 539.513 725.445 584.781L727.12 584.235C718.012 540.136 769.268 496.132 803.185 467.014C807.671 463.161 811.909 459.523 815.582 456.242C820.669 451.696 825.91 447.107 831.199 442.475L835.727 438.507C889.093 391.696 936.914 349.112 981.725 301.982C989.171 294.149 993.494 285.798 997.676 277.722C998.362 276.397 999.048 275.073 999.746 273.752C1016.2 242.627 1030 207.726 1043.18 163.919C1047.98 147.969 1054.28 134.048 1062.02 117.505C1065.21 110.674 1068.67 103.835 1072.34 96.5951C1083.5 74.5709 1095.03 51.7971 1098.99 28.673C1102.9 5.79699 1094.01 -14.2005 1084.56 -32.7219C1079.24 -43.1409 1066.32 -57.3317 1051.36 -73.7619C1019.4 -108.866 979.63 -152.553 984.679 -189.833C986.478 -203.119 994.116 -214.825 1007.38 -224.63C1056.64 -261.04 1126.88 -274.156 1188.84 -285.726C1202.57 -288.289 1215.53 -290.71 1227.93 -293.313C1236.5 -295.114 1245.12 -296.858 1253.78 -298.609C1315.97 -311.181 1380.27 -324.177 1435.68 -360.688C1475.76 -387.092 1524.57 -425.272 1546.48 -486.667C1560.97 -527.304 1563.32 -573.902 1564.49 -618.15L1562.77 -618.046Z" fill="#A1A7FF"/>
<path d="M1558.31 -631.395L1557.96 -624.556C1555.96 -584.317 1553.69 -538.709 1544.53 -499.143C1532.47 -447.033 1502.28 -405.643 1449.53 -368.883C1396.77 -332.126 1330.6 -320.171 1266.62 -308.607C1251.51 -305.878 1237.24 -303.3 1223.15 -300.399C1210.82 -297.86 1198.24 -295.489 1184.92 -292.98C1121 -280.933 1048.53 -267.287 993.349 -230.864C977.675 -220.526 968.419 -207.705 965.839 -192.759C958.911 -152.619 1000.57 -104.427 1030.99 -69.2397C1041.4 -57.2041 1050.38 -46.8099 1055.72 -38.7436C1065.27 -24.2884 1076.6 -1.31266 1076.27 26.0556C1075.94 53.6947 1065.09 81.8396 1054.6 109.058C1052.9 113.448 1051.23 117.78 1049.64 122.043C1048.45 125.212 1047.27 128.392 1046.08 131.57C1041.39 144.168 1036.53 157.194 1031.61 169.239C1016.8 205.477 1002 240.564 983.837 271.461C978.673 280.246 971.043 288.695 962.208 298.477L962.025 298.679C919.5 345.766 872.483 389.565 827.015 431.921L817.407 440.874C811.486 446.391 805.893 451.602 800.468 456.843C797.987 459.24 795.373 461.728 792.666 464.306C760.612 494.823 716.713 536.62 725.109 583.45L726.793 582.951C718.59 537.196 762.023 495.845 793.736 465.651C796.447 463.071 799.065 460.578 801.548 458.179C806.96 452.951 812.547 447.746 818.462 442.234L828.069 433.282C873.568 390.897 920.618 347.068 963.201 299.916L963.384 299.714C972.295 289.848 979.99 281.327 985.262 272.359C1003.5 241.341 1018.33 206.178 1033.17 169.865C1038.1 157.789 1042.96 144.747 1047.66 132.135C1048.85 128.957 1050.03 125.779 1051.22 122.612C1052.82 118.355 1054.48 114.028 1056.17 109.644C1066.73 82.2533 1077.65 53.9303 1077.99 25.9219C1078.32 -1.9214 1066.83 -25.2426 1057.14 -39.9031C1051.75 -48.0577 1042.73 -58.488 1032.29 -70.5654C1002.1 -105.489 960.75 -153.32 967.526 -192.571C970.004 -206.926 978.961 -219.285 994.15 -229.305C1049.05 -265.495 1121.31 -279.136 1185.07 -291.153C1198.4 -293.665 1210.99 -296.037 1223.34 -298.58C1237.41 -301.476 1251.66 -304.052 1266.76 -306.78C1330.93 -318.374 1397.29 -330.364 1450.37 -367.35C1502.83 -403.905 1534.17 -446.915 1546.19 -498.839C1555.39 -538.586 1557.67 -584.29 1559.68 -624.613L1560.02 -631.453L1558.31 -631.395Z" fill="#A1A7FF"/>
<path d="M1553.85 -644.77C1552.79 -631.724 1551.96 -618.484 1551.15 -605.68C1545.53 -516.54 1540.21 -432.343 1463.51 -375.689C1412.11 -337.712 1338.6 -325.868 1273.76 -315.414C1253.81 -312.199 1234.98 -309.163 1217.3 -305.509C1205.97 -303.17 1194.57 -300.949 1182.5 -298.596C1116.16 -285.67 1040.99 -271.007 981.84 -234.763C964.092 -223.878 953.464 -210.3 950.255 -194.408C942.367 -155.329 980.308 -108.662 1008.01 -74.5881C1017.5 -62.9151 1025.7 -52.8331 1030.95 -44.5832C1041.44 -28.1143 1055.54 -3.03706 1056.92 24.4808C1058.65 58.8723 1049.06 94.1357 1039.09 127.307C1033.23 146.785 1027.74 162.665 1022.29 175.857C1008.49 209.292 990.047 234.354 968.694 263.372L965.324 267.957C958.27 277.555 949.297 288.246 941.449 297.437C905.452 339.6 865.631 379.198 827.12 417.493C818.869 425.699 810.622 433.901 802.41 442.126L802.025 442.511C796.29 448.256 790.872 453.682 785.786 459.085L785.357 459.542C755.956 490.785 715.689 533.574 725.406 581.782L727.083 581.241C717.573 534.059 757.414 491.722 786.504 460.81L786.933 460.354C791.998 454.973 797.406 449.557 803.131 443.822L803.516 443.438C811.726 435.214 819.972 427.014 828.221 418.81C866.76 380.487 906.611 340.858 942.662 298.633C950.533 289.413 959.538 278.686 966.63 269.034L970.001 264.45C991.434 235.321 1009.94 210.164 1023.85 176.491C1029.32 163.234 1034.84 147.287 1040.72 127.742C1050.74 94.3978 1060.38 58.9383 1058.63 24.2239C1057.23 -3.73433 1042.98 -29.0847 1032.39 -45.7219C1027.09 -54.0512 1018.86 -64.1666 1009.34 -75.8781C981.859 -109.681 944.219 -155.975 951.929 -194.161C955.018 -209.463 965.333 -222.587 982.587 -233.166C1041.44 -269.268 1116.47 -283.872 1182.66 -296.771C1194.74 -299.123 1206.15 -301.345 1217.48 -303.688C1235.12 -307.334 1253.94 -310.367 1273.86 -313.579C1338.91 -324.064 1412.62 -335.944 1464.39 -374.185C1541.86 -431.406 1547.21 -516.073 1552.86 -605.71C1553.67 -618.507 1554.5 -631.738 1555.56 -644.767L1553.85 -644.77Z" fill="#A1A7FF"/>
<path d="M1549.4 -658.161C1544.19 -611.904 1539.87 -569.868 1539.88 -523.799C1539.9 -459.066 1519.97 -415.644 1475.25 -383.006C1422.94 -344.826 1345.74 -332.898 1277.63 -322.366C1253.5 -318.636 1230.7 -315.111 1209.6 -310.629C1199.69 -308.52 1189.57 -306.449 1179.32 -304.349C1111.18 -290.391 1033.92 -274.536 971.81 -237.895C951.759 -226.06 939.682 -211.398 935.913 -194.32C927.427 -155.869 961.111 -112.352 988.176 -77.3854C996.103 -67.1438 1003.59 -57.4704 1008.86 -49.2919C1021.1 -30.3102 1035.62 -4.85954 1039.32 23.6959C1044.39 62.9376 1036.39 102.392 1028.86 132.38C1024.14 151.169 1018.51 168.244 1012.59 181.76C997.501 216.177 978.568 240.108 945.059 267.11C937.945 272.844 931.39 281.203 924.451 290.052C922.647 292.353 920.804 294.702 918.904 297.069C888.878 334.461 855.614 369.863 823.445 404.098C810.85 417.503 797.827 431.363 785.189 445.139C779.51 451.329 774.824 456.474 770.504 461.625C741.535 496.167 716.107 534.399 726.093 579.87L727.763 579.296C717.964 534.677 743.102 496.941 771.726 462.807C776.018 457.689 780.69 452.561 786.351 446.39C798.98 432.624 811.999 418.768 824.59 405.368C856.786 371.104 890.078 335.672 920.154 298.218C922.059 295.846 923.906 293.49 925.715 291.182C932.582 282.427 939.066 274.157 946.003 268.567C979.79 241.34 998.889 217.191 1014.12 182.435C1020.09 168.814 1025.76 151.623 1030.51 132.722C1038.09 102.559 1046.13 62.8597 1041.01 23.2869C1037.27 -5.63237 1022.63 -31.3049 1010.3 -50.44C1004.98 -58.6768 997.476 -68.3782 989.527 -78.6479C962.689 -113.321 929.288 -156.473 937.577 -194.037C941.217 -210.528 952.976 -224.74 972.527 -236.281C1034.37 -272.781 1111.49 -288.595 1179.5 -302.524C1189.75 -304.625 1199.87 -306.698 1209.79 -308.806C1230.84 -313.281 1253.61 -316.801 1277.73 -320.529C1346.03 -331.087 1423.45 -343.057 1476.12 -381.492C1521.42 -414.557 1541.62 -458.495 1541.6 -523.959C1541.58 -569.922 1545.89 -611.898 1551.1 -658.092L1549.4 -658.161Z" fill="#A1A7FF"/>
<path d="M1544.97 -671.563C1544.4 -667.728 1543.83 -663.929 1543.26 -660.163C1537.03 -618.816 1531.15 -579.762 1534.52 -536.705C1538.82 -481.953 1535.55 -426.428 1482.95 -391.175C1428.55 -354.73 1352.79 -342.4 1279.53 -330.484C1251.31 -325.895 1224.66 -321.56 1199.6 -315.935C1191.88 -314.201 1184.05 -312.478 1176.15 -310.74C1106.52 -295.4 1027.61 -278.009 963.13 -240.338C941.238 -227.541 927.985 -211.88 923.739 -193.788C914.843 -155.871 946.117 -113.16 971.246 -78.8405C977.996 -69.6213 984.372 -60.9136 989.446 -53.0335C1007.29 -25.319 1018.11 -0.994181 1023.5 23.521C1032.53 64.6219 1025.99 107.955 1018.91 137.071C1013.68 158.591 1008.43 174.386 1002.39 186.776C983.877 224.72 956.623 246.203 925.066 271.078C922.576 273.04 920.058 274.862 917.391 276.791C909.592 282.431 901.527 288.264 894.499 297.622C869.665 330.698 842.049 362.21 815.342 392.687C799.431 410.843 782.978 429.619 767.3 448.511C762.479 454.32 758.198 459.533 754.624 464.489C725.604 504.728 717.067 539.697 726.946 577.872L728.599 577.23C718.884 539.685 727.316 505.242 755.939 465.552C759.476 460.649 763.733 455.467 768.529 449.688C784.19 430.815 800.633 412.051 816.535 393.904C843.267 363.4 870.909 331.857 895.791 298.719C902.633 289.606 910.574 283.863 918.253 278.309C920.819 276.454 923.471 274.536 925.992 272.549C957.745 247.52 985.167 225.903 1003.89 187.531C1010 174.999 1015.3 159.069 1020.57 137.396C1027.7 108.072 1034.28 64.4119 1025.16 22.9452C1019.73 -1.78425 1008.83 -26.2923 990.878 -54.1823C985.778 -62.1058 979.389 -70.8326 972.623 -80.0716C947.711 -114.095 916.707 -156.438 925.398 -193.479C929.507 -210.991 942.44 -226.211 963.839 -238.719C1028.02 -276.237 1106.84 -293.607 1176.35 -308.918C1184.25 -310.657 1192.08 -312.383 1199.81 -314.116C1224.82 -319.73 1251.45 -324.06 1279.63 -328.645C1353.08 -340.591 1429.03 -352.94 1483.75 -389.617C1507.24 -405.358 1522.56 -426.01 1530.57 -452.75C1537.21 -474.907 1539.01 -501.683 1536.23 -537.019C1532.87 -579.849 1538.74 -618.79 1544.95 -660.019C1545.52 -663.787 1546.09 -667.587 1546.66 -671.423L1544.97 -671.563Z" fill="#A1A7FF"/>
<path d="M1540.54 -684.968C1531.96 -638.097 1524.55 -597.619 1528.66 -549.992C1533.77 -490.602 1538.6 -434.507 1483.67 -400.591C1426.53 -365.314 1350.75 -352.133 1277.44 -339.368C1245.55 -333.815 1215.43 -328.57 1186.88 -321.624L1173.61 -318.406C1102.56 -301.201 1022.03 -281.704 955.707 -242.176C932.445 -228.314 918.318 -211.557 913.72 -192.372C904.428 -153.61 934.942 -110.091 959.461 -75.1229C964.178 -68.3969 968.633 -62.0431 972.686 -55.9285C991.111 -28.137 1003.48 -1.33768 1009.44 23.7243C1018.17 60.4316 1018.08 102.174 1009.17 141.263C1005.95 155.438 1000.27 175.529 991.562 190.749C973.655 222.051 947.074 242.317 918.933 263.773C913.982 267.549 908.862 271.452 903.793 275.416C897.929 280.003 891.789 285.047 885.851 289.927C880.757 294.112 875.489 298.44 870.355 302.515C853.923 315.556 839.391 335.635 825.336 355.054C818.8 364.085 812.627 372.615 806.327 380.393C800.951 387.03 795.518 393.628 790.085 400.227C776.244 417.035 761.933 434.415 748.812 452.243C744.477 458.133 740.683 463.859 738.207 467.655C717.605 499.231 714.279 533.633 727.738 575.92L729.363 575.181C716.099 533.504 719.344 499.649 739.577 468.638C742.039 464.865 745.81 459.171 750.114 453.323C763.202 435.542 777.495 418.184 791.318 401.397C796.755 394.794 802.192 388.192 807.571 381.55C813.905 373.729 820.096 365.176 826.648 356.122C840.622 336.816 855.07 316.852 871.285 303.983C876.433 299.898 881.707 295.564 886.807 291.375C892.737 286.503 898.868 281.465 904.712 276.894C909.772 272.937 914.887 269.036 919.833 265.265C948.141 243.681 974.88 223.295 992.996 191.628C1001.83 176.181 1007.57 155.874 1010.84 141.558C1019.81 102.172 1019.9 60.1082 1011.1 23.1157C1005.09 -2.15095 992.643 -29.1385 974.106 -57.099C970.041 -63.2302 965.58 -69.5925 960.857 -76.3281C936.547 -111 906.291 -154.15 915.376 -192.052C919.901 -210.93 933.33 -226.796 956.428 -240.561C1022.54 -279.992 1102.92 -299.417 1173.85 -316.591L1187.12 -319.809C1215.61 -326.743 1245.7 -331.983 1277.56 -337.532C1351.04 -350.325 1427 -363.551 1484.41 -398.993C1540.42 -433.569 1535.53 -490.28 1530.36 -550.322C1526.28 -597.682 1533.67 -638.036 1542.22 -684.76L1540.54 -684.968Z" fill="#A1A7FF"/>
<path d="M1536.13 -698.374C1526.34 -653.679 1518.58 -612.696 1522.7 -563.703L1522.91 -561.178C1528.22 -498.178 1532.81 -443.768 1476.89 -411.449C1418.55 -377.68 1345.48 -363.838 1274.8 -350.394C1240.07 -343.789 1204.16 -336.957 1171.13 -327.894C1164.7 -326.13 1158.18 -324.362 1151.6 -322.58C1084.46 -304.383 1008.36 -283.751 949.453 -243.472C925.859 -227.336 912.16 -209.558 907.573 -189.122C898.767 -149.889 925.691 -108.552 951.729 -68.5783C954.008 -65.08 956.276 -61.5969 958.51 -58.1317C977.677 -28.3938 990.309 -1.45285 997.126 24.2319C1007.69 64.0204 1008.54 106.831 999.543 144.779C995.4 162.237 988.061 180.484 979.909 193.591C962.79 221.117 934.225 241.705 906.602 261.615C897.826 267.941 889.538 273.914 881.738 280.024C875.407 284.984 868.811 290.4 862.433 295.636C857.031 300.072 851.445 304.658 846.015 308.973C806.114 340.676 766.587 398.524 729.815 456.315C726.99 460.757 724.191 465.621 721.261 471.187C701.736 508.277 716.434 544.801 728.244 574.15L729.824 573.282C718.164 544.305 703.652 508.243 722.729 472.001C725.634 466.487 728.403 461.672 731.196 457.281C767.871 399.642 807.277 341.96 846.945 310.442C852.386 306.118 857.979 301.527 863.387 297.086C869.756 291.856 876.344 286.447 882.656 281.503C890.426 275.416 898.7 269.453 907.459 263.14C935.24 243.116 963.968 222.41 981.303 194.538C989.569 181.246 997.007 162.762 1001.2 145.092C1010.28 106.823 1009.42 63.6673 998.776 23.5755C991.91 -2.29115 979.207 -29.396 959.941 -59.2865C957.707 -62.7542 955.436 -66.2388 953.157 -69.7383C927.324 -109.399 900.612 -150.41 909.236 -188.833C913.701 -208.724 927.124 -226.089 950.273 -241.92C1008.92 -282.043 1084.87 -302.614 1151.88 -320.775C1158.46 -322.557 1164.97 -324.325 1171.41 -326.091C1204.37 -335.136 1240.25 -341.96 1274.95 -348.559C1345.77 -362.03 1419.07 -375.978 1477.59 -409.82C1534.63 -442.787 1529.77 -500.454 1524.62 -561.507L1524.41 -564.03C1520.31 -612.744 1528.05 -653.569 1537.79 -698.095L1536.13 -698.374Z" fill="#A1A7FF"/>
<path d="M1531.69 -711.779C1519.61 -664.307 1512.86 -625.354 1516.58 -577.895C1521.44 -515.893 1526.03 -457.326 1461.47 -423.951C1402.94 -393.692 1334.89 -378.772 1269.08 -364.343C1230.1 -355.798 1189.8 -346.962 1152.07 -335.046C1084.58 -313.739 1007.13 -286.315 944.422 -244.495C921.597 -229.276 907.506 -211.065 902.538 -190.372C892.299 -147.72 921.802 -100.18 945.509 -61.9797L946.811 -59.8806C966.308 -28.4486 979.276 -0.766662 986.454 24.7449C998.396 67.1875 999.605 110.722 989.858 147.328C985.2 164.82 976.542 183.055 967.262 194.919C947.009 220.812 918.23 241.532 890.4 261.571C879.449 269.457 869.104 276.905 859.327 284.608C848.882 292.837 835.152 303.761 821.571 315.302C770.334 358.844 732.836 418.28 710.403 460.474C707.839 465.294 705.767 470.195 703.865 474.802C691.401 504.977 708.665 536.53 722.536 561.884C724.56 565.584 726.471 569.077 728.228 572.45L729.738 571.427C727.972 568.039 726.057 564.538 724.028 560.831C710.349 535.829 693.325 504.713 705.418 475.436C707.3 470.879 709.35 466.032 711.867 461.296C734.215 419.263 771.558 360.064 822.549 316.732C836.105 305.212 849.817 294.302 860.248 286.083C869.992 278.407 880.32 270.971 891.254 263.097C919.197 242.978 948.092 222.173 968.525 196.051C977.969 183.978 986.772 165.45 991.5 147.698C1001.34 110.743 1000.13 66.8341 988.096 24.0599C980.871 -1.61484 967.84 -29.4425 948.257 -61.0127L946.955 -63.1126C923.427 -101.025 894.147 -148.206 904.192 -190.052C909.1 -210.498 922.521 -227.794 945.219 -242.931C1007.75 -284.617 1085.04 -311.989 1152.41 -333.261C1190.07 -345.154 1230.33 -353.981 1269.27 -362.518C1335.19 -376.969 1403.35 -391.915 1462.09 -422.28C1527.81 -456.237 1523.2 -515.504 1518.29 -578.214C1514.59 -625.395 1521.31 -664.166 1533.34 -711.433L1531.69 -711.779Z" fill="#A1A7FF"/>
<path d="M1527.22 -725.184C1514.47 -681.787 1506.73 -642.597 1510.4 -592.398C1515.51 -522.434 1513.71 -470.357 1443.46 -437.699C1388.9 -412.307 1328.3 -397.622 1269.7 -383.421C1223.06 -372.12 1174.83 -360.433 1129.5 -343.381C1053.71 -314.871 990.076 -281.891 940.362 -245.371C917.536 -228.602 904.019 -209.788 899.037 -187.852C889.714 -146.795 912.9 -102.871 937.447 -61.3997C951.052 -38.4153 967.876 -7.82247 977.298 25.0129C986.373 56.6318 994.195 103.749 979.933 148.65C975.394 162.939 965.414 182.665 953.35 194.524C928.481 218.97 899.611 240.9 871.691 262.109C860.191 270.843 848.3 279.877 836.95 288.894C825.072 298.331 811.087 309.547 797.416 321.18C750.431 361.159 713.532 410.708 690.707 464.471C688.765 469.042 687.211 473.706 686.085 478.331C678.971 507.586 698.319 532.506 715.389 554.493C719.818 560.197 724 565.583 727.462 570.74L728.877 569.556C725.383 564.354 721.184 558.945 716.739 553.219C699.916 531.551 680.849 506.992 687.74 478.657C688.838 474.143 690.356 469.59 692.252 465.126C714.949 411.663 751.653 362.382 798.396 322.609C812.044 310.995 826.014 299.792 837.88 290.365C849.213 281.361 861.095 272.335 872.586 263.606C900.555 242.359 929.476 220.39 954.435 195.856C965.27 185.206 975.912 166.859 981.548 149.115C995.966 103.724 988.087 56.1956 978.939 24.3176C969.46 -8.71316 952.569 -39.4316 938.912 -62.5033C914.552 -103.657 891.537 -147.213 900.699 -187.56C905.563 -208.978 918.821 -227.392 941.231 -243.855C990.808 -280.276 1054.3 -313.17 1129.93 -341.624C1175.16 -358.64 1223.34 -370.314 1269.93 -381.603C1328.61 -395.824 1389.3 -410.529 1444.02 -435.994C1515.39 -469.202 1517.28 -521.906 1512.11 -592.709C1508.46 -642.603 1516.16 -681.584 1528.85 -724.762L1527.22 -725.184Z" fill="#A1A7FF"/>
<path d="M1522.74 -738.583C1506.34 -689.582 1501.12 -652.749 1504.13 -607.208C1504.42 -602.807 1504.77 -598.376 1505.13 -593.925C1506.99 -570.506 1508.91 -546.29 1501.91 -522.925C1490.23 -483.974 1460.58 -467.933 1425.92 -452.377C1373.84 -429.008 1316.71 -414.811 1261.46 -401.083C1208.81 -387.999 1154.37 -374.47 1104.43 -353.026C1040.3 -325.486 980.889 -281.421 936.29 -246.112C904.702 -221.102 891.029 -191.625 894.491 -155.995C897.531 -124.696 913.492 -92.6165 930.285 -62.6109C944.719 -36.822 960.67 -6.23211 969.535 25.1073C978.853 58.0498 986.425 106.257 969.579 148.84C963.555 164.067 950.575 182.053 938.013 192.579C902.613 222.241 862.369 255.095 814.983 293.019C802.543 302.974 787.928 314.769 773.858 326.764C719.665 372.967 686.952 418.013 670.91 468.527C669.44 473.158 668.488 477.677 668.083 481.957C665.376 510.547 689.997 534.252 709.781 553.299C715.705 559.003 721.3 564.391 725.74 569.457L727.029 568.109C722.546 562.993 716.926 557.583 710.979 551.856C691.458 533.063 667.166 509.673 669.787 481.983C670.172 477.91 671.119 473.418 672.524 468.993C688.441 418.873 720.953 374.133 774.839 328.193C788.888 316.215 803.487 304.432 815.915 294.486C863.314 256.553 903.568 223.689 938.981 194.018C951.778 183.294 965.004 164.965 971.144 149.446C988.204 106.322 980.578 57.6524 971.176 24.4173C962.261 -7.10031 946.253 -37.8034 931.77 -63.6809C915.07 -93.5176 899.202 -125.396 896.194 -156.352C892.806 -191.224 906.225 -220.102 937.214 -244.638C981.719 -279.876 1041 -323.846 1104.94 -351.301C1154.74 -372.69 1209.11 -386.201 1261.7 -399.268C1317.02 -413.014 1374.23 -427.229 1426.45 -450.664C1461.56 -466.421 1491.6 -482.699 1503.53 -522.492C1510.65 -546.234 1508.71 -570.642 1506.83 -594.25C1506.48 -598.691 1506.13 -603.112 1505.84 -607.505C1502.85 -652.756 1508.03 -689.368 1524.34 -738.087L1522.74 -738.583Z" fill="#A1A7FF"/>
<path d="M1518.25 -751.973C1500.82 -705.776 1495.08 -669.406 1497.78 -622.253C1497.99 -618.705 1498.22 -615.138 1498.46 -611.561C1500.07 -587.407 1501.73 -562.433 1493.13 -538.597C1478.76 -498.754 1443.88 -483.073 1410.14 -467.91L1409.85 -467.782C1356.3 -443.711 1298.07 -427.998 1241.77 -412.803C1190.02 -398.836 1136.51 -384.394 1086.7 -363.493C1036.78 -342.535 998.366 -307.485 957.703 -270.371C949.224 -262.631 940.456 -254.627 931.621 -246.804C867.03 -189.606 894.406 -122.223 925.135 -63.5527C939.721 -35.7049 954.659 -5.93047 962.982 24.9793C972.142 58.9973 978.808 107.932 958.552 147.868C950.459 163.825 934.282 179.751 922.135 190.302C879.504 227.332 833.302 264.992 793.728 296.947C780.671 307.49 765.537 319.766 751.174 332.018C710.146 367.013 665.202 409.624 651.201 472.627C650.214 477.076 649.792 481.597 649.985 485.702C651.347 514.836 680.938 536.913 704.716 554.653C711.414 559.65 717.742 564.371 722.843 568.801L723.982 567.304C718.838 562.837 712.489 558.101 705.767 553.086C682.266 535.553 653.018 513.732 651.695 485.443C651.512 481.516 651.917 477.183 652.866 472.911C666.724 410.547 711.383 368.222 752.155 333.446C766.499 321.209 781.62 308.945 794.667 298.409C834.255 266.443 880.474 228.769 923.13 191.718C935.414 181.047 951.788 164.914 960.034 148.653C980.592 108.126 973.88 58.6661 964.629 24.3112C956.258 -6.77408 941.273 -36.6474 926.641 -64.5823C896.256 -122.595 869.155 -189.193 932.628 -245.401C941.475 -253.235 950.249 -261.242 958.733 -268.987C999.272 -305.989 1037.56 -340.938 1087.19 -361.76C1136.89 -382.619 1190.35 -397.045 1242.04 -410.995C1298.41 -426.208 1356.7 -441.939 1410.38 -466.067L1410.67 -466.196C1444.78 -481.526 1480.05 -497.378 1494.72 -538.051C1503.46 -562.303 1501.79 -587.495 1500.17 -611.859C1499.93 -615.43 1499.7 -618.989 1499.49 -622.533C1496.81 -669.373 1502.51 -705.504 1519.82 -751.397L1518.25 -751.973Z" fill="#A1A7FF"/>
<path d="M1513.75 -765.353C1495.39 -721.773 1489.12 -685.917 1491.39 -637.468C1491.51 -634.886 1491.65 -632.297 1491.78 -629.705C1493.07 -604.785 1494.4 -579.016 1484 -554.729C1468 -517.376 1431.35 -500.243 1399.02 -485.133L1395.98 -483.707C1341.07 -457.987 1281.46 -440.371 1223.81 -423.334C1175.09 -408.934 1124.71 -394.045 1077.41 -374.332C1042.9 -359.959 1007.23 -345.094 979.732 -310.418L978.125 -308.393C961.068 -286.881 944.956 -266.562 926.021 -247.544C868.288 -189.561 892.265 -125.2 921.773 -64.2476C934.918 -37.0936 949.817 -6.3167 957.421 24.5984C970.149 76.3553 966.504 117.1 946.587 145.703C936.254 160.542 922.361 173.378 908.925 185.792L906.199 188.311C867.135 224.482 825.254 258.535 784.752 291.466L773.451 300.659C759.054 312.378 744.168 324.495 729.597 336.917C687.659 372.668 640.126 413.189 631.792 476.776C631.224 481.105 631.273 485.529 631.933 489.568C637.078 521.069 672.096 541.5 700.233 557.918C706.89 561.802 713.178 565.471 718.543 568.985L719.519 567.363C714.122 563.829 707.818 560.151 701.144 556.257C673.295 540.008 638.635 519.786 633.622 489.087C632.991 485.235 632.946 481.013 633.488 476.877C641.715 414.098 688.925 373.853 730.577 338.347C745.131 325.939 760.009 313.828 774.396 302.117L785.697 292.925C826.224 259.973 868.129 225.899 907.242 189.686L909.964 187.168C923.48 174.68 937.457 161.766 947.919 146.743C968.197 117.622 971.952 76.315 959.079 23.9707C951.429 -7.12907 936.487 -37.9949 923.304 -65.2267C894.104 -125.545 870.346 -189.206 927.12 -246.227C946.138 -265.325 962.284 -285.688 979.379 -307.247L980.986 -309.274C1008.17 -343.545 1043.62 -358.316 1077.89 -372.599C1125.11 -392.273 1175.44 -407.149 1224.12 -421.536C1281.83 -438.592 1341.5 -456.228 1396.53 -482.003L1399.58 -483.427C1432.23 -498.69 1469.23 -515.988 1485.54 -554.067C1496.14 -578.806 1494.79 -604.818 1493.49 -629.973C1493.36 -632.561 1493.22 -635.147 1493.1 -637.725C1490.85 -685.839 1497.07 -721.441 1515.29 -764.704L1513.75 -765.353Z" fill="#A1A7FF"/>
<path d="M1509.25 -778.72C1489.82 -737.066 1483.24 -702.928 1484.97 -652.764L1485.12 -648.473C1486.05 -622.654 1487.02 -595.955 1474.54 -571.169C1457.08 -536.459 1421 -518.252 1389.17 -502.182L1384.77 -499.955C1327.83 -471.112 1265.69 -450.877 1205.6 -431.308C1162.68 -417.331 1118.3 -402.877 1076.27 -385.424C1071.78 -383.559 1067.05 -381.672 1062.16 -379.722C1028.62 -366.34 986.878 -349.683 966.17 -317.25C962.727 -311.855 959.383 -306.465 956.148 -301.253C944.638 -282.703 933.765 -265.18 919.235 -248.413C866.053 -187.043 893.272 -125.249 919.593 -65.4914L922.506 -58.8876C934.342 -32.0971 946.58 -4.39433 952.6 23.9559C960.193 59.712 963.014 109.29 933.335 142.422C920.893 156.312 906.915 170.761 890.602 186.596C850.792 225.238 807.007 261.069 764.662 295.72L749.31 308.289C736.111 319.095 722.465 330.267 709.319 341.453L706.22 344.089C664.114 379.885 616.389 420.458 612.914 480.952C612.658 485.414 613.077 489.908 614.096 493.603C623.839 528.955 667.997 549.449 700.239 564.414C704.586 566.431 708.749 568.363 712.624 570.232L713.431 568.517C709.55 566.644 705.38 564.709 701.026 562.688C669.059 547.85 625.278 527.532 615.74 492.925C614.776 489.425 614.379 485.155 614.624 480.902C618.047 421.31 665.41 381.044 707.198 345.519L710.297 342.883C723.428 331.71 737.069 320.543 750.26 309.743L765.612 297.174C807.988 262.497 851.807 226.639 891.678 187.938C908.024 172.07 922.034 157.588 934.509 143.662C964.777 109.872 961.963 59.6043 954.271 23.3852C948.212 -5.15006 935.936 -32.9392 924.064 -59.8138L921.151 -66.4146C893.877 -128.337 868.114 -186.825 920.432 -247.198C935.07 -264.09 945.984 -281.682 957.541 -300.305C960.773 -305.513 964.112 -310.897 967.549 -316.279C987.905 -348.168 1029.33 -364.695 1062.62 -377.976C1067.51 -379.931 1072.25 -381.821 1076.75 -383.689C1118.72 -401.115 1163.06 -415.558 1205.95 -429.524C1266.11 -449.114 1328.32 -469.37 1385.37 -498.278L1389.77 -500.502C1421.88 -516.704 1458.26 -535.069 1476.03 -570.389C1488.75 -595.661 1487.78 -622.63 1486.83 -648.711L1486.68 -652.998C1484.96 -702.8 1491.49 -736.679 1510.76 -777.999L1509.25 -778.72Z" fill="#A1A7FF"/>
<path d="M1504.77 -792.079C1481.44 -746.699 1477.49 -712.209 1478.54 -667.969C1480.41 -589.829 1445.62 -555.592 1376.44 -516.323C1375.63 -515.864 1374.82 -515.406 1374.01 -514.952C1314.79 -481.709 1249.03 -458.122 1185.41 -435.302C1151.38 -423.095 1116.19 -410.474 1082.74 -396.606C1076.84 -394.163 1070.57 -391.699 1063.93 -389.09C1027.27 -374.677 981.644 -356.744 956.843 -324.64C947.847 -312.996 940.438 -299.33 933.274 -286.113C926.49 -273.597 919.474 -260.654 911.112 -249.424C867.349 -190.649 888.247 -140.256 910.37 -86.9034C913.351 -79.7153 916.434 -72.2823 919.361 -64.8207C920.723 -61.3496 922.111 -57.8553 923.507 -54.3385C933.5 -29.1773 943.834 -3.15881 948.236 23.1349C955.883 68.8017 945.357 110.85 919.36 138.499C914.4 143.774 909.416 149.22 904.14 154.987C894.852 165.137 885.247 175.634 875.663 185.258C832.253 228.852 783.872 268.663 737.083 307.164L726.64 315.745C714.72 325.528 702.396 335.645 690.499 345.737C687.661 348.144 684.68 350.64 681.597 353.222C642.395 386.043 588.707 430.993 596.2 485.56C596.775 489.75 597.992 494.145 599.72 498.268C616.694 538.776 662.89 558.032 704.859 572.9L705.517 571.122C663.856 556.362 618.009 537.274 601.291 497.373C599.623 493.393 598.449 489.158 597.895 485.126C590.558 431.693 643.735 387.171 682.563 354.662C685.65 352.078 688.634 349.579 691.476 347.168C703.359 337.087 715.678 326.976 727.591 317.197L738.036 308.615C784.863 270.084 833.283 230.241 876.763 186.576C886.377 176.922 895.997 166.409 905.3 156.243C910.571 150.482 915.55 145.04 920.5 139.775C946.953 111.644 957.677 68.9507 949.923 22.6442C945.489 -3.84524 935.119 -29.9546 925.09 -55.2045C923.695 -58.7179 922.308 -62.2098 920.947 -65.6792C918.013 -73.1564 914.927 -80.5972 911.944 -87.7931C890.039 -140.614 869.351 -190.505 912.404 -248.329C920.858 -259.683 927.911 -272.693 934.731 -285.274C941.855 -298.418 949.221 -312.007 958.113 -323.518C982.582 -355.186 1027.94 -373.015 1064.38 -387.342C1071.03 -389.954 1077.31 -392.422 1083.22 -394.872C1116.64 -408.722 1151.8 -421.337 1185.81 -433.535C1249.5 -456.38 1315.34 -479.994 1374.68 -513.309C1375.5 -513.767 1376.31 -514.223 1377.12 -514.685C1405.58 -530.84 1434.56 -549.253 1453.73 -574.389C1472.76 -599.328 1481.19 -629.133 1480.26 -668.185C1479.21 -712.088 1483.12 -746.305 1506.25 -791.283L1504.77 -792.079Z" fill="#A1A7FF"/>
<path d="M1500.31 -805.424C1476.16 -762.3 1471.78 -729.184 1472.15 -683.159C1472.77 -606.419 1430.59 -572.371 1370.91 -532.649C1308.65 -491.207 1236.93 -463.321 1167.57 -436.354C1143.9 -427.152 1119.43 -417.638 1095.99 -407.817C1090.91 -405.685 1085.76 -403.557 1080.57 -401.415C1036.65 -383.265 991.235 -364.498 954.522 -332.025C937.192 -316.702 926.686 -296.752 916.528 -277.46C911.854 -268.587 907.022 -259.41 901.552 -250.693C865.136 -192.667 883.573 -150.061 904.921 -100.726C909.933 -89.1452 915.114 -77.1703 919.699 -64.6419L919.961 -63.9281C930.206 -35.9322 940.801 -6.98424 943.993 22.0831C948.71 65.0272 937.635 97.7674 905.767 135.09C892.96 150.09 877.7 167.66 861.633 184.233C816.955 230.313 767.37 271.973 720.411 310.695C715.759 314.53 711.087 318.363 706.411 322.198C695.475 331.169 684.167 340.445 673.238 349.675C669.97 352.434 666.533 355.287 662.984 358.23C624.243 390.372 571.184 434.393 583.164 489.431C584.061 493.557 585.569 497.867 587.522 501.896C606.979 542.044 656.357 570.127 695.078 577.118L695.502 575.276C657.158 568.354 608.281 540.588 589.054 500.914C587.16 497.01 585.702 492.838 584.834 488.851C573.12 435.029 625.615 391.477 663.945 359.676C667.498 356.729 670.939 353.873 674.211 351.11C685.13 341.889 696.432 332.617 707.362 323.652C712.04 319.816 716.714 315.981 721.366 312.145C768.369 273.388 818.002 231.686 862.752 185.531C878.858 168.918 894.144 151.318 906.973 136.293C939.262 98.477 950.481 65.2766 945.695 21.6997C942.477 -7.59529 931.844 -36.6509 921.56 -64.7488L921.3 -65.4619C916.698 -78.0388 911.505 -90.0374 906.483 -101.641C885.354 -150.47 867.106 -192.639 902.939 -249.739C908.452 -258.524 913.304 -267.736 917.996 -276.645C928.53 -296.651 938.48 -315.545 955.527 -330.621C992.006 -362.881 1037.28 -381.583 1081.05 -399.679C1086.24 -401.822 1091.39 -403.95 1096.48 -406.083C1119.89 -415.895 1144.36 -425.405 1168.01 -434.603C1237.46 -461.607 1309.29 -489.529 1371.71 -531.083C1429.97 -569.868 1474.5 -605.709 1473.87 -683.343C1473.5 -729.008 1477.83 -761.851 1501.75 -804.56L1500.31 -805.424Z" fill="#A1A7FF"/>
<path d="M1495.86 -818.75C1471.04 -777.7 1466.27 -745.931 1465.82 -698.155C1465.17 -628.691 1422.94 -594.021 1374.04 -553.877L1367.87 -548.799C1306.5 -498.258 1231.3 -467.225 1158.58 -437.211C1144.19 -431.271 1129.3 -425.128 1114.97 -419.005L1112.47 -417.934C1060.36 -395.672 1006.49 -372.657 957.738 -339.469C924.202 -316.64 912.778 -294.799 895.485 -261.735C893.899 -258.702 892.265 -255.577 890.56 -252.35C859.685 -193.91 880.386 -150.918 902.302 -105.402C908.698 -92.1178 915.311 -78.3821 920.592 -64.1838C931.158 -35.7724 938.052 -4.80302 939.503 20.7833C942.057 65.8271 920.838 96.6079 892.83 132.167C879.287 149.36 864.439 166.618 848.699 183.46C807.18 227.886 761.515 267.607 705.723 313.582C699.966 318.325 694.171 323.065 688.373 327.808C678.229 336.105 667.741 344.684 657.601 353.175C654.358 355.891 650.953 358.691 647.445 361.575C608.801 393.355 555.875 436.876 571.777 492.095C572.95 496.167 574.696 500.44 576.826 504.451C596.523 541.549 642.313 575.191 683.338 582.703L683.767 580.862C643.151 573.423 597.821 540.128 578.327 503.412C576.253 499.506 574.554 495.35 573.416 491.395C557.884 437.46 610.198 394.44 648.397 363.029C651.909 360.14 655.318 357.337 658.565 354.618C668.697 346.134 679.181 337.558 689.32 329.265C695.121 324.521 700.918 319.779 706.677 315.034C762.529 269.01 808.249 229.239 849.843 184.734C865.622 167.85 880.508 150.548 894.087 133.307C922.375 97.3911 943.809 66.2789 941.212 20.5044C939.751 -5.26565 932.815 -36.4361 922.188 -65.0131C916.879 -79.2874 910.247 -93.0605 903.834 -106.38C882.135 -151.447 861.639 -194.014 892.025 -251.53C893.732 -254.76 895.368 -257.887 896.956 -260.923C914.102 -293.708 925.429 -315.364 958.548 -337.91C1007.15 -370.992 1060.94 -393.977 1112.97 -416.204L1115.47 -417.274C1129.79 -423.395 1144.67 -429.534 1159.06 -435.473C1231.91 -465.54 1307.24 -496.634 1368.82 -547.347L1375 -552.422C1424.3 -592.899 1466.87 -627.856 1467.54 -698.305C1467.98 -745.699 1472.7 -777.196 1497.27 -817.823L1495.86 -818.75Z" fill="#A1A7FF"/>
<path d="M1491.4 -832.085C1463.7 -790.311 1462.01 -757.866 1459.66 -712.961C1456.75 -657.063 1426.24 -625.967 1390.92 -589.959C1382.98 -581.861 1374.76 -573.488 1366.7 -564.629C1312.68 -505.242 1237.73 -472.981 1165.24 -441.777C1156.17 -437.872 1147.19 -434.007 1138.36 -430.13C1124.34 -423.976 1109.29 -417.908 1093.37 -411.485C1013.09 -379.103 913.182 -338.811 878.2 -254.477C865.927 -224.894 855.735 -195.636 865.668 -163.004C871.947 -142.381 884.243 -123.08 896.135 -104.415C905.051 -90.4219 913.473 -77.2032 919.138 -63.9427C928.582 -41.8428 933.843 -13.0826 934.352 19.2274C934.959 57.7367 909.279 91.8 886.623 121.854C884.64 124.485 882.675 127.092 880.748 129.673C867.337 147.64 852.617 165.544 836.998 182.888C792.336 232.482 741.205 276.226 692.604 316.109C686.145 321.41 679.632 326.702 673.115 331.997C663.386 339.901 653.326 348.075 643.601 356.161C640.562 358.688 637.387 361.286 634.125 363.956C595.61 395.468 542.865 438.626 561.844 493.666C563.263 497.783 565.149 501.948 567.447 506.045C589.472 545.304 632.562 579.028 672.233 588.056L672.725 586.228C634.061 577.427 590.409 543.255 568.931 504.97C566.683 500.962 564.84 496.893 563.454 492.874C544.934 439.165 597.032 396.537 635.072 365.412C638.338 362.739 641.518 360.138 644.56 357.607C654.276 349.528 664.332 341.358 674.057 333.457C680.576 328.161 687.092 322.867 693.553 317.564C742.215 277.63 793.414 233.827 838.166 184.133C853.828 166.742 868.588 148.789 882.037 130.771C883.963 128.191 885.925 125.588 887.906 122.959C910.769 92.6329 936.682 58.2589 936.064 19.0287C935.552 -13.5282 930.24 -42.5343 920.703 -64.8523C914.981 -78.2417 906.524 -91.5162 897.57 -105.57C885.74 -124.139 873.506 -143.339 867.299 -163.732C857.555 -195.737 867.629 -224.618 879.75 -253.84C914.398 -337.367 1013.89 -377.497 1093.83 -409.74C1109.77 -416.169 1124.82 -422.24 1138.87 -428.408C1147.7 -432.282 1156.67 -436.145 1165.74 -440.048C1238.41 -471.327 1313.55 -503.674 1367.87 -563.374C1375.9 -572.206 1384.1 -580.566 1392.03 -588.649C1426.17 -623.452 1458.41 -656.324 1461.37 -713.021C1463.7 -757.592 1465.38 -789.795 1492.76 -831.083L1491.4 -832.085Z" fill="#A1A7FF"/>
<path d="M1486.97 -845.431C1459.34 -806.927 1457.11 -776.129 1454.01 -733.503L1453.56 -727.265C1450.32 -683.442 1427.58 -656.938 1403.51 -628.878C1390.76 -614.02 1377.58 -598.659 1366.58 -579.988C1327.6 -513.866 1252.49 -480.399 1186.22 -450.869C1178.86 -447.589 1171.62 -444.364 1164.58 -441.155C1146.07 -432.731 1127.11 -424.359 1108.78 -416.263C1065.49 -397.149 1020.73 -377.385 977.764 -355.094C975.589 -353.964 973.372 -352.822 971.121 -351.661C930.648 -330.788 880.286 -304.828 864.661 -257.207C852.725 -220.826 845.172 -192.628 856.772 -160.973C864.327 -140.357 877.606 -121.471 890.447 -103.208C900.033 -89.5746 909.088 -76.6969 915.705 -63.4101C927.406 -39.9154 931.578 -12.7562 928.104 17.3152C924.121 51.7916 898.639 87.213 878.164 115.674C875.217 119.768 872.356 123.746 869.65 127.59C857.709 144.545 843.628 162.498 826.601 182.479C782.377 234.37 730.437 277.989 681.027 318.218C674.371 323.639 667.647 329.048 660.922 334.459C651.123 342.343 640.99 350.494 631.222 358.563C628.403 360.891 625.457 363.288 622.425 365.755C583.967 397.043 531.297 439.894 553.179 494.287C554.993 498.795 557.021 503.006 559.208 506.804C578.908 541.029 618.368 580.94 662.115 592.951L662.671 591.136C619.336 579.238 580.222 539.658 560.681 505.711C558.535 501.981 556.542 497.844 554.759 493.411C533.428 440.388 585.411 398.096 623.367 367.215C626.403 364.746 629.353 362.345 632.175 360.013C641.934 351.953 652.062 343.805 661.856 335.925C668.584 330.512 675.31 325.101 681.97 319.678C731.452 279.39 783.471 235.703 827.806 183.682C844.874 163.652 858.994 145.649 870.972 128.64C873.676 124.802 876.533 120.83 879.474 116.741C900.094 88.0789 925.757 52.4082 929.802 17.3813C933.321 -13.074 929.09 -40.594 917.227 -64.4125C910.553 -77.8136 901.464 -90.7412 891.84 -104.428C879.061 -122.603 865.847 -141.396 858.37 -161.799C846.985 -192.869 854.462 -220.739 866.268 -256.722C881.624 -303.524 931.588 -329.284 971.734 -349.985C973.987 -351.147 976.205 -352.291 978.382 -353.42C1021.3 -375.687 1066.03 -395.44 1109.29 -414.541C1127.64 -422.639 1146.6 -431.013 1165.11 -439.442C1172.16 -442.649 1179.39 -445.871 1186.75 -449.15C1253.28 -478.795 1328.69 -512.397 1367.99 -579.084C1378.9 -597.593 1392.02 -612.882 1404.71 -627.67C1429.02 -656.003 1451.98 -682.766 1455.27 -727.284L1455.72 -733.526C1458.9 -777.381 1461.01 -806.352 1488.28 -844.366L1486.97 -845.431Z" fill="#A1A7FF"/>
<path d="M1482.56 -858.791C1454.9 -823.054 1452.42 -794.626 1448.99 -755.279C1448.6 -750.774 1448.19 -746.12 1447.74 -741.29C1444.86 -710.959 1438.69 -689.979 1414.35 -665.996L1413.69 -665.345C1390.6 -642.6 1375.35 -627.574 1366.4 -594.76C1346.94 -523.364 1266.02 -486.206 1206.94 -459.08C1201.73 -456.688 1196.67 -454.364 1191.8 -452.089C1161.74 -438.037 1130.37 -424.625 1100.04 -411.655C1064.42 -396.425 1027.58 -380.674 992.057 -363.57C986.72 -361.001 980.741 -358.244 974.412 -355.326C931.039 -335.328 865.489 -305.111 850.178 -260.679C839.146 -228.66 831.058 -194.178 846.449 -158.974C855.181 -139.001 868.813 -121.093 881.996 -103.775C892.605 -89.8371 902.627 -76.6724 910.163 -62.652C924.525 -35.9343 927.551 -12.6671 920.283 15.1466C911.658 48.158 887.13 84.7623 867.422 114.173C864.731 118.19 862.111 122.1 859.608 125.885C848.067 143.328 834.304 161.743 817.532 182.181C773.86 235.401 721.156 279.372 670.917 319.849C664.34 325.148 657.68 330.433 651.017 335.719C640.886 343.758 630.41 352.07 620.394 360.313C618.014 362.273 615.55 364.28 613.03 366.333C574.813 397.464 522.473 440.098 545.578 494.074C547.553 498.687 549.685 502.988 551.916 506.857C570.852 539.707 608.654 583.141 652.873 597.437L653.492 595.641C609.681 581.476 572.186 538.371 553.388 505.762C551.191 501.951 549.09 497.711 547.142 493.16C524.63 440.569 576.268 398.506 613.972 367.794C616.496 365.738 618.961 363.73 621.345 361.768C631.346 353.536 641.815 345.228 651.94 337.195C658.606 331.906 665.271 326.618 671.852 321.316C722.172 280.773 774.966 236.726 818.762 183.356C835.58 162.861 849.385 144.389 860.966 126.884C863.467 123.104 866.084 119.197 868.774 115.183C888.572 85.6378 913.21 48.8673 921.928 15.5043C929.336 -12.8448 926.266 -36.5334 911.662 -63.7033C904.063 -77.8396 894.004 -91.0546 883.353 -105.045C870.229 -122.286 856.659 -140.114 848.008 -159.901C832.88 -194.504 840.878 -228.54 851.774 -260.164C866.793 -303.747 931.883 -333.758 974.955 -353.614C981.292 -356.537 987.276 -359.295 992.626 -361.871C1028.12 -378.959 1064.93 -394.701 1100.53 -409.924C1130.88 -422.898 1162.26 -436.316 1192.35 -450.38C1197.21 -452.654 1202.27 -454.978 1207.48 -457.368C1266.91 -484.658 1348.32 -522.036 1368.04 -594.38C1376.83 -626.636 1391.93 -641.504 1414.77 -664.011L1415.43 -664.662C1440.23 -689.097 1446.52 -710.436 1449.44 -741.265C1449.9 -746.1 1450.3 -750.76 1450.7 -755.27C1454.1 -794.256 1456.55 -822.423 1483.82 -857.662L1482.56 -858.791Z" fill="#A1A7FF"/>
<path d="M1478.17 -872.159C1450.26 -838.656 1447.83 -812.083 1444.45 -775.302C1443.89 -769.179 1443.31 -762.847 1442.58 -756.129C1438.87 -721.984 1429.17 -702.72 1404.11 -679.782L1403.71 -679.419C1380.53 -658.202 1363.79 -642.871 1364.86 -608.895C1367.23 -533.838 1280.26 -493.103 1222.71 -466.152L1216.93 -463.441C1180.69 -446.405 1142.95 -430.547 1106.45 -415.209C1074.03 -401.587 1040.52 -387.502 1007.99 -372.574C1000.15 -368.98 991.741 -365.28 982.834 -361.364C929.185 -337.773 862.418 -308.41 838.11 -264.84C804.77 -205.083 840.078 -154.106 874.223 -104.807C883.949 -90.7644 894.007 -76.2429 902.321 -61.7418C913.556 -42.1468 924.627 -15.9757 910.399 12.7031L910.117 13.2719C891.489 50.8195 872.227 89.6457 850.638 124.526C839.6 142.358 826.222 161.147 809.741 181.967C767.012 235.94 713.4 280.218 662.15 320.943C656.441 325.48 650.649 330.003 644.85 334.531C633.68 343.253 622.13 352.272 611.302 361.317C608.279 363.842 605.136 366.423 601.921 369.063C563.416 400.674 515.495 440.017 538.848 493.176C540.935 497.927 543.134 502.353 545.385 506.333C571.567 552.618 608.58 588.218 644.398 601.563L645.079 599.788C609.584 586.563 572.869 551.221 546.864 505.249C544.642 501.32 542.469 496.945 540.405 492.248C517.66 440.474 564.906 401.686 602.868 370.521C606.088 367.877 609.235 365.293 612.261 362.765C623.066 353.739 634.602 344.731 645.761 336.019C651.563 331.488 657.36 326.961 663.073 322.421C714.415 281.623 768.128 237.259 810.992 183.115C827.525 162.231 840.948 143.376 852.029 125.474C873.673 90.5087 892.957 51.6359 911.607 14.0446L911.889 13.4758C926.55 -16.0773 915.266 -42.8285 903.797 -62.8325C895.448 -77.3959 885.37 -91.9463 875.624 -106.018C841.805 -154.846 806.835 -205.336 839.551 -263.975C863.524 -306.942 929.961 -336.159 983.347 -359.636C992.261 -363.557 1000.68 -367.259 1008.52 -370.859C1041.03 -385.775 1074.53 -399.855 1106.94 -413.471C1143.45 -428.815 1181.21 -444.683 1217.48 -461.733L1223.26 -464.443C1281.29 -491.623 1368.98 -532.695 1366.57 -609.127C1365.53 -642.136 1381.97 -657.192 1404.74 -678.031L1405.14 -678.396C1430.63 -701.733 1440.51 -721.335 1444.28 -756.076C1445.02 -762.811 1445.6 -769.152 1446.16 -775.285C1449.49 -811.681 1451.9 -837.977 1479.39 -870.971L1478.17 -872.159Z" fill="#A1A7FF"/>
<path d="M1473.8 -885.533C1445.57 -854.02 1443.37 -829.15 1440.31 -794.728C1439.67 -787.472 1439 -779.968 1438.04 -771.84C1433.7 -735.008 1420.04 -717.079 1394.68 -695.039C1373.46 -676.587 1357.58 -659.868 1362.01 -627.083C1365.77 -599.177 1367.15 -577.606 1350.48 -554.088C1324.04 -516.791 1278.14 -494.559 1241.25 -476.699L1237.67 -474.965C1195.91 -454.719 1152.17 -436.394 1109.87 -418.675C1081.82 -406.925 1052.82 -394.776 1024.6 -382.156C1014.58 -377.671 1004.18 -373.213 993.162 -368.494C934.576 -343.393 868.179 -314.939 830.591 -269.672C780.877 -209.801 823.635 -153.767 861.361 -104.329C872.948 -89.1452 883.892 -74.8033 892.039 -60.7709C908.222 -32.8992 910.138 -9.67361 897.895 10.2318C887.043 27.8746 877.835 48.8204 868.929 69.076C860.807 87.5513 852.408 106.655 842.694 123.494C832.243 141.612 819.299 160.686 803.124 181.805C761.62 235.998 706.973 280.509 654.558 321.454L647.178 327.215C633.03 338.25 618.399 349.66 604.431 361.122C601.338 363.659 598.148 366.233 594.907 368.848C556.744 399.643 509.249 437.967 532.789 491.744C534.94 496.657 537.172 501.241 539.426 505.369C552.019 528.444 586.694 584.381 636.582 605.379L637.32 603.625C587.874 582.811 553.433 527.234 540.919 504.306C538.69 500.22 536.479 495.681 534.348 490.813C511.421 438.438 556.271 402.247 595.842 370.316C599.087 367.697 602.281 365.12 605.377 362.579C619.327 351.133 633.948 339.73 648.086 328.702L655.469 322.942C707.985 281.915 762.745 237.311 804.396 182.927C820.628 161.733 833.621 142.583 844.12 124.383C853.892 107.443 862.315 88.2837 870.461 69.7562C879.337 49.5668 888.515 28.6901 899.29 11.1726C911.97 -9.44274 910.08 -33.3365 893.51 -61.8737C885.31 -75.9958 874.335 -90.3771 862.718 -105.602C825.419 -154.48 783.146 -209.878 831.811 -268.487C869.093 -313.386 935.271 -341.742 993.658 -366.762C1004.68 -371.483 1015.09 -375.943 1025.13 -380.433C1053.32 -393.045 1082.31 -405.189 1110.35 -416.934C1152.67 -434.665 1196.44 -452.999 1238.24 -473.265L1241.82 -475.001C1278.9 -492.953 1325.06 -515.305 1351.8 -553.029C1368.92 -577.185 1367.53 -599.14 1363.7 -627.519C1359.42 -659.272 1374.94 -675.587 1395.68 -693.617C1421.43 -716.01 1435.32 -734.246 1439.74 -771.77C1440.7 -779.928 1441.37 -787.446 1442.02 -794.717C1445.03 -828.728 1447.22 -853.303 1474.97 -884.289L1473.8 -885.533Z" fill="#A1A7FF"/>
<path d="M1469.45 -898.907C1440.03 -868.506 1438.13 -843.556 1435.49 -809.025C1434.98 -802.39 1434.46 -795.529 1433.7 -788.164C1430.27 -754.595 1416.31 -736.629 1393.35 -716.939C1370.59 -697.427 1352.62 -682.014 1358.95 -648.031C1363.67 -622.655 1366.89 -593.275 1354.97 -567.756C1337.28 -529.903 1294.55 -508.042 1260.22 -490.473C1257.64 -489.151 1255.11 -487.856 1252.64 -486.584C1206.55 -462.767 1157.69 -442.09 1110.43 -422.093C1087.61 -412.434 1064.01 -402.447 1041.03 -392.238C1030.25 -387.447 1019.4 -382.765 1007.91 -377.808C945.956 -351.063 875.728 -320.753 826.953 -275.196C806.832 -256.404 795.948 -237.279 793.679 -216.729C789.247 -176.61 818.805 -139.36 847.389 -103.338C859.393 -88.2114 870.73 -73.9234 879.263 -59.8039C894.266 -34.9806 896.005 -12.6515 884.58 8.46025C875.358 25.5022 867.74 45.574 860.374 64.9851C852.915 84.6377 845.203 104.959 835.668 122.761C825.855 141.08 813.377 160.347 797.518 181.665C754.824 239.066 695.562 284.68 647.944 321.331C642.409 325.59 636.833 329.834 631.253 334.08C620.22 342.474 608.812 351.154 597.891 359.858C595.434 361.816 592.935 363.789 590.413 365.781C549.689 397.935 503.532 434.38 527.206 489.913C529.428 495.126 531.601 499.765 533.849 504.096C549.277 533.812 582.194 586.947 629.318 608.927L630.109 607.193C583.392 585.403 550.691 532.6 535.357 503.063C533.13 498.771 530.974 494.17 528.77 488.999C505.697 434.876 551.19 398.956 591.329 367.264C593.854 365.27 596.355 363.295 598.815 361.335C609.718 352.646 621.117 343.972 632.141 335.585C637.724 331.336 643.304 327.091 648.841 322.829C696.558 286.102 755.942 240.393 798.808 182.763C814.728 161.36 827.262 142.005 837.125 123.594C846.727 105.669 854.464 85.2804 861.947 65.5635C869.289 46.2185 876.881 26.2147 886.033 9.3C897.837 -12.512 896.099 -35.4853 880.719 -60.9321C872.131 -75.1419 860.763 -89.4691 848.727 -104.638C820.364 -140.381 791.034 -177.343 795.379 -216.675C797.59 -236.696 808.259 -255.389 827.995 -273.822C876.525 -319.15 943.575 -348.089 1008.41 -376.076C1019.9 -381.036 1030.76 -385.72 1041.54 -390.512C1064.51 -400.717 1088.1 -410.7 1110.92 -420.356C1158.2 -440.365 1207.1 -461.057 1253.25 -484.904C1255.72 -486.178 1258.25 -487.471 1260.83 -488.792C1295.42 -506.495 1338.48 -528.523 1356.48 -567.033C1368.66 -593.095 1365.41 -622.871 1360.63 -648.562C1354.52 -681.373 1371.22 -695.692 1394.33 -715.51C1417.69 -735.542 1431.9 -753.848 1435.41 -788.126C1436.16 -795.52 1436.69 -802.392 1437.2 -809.041C1439.8 -843.127 1441.68 -867.755 1470.56 -897.607L1469.45 -898.907Z" fill="#A1A7FF"/>
<path d="M1465.1 -912.282C1435.5 -883.807 1434 -860.695 1431.93 -828.706C1431.45 -821.313 1430.95 -813.668 1430.08 -805.278C1427.13 -776.914 1408.22 -758.703 1389.93 -741.09C1368.45 -720.409 1348.17 -700.875 1354.54 -667.033C1360.06 -637.712 1358.87 -615.271 1350.56 -591.999C1333.05 -542.935 1299.42 -520.474 1260.51 -498.164C1204.4 -465.962 1142.1 -440.229 1081.89 -415.343C993.345 -378.75 901.787 -340.915 826.599 -281.478C776.239 -241.672 763.096 -199.663 786.416 -153.05C797.532 -130.833 814.826 -113.012 831.55 -95.7777C842.881 -84.1015 854.598 -72.0284 864.017 -58.8824C877.639 -39.8724 879.755 -19.334 870.877 7.71017C868.346 15.4242 865.867 23.2081 863.383 31.0098C853.528 61.9607 843.338 93.9655 829.386 122.312C820.34 140.691 808.682 159.506 792.698 181.521C752.868 236.381 698.574 278.518 641.762 320.399C636.682 324.145 631.557 327.875 626.424 331.612C614.791 340.081 602.761 348.838 591.335 357.729L587.266 360.889C545.525 393.292 498.213 430.016 521.889 487.838C524.246 493.593 526.332 498.3 528.456 502.65C543.458 533.383 575.624 588.489 622.495 612.252L623.329 610.539C576.855 586.979 544.897 532.205 529.983 501.653C527.876 497.338 525.804 492.665 523.462 486.946C500.367 430.54 547.014 394.331 588.169 362.384L592.239 359.222C603.641 350.35 615.658 341.602 627.278 333.143C632.414 329.404 637.543 325.671 642.626 321.924C699.57 279.945 753.996 237.702 794 182.601C810.057 160.485 821.775 141.572 830.876 123.08C844.9 94.5878 855.115 62.5044 864.994 31.4777C867.475 23.6827 869.952 15.9041 872.483 8.19554C881.58 -19.5186 879.396 -40.5875 865.401 -60.119C855.912 -73.3618 844.154 -85.4788 832.783 -97.1948C816.143 -114.342 798.937 -132.073 787.935 -154.061C765.101 -199.701 778.047 -240.894 827.514 -279.996C902.495 -339.262 993.932 -377.053 1082.36 -413.598C1142.62 -438.507 1204.93 -464.223 1261.19 -496.522C1300.45 -519.034 1334.39 -541.717 1352.15 -591.459C1360.59 -615.109 1361.8 -637.872 1356.21 -667.57C1350.05 -700.312 1369.94 -719.462 1390.99 -739.735C1409.55 -757.61 1428.75 -776.094 1431.78 -805.237C1432.66 -813.667 1433.15 -821.331 1433.63 -828.746C1435.67 -860.253 1437.15 -883.019 1466.16 -910.925L1465.1 -912.282Z" fill="#A1A7FF"/>
<path d="M1460.75 -925.65C1430.95 -898.977 1429.93 -877.689 1428.52 -848.223C1428.14 -840.304 1427.74 -832.115 1426.79 -822.91C1423.79 -793.96 1404.68 -776.543 1386.21 -759.7C1364.11 -739.545 1343.23 -720.509 1348.56 -683.786C1358.97 -612.214 1309.95 -543.282 1260.01 -509.522C1194.31 -465.123 1119.46 -432.474 1047.07 -400.9C972.629 -368.433 895.653 -334.859 828.978 -288.574C779.573 -254.277 738.042 -214.056 768.417 -152.513C778.651 -131.773 795.124 -115.348 811.053 -99.4647C824.601 -85.9548 837.396 -73.1956 846.275 -58.2453C859.556 -35.8808 860.205 -19.1965 856.661 7.59214C851.71 44.9873 839.67 86.7307 823.625 122.12C815.299 140.484 804.101 159.303 788.385 181.342C746.551 240.005 684.776 283.579 635.139 318.591C631.315 321.289 627.47 323.981 623.619 326.675C610.607 335.782 597.152 345.199 584.472 354.912C541.72 387.664 493.264 424.785 516.639 485.658C518.985 491.765 521.024 496.692 523.057 501.163C537.462 532.851 568.695 589.827 616.011 615.389L616.878 613.692C569.957 588.343 538.925 531.71 524.603 500.207C522.585 495.77 520.56 490.874 518.227 484.799C495.394 425.34 541.132 390.3 585.364 356.414C598.012 346.726 611.449 337.322 624.444 328.227C628.296 325.53 632.144 322.838 635.971 320.139C685.731 285.038 747.659 241.356 789.698 182.407C805.497 160.253 816.76 141.32 825.146 122.824C841.274 87.2504 853.378 45.2853 858.355 7.69004C861.961 -19.5566 861.292 -36.5396 847.737 -59.3658C838.754 -74.4921 825.889 -87.3211 812.268 -100.903C796.431 -116.694 780.055 -133.024 769.94 -153.519C740.236 -213.706 781.155 -253.251 829.799 -287.018C896.319 -333.206 973.211 -366.736 1047.57 -399.168C1120.04 -430.777 1194.98 -463.456 1260.81 -507.955C1311.27 -542.064 1360.79 -611.782 1350.26 -684.245C1345.08 -719.872 1365.56 -738.542 1387.23 -758.307C1406 -775.418 1425.41 -793.109 1428.49 -822.872C1429.45 -832.134 1429.85 -840.352 1430.23 -848.299C1431.62 -877.247 1432.62 -898.161 1461.76 -924.246L1460.75 -925.65Z" fill="#A1A7FF"/>
<path d="M1456.41 -939.016C1426.4 -914.028 1425.89 -894.543 1425.17 -867.577C1424.97 -859.704 1424.73 -850.781 1423.73 -840.919C1420.71 -811.307 1401.35 -794.082 1382.62 -777.425C1360.75 -757.969 1338.13 -737.852 1340.92 -698.126C1345.88 -627.363 1294.35 -570.209 1252.94 -524.282L1249.81 -520.817C1219.62 -487.303 1167.22 -464.165 1120.99 -443.756C1106.67 -437.433 1093.14 -431.462 1080.4 -425.303C1066.08 -418.379 1051.4 -411.388 1037.2 -404.625C968.457 -371.877 897.368 -338.015 833.534 -296.486L833.218 -296.281C808.162 -279.982 779.763 -261.508 761.186 -238.323C739.512 -211.273 735.656 -183.172 749.398 -152.418C759.039 -130.841 775.858 -114.143 792.122 -97.9955C805.41 -84.8016 817.962 -72.3409 826.277 -57.8098C836.966 -39.1268 841.838 -18.8872 842.072 7.81637C842.382 43.1449 833.642 84.8241 818.091 122.165C810.488 140.42 799.73 159.147 784.233 181.102C745.237 236.351 688.691 274.732 634.007 311.85L627.78 316.078C625.082 317.911 622.373 319.744 619.661 321.58C605.454 331.192 590.764 341.132 577.048 351.572C526.897 389.74 490.207 423.692 511.242 483.52C513.401 489.655 515.431 494.972 517.448 499.771C531.135 532.341 561.327 591.06 609.749 618.374L610.641 616.69C562.617 589.6 532.621 531.238 519.015 498.86C517.011 494.093 514.995 488.81 512.848 482.707C492.267 424.174 528.469 390.724 577.933 353.079C591.607 342.673 606.275 332.748 620.459 323.15C623.172 321.314 625.882 319.481 628.582 317.645L634.808 313.419C689.64 276.201 746.338 237.717 785.55 182.161C801.14 160.073 811.972 141.214 819.637 122.809C835.294 85.2096 844.096 43.2265 843.783 7.62428C843.545 -19.424 838.6 -39.9438 827.75 -58.9075C819.326 -73.6308 806.7 -86.1662 793.333 -99.4363C777.173 -115.481 760.463 -132.072 750.948 -153.366C720.722 -221.014 783.524 -261.866 833.987 -294.692L834.302 -294.896C898.032 -336.355 969.064 -370.192 1037.76 -402.916C1051.96 -409.679 1066.64 -416.673 1080.97 -423.598C1093.68 -429.743 1107.19 -435.709 1121.5 -442.026C1167.91 -462.515 1220.51 -485.736 1250.97 -519.565L1254.1 -523.029C1295.78 -569.255 1347.65 -626.786 1342.63 -698.441C1339.91 -737.133 1361.14 -756.02 1383.62 -776.013C1402.65 -792.938 1422.32 -810.441 1425.43 -840.884C1426.44 -850.823 1426.68 -859.787 1426.88 -867.696C1427.61 -895.087 1428.08 -913.183 1457.36 -937.562L1456.41 -939.016Z" fill="#A1A7FF"/>
<path d="M1452.06 -952.372C1421.82 -928.944 1421.81 -912.136 1421.81 -886.696C1421.81 -878.653 1421.8 -869.536 1420.77 -859.145C1418.15 -832.807 1402.93 -821.322 1385.31 -808.023C1379.73 -803.816 1373.97 -799.466 1368.39 -794.449C1343.83 -772.375 1332.14 -745.55 1331.59 -710.026C1330.76 -656.153 1297.15 -617.777 1264.65 -580.663C1253.96 -568.452 1242.9 -555.825 1233.08 -542.764C1195.38 -492.618 1145.06 -466.606 1091.79 -439.072L1087.66 -436.937C1065.27 -425.354 1042.26 -413.819 1020.02 -402.664C959.676 -372.41 897.284 -341.124 839.758 -305.21C836.115 -302.934 832.262 -300.574 828.258 -298.122C778.674 -267.744 703.741 -221.837 730.009 -152.889C739.057 -129.142 756.159 -111.584 772.697 -94.6031C783.92 -83.081 795.525 -71.1648 804.151 -57.6342C816.564 -38.1602 824.973 -14.1761 827.223 8.16926C830.992 45.615 826.15 83.0034 812.42 122.469C805.113 143.472 792.445 162.909 779.843 180.784C743.629 232.155 690.443 266.763 639.008 300.233C632.442 304.506 625.909 308.758 619.449 313.018L614.342 316.384C599.126 326.403 583.393 336.765 568.856 347.862C522.354 383.367 485.489 417.935 505.493 481.575C507.35 487.482 509.348 493.214 511.433 498.612C524.328 531.998 553.45 592.324 603.607 621.242L604.511 619.562C554.766 590.882 525.836 530.932 513.02 497.749C510.949 492.386 508.964 486.691 507.118 480.82C487.478 418.339 522.249 385.633 569.744 349.37C584.227 338.313 599.933 327.97 615.121 317.968L620.23 314.602C626.686 310.343 633.215 306.094 639.779 301.823C691.371 268.252 744.72 233.537 781.164 181.842C793.855 163.837 806.62 144.247 814.014 122.991C827.848 83.2262 832.726 45.5448 828.926 7.79385C826.649 -14.8311 818.141 -39.1045 805.585 -58.8007C796.87 -72.4732 785.207 -84.4474 773.928 -96.027C757.505 -112.889 740.522 -130.326 731.6 -153.744C705.932 -221.114 779.983 -266.483 828.985 -296.502C832.993 -298.957 836.852 -301.322 840.499 -303.599C897.95 -339.472 960.303 -370.734 1020.6 -400.969C1042.86 -412.126 1065.87 -423.664 1088.27 -435.252L1092.4 -437.388C1145.87 -465.031 1196.38 -491.138 1234.36 -541.652C1244.14 -554.65 1255.17 -567.248 1265.84 -579.431C1298.59 -616.834 1332.46 -655.513 1333.3 -710.167C1333.84 -745.057 1345.31 -771.391 1369.4 -793.041C1374.92 -798.003 1380.65 -802.328 1386.19 -806.509C1403.45 -819.538 1419.76 -831.844 1422.47 -859.115C1423.52 -869.608 1423.52 -878.777 1423.52 -886.87C1423.53 -911.681 1423.53 -928.073 1452.96 -950.873L1452.06 -952.372Z" fill="#A1A7FF"/>
<path d="M1447.7 -965.724C1433.92 -955.718 1419.25 -943.238 1414.84 -926.536C1412.28 -916.8 1414.25 -907.828 1416.15 -899.15C1417.67 -892.218 1419.24 -885.049 1418.41 -877.642C1415.58 -852.495 1398.29 -840.042 1379.98 -826.858C1371.95 -821.07 1363.64 -815.084 1356.74 -807.956C1331.98 -782.374 1324.77 -750.392 1320.68 -719.643C1314.04 -669.841 1281.07 -635.132 1249.19 -601.566C1236.43 -588.14 1223.25 -574.258 1211.81 -559.526C1206.37 -552.512 1201.3 -544.896 1195.93 -536.833C1186.46 -522.608 1176.67 -507.901 1164.78 -496.966C1146.31 -479.994 1123.84 -467.345 1102.09 -455.118C1098.14 -452.901 1094.24 -450.701 1090.4 -448.506C1056.01 -428.827 1020.4 -409.979 985.955 -391.758C939.82 -367.361 892.114 -342.128 847.159 -314.707C842.112 -311.627 836.308 -308.235 830.163 -304.645C777.847 -274.074 690.285 -222.909 710.383 -153.846C718.171 -127.087 736.749 -107.327 754.714 -88.2168C763.908 -78.4376 773.416 -68.3246 781.146 -57.541C797.253 -35.0705 807.71 -12.8408 812.227 8.53223C820.295 46.7181 818.332 84.1488 806.224 122.964C799.788 143.599 787.298 162.75 774.758 180.372C740.768 228.142 689.915 259.695 640.736 290.21C630.543 296.534 620.003 303.074 609.962 309.561L607.436 311.193C591.42 321.533 574.86 332.227 559.737 343.933C507.374 384.463 482.214 418.15 499.179 479.987C500.762 485.755 502.657 491.76 504.811 497.836C525.443 556.028 559.219 602.026 597.476 624.035L598.378 622.355C560.436 600.528 526.916 554.844 506.414 497.018C504.274 490.984 502.393 485.022 500.823 479.297C484.164 418.578 508.991 385.405 560.633 345.433C575.691 333.778 592.216 323.107 608.199 312.788L610.725 311.156C620.752 304.679 631.284 298.143 641.47 291.823C690.815 261.206 741.839 229.547 776.069 181.439C788.712 163.671 801.311 144.345 807.838 123.42C820.056 84.2511 822.038 46.4817 813.895 7.95097C809.327 -13.6678 798.774 -36.1203 782.528 -58.7836C774.737 -69.6533 765.193 -79.8054 755.963 -89.6237C738.131 -108.591 719.69 -128.205 712.018 -154.566C692.369 -222.084 779.059 -272.741 830.854 -303.007C837.006 -306.603 842.818 -309.998 847.881 -313.086C892.789 -340.483 940.468 -365.699 986.578 -390.083C1021.04 -408.308 1056.66 -427.156 1091.08 -446.86C1094.92 -449.056 1098.82 -451.252 1102.75 -453.466C1124.59 -465.741 1147.17 -478.449 1165.8 -495.577C1177.88 -506.68 1187.74 -521.495 1197.28 -535.821C1202.62 -543.852 1207.67 -551.438 1213.07 -558.389C1224.44 -573.039 1237.59 -586.884 1250.31 -600.273C1282.43 -634.086 1315.64 -669.049 1322.37 -719.543C1326.42 -749.928 1333.52 -781.509 1357.85 -806.649C1364.62 -813.646 1372.86 -819.579 1380.83 -825.318C1398.7 -838.189 1417.18 -851.496 1420.11 -877.589C1420.98 -885.328 1419.37 -892.658 1417.82 -899.749C1415.88 -908.583 1414.05 -916.928 1416.49 -926.177C1420.71 -942.226 1435.07 -954.399 1448.55 -964.189L1447.7 -965.724Z" fill="#A1A7FF"/>
<path d="M1443.34 -979.066C1428.39 -968.949 1414.02 -957.395 1410.15 -941.491C1407.92 -932.36 1410.2 -924.15 1412.41 -916.213C1414.23 -909.677 1416.1 -902.917 1415.35 -895.801C1412.86 -872.44 1393.91 -859.006 1375.58 -846.016C1366.15 -839.324 1357.23 -833.004 1350.36 -825.396C1324.88 -797.193 1315.64 -761.415 1308.35 -727.184C1298.11 -679.047 1264.71 -648.399 1232.41 -618.76C1216.49 -604.156 1200.03 -589.056 1186.38 -571.969C1177.9 -561.359 1170.24 -549.044 1162.84 -537.136C1157.51 -528.561 1152 -519.696 1146.19 -511.467C1129.97 -488.499 1110.36 -474.534 1088.26 -459.922C1044.18 -430.768 997.242 -404.895 951.852 -379.873C919.862 -362.237 886.777 -344 855.263 -324.908C849.798 -321.597 843.256 -317.847 835.68 -313.507C780.862 -282.094 678.827 -223.623 691.989 -155.744C697.927 -125.12 718.613 -102.713 738.618 -81.0443C745.984 -73.0663 752.94 -65.5313 759.108 -57.6748C773.467 -39.3848 789.216 -17.1945 797.17 8.71722C808.977 47.1841 809.582 84.7934 799.015 123.694C793.362 144.51 780.276 163.605 768.455 179.87C736.205 224.24 686.787 253.455 638.995 281.708C625.074 289.936 611.927 297.709 599.178 305.849L598.851 306.059C582.235 316.668 565.054 327.638 549.569 339.926C500.339 378.986 476.598 412.707 492.085 478.933C493.411 484.604 495.142 490.71 497.376 497.6C516.623 556.975 550.838 604.066 591.246 626.8L592.136 625.111C552.063 602.567 518.115 555.81 498.995 496.828C496.778 489.987 495.061 483.929 493.746 478.309C478.511 413.159 501.933 379.934 550.485 341.411C565.892 329.187 583.03 318.242 599.605 307.659L599.932 307.45C612.654 299.327 625.789 291.562 639.694 283.342C687.658 254.987 737.255 225.667 769.754 180.953C781.689 164.532 794.903 145.241 800.653 124.071C811.326 84.7804 810.719 46.8045 798.798 7.97193C790.76 -18.2136 774.902 -40.5642 760.45 -58.9742C754.242 -66.8813 747.264 -74.4402 739.878 -82.4412C720.031 -103.939 699.508 -126.168 693.665 -156.296C680.787 -222.71 781.989 -280.703 836.357 -311.859C843.944 -316.206 850.496 -319.961 855.98 -323.282C887.462 -342.357 920.528 -360.583 952.503 -378.21C997.925 -403.251 1044.89 -429.144 1089.04 -458.337C1111.31 -473.062 1131.08 -487.144 1147.51 -510.406C1153.36 -518.686 1158.88 -527.579 1164.23 -536.18C1171.6 -548.037 1179.21 -560.295 1187.62 -570.809C1201.18 -587.771 1217.57 -602.816 1233.43 -617.367C1265.98 -647.23 1299.63 -678.11 1310.02 -726.924C1317.24 -760.865 1326.4 -796.329 1351.52 -824.138C1358.24 -831.58 1367.07 -837.839 1376.42 -844.466C1395.12 -857.725 1414.46 -871.434 1417.05 -895.755C1417.84 -903.257 1415.92 -910.199 1414.05 -916.91C1411.81 -924.959 1409.7 -932.561 1411.8 -941.166C1415.5 -956.363 1429.53 -967.608 1444.13 -977.493L1443.34 -979.066Z" fill="#A1A7FF"/>
<path d="M1438.94 -992.397C1423.63 -982.432 1408.42 -971.257 1405.34 -953.976C1403.97 -946.292 1406.16 -939.303 1408.27 -932.544C1410.18 -926.443 1412.15 -920.135 1411.41 -913.443C1409 -891.909 1388.58 -876.777 1368.83 -862.144C1357.03 -853.394 1345.87 -845.131 1338.59 -835.68C1316.49 -807 1306.03 -771.195 1295.91 -736.568L1294.91 -733.124C1280.65 -684.41 1249.93 -661.165 1217.41 -636.555C1196.65 -620.847 1175.19 -604.606 1157.24 -580.943C1146.82 -567.211 1138.13 -551.961 1129.73 -537.213C1116.17 -513.413 1102.15 -488.804 1080.83 -470.986C1035.47 -433.086 982.595 -403.476 931.444 -374.825C908.873 -362.187 885.529 -349.112 863.622 -335.721L857.701 -332.103C809.866 -302.887 760.404 -272.677 718.325 -233.139C698.298 -214.319 673.373 -190.897 674.569 -158.308C675.853 -123.337 700.295 -98.0044 721.859 -75.6536C727.688 -69.6126 733.194 -63.9055 738.156 -58.1499C755.253 -38.317 772.414 -16.5051 782.137 8.58814C796.781 46.3849 799.257 83.1293 789.931 124.225C785.384 144.26 773.347 161.702 760.355 179.286C729.784 220.661 681.248 247.946 634.304 274.328C617.538 283.75 601.702 292.651 587.014 302.015C572.253 311.425 553.882 323.138 538.281 335.974C484.981 379.837 471.283 415.826 483.997 478.597C485.206 484.565 486.865 491.117 488.926 498.07C506.591 557.661 542.437 606.827 584.811 629.591L585.677 627.887C543.658 605.316 508.1 556.514 490.559 497.342C488.513 490.442 486.869 483.944 485.671 478.029C473.141 416.176 486.654 380.699 539.223 337.44C554.733 324.678 573.049 313.001 587.766 303.618C602.409 294.283 618.227 285.393 634.967 275.984C682.094 249.497 730.813 222.112 761.644 180.384C774.777 162.608 786.95 144.96 791.59 124.514C801.01 83.0032 798.511 45.8903 783.722 7.7199C773.906 -17.6142 756.643 -39.5628 739.45 -59.5058C734.459 -65.2968 728.939 -71.0171 723.095 -77.0751C701.74 -99.2077 677.537 -124.293 676.279 -158.558C675.118 -190.18 699.653 -213.235 719.366 -231.761C761.296 -271.161 810.671 -301.317 858.421 -330.481L864.344 -334.098C886.221 -347.474 909.546 -360.54 932.104 -373.168C983.326 -401.856 1036.29 -431.514 1081.78 -469.53C1103.39 -487.586 1117.5 -512.365 1131.16 -536.329C1139.52 -551.016 1148.18 -566.204 1158.51 -579.824C1176.29 -603.258 1197.64 -619.415 1218.29 -635.039C1251.09 -659.863 1282.08 -683.309 1296.53 -732.705L1297.54 -736.148C1307.6 -770.583 1318 -806.189 1339.85 -834.548C1346.96 -843.769 1358 -851.952 1369.7 -860.617C1389.81 -875.517 1410.6 -890.926 1413.11 -913.389C1413.9 -920.501 1411.86 -927.007 1409.9 -933.3C1407.76 -940.135 1405.74 -946.592 1407.02 -953.783C1409.95 -970.223 1424.78 -981.086 1439.71 -990.804L1438.94 -992.397Z" fill="#A1A7FF"/>
<path d="M1434.54 -1005.73C1422.1 -998.128 1403.29 -986.641 1400.49 -968.744C1399.36 -961.551 1401.72 -955.196 1404 -949.049C1406.14 -943.269 1408.35 -937.29 1407.55 -930.733C1405.12 -910.945 1383.79 -894.743 1363.15 -879.072C1350.29 -869.307 1338.14 -860.083 1330.98 -850.33C1309.97 -821.723 1297.8 -786.859 1286.03 -753.144C1284.25 -748.065 1282.49 -743.016 1280.71 -738.024C1267.83 -701.909 1250.16 -677.628 1221.64 -656.834C1211.04 -649.101 1199.2 -642.236 1187.74 -635.596C1165.09 -622.464 1141.67 -608.886 1124.95 -587.327C1112.52 -571.315 1103.98 -552.334 1095.71 -533.976C1087.5 -515.753 1079.02 -496.907 1066.79 -481.203C1032.53 -437.192 974.522 -405.057 923.347 -376.699C904.885 -366.469 887.441 -356.806 871.807 -347.037L861.984 -340.906C811.352 -309.323 758.996 -276.665 713.018 -236.004L712.524 -235.568C691.527 -217.001 662.771 -191.574 658.709 -161.49C653.603 -123.678 681.898 -95.6348 704.634 -73.1004C709.569 -68.2085 714.231 -63.5885 718.366 -59.0871C735.576 -40.3535 754.835 -17.7278 767.194 8.04997C784.817 44.8088 788.774 82.8139 779.291 124.239C774.42 145.515 761.669 163.66 749.837 178.603C719.079 217.445 671.125 243.595 624.755 268.88C606.561 278.799 589.376 288.17 573.439 298.165C559.502 306.905 541.497 318.671 525.843 332.196C476.182 375.102 462.798 413.56 474.695 479.163C475.954 486.111 477.487 492.923 479.25 499.408C495.723 559.998 532.662 609.732 578.062 632.451L578.889 630.727C533.878 608.205 497.245 558.856 480.894 498.72C479.146 492.286 477.625 485.527 476.374 478.634C464.636 413.897 477.836 375.953 526.819 333.633C542.373 320.194 560.299 308.481 574.178 299.777C590.067 289.812 607.226 280.457 625.394 270.55C671.942 245.168 720.068 218.925 751.081 179.758C763.063 164.626 775.981 146.232 780.948 124.533C790.537 82.643 786.538 44.2165 768.724 7.05837C756.271 -18.9181 736.916 -41.6602 719.627 -60.48C715.466 -65.0095 710.792 -69.6413 705.843 -74.5474C683.378 -96.8115 655.421 -124.52 660.399 -161.388C664.354 -190.676 692.77 -215.8 713.518 -234.147L714.011 -234.583C759.867 -275.135 812.153 -307.751 862.718 -339.292L872.543 -345.422C888.135 -355.166 905.557 -364.817 923.999 -375.036C975.342 -403.486 1033.53 -435.72 1068.05 -480.061C1080.43 -495.968 1088.97 -514.933 1097.23 -533.273C1105.45 -551.515 1113.94 -570.378 1126.2 -586.187C1142.68 -607.431 1165.94 -620.913 1188.43 -633.95C1199.92 -640.615 1211.81 -647.504 1222.49 -655.297C1251.37 -676.354 1269.26 -700.935 1282.3 -737.484C1284.08 -742.481 1285.84 -747.535 1287.62 -752.619C1299.34 -786.183 1311.45 -820.889 1332.27 -849.236C1339.26 -858.746 1351.29 -867.885 1364.03 -877.559C1385.01 -893.492 1406.71 -909.966 1409.25 -930.658C1410.11 -937.7 1407.81 -943.898 1405.59 -949.894C1403.3 -956.08 1401.13 -961.924 1402.18 -968.596C1404.83 -985.515 1423.14 -996.705 1435.27 -1004.11L1434.54 -1005.73Z" fill="#A1A7FF"/>
<path d="M1430.13 -1019.06L1429.54 -1018.73C1416.46 -1011.16 1396.68 -999.734 1394.94 -981.391C1394.36 -975.277 1396.97 -969.925 1399.5 -964.747C1402.24 -959.125 1404.84 -953.812 1403.81 -947.532C1400.82 -929.129 1379.57 -912.977 1359.01 -897.358C1346.79 -888.071 1335.24 -879.299 1328.52 -870.628C1305.06 -840.417 1290.55 -803.683 1276.51 -768.159C1273.18 -759.736 1269.74 -751.028 1266.26 -742.623C1249.76 -702.794 1227.32 -676.266 1193.5 -656.607C1183.68 -650.893 1173.16 -645.903 1162.03 -640.608C1135.6 -628.043 1108.26 -615.052 1090.02 -591.829C1076.33 -574.396 1069.07 -553.155 1062.05 -532.614C1057.53 -519.375 1052.85 -505.684 1046.5 -493.148C1021.42 -443.669 964.898 -410.091 915.031 -380.467C902.312 -372.912 890.299 -365.774 879.411 -358.719C874.074 -355.261 868.729 -351.806 863.38 -348.352C816.395 -317.993 767.809 -286.601 723.033 -250.491C721.095 -248.929 719.097 -247.33 717.054 -245.694C691.011 -224.859 658.602 -198.927 647.599 -166.155C633.901 -125.35 664.129 -95.7509 688.419 -71.969C692.473 -67.9974 696.302 -64.2496 699.82 -60.5702C719.387 -40.1037 739.296 -17.7544 752.375 6.97835C772.132 44.3378 776.947 82.5302 767.096 123.738C763.015 140.813 752.883 158.514 736.125 177.849C705.515 213.167 660.009 237.774 615.994 261.569C595.624 272.583 576.382 282.987 558.448 294.415C538.707 306.998 524.032 317.891 512.266 328.701C466.062 371.15 453.42 410.952 463.953 480.797C465.029 487.929 466.438 494.99 468.143 501.787C483.563 563.263 521.974 613.224 570.892 635.431L571.669 633.684C523.175 611.669 485.091 562.117 469.795 501.131C468.104 494.394 466.707 487.393 465.64 480.322C455.23 411.29 467.699 371.978 513.287 330.094C524.966 319.365 539.554 308.537 559.199 296.018C577.074 284.624 596.288 274.236 616.628 263.24C660.791 239.362 706.458 214.671 737.309 179.075C754.299 159.472 764.583 141.474 768.748 124.05C778.718 82.3416 773.853 43.7027 753.874 5.92196C740.701 -18.9883 720.705 -41.4388 701.058 -61.9889C697.523 -65.6862 693.685 -69.4446 689.622 -73.423C665.686 -96.8615 635.896 -126.03 649.198 -165.656C659.998 -197.829 692.144 -223.547 717.972 -244.212C720.018 -245.85 722.018 -247.45 723.958 -249.013C768.654 -285.06 817.197 -316.422 864.141 -346.754C869.491 -350.211 874.837 -353.664 880.174 -357.124C891.031 -364.16 903.029 -371.287 915.732 -378.834C965.832 -408.596 1022.62 -442.331 1047.98 -492.356C1054.4 -505.029 1059.1 -518.792 1063.65 -532.103C1070.61 -552.473 1077.81 -573.536 1091.27 -590.682C1109.22 -613.532 1136.35 -626.429 1162.58 -638.893C1173.75 -644.205 1184.27 -649.2 1194.18 -654.964C1228.41 -674.859 1251.12 -701.695 1267.8 -741.983C1271.29 -750.403 1274.74 -759.121 1278.07 -767.551C1292.05 -802.933 1306.51 -839.519 1329.77 -869.489C1336.34 -877.944 1347.78 -886.64 1359.89 -895.845C1380.77 -911.714 1402.37 -928.123 1405.5 -947.373C1406.62 -954.283 1403.78 -960.114 1401.02 -965.753C1398.5 -970.926 1396.11 -975.814 1396.64 -981.371C1398.27 -998.617 1417.5 -1009.73 1430.23 -1017.08L1430.81 -1017.42L1430.13 -1019.06Z" fill="#A1A7FF"/>
<path d="M1419.97 -1029.23C1398.49 -1017 1389.67 -1007.44 1393.78 -982.337C1394.39 -978.621 1395.08 -975.625 1395.69 -972.982C1397.97 -963.18 1398.82 -959.512 1388.87 -946.393C1379.87 -934.53 1368.16 -926.006 1355.76 -916.979C1342.82 -907.555 1329.44 -897.81 1319.25 -883.85C1300.18 -857.72 1287.32 -826.598 1274.88 -796.504C1259.88 -760.207 1244.37 -722.675 1217.91 -694.094C1195.47 -669.852 1165.12 -657.627 1135.77 -645.808C1104.1 -633.054 1074.18 -621.007 1053.06 -595.15C1038.67 -577.537 1034.05 -554.038 1029.59 -531.314C1026.19 -513.991 1022.68 -496.075 1014.89 -480.586C1001.59 -454.114 975.966 -435.142 953.362 -418.405C950.763 -416.48 948.195 -414.578 945.678 -412.691C916.788 -391.023 886.476 -370.67 857.162 -350.99C845.878 -343.413 834.21 -335.578 822.788 -327.779L821.302 -326.766C777.333 -296.746 731.866 -265.705 690.993 -229.308L687.336 -226.058C666.158 -207.286 639.802 -183.921 632.58 -156.07C623.319 -120.361 650.775 -93.7115 672.834 -72.2983C676.301 -68.9338 679.575 -65.7554 682.578 -62.6692C730.866 -13.044 777.033 47.7778 753.313 122.627C733.269 185.877 663.466 223.3 601.879 256.325C579.805 268.159 558.956 279.338 542.096 290.858C466.318 342.632 440.93 396.7 451.545 483.703C460.001 552.996 503.819 613.789 563.177 638.579L563.914 636.813C505.065 612.236 461.624 551.972 453.242 483.284C442.739 397.198 467.876 343.687 542.899 292.429C559.673 280.968 580.482 269.811 602.51 258C664.435 224.795 734.619 187.165 754.924 123.094C778.961 47.2459 732.463 -14.0953 683.808 -64.096C680.789 -67.1976 677.508 -70.3833 674.034 -73.7558C652.299 -94.8534 625.249 -121.112 634.224 -155.714C641.28 -182.928 667.369 -206.055 688.332 -224.64L691.994 -227.89C732.772 -264.203 778.186 -295.209 822.105 -325.194L823.589 -326.208C835.005 -334.003 846.671 -341.835 857.953 -349.408C887.287 -369.105 917.619 -389.471 946.551 -411.169C949.063 -413.055 951.628 -414.953 954.224 -416.876C977.013 -433.751 1002.84 -452.876 1016.37 -479.8C1024.29 -495.556 1027.84 -513.619 1031.27 -531.085C1035.88 -554.582 1040.23 -576.774 1054.28 -593.968C1075.08 -619.432 1104.78 -631.391 1136.22 -644.048C1165.76 -655.942 1196.3 -668.242 1219.05 -692.816C1245.77 -721.676 1261.35 -759.392 1276.43 -795.864C1288.81 -825.841 1301.62 -856.837 1320.55 -882.759C1330.55 -896.457 1343.8 -906.108 1356.61 -915.442C1368.58 -924.156 1380.95 -933.167 1390.14 -945.274C1400.7 -959.193 1399.65 -963.708 1397.36 -973.604C1396.75 -976.217 1396.06 -979.181 1395.46 -982.837C1391.2 -1008.85 1401.07 -1017.03 1426.34 -1030.73L1425.7 -1032.4C1423.7 -1031.32 1421.79 -1030.26 1419.97 -1029.23Z" fill="#A1A7FF"/>
</g>
</svg>
