<svg xmlns="http://www.w3.org/2000/svg" width="643" height="367" fill="none"><g fill="#A1A7FF" opacity=".7"><path d="M98.945 558.112c54.849-54.931 51.45-156.718 16.904-219.44-17.613-31.974-42.147-60.14-65.873-87.378l-3.33-3.824c-1.928-2.215-4.017-4.572-6.218-7.054-22.403-25.263-56.255-63.441-48.754-98.421 5.777-26.937 36.944-40.759 61.988-51.864 7.207-3.196 14.015-6.214 19.66-9.277 31.061-16.848 53.025-39.489 65.281-67.293 12.601-28.585-1.598-49.419-15.328-69.569-3.067-4.5-6.239-9.156-9.056-13.816-21.213-35.091-33.005-75.315-36.044-122.957-1.169-18.33-1.7-37.004-2.215-55.065-1.226-43.076-2.494-87.618-12.548-130.178-4.31-18.243-10.305-36.712-16.103-54.574-6.019-18.539-12.242-37.708-16.705-56.933-.069-.293-6.452-29.642 1.75-35.659 3.02-2.216 7.461-.757 13.199 4.34l-.906 1.226c-5.217-4.634-9.102-6.075-11.547-4.282-5.761 4.228-3.19 25.075-1.133 33.936 4.447 19.156 10.66 38.293 16.668 56.799 5.808 17.893 11.814 36.393 16.14 54.701 10.092 42.725 11.362 87.355 12.591 130.516.514 18.046 1.045 36.706 2.212 55.006 3.022 47.368 14.734 87.344 35.82 122.227 2.796 4.626 5.956 9.264 9.013 13.75 13.977 20.51 28.432 41.72 15.452 71.168-12.404 28.141-34.596 51.035-65.96 68.048-5.694 3.089-12.526 6.12-19.76 9.326-24.727 10.964-55.5 24.611-61.1 50.728-7.324 34.159 26.215 71.98 48.407 97.008 2.204 2.485 4.297 4.846 6.227 7.063l3.33 3.825c23.776 27.296 48.361 55.521 66.05 87.633 17.693 32.087 26.948 73.242 25.434 112.906-1.681 44.132-16.819 82.669-42.623 108.511z"/><path d="M89.854 565.199c54.605-56.03 43.769-158.239 5.823-225.989-18.692-33.377-43.026-63.911-68.411-94.848-2.586-3.15-5.478-6.551-8.539-10.152-22.848-26.878-54.14-63.686-47.02-97.984 6.374-30.707 41.696-44.906 75.855-58.636 23.422-9.416 45.546-18.31 58.047-31.99 9.731-10.647 18.618-24.638 23.19-36.513 6.703-17.397 3.36-38.245-8.524-53.116-6.629-8.294-13.321-19.992-19.896-34.781-13.568-30.524-21.695-61.899-24.844-95.919-.918-9.922-1.053-20.459-1.062-30.368-.006-7.346.022-14.66.049-21.944.18-47.498.35-92.362-8.62-137.958-1.62-8.23-3.671-16.94-6.098-25.888-4.924-18.16-11.279-36.362-17.424-53.964-6.612-18.937-13.448-38.517-18.589-58.255-.08-.308-7.939-30.91.071-37.483 2.775-2.277 6.98-1.342 12.499 2.779l-.818 1.299c-4.98-3.719-8.638-4.674-10.871-2.842-5.948 4.88-1.54 28.038.472 35.765 5.124 19.674 11.95 39.224 18.55 58.13 6.156 17.628 12.52 35.857 17.46 54.073 2.436 8.986 4.497 17.733 6.123 26.001 9.003 45.76 8.832 90.705 8.652 138.29-.028 7.282-.056 14.592-.049 21.937.008 9.868.142 20.358 1.055 30.212 3.132 33.838 11.215 65.046 24.712 95.408 6.518 14.667 13.147 26.257 19.698 34.456 12.229 15.3 15.66 36.785 8.746 54.732-4.643 12.056-13.652 26.246-23.51 37.035C93.847 60.618 71.577 69.57 47.998 79.048c-33.787 13.582-68.725 27.627-74.921 57.47-6.955 33.501 24.052 69.975 46.693 96.605 3.065 3.606 5.96 7.011 8.553 10.171 25.43 30.99 49.808 61.58 68.559 95.064 18.878 33.704 30.455 75.614 31.752 114.945 1.078 32.736-4.611 78.917-37.843 113.018z"/><path d="M80.728 572.277c57.111-59.802 33.167-162.487-4.686-232.195-19.98-36.808-46.172-71.892-66.76-98.345-3.41-4.383-7.406-9.19-11.635-14.277-22.1-26.585-52.367-62.994-46.167-96.887 5.97-32.64 48.504-47.903 86.03-61.37 23.465-8.42 45.628-16.373 57.393-27.564 11.818-11.243 19.378-22.86 23.789-36.56 6.584-20.453-2.317-35.27-11.741-50.958a541 541 0 0 1-2.928-4.91c-7.44-12.659-12.934-27.25-16.231-37.254-10.28-31.203-15.72-63.277-16.63-98.055-.26-9.927.122-20.486.534-30.45 2.124-51.31 3.213-105.9-8.562-159.62-1.78-8.117-4.029-16.786-6.685-25.765-5.242-17.718-11.919-35.457-18.375-52.611-7.211-19.16-14.667-38.973-20.24-59.014-2.115-7.611-8.467-32.963-1.341-39.633 2.594-2.43 6.591-2.138 11.878.868l-.68 1.388c-4.737-2.693-8.207-3.058-10.314-1.086-6.607 6.186.343 32.702 1.804 37.954 5.552 19.972 12.996 39.751 20.195 58.878 6.466 17.182 13.153 34.948 18.412 52.722 2.667 9.016 4.926 17.722 6.715 25.878 11.817 53.916 10.727 108.631 8.599 160.052-.411 9.935-.791 20.46-.533 30.333.905 34.613 6.318 66.53 16.547 97.579 3.273 9.932 8.718 24.403 16.096 36.955.964 1.642 1.944 3.271 2.92 4.897 9.62 16.01 18.704 31.137 11.883 52.322-4.501 13.977-12.196 25.814-24.22 37.252-11.988 11.404-34.289 19.406-57.897 27.878-37.142 13.33-79.239 28.436-85.04 60.145-6.06 33.129 23.938 69.212 45.841 95.559 4.238 5.097 8.24 9.912 11.665 14.313 20.62 26.497 46.86 61.645 66.892 98.547 20.193 37.201 33.994 79.663 37.876 116.522 5.198 49.356-6.058 88.93-33.458 117.62z"/><path d="M71.561 579.332c60.624-62.514 25.713-163.862-14.25-237.862-20.541-38.042-42.85-73.212-64.516-101.709-4.09-5.381-9.018-11.292-14.234-17.55-23.36-28.024-52.431-62.896-47.378-97.114 5.183-35.082 53.433-50.744 96.003-64.563 22.57-7.326 43.887-14.246 55.377-23.167 14.474-11.238 22.827-22.925 25.538-35.73 3.537-16.703-4.451-31.473-12.187-45.761-2.61-4.825-5.075-9.382-7.11-14-4.713-10.715-8.974-24.27-12.32-39.199-6.995-31.204-9.847-63.711-8.721-99.377.303-9.608 1.043-19.513 1.826-29.999l.03-.399c4.755-63.654 1.922-112.531-9.187-158.478-2.504-10.358-4.788-18.441-7.19-25.439-4.821-14.042-10.499-27.865-16.51-42.501-8.885-21.637-18.075-44.011-24.11-66.853l-.204-.77c-2.392-9.014-8.746-32.956-1.611-41.032 2.408-2.725 6.074-3.385 10.896-1.96l-.412 1.503c-4.29-1.267-7.484-.755-9.497 1.522-6.538 7.4-.13 31.542 1.974 39.475l.205.772c6.009 22.741 15.178 45.066 24.044 66.654 5.755 14.013 11.706 28.503 16.542 42.588 2.42 7.048 4.717 15.177 7.233 25.585 11.151 46.124 13.998 95.162 9.23 159.002l-.03.398c-.783 10.467-1.521 20.354-1.824 29.925-1.12 35.521 1.719 67.889 8.682 98.955 3.324 14.828 7.551 28.28 12.224 38.901 2.005 4.56 4.458 9.092 7.055 13.89 7.87 14.546 16.007 29.58 12.34 46.896-2.796 13.21-11.342 25.214-26.128 36.693-11.688 9.076-33.119 16.032-55.806 23.397-42.153 13.683-89.93 29.19-94.964 63.265-4.947 33.477 23.879 68.058 47.04 95.843 5.228 6.271 10.165 12.194 14.274 17.598 21.711 28.558 44.063 63.794 64.64 101.902 40.219 74.479 75.303 176.573 13.973 239.816z"/><path d="M62.312 586.38c72.541-76.252 2.574-201.539-20.414-242.708q-2.703-4.843-5.419-9.724C18.36 301.393-.376 267.731-22.678 238.641c-4.46-5.816-9.794-12.164-15.44-18.883-24.205-28.805-54.326-64.652-50.86-99.855 3.728-37.864 60.149-54.507 105.484-67.88 21.202-6.255 41.227-12.161 52.078-19.185C77.728 26.92 94.75 15.904 96.821-1.18c1.636-13.478-6.171-29.46-13.06-43.559-3.683-7.54-7.161-14.66-9.135-21.06-3.45-11.19-6.302-25.244-8.246-40.644-3.844-30.452-4.28-63.167-1.335-100.015.602-7.519 1.365-15.134 2.174-23.196l.701-7.034c4.062-41.186 7.258-102.21-11.802-156.411-2.067-5.878-4.385-11.834-6.837-18.14-.896-2.304-1.796-4.617-2.685-6.932-.467-1.218-1.374-3.438-2.614-6.474-12.327-30.19-49.84-122.062-36.523-143.814 1.97-3.216 4.962-4.797 8.894-4.696l-.088 1.556c-3.456-.089-5.959 1.213-7.652 3.978-8.536 13.944 3.796 61.816 36.654 142.29 1.246 3.05 2.157 5.281 2.627 6.504.887 2.313 1.787 4.625 2.682 6.926 2.349 6.04 4.779 12.286 6.855 18.188 19.17 54.512 15.965 115.786 11.887 157.134l-.702 7.037c-.807 8.053-1.57 15.66-2.17 23.161-2.937 36.729-2.502 69.329 1.328 99.664 1.932 15.306 4.761 29.263 8.185 40.365 1.937 6.281 5.39 13.349 9.046 20.832C91.992-31.22 99.912-15.008 98.216-1.032c-2.168 17.867-19.595 29.146-28.958 35.206-11.022 7.134-30.215 12.795-52.439 19.352-44.9 13.244-100.78 29.727-104.4 66.485-3.396 34.513 26.492 70.08 50.51 98.664 5.658 6.732 11.002 13.091 15.48 18.933 22.368 29.173 41.132 62.886 59.276 95.486q2.715 4.88 5.417 9.722c16.59 29.713 39.713 74.534 48.903 120.573 10.279 51.491.608 93.244-28.746 124.098z"/><path d="M52.972 593.403c63.838-68.635 22.416-167.306-20.81-245.611l-2.99-5.419c-19.506-35.371-39.675-71.947-65.038-103.5-4.741-5.898-10.263-12.241-16.11-18.957-25.935-29.794-58.212-66.873-56.81-104.792 1.534-41.465 64.097-58.18 114.367-71.611C25.69 38.14 43.057 33.5 52.993 28.117c11.052-5.984 29.46-15.955 31.398-31.35 1.337-10.617-5.307-25.34-11.732-39.576-4.8-10.637-9.763-21.635-11.272-30.775-2.197-13.294-3.613-27.691-4.095-41.63-1.004-28.995.69-60.797 5.326-100.08.424-3.597.864-7.237 1.309-10.919.752-6.231 1.52-12.58 2.252-19.042 6.285-55.463.83-103.224-17.688-154.86-2.868-7.998-5.945-16.344-8.921-24.416l-.18-.489c-.746-2.022-2.258-5.706-4.17-10.372-12.446-30.346-45.505-110.955-33.082-136.712 2.088-4.33 5.368-7.002 9.748-7.942l.215 1.529c-3.98.854-6.835 3.177-8.729 7.104-12.09 25.066 20.764 105.174 33.132 135.331 1.994 4.864 3.435 8.377 4.19 10.426l.18.488c2.977 8.075 6.056 16.425 8.926 24.429 18.609 51.888 24.09 99.882 17.774 155.619-.732 6.465-1.5 12.819-2.254 19.054-.444 3.68-.884 7.319-1.309 10.914-4.625 39.194-6.314 70.911-5.314 99.816.48 13.869 1.888 28.19 4.073 41.413 1.475 8.93 6.394 19.831 11.151 30.373C80.44-29.105 87.18-14.17 85.785-3.077c-2.046 16.25-20.898 26.46-32.162 32.56C43.49 34.973 26.052 39.632 5.86 45.027c-49.788 13.303-111.75 29.858-113.24 70.101-1.378 37.265 30.678 74.092 56.437 103.686 5.855 6.726 11.386 13.08 16.144 18.999 25.442 31.651 45.644 68.284 65.18 103.711l2.99 5.42c18.46 33.436 40.793 77.521 49.736 121.966 10.343 51.401.527 93.656-29.175 125.59z"/><path d="M43.53 600.402C72.868 567.93 83.27 526.158 74.452 476.25c-7.86-44.481-29.519-88.758-47.509-122.365-19.232-35.925-42.321-77.299-73.029-113.7-5.37-6.364-11.513-13.102-18.016-20.235-27.798-30.487-62.396-68.432-63.807-109.113-1.567-45.162 69.347-62.524 121.127-75.2 18.076-4.426 33.687-8.248 42.707-12.432 13.55-6.285 34.73-19.447 33.884-28.01-.68-6.892-4.078-16.248-8.013-27.084-5.587-15.385-11.92-32.826-12.794-49.457-.705-13.37-.691-27.977.039-42.244 1.694-33.095 6.21-66.04 11.085-99.689 1.522-10.508 2.8-20.19 3.903-29.598 6.946-59.183-6.519-104.915-23.469-154.348-2.368-6.906-4.826-13.908-7.296-20.948l-1.27-3.616c-1.02-2.91-2.9-7.597-5.278-13.532-12.99-32.407-40.021-99.842-28.923-128.358 2.154-5.537 5.677-9.383 10.47-11.432l.46 1.451c-4.408 1.883-7.653 5.432-9.643 10.548C-11.771-545.23 15.093-478.209 28.004-446c2.386 5.952 4.271 10.654 5.303 13.597l1.27 3.616c2.47 7.042 4.93 14.048 7.3 20.959 17.017 49.627 30.534 95.551 23.546 155.091a1100 1100 0 0 1-3.91 29.645c-4.868 33.607-9.379 66.507-11.068 99.528-.727 14.208-.741 28.754-.04 42.066.862 16.382 7.15 33.7 12.699 48.98 3.972 10.937 7.401 20.383 8.103 27.48 1.265 12.8-34.424 29.51-34.784 29.676-9.141 4.24-24.811 8.076-42.956 12.519-51.272 12.553-121.492 29.745-119.972 73.558 1.389 40.083 35.778 77.801 63.412 108.106 6.513 7.144 12.664 13.891 18.052 20.277 30.798 36.506 53.933 77.962 73.2 113.953 41.713 77.917 81.268 176.569 16.343 248.432z"/><path d="M33.963 607.385C98.82 530.838 63.617 435.926 25.7 361.729c-24.002-46.943-49.355-84.932-79.79-119.553-6.099-6.938-13.042-14.235-20.392-21.961-29.789-31.312-66.864-70.278-71.52-113.072-5.408-49.711 73.49-67.399 125.698-79.103 15.948-3.575 29.72-6.662 37.84-9.917 1.003-.402 2.17-.84 3.454-1.322 11.023-4.142 31.544-11.85 27.54-27.646l-1.451-5.692c-6.11-23.89-11.385-44.522-9.814-72.487.743-13.184 2.114-27.489 4.08-42.517 2.87-21.956 6.657-44.35 10.317-66.007 1.827-10.812 3.717-21.992 5.462-32.939 1.446-9.077 2.755-18.882 3.888-29.144 5.616-50.855-8.721-94.272-23.9-140.238a3200 3200 0 0 1-4.818-14.669c-1.833-5.644-3.713-11.329-5.596-17.023l-2.327-7.044c-1.076-3.262-2.915-8.115-5.245-14.259C4.503-491.432-25.925-571.685 5.42-588.595l.573 1.397c-30.097 16.236 1.106 98.537 14.431 133.681 2.337 6.162 4.182 11.029 5.268 14.324l2.327 7.044a3506 3506 0 0 1 5.6 17.03c1.599 4.924 3.212 9.807 4.815 14.662 15.237 46.143 29.63 89.727 23.973 140.953-1.137 10.29-2.45 20.124-3.9 29.227-1.747 10.956-3.637 22.14-5.465 32.956-3.657 21.641-7.44 44.019-10.307 65.942-1.96 14.986-3.328 29.248-4.067 42.39-1.558 27.7 3.688 48.216 9.763 71.97l1.453 5.697C54.257 5.93 32.877 13.961 21.39 18.276c-1.273.478-2.43.912-3.425 1.311C9.744 22.882-4.076 25.98-20.08 29.57c-51.678 11.585-129.774 29.092-124.526 77.327 4.597 42.252 41.476 81.019 71.113 112.167 7.36 7.736 14.312 15.043 20.429 22.001 30.516 34.715 55.935 72.8 79.992 119.854 38.138 74.627 73.547 170.198 8.043 247.509z"/><path d="M24.282 614.329C90.634 532.018 61 441.074 27.77 371.04c-20.5-43.187-46.92-81.051-88.348-126.563-6.56-7.207-14.125-14.898-22.134-23.039-32.249-32.789-72.382-73.592-80.021-117.833-1.922-11.136-.009-21.402 5.689-30.508 19.641-31.392 81.162-44 121.872-52.342 13.886-2.846 25.878-5.303 33.204-7.852C12.669 7.808 28.27.77 28.082-18.359c-.09-9.243-1.03-18.498-1.938-27.45C24.5-62.01 22.8-78.761 25.911-96.61c2.84-16.292 5.436-30.192 7.939-42.495 1.698-8.346 3.447-16.708 5.198-25.079 5.003-23.915 10.176-48.645 14.065-72.864 1.361-8.48 2.51-17.835 3.515-28.601 4.014-43.021-10.266-86.612-24.077-128.769-3.15-9.617-6.126-18.7-8.877-27.756a3699 3699 0 0 0-3.942-12.866 4621 4621 0 0 1-3.238-10.551c-1.18-3.868-3.045-9.191-5.203-15.355-13.34-38.08-38.171-108.961-8.096-129.744l.707 1.316c-29.043 20.068-4.49 90.157 8.701 127.812 2.165 6.18 4.035 11.517 5.225 15.417 1.07 3.506 2.152 7.025 3.236 10.548 1.32 4.29 2.642 8.586 3.943 12.872 2.747 9.039 5.72 18.114 8.867 27.722 13.863 42.318 28.198 86.077 24.151 129.452-1.007 10.804-2.162 20.198-3.53 28.716-3.894 24.26-9.072 49.01-14.08 72.945-1.75 8.368-3.498 16.727-5.195 25.068-2.5 12.287-5.094 26.172-7.93 42.446-3.07 17.614-1.382 34.247.25 50.331.912 8.989 1.855 18.285 1.947 27.606C29.703 3.494 9.34 10.582-1.6 14.391c-7.41 2.577-19.442 5.043-33.373 7.898-40.474 8.294-101.637 20.828-120.929 51.662-5.465 8.736-7.299 18.595-5.451 29.301 7.55 43.752 47.508 84.376 79.612 117.016 8.019 8.152 15.592 15.851 22.171 23.079 41.53 45.625 68.012 83.578 88.589 126.923 22.581 47.593 33.989 86.784 35.897 123.341 2.396 45.882-10.558 85.7-39.604 121.732z"/><path d="M14.737 621.329c18.04-25.767 39.534-60.34 45.686-99.295 7.843-49.647-8.837-96.898-28.03-140.563C8.158 326.333-31.34 284.054-66.19 246.749c-7.041-7.537-14.79-15.36-22.996-23.64-35.544-35.881-75.825-76.545-88.371-123.033-3.051-11.313-1.959-21.772 3.242-31.086 17.533-31.385 78.424-44.4 118.718-53.014 14.365-3.071 26.77-5.724 33.197-8.398C-14.625 4.343 4.025-5.448 9.271-26.414c3.326-13.29 3.295-28.084 3.267-42.39-.026-12.579-.05-24.46 2.045-35.274 1.646-8.494 4.467-17.976 7.195-27.146 1.496-5.026 3.043-10.224 4.366-15.166 8.261-30.85 16.573-63.925 21.404-96.757.751-5.107 1.207-10.621 1.648-15.953.333-4.032.678-8.203 1.144-12.056 2.01-16.617-3.72-38.221-8.778-57.283-1.263-4.763-2.456-9.262-3.475-13.484-7.22-29.932-15.508-60.134-23.388-88.314-.812-2.903-1.63-5.804-2.445-8.697-1.315-4.67-2.626-9.32-3.898-13.925-1.246-4.513-2.884-9.791-4.781-15.902-11.275-36.327-30.146-97.125-2.079-122.85l.866 1.187c-27.281 25.006-8.612 85.16 2.544 121.099 1.9 6.125 3.542 11.414 4.794 15.952 1.272 4.603 2.581 9.25 3.897 13.916q1.225 4.343 2.446 8.7c7.884 28.195 16.176 58.415 23.402 88.371 1.014 4.204 2.205 8.695 3.467 13.45 5.095 19.208 10.87 40.978 8.82 57.924-.462 3.82-.79 7.789-1.136 11.99-.444 5.36-.902 10.902-1.66 16.064-4.845 32.921-13.171 66.055-21.446 96.956-1.33 4.964-2.88 10.174-4.379 15.212-2.716 9.129-5.525 18.57-7.154 26.98-2.062 10.647-2.039 22.445-2.014 34.937.03 14.414.06 29.317-3.32 42.818C5.196-4.36-13.968 5.715-21.957 9.038c-6.54 2.721-18.406 5.259-33.43 8.47-40.042 8.56-100.552 21.496-117.741 52.265-4.975 8.906-6.012 18.932-3.08 29.799 12.435 46.099 52.576 86.612 87.992 122.361 8.212 8.289 15.968 16.119 23.023 23.67 34.93 37.39 74.523 79.778 98.855 135.135 19.294 43.896 36.058 91.42 28.146 141.502-6.209 39.308-27.83 74.097-45.973 100.015z"/><path d="M5.368 628.35c20.044-30.751 40.385-63.657 49.597-98.107C68.848 478.319 53.55 429.426 38.67 392.63c-20.6-50.952-58.41-90.142-94.977-128.054-5.108-5.295-10.198-10.571-15.22-15.859-7.25-7.631-14.984-15.414-23.17-23.653-37.097-37.332-79.141-79.646-95.794-128.214-4.609-13.44-4.275-25.519.992-35.905 14.497-28.584 62.764-39.798 101.548-48.808C-70.028 7.971-54.549 4.375-46.145-.162c15.004-8.101 30.316-17.44 38.239-34.512C.203-52.15 3.048-73.073 5.8-93.307c.912-6.708 1.773-13.045 2.819-19.263 2.531-15.062 4.809-27.642 9.098-40.95 11.644-36.135 18.663-66.468 22.09-95.455.146-1.241.303-2.477.46-3.714.938-7.389 1.907-15.031.546-23.677-8.411-53.406-21.035-105.151-35.46-162.413l-1.226-4.858c-1.435-5.679-2.858-11.307-4.196-16.831-.96-3.969-2.142-8.458-3.393-13.209-9.575-36.374-24.046-91.342 3.76-117.938l.89 1.166c-27.088 25.91-12.773 80.29-3.3 116.274 1.252 4.761 2.436 9.257 3.401 13.241 1.337 5.519 2.758 11.142 4.192 16.816l1.227 4.859c14.434 57.301 27.068 109.085 35.49 162.56 1.399 8.887.413 16.653-.54 24.163a422 422 0 0 0-.459 3.699c-3.44 29.103-10.482 59.541-22.162 95.787-4.252 13.196-6.517 25.713-9.037 40.704-1.042 6.191-1.901 12.514-2.811 19.208-2.77 20.363-5.632 41.42-13.853 59.134-8.131 17.525-23.682 27.02-38.913 35.242-8.566 4.627-24.126 8.242-42.144 12.427-38.491 8.944-86.395 20.073-100.56 48.002-5.048 9.954-5.349 21.585-.895 34.574 16.54 48.235 58.46 90.424 95.445 127.644 8.193 8.246 15.932 16.034 23.192 23.676 5.02 5.285 10.107 10.559 15.213 15.852 36.664 38.012 74.573 77.313 95.283 128.526 14.976 37.037 30.37 86.271 16.353 138.692-9.277 34.696-29.697 67.733-49.817 98.6z"/><path d="m-4.004 635.384 2.999-4.847c17.648-28.519 37.652-60.841 50.083-92.279 16.373-41.404 15.256-84.034-3.512-134.16s-58.451-89.595-96.827-127.768c-9.058-9.01-17.615-17.522-25.897-26.17-7.253-7.572-14.75-15.144-22.69-23.159-38.1-38.472-81.299-82.08-101.89-133.122-5.852-14.494-6.132-27.653-.834-39.113 14.228-30.778 65.556-44.101 103.031-53.83 12.819-3.328 23.888-6.202 31.358-9.206 13.382-5.386 32.004-15.774 44.717-34.68C-10.628-62.044-4.756-86.457.922-110.066c.916-3.808 1.82-7.565 2.741-11.241.685-2.733 1.376-5.472 2.067-8.209 2.74-10.851 5.571-22.071 7.893-32.651 6.984-31.83 13.433-62.865 15.594-92.622.614-8.46-.62-17.856-2.049-28.734l-.03-.226C20.263-336.114 8.755-388.35-2.374-438.865l-2.35-10.677c-1.45-6.579-2.818-12.793-4.057-18.949-.566-2.815-1.181-5.755-1.817-8.801-7.535-36.062-17.854-85.452 10.037-113.57l.918 1.139c-27.25 27.471-17.04 76.336-9.586 112.015.637 3.049 1.252 5.995 1.82 8.813 1.236 6.14 2.603 12.348 4.05 18.92l2.35 10.676c11.137 50.55 22.654 102.821 29.54 155.259l.03.225c1.44 10.972 2.685 20.448 2.057 29.085-2.17 29.873-8.63 60.977-15.63 92.872-2.327 10.607-5.163 21.84-7.905 32.704-.69 2.737-1.382 5.473-2.066 8.205-.92 3.671-1.822 7.424-2.737 11.226-5.714 23.759-11.624 48.326-24.633 67.676-12.934 19.234-31.83 29.783-45.402 35.245-7.55 3.037-18.659 5.921-31.522 9.26-37.195 9.656-88.137 22.88-102.05 52.976-5.089 11.007-4.794 23.709.876 37.755 20.503 50.748 63.57 94.258 101.574 132.634 7.942 8.02 15.444 15.595 22.705 23.177 8.27 8.635 16.82 17.14 25.874 26.145 38.485 38.28 78.286 77.868 97.165 128.299 18.665 49.849 19.809 94.135 3.495 135.392-12.488 31.581-32.534 63.972-50.219 92.55l-3 4.848z"/><path d="M-13.38 642.442c5.445-9.437 11.131-18.904 16.631-28.059 38.286-63.734 74.45-123.933 48.68-199.011-17.267-50.321-62.029-93.184-101.518-131.003-12.143-11.631-23.612-22.615-34-33.477-6.652-6.955-13.413-13.867-20.572-21.185-39.343-40.219-83.913-85.801-107.307-138.598-7.015-15.848-7.878-30.175-2.563-42.58 13.069-30.505 61.126-44.543 96.217-54.791 12.021-3.511 22.402-6.544 29.901-9.714 14.97-6.327 36.486-16.842 50.442-35.044 17.444-22.745 27.544-51.439 36.394-78.88 5.196-16.114 8.939-29.592 11.443-41.205 6.347-29.435 5.56-55.324 4.65-85.3l-.143-4.735c-.295-9.911-1.39-21.477-2.421-31.485C7.723-338.53-.841-384.487-9.123-428.93c-1.774-9.523-3.548-19.041-5.286-28.559l-.081-.446c-1.214-6.647-2.361-12.927-3.291-19.032l-.079-.516c-5.374-35.306-12.734-83.658 16.713-112.095l.894 1.163c-28.821 27.831-21.539 75.673-16.221 110.605l.079.515c.926 6.082 2.07 12.349 3.282 18.985l.082.445c1.737 9.516 3.51 19.032 5.284 28.553C.542-384.835 9.111-338.844 13.85-292.871c1.035 10.039 2.133 21.645 2.43 31.61l.142 4.735c.914 30.091 1.704 56.077-4.688 85.722C9.218-159.133 5.459-145.599.245-129.43c-8.896 27.585-19.055 56.437-36.662 79.396-14.18 18.492-35.924 29.127-51.046 35.519-7.572 3.2-17.987 6.243-30.049 9.764-34.81 10.169-82.484 24.093-95.253 53.901-5.118 11.945-4.255 25.813 2.565 41.218 23.254 52.556 67.756 98.032 107.016 138.165 7.16 7.32 13.925 14.235 20.582 21.197 10.367 10.84 21.826 21.814 33.958 33.433 39.606 37.932 84.493 80.917 101.89 131.596 26.028 75.829-10.337 136.365-48.837 200.454-5.496 9.149-11.18 18.609-16.617 28.034z"/><path d="M-22.756 649.515c18.293-34.16 35.207-65.002 56.995-96.56 30.616-44.342 37.486-83.516 22.273-127.022-17.79-50.887-65.041-95.553-106.73-134.969-14.773-13.965-28.726-27.157-41.06-40.201-5.799-6.134-11.75-12.334-17.777-18.617-40.09-41.778-85.529-89.165-110.764-143.632-8.143-17.589-9.487-33.343-3.995-46.826 12.363-30.357 56.014-44.249 91.088-55.412 10.273-3.27 19.976-6.357 27.455-9.468 17.359-7.22 39.34-17.792 55.37-35.612 22.027-24.488 35.2-55.301 44.215-79.409 5.647-15.104 9.865-29.463 12.195-41.525 5.934-30.713 4.275-56.06-5.919-90.402-2.163-7.291-2.703-16.117-3.274-25.46-.148-2.43-.3-4.911-.483-7.431-2.895-39.813-8.95-79.795-14.807-118.459-2.293-15.139-4.663-30.791-6.809-46.205-.965-6.925-1.744-12.666-2.268-18.237-3.518-37.362-2.867-75.578 25.472-102.012l.872 1.183c-27.807 25.939-28.424 63.678-24.948 100.597.521 5.535 1.298 11.257 2.26 18.161 2.144 15.403 4.514 31.051 6.806 46.185 5.861 38.696 11.921 78.711 14.821 118.591.185 2.526.336 5.013.485 7.45.565 9.245 1.099 17.976 3.21 25.086 10.277 34.627 11.947 60.202 5.953 91.217-2.348 12.155-6.592 26.613-12.273 41.807-9.068 24.249-22.326 55.25-44.54 79.946-16.232 18.047-38.4 28.715-55.9 35.993-7.532 3.132-17.263 6.23-27.564 9.508-34.78 11.07-78.065 24.845-90.143 54.5-5.303 13.02-3.965 28.317 3.975 45.466 25.117 54.244 70.48 101.538 110.493 143.233 6.031 6.286 11.983 12.489 17.785 18.624 12.305 13.017 26.245 26.195 41.004 40.148 41.807 39.524 89.19 84.324 107.107 135.556 15.41 44.073 8.475 83.725-22.486 128.568C13.6 585.36-3.29 616.158-21.559 650.271z"/><path d="M-32.13 656.601c1.422-2.898 2.825-5.771 4.218-8.619 15.277-31.275 29.708-60.815 52.379-88.717 28.83-35.481 52.836-75.072 33.459-124.094-20.037-50.684-66.12-94.95-110.683-137.748-17.16-16.483-33.37-32.051-47.883-47.754a4896 4896 0 0 0-13.609-14.643c-40.46-43.43-86.305-92.651-112.673-148.942-8.949-19.117-10.626-36.113-4.982-50.516 11.83-30.184 53.449-44.663 86.891-56.298 8.983-3.126 17.468-6.078 24.669-9.078 25.326-10.554 44.239-22.105 59.52-36.355 25.62-23.89 41.625-56.671 50.542-79.965 6.59-17.217 10.459-30.521 12.175-41.868 5.254-34.749-3.263-62.352-13.125-94.314-.779-2.522-1.643-4.96-2.558-7.542-2.678-7.552-5.446-15.361-5.836-25.095-1.38-34.402-5.403-69.048-9.294-102.555-2.318-19.962-4.715-40.604-6.526-60.96-.557-6.259-1.026-11.854-1.132-16.939-.86-41.29 9.823-69.285 34.638-90.771l.83 1.222c-24.407 21.132-34.912 48.717-34.064 89.441.105 5.032.572 10.595 1.126 16.822 1.808 20.334 4.204 40.964 6.52 60.915 3.896 33.537 7.923 68.217 9.305 102.685.38 9.477 3.105 17.166 5.742 24.602.88 2.484 1.79 5.052 2.579 7.605C.02-250.72 8.59-222.946 3.276-187.804c-1.734 11.476-5.634 24.897-12.27 42.236-8.98 23.46-25.112 56.486-50.959 80.588-15.414 14.375-34.465 26.016-59.953 36.636-7.24 3.018-15.743 5.977-24.746 9.108-33.153 11.534-74.413 25.89-85.969 55.377-5.463 13.94-3.797 30.483 4.951 49.169 26.235 56.045 72.031 105.21 112.418 148.561 4.592 4.928 9.138 9.809 13.612 14.649 14.486 15.673 30.68 31.226 47.826 47.693 44.675 42.906 90.873 87.271 111.028 138.27 8.653 21.891 9.383 43.28 2.231 65.389-5.925 18.319-17.351 37.515-35.957 60.415-22.551 27.755-36.94 57.21-52.176 88.394a5326 5326 0 0 1-4.218 8.623z"/><path d="M-41.5 663.693c16.279-36.17 30.337-67.408 55.665-98.099 31.581-38.273 61.41-74.422 39.804-123.631-22.474-51.183-68.163-96.038-112.356-139.44-19.223-18.88-37.38-36.712-53.655-54.967l-7.571-8.478c-40.548-45.377-86.506-96.805-113.263-155.244-9.385-20.495-11.142-38.654-5.224-53.972 11.959-30.951 53.439-46.343 86.769-58.71 6.412-2.379 12.468-4.626 18.136-6.9 25.762-10.33 46.903-22.847 62.837-37.199 23.337-21.021 43.006-49.666 55.384-80.657 4.488-11.239 10.097-27.689 11.327-42.233 2.528-29.912-6.103-56.362-15.24-84.367-1.608-4.928-3.27-10.023-4.87-15.135-1.849-5.914-3.67-12.273-5.433-18.424-1.512-5.276-3.075-10.732-4.666-15.951-5.093-16.702-5.558-37.33-6.007-57.279-.21-9.278-.407-18.04-1.045-26.348-.547-7.089-1.15-14.178-1.753-21.268-1.537-18.059-3.126-36.732-3.688-55.15-.186-6.085-.078-11.802.02-15.573.812-31.373 14.796-56.517 44.01-79.128l.763 1.275c-28.791 22.285-42.572 47.015-43.37 77.827-.096 3.749-.204 9.433-.02 15.475.561 18.369 2.148 37.02 3.683 55.056.604 7.094 1.208 14.188 1.754 21.281.642 8.354.84 17.14 1.05 26.442.447 19.833.908 40.341 5.935 56.824 1.595 5.233 3.16 10.696 4.674 15.977 1.76 6.142 3.578 12.492 5.422 18.386 1.596 5.103 3.256 10.194 4.863 15.116C-8.374-252.63.309-226.022-2.25-195.76c-1.248 14.76-6.914 31.389-11.447 42.738-12.472 31.228-32.293 60.093-55.812 81.277-16.063 14.47-37.349 27.077-63.268 37.47-5.684 2.28-11.748 4.53-18.168 6.912C-183.991-15.1-225.12.162-236.813 30.425c-5.824 15.073-4.124 32.293 5.194 52.644 26.657 58.27 72.544 109.576 113.023 154.874l7.572 8.48c16.244 18.221 34.386 36.038 53.59 54.9 44.292 43.499 90.09 88.475 112.668 139.897 22.028 50.167-8.13 86.713-40.057 125.407-25.185 30.52-39.2 61.66-55.428 97.717z"/><path d="M-50.864 670.79c14.427-35.248 28.484-66.996 54.467-98.617l1.34-1.63c33.42-40.654 62.284-75.765 39.25-124.345-24.008-50.716-67.53-94.744-109.603-137.37-20.672-20.943-42.047-42.601-60.39-64.423a5809 5809 0 0 0-10.867-12.873c-37.403-44.211-79.786-94.32-101.107-149.767-8.537-22.21-9.519-40.866-3-57.037 12.513-31.043 50.502-46.637 87.24-61.716 3.215-1.32 6.416-2.633 9.584-3.952 27.191-11.314 48.582-23.8 65.395-38.176 26.046-22.269 46.872-51.195 58.644-81.451 5.415-13.919 9.012-29.892 9.623-42.725 1.284-26.953-8.555-54.562-18.069-81.263-3.022-8.483-5.877-16.494-8.332-24.367-1.993-6.392-3.952-13.22-5.847-19.823-1.604-5.593-3.263-11.376-4.943-16.9-12.351-40.584-12.087-98.905-9.96-155.884.163-4.379.545-9.035 1.17-14.234 4.155-34.643 31.493-52.719 53.459-67.244l.672 1.342c-21.688 14.341-48.68 32.188-52.741 66.038-.617 5.151-.996 9.76-1.158 14.089-2.12 56.829-2.39 114.979 9.889 155.326 1.684 5.536 3.345 11.325 4.951 16.924 1.892 6.595 3.848 13.415 5.836 19.787 2.446 7.843 5.295 15.84 8.312 24.306 9.568 26.853 19.463 54.621 18.164 81.913-.62 13.014-4.262 29.195-9.743 43.284-11.871 30.512-32.862 59.673-59.107 82.112-16.932 14.477-38.449 27.042-65.78 38.414-3.17 1.32-6.373 2.634-9.59 3.954-36.448 14.962-74.138 30.432-86.393 60.835-6.345 15.74-5.357 33.982 3.02 55.773 21.215 55.216 63.527 105.215 100.852 149.335 3.665 4.331 7.295 8.623 10.871 12.877 18.307 21.779 39.663 43.416 60.316 64.34 42.156 42.711 85.783 86.918 109.88 137.77 23.496 49.553-7.096 86.766-39.484 126.164l-1.338 1.629c-25.836 31.44-39.837 63.067-54.21 98.182z"/><path d="M-60.239 677.879c14.16-38.24 27.956-68.117 52.94-98.875 32.64-40.185 63.472-78.142 35.014-131.531-25.798-48.402-65.37-90.795-103.638-131.792-22.663-24.279-46.097-49.384-66.32-75.388-36.166-46.503-76.265-101.906-99.462-160.205-8.443-21.218-9.489-40.357-3.11-56.883 13.148-34.063 55.837-52.689 90.138-67.654l1.885-.823c28.218-12.319 50.189-25.155 67.168-39.24 28.246-23.435 49.655-52.691 60.282-82.38 5.078-14.186 7.767-30.774 7.017-43.289-1.636-27.316-11.558-55.117-21.153-82.003-3.775-10.581-7.342-20.574-10.4-30.474-3.266-10.576-7.509-24.552-11.358-38.879-14.521-54.055-12.114-112.504-7.538-152.019.522-4.515 1.42-8.852 2.294-12.908 5.726-26.567 32.47-40.024 53.96-50.838 3.136-1.578 6.097-3.068 8.895-4.548l.55 1.414c-2.81 1.487-5.778 2.98-8.92 4.561-21.192 10.663-47.566 23.935-53.12 49.711-.866 4.012-1.753 8.301-2.267 12.737-4.559 39.364-6.96 97.578 7.492 151.373 3.842 14.301 8.08 28.259 11.341 38.821 3.047 9.865 6.608 19.843 10.378 30.407 9.634 26.995 19.595 54.909 21.246 82.466.763 12.737-1.964 29.593-7.117 43.991-10.729 29.972-32.315 59.484-60.782 83.102-17.087 14.176-39.171 27.082-67.512 39.454l-1.886.823c-34.043 14.853-76.409 33.337-89.309 66.758-6.302 16.328-5.284 34.524 3.112 55.625 23.135 58.122 63.152 113.415 99.252 159.837 20.184 25.953 43.597 51.036 66.238 75.291 38.333 41.064 77.97 83.528 103.86 132.101 28.977 54.336-2.199 92.765-35.211 133.407-24.838 30.579-38.566 60.318-52.666 98.391z"/><path d="M-69.638 684.95c11.78-35.761 25.003-66.272 51.247-98.933 36.575-45.521 59.963-82.05 27.27-137.635-25.38-43.193-59.956-81.902-93.396-119.336-26.613-29.792-54.13-60.598-77.128-93.712-38.449-55.362-66.458-108.042-83.255-156.565-7.712-22.28-8.079-41.56-1.122-58.945 13.021-32.539 49.672-51.672 86.096-68.482 20.187-9.316 46.177-22.324 68.155-40.367 21.165-17.374 48.8-45.958 60.254-83.465 3.645-11.935 6.133-30.169 3.473-43.998-5.482-28.505-14.896-57.179-23.999-84.909-3.75-11.421-7.626-23.232-11.14-34.776-3.677-12.081-7.957-26.377-11.824-40.81-13.292-49.604-15.15-100.997-5.372-148.623.83-4.05 1.97-7.98 3.386-11.681 8.956-23.407 33.993-31.335 56.082-38.33 5.731-1.814 11.143-3.527 15.952-5.424l.41 1.48c-4.852 1.913-10.286 3.634-16.04 5.456-21.769 6.892-46.443 14.705-55.117 37.377a73 73 0 0 0-3.305 11.404c-9.723 47.36-7.872 98.477 5.35 147.825 3.862 14.41 8.138 28.689 11.81 40.758 3.509 11.527 7.383 23.328 11.13 34.741 9.118 27.78 18.548 56.505 24.05 85.113 2.39 12.419 1.007 30.02-3.52 44.842-11.58 37.916-39.446 66.756-60.784 84.273-22.11 18.15-48.205 31.211-68.469 40.563-36.146 16.68-72.506 35.643-85.301 67.618-6.794 16.974-6.414 35.858 1.157 57.732 16.75 48.391 44.698 100.942 83.066 156.192 22.949 33.043 50.438 63.816 77.021 93.576 33.486 37.486 68.112 76.249 93.567 119.566 33.203 56.494 9.581 93.497-27.434 139.563-26.084 32.463-39.235 62.811-50.956 98.392z"/><path d="M-79.044 692.01c11.926-41.326 25.764-69.03 49.354-98.81a817 817 0 0 1 6.964-8.629c12.347-15.165 25.115-30.846 31.36-50.166 10.41-32.21-2.317-57.215-18.71-84.259-24.636-40.632-57.068-77.367-88.432-112.892-29.89-33.856-60.797-68.864-84.871-107.161-30.923-49.188-50.796-107.465-64.661-152.741-9.819-32.07-5.252-58.73 13.963-81.505 16.879-20.007 42.98-34.441 68.671-47.06 22.081-10.847 47.471-24.265 68.36-41.546 21.959-18.166 49.936-47.616 58.525-84.756 3.071-13.28 2.68-31.739-.95-44.89-10.232-37.058-22.274-78.593-36.813-126.979-3.817-12.702-8.254-27.692-12.223-42.562-15.289-57.275-16.407-103.604-3.518-145.798 1.181-3.868 2.666-7.414 4.411-10.538 11.662-20.868 39.738-25.47 62.297-29.168 6.755-1.107 13.135-2.154 18.573-3.526l.246 1.533c-5.49 1.386-11.898 2.436-18.68 3.548-22.26 3.648-49.961 8.19-61.255 28.401-1.662 2.973-3.137 6.498-4.267 10.194-12.788 41.864-11.663 87.888 3.54 144.839 3.962 14.848 8.395 29.823 12.208 42.513 14.543 48.397 26.588 89.944 36.824 127.015 3.698 13.397 4.095 32.208.965 45.743-8.698 37.612-36.93 67.353-59.084 85.68-21.008 17.379-46.491 30.848-68.647 41.731-25.547 12.548-51.489 26.888-68.185 46.676-18.806 22.29-23.265 48.42-13.632 79.882 13.835 45.183 33.667 103.335 64.492 152.37 24.01 38.198 54.878 73.161 84.73 106.974 31.408 35.571 63.883 72.355 88.586 113.1 16.605 27.393 29.49 52.747 18.855 85.652-6.346 19.633-19.216 35.438-31.663 50.725a824 824 0 0 0-6.949 8.611c-23.44 29.59-37.193 57.129-49.052 98.218z"/><path d="M-88.453 699.061c9.897-39.892 23.16-67.523 47.304-98.552a944 944 0 0 1 5.52-7.005c12.519-15.789 25.463-32.116 30.84-52.512 8.992-34.09-7.496-61.325-23.446-87.666l-.135-.223c-25.316-41.81-57.777-80.099-89.172-117.129-28.853-34.033-58.689-69.225-82.937-107.094-24.297-37.96-34.043-80.132-44.358-124.784-2.151-9.312-4.374-18.94-6.73-28.478-17.215-69.724 33.397-102.95 82.187-128.621 23.159-12.185 47.47-25.523 67.784-42.767 22.358-18.977 50.06-49.353 55.06-86.291 1.999-14.759-1.556-33.319-4.89-46.29-11.704-45.525-25.556-93.17-37.563-133.773-3.963-13.396-8.528-28.961-12.577-44.145-11.567-43.373-22.217-93.815-2.025-143.601 1.427-3.515 3.275-6.812 5.348-9.534 14.706-19.317 45.418-20.454 70.095-21.368 6.952-.257 13.519-.5 19.109-1.124l.072 1.564c-5.636.629-12.225.873-19.201 1.131-24.391.903-54.746 2.027-69.026 20.783-1.981 2.604-3.753 5.765-5.122 9.141-19.987 49.279-9.398 99.391 2.097 142.493 4.043 15.165 8.606 30.716 12.564 44.103 12.012 40.617 25.87 88.279 37.58 133.83 3.37 13.118 6.963 31.913 4.926 46.952-5.074 37.486-33.055 68.201-55.634 87.366-20.43 17.341-44.82 30.725-68.051 42.947-48.244 25.383-98.297 58.202-81.379 126.72 2.358 9.549 4.584 19.183 6.736 28.5 10.282 44.517 19.994 86.563 44.152 124.29 24.195 37.789 53.999 72.943 82.823 106.94 31.43 37.071 63.93 75.404 89.305 117.315l.135.223c16.124 26.629 32.798 54.166 23.619 88.967-5.473 20.75-18.53 37.22-31.157 53.147a977 977 0 0 0-5.51 6.992c-23.984 30.824-37.159 58.274-46.992 97.903z"/><path d="M-97.862 706.1c8.023-38.537 20.68-66.067 45.14-98.189 1.303-1.712 2.62-3.422 3.937-5.134 12.664-16.465 25.759-33.491 30.113-55.049 6.697-33.156-10.312-62.219-25.32-87.855l-1.413-2.418c-25.462-43.58-57.976-83.829-89.419-122.755-26.575-32.899-54.053-66.917-77.144-102.785-16.846-26.159-34.261-53.209-36.708-89.967l-.144-2.147c-1.517-22.803-2.95-44.341-6.934-66.323-12.144-67.02 34.71-99.783 83.742-127.595 21.844-12.39 46.601-26.434 66.426-44.02 33.189-29.445 49.953-59.085 49.829-88.097-.065-15.052-3.516-30.415-6.853-45.273l-.676-3.013c-9.666-43.251-22.263-86.381-34.445-128.092l-3.397-11.64c-4.324-14.835-8.795-30.175-12.906-45.574-11.832-44.321-25.244-94.555-.894-142.062 1.657-3.235 3.783-6.243 6.145-8.698 18.417-19.151 52.068-16.595 79.107-14.542 6.398.486 12.44.945 17.777 1.074l-.097 1.572c-5.369-.13-11.427-.59-17.841-1.077-26.763-2.033-60.07-4.563-78.017 14.101-2.253 2.341-4.28 5.212-5.864 8.302-24.041 46.903-10.721 96.795 1.031 140.813 4.106 15.382 8.575 30.713 12.896 45.538l3.397 11.641c12.19 41.736 24.793 84.892 34.472 128.194l.675 3.012c3.357 14.946 6.828 30.401 6.894 45.641.127 29.539-16.828 59.615-50.394 89.393-19.943 17.692-44.772 31.776-66.678 44.202-48.522 27.523-94.896 59.91-82.953 125.817 4.002 22.076 5.438 43.661 6.959 66.514l.143 2.148c2.42 36.329 19.727 63.209 36.459 89.2 23.05 35.801 50.504 69.788 77.055 102.658 31.476 38.967 64.024 79.261 89.544 122.936l1.413 2.416c15.153 25.891 32.329 55.236 25.504 89.037-4.436 21.959-17.655 39.145-30.44 55.765a1325 1325 0 0 0-3.93 5.127c-24.291 31.899-36.859 59.233-44.825 97.49z"/><path d="M-107.263 713.133c6.38-37.724 18.01-64.225 42.911-97.777l2.134-2.867c12.843-17.25 26.124-35.088 29.296-57.966 4.445-32.038-11.668-61.569-25.88-87.627l-1.965-3.608c-25.374-46.677-58.383-89.918-90.305-131.734-22.8-29.867-46.375-60.752-66.921-92.578-2.195-3.401-4.544-6.931-6.972-10.578-16.652-25.023-37.377-56.169-36.233-88.18.191-5.324.448-10.598.696-15.699.883-18.151 1.717-35.297-.311-53.654-7.426-67.189 40.436-96.66 86.72-125.16l5.118-3.147c20.774-12.76 42.255-25.956 59.782-42.534 22.106-20.909 47.477-53.544 42.805-90.276-1.959-15.398-4.704-31.906-8.396-50.467-9.008-45.296-22.069-90.545-34.7-134.305l-4.577-15.868c-3.935-13.644-8.003-27.75-11.722-41.629l-.877-3.271c-11.927-44.431-25.445-94.792.772-137.882 1.934-3.178 4.346-6.059 6.791-8.109 23.388-19.616 63.331-12.782 92.496-7.793 3.932.673 7.698 1.317 11.237 1.869l-.259 1.557c-3.544-.552-7.316-1.197-11.255-1.871-28.916-4.946-68.518-11.722-91.413 7.48-2.315 1.942-4.606 4.68-6.449 7.709-25.827 42.448-12.411 92.427-.574 136.522l.877 3.272c3.715 13.863 7.782 27.963 11.714 41.598l4.577 15.869c12.64 43.792 25.712 89.076 34.734 134.441 3.698 18.6 6.45 35.145 8.415 50.584 4.764 37.461-20.928 70.571-43.32 91.75-17.642 16.687-39.19 29.924-60.029 42.725l-5.116 3.145C-221.423-23.393-266.724 4.501-259.419 70.6c2.043 18.494 1.205 35.706.319 53.929-.247 5.096-.505 10.364-.694 15.677-1.128 31.471 19.443 62.38 35.969 87.214 2.431 3.655 4.785 7.19 6.983 10.596 20.515 31.778 44.073 62.64 66.857 92.484 31.955 41.861 64.998 85.147 90.426 131.927l1.964 3.604c14.336 26.277 30.582 56.06 26.061 88.661-3.235 23.327-16.65 41.345-29.624 58.77l-2.13 2.866c-24.722 33.309-36.268 59.606-42.596 97.028z"/><path d="M-116.646 720.169c5.468-42.122 19.064-67.622 40.702-97.433 38.217-52.657 30.568-92.561 1.73-152.172a387 387 0 0 0-1.014-2.086c-24.856-50.77-58.76-98.018-91.564-143.731-17.545-24.451-35.687-49.734-52.056-75.053-2.884-4.46-6.015-9.113-9.33-14.039-18.305-27.206-41.088-61.062-42.904-94.783-.659-12.231.725-25.097 2.065-37.539 1.268-11.783 2.58-23.968 2.16-35.615-2.199-60.959 35.942-85.607 76.322-111.702 5.441-3.516 11.067-7.152 16.6-10.88 2.574-1.735 5.177-3.473 7.796-5.222 18.742-12.515 38.122-25.457 53.568-41.391 26.828-27.674 39.495-61.46 34.753-92.693-.904-5.959-1.744-12.047-2.633-18.492-1.566-11.345-3.184-23.078-5.201-34.202-9.133-50.391-23.462-100.54-37.318-149.038l-3.099-10.816c-3.542-12.338-7.203-25.096-10.583-37.634a1486 1486 0 0 0-2.562-9.337c-11.343-41.02-26.877-97.199 4.053-131.044 2.374-2.599 5.286-5.034 8.419-7.042 30.78-19.73 71.534-11.085 107.318-1.431l-.39 1.53c-35.521-9.583-75.957-18.179-106.275 1.256-3.024 1.939-5.83 4.285-8.116 6.786-30.287 33.141-14.901 88.785-3.666 129.415.894 3.229 1.757 6.352 2.564 9.347 3.377 12.525 7.037 25.277 10.576 37.608l3.1 10.818c13.868 48.537 28.208 98.726 37.356 149.198 2.023 11.16 3.644 22.91 5.212 34.274.888 6.439 1.727 12.521 2.63 18.468 4.825 31.78-8.01 66.101-35.214 94.163-15.561 16.053-35.009 29.04-53.817 41.599-2.616 1.748-5.218 3.484-7.79 5.218-5.545 3.736-11.177 7.375-16.623 10.895-39.979 25.836-77.739 50.238-75.577 110.21.425 11.775-.893 24.024-2.169 35.868-1.332 12.373-2.709 25.166-2.058 37.256 1.794 33.266 24.44 66.922 42.639 93.969 3.319 4.931 6.453 9.589 9.344 14.062 16.351 25.289 34.481 50.557 52.018 74.992 32.836 45.761 66.78 93.064 91.69 143.944.342.699.68 1.394 1.019 2.095 11.862 24.523 23.014 50.839 24.268 77.126 1.246 26.081-7.07 50.486-26.17 76.802-21.473 29.585-34.964 54.881-40.384 96.629z"/><path d="M-126.009 727.205c3.836-40.966 16.493-65.724 38.507-97.082 36.703-52.286 23.893-95.559 1.788-150.984-23.068-57.827-59.025-110.839-93.802-162.108-11.866-17.493-24.135-35.581-35.548-53.388a2724 2724 0 0 0-7.538-11.675c-21.513-33.199-43.759-67.529-53.562-107.134-4.63-18.691-2.396-37.326-.236-55.347.992-8.289 2.02-16.86 2.393-25.419 2.48-56.972 35.255-77.448 73.204-101.158 8.909-5.565 18.12-11.32 27.184-17.737l.517-.365c20.254-14.338 41.198-29.164 57.127-47.57 23.533-27.194 31.423-54.861 27.232-95.499-1.683-16.332-3.833-35.583-7.006-54.534-8.827-52.693-23.106-104.678-36.975-153.408a5696 5696 0 0 0-4.154-14.5c-3.252-11.316-6.614-23.017-9.739-34.508a1299 1299 0 0 0-2.981-10.709c-11.349-40.337-26.892-95.581 7.335-127.628 2.565-2.403 5.636-4.642 8.879-6.48 32.311-18.31 79.418-14.207 109.252-.692l-.58 1.463c-29.543-13.385-76.158-17.467-108.087.626-3.143 1.78-6.115 3.949-8.594 6.27-33.47 31.339-18.092 85.995-6.863 125.904 1.04 3.699 2.048 7.283 2.984 10.723 3.122 11.48 6.482 23.175 9.733 34.484 1.391 4.84 2.781 9.677 4.155 14.505 13.882 48.775 28.174 100.811 37.015 153.59 3.182 18.996 5.335 38.281 7.022 54.64 4.245 41.175-3.763 69.226-27.643 96.82-16.054 18.55-37.075 33.431-57.404 47.821l-.516.366c-9.099 6.441-18.329 12.207-27.255 17.784-37.56 23.466-69.998 43.732-72.441 99.794-.375 8.625-1.406 17.23-2.403 25.553-2.24 18.687-4.355 36.336.198 54.724 9.743 39.349 31.918 73.564 53.358 106.658a2829 2829 0 0 1 7.544 11.681c11.401 17.79 23.666 35.87 35.526 53.356 34.82 51.335 70.829 104.42 93.954 162.4 21.586 54.119 35.145 99.722-1.988 152.616-21.84 31.113-34.397 55.664-38.196 96.236z"/><path d="M-135.361 734.23c2.4-39.86 14.151-63.881 36.43-96.826 32.393-47.902 19.85-91.62 5.326-142.24l-1.832-6.4c-18.153-63.639-55.003-120.449-90.64-175.393-7.053-10.873-14.347-22.119-21.271-33.089l-1.21-1.918c-25.176-39.885-51.209-81.123-68.922-126.909-12.184-31.495-9.686-51.86-5.904-82.69.347-2.828.705-5.741 1.062-8.758 6.473-54.636 40.98-74.306 77.514-95.131 10.662-6.078 21.687-12.363 32.018-19.594 20.67-14.472 40.034-32.432 53.124-49.276 23.044-29.655 23.057-60.776 20.677-98.38-1.15-18.182-3.165-37.026-5.987-56.006-7.445-50.066-19.954-98.869-36.447-156.744-1.701-5.972-3.431-11.959-5.162-17.95-3.027-10.48-6.158-21.317-9.091-31.928-.938-3.393-1.947-6.922-2.988-10.556-11.453-40.043-27.141-94.882 9.858-125.198 2.729-2.236 5.946-4.338 9.301-6.079 31.033-16.106 78.31-17.509 109.97-3.262l-.576 1.464c-31.345-14.104-78.143-12.721-108.857 3.22-3.267 1.695-6.396 3.74-9.046 5.911-36.139 29.611-20.633 83.818-9.31 123.397 1.041 3.641 2.051 7.173 2.991 10.571 2.931 10.602 6.06 21.434 9.086 31.909a5273 5273 0 0 1 5.164 17.956c16.51 57.938 29.034 106.801 36.492 156.957 2.83 19.028 4.85 37.92 6.003 56.151 2.403 37.981 2.38 69.431-21.039 99.566-13.184 16.965-32.671 35.044-53.462 49.6-10.386 7.27-21.441 13.571-32.132 19.665-36.172 20.62-70.338 40.095-76.709 93.868a2171 2171 0 0 1-1.062 8.766c-3.751 30.569-6.228 50.762 5.804 81.866 17.66 45.641 43.652 86.821 68.789 126.644l1.21 1.917c6.919 10.964 14.21 22.204 21.261 33.075 35.7 55.041 72.612 111.955 90.83 175.813l1.832 6.398c14.645 51.04 27.29 95.118-5.56 143.7-22.103 32.681-33.759 56.492-36.133 95.943z"/><path d="M-144.72 741.258c.769-41.717 14.948-64.747 34.571-96.621 24.428-39.677 18.228-75.404 11.049-116.773-1.613-9.303-3.283-18.923-4.617-28.803-8.939-66.228-45.042-123.766-79.957-179.415-4.368-6.962-8.694-13.856-12.912-20.687-6.698-10.846-14.136-22.115-22.012-34.044-39.693-60.137-89.098-134.974-73.198-209.294 5.577-26.07 12.425-50.935 34.657-68.597 14.051-11.162 31.601-18.573 48.572-25.74 12.724-5.373 24.744-10.448 34.894-16.855 16.918-10.678 34.119-27.896 49.742-49.792 18.621-26.098 17.129-61.577 15.815-92.879-.115-2.74-.229-5.455-.329-8.135-.695-18.65-2.317-37.876-4.819-57.143-7.155-55.093-21.508-109.236-35.953-159.539-1.919-6.685-3.88-13.39-5.842-20.099-2.929-10.014-5.958-20.37-8.798-30.507-.887-3.169-1.835-6.45-2.808-9.821-11.491-39.799-27.227-94.303 11.796-123.042 2.919-2.15 6.18-4.112 9.692-5.833 33.65-16.486 79.116-19.222 110.565-6.653l-.528 1.485c-30.651-12.248-76.714-9.471-109.529 6.606-3.435 1.684-6.621 3.6-9.471 5.698-38.08 28.045-22.536 81.88-11.187 121.189.974 3.376 1.923 6.66 2.811 9.833 2.838 10.129 5.865 20.48 8.793 30.49a4225 4225 0 0 1 5.845 20.106c14.462 50.366 28.834 104.582 36.003 159.786 2.509 19.32 4.135 38.598 4.832 57.302.1 2.678.214 5.389.329 8.126 1.327 31.587 2.832 67.389-16.137 93.975-15.743 22.065-33.095 39.427-50.18 50.21-10.249 6.469-22.319 11.566-35.098 16.962-16.884 7.13-34.343 14.501-48.237 25.539-21.806 17.323-28.557 41.873-34.067 67.624-15.747 73.609 33.449 148.138 72.978 208.021 7.881 11.94 15.326 23.217 22.035 34.083 4.217 6.828 8.54 13.718 12.907 20.678 35.004 55.786 71.196 113.472 80.185 180.051 1.329 9.85 2.995 19.453 4.606 28.74 6.938 39.985 13.491 77.751-11.286 117.995-19.477 31.638-33.549 54.496-34.309 95.728z"/><path d="M-154.066 748.307c-.725-39.441 12.304-61.598 30.335-92.266l2.638-4.489c18.5-31.555 15.449-60.465 12.219-91.072-1.711-16.207-3.48-32.963-2.192-50.956 4.558-63.728-31.086-122.167-62.528-173.727-3.494-5.728-6.928-11.359-10.239-16.889-8.695-14.519-17.728-29.218-26.464-43.434-20.622-33.56-41.947-68.261-60.848-103.847-.956-1.802-1.935-3.632-2.929-5.492-17.863-33.434-40.096-75.03-28.289-115.044 9.021-30.57 17.176-53.46 40.089-69.664 14.923-10.554 32.949-17.216 50.381-23.659 13.013-4.809 25.305-9.352 36.12-15.327 19.124-10.566 34.821-27.202 46.657-49.448 13.57-25.504 12.856-61.82 12.282-90.999a1199 1199 0 0 1-.2-12.19c-.166-17.261-1.326-36.219-3.547-57.958-5.769-56.46-20.735-110.9-35.571-161.822a3630 3630 0 0 0-6.097-20.632c-2.987-10.034-6.076-20.409-8.954-30.555-.83-2.928-1.716-5.964-2.627-9.087-11.559-39.618-27.388-93.877 13.319-120.8 3.373-2.231 6.753-4.157 10.047-5.726 29.677-14.136 75.581-22.827 111.233-10.375l-.477 1.506c-35.316-12.334-80.826-3.707-110.263 10.314-3.234 1.541-6.555 3.434-9.872 5.628-39.682 26.245-24.058 79.796-12.652 118.898.913 3.127 1.8 6.167 2.631 9.098 2.876 10.137 5.963 20.507 8.948 30.536a3692 3692 0 0 1 6.101 20.641c14.856 50.995 29.845 105.519 35.629 162.121 2.225 21.792 3.388 40.803 3.555 58.119.037 3.907.117 7.98.199 12.172.579 29.386 1.298 65.958-12.489 91.869-11.986 22.53-27.895 39.385-47.283 50.096-10.908 6.027-23.247 10.588-36.312 15.416-17.347 6.411-35.285 13.04-50.053 23.485-22.489 15.905-30.541 38.535-39.463 68.77-11.604 39.327 10.451 80.597 28.171 113.759q1.493 2.791 2.931 5.496c18.878 35.545 40.19 70.227 60.8 103.765 8.739 14.219 17.774 28.923 26.473 43.45 3.31 5.526 6.742 11.153 10.233 16.878 31.57 51.764 67.353 110.437 62.755 174.707-1.275 17.839.486 34.516 2.188 50.646 3.262 30.905 6.342 60.097-12.451 92.153l-2.639 4.492c-18.551 31.552-30.808 52.395-30.093 91.334z"/><path d="M-163.402 755.377c-2.054-37.559 9.686-58.209 25.936-86.79 1.861-3.273 3.783-6.653 5.753-10.178 12.369-22.141 18.058-39.434 12.718-67.374l-.144-.757c-5.067-26.499-8.413-44.004.969-70.717 20.417-58.119-17.459-121.831-45.114-168.346-2.438-4.102-4.809-8.088-7.069-11.948-13.954-23.839-29.103-47.856-43.754-71.082-17.206-27.274-34.997-55.479-51.252-83.993-2.442-4.283-5.235-8.998-8.192-13.99-20.264-34.206-50.891-85.898-40.376-123.58 7.578-27.152 18.338-54.601 45.525-71.445 15.426-9.557 33.231-15.382 50.45-21.016 13.859-4.534 26.949-8.816 38.74-14.86 22.471-11.516 35.544-26.027 43.713-48.519 9.696-26.696 10.195-63.371 10.596-92.839.055-4.024.108-7.942.182-11.718.34-17.407-.385-36.531-2.214-58.463-4.763-57.109-20.086-112.152-35.373-163.635-2.001-6.74-4.066-13.509-6.132-20.281-3.14-10.298-6.389-20.945-9.354-31.328-.705-2.467-1.444-5.007-2.2-7.605-11.468-39.397-27.173-93.351 14.174-119.41 3.533-2.227 7.028-4.166 10.385-5.762 28.504-13.556 74.938-25.444 111.992-14.335l-.424 1.524c-36.714-11.007-82.782.801-111.077 14.257-3.307 1.573-6.751 3.484-10.237 5.681-40.286 25.391-24.791 78.622-13.477 117.489.757 2.602 1.497 5.143 2.203 7.614 2.96 10.368 6.206 21.01 9.346 31.3 2.066 6.776 4.133 13.55 6.136 20.293 15.311 51.567 30.659 106.704 35.436 163.975 1.834 21.993 2.56 41.175 2.22 58.644-.074 3.771-.127 7.686-.182 11.707-.403 29.603-.905 66.444-10.704 93.424-8.326 22.926-21.628 37.705-44.479 49.417-11.889 6.093-25.028 10.392-38.94 14.943-17.143 5.608-34.868 11.407-50.15 20.875-26.723 16.556-37.333 43.657-44.818 70.476-10.314 36.961 20.096 88.295 40.22 122.261 2.96 4.998 5.756 9.716 8.204 14.011 16.239 28.486 34.02 56.675 51.217 83.937 14.658 23.235 29.814 47.262 43.782 71.123 2.257 3.858 4.626 7.842 7.062 11.939 27.823 46.797 65.924 110.889 45.238 169.78-9.223 26.258-5.911 43.58-.899 69.8l.145.758c5.44 28.466-.342 46.058-12.914 68.562a1477 1477 0 0 1-5.758 10.191c-16.102 28.318-27.734 48.778-25.708 85.815z"/><path d="M-172.729 762.461c-3.285-36.149 7.61-55.507 22.688-82.3 2.511-4.461 5.107-9.073 7.782-14.022 13.6-25.148 16.056-42.936 9.731-70.499l-.101-.437c-5.851-25.494-10.076-43.914 6.721-66.685 37.105-50.306-3.221-119.328-29.912-165.001l-2.681-4.591c-16.773-28.803-35.135-57.51-52.892-85.274-15.771-24.658-32.077-50.154-47.309-75.761-3.668-6.165-7.682-12.677-11.933-19.571-25.606-41.525-57.47-93.207-53.528-134.551 5.407-56.704 53.698-74.94 100.398-92.575 13.303-5.023 27.059-10.218 39.61-16.223 16.962-8.115 36.919-20.812 40.729-47.188l.075-.523c4.987-34.532 10.145-70.24 11.842-104.344.867-17.436.584-36.634-.866-58.69-3.76-57.18-19.56-112.862-35.422-164.993-1.766-5.808-3.597-11.644-5.43-17.488-3.529-11.256-7.179-22.896-10.322-34.213-.877-3.159-1.811-6.413-2.766-9.741-11.438-39.863-25.672-89.473 15.459-114.855 3.676-2.268 7.275-4.261 10.699-5.923 39.82-19.336 82.01-26.23 112.859-18.441l-.373 1.539c-30.571-7.719-72.435-.861-111.985 18.343-3.38 1.642-6.937 3.611-10.572 5.854-40.059 24.721-26.025 73.632-14.749 112.931.957 3.334 1.891 6.592 2.77 9.755 3.135 11.292 6.781 22.918 10.308 34.162 1.833 5.847 3.665 11.689 5.433 17.501 15.89 52.224 31.719 108.013 35.491 165.374 1.455 22.124 1.739 41.388.868 58.893-1.701 34.188-6.865 69.939-11.858 104.511l-.075.523c-3.926 27.18-24.304 40.174-41.619 48.458-12.605 6.03-26.389 11.236-39.718 16.27-46.255 17.467-94.084 35.528-99.39 91.171-3.886 40.773 27.821 92.199 53.3 133.522 4.253 6.9 8.272 13.417 11.945 19.592 15.219 25.586 31.519 51.072 47.283 75.719 17.765 27.776 36.135 56.499 52.925 85.327l2.68 4.59c26.909 46.055 67.576 115.652 29.788 166.878-16.319 22.123-12.167 40.215-6.422 65.255l.1.437c6.436 28.042 3.937 46.142-9.9 71.73-2.683 4.96-5.283 9.58-7.796 14.048-14.921 26.513-25.702 45.669-22.468 81.268z"/><path d="M-182.044 769.559c-4.443-34.935 5.801-53.019 19.981-78.048 2.989-5.276 6.08-10.732 9.266-16.754 14.438-27.287 13.55-46.032 6.6-73.118-5.817-22.674-8.794-41.637 9.736-62.009 15.773-17.339 26.915-31.467 26.61-55.462-.479-38.051-21.422-74.985-38.255-104.662l-1.632-2.88c-19.04-33.612-40.347-66.846-60.951-98.984-13.663-21.31-27.79-43.344-41.157-65.33-4.748-7.811-9.769-15.784-15.083-24.224-28.275-44.894-60.315-95.778-64.67-144.563-5.758-64.523 50.028-82.7 99.248-98.74 15.116-4.925 29.395-9.577 41.61-15.34 24.265-11.446 36.557-26.454 37.579-45.88.905-17.218 4.498-35.922 7.972-54.011 3.169-16.498 6.446-33.557 7.75-49.687 1.405-17.354 1.554-36.542.456-58.658-2.818-56.752-19.217-113.082-35.773-165.915l-2.333-7.436c-4.477-14.249-9.107-28.984-13.259-43.44-.92-3.201-1.888-6.472-2.873-9.796-11.589-39.141-26.013-87.852 15.538-113.569 3.796-2.349 7.493-4.434 10.988-6.198 19.537-9.856 69.739-31.789 113.847-22.592l-.324 1.551c-43.718-9.115-93.589 12.682-113.002 22.476-3.459 1.745-7.12 3.81-10.881 6.138-40.469 25.047-26.848 71.046-14.832 111.63.986 3.329 1.956 6.604 2.876 9.809 4.147 14.437 8.774 29.162 13.247 43.401l2.335 7.437c16.587 52.936 33.019 109.385 35.847 166.337 1.102 22.194.952 41.457-.459 58.89-1.313 16.227-4.599 33.335-7.777 49.881-3.463 18.029-7.044 36.671-7.943 53.767-1.057 20.12-13.648 35.597-38.492 47.316-12.294 5.8-26.612 10.464-41.77 15.404-48.662 15.856-103.815 33.828-98.178 96.99 4.318 48.387 36.255 99.101 64.431 143.846 5.319 8.444 10.343 16.421 15.099 24.244 13.355 21.97 27.478 43.996 41.135 65.298 20.616 32.156 41.933 65.406 60.993 99.054l1.633 2.881c16.921 29.831 37.979 66.966 38.465 105.454.31 24.643-11.019 39.03-27.059 56.663-17.947 19.73-15.025 38.247-9.34 60.404 7.061 27.519 7.954 46.578-6.755 74.379-3.198 6.043-6.295 11.51-9.29 16.797-14.011 24.73-24.134 42.599-19.766 76.949z"/><path d="M-191.352 776.664c-5.779-34.734 4.71-52.73 19.226-77.637 2.789-4.785 5.674-9.735 8.64-15.136 13.518-24.623 12.444-43.533 6.021-67.878-6.366-24.126-11.395-43.183 9.007-63.475 15.232-15.153 31.327-33.762 35.22-56.884 5.774-34.298-13.166-69.476-28.379-97.74a1876 1876 0 0 1-3.355-6.249c-20.322-38.108-44.026-75.375-66.949-111.415-11.072-17.408-22.521-35.408-33.439-53.267-5.12-8.377-10.34-16.714-15.866-25.54-29.807-47.614-63.595-101.58-75.477-155.853-4.902-22.387-3.318-40.636 4.842-55.79 15.93-29.582 53.791-41.13 90.405-52.298 15.376-4.69 29.898-9.12 42.42-14.76 22.014-9.915 33.761-24.392 35.914-44.257 1.738-16.036 6.007-33.39 10.137-50.172 4.18-16.991 8.503-34.56 10.386-51.265 1.936-17.19 2.495-36.29 1.708-58.394-2.117-59.512-21.157-118.78-36.456-166.403a3142 3142 0 0 0-5.409-16.625c-3.591-10.967-7.303-22.308-10.672-33.433-.757-2.504-1.537-5.037-2.323-7.595-12.702-41.282-27.097-88.073 15.376-114.93 3.987-2.521 7.668-4.672 11.256-6.576 24.619-13.067 72.292-33.912 114.97-26.694l-.278 1.562c-42.31-7.156-89.677 13.564-114.147 26.552-3.555 1.888-7.207 4.021-11.162 6.522-41.394 26.175-27.205 72.292-14.687 112.982.788 2.559 1.568 5.096 2.327 7.601 3.362 11.108 7.072 22.44 10.66 33.397 1.817 5.551 3.633 11.097 5.412 16.635 15.331 47.722 34.41 107.113 36.535 166.863.79 22.19.228 41.377-1.718 58.654-1.896 16.821-6.233 34.448-10.427 51.495-4.115 16.725-8.37 34.019-10.096 49.935-2.223 20.525-14.275 35.444-36.843 45.608-12.601 5.676-27.163 10.118-42.58 14.821-36.331 11.081-73.9 22.54-89.517 51.543-7.95 14.763-9.477 32.614-4.669 54.573 11.822 54 44.081 105.524 75.273 155.351 5.528 8.83 10.75 17.171 15.876 25.554 10.91 17.848 22.356 35.842 33.424 53.244 22.939 36.064 46.658 73.356 67.007 111.514 1.086 2.037 2.207 4.118 3.351 6.244 15.335 28.485 34.423 63.933 28.548 98.825-3.976 23.615-20.277 42.481-35.699 57.823-19.697 19.592-15.025 37.297-8.56 61.8 6.537 24.77 7.621 44.031-6.183 69.173-2.978 5.423-5.867 10.38-8.662 15.176-14.33 24.586-24.682 42.35-19.009 76.455z"/><path d="M-200.653 783.771c-6.821-33.504 3.079-50.047 16.782-72.944 3.168-5.291 6.442-10.763 9.81-16.924 11.387-20.829 7.04-42.246 2.835-62.96-4.937-24.322-9.6-47.295 10.763-67.471 17.642-17.48 27.435-33.419 32.747-53.29 11.196-41.895-1.227-73.183-17.337-106.861-23.225-48.592-53.743-95.673-83.234-141.19-43.366-66.93-88.211-136.136-111.628-212.404-15.687-51.08-4.832-86.077 33.182-106.989 18.119-9.967 38.393-14.002 57.999-17.904 13.284-2.643 27.019-5.376 39.687-9.93 18.32-6.585 29.479-19.657 36.182-42.383 1.912-6.482 3.893-12.987 5.88-19.507 7.879-25.865 16.027-52.611 19.869-78.628 2.491-16.869 3.398-35.271 2.854-57.911-1.355-56.418-18.635-110.955-37.761-166.508-1.71-4.968-3.458-9.946-5.208-14.933-3.967-11.302-8.069-22.989-11.695-34.483l-1.294-4.088c-13.281-41.934-28.336-89.462 15.221-117.886 4.336-2.83 7.99-5.068 11.502-7.044 24.807-13.966 72.897-36.515 116.245-30.638l-.239 1.567c-42.98-5.827-90.77 16.593-115.431 30.475-3.484 1.961-7.112 4.183-11.421 6.994-42.49 27.729-27.646 74.59-14.551 115.934l1.294 4.091c3.617 11.468 7.715 23.143 11.678 34.433 1.751 4.989 3.5 9.971 5.212 14.942 19.17 55.682 36.49 110.354 37.85 167.019.547 22.744-.365 41.242-2.873 58.214-3.86 26.151-12.028 52.963-19.928 78.891-1.984 6.514-3.965 13.014-5.875 19.492-6.869 23.289-18.325 36.692-37.148 43.458-12.761 4.588-26.546 7.331-39.875 9.983-19.508 3.882-39.678 7.896-57.611 17.76-37.221 20.476-47.824 54.82-32.417 104.996 23.356 76.053 68.139 145.173 111.448 212.014 29.515 45.557 60.044 92.629 83.329 141.36 16.254 33.982 28.786 65.57 17.436 108.043-5.398 20.194-15.325 36.366-33.195 54.071-19.7 19.521-15.128 42.042-10.288 65.885 4.267 21.022 8.68 42.761-3.019 64.162-3.385 6.19-6.667 11.676-9.844 16.983-13.496 22.552-23.248 38.848-16.565 71.681z"/><path d="M-209.949 790.878c-7.809-32.364 1.555-47.433 14.517-68.289 3.482-5.606 7.085-11.402 10.782-18.161 11.63-21.254 6.774-42.218 2.079-62.491-5.617-24.26-10.922-47.172 10.095-69.811 40.962-44.12 39.966-114.521 21.705-161.263-24.02-61.477-59.872-119.233-94.545-175.089-35.653-57.435-72.522-116.828-96.324-180.06-17.636-46.855-27.076-94.046 22.829-121.853 16.817-9.372 35.868-12.839 54.29-16.19 15.67-2.852 30.468-5.545 43.619-11.591 19.672-9.045 28.005-20.169 38.24-40.199 14.287-27.962 25.771-62.255 31.508-94.087 2.977-16.519 4.201-34.706 3.852-57.236-.93-59.97-22.657-119.029-40.113-166.483a3064 3064 0 0 0-4.072-10.985c-4.61-12.391-9.377-25.204-13.472-37.853-13.809-42.651-29.46-90.992 15.332-121.649 4.495-3.075 8.221-5.487 11.727-7.589 24.851-14.901 73.185-39.174 117.688-34.319l-.208 1.572c-44.131-4.813-92.167 19.319-116.872 34.133-3.48 2.086-7.183 4.483-11.652 7.542-43.754 29.945-28.981 75.575-14.695 119.703 4.086 12.617 8.847 25.412 13.451 37.787 1.364 3.669 2.728 7.333 4.074 10.991 17.5 47.573 39.28 106.778 40.215 167.041.351 22.648-.882 40.945-3.88 57.582-5.767 31.997-17.313 66.472-31.676 94.584-10.409 20.373-18.897 31.692-38.975 40.923-13.306 6.118-28.185 8.826-43.938 11.692-18.316 3.333-37.256 6.78-53.876 16.04-48.804 27.195-39.463 73.634-22.098 119.766 23.742 63.092 60.574 122.416 96.19 179.79 34.709 55.916 70.603 113.731 94.671 175.341 18.451 47.228 19.419 118.404-22.053 163.074-20.39 21.962-15.186 44.434-9.677 68.224 4.769 20.596 9.701 41.891-2.255 63.742-3.721 6.799-7.335 12.617-10.831 18.243-12.734 20.489-21.932 35.294-14.296 66.943z"/><path d="M-219.243 797.982c-8.75-31.308.109-44.902 12.37-63.714 3.579-5.492 7.636-11.717 11.61-18.949 11.932-21.715 6.808-42.671 1.851-62.937-5.787-23.669-11.771-48.144 8.918-74.045 36.853-46.137 28.562-109.66 21.901-160.704l-.501-3.85c-4.841-37.234-29.804-77.859-51.834-113.699-6.824-11.103-13.268-21.589-19.086-31.832-6.542-11.516-13.293-23.245-19.822-34.589-31.62-54.936-64.319-111.744-88.422-170.375l-.12-.29c-9.462-23.012-20.186-49.095-21.954-73.762-2.062-28.78 8.581-49.857 32.535-64.43 16.806-10.227 36.223-13.717 55-17.092 15.342-2.758 29.832-5.362 42.399-11.387 16.156-7.747 29.062-19.311 41.846-37.497 16.915-24.059 30.63-56.747 37.628-89.683 3.42-16.102 4.902-34.018 4.664-56.387-.6-56.289-21.198-109.318-41.118-160.601l-2.268-5.841c-.981-2.532-1.971-5.068-2.962-7.608-5.189-13.302-10.555-27.057-15.018-40.694-16.317-49.859-25.405-90.467 17.291-121.514 4.38-3.183 8.284-5.866 11.935-8.201 24.775-15.845 73.22-41.804 119.309-37.626l-.185 1.575c-45.71-4.143-93.853 21.664-118.482 37.416-3.626 2.319-7.505 4.985-11.861 8.152-41.772 30.374-32.782 70.407-16.688 119.584 4.45 13.594 9.807 27.328 14.988 40.61q1.488 3.81 2.964 7.611l2.267 5.839c19.974 51.422 40.628 104.593 41.231 161.195.239 22.504-1.255 40.546-4.704 56.78-7.047 33.163-20.864 66.089-37.909 90.334-12.95 18.419-26.038 30.141-42.438 38.005-12.732 6.105-27.309 8.725-42.74 11.498-18.657 3.353-37.95 6.821-54.535 16.912-52.691 32.061-28.973 89.74-9.917 136.087l.119.29c24.066 58.533 56.737 115.296 88.333 170.192 6.531 11.345 13.282 23.077 19.827 34.596 5.805 10.22 12.244 20.697 19.06 31.788 22.111 35.978 47.171 76.753 52.055 114.335l.502 3.849c6.704 51.377 15.049 115.318-22.269 162.037-20.152 25.227-14.533 48.204-8.584 72.529 5.035 20.591 10.242 41.885-2.025 64.209-4.004 7.289-8.08 13.542-11.677 19.06-12.453 19.109-20.68 31.733-12.144 62.278z"/><path d="M-228.535 805.078c-9.65-30.352-1.707-41.869 10.317-59.302 3.801-5.511 8.109-11.76 12.313-19.367 10.653-19.287 5.657-34.35-.129-51.791-1.83-5.517-3.722-11.222-5.175-17.299-6.39-26.732-1.719-50.639 14.7-75.238 24.898-37.304 20.014-79.485 15.292-120.278-1.554-13.422-3.162-27.301-3.715-40.893-2.127-52.182-24.308-93.793-47.786-137.838l-1.821-3.416c-9.867-18.523-20.176-37.301-30.146-55.461-27.039-49.254-54.997-100.186-77.433-151.987-1.42-3.281-2.945-6.72-4.528-10.294-19.612-44.254-49.251-111.13 1.342-145.952 17.426-11.994 37.443-15.939 56.802-19.755 13.136-2.589 26.721-5.267 39.027-10.46 17.712-7.474 34.812-19.932 46.916-34.179 20.285-23.874 34.642-51.78 43.893-85.311 4.922-17.844 5.431-37.15 5.248-55.355-.527-52.317-20.607-101.172-40.025-148.42a3146 3146 0 0 1-7.357-18.006l-1.908-4.72c-5.689-14.058-11.57-28.596-16.284-43.071-15.077-46.31-23.992-87.422 19.799-121.569a236 236 0 0 1 12.123-8.864c24.618-16.779 73.09-44.344 121.127-40.446l-.175 1.578c-47.642-3.867-95.804 23.532-120.272 40.209a235 235 0 0 0-12.047 8.809c-42.994 33.525-34.632 72.371-19.234 119.669 4.696 14.423 10.568 28.934 16.246 42.967l1.909 4.722c2.409 5.97 4.874 11.968 7.353 17.997 19.477 47.391 39.619 96.397 40.15 149.044.184 18.336-.332 37.793-5.315 55.852-9.32 33.785-23.791 61.909-44.241 85.978-12.256 14.425-29.56 27.034-47.475 34.593-12.434 5.248-26.086 7.938-39.288 10.541-19.224 3.788-39.102 7.707-56.286 19.534-49.435 34.025-20.147 100.117-.765 143.85 1.586 3.577 3.112 7.021 4.534 10.305 22.405 51.739 50.347 102.635 77.369 151.858 9.973 18.164 20.284 36.948 30.157 55.479l1.819 3.415c23.568 44.217 45.83 85.982 47.974 138.548.551 13.526 2.155 27.372 3.705 40.764 4.761 41.111 9.682 83.625-15.579 121.469-16.124 24.16-20.716 47.624-14.447 73.845 1.436 6.009 3.317 11.681 5.137 17.165 5.667 17.087 11.021 33.227-.011 53.195-4.244 7.684-8.578 13.967-12.402 19.513-11.726 17.002-19.474 28.234-10.084 57.771z"/><path d="M-237.834 812.165c-4.712-13.37-8.869-28.86-3.989-42.385 2.845-7.883 8.434-13.099 13.84-18.146 4.318-4.031 8.785-8.2 11.716-13.668 9.954-18.564 3.992-35.272-2.318-52.96-2.771-7.765-5.636-15.796-6.993-23.94-4.869-29.233 5.313-54.552 17.042-77.556 19-37.258 12.818-76.625 6.84-114.697-2.391-15.228-4.864-30.974-5.735-46.473-.415-7.38-.287-14.995-.154-23.058.238-14.221.483-28.926-2.495-42.04-4.627-20.357-14.047-39.649-23.171-58.31a1753 1753 0 0 1-4.88-10.054c-14.26-29.741-29.745-59.487-44.735-88.258-20.076-38.525-40.833-78.366-58.671-118.407-2.002-4.495-4.375-9.564-6.888-14.929-21.392-45.678-57.198-122.128-10.779-159.945 17.986-14.652 40.057-19.409 61.4-24.009 10.922-2.354 22.218-4.788 32.612-8.522 21.658-7.781 39.332-18.069 52.53-30.577 23.581-22.349 39.931-48.923 49.985-81.242 5.345-17.18 5.841-36.207 5.58-54.209-.705-48.798-20.631-94.457-39.901-138.613-3.994-9.152-8.123-18.616-11.936-27.807l-.96-2.312c-6.085-14.657-12.376-29.813-17.204-44.982-16.716-52.524-18.029-87.498 22.828-121.847a215 215 0 0 1 12.297-9.566c41.646-30.117 86.532-45.666 123.149-42.659l-.176 1.577c-36.315-2.982-80.878 12.473-122.262 42.4a212 212 0 0 0-12.208 9.499c-40.119 33.726-38.79 68.191-22.304 119.992 4.807 15.104 11.085 30.228 17.157 44.853l.959 2.313c3.808 9.177 7.934 18.634 11.926 27.781 19.335 44.304 39.328 90.117 40.038 139.261.262 18.15-.242 37.348-5.662 54.77-10.145 32.613-26.643 59.427-50.437 81.978-13.35 12.652-31.195 23.047-53.04 30.895-10.476 3.764-21.815 6.208-32.78 8.571-21.185 4.566-43.092 9.286-60.811 23.721-45.381 36.972-9.933 112.661 11.247 157.884 2.515 5.372 4.892 10.446 6.901 14.955 17.817 40.001 38.564 79.818 58.629 118.323 14.997 28.78 30.494 58.534 44.758 88.303 1.593 3.32 3.225 6.667 4.875 10.044 9.16 18.735 18.625 38.118 23.292 58.66 3.026 13.317 2.778 28.129 2.541 42.454-.135 8.029-.261 15.613.15 22.927.866 15.414 3.331 31.117 5.716 46.303 6.022 38.351 12.25 78.008-7.013 115.784-11.59 22.733-21.656 47.727-16.869 76.454 1.331 7.995 4.171 15.955 6.917 23.654 6.16 17.266 12.53 35.12 2.202 54.383-3.063 5.713-7.629 9.976-12.046 14.099-5.503 5.137-10.702 9.99-13.404 17.479-4.69 12.995-.609 28.122 4.001 41.204z"/><path d="M-247.135 819.241c-5.458-13.997-9.838-28.705-4.976-41.434 2.791-7.309 8.236-11.855 13.499-16.251 4.335-3.619 8.818-7.362 11.663-12.596 9.343-17.179 2.709-35.342-3.708-52.907-3.304-9.048-6.425-17.593-7.538-26.055-4.121-31.367 6.46-60.25 17.651-87.147 15.737-37.825 7.341-74.614-.778-110.19-4-17.53-8.137-35.656-9.417-53.82-.795-11.279-.216-23.333.342-34.992.403-8.394.819-17.073.728-25.458-.255-23.404-7.092-42.244-15.325-62.703-16.422-40.816-36.349-80.731-55.619-119.332-13.581-27.207-27.628-55.343-40.194-83.322-2.179-4.852-4.889-10.514-8.028-17.07-22.708-47.437-64.976-135.735-23.868-176.021 18.545-18.174 43.311-23.747 67.262-29.136 8.818-1.985 17.146-3.859 25.086-6.326 18.485-5.743 39.765-13.502 57.464-27.495 26.276-20.774 44.469-46.256 55.62-77.905 5.967-16.934 6.028-36.204 5.618-52.936-1.121-45.646-21.169-89.025-40.557-130.976-5.648-12.219-10.981-23.76-15.868-35.364l-.125-.298c-6.369-15.124-12.954-30.763-17.756-46.502-15.264-50.036-15.589-84.363 26.33-122.417 3.59-3.258 7.662-6.624 12.45-10.289 41.256-31.582 86.961-47.672 125.394-44.145l-.189 1.578c-38.113-3.498-83.478 12.489-124.461 43.862-4.753 3.639-8.793 6.978-12.351 10.207-41.238 37.435-40.897 71.272-25.843 120.619 4.777 15.659 11.346 31.26 17.699 46.347l.126.297c4.876 11.58 10.204 23.11 15.845 35.316 19.459 42.102 39.58 85.637 40.708 131.637.414 16.893.349 36.357-5.72 53.581-11.262 31.965-29.631 57.697-56.156 78.668-17.886 14.142-39.318 21.958-57.923 27.74-7.991 2.483-16.346 4.363-25.189 6.353-23.761 5.347-48.331 10.875-66.577 28.755-40.221 39.416 1.702 126.993 24.224 174.042 3.144 6.565 5.858 12.235 8.045 17.103 12.552 27.952 26.592 56.071 40.166 83.265 19.284 38.63 39.221 78.573 55.671 119.448 8.297 20.616 15.186 39.611 15.445 63.315.091 8.437-.325 17.144-.73 25.563-.557 11.607-1.133 23.607-.346 34.783 1.271 18.031 5.393 36.091 9.379 53.557 8.182 35.847 16.641 72.913.682 111.27-11.096 26.67-21.589 55.296-17.525 86.224 1.087 8.277 4.179 16.74 7.451 25.7 6.547 17.926 13.317 36.462 3.591 54.348-3 5.517-7.603 9.362-12.054 13.078-5.337 4.458-10.379 8.668-13.01 15.555-4.645 12.163-.352 26.498 4.98 40.175z"/><path d="M-256.447 826.298c-5.78-14.066-10.916-28.911-4.858-42.209 2.693-5.912 7.496-9.667 12.139-13.298 4.192-3.279 8.526-6.668 11.178-11.606 8.533-15.89 1.694-35.912-4.919-55.274-3.953-11.577-7.689-22.511-8.21-32.429-1.584-30.098 8.174-59.576 17.613-88.084l.939-2.834c13.261-40.117 3.203-70.565-7.445-102.802-6.796-20.574-13.824-41.849-14.938-66.548-.646-14.334.611-28.889 1.826-42.966 1.962-22.717 3.99-46.206-2.195-68.493-13.159-47.409-35.39-92.695-56.892-136.506-9.49-19.33-19.303-39.324-27.983-58.855l-2.346-5.278c-18.962-42.631-38.57-86.712-48.709-133.695-4.825-22.362-10.83-50.193 5.396-71.956 17.412-23.353 46.134-29.156 71.476-34.275 6.849-1.383 13.319-2.691 19.44-4.288 21.09-5.506 43.159-12.338 61.684-24.935 27.901-18.973 46.969-42.978 60.006-75.544 6.356-15.877 6.355-33.518 5.766-51.707-1.386-42.801-21.742-84.44-41.434-124.709-7.033-14.381-13.675-27.966-19.312-41.325-5.665-13.426-12.715-30.136-17.335-46.306-15.784-55.25-8.155-86.384 30.231-123.381 3.65-3.517 7.883-7.222 12.582-11.012 40.275-32.478 88.078-49.219 127.873-44.783l-.213 1.576c-39.46-4.399-86.894 12.228-126.885 44.477-4.664 3.761-8.862 7.436-12.479 10.922-37.826 36.456-45.338 67.151-29.771 121.642 4.593 16.076 11.622 32.736 17.27 46.122 5.62 13.318 12.254 26.887 19.276 41.247 19.768 40.427 40.202 82.221 41.599 125.387.595 18.388.592 36.234-5.894 52.436-13.17 32.895-32.427 57.141-60.605 76.303-18.702 12.717-40.905 19.594-62.113 25.13-6.158 1.608-12.644 2.918-19.512 4.306-25.094 5.069-53.536 10.815-70.597 33.697-15.744 21.117-9.833 48.512-5.084 70.524 10.102 46.817 29.675 90.82 48.604 133.376l2.348 5.278c8.666 19.507 18.47 39.487 27.957 58.802 21.533 43.872 43.798 89.228 56.997 136.783 6.268 22.586 4.225 46.236 2.25 69.108-1.209 14.019-2.462 28.515-1.821 42.732 1.104 24.462 8.094 45.625 14.856 66.091 10.74 32.516 20.885 63.228 7.437 103.905l-.938 2.836c-9.385 28.349-19.091 57.663-17.525 87.423.51 9.677 4.208 20.505 8.123 31.969 6.734 19.716 13.696 40.103 4.795 56.679-2.819 5.248-7.289 8.744-11.611 12.125-4.697 3.673-9.133 7.141-11.654 12.676-5.763 12.648-.742 27.1 4.897 40.819z"/><path d="M-265.765 833.355c-4.932-11.092-12.386-27.854-5.846-41.441 2.629-5.461 7.246-8.702 11.712-11.837 4.201-2.946 8.545-5.996 11.094-10.869 7.692-14.705.732-35.893-5.999-56.386-4.195-12.77-8.156-24.832-8.454-34.901-.872-29.533 7.27-59.174 15.145-87.838 1.186-4.318 2.366-8.61 3.505-12.873 8.246-30.834 7.623-55.821-2.088-83.552-3.609-10.31-8.477-20.612-13.186-30.576-9.311-19.706-18.942-40.082-20.207-62.759-.941-16.843 2.176-33.889 5.191-50.374 2.991-16.366 6.086-33.29 5.134-49.83-2.672-46.353-27.222-95.791-48.878-139.414-7.814-15.737-15.197-30.604-21.291-44.688l-3.832-8.845c-19.76-45.575-40.193-92.702-52.473-142.297l-.132-.532c-5.609-22.647-13.291-53.663-1.852-76.195 14.377-28.321 47.021-34.159 73.251-38.85 5.694-1.019 11.073-1.98 16.034-3.11 20.648-4.699 44.539-11.097 65.193-22.916 29.452-16.854 50.13-41.023 63.216-73.889 6.721-16.88 6.562-35.34 5.52-51.171-2.711-41.154-23.205-81.74-43.023-120.987-7.776-15.396-15.12-29.941-21.315-44.323-5.417-12.577-12.191-29.151-16.522-45.817-13.743-52.874-4.732-85.552 34.432-124.876a202 202 0 0 1 12.692-11.717c39.93-33.726 88.751-50.339 130.597-44.442l-.248 1.572c-41.487-5.848-89.916 10.646-129.547 44.118a201 201 0 0 0-12.593 11.626c-38.646 38.806-47.54 71.044-33.985 123.196 4.303 16.56 11.048 33.06 16.442 45.585 6.176 14.338 13.51 28.86 21.275 44.237 19.893 39.396 40.46 80.128 43.193 121.624 1.056 16.032 1.211 34.742-5.644 51.957-13.233 33.235-34.138 57.672-63.91 74.71-20.813 11.911-44.825 18.343-65.568 23.064-4.992 1.136-10.384 2.1-16.094 3.122-25.917 4.634-58.171 10.402-72.189 38.016-11.136 21.936-3.544 52.584 1.998 74.963l.132.531c12.247 49.463 32.652 96.528 52.386 142.043l3.833 8.844c6.077 14.047 13.451 28.896 21.256 44.616 21.728 43.764 46.357 93.357 49.045 140.056.966 16.754-2.148 33.785-5.16 50.255-2.995 16.382-6.093 33.322-5.163 49.951 1.247 22.346 10.807 42.577 20.052 62.141 4.727 10.001 9.613 20.341 13.249 30.731 9.833 28.08 10.466 53.376 2.121 84.582-1.141 4.266-2.322 8.563-3.509 12.885-7.838 28.536-15.945 58.043-15.081 87.307.292 9.82 4.216 21.77 8.372 34.421 6.842 20.835 13.92 42.379 5.877 57.756-2.737 5.233-7.242 8.393-11.598 11.451-4.496 3.154-8.743 6.135-11.18 11.2-6.184 12.845 1.077 29.172 5.882 39.973z"/><path d="m-275.093 840.401-.24-.505c-5.393-11.37-13.54-28.551-6.062-41.942 2.492-4.463 6.812-6.896 10.993-9.248 4.539-2.553 8.829-4.967 11.097-9.754 6.648-14.023-.279-35.139-6.979-55.558-3.983-12.14-7.746-23.608-8.258-32.73-1.786-31.787 5.633-63.818 12.808-94.794 1.702-7.345 3.461-14.937 5.049-22.342 7.527-35.088 4.693-63.871-9.188-93.331-4.027-8.557-8.873-16.947-13.999-25.84-12.169-21.103-24.755-42.926-26.273-67.459-1.14-18.418 3.929-36.402 8.831-53.794 3.16-11.209 6.427-22.8 8-34.394 6.205-45.758-16.646-95.483-36.808-139.354-5.142-11.189-9.999-21.759-14.123-31.74a12707 12707 0 0 0-6.083-14.682c-17.84-43.013-36.289-87.49-49.897-133.398-.589-1.987-1.202-4.026-1.829-6.113-7.993-26.587-17.939-59.675-9.985-87.331 9.905-34.434 44.609-40.423 72.493-45.235 4.656-.805 9.051-1.562 13.2-2.42 23.082-4.773 47.289-10.674 67.942-21.436 31.198-16.257 52.553-40.149 65.283-73.039 5.277-13.629 6.703-30.547 4.361-51.716-4.275-38.669-23.821-77.042-42.73-114.153-8.749-17.176-17.015-33.4-23.899-49.709-7.578-17.953-12.483-32.355-15.434-45.323-11.59-50.927-1.436-84.174 38.801-127.049a186 186 0 0 1 12.793-12.401c39.628-34.831 89.564-50.903 133.579-42.992l-.294 1.564c-43.633-7.841-93.152 8.105-132.463 42.658a185 185 0 0 0-12.684 12.294c-39.767 42.376-49.809 75.205-38.374 125.454 2.929 12.872 7.806 27.188 15.347 45.052 6.861 16.257 15.115 32.458 23.853 49.607 18.97 37.239 38.586 75.744 42.897 114.717 2.373 21.463.91 38.657-4.473 52.563-12.886 33.291-34.486 57.464-66.035 73.905-20.802 10.84-45.115 16.769-68.292 21.561-4.169.862-8.576 1.623-13.241 2.428-27.48 4.743-61.68 10.645-71.299 44.084-7.809 27.149 2.057 59.966 9.984 86.336.628 2.089 1.242 4.13 1.832 6.119 13.583 45.827 32.015 90.263 49.84 133.238 2.031 4.898 4.062 9.791 6.083 14.685 4.113 9.952 8.964 20.508 14.1 31.684 20.256 44.076 43.215 94.035 36.94 140.298-1.589 11.72-4.873 23.373-8.05 34.642-4.862 17.247-9.889 35.08-8.767 53.195 1.495 24.141 13.983 45.8 26.062 66.74 5.145 8.922 9.988 17.316 14.058 25.952 14.046 29.813 16.917 58.934 9.304 94.426-1.591 7.418-3.353 15.02-5.056 22.37-7.145 30.852-14.536 62.755-12.764 94.287.5 8.896 4.228 20.262 8.176 32.295 6.806 20.746 13.844 42.197 6.89 56.867-2.497 5.265-7.204 7.914-11.757 10.477-4.177 2.35-8.122 4.57-10.387 8.628-7.032 12.59.89 29.292 6.131 40.345l.241.506z"/><path d="M-286.856 842.568c-8.935-18.538-10.466-29.254 4.218-44.515 2.175-2.258 4.067-3.982 5.736-5.503 6.192-5.641 8.509-7.752 7.892-21.445-.558-12.383-4.549-23.757-8.775-35.802-4.411-12.575-8.972-25.578-9.355-39.96-.716-26.92 5.185-54.323 10.892-80.822 6.88-31.96 13.996-65.008 9.38-97.098-3.917-27.22-18.931-49.943-33.455-71.917-15.668-23.71-30.468-46.105-32.721-73.809-1.532-18.871 6.417-37.151 14.104-54.829 5.86-13.476 11.92-27.413 13.909-41.706 3.399-24.427-5.188-49.539-12.763-71.692-.87-2.548-1.731-5.065-2.564-7.548-9.55-28.504-20.697-56.778-31.478-84.12-4.149-10.526-8.439-21.41-12.579-32.154l-.539-1.396c-15.934-41.354-32.411-84.117-43.209-128.377l-.97-3.955c-5.635-22.874-12.647-51.342-4.429-73.838 10.536-28.844 41.946-34.124 67.183-38.367 3.966-.666 7.711-1.296 11.228-1.991 56.545-11.173 116.93-31.02 136.062-93.517 16.167-52.812-13.967-111.452-40.551-163.193-9.529-18.544-18.53-36.06-24.635-51.923-27.444-71.297-19.278-120.344 29.125-174.936 38.551-43.479 97.312-64.417 149.702-53.341l-.33 1.559c-51.94-10.982-110.193 9.771-148.408 52.871-47.892 54.018-55.966 102.564-28.797 173.15 6.076 15.782 15.058 33.265 24.567 51.77 26.731 52.025 57.029 110.986 40.651 164.485-19.387 63.331-80.244 83.377-137.218 94.634-3.534.698-7.289 1.329-11.263 1.998-24.866 4.18-55.812 9.383-66.022 37.334-8.03 21.981-1.088 50.16 4.489 72.804l.972 3.958c10.773 44.158 27.231 86.87 43.147 128.178l.537 1.396c4.137 10.737 8.427 21.619 12.576 32.141 10.788 27.362 21.942 55.656 31.507 84.2.83 2.48 1.69 4.992 2.559 7.537 7.637 22.335 16.292 47.65 12.836 72.495-2.022 14.539-8.133 28.591-14.041 42.178-7.948 18.279-15.456 35.542-13.959 53.964 2.216 27.282 16.909 49.515 32.464 73.048 14.616 22.114 29.728 44.98 33.698 72.572 4.663 32.404-2.488 65.613-9.403 97.729-5.684 26.394-11.561 53.687-10.851 80.393.376 14.113 4.893 26.99 9.261 39.443 4.08 11.628 8.298 23.651 8.868 36.289.654 14.529-2.199 17.126-8.449 22.822-1.651 1.503-3.524 3.209-5.661 5.431-15.217 15.811-12.32 26.079-1.491 47.411l-1.227.844a269 269 0 0 1-2.42-4.88"/></g></svg>