<svg xmlns="http://www.w3.org/2000/svg" width="996" height="367" fill="none"><g fill="#A1A7FF" opacity=".7"><path d="M1607.38-484.753c16.76 91.735-56.05 190.063-133 228.512-39.23 19.599-82.7 30.712-124.74 41.457l-5.91 1.51c-3.41.875-7.09 1.779-10.96 2.731-39.38 9.697-98.9 24.351-115.35 64.057-12.67 30.576 8.72 65.506 25.91 93.573 4.94 8.077 9.62 15.706 13.11 22.586 19.22 37.85 25.49 75.222 18.64 111.076-7.04 36.862-35.3 47.775-62.62 58.331-6.1 2.358-12.42 4.797-18.38 7.483-44.92 20.226-84.02 51.954-119.53 96.988-13.66 17.326-26.93 35.428-39.76 52.937-30.6 41.756-62.24 84.934-101.217 120.157-16.707 15.098-35.237 29.27-53.156 42.975-18.599 14.225-37.83 28.934-55.359 44.898-.269.244-26.603 24.908-22.599 36.454 1.476 4.252 6.862 5.838 16.012 4.713l-.059-1.83c-8.32 1.023-13.145-.203-14.338-3.644-2.813-8.111 13.952-26.97 22.032-34.328 17.466-15.908 36.666-30.591 55.231-44.791 17.951-13.73 36.512-27.925 53.278-43.077 39.129-35.36 70.835-78.623 101.495-120.462 12.82-17.493 26.08-35.582 39.71-52.879 35.31-44.777 74.16-76.313 118.81-96.42 5.92-2.666 12.21-5.096 18.29-7.445 27.82-10.745 56.58-21.855 63.84-59.83 6.93-36.288.61-74.065-18.8-112.285-3.52-6.94-8.21-14.597-13.17-22.703-16.97-27.71-38.09-62.199-25.81-91.845 16.06-38.772 75.03-53.287 114.05-62.894 3.87-.954 7.55-1.86 10.97-2.735l5.91-1.51c42.13-10.77 85.69-21.905 125.09-41.588 39.39-19.657 76.62-54.037 102.18-94.288 28.45-44.785 39.77-93.217 31.89-136.374z"/><path d="M1603.23-497.963c15.76 92.656-64.68 186.326-148.42 227.428-41.26 20.251-86.15 33.84-132.36 47.111-4.7 1.351-9.88 2.741-15.37 4.214-40.93 10.988-96.98 26.034-113.34 64.805-14.65 34.711 10.59 72.85 35 109.73 16.74 25.29 32.54 49.178 35.57 71.234 2.36 17.167 1.6 37.063-1.98 51.926-5.24 21.774-22.77 40.108-44.67 46.703-12.21 3.679-26.81 10.681-43.4 20.818-34.24 20.925-63.68 46.404-90 77.894-7.68 9.184-15 19.511-21.77 29.303-5.02 7.26-9.98 14.51-14.93 21.731-32.22 47.089-62.662 91.566-102.639 130.53-7.216 7.033-15.187 14.246-23.691 21.438-17.259 14.597-35.96 28.259-54.046 41.471-19.457 14.214-39.575 28.911-58.124 44.92-.29.25-28.939 25.148-25.503 37.111 1.19 4.144 5.986 6.089 14.255 5.779l.077-1.842c-7.461.28-11.73-1.271-12.688-4.606-2.552-8.884 17.606-28.775 24.868-35.042 18.489-15.958 38.576-30.632 58.001-44.822 18.113-13.232 36.843-26.914 54.154-41.556 8.54-7.222 16.546-14.466 23.794-21.532 40.122-39.104 70.612-83.662 102.902-130.836 4.94-7.22 9.9-14.467 14.92-21.725 6.74-9.751 14.03-20.033 21.65-29.153 26.19-31.322 55.47-56.665 89.53-77.479 16.45-10.056 30.91-16.993 42.99-20.631 22.53-6.785 40.58-25.688 45.98-48.151 3.64-15.088 4.41-35.266 2.02-52.66-3.08-22.463-19-46.508-35.84-71.967-24.15-36.48-49.11-74.204-34.88-107.94 15.98-37.87 71.53-52.78 112.08-63.666 5.49-1.474 10.68-2.866 15.4-4.222 46.29-13.293 91.26-26.907 132.64-47.223 41.67-20.447 81.71-53.989 109.82-91.994 23.4-31.633 49.28-81.179 39.69-137.569z"/><path d="M1599.03-511.187c15.67 98.095-78.06 183.293-163.04 226.394-44.87 22.764-94.71 39.585-133.11 51.696-6.36 2.007-13.59 4.034-21.25 6.179-39.99 11.209-94.75 26.56-111.75 64.303-16.36 36.348 15.28 80.458 43.2 119.375 17.46 24.335 33.95 47.32 37.94 66.411 4.02 19.18 3.57 35.825-1.42 52.38-7.44 24.716-26.35 33.295-46.37 42.377-2.08.942-4.17 1.888-6.25 2.857-15.99 7.442-31.38 18.12-41.46 25.763-31.45 23.84-58.72 51.843-83.34 85.611-7.03 9.638-13.86 20.338-20.25 30.472-32.91 52.184-69.073 106.904-117.365 151.989-7.299 6.812-15.437 13.849-24.188 20.915-17.273 13.943-35.976 26.928-54.064 39.485-20.202 14.026-41.092 28.53-60.274 44.544-7.285 6.082-30.861 26.817-28.366 38.273.908 4.173 5.059 6.611 12.337 7.246l.274-1.837c-6.521-.569-10.2-2.575-10.938-5.963-2.313-10.624 22.649-32.1 27.677-36.297 19.116-15.96 39.97-30.439 60.138-44.44 18.116-12.578 36.848-25.582 54.175-39.57 8.788-7.095 16.961-14.162 24.294-21.006 48.469-45.249 84.72-100.094 117.7-152.39 6.37-10.105 13.17-20.771 20.17-30.357 24.51-33.607 51.63-61.474 82.93-85.196 10.01-7.588 25.27-18.182 41.13-25.559 2.07-.966 4.15-1.909 6.23-2.85 20.43-9.267 39.73-18.027 47.44-43.629 5.09-16.89 5.55-33.845 1.47-53.357-4.07-19.456-20.67-42.583-38.23-67.067-27.63-38.52-58.95-82.176-43.05-117.488 16.61-36.891 70.89-52.104 110.52-63.212 7.67-2.15 14.91-4.18 21.3-6.195 38.47-12.132 88.39-28.984 133.37-51.806 45.35-23.006 87.97-55.577 116.95-89.375 38.81-45.256 54.68-92.064 47.16-139.127z"/><path d="M1594.78-524.417c17.3 103.173-86.37 179.567-176.37 225.473-46.26 23.601-92.32 43.156-133.18 56.552-7.72 2.53-16.62 5.013-26.05 7.642-42.22 11.773-94.75 26.421-113.1 63.702-18.81 38.225 18.21 86.63 50.88 129.338 17.31 22.64 33.67 44.027 38.95 60.687 6.64 20.986 6.93 38.241.87 52.753-7.9 18.929-25.87 28.082-43.27 36.933-5.87 2.991-11.42 5.814-16.58 8.993-11.97 7.378-25.43 17.874-38.92 30.353-28.21 26.082-53.21 56.278-76.43 92.313-6.25 9.707-12.28 20.006-18.66 30.909l-.24.415c-38.73 66.184-74.875 112.58-117.206 150.433-9.542 8.533-17.315 14.967-24.466 20.248-14.346 10.595-29.391 20.39-45.319 30.761-23.548 15.332-47.899 31.186-69.451 49.654l-.728.623c-8.514 7.28-31.131 26.619-29.586 39.472.522 4.338 3.697 7.492 9.437 9.373l.618-1.768c-5.106-1.674-7.916-4.359-8.352-7.985-1.416-11.777 21.39-31.277 28.884-37.685l.729-.623c21.455-18.387 45.753-34.206 69.249-49.504 15.25-9.929 31.021-20.196 45.412-30.824 7.2-5.318 15.018-11.788 24.606-20.363 42.495-38 78.763-84.546 117.603-150.923l.24-.414c6.37-10.884 12.39-21.163 18.62-30.833 23.12-35.888 48.01-65.956 76.09-91.922 13.41-12.395 26.76-22.812 38.63-30.126 5.09-3.141 10.61-5.948 16.45-8.921 17.71-9.013 36.01-18.328 44.2-37.951 6.25-14.97 5.99-32.67-.8-54.107-5.37-16.95-21.81-38.448-39.22-61.208-32.35-42.289-69.01-90.218-50.74-127.344 17.95-36.478 70.05-51.005 111.9-62.676 9.45-2.634 18.37-5.122 26.12-7.663 40.95-13.425 87.1-33.017 133.44-56.658 90.58-46.206 194.93-123.219 177.43-227.594z"/><path d="M1590.44-537.697c19.71 124.888-134.95 201.035-185.77 226.059-3.98 1.962-7.98 3.938-11.99 5.918-40.12 19.829-81.62 40.331-123.52 53.879-8.37 2.709-17.98 5.346-28.14 8.138-43.59 11.969-97.83 26.863-118.42 64.035-22.15 39.984 22.29 94.934 57.99 139.087 16.7 20.649 32.47 40.15 38.41 54.499 5 12.09 14.31 34.595 4.71 52.902-7.58 14.444-26.2 24.919-42.63 34.161-8.79 4.942-17.09 9.609-23.41 14.591-11.04 8.711-23.45 20.662-35.88 34.563-24.57 27.488-47.33 59.538-69.55 97.982-4.54 7.845-8.98 15.896-13.68 24.42l-4.1 7.433c-24.09 43.496-62.56 106.016-118.385 146.606-6.055 4.401-12.409 8.709-19.136 13.271-2.458 1.667-4.925 3.34-7.384 5.023-1.293.885-3.704 2.462-7.002 4.618-32.785 21.441-132.557 86.691-134.23 117.284-.246 4.524 1.634 8.128 5.59 10.711l.975-1.599c-3.478-2.269-5.065-5.264-4.852-9.154 1.073-19.611 45.927-58.532 133.32-115.687 3.312-2.166 5.735-3.751 7.034-4.639 2.456-1.682 4.923-3.354 7.377-5.019 6.444-4.369 13.108-8.888 19.188-13.307 56.144-40.822 94.775-103.596 118.955-147.261l4.11-7.438c4.7-8.514 9.13-16.555 13.65-24.381 22.16-38.321 44.83-70.26 69.31-97.642 12.36-13.816 24.68-25.686 35.63-34.327 6.21-4.89 14.44-9.522 23.16-14.427 16.67-9.375 35.56-20.001 43.42-34.977 10.04-19.146.51-42.188-4.62-54.568-6.03-14.574-21.14-33.266-38.65-54.91-35.36-43.73-79.36-98.152-57.86-136.967 20.18-36.444 74-51.221 117.25-63.097 10.19-2.797 19.81-5.439 28.23-8.16 42.02-13.586 83.57-34.119 123.75-53.975 4.01-1.981 8.01-3.956 11.99-5.917 36.68-18.061 90.12-46.605 130.61-85.858 45.3-43.9 64.22-91.784 56.25-142.318z"/><path d="M1586-551.013c16.3 111.418-91.98 180.723-188.14 228.66l-6.66 3.319c-43.41 21.666-88.31 44.071-134.92 57.966-8.71 2.597-18.5 5.103-28.86 7.754-45.97 11.766-103.18 26.409-127.67 64.858-26.77 42.047 23.69 101.258 64.23 148.835 16.22 19.032 30.23 35.468 36.38 47.57 6.84 13.457 18.24 35.875 9.66 52.419-5.93 11.41-22.54 21.435-38.61 31.13-12 7.242-24.41 14.731-32.14 22.739-11.24 11.646-22.46 24.915-32.45 38.369-20.77 27.985-40.79 60.585-63.01 102.591-2.04 3.846-4.08 7.746-6.16 11.69-3.5 6.674-7.08 13.476-10.76 20.365-31.625 59.129-69.603 102.633-123.143 141.056-8.292 5.952-17.029 12.105-25.479 18.056l-.511.36c-2.116 1.491-6.125 4.103-11.199 7.411-33.01 21.515-120.694 78.666-125.983 112.61-.889 5.706.532 10.585 4.221 14.503l1.255-1.365c-3.352-3.559-4.59-7.805-3.784-12.98 5.147-33.033 92.285-89.828 125.09-111.21 5.289-3.448 9.111-5.939 11.256-7.449l.511-.359c8.453-5.954 17.194-12.11 25.492-18.067 53.8-38.61 91.964-82.326 123.744-141.747 3.69-6.893 7.26-13.7 10.77-20.378 2.07-3.943 4.12-7.841 6.15-11.686 22.17-41.909 42.14-74.423 62.85-102.322 9.93-13.386 21.1-26.586 32.28-38.17 7.55-7.823 19.85-15.246 31.75-22.424 16.3-9.836 33.15-20.006 39.34-31.927 9.06-17.463-2.61-40.42-9.59-54.137-6.27-12.34-20.34-28.844-36.62-47.954-40.16-47.121-90.13-105.765-64.15-146.573 24.07-37.788 80.89-52.332 126.55-64.019 10.38-2.656 20.18-5.166 28.92-7.772 46.75-13.939 91.72-36.378 135.21-58.079l6.65-3.32c41.07-20.467 93.23-48.82 132.39-86.666 45.3-43.769 64.42-92.247 56.84-144.087z"/><path d="M1581.44-564.376c6.85 52.124-11.36 100.525-54.13 143.858-38.11 38.62-89.74 67.623-130.46 88.579-43.52 22.402-94.58 47.559-149.78 62.601-9.65 2.63-20.32 5.101-31.62 7.718-48.28 11.18-108.38 25.095-137.53 64.358-32.36 43.586 25.91 109.133 68.46 156.994 14.86 16.709 27.69 31.139 33.75 41.43 9.11 15.458 21.07 42.924 14.39 50.813-5.37 6.35-15.11 13.284-26.4 21.313-16.02 11.401-34.18 24.326-46.39 40.173-9.82 12.74-19.77 27.193-28.78 41.797-20.91 33.88-38.92 69.537-57.05 106.134-5.67 11.43-11.01 21.874-16.34 31.93-33.505 63.258-78.02 99.291-128.505 136.606-7.054 5.213-14.261 10.459-21.506 15.735l-3.723 2.709c-2.994 2.181-8.05 5.534-14.451 9.779-34.955 23.182-107.689 71.419-116.17 107.187-1.648 6.944-.788 13.151 2.553 18.447l1.444-1.122c-3.073-4.869-3.86-10.592-2.338-17.008 8.293-34.972 80.581-82.914 115.322-105.953 6.42-4.258 11.492-7.621 14.52-9.827l3.722-2.71c7.248-5.276 14.46-10.526 21.518-15.743 50.684-37.461 95.381-73.648 129.094-137.288 5.33-10.073 10.68-20.533 16.36-31.98 18.11-36.551 36.1-72.16 56.95-105.963 8.98-14.544 18.89-28.937 28.67-41.622 12.02-15.61 30.06-28.443 45.97-39.766 11.39-8.105 21.22-15.105 26.76-21.645 9.98-11.793-13.91-52.663-14.15-53.074-6.15-10.429-19.02-24.913-33.93-41.685-42.14-47.392-99.84-112.299-68.45-154.583 28.73-38.686 88.46-52.52 136.46-63.632 11.31-2.62 22-5.094 31.68-7.734 55.36-15.085 106.52-40.292 150.13-62.734 94.4-48.585 200.82-119.145 185.65-234.496z"/><path d="M1576.74-577.807c11.91 119.937-87.65 189.768-175.76 237.263-55.76 30.043-106.75 50.308-160.46 63.777-10.77 2.699-22.61 5.178-35.15 7.802-50.82 10.637-114.06 23.872-147.86 63.01-39.26 45.465 26.68 116.781 70.32 163.973 13.33 14.415 24.84 26.864 30.65 35.622.72 1.082 1.57 2.311 2.51 3.664 8.08 11.616 23.11 33.237 8.37 46.125l-5.32 4.638c-22.34 19.455-41.63 36.256-59.15 64.979-8.26 13.542-16.67 28.623-24.98 44.824-12.14 23.668-23.67 48.394-34.83 72.305-5.57 11.937-11.33 24.282-17.07 36.297-4.76 9.961-10.16 20.549-16.04 31.47-29.141 54.116-72.939 87.264-119.307 122.359-4.9 3.708-9.829 7.439-14.772 11.218-5.663 4.329-11.4 8.668-17.147 13.014l-7.107 5.378c-3.289 2.491-8.418 6.035-14.914 10.52-40.771 28.16-125.61 86.754-106.153 124.859l1.52-.99c-18.683-36.588 68.32-96.678 105.472-122.337 6.514-4.498 11.66-8.052 14.982-10.57l7.106-5.376a4130 4130 0 0 0 17.155-13.02c4.941-3.777 9.867-7.505 14.765-11.212 46.547-35.23 90.513-68.506 119.87-123.017 5.89-10.95 11.31-21.569 16.08-31.56 5.75-12.025 11.51-24.372 17.08-36.315 11.15-23.894 22.68-48.601 34.8-72.235 8.29-16.154 16.66-31.19 24.9-44.689 17.36-28.452 36.54-45.159 58.75-64.503l5.33-4.641c16.09-14.075.43-36.603-7.98-48.706-.94-1.34-1.78-2.56-2.5-3.634-5.88-8.866-17.43-21.358-30.8-35.824-43.2-46.713-108.48-117.305-70.38-161.419 33.37-38.641 96.29-51.813 146.84-62.393 12.56-2.627 24.42-5.11 35.21-7.816 53.86-13.507 104.98-33.822 160.87-63.936 88.62-47.771 188.84-118.113 176.81-239.247z"/><path d="M1571.91-591.278c9.45 126.656-81.9 196.363-162.54 242.94-49.73 28.716-101.69 48.131-173.7 64.869-11.4 2.651-24.13 5.094-37.6 7.68-54.26 10.42-121.78 23.385-159.52 61.918-9.5 9.7-14.61 21.156-15.19 34.047-1.99 44.44 50.24 98.88 84.8 134.902 11.79 12.287 21.97 22.899 27.47 30.417 11 15.024 21.62 32.628 8.39 51.414-6.4 9.077-13.64 17.588-20.64 25.82-12.68 14.897-25.79 30.302-34.9 50.073-8.3 18.047-15.22 33.562-21.14 47.435-4.01 9.411-7.99 18.872-11.97 28.344-11.37 27.06-23.12 55.042-35.8 81.643-4.44 9.313-9.69 19.348-16.04 30.679-25.381 45.276-69.241 78.636-111.658 110.899-9.676 7.359-18.815 14.31-27.714 21.387a4372 4372 0 0 1-12.676 10.033 5665 5665 0 0 0-10.4 8.224c-3.805 3.019-9.28 7.011-15.62 11.632-39.17 28.552-112.081 81.698-96.523 122.767l1.597-.819c-15.025-39.658 57.071-92.21 95.803-120.443 6.357-4.634 11.847-8.636 15.685-11.68 3.449-2.737 6.92-5.478 10.395-8.221 4.233-3.342 8.471-6.688 12.682-10.038 8.882-7.064 18.014-14.009 27.68-21.362 42.579-32.386 86.608-65.874 112.199-111.523 6.38-11.37 11.64-21.447 16.1-30.802 12.7-26.645 24.47-54.65 35.85-81.734a5204 5204 0 0 1 11.96-28.332c5.91-13.854 12.82-29.353 21.12-47.38 8.98-19.511 22-34.805 34.58-49.595 7.04-8.266 14.31-16.815 20.76-25.969 15.18-21.54-.12-42.442-8.34-53.673-5.57-7.602-15.78-18.25-27.61-30.577-34.36-35.814-86.29-89.936-84.33-133.586.56-12.367 5.47-23.366 14.61-32.692 37.31-38.11 104.54-51.018 158.55-61.389 13.49-2.59 26.23-5.035 37.67-7.694 72.19-16.78 124.27-36.24 174.18-65.061 54.8-31.652 92.82-62.622 119.65-97.466 33.67-43.733 48.03-91.943 43.89-147.387z"/><path d="M1567.25-604.712c.25 37.786-2.08 86.635-22.57 129.352-26.12 54.44-74.85 89.782-123.62 119.863-61.58 37.984-129.48 52.843-189.39 65.953-12.1 2.649-25.1 5.097-38.86 7.687-59.63 11.228-127.2 23.955-171.32 61.363-10.74 9.104-16.79 20.191-18.01 32.949-4.072 42.994 47.26 97.407 81.22 133.415 12.11 12.836 22.57 23.922 27.1 30.951 5.48 8.503 17.24 30.908 8.12 55.218-5.78 15.411-15.9 30.018-25.69 44.145-8.6 12.42-16.73 24.151-22.04 36.273-4.17 9.522-7.85 20.822-11.41 31.751-1.95 5.99-3.96 12.185-6.03 17.974-12.87 36.141-27.22 74.515-44.84 110.275-2.75 5.562-6.06 11.325-9.26 16.898-2.42 4.215-4.925 8.574-7.092 12.701-9.35 17.803-29.756 35.255-47.761 50.652-4.499 3.849-8.748 7.483-12.635 10.963-27.561 24.67-56.361 48.879-83.378 71.367-2.783 2.317-5.571 4.627-8.351 6.931-4.487 3.72-8.955 7.424-13.354 11.11-4.312 3.612-9.532 7.713-15.577 12.462-35.933 28.227-96.071 75.469-85.869 120.054l1.666-.583c-9.916-43.338 49.584-90.08 85.134-118.006 6.058-4.759 11.29-8.869 15.624-12.502 4.397-3.683 8.863-7.385 13.347-11.102 2.781-2.304 5.569-4.616 8.354-6.933 27.032-22.5 55.847-46.724 83.43-71.415 3.872-3.465 8.113-7.092 12.604-10.933 18.143-15.516 38.706-33.103 48.24-51.258 2.149-4.091 4.533-8.239 7.058-12.63 3.22-5.602 6.55-11.395 9.32-17.017 17.67-35.857 32.04-74.299 44.94-110.5 2.07-5.815 4.09-12.024 6.05-18.028 3.54-10.88 7.2-22.131 11.33-31.559 5.23-11.934 13.3-23.584 21.85-35.919 9.86-14.232 20.05-28.947 25.93-44.603 9.43-25.154-2.65-48.19-8.28-56.926-4.61-7.154-14.61-17.758-27.27-31.184-33.76-35.782-84.76-89.856-80.77-132.006 1.16-12.201 6.97-22.821 17.29-31.567 43.74-37.099 111.07-49.771 170.48-60.958 13.78-2.593 26.79-5.043 38.92-7.697 60.04-13.139 128.11-28.04 189.94-66.176 49.02-30.24 98.02-65.794 124.37-120.713 20.68-43.103 23.03-92.253 22.77-130.258z"/><path d="M1562.77-618.046c-1.16 44.081-3.49 90.496-17.89 130.844-21.7 60.814-70.18 98.722-110 124.954-55.13 36.325-119.25 49.281-181.27 61.82-8.67 1.75-17.3 3.496-25.87 5.297-12.38 2.6-25.33 5.019-39.05 7.581-62.15 11.604-132.59 24.758-182.19 61.421-13.73 10.144-21.64 22.316-23.518 36.18-5.167 38.153 34.908 82.172 67.108 117.541 14.88 16.346 27.73 30.462 32.95 40.682 9.31 18.246 18.08 37.928 14.26 60.213-3.9 22.813-15.36 45.444-26.45 67.328-3.67 7.255-7.14 14.108-10.35 20.969-7.77 16.621-14.1 30.614-18.94 46.699-13.14 43.674-26.9 78.455-43.285 109.455-.702 1.327-1.39 2.657-2.079 3.986-4.114 7.946-8.368 16.164-15.613 23.784-44.753 47.069-92.538 89.622-145.868 136.401l-4.526 3.966c-5.294 4.636-10.54 9.23-15.632 13.78-3.658 3.269-7.889 6.901-12.368 10.746-34.283 29.433-86.093 73.912-76.744 119.18l1.675-.546c-9.108-44.099 42.148-88.103 76.065-117.221 4.486-3.853 8.724-7.491 12.397-10.772 5.087-4.546 10.328-9.135 15.617-13.767l4.528-3.968c53.366-46.811 101.187-89.395 145.998-136.525 7.446-7.833 11.769-16.184 15.951-24.26a535 535 0 0 1 2.07-3.97c16.454-31.125 30.254-66.026 43.434-109.833 4.8-15.95 11.1-29.871 18.84-46.414 3.19-6.831 6.65-13.67 10.32-20.91 11.16-22.024 22.69-44.798 26.65-67.922 3.91-22.876-4.98-42.873-14.43-61.395-5.32-10.419-18.24-24.61-33.2-41.04-31.96-35.104-71.73-78.791-66.681-116.071 1.799-13.286 9.437-24.992 22.701-34.797 49.26-36.41 119.5-49.526 181.46-61.096 13.73-2.563 26.69-4.984 39.09-7.587 8.57-1.801 17.19-3.545 25.85-5.296 62.19-12.572 126.49-25.568 181.9-62.079 40.08-26.404 88.89-64.584 110.8-125.979 14.49-40.637 16.84-87.235 18.01-131.483z"/><path d="m1558.31-631.395-.35 6.839c-2 40.239-4.27 85.847-13.43 125.413-12.06 52.11-42.25 93.5-95 130.26-52.76 36.757-118.93 48.712-182.91 60.276-15.11 2.729-29.38 5.307-43.47 8.208-12.33 2.539-24.91 4.91-38.23 7.419-63.92 12.047-136.39 25.693-191.571 62.116-15.674 10.338-24.93 23.159-27.51 38.105-6.928 40.14 34.731 88.332 65.151 123.52 10.41 12.035 19.39 22.43 24.73 30.495 9.55 14.456 20.88 37.431 20.55 64.8-.33 27.639-11.18 55.784-21.67 83.002-1.7 4.39-3.37 8.722-4.96 12.985-1.19 3.169-2.37 6.349-3.56 9.527-4.69 12.598-9.55 25.624-14.47 37.669-14.81 36.238-29.61 71.325-47.773 102.222-5.164 8.785-12.794 17.234-21.629 27.016l-.183.202c-42.525 47.087-89.542 90.886-135.01 133.242l-9.608 8.953c-5.921 5.517-11.514 10.728-16.939 15.969-2.481 2.397-5.095 4.885-7.802 7.463-32.054 30.517-75.953 72.314-67.557 119.144l1.684-.499c-8.203-45.755 35.23-87.106 66.943-117.3a1453 1453 0 0 0 7.812-7.472c5.412-5.228 10.999-10.433 16.914-15.945l9.607-8.952c45.499-42.385 92.549-86.214 135.132-133.366l.183-.202c8.911-9.866 16.606-18.387 21.878-27.355 18.238-31.018 33.068-66.181 47.908-102.494 4.93-12.076 9.79-25.118 14.49-37.73 1.19-3.178 2.37-6.356 3.56-9.523 1.6-4.257 3.26-8.584 4.95-12.968 10.56-27.39 21.48-55.714 21.82-83.722.33-27.843-11.16-51.165-20.85-65.825-5.39-8.155-14.41-18.585-24.85-30.662-30.19-34.924-71.54-82.755-64.764-122.006 2.478-14.355 11.435-26.714 26.624-36.734 54.9-36.19 127.16-49.831 190.92-61.848 13.33-2.512 25.92-4.884 38.27-7.427 14.07-2.896 28.32-5.472 43.42-8.2 64.17-11.594 130.53-23.584 183.61-60.57 52.46-36.555 83.8-79.565 95.82-131.489 9.2-39.747 11.48-85.451 13.49-125.774l.34-6.84z"/><path d="M1553.85-644.77c-1.06 13.046-1.89 26.286-2.7 39.09-5.62 89.14-10.94 173.337-87.64 229.991-51.4 37.977-124.91 49.821-189.75 60.275-19.95 3.215-38.78 6.251-56.46 9.905-11.33 2.339-22.73 4.56-34.8 6.913-66.34 12.926-141.51 27.589-200.66 63.833-17.748 10.885-28.376 24.463-31.585 40.355-7.888 39.079 30.053 85.746 57.755 119.82 9.49 11.673 17.69 21.755 22.94 30.005 10.49 16.469 24.59 41.546 25.97 69.064 1.73 34.391-7.86 69.655-17.83 102.826-5.86 19.478-11.35 35.358-16.8 48.55-13.8 33.435-32.243 58.497-53.596 87.515l-3.37 4.585c-7.054 9.598-16.027 20.289-23.875 29.48-35.997 42.163-75.818 81.761-114.329 120.056-8.251 8.206-16.498 16.408-24.71 24.633l-.385.385c-5.735 5.745-11.153 11.171-16.239 16.574l-.429.457c-29.401 31.243-69.668 74.032-59.951 122.24l1.677-.541c-9.51-47.182 30.331-89.519 59.421-120.431l.429-.456c5.065-5.381 10.473-10.797 16.198-16.532l.385-.384c8.21-8.224 16.456-16.424 24.705-24.628 38.539-38.323 78.39-77.952 114.441-120.177 7.871-9.22 16.876-19.947 23.968-29.599l3.371-4.584c21.433-29.129 39.939-54.286 53.849-87.959 5.47-13.257 10.99-29.204 16.87-48.749 10.02-33.344 19.66-68.804 17.91-103.518-1.4-27.958-15.65-53.309-26.24-69.946-5.3-8.33-13.53-18.445-23.05-30.156-27.481-33.803-65.121-80.097-57.411-118.283 3.089-15.302 13.404-28.426 30.658-39.005 58.853-36.102 133.883-50.706 200.073-63.605 12.08-2.352 23.49-4.574 34.82-6.917 17.64-3.646 36.46-6.679 56.38-9.891 65.05-10.485 138.76-22.365 190.53-60.606 77.47-57.221 82.82-141.888 88.47-231.525.81-12.797 1.64-26.028 2.7-39.057z"/><path d="M1549.4-658.161c-5.21 46.257-9.53 88.293-9.52 134.362.02 64.733-19.91 108.155-64.63 140.793-52.31 38.18-129.51 50.108-197.62 60.64-24.13 3.73-46.93 7.255-68.03 11.737-9.91 2.109-20.03 4.18-30.28 6.28-68.14 13.958-145.4 29.813-207.51 66.454-20.051 11.835-32.128 26.497-35.897 43.575-8.486 38.451 25.198 81.968 52.263 116.935 7.927 10.241 15.414 19.915 20.684 28.093 12.24 18.982 26.76 44.432 30.46 72.988 5.07 39.242-2.93 78.696-10.46 108.684-4.72 18.789-10.35 35.864-16.27 49.38-15.089 34.417-34.022 58.348-67.531 85.35-7.114 5.734-13.669 14.093-20.608 22.942a776 776 0 0 1-5.547 7.017c-30.026 37.392-63.29 72.794-95.459 107.029-12.595 13.405-25.618 27.265-38.256 41.041-5.679 6.19-10.365 11.335-14.685 16.486-28.969 34.542-54.397 72.774-44.411 118.245l1.67-.574c-9.799-44.619 15.339-82.355 43.963-116.489 4.292-5.118 8.964-10.246 14.625-16.417 12.629-13.766 25.648-27.622 38.239-41.022 32.196-34.264 65.488-69.696 95.564-107.15a752 752 0 0 0 5.561-7.036c6.867-8.755 13.351-17.025 20.288-22.615 33.787-27.227 52.886-51.376 68.117-86.132 5.97-13.621 11.64-30.812 16.39-49.713 7.58-30.163 15.62-69.862 10.5-109.435-3.74-28.92-18.38-54.592-30.71-73.727-5.32-8.237-12.824-17.938-20.773-28.208-26.838-34.673-60.239-77.825-51.95-115.389 3.64-16.491 15.399-30.703 34.95-42.244 61.843-36.5 138.963-52.314 206.973-66.243 10.25-2.101 20.37-4.174 30.29-6.282 21.05-4.475 43.82-7.995 67.94-11.723 68.3-10.558 145.72-22.528 198.39-60.963 45.3-33.065 65.5-77.003 65.48-142.467-.02-45.963 4.29-87.939 9.5-134.133z"/><path d="M1544.97-671.563q-.855 5.752-1.71 11.4c-6.23 41.347-12.11 80.401-8.74 123.458 4.3 54.752 1.03 110.277-51.57 145.53-54.4 36.445-130.16 48.775-203.42 60.691-28.22 4.589-54.87 8.924-79.93 14.549-7.72 1.734-15.55 3.457-23.45 5.195-69.63 15.34-148.54 32.731-213.02 70.402-21.892 12.797-35.145 28.458-39.391 46.55-8.896 37.917 22.378 80.628 47.507 114.948 6.75 9.219 13.126 17.926 18.2 25.807C1007.29-25.32 1018.11-.994 1023.5 23.52c9.03 41.1 2.49 84.434-4.59 113.55-5.23 21.52-10.48 37.315-16.52 49.705-18.513 37.944-45.767 59.427-77.324 84.302-2.49 1.962-5.008 3.784-7.675 5.713-7.799 5.64-15.864 11.473-22.892 20.831-24.834 33.076-52.45 64.588-79.157 95.065-15.911 18.156-32.364 36.932-48.042 55.824-4.821 5.809-9.102 11.022-12.676 15.978-29.02 40.239-37.557 75.208-27.678 113.383l1.653-.642c-9.715-37.545-1.283-71.988 27.34-111.678 3.537-4.903 7.794-10.085 12.59-15.864 15.661-18.873 32.104-37.637 48.006-55.784 26.732-30.504 54.374-62.047 79.256-95.185 6.842-9.113 14.783-14.856 22.462-20.41 2.566-1.855 5.218-3.773 7.739-5.76 31.753-25.029 59.175-46.646 77.898-85.018 6.11-12.532 11.41-28.462 16.68-50.135 7.13-29.324 13.71-72.984 4.59-114.45-5.43-24.73-16.33-49.238-34.282-77.128-5.1-7.924-11.489-16.65-18.255-25.89-24.912-34.023-55.916-76.366-47.225-113.407 4.109-17.512 17.042-32.732 38.441-45.24 64.181-37.518 143.001-54.888 212.511-70.199 7.9-1.739 15.73-3.465 23.46-5.198 25.01-5.614 51.64-9.944 79.82-14.529 73.45-11.946 149.4-24.295 204.12-60.972 23.49-15.741 38.81-36.393 46.82-63.133 6.64-22.157 8.44-48.933 5.66-84.269-3.36-42.83 2.51-81.771 8.72-123q.855-5.651 1.71-11.404z"/><path d="M1540.54-684.968c-8.58 46.871-15.99 87.349-11.88 134.976 5.11 59.39 9.94 115.485-44.99 149.401-57.14 35.277-132.92 48.458-206.23 61.223-31.89 5.553-62.01 10.798-90.56 17.744l-13.27 3.218c-71.05 17.205-151.58 36.702-217.903 76.23-23.262 13.862-37.389 30.619-41.987 49.804-9.292 38.762 21.222 82.281 45.741 117.25 4.717 6.725 9.172 13.079 13.225 19.194 18.425 27.791 30.794 54.59 36.754 79.652 8.73 36.708 8.64 78.45-.27 117.539-3.22 14.175-8.9 34.266-17.608 49.486-17.907 31.302-44.488 51.568-72.629 73.024-4.951 3.776-10.071 7.679-15.14 11.643-5.864 4.587-12.004 9.631-17.942 14.511-5.094 4.185-10.362 8.513-15.496 12.588-16.432 13.041-30.964 33.12-45.019 52.539-6.536 9.031-12.709 17.561-19.009 25.339-5.376 6.637-10.809 13.235-16.242 19.834-13.841 16.808-28.152 34.188-41.273 52.016-4.335 5.89-8.129 11.616-10.605 15.412-20.602 31.576-23.928 65.978-10.469 108.265l1.625-.739c-13.264-41.677-10.019-75.532 10.214-106.543 2.462-3.773 6.233-9.467 10.537-15.315 13.088-17.781 27.381-35.139 41.204-51.926 5.437-6.603 10.874-13.205 16.253-19.847 6.334-7.821 12.525-16.374 19.077-25.428 13.974-19.306 28.422-39.27 44.637-52.139 5.148-4.085 10.422-8.419 15.522-12.608 5.93-4.872 12.061-9.91 17.905-14.481 5.06-3.957 10.175-7.858 15.121-11.629 28.308-21.584 55.047-41.97 73.163-73.637 8.834-15.447 14.574-35.754 17.844-50.07 8.97-39.386 9.06-81.45.26-118.442-6.01-25.267-18.457-52.254-36.994-80.215-4.065-6.131-8.526-12.494-13.249-19.23-24.31-34.671-54.566-77.821-45.481-115.723 4.525-18.878 17.954-34.744 41.052-48.509 66.112-39.431 146.492-58.856 217.422-76.03l13.27-3.218c28.49-6.934 58.58-12.174 90.44-17.723 73.48-12.793 149.44-26.019 206.85-61.461 56.01-34.576 51.12-91.287 45.95-151.329-4.08-47.36 3.31-87.714 11.86-134.438z"/><path d="M1536.13-698.374c-9.79 44.695-17.55 85.678-13.43 134.671l.21 2.525c5.31 63 9.9 117.41-46.02 149.729-58.34 33.769-131.41 47.611-202.09 61.055-34.73 6.605-70.64 13.437-103.67 22.5a6203 6203 0 0 1-19.53 5.314c-67.14 18.197-143.24 38.829-202.147 79.108-23.594 16.136-37.293 33.914-41.88 54.35-8.806 39.233 18.118 80.57 44.156 120.544 2.279 3.498 4.547 6.981 6.781 10.446 19.167 29.738 31.799 56.68 38.616 82.364 10.564 39.788 11.414 82.599 2.417 120.547-4.143 17.458-11.482 35.705-19.634 48.812-17.119 27.526-45.684 48.114-73.307 68.024-8.776 6.326-17.064 12.299-24.864 18.409-6.331 4.96-12.927 10.376-19.305 15.612-5.402 4.436-10.988 9.022-16.418 13.337-39.901 31.703-79.428 89.551-116.2 147.342-2.825 4.442-5.624 9.306-8.554 14.872-19.525 37.09-4.827 73.614 6.983 102.963l1.58-.868c-11.66-28.977-26.172-65.039-7.095-101.281 2.905-5.514 5.674-10.329 8.467-14.72 36.675-57.639 76.081-115.321 115.749-146.839 5.441-4.324 11.034-8.915 16.442-13.356 6.369-5.23 12.957-10.639 19.269-15.583 7.77-6.087 16.044-12.05 24.803-18.363 27.781-20.024 56.509-40.73 73.844-68.602 8.266-13.292 15.704-31.776 19.897-49.446 9.08-38.269 8.22-81.425-2.424-121.517-6.866-25.866-19.569-52.971-38.835-82.861-2.234-3.468-4.505-6.953-6.784-10.452-25.833-39.661-52.545-80.672-43.921-119.095 4.465-19.891 17.888-37.256 41.037-53.087 58.647-40.123 134.597-60.694 201.607-78.855 6.58-1.782 13.09-3.55 19.53-5.316 32.96-9.045 68.84-15.869 103.54-22.468 70.82-13.471 144.12-27.419 202.64-61.261 57.04-32.967 52.18-90.634 47.03-151.687l-.21-2.523c-4.1-48.714 3.64-89.539 13.38-134.065z"/><path d="M1531.69-711.779c-12.08 47.472-18.83 86.425-15.11 133.884 4.86 62.002 9.45 120.569-55.11 153.944-58.53 30.259-126.58 45.179-192.39 59.608-38.98 8.545-79.28 17.381-117.01 29.297-67.49 21.307-144.94 48.731-207.648 90.551-22.825 15.219-36.916 33.43-41.884 54.123-10.239 42.652 19.264 90.192 42.971 128.392l1.302 2.1c19.497 31.431 32.465 59.113 39.643 84.625 11.942 42.442 13.151 85.977 3.404 122.583-4.658 17.492-13.316 35.727-22.596 47.591-20.253 25.893-49.032 46.613-76.862 66.652-10.951 7.886-21.296 15.334-31.073 23.037-10.445 8.229-24.175 19.153-37.756 30.694-51.237 43.542-88.735 102.978-111.168 145.172-2.564 4.82-4.636 9.721-6.538 14.328-12.464 30.175 4.8 61.728 18.671 87.082 2.024 3.7 3.935 7.193 5.692 10.566l1.51-1.023c-1.766-3.388-3.681-6.889-5.71-10.596-13.679-25.002-30.703-56.118-18.61-85.395 1.882-4.557 3.932-9.404 6.449-14.14 22.348-42.033 59.691-101.232 110.682-144.564 13.556-11.52 27.268-22.43 37.699-30.649 9.744-7.676 20.072-15.112 31.006-22.986 27.943-20.119 56.838-40.924 77.271-67.046 9.444-12.073 18.247-30.601 22.975-48.353 9.84-36.955 8.63-80.864-3.404-123.638-7.225-25.675-20.256-53.502-39.839-85.073l-1.302-2.1c-23.528-37.912-52.808-85.093-42.763-126.939 4.908-20.446 18.329-37.742 41.027-52.879 62.531-41.686 139.821-69.058 207.191-90.33 37.66-11.893 77.92-20.72 116.86-29.257 65.92-14.451 134.08-29.397 192.82-59.762 65.72-33.957 61.11-93.224 56.2-155.934-3.7-47.181 3.02-85.952 15.05-133.219z"/><path d="M1527.22-725.184c-12.75 43.397-20.49 82.587-16.82 132.786 5.11 69.964 3.31 122.041-66.94 154.699-54.56 25.392-115.16 40.077-173.76 54.278-46.64 11.301-94.87 22.988-140.2 40.04-75.79 28.51-139.424 61.49-189.138 98.01-22.826 16.769-36.343 35.583-41.325 57.519-9.323 41.057 13.863 84.981 38.41 126.452 13.605 22.985 30.429 53.578 39.851 86.413 9.075 31.619 16.897 78.736 2.635 123.637-4.539 14.289-14.519 34.015-26.583 45.874-24.869 24.446-53.739 46.376-81.659 67.585-11.5 8.734-23.391 17.768-34.741 26.785-11.878 9.437-25.863 20.653-39.534 32.286-46.985 39.979-83.884 89.528-106.709 143.291a90 90 0 0 0-4.622 13.86c-7.114 29.255 12.234 54.175 29.304 76.162 4.429 5.704 8.611 11.09 12.073 16.247l1.415-1.184c-3.494-5.202-7.693-10.611-12.138-16.337-16.823-21.668-35.89-46.227-28.999-74.562a88 88 0 0 1 4.512-13.531c22.697-53.463 59.401-102.744 106.144-142.517 13.648-11.614 27.618-22.817 39.484-32.244 11.333-9.004 23.215-18.03 34.706-26.759 27.969-21.247 56.89-43.216 81.849-67.75 10.835-10.65 21.477-28.997 27.113-46.741 14.418-45.391 6.539-92.92-2.609-124.797-9.479-33.031-26.37-63.75-40.027-86.821-24.36-41.154-47.375-84.71-38.213-125.057 4.864-21.418 18.122-39.832 40.532-56.295 49.577-36.421 113.069-69.315 188.699-97.769 45.23-17.016 93.41-28.69 140-39.979 58.68-14.221 119.37-28.926 174.09-54.391 71.37-33.208 73.26-85.912 68.09-156.715-3.65-49.894 4.05-88.875 16.74-132.053z"/><path d="M1522.74-738.583c-16.4 49.001-21.62 85.834-18.61 131.375.29 4.401.64 8.832 1 13.283 1.86 23.419 3.78 47.635-3.22 71-11.68 38.951-41.33 54.992-75.99 70.548-52.08 23.369-109.21 37.566-164.46 51.294-52.65 13.084-107.09 26.613-157.03 48.057-64.13 27.54-123.541 71.605-168.14 106.914-31.588 25.01-45.261 54.487-41.799 90.117 3.04 31.299 19.001 63.379 35.794 93.384 14.434 25.789 30.385 56.379 39.25 87.718 9.318 32.943 16.89 81.15.044 123.733-6.024 15.227-19.004 33.213-31.566 43.739-35.4 29.662-75.644 62.516-123.03 100.44-12.44 9.955-27.055 21.75-41.125 33.745-54.193 46.203-86.906 91.249-102.948 141.763-1.47 4.631-2.422 9.15-2.827 13.43-2.707 28.59 21.914 52.295 41.698 71.342 5.924 5.704 11.519 11.092 15.959 16.158l1.289-1.348c-4.483-5.116-10.103-10.526-16.05-16.253-19.521-18.793-43.813-42.183-41.192-69.873.385-4.073 1.332-8.565 2.737-12.99 15.917-50.12 48.429-94.86 102.315-140.8 14.049-11.978 28.648-23.761 41.076-33.707 47.399-37.933 87.653-70.797 123.066-100.468 12.797-10.724 26.023-29.053 32.163-44.572 17.06-43.124 9.434-91.794.032-125.029-8.915-31.517-24.923-62.22-39.406-88.098-16.7-29.837-32.568-61.715-35.576-92.671-3.388-34.872 10.031-63.75 41.02-88.286 44.505-35.238 103.786-79.208 167.726-106.663 49.8-21.389 104.17-34.9 156.76-47.967 55.32-13.746 112.53-27.961 164.75-51.396 35.11-15.757 65.15-32.035 77.08-71.828 7.12-23.742 5.18-48.15 3.3-71.758-.35-4.441-.7-8.862-.99-13.255-2.99-45.251 2.19-81.863 18.5-130.582z"/><path d="M1518.25-751.973c-17.43 46.197-23.17 82.567-20.47 129.72.21 3.548.44 7.115.68 10.692 1.61 24.154 3.27 49.128-5.33 72.964-14.37 39.843-49.25 55.524-82.99 70.687l-.29.128c-53.55 24.071-111.78 39.784-168.08 54.979-51.75 13.967-105.26 28.409-155.07 49.31-49.92 20.958-88.334 56.008-128.997 93.122-8.479 7.74-17.247 15.744-26.082 23.567-64.591 57.198-37.215 124.581-6.486 183.251 14.586 27.848 29.524 57.623 37.847 88.532 9.16 34.018 15.826 82.953-4.43 122.889-8.093 15.957-24.27 31.883-36.417 42.434-42.631 37.03-88.833 74.69-128.407 106.645-13.057 10.543-28.191 22.819-42.554 35.071-41.028 34.995-85.972 77.606-99.973 140.609-.987 4.449-1.409 8.97-1.216 13.075 1.362 29.134 30.953 51.211 54.731 68.951 6.698 4.997 13.026 9.718 18.127 14.148l1.139-1.497c-5.144-4.467-11.493-9.203-18.215-14.218-23.501-17.533-52.749-39.354-54.072-67.643-.183-3.927.222-8.26 1.171-12.532 13.858-62.364 58.517-104.689 99.289-139.465 14.344-12.237 29.465-24.501 42.512-35.037 39.588-31.966 85.807-69.64 128.463-106.691 12.284-10.671 28.658-26.804 36.904-43.065 20.558-40.527 13.846-89.987 4.595-124.342-8.371-31.085-23.356-60.958-37.988-88.893-30.385-58.013-57.486-124.611 5.987-180.819 8.847-7.834 17.621-15.841 26.105-23.586 40.539-37.002 78.827-71.951 128.457-92.773 49.7-20.859 103.16-35.285 154.85-49.235 56.37-15.213 114.66-30.944 168.34-55.072l.29-.129c34.11-15.33 69.38-31.182 84.05-71.855 8.74-24.252 7.07-49.444 5.45-73.808-.24-3.571-.47-7.13-.68-10.674-2.68-46.84 3.02-82.971 20.33-128.864z"/><path d="M1513.75-765.353c-18.36 43.58-24.63 79.436-22.36 127.885.12 2.582.26 5.171.39 7.763 1.29 24.92 2.62 50.689-7.78 74.976-16 37.353-52.65 54.486-84.98 69.596l-3.04 1.426c-54.91 25.72-114.52 43.336-172.17 60.373-48.72 14.4-99.1 29.289-146.4 49.002-34.51 14.373-70.18 29.238-97.678 63.914l-1.607 2.025c-17.057 21.512-33.169 41.831-52.104 60.849-57.733 57.983-33.756 122.344-4.248 183.296 13.145 27.154 28.044 57.931 35.648 88.846 12.728 51.757 9.083 92.502-10.834 121.105-10.333 14.839-24.226 27.675-37.662 40.089l-2.726 2.519c-39.064 36.171-80.945 70.224-121.447 103.155l-11.301 9.193c-14.397 11.719-29.283 23.836-43.854 36.258-41.938 35.751-89.471 76.272-97.805 139.859-.568 4.329-.519 8.753.141 12.792 5.145 31.501 40.163 51.932 68.3 68.35 6.657 3.884 12.945 7.553 18.31 11.067l.976-1.622c-5.397-3.534-11.701-7.212-18.375-11.106-27.849-16.249-62.509-36.471-67.522-67.17-.631-3.852-.676-8.074-.134-12.21 8.227-62.779 55.437-103.024 97.089-138.53 14.554-12.408 29.432-24.519 43.819-36.23l11.301-9.192c40.527-32.952 82.432-67.026 121.545-103.239l2.722-2.518c13.516-12.488 27.493-25.402 37.955-40.425 20.278-29.121 24.033-70.428 11.16-122.772-7.65-31.1-22.592-61.966-35.775-89.198-29.2-60.318-52.958-123.979 3.816-181 19.018-19.098 35.164-39.461 52.259-61.02l1.607-2.027c27.184-34.271 62.634-49.042 96.904-63.325 47.22-19.674 97.55-34.55 146.23-48.937 57.71-17.056 117.38-34.692 172.41-60.467l3.05-1.424c32.65-15.263 69.65-32.561 85.96-70.64 10.6-24.739 9.25-50.751 7.95-75.906-.13-2.588-.27-5.174-.39-7.752-2.25-48.114 3.97-83.716 22.19-126.979z"/><path d="M1509.25-778.72c-19.43 41.654-26.01 75.792-24.28 125.956l.15 4.291c.93 25.819 1.9 52.518-10.58 77.304-17.46 34.71-53.54 52.917-85.37 68.987l-4.4 2.227c-56.94 28.843-119.08 49.078-179.17 68.647-42.92 13.977-87.3 28.431-129.33 45.884-4.49 1.865-9.22 3.752-14.11 5.702-33.54 13.382-75.282 30.039-95.99 62.472-3.443 5.395-6.787 10.785-10.022 15.997-11.51 18.55-22.383 36.073-36.913 52.84-53.182 61.37-25.963 123.164.358 182.922l2.913 6.603c11.836 26.79 24.074 54.494 30.094 82.844 7.593 35.756 10.414 85.334-19.265 118.466-12.442 13.89-26.42 28.339-42.733 44.174-39.81 38.642-83.595 74.473-125.94 109.124l-15.352 12.569c-13.199 10.806-26.845 21.978-39.991 33.164l-3.099 2.636c-42.106 35.796-89.831 76.369-93.306 136.863-.256 4.462.163 8.956 1.182 12.651 9.743 35.352 53.901 55.846 86.143 70.811 4.347 2.017 8.51 3.949 12.385 5.818l.807-1.715c-3.881-1.873-8.051-3.808-12.405-5.829-31.967-14.838-75.748-35.156-85.286-69.763-.964-3.5-1.361-7.77-1.116-12.023 3.423-59.592 50.786-99.858 92.574-135.383l3.099-2.636c13.131-11.173 26.772-22.34 39.963-33.14l15.352-12.569c42.376-34.677 86.195-70.535 126.066-109.236 16.346-15.868 30.356-30.35 42.831-44.276 30.268-33.79 27.454-84.058 19.762-120.277-6.059-28.535-18.335-56.324-30.207-83.199l-2.913-6.6c-27.274-61.923-53.037-120.411-.719-180.784 14.638-16.892 25.552-34.484 37.109-53.107 3.232-5.208 6.571-10.592 10.008-15.974 20.356-31.889 61.781-48.416 95.071-61.697 4.89-1.955 9.63-3.845 14.13-5.713 41.97-17.426 86.31-31.869 129.2-45.835 60.16-19.59 122.37-39.846 179.42-68.754l4.4-2.224c32.11-16.202 68.49-34.567 86.26-69.887 12.72-25.272 11.75-52.241 10.8-78.322l-.15-4.287c-1.72-49.802 4.81-83.681 24.08-125.001z"/><path d="M1504.77-792.079c-23.33 45.38-27.28 79.87-26.23 124.11 1.87 78.14-32.92 112.377-102.1 151.646q-1.215.69-2.43 1.371c-59.22 33.243-124.98 56.83-188.6 79.65-34.03 12.207-69.22 24.828-102.67 38.696-5.9 2.443-12.17 4.907-18.81 7.516-36.66 14.413-82.286 32.346-107.087 64.45-8.996 11.644-16.405 25.31-23.569 38.527-6.784 12.516-13.8 25.459-22.162 36.689-43.763 58.775-22.865 109.168-.742 162.52 2.981 7.189 6.064 14.622 8.991 22.083 1.362 3.471 2.75 6.966 4.146 10.482 9.993 25.162 20.327 51.18 24.729 77.474 7.647 45.667-2.879 87.715-28.876 115.364-4.96 5.275-9.944 10.721-15.22 16.488-9.288 10.15-18.893 20.647-28.477 30.271-43.41 43.594-91.791 83.405-138.58 121.906l-10.443 8.581c-11.92 9.783-24.244 19.9-36.141 29.992-2.838 2.407-5.819 4.903-8.902 7.485-39.202 32.821-92.89 77.771-85.397 132.338.575 4.19 1.792 8.585 3.52 12.708 16.974 40.508 63.17 59.764 105.139 74.632l.658-1.778c-41.661-14.76-87.508-33.848-104.226-73.749-1.668-3.98-2.842-8.215-3.396-12.247-7.337-53.433 45.84-97.955 84.668-130.464a1789 1789 0 0 0 8.913-7.494c11.883-10.081 24.202-20.192 36.115-29.971l10.445-8.582c46.827-38.531 95.247-78.374 138.727-122.039 9.614-9.654 19.234-20.167 28.537-30.333 5.271-5.761 10.25-11.203 15.2-16.468 26.453-28.131 37.177-70.824 29.423-117.13-4.434-26.49-14.804-52.6-24.833-77.85-1.395-3.513-2.782-7.005-4.143-10.474-2.934-7.477-6.02-14.918-9.003-22.114-21.905-52.821-42.593-102.712.46-160.536 8.454-11.354 15.507-24.364 22.327-36.945 7.124-13.144 14.49-26.733 23.382-38.244 24.469-31.668 69.827-49.497 106.267-63.824 6.65-2.612 12.93-5.08 18.84-7.53 33.42-13.85 68.58-26.465 102.59-38.663 63.69-22.845 129.53-46.459 188.87-79.774.82-.458 1.63-.914 2.44-1.376 28.46-16.155 57.44-34.568 76.61-59.704 19.03-24.939 27.46-54.744 26.53-93.796-1.05-43.903 2.86-78.12 25.99-123.098z"/><path d="M1500.31-805.424c-24.15 43.124-28.53 76.24-28.16 122.265.62 76.74-41.56 110.788-101.24 150.51-62.26 41.442-133.98 69.328-203.34 96.295-23.67 9.202-48.14 18.716-71.58 28.537-5.08 2.132-10.23 4.26-15.42 6.402-43.92 18.15-89.335 36.917-126.048 69.39-17.33 15.323-27.836 35.273-37.994 54.565-4.674 8.873-9.506 18.05-14.976 26.767-36.416 58.026-17.979 100.632 3.369 149.967 5.012 11.58 10.193 23.556 14.778 36.084l.262.714c10.245 27.996 20.84 56.944 24.032 86.011 4.717 42.944-6.358 75.684-38.226 113.007-12.807 15-28.067 32.57-44.134 49.143-44.678 46.08-94.263 87.74-141.222 126.462a7183 7183 0 0 1-14 11.503c-10.936 8.971-22.244 18.247-33.173 27.477a1534 1534 0 0 1-10.254 8.555c-38.741 32.142-91.8 76.163-79.82 131.201.897 4.126 2.405 8.436 4.358 12.465 19.457 40.148 68.835 68.231 107.556 75.222l.424-1.842c-38.344-6.922-87.221-34.688-106.448-74.362-1.894-3.904-3.352-8.076-4.22-12.063-11.714-53.822 40.781-97.374 79.111-129.175 3.553-2.947 6.994-5.803 10.266-8.566 10.919-9.221 22.221-18.493 33.151-27.458 4.678-3.836 9.352-7.671 14.004-11.507 47.003-38.757 96.636-80.459 141.386-126.614 16.106-16.613 31.392-34.213 44.221-49.238 32.289-37.816 43.508-71.016 38.722-114.593-3.218-29.295-13.851-58.35-24.135-86.449l-.26-.713c-4.602-12.577-9.795-24.575-14.817-36.179-21.129-48.829-39.377-90.998-3.544-148.098 5.513-8.785 10.365-17.997 15.057-26.906 10.534-20.006 20.484-38.9 37.531-53.976 36.479-32.26 81.753-50.962 125.523-69.058 5.19-2.143 10.34-4.271 15.43-6.404 23.41-9.812 47.88-19.322 71.53-28.52 69.45-27.004 141.28-54.926 203.7-96.48 58.26-38.785 102.79-74.626 102.16-152.26-.37-45.665 3.96-78.508 27.88-121.217z"/><path d="M1495.86-818.75c-24.82 41.05-29.59 72.819-30.04 120.595-.65 69.464-42.88 104.134-91.78 144.278l-6.17 5.078c-61.37 50.541-136.57 81.574-209.29 111.588-14.39 5.94-29.28 12.083-43.61 18.206l-2.5 1.071c-52.11 22.262-105.98 45.277-154.732 78.465-33.536 22.829-44.96 44.67-62.253 77.734-1.586 3.033-3.22 6.158-4.925 9.385-30.875 58.44-10.174 101.432 11.742 146.948 6.396 13.284 13.009 27.02 18.29 41.218 10.566 28.412 17.46 59.381 18.911 84.967 2.554 45.044-18.665 75.825-46.673 111.384-13.543 17.193-28.391 34.451-44.131 51.293-41.519 44.426-87.184 84.147-142.976 130.122-5.757 4.743-11.552 9.483-17.35 14.226-10.144 8.297-20.632 16.876-30.772 25.367a1468 1468 0 0 1-10.156 8.4c-38.644 31.78-91.57 75.301-75.668 130.52 1.173 4.072 2.919 8.345 5.049 12.356 19.697 37.098 65.487 70.74 106.512 78.252l.429-1.841c-40.616-7.439-85.946-40.734-105.44-77.45-2.074-3.906-3.773-8.062-4.911-12.017-15.532-53.935 36.782-96.955 74.981-128.366 3.512-2.889 6.921-5.692 10.168-8.411 10.132-8.484 20.616-17.06 30.755-25.353a6128 6128 0 0 0 17.357-14.231c55.852-46.024 101.572-85.795 143.166-130.3 15.779-16.884 30.665-34.186 44.244-51.427 28.288-35.916 49.722-67.028 47.125-112.803-1.461-25.77-8.397-56.94-19.024-85.517-5.309-14.274-11.941-28.047-18.354-41.367-21.699-45.067-42.195-87.634-11.809-145.15 1.707-3.23 3.343-6.357 4.931-9.393 17.146-32.785 28.473-54.441 61.592-76.987 48.602-33.082 102.392-56.067 154.422-78.294l2.5-1.07c14.32-6.121 29.2-12.26 43.59-18.199 72.85-30.067 148.18-61.161 209.76-111.874l6.18-5.075c49.3-40.477 91.87-75.434 92.54-145.883.44-47.394 5.16-78.891 29.73-119.518z"/><path d="M1491.4-832.085c-27.7 41.774-29.39 74.219-31.74 119.124-2.91 55.898-33.42 86.994-68.74 123.002-7.94 8.098-16.16 16.471-24.22 25.33-54.02 59.387-128.97 91.648-201.46 122.852-9.07 3.905-18.05 7.77-26.88 11.647-14.02 6.154-29.07 12.222-44.99 18.645-80.28 32.382-180.188 72.674-215.17 157.008-12.273 29.583-22.465 58.841-12.532 91.473 6.279 20.623 18.575 39.924 30.467 58.589 8.916 13.993 17.338 27.212 23.003 40.472 9.444 22.1 14.705 50.86 15.214 83.17.607 38.51-25.073 72.573-47.729 102.627-1.983 2.631-3.948 5.238-5.875 7.819-13.411 17.967-28.131 35.871-43.75 53.215-44.662 49.594-95.793 93.338-144.394 133.221a5103 5103 0 0 1-19.489 15.888c-9.729 7.904-19.789 16.078-29.514 24.164-3.039 2.527-6.214 5.125-9.476 7.795-38.515 31.512-91.26 74.67-72.281 129.71 1.419 4.117 3.305 8.282 5.603 12.379 22.025 39.259 65.115 72.983 104.786 82.011l.492-1.828c-38.664-8.801-82.316-42.973-103.794-81.258-2.248-4.008-4.091-8.077-5.477-12.096-18.52-53.709 33.578-96.337 71.618-127.462 3.266-2.673 6.446-5.274 9.488-7.805 9.716-8.079 19.772-16.249 29.497-24.15a5013 5013 0 0 0 19.496-15.893c48.662-39.934 99.861-83.737 144.613-133.431 15.662-17.391 30.422-35.344 43.871-53.362 1.926-2.58 3.888-5.183 5.869-7.812 22.863-30.326 48.776-64.7 48.158-103.93-.512-32.557-5.824-61.563-15.361-83.881-5.722-13.39-14.179-26.664-23.133-40.718-11.83-18.569-24.064-37.769-30.271-58.162-9.744-32.005.33-60.886 12.451-90.108 34.648-83.527 134.14-123.657 214.08-155.9 15.94-6.429 30.99-12.5 45.04-18.668 8.83-3.874 17.8-7.737 26.87-11.64 72.67-31.279 147.81-63.626 202.13-123.326 8.03-8.832 16.23-17.192 24.16-25.275 34.14-34.803 66.38-67.675 69.34-124.372 2.33-44.571 4.01-76.774 31.39-118.062z"/><path d="M1486.97-845.431c-27.63 38.504-29.86 69.302-32.96 111.928l-.45 6.238c-3.24 43.823-25.98 70.327-50.05 98.387-12.75 14.858-25.93 30.219-36.93 48.89-38.98 66.122-114.09 99.589-180.36 129.119-7.36 3.28-14.6 6.505-21.64 9.714-18.51 8.424-37.47 16.796-55.8 24.892-43.29 19.114-88.05 38.878-131.016 61.169-2.175 1.13-4.392 2.272-6.643 3.433-40.473 20.873-90.835 46.833-106.46 94.454-11.936 36.381-19.489 64.579-7.889 96.234 7.555 20.616 20.834 39.502 33.675 57.765 9.586 13.633 18.641 26.511 25.258 39.798 11.701 23.495 15.873 50.654 12.399 80.725-3.983 34.477-29.465 69.898-49.94 98.359a1408 1408 0 0 0-8.514 11.916c-11.941 16.955-26.022 34.908-43.049 54.889-44.224 51.891-96.164 95.51-145.574 135.739-6.656 5.421-13.38 10.83-20.105 16.241-9.799 7.884-19.932 16.035-29.7 24.104-2.819 2.328-5.765 4.725-8.797 7.192-38.458 31.288-91.128 74.139-69.246 128.532 1.814 4.508 3.842 8.719 6.029 12.517 19.7 34.225 59.16 74.136 102.907 86.147l.556-1.815c-43.335-11.898-82.449-51.478-101.99-85.425-2.146-3.73-4.139-7.867-5.922-12.3-21.331-53.023 30.652-95.315 68.608-126.196 3.036-2.469 5.986-4.87 8.808-7.202 9.759-8.06 19.887-16.208 29.681-24.088 6.728-5.413 13.454-10.824 20.114-16.247 49.482-40.288 101.501-83.975 145.836-135.996 17.068-20.03 31.188-38.033 43.166-55.042 2.704-3.838 5.561-7.81 8.502-11.899 20.62-28.662 46.283-64.333 50.328-99.36 3.519-30.455-.712-57.975-12.575-81.793-6.674-13.402-15.763-26.33-25.387-40.016-12.779-18.175-25.993-36.968-33.47-57.371-11.385-31.07-3.908-58.94 7.898-94.923 15.356-46.802 65.32-72.562 105.466-93.263q3.381-1.742 6.648-3.435c42.918-22.267 87.648-42.02 130.908-61.121 18.35-8.098 37.31-16.472 55.82-24.901 7.05-3.207 14.28-6.429 21.64-9.708 66.53-29.645 141.94-63.247 181.24-129.934 10.91-18.509 24.03-33.798 36.72-48.586 24.31-28.333 47.27-55.096 50.56-99.614l.45-6.242c3.18-43.855 5.29-72.826 32.56-110.84z"/><path d="M1482.56-858.791c-27.66 35.737-30.14 64.165-33.57 103.512-.39 4.505-.8 9.159-1.25 13.989-2.88 30.331-9.05 51.311-33.39 75.294l-.66.651c-23.09 22.745-38.34 37.771-47.29 70.585-19.46 71.396-100.38 108.554-159.46 135.68-5.21 2.392-10.27 4.716-15.14 6.991-30.06 14.052-61.43 27.464-91.76 40.434-35.62 15.23-72.46 30.981-107.983 48.085-5.337 2.569-11.316 5.326-17.645 8.244-43.373 19.998-108.923 50.215-124.234 94.647-11.032 32.019-19.12 66.501-3.729 101.705 8.732 19.973 22.364 37.881 35.547 55.199 10.609 13.938 20.631 27.103 28.167 41.123 14.362 26.718 17.388 49.985 10.12 77.799-8.625 33.011-33.153 69.615-52.861 99.026-2.691 4.017-5.311 7.927-7.814 11.712-11.541 17.443-25.304 35.858-42.076 56.296-43.672 53.22-96.376 97.191-146.615 137.668-6.577 5.299-13.237 10.584-19.9 15.87-10.131 8.039-20.607 16.351-30.623 24.594-2.38 1.96-4.844 3.967-7.364 6.02-38.217 31.131-90.557 73.765-67.452 127.741 1.975 4.613 4.107 8.914 6.338 12.783 18.936 32.85 56.738 76.284 100.957 90.58l.619-1.796c-43.811-14.165-81.306-57.27-100.104-89.879-2.197-3.811-4.298-8.051-6.246-12.602-22.512-52.591 29.126-94.654 66.83-125.366 2.524-2.056 4.989-4.064 7.373-6.026 10.001-8.232 20.47-16.54 30.595-24.573 6.666-5.289 13.331-10.577 19.912-15.879 50.32-40.543 103.114-84.59 146.91-137.96 16.818-20.495 30.623-38.967 42.204-56.472 2.501-3.78 5.118-7.687 7.808-11.701 19.798-29.545 44.436-66.316 53.154-99.679 7.408-28.349 4.338-52.037-10.266-79.207-7.599-14.137-17.658-27.352-28.309-41.342-13.124-17.241-26.694-35.069-35.345-54.856-15.128-34.603-7.13-68.639 3.766-100.263 15.019-43.583 80.109-73.594 123.181-93.45 6.337-2.923 12.321-5.681 17.671-8.257 35.494-17.088 72.304-32.83 107.904-48.053 30.35-12.974 61.73-26.392 91.82-40.456 4.86-2.274 9.92-4.598 15.13-6.988 59.43-27.29 140.84-64.668 160.56-137.012 8.79-32.256 23.89-47.124 46.73-69.631l.66-.651c24.8-24.435 31.09-45.774 34.01-76.603.46-4.835.86-9.495 1.26-14.005 3.4-38.986 5.85-67.153 33.12-102.392z"/><path d="M1478.17-872.159c-27.91 33.503-30.34 60.076-33.72 96.857-.56 6.123-1.14 12.455-1.87 19.173-3.71 34.145-13.41 53.409-38.47 76.347l-.4.363c-23.18 21.217-39.92 36.548-38.85 70.524 2.37 75.057-84.6 115.792-142.15 142.743l-5.78 2.711c-36.24 17.036-73.98 32.894-110.48 48.232-32.42 13.622-65.93 27.707-98.46 42.635-7.84 3.594-16.249 7.294-25.156 11.21-53.649 23.591-120.416 52.954-144.724 96.524-33.34 59.757 1.968 110.734 36.113 160.033 9.726 14.043 19.784 28.564 28.098 43.065 11.235 19.595 22.306 45.766 8.078 74.445l-.282.569c-18.628 37.548-37.89 76.374-59.479 111.254-11.038 17.832-24.416 36.621-40.897 57.441-42.729 53.973-96.341 98.251-147.591 138.976-5.709 4.537-11.501 9.06-17.3 13.588-11.17 8.722-22.72 17.741-33.548 26.786a1469 1469 0 0 1-9.381 7.746c-38.505 31.611-86.426 70.954-63.073 124.113 2.087 4.751 4.286 9.177 6.537 13.157 26.182 46.285 63.195 81.885 99.013 95.23l.681-1.775c-35.495-13.225-72.21-48.567-98.215-94.539-2.222-3.929-4.395-8.304-6.459-13.001-22.745-51.774 24.501-90.562 62.463-121.727 3.22-2.644 6.367-5.228 9.393-7.756 10.805-9.026 22.341-18.034 33.5-26.746 5.802-4.531 11.599-9.058 17.312-13.598 51.342-40.798 105.055-85.162 147.919-139.306 16.533-20.884 29.956-39.739 41.037-57.641 21.644-34.965 40.928-73.838 59.578-111.43l.282-.568c14.661-29.553 3.377-56.304-8.092-76.309-8.349-14.563-18.427-29.113-28.173-43.185-33.819-48.828-68.789-99.318-36.073-157.957 23.973-42.967 90.41-72.184 143.796-95.661 8.914-3.921 17.333-7.623 25.173-11.223 32.51-14.916 66.01-28.996 98.42-42.612 36.51-15.344 74.27-31.212 110.54-48.262l5.78-2.71c58.03-27.18 145.72-68.252 143.31-144.684-1.04-33.009 15.4-48.065 38.17-68.904l.4-.365c25.49-23.337 35.37-42.939 39.14-77.68.74-6.735 1.32-13.076 1.88-19.209 3.33-36.396 5.74-62.692 33.23-95.686z"/><path d="M1473.8-885.533c-28.23 31.513-30.43 56.383-33.49 90.805-.64 7.256-1.31 14.76-2.27 22.888-4.34 36.832-18 54.761-43.36 76.801-21.22 18.452-37.1 35.171-32.67 67.956 3.76 27.906 5.14 49.477-11.53 72.995-26.44 37.297-72.34 59.529-109.23 77.389l-3.58 1.734c-41.76 20.246-85.5 38.571-127.8 56.29-28.05 11.75-57.05 23.899-85.27 36.519-10.02 4.485-20.42 8.943-31.438 13.662-58.586 25.101-124.983 53.555-162.571 98.822-49.714 59.871-6.956 115.905 30.77 165.343 11.587 15.184 22.531 29.526 30.678 43.558 16.183 27.872 18.099 51.097 5.856 71.003-10.852 17.643-20.06 38.588-28.966 58.844-8.122 18.475-16.521 37.579-26.235 54.418-10.451 18.118-23.395 37.192-39.57 58.311-41.504 54.193-96.151 98.704-148.566 139.649l-7.38 5.761c-14.148 11.035-28.779 22.445-42.747 33.907a1535 1535 0 0 1-9.524 7.726c-38.163 30.795-85.658 69.119-62.118 122.896 2.151 4.913 4.383 9.497 6.637 13.625 12.593 23.075 47.268 79.012 97.156 100.01l.738-1.754c-49.446-20.814-83.887-76.391-96.401-99.319-2.229-4.086-4.44-8.625-6.571-13.493-22.927-52.375 21.923-88.566 61.494-120.497 3.245-2.619 6.439-5.196 9.535-7.737 13.95-11.446 28.571-22.849 42.709-33.877l7.383-5.76c52.516-41.027 107.276-85.631 148.927-140.015 16.232-21.194 29.225-40.344 39.724-58.544 9.772-16.94 18.195-36.1 26.341-54.627 8.876-20.19 18.054-41.066 28.829-58.583 12.68-20.616 10.79-44.51-5.78-73.047-8.2-14.122-19.175-28.503-30.792-43.728-37.299-48.878-79.572-104.276-30.907-162.885 37.282-44.899 103.46-73.255 161.847-98.275 11.022-4.721 21.432-9.181 31.472-13.671 28.19-12.612 57.18-24.756 85.22-36.501 42.32-17.731 86.09-36.065 127.89-56.331l3.58-1.736c37.08-17.952 83.24-40.304 109.98-78.028 17.12-24.156 15.73-46.111 11.9-74.49-4.28-31.753 11.24-48.068 31.98-66.098 25.75-22.393 39.64-40.629 44.06-78.153.96-8.158 1.63-15.676 2.28-22.947 3.01-34.011 5.2-58.586 32.95-89.572z"/><path d="M1469.45-898.907c-29.42 30.401-31.32 55.351-33.96 89.882-.51 6.635-1.03 13.496-1.79 20.861-3.43 33.569-17.39 51.535-40.35 71.225-22.76 19.512-40.73 34.925-34.4 68.908 4.72 25.376 7.94 54.756-3.98 80.275-17.69 37.853-60.42 59.714-94.75 77.283-2.58 1.322-5.11 2.617-7.58 3.889-46.09 23.817-94.95 44.494-142.21 64.491-22.82 9.659-46.42 19.646-69.4 29.855-10.78 4.791-21.63 9.473-33.12 14.43-61.954 26.745-132.182 57.055-180.957 102.612-20.121 18.792-31.005 37.917-33.274 58.467-4.432 40.119 25.126 77.369 53.71 113.391 12.004 15.127 23.341 29.415 31.874 43.534C894.266-34.98 896.005-12.65 884.58 8.46c-9.222 17.042-16.84 37.114-24.206 56.525-7.459 19.653-15.171 39.974-24.706 57.776-9.813 18.319-22.291 37.586-38.15 58.904-42.694 57.401-101.956 103.015-149.574 139.666a3906 3906 0 0 1-16.691 12.749c-11.033 8.394-22.441 17.074-33.362 25.778-2.457 1.958-4.956 3.931-7.478 5.923-40.724 32.154-86.881 68.599-63.207 124.132 2.222 5.213 4.395 9.852 6.643 14.183 15.428 29.716 48.345 82.851 95.469 104.831l.791-1.734c-46.717-21.79-79.418-74.593-94.752-104.13-2.227-4.292-4.383-8.893-6.587-14.064-23.073-54.123 22.42-90.043 62.559-121.735 2.525-1.994 5.026-3.969 7.486-5.929 10.903-8.689 22.302-17.363 33.326-25.75 5.583-4.249 11.163-8.494 16.7-12.756 47.717-36.727 107.101-82.436 149.967-140.066 15.92-21.403 28.454-40.758 38.317-59.169 9.602-17.925 17.339-38.314 24.822-58.03 7.342-19.345 14.934-39.35 24.086-56.264 11.804-21.812 10.066-44.785-5.314-70.232-8.588-14.21-19.956-28.537-31.992-43.706-28.363-35.743-57.693-72.705-53.348-112.037 2.211-20.021 12.88-38.714 32.616-57.147 48.53-45.328 115.58-74.267 180.415-102.254 11.49-4.96 22.35-9.644 33.13-14.436 22.97-10.205 46.56-20.188 69.38-29.844 47.28-20.009 96.18-40.701 142.33-64.548 2.47-1.274 5-2.567 7.58-3.888 34.59-17.703 77.65-39.731 95.65-78.241 12.18-26.062 8.93-55.838 4.15-81.529-6.11-32.811 10.59-47.13 33.7-66.948 23.36-20.032 37.57-38.338 41.08-72.616.75-7.394 1.28-14.266 1.79-20.915 2.6-34.086 4.48-58.714 33.36-88.566z"/><path d="M1465.1-912.282c-29.6 28.475-31.1 51.587-33.17 83.576-.48 7.393-.98 15.038-1.85 23.428-2.95 28.364-21.86 46.575-40.15 64.188-21.48 20.681-41.76 40.215-35.39 74.057 5.52 29.321 4.33 51.762-3.98 75.034-17.51 49.064-51.14 71.525-90.05 93.835-56.11 32.202-118.41 57.935-178.62 82.821-88.545 36.593-180.103 74.428-255.291 133.865-50.36 39.806-63.503 81.815-40.183 128.428 11.116 22.217 28.41 40.038 45.134 57.272 11.331 11.677 23.048 23.75 32.467 36.896 13.622 19.01 15.738 39.548 6.86 66.592-2.531 7.714-5.01 15.498-7.494 23.3-9.855 30.95-20.045 62.956-33.997 91.302-9.046 18.379-20.704 37.194-36.688 59.209-39.83 54.86-94.124 96.997-150.936 138.878-5.08 3.746-10.205 7.476-15.338 11.213-11.633 8.469-23.663 17.226-35.089 26.117l-4.069 3.16c-41.741 32.403-89.053 69.127-65.377 126.949 2.357 5.755 4.443 10.462 6.567 14.812 15.002 30.733 47.168 85.839 94.039 109.602l.834-1.713c-46.474-23.56-78.432-78.334-93.346-108.886-2.107-4.315-4.179-8.988-6.521-14.707-23.095-56.406 23.552-92.615 64.707-124.562l4.07-3.162c11.402-8.872 23.419-17.62 35.039-26.079 5.136-3.739 10.265-7.472 15.348-11.219C699.57 279.945 753.996 237.702 794 182.601c16.057-22.116 27.775-41.029 36.876-59.521 14.024-28.492 24.239-60.576 34.118-91.602 2.481-7.795 4.958-15.574 7.489-23.282 9.097-27.715 6.913-48.783-7.082-68.315-9.489-13.243-21.247-25.36-32.618-37.076-16.64-17.147-33.846-34.878-44.848-56.866-22.834-45.64-9.888-86.833 39.579-125.935 74.981-59.266 166.418-97.057 254.846-133.602 60.26-24.909 122.57-50.625 178.83-82.924 39.26-22.512 73.2-45.195 90.96-94.937 8.44-23.65 9.65-46.413 4.06-76.111-6.16-32.742 13.73-51.892 34.78-72.165 18.56-17.875 37.76-36.359 40.79-65.502.88-8.43 1.37-16.094 1.85-23.509 2.04-31.507 3.52-54.273 32.53-82.179z"/><path d="M1460.75-925.65c-29.8 26.673-30.82 47.961-32.23 77.427-.38 7.919-.78 16.108-1.73 25.313-3 28.95-22.11 46.367-40.58 63.21-22.1 20.155-42.98 39.191-37.65 75.914 10.41 71.572-38.61 140.504-88.55 174.264-65.7 44.399-140.55 77.048-212.94 108.622-74.441 32.467-151.417 66.041-218.092 112.326-49.405 34.297-90.936 74.518-60.561 136.061 10.234 20.74 26.707 37.165 42.636 53.048 13.548 13.51 26.343 26.27 35.222 41.22 13.281 22.364 13.93 39.049 10.386 65.837-4.951 37.395-16.991 79.139-33.036 114.528-8.326 18.364-19.524 37.183-35.24 59.222-41.834 58.663-103.609 102.237-153.246 137.249-3.824 2.698-7.669 5.39-11.52 8.084-13.012 9.107-26.467 18.524-39.147 28.237-42.752 32.752-91.208 69.873-67.833 130.746 2.346 6.107 4.385 11.034 6.418 15.505 14.405 31.688 45.638 88.664 92.954 114.226l.867-1.697c-46.921-25.349-77.953-81.982-92.275-113.485-2.018-4.437-4.043-9.333-6.376-15.408-22.833-59.459 22.905-94.499 67.137-128.385 12.648-9.688 26.085-19.092 39.08-28.187 3.852-2.697 7.7-5.389 11.527-8.088 49.76-35.101 111.688-78.783 153.727-137.732 15.799-22.154 27.062-41.087 35.448-59.583C841.274 87.25 853.378 45.285 858.355 7.69c3.606-27.247 2.937-44.23-10.618-67.056-8.983-15.126-21.848-27.955-35.469-41.537-15.837-15.791-32.213-32.121-42.328-52.616-29.704-60.187 11.215-99.732 59.859-133.499 66.52-46.188 143.412-79.718 217.771-112.15 72.47-31.609 147.41-64.288 213.24-108.787 50.46-34.109 99.98-103.827 89.45-176.29-5.18-35.627 15.3-54.297 36.97-74.062 18.77-17.111 38.18-34.802 41.26-64.565.96-9.262 1.36-17.48 1.74-25.427 1.39-28.948 2.39-49.862 31.53-75.947z"/><path d="M1456.41-939.016c-30.01 24.988-30.52 44.473-31.24 71.439-.2 7.873-.44 16.796-1.44 26.658-3.02 29.612-22.38 46.837-41.11 63.494-21.87 19.456-44.49 39.573-41.7 79.299 4.96 70.763-46.57 127.917-87.98 173.844l-3.13 3.465c-30.19 33.514-82.59 56.652-128.82 77.061-14.32 6.323-27.85 12.294-40.59 18.453-14.32 6.924-29 13.915-43.2 20.678-68.743 32.748-139.832 66.61-203.666 108.139l-.316.205c-25.056 16.299-53.455 34.773-72.032 57.958-21.674 27.05-25.53 55.151-11.788 85.905 9.641 21.577 26.46 38.275 42.724 54.423 13.288 13.193 25.84 25.654 34.155 40.185 10.689 18.683 15.561 38.923 15.795 65.626.31 35.329-8.43 77.008-23.981 114.349-7.603 18.255-18.361 36.982-33.858 58.937-38.996 55.249-95.542 93.63-150.226 130.748l-6.227 4.228c-2.698 1.833-5.407 3.666-8.119 5.502-14.207 9.612-28.897 19.552-42.613 29.992-50.151 38.168-86.841 72.12-65.806 131.948 2.159 6.135 4.189 11.452 6.206 16.251 13.687 32.57 43.879 91.289 92.301 118.603l.892-1.684c-48.024-27.09-78.02-85.452-91.626-117.83-2.004-4.767-4.02-10.05-6.167-16.153-20.581-58.533 15.621-91.983 65.085-129.628 13.674-10.406 28.342-20.331 42.526-29.929q4.071-2.752 8.123-5.505l6.226-4.226c54.832-37.218 111.53-75.702 150.742-131.258 15.59-22.088 26.422-40.947 34.087-59.352 15.657-37.6 24.459-79.582 24.146-115.185-.238-27.048-5.183-47.568-16.033-66.531-8.424-14.724-21.05-27.26-34.417-40.53-16.16-16.044-32.87-32.635-42.385-53.929-30.226-67.648 32.576-108.5 83.039-141.326l.315-.204c63.73-41.459 134.762-75.296 203.458-108.02 14.2-6.763 28.88-13.757 43.21-20.682 12.71-6.145 26.22-12.111 40.53-18.428 46.41-20.489 99.01-43.71 129.47-77.539l3.13-3.464c41.68-46.226 93.55-103.757 88.53-175.412-2.72-38.692 18.51-57.579 40.99-77.572 19.03-16.925 38.7-34.428 41.81-64.871 1.01-9.939 1.25-18.903 1.45-26.812.73-27.391 1.2-45.487 30.48-69.866z"/><path d="M1452.06-952.372c-30.24 23.428-30.25 40.236-30.25 65.676 0 8.043-.01 17.16-1.04 27.551-2.62 26.338-17.84 37.823-35.46 51.122-5.58 4.207-11.34 8.557-16.92 13.574-24.56 22.074-36.25 48.899-36.8 84.423-.83 53.873-34.44 92.249-66.94 129.363-10.69 12.211-21.75 24.838-31.57 37.899-37.7 50.146-88.02 76.158-141.29 103.692l-4.13 2.135c-22.39 11.583-45.4 23.118-67.64 34.273-60.344 30.254-122.736 61.54-180.262 97.454a1536 1536 0 0 1-11.5 7.088c-49.584 30.378-124.517 76.285-98.249 145.233 9.048 23.747 26.15 41.305 42.688 58.286 11.223 11.522 22.828 23.438 31.454 36.969 12.413 19.474 20.822 43.458 23.072 65.803 3.769 37.446-1.073 74.834-14.803 114.3-7.307 21.003-19.975 40.44-32.577 58.315-36.214 51.371-89.4 85.979-140.835 119.449a3863 3863 0 0 0-19.559 12.785l-5.107 3.366c-15.216 10.019-30.949 20.381-45.486 31.478-46.502 35.505-83.367 70.073-63.363 133.713a283 283 0 0 0 5.94 17.037c12.895 33.386 42.017 93.712 92.174 122.63l.904-1.68c-49.745-28.68-78.675-88.63-91.491-121.813a282 282 0 0 1-5.902-16.929c-19.64-62.481 15.131-95.187 62.626-131.45 14.483-11.057 30.189-21.4 45.377-31.402l5.109-3.366a3707 3707 0 0 1 19.549-12.779c51.592-33.571 104.941-68.286 141.385-119.981 12.691-18.005 25.456-37.595 32.85-58.851 13.834-39.765 18.712-77.446 14.912-115.197-2.277-22.625-10.785-46.898-23.341-66.595-8.715-13.672-20.378-25.646-31.657-37.226-16.423-16.862-33.406-34.299-42.328-57.717-25.668-67.37 48.383-112.739 97.385-142.758a1609 1609 0 0 0 11.514-7.097c57.451-35.873 119.804-67.135 180.101-97.37 22.26-11.157 45.27-22.695 67.67-34.283l4.13-2.136c53.47-27.643 103.98-53.75 141.96-104.264 9.78-12.998 20.81-25.596 31.48-37.779 32.75-37.403 66.62-76.082 67.46-130.736.54-34.89 12.01-61.224 36.1-82.874 5.52-4.962 11.25-9.287 16.79-13.468 17.26-13.029 33.57-25.335 36.28-52.606 1.05-10.493 1.05-19.662 1.05-27.755.01-24.811.01-41.203 29.44-64.003z"/><path d="M1447.7-965.724c-13.78 10.006-28.45 22.486-32.86 39.188-2.56 9.736-.59 18.708 1.31 27.386 1.52 6.932 3.09 14.101 2.26 21.508-2.83 25.147-20.12 37.6-38.43 50.784-8.03 5.788-16.34 11.774-23.24 18.902-24.76 25.582-31.97 57.564-36.06 88.313-6.64 49.802-39.61 84.511-71.49 118.077-12.76 13.426-25.94 27.308-37.38 42.04-5.44 7.014-10.51 14.63-15.88 22.693-9.47 14.225-19.26 28.932-31.15 39.867-18.47 16.972-40.94 29.621-62.69 41.848-3.95 2.217-7.85 4.417-11.69 6.612-34.39 19.679-70 38.527-104.445 56.748-46.135 24.397-93.841 49.63-138.796 77.051-5.047 3.08-10.851 6.472-16.996 10.062-52.316 30.571-139.878 81.736-119.78 150.799 7.788 26.759 26.366 46.519 44.331 65.63 9.194 9.778 18.702 19.891 26.432 30.675 16.107 22.47 26.564 44.7 31.081 66.073 8.068 38.186 6.105 75.617-6.003 114.432-6.436 20.635-18.926 39.786-31.466 57.408-33.99 47.77-84.843 79.323-134.022 109.838-10.193 6.324-20.733 12.864-30.774 19.351l-2.526 1.632c-16.016 10.34-32.576 21.034-47.699 32.74-52.363 40.53-77.523 74.217-60.558 136.054 1.583 5.768 3.478 11.773 5.632 17.849 20.632 58.192 54.408 104.19 92.665 126.199l.902-1.68c-37.942-21.827-71.462-67.511-91.964-125.337-2.14-6.034-4.021-11.996-5.591-17.721-16.659-60.719 8.168-93.892 59.81-133.864 15.058-11.655 31.583-22.326 47.566-32.645l2.526-1.632c10.027-6.477 20.559-13.013 30.745-19.333 49.345-30.617 100.369-62.276 134.599-110.384 12.643-17.768 25.242-37.094 31.769-58.019 12.218-39.169 14.2-76.938 6.057-115.469-4.568-21.619-15.121-44.071-31.367-66.735-7.791-10.87-17.335-21.021-26.565-30.84-17.832-18.967-36.273-38.581-43.945-64.942-19.649-67.518 67.041-118.175 118.836-148.441 6.152-3.596 11.964-6.991 17.027-10.079 44.908-27.397 92.587-52.613 138.697-76.997 34.462-18.225 70.082-37.073 104.502-56.777 3.84-2.196 7.74-4.392 11.67-6.606 21.84-12.275 44.42-24.983 63.05-42.111 12.08-11.103 21.94-25.918 31.48-40.244 5.34-8.031 10.39-15.617 15.79-22.568 11.37-14.65 24.52-28.495 37.24-41.884 32.12-33.813 65.33-68.776 72.06-119.27 4.05-30.385 11.15-61.966 35.48-87.106 6.77-6.997 15.01-12.93 22.98-18.669 17.87-12.871 36.35-26.178 39.28-52.271.87-7.739-.74-15.069-2.29-22.16-1.94-8.834-3.77-17.179-1.33-26.428 4.22-16.049 18.58-28.222 32.06-38.012z"/><path d="M1443.34-979.066c-14.95 10.117-29.32 21.671-33.19 37.575-2.23 9.131.05 17.341 2.26 25.278 1.82 6.536 3.69 13.296 2.94 20.412-2.49 23.361-21.44 36.795-39.77 49.785-9.43 6.692-18.35 13.012-25.22 20.62-25.48 28.203-34.72 63.981-42.01 98.212-10.24 48.137-43.64 78.785-75.94 108.424-15.92 14.604-32.38 29.704-46.03 46.791-8.48 10.61-16.14 22.925-23.54 34.833-5.33 8.575-10.84 17.44-16.65 25.669-16.22 22.968-35.83 36.933-57.93 51.545-44.08 29.154-91.018 55.027-136.408 80.049-31.99 17.636-65.075 35.873-96.589 54.965-5.465 3.311-12.007 7.061-19.583 11.401-54.818 31.413-156.853 89.884-143.691 157.763 5.938 30.624 26.624 53.031 46.629 74.7 7.366 7.978 14.322 15.513 20.49 23.37 14.359 18.29 30.108 40.48 38.062 66.391 11.807 38.467 12.412 76.076 1.845 114.977-5.653 20.816-18.739 39.911-30.56 56.176-32.25 44.37-81.668 73.585-129.46 101.838-13.921 8.228-27.068 16.001-39.817 24.141l-.327.21c-16.616 10.609-33.797 21.579-49.282 33.867-49.23 39.06-72.971 72.781-57.484 139.007 1.326 5.671 3.057 11.777 5.291 18.667 19.247 59.375 53.462 106.466 93.87 129.2l.89-1.689c-40.073-22.544-74.021-69.301-93.141-128.283-2.217-6.841-3.934-12.899-5.249-18.519-15.235-65.15 8.187-98.375 56.739-136.898 15.407-12.224 32.545-23.169 49.12-33.752l.327-.209c12.722-8.123 25.857-15.888 39.762-24.108 47.964-28.355 97.561-57.675 130.06-102.389 11.935-16.421 25.149-35.712 30.899-56.882 10.673-39.29 10.066-77.267-1.855-116.1-8.038-26.185-23.896-48.535-38.348-66.945-6.208-7.907-13.186-15.466-20.572-23.467-19.847-21.498-40.37-43.727-46.213-73.855-12.878-66.414 88.324-124.407 142.692-155.563 7.587-4.347 14.139-8.102 19.623-11.423 31.482-19.075 64.548-37.301 96.523-54.928 45.422-25.041 92.387-50.934 136.537-80.127 22.27-14.725 42.04-28.807 58.47-52.069 5.85-8.28 11.37-17.173 16.72-25.774 7.37-11.857 14.98-24.115 23.39-34.629 13.56-16.962 29.95-32.007 45.81-46.558 32.55-29.863 66.2-60.743 76.59-109.557 7.22-33.941 16.38-69.405 41.5-97.214 6.72-7.442 15.55-13.701 24.9-20.328 18.7-13.259 38.04-26.968 40.63-51.289.79-7.502-1.13-14.444-3-21.155-2.24-8.049-4.35-15.651-2.25-24.256 3.7-15.197 17.73-26.442 32.33-36.327z"/><path d="M1438.94-992.397c-15.31 9.965-30.52 21.14-33.6 38.421-1.37 7.684.82 14.673 2.93 21.432 1.91 6.101 3.88 12.409 3.14 19.101-2.41 21.534-22.83 36.666-42.58 51.299-11.8 8.75-22.96 17.013-30.24 26.464-22.1 28.68-32.56 64.485-42.68 99.112l-1 3.444c-14.26 48.714-44.98 71.959-77.5 96.569-20.76 15.708-42.22 31.949-60.17 55.612-10.42 13.732-19.11 28.982-27.51 43.73-13.56 23.8-27.58 48.409-48.9 66.227-45.36 37.9-98.235 67.51-149.386 96.161-22.571 12.638-45.915 25.713-67.822 39.104l-5.921 3.618c-47.835 29.216-97.297 59.426-139.376 98.964-20.027 18.82-44.952 42.242-43.756 74.831 1.284 34.971 25.726 60.304 47.29 82.654 5.829 6.041 11.335 11.748 16.297 17.504 17.097 19.833 34.258 41.645 43.981 66.738 14.644 37.797 17.12 74.541 7.794 115.637-4.547 20.035-16.584 37.477-29.576 55.061-30.571 41.375-79.107 68.66-126.051 95.042-16.766 9.422-32.602 18.323-47.29 27.687-14.761 9.41-33.132 21.123-48.733 33.959-53.3 43.863-66.998 79.852-54.284 142.623 1.209 5.968 2.868 12.52 4.929 19.473 17.665 59.591 53.511 108.757 95.885 131.521l.866-1.704c-42.019-22.571-77.577-71.373-95.118-130.545-2.046-6.9-3.69-13.398-4.888-19.313-12.53-61.853.983-97.33 53.552-140.589 15.51-12.762 33.826-24.439 48.543-33.822 14.643-9.335 30.461-18.225 47.201-27.634 47.127-26.487 95.846-53.872 126.677-95.6 13.133-17.776 25.306-35.424 29.946-55.87 9.42-41.51 6.921-78.624-7.868-116.794-9.816-25.334-27.079-47.283-44.272-67.226-4.991-5.79-10.511-11.511-16.355-17.57-21.355-22.132-45.558-47.217-46.816-81.482-1.161-31.622 23.374-54.677 43.087-73.203 41.93-39.4 91.305-69.556 139.055-98.72l5.923-3.617c21.877-13.376 45.202-26.442 67.76-39.07 51.222-28.688 104.186-58.346 149.676-96.362 21.61-18.056 35.72-42.835 49.38-66.799 8.36-14.687 17.02-29.875 27.35-43.495 17.78-23.434 39.13-39.591 59.78-55.215 32.8-24.824 63.79-48.27 78.24-97.666l1.01-3.443c10.06-34.435 20.46-70.041 42.31-98.4 7.11-9.221 18.15-17.404 29.85-26.069 20.11-14.9 40.9-30.309 43.41-52.772.79-7.112-1.25-13.618-3.21-19.911-2.14-6.835-4.16-13.292-2.88-20.483 2.93-16.44 17.76-27.303 32.69-37.021z"/><path d="M1434.54-1005.73c-12.44 7.602-31.25 19.089-34.05 36.986-1.13 7.193 1.23 13.548 3.51 19.695 2.14 5.78 4.35 11.759 3.55 18.316-2.43 19.788-23.76 35.99-44.4 51.661-12.86 9.765-25.01 18.989-32.17 28.742-21.01 28.607-33.18 63.471-44.95 97.186-1.78 5.079-3.54 10.128-5.32 15.12-12.88 36.115-30.55 60.396-59.07 81.19-10.6 7.733-22.44 14.598-33.9 21.238-22.65 13.132-46.07 26.71-62.79 48.269-12.43 16.012-20.97 34.993-29.24 53.351-8.21 18.223-16.69 37.069-28.92 52.773-34.26 44.011-92.268 76.146-143.443 104.504-18.462 10.23-35.906 19.893-51.54 29.662l-9.823 6.131c-50.632 31.583-102.988 64.241-148.966 104.902l-.494.436c-20.997 18.567-49.753 43.994-53.815 74.078-5.106 37.812 23.189 65.855 45.925 88.39 4.935 4.891 9.597 9.511 13.732 14.013 17.21 18.734 36.469 41.36 48.828 67.137 17.623 36.759 21.58 74.764 12.097 116.189-4.871 21.276-17.622 39.421-29.454 54.364-30.758 38.842-78.712 64.992-125.082 90.277-18.194 9.919-35.379 19.29-51.316 29.285-13.937 8.74-31.942 20.506-47.596 34.031-49.661 42.906-63.045 81.364-51.148 146.967a242 242 0 0 0 4.555 20.245c16.473 60.59 53.412 110.324 98.812 133.043l.827-1.724c-45.011-22.522-81.644-71.871-97.995-132.007a241 241 0 0 1-4.52-20.086c-11.738-64.737 1.462-102.681 50.445-145.001 15.554-13.439 33.48-25.152 47.359-33.856 15.889-9.965 33.048-19.32 51.216-29.227 46.548-25.382 94.674-51.625 125.687-90.792 11.982-15.132 24.9-33.526 29.867-55.225 9.589-41.89 5.59-80.316-12.224-117.475-12.453-25.976-31.808-48.718-49.097-67.538-4.161-4.53-8.835-9.161-13.784-14.067-22.465-22.264-50.422-49.973-45.444-86.841 3.955-29.288 32.371-54.412 53.119-72.759l.493-.436c45.856-40.552 98.142-73.168 148.707-104.709l9.825-6.13c15.592-9.744 33.014-19.395 51.456-29.614 51.343-28.45 109.531-60.684 144.051-105.025 12.38-15.907 20.92-34.872 29.18-53.212 8.22-18.242 16.71-37.105 28.97-52.914 16.48-21.244 39.74-34.726 62.23-47.763 11.49-6.665 23.38-13.554 34.06-21.347 28.88-21.057 46.77-45.638 59.81-82.187 1.78-4.997 3.54-10.051 5.32-15.135 11.72-33.564 23.83-68.27 44.65-96.617 6.99-9.51 19.02-18.649 31.76-28.323 20.98-15.933 42.68-32.407 45.22-53.099.86-7.042-1.44-13.24-3.66-19.236-2.29-6.186-4.46-12.03-3.41-18.702 2.65-16.919 20.96-28.109 33.09-35.514z"/><path d="m1430.13-1019.06-.59.33c-13.08 7.57-32.86 18.996-34.6 37.339-.58 6.114 2.03 11.466 4.56 16.644 2.74 5.622 5.34 10.935 4.31 17.215-2.99 18.403-24.24 34.555-44.8 50.174-12.22 9.287-23.77 18.059-30.49 26.73-23.46 30.211-37.97 66.945-52.01 102.469-3.33 8.423-6.77 17.131-10.25 25.536-16.5 39.829-38.94 66.357-72.76 86.016-9.82 5.714-20.34 10.704-31.47 15.999-26.43 12.565-53.77 25.556-72.01 48.779-13.69 17.433-20.95 38.674-27.97 59.215-4.52 13.239-9.2 26.93-15.55 39.466-25.08 49.479-81.602 83.057-131.469 112.681-12.719 7.555-24.732 14.693-35.62 21.748q-8.007 5.187-16.031 10.367c-46.985 30.359-95.571 61.751-140.347 97.861-1.938 1.562-3.936 3.161-5.979 4.797-26.043 20.835-58.452 46.767-69.455 79.539-13.698 40.805 16.53 70.404 40.82 94.186 4.054 3.972 7.883 7.72 11.401 11.399 19.567 20.466 39.476 42.816 52.555 67.548 19.757 37.36 24.572 75.552 14.721 116.76-4.081 17.075-14.213 34.776-30.971 54.111-30.61 35.318-76.116 59.925-120.131 83.72-20.37 11.014-39.612 21.418-57.546 32.846-19.741 12.583-34.416 23.476-46.182 34.286-46.204 42.449-58.846 82.251-48.313 152.096a224 224 0 0 0 4.19 20.99c15.42 61.476 53.831 111.437 102.749 133.644l.777-1.747c-48.494-22.015-86.578-71.567-101.874-132.553a222 222 0 0 1-4.155-20.809c-10.41-69.032 2.059-108.344 47.647-150.228 11.679-10.729 26.267-21.557 45.912-34.076 17.875-11.394 37.089-21.782 57.429-32.778 44.163-23.878 89.83-48.569 120.681-84.165 16.99-19.603 27.274-37.601 31.439-55.025 9.97-41.708 5.105-80.347-14.874-118.128-13.173-24.91-33.169-47.36-52.816-67.91-3.535-3.698-7.373-7.457-11.436-11.435-23.936-23.439-53.726-52.607-40.424-92.233 10.8-32.173 42.946-57.891 68.774-78.556 2.046-1.638 4.046-3.238 5.986-4.801 44.696-36.047 93.239-67.409 140.183-97.741 5.35-3.457 10.696-6.91 16.033-10.37 10.857-7.036 22.855-14.163 35.558-21.71 50.1-29.762 106.888-63.497 132.248-113.522 6.42-12.673 11.12-26.436 15.67-39.747 6.96-20.37 14.16-41.433 27.62-58.579 17.95-22.85 45.08-35.747 71.31-48.211 11.17-5.312 21.69-10.307 31.6-16.071 34.23-19.895 56.94-46.731 73.62-87.019 3.49-8.42 6.94-17.138 10.27-25.568 13.98-35.382 28.44-71.968 51.7-101.938 6.57-8.455 18.01-17.151 30.12-26.356 20.88-15.869 42.48-32.278 45.61-51.528 1.12-6.91-1.72-12.741-4.48-18.38-2.52-5.173-4.91-10.061-4.38-15.618 1.63-17.246 20.86-28.359 33.59-35.709l.58-.34z"/><path d="M1419.97-1029.23c-21.48 12.23-30.3 21.79-26.19 46.893.61 3.716 1.3 6.712 1.91 9.355 2.28 9.802 3.13 13.47-6.82 26.589-9 11.863-20.71 20.387-33.11 29.414-12.94 9.424-26.32 19.169-36.51 33.129-19.07 26.13-31.93 57.252-44.37 87.346-15 36.297-30.51 73.829-56.97 102.41-22.44 24.242-52.79 36.467-82.14 48.286-31.67 12.754-61.59 24.801-82.71 50.658-14.39 17.613-19.01 41.112-23.47 63.836-3.4 17.323-6.91 35.239-14.7 50.728-13.3 26.472-38.924 45.444-61.528 62.181-2.599 1.925-5.167 3.827-7.684 5.714-28.89 21.668-59.202 42.021-88.516 61.701-11.284 7.577-22.952 15.412-34.374 23.211l-1.486 1.013c-43.969 30.02-89.436 61.061-130.309 97.458l-3.657 3.25c-21.178 18.772-47.534 42.137-54.756 69.988-9.261 35.709 18.195 62.358 40.254 83.772 3.467 3.364 6.741 6.543 9.744 9.629 48.288 49.625 94.455 110.447 70.735 185.296-20.044 63.25-89.847 100.673-151.434 133.698-22.074 11.834-42.923 23.013-59.783 34.533-75.778 51.774-101.166 105.842-90.551 192.845 8.456 69.293 52.274 130.086 111.632 154.876l.737-1.766c-58.849-24.577-102.29-84.841-110.672-153.529-10.503-86.086 14.634-139.597 89.657-190.855 16.774-11.461 37.583-22.618 59.611-34.429 61.925-33.205 132.109-70.835 152.414-134.906 24.037-75.848-22.461-137.19-71.116-187.19-3.019-3.102-6.3-6.287-9.774-9.66-21.735-21.097-48.785-47.356-39.81-81.958 7.056-27.214 33.145-50.341 54.108-68.926l3.662-3.25c40.778-36.313 86.192-67.319 130.111-97.304l1.484-1.014c11.416-7.795 23.082-15.627 34.364-23.2 29.334-19.697 59.666-40.063 88.598-61.761 2.512-1.886 5.077-3.784 7.673-5.707 22.789-16.875 48.616-36 62.146-62.924 7.92-15.756 11.47-33.819 14.9-51.285 4.61-23.497 8.96-45.689 23.01-62.883 20.8-25.464 50.5-37.423 81.94-50.08 29.54-11.894 60.08-24.194 82.83-48.768 26.72-28.86 42.3-66.576 57.38-103.048 12.38-29.977 25.19-60.973 44.12-86.895 10-13.698 23.25-23.349 36.06-32.683 11.97-8.714 24.34-17.725 33.53-29.832 10.56-13.919 9.51-18.434 7.22-28.33-.61-2.613-1.3-5.577-1.9-9.233-4.26-26.013 5.61-34.193 30.88-47.893l-.64-1.67c-2 1.08-3.91 2.14-5.73 3.17"/></g></svg>