<svg width="643" height="367" viewBox="0 0 643 367" fill="none" xmlns="http://www.w3.org/2000/svg">
<g opacity="0.7">
<path d="M98.945 558.112C153.794 503.181 150.395 401.394 115.849 338.672C98.2356 306.698 73.7017 278.532 49.9764 251.294L46.6458 247.47C44.7185 245.255 42.6285 242.898 40.4278 240.416C18.0253 215.153 -15.827 176.975 -8.3257 141.995C-2.54865 115.058 28.6183 101.236 53.6623 90.1314C60.8693 86.9351 67.677 83.9171 73.3223 80.8537C104.383 64.0057 126.347 41.3651 138.603 13.5606C151.204 -15.0242 137.005 -35.858 123.275 -56.0076C120.208 -60.5085 117.036 -65.1639 114.219 -69.8242C93.006 -104.915 81.214 -145.139 78.1748 -192.781C77.0062 -211.111 76.4744 -229.785 75.9605 -247.846C74.7339 -290.922 73.466 -335.464 63.4124 -378.024C59.1026 -396.267 53.1069 -414.736 47.3085 -432.598C41.2903 -451.137 35.0671 -470.306 30.604 -489.531C30.5355 -489.824 24.1524 -519.173 32.3537 -525.19C35.3749 -527.406 39.8154 -525.947 45.5528 -520.85L44.6466 -519.624C39.4298 -524.258 35.5448 -525.699 33.1001 -523.906C27.3387 -519.678 29.9097 -498.831 31.9672 -489.97C36.4142 -470.814 42.6274 -451.677 48.6345 -433.171C54.4431 -415.278 60.4493 -396.778 64.7741 -378.47C74.867 -335.745 76.1373 -291.115 77.3661 -247.954C77.88 -229.908 78.4111 -211.248 79.5784 -192.948C82.5997 -145.58 94.3125 -105.604 115.398 -70.7208C118.194 -66.0955 121.354 -61.4566 124.411 -56.9718C138.388 -36.4615 152.843 -15.2519 139.863 14.1968C127.459 42.3382 105.267 65.2319 73.9035 82.2453C68.2088 85.3339 61.3766 88.3642 54.1422 91.571C29.416 102.535 -1.35682 116.182 -6.95783 142.299C-14.2812 176.458 19.2577 214.279 41.4501 239.307C43.6545 241.792 45.7472 244.153 47.6771 246.37L51.007 250.195C74.783 277.491 99.3681 305.716 117.057 337.828C134.75 369.915 144.005 411.07 142.491 450.734C140.81 494.866 125.672 533.403 99.8683 559.245L98.945 558.112Z" fill="#A1A7FF"/>
<path d="M89.8539 565.199C144.459 509.169 133.623 406.96 95.6768 339.21C76.9854 305.833 52.6513 275.299 27.2656 244.362C24.6796 241.212 21.7884 237.811 18.7274 234.21C-4.12098 207.332 -35.4136 170.524 -28.2938 136.226C-21.9192 105.519 13.4031 91.3202 47.5622 77.5898C70.9844 68.1745 93.1079 59.2808 105.609 45.6009C115.34 34.9525 124.227 20.9623 128.799 9.08669C135.502 -8.3098 132.159 -29.158 120.275 -44.0286C113.646 -52.3227 106.954 -64.0214 100.379 -78.8104C86.8107 -109.334 78.6844 -140.709 75.5353 -174.729C74.6171 -184.651 74.4819 -195.188 74.4733 -205.097C74.4668 -212.443 74.4946 -219.757 74.5215 -227.041C74.7022 -274.539 74.8723 -319.403 65.9017 -364.999C64.2824 -373.229 62.231 -381.939 59.8042 -390.887C54.8798 -409.047 48.5253 -427.249 42.3797 -444.851C35.7683 -463.788 28.932 -483.368 23.791 -503.106C23.7106 -503.414 15.852 -534.016 23.8622 -540.589C26.6366 -542.866 30.8419 -541.931 36.361 -537.81L35.5427 -536.511C30.563 -540.23 26.9051 -541.185 24.672 -539.353C18.7236 -534.473 23.1314 -511.315 25.1441 -503.588C30.2683 -483.914 37.0939 -464.364 43.6949 -445.458C49.8498 -427.83 56.2142 -409.601 61.1531 -391.385C63.5905 -382.399 65.6507 -373.652 67.2771 -365.384C76.2801 -319.624 76.109 -274.679 75.9288 -227.094C75.9013 -219.812 75.8733 -212.502 75.88 -205.157C75.8885 -195.289 76.0224 -184.799 76.9351 -174.945C80.067 -141.107 88.1504 -109.899 101.647 -79.5374C108.165 -64.8697 114.794 -53.2797 121.345 -45.0807C133.574 -29.781 137.005 -8.2963 130.091 9.65126C125.448 21.7067 116.439 35.8972 106.581 46.6863C93.847 60.618 71.5767 69.57 47.9983 79.0481C14.2108 92.6303 -20.7267 106.675 -26.9232 136.518C-33.8782 170.019 -2.87059 206.493 19.7703 233.123C22.835 236.729 25.7301 240.134 28.3229 243.294C53.7522 274.284 78.1306 304.874 96.8816 338.358C115.76 372.062 127.337 413.972 128.634 453.303C129.712 486.039 124.023 532.22 90.791 566.321L89.8539 565.199Z" fill="#A1A7FF"/>
<path d="M80.7284 572.277C137.839 512.475 113.895 409.79 76.042 340.082C56.0628 303.274 29.8698 268.19 9.28225 241.737C5.8714 237.354 1.87613 232.547 -2.35338 227.46C-24.4524 200.875 -54.72 164.466 -48.5203 130.573C-42.5492 97.9325 -0.01574 82.6701 37.5098 69.2035C60.9746 60.7828 83.1383 52.8296 94.9025 41.6391C106.721 30.3959 114.281 18.7791 118.692 5.07956C125.276 -15.3744 116.375 -30.1911 106.951 -45.8791C105.972 -47.5069 104.99 -49.1413 104.023 -50.7883C96.583 -63.448 91.0886 -78.0381 87.7919 -88.0433C77.5121 -119.246 72.0726 -151.32 71.1626 -186.098C70.9029 -196.025 71.2837 -206.584 71.6961 -216.548C73.8201 -267.858 74.9089 -322.448 63.1343 -376.168C61.3543 -384.285 59.1052 -392.954 56.4492 -401.933C51.2065 -419.651 44.5302 -437.39 38.074 -454.544C30.8628 -473.704 23.4066 -493.517 17.8344 -513.558C15.7189 -521.169 9.36736 -546.521 16.4926 -553.191C19.0873 -555.621 23.0841 -555.329 28.3712 -552.323L27.6906 -550.935C22.9537 -553.628 19.4841 -553.993 17.3769 -552.021C10.77 -545.835 17.7199 -519.319 19.1807 -514.067C24.7333 -494.095 32.1771 -474.316 39.3759 -455.189C45.842 -438.007 52.5286 -420.241 57.7876 -402.467C60.4549 -393.451 62.7138 -384.745 64.5025 -376.589C76.3203 -322.673 75.2304 -267.958 73.1018 -216.537C72.6907 -206.602 72.3106 -196.077 72.5689 -186.204C73.4744 -151.591 78.8869 -119.674 89.116 -88.6252C92.3888 -78.6927 97.8343 -64.2215 105.212 -51.6702C106.176 -50.0283 107.156 -48.3989 108.132 -46.7734C117.752 -30.7634 126.836 -15.6364 120.015 5.54938C115.514 19.526 107.819 31.3626 95.7959 42.8008C83.8068 54.2054 61.5063 62.207 37.8977 70.6793C0.75599 84.009 -41.341 99.1146 -47.1419 130.824C-53.2011 163.953 -23.2036 200.036 -1.30102 226.383C2.93656 231.48 6.93869 236.295 10.364 240.696C30.9847 267.193 57.2246 302.341 77.2556 339.243C97.4493 376.444 111.25 418.906 115.132 455.765C120.33 505.121 109.074 544.695 81.6745 573.385L80.7284 572.277Z" fill="#A1A7FF"/>
<path d="M71.5614 579.332C132.185 516.818 97.2743 415.47 57.311 341.47C36.7699 303.428 14.4601 268.258 -7.20529 239.761C-11.2953 234.38 -16.2227 228.469 -21.4393 222.211C-44.7992 194.187 -73.8703 159.315 -68.8172 125.097C-63.6339 90.015 -15.3842 74.3525 27.1865 60.5336C49.7552 53.2077 71.0728 46.2876 82.5633 37.3669C97.0366 26.1292 105.39 14.4422 108.101 1.63645C111.638 -15.0665 103.65 -29.836 95.9143 -44.1244C93.3048 -48.9494 90.8391 -53.5061 88.8048 -58.1247C84.0912 -68.839 79.8305 -82.3937 76.4842 -97.323C69.4893 -128.527 66.6369 -161.034 67.7628 -196.7C68.0659 -206.308 68.806 -216.213 69.5895 -226.699L69.6188 -227.098C74.3743 -290.752 71.5408 -339.629 60.4319 -385.576C57.9283 -395.934 55.644 -404.017 53.2413 -411.015C48.4208 -425.057 42.7434 -438.88 36.7324 -453.516C27.8465 -475.153 18.6573 -497.527 12.6219 -520.369L12.4175 -521.139C10.0257 -530.153 3.67197 -554.095 10.8069 -562.171C13.2152 -564.896 16.8815 -565.556 21.7033 -564.131L21.2912 -562.628C17.0018 -563.895 13.8067 -563.383 11.7941 -561.106C5.25597 -553.706 11.6634 -529.564 13.7681 -521.631L13.9732 -520.859C19.9815 -498.118 29.1505 -475.793 38.0171 -454.205C43.7719 -440.192 49.7234 -425.702 54.559 -411.617C56.9781 -404.569 59.2761 -396.44 61.7917 -386.032C72.9434 -339.908 75.7898 -290.87 71.0212 -227.03L70.9913 -226.632C70.2093 -216.165 69.4706 -206.278 69.1685 -196.707C68.0473 -161.186 70.8868 -128.818 77.8505 -97.7523C81.1739 -82.9237 85.4011 -69.4721 90.074 -58.8507C92.0792 -54.2907 94.532 -49.7589 97.129 -44.9603C104.999 -30.4153 113.136 -15.3803 109.469 1.93539C106.673 15.1456 98.127 27.1491 83.3412 38.6278C71.6526 47.7042 50.2222 54.6602 27.5349 62.025C-14.6184 75.7078 -62.3953 91.2154 -67.4287 125.29C-72.3765 158.767 -43.5501 193.348 -20.3883 221.133C-15.1614 227.404 -10.2239 233.327 -6.1146 238.731C15.5963 267.289 37.9481 302.525 58.5259 340.633C98.7438 415.112 133.828 517.206 72.4981 580.449L71.5614 579.332Z" fill="#A1A7FF"/>
<path d="M62.3116 586.38C134.853 510.128 64.8859 384.841 41.8976 343.672C40.0947 340.444 38.29 337.201 36.4791 333.948C18.3604 301.393 -0.375835 267.731 -22.6781 238.641C-27.1377 232.825 -32.4718 226.477 -38.1178 219.758C-62.3226 190.953 -92.4438 155.106 -88.9787 119.903C-85.2499 82.0394 -28.829 65.3957 16.5062 52.0224C37.7077 45.7682 57.7329 39.8618 68.5842 32.8381C77.7285 26.9196 94.7495 15.9041 96.8215 -1.18058C98.4569 -14.6594 90.6497 -30.6404 83.7615 -44.7397C80.0784 -52.2791 76.5997 -59.3993 74.6256 -65.8005C71.1753 -76.9902 68.3241 -91.0441 66.3801 -106.444C62.5362 -136.896 62.0993 -169.611 65.0452 -206.459C65.6467 -213.978 66.4104 -221.593 67.2188 -229.655L67.92 -236.689C71.9821 -277.875 75.1784 -338.899 56.1178 -393.1C54.0506 -398.978 51.7335 -404.934 49.2809 -411.24C48.3853 -413.544 47.4854 -415.857 46.5959 -418.172C46.129 -419.39 45.2221 -421.61 43.982 -424.646C31.6554 -454.836 -5.85744 -546.708 7.45905 -568.46C9.42871 -571.676 12.4208 -573.257 16.3527 -573.156L16.2646 -571.6C12.8092 -571.689 10.306 -570.387 8.61278 -567.622C0.0768387 -553.678 12.4093 -505.806 45.2672 -425.332C46.5126 -422.282 47.4237 -420.051 47.8935 -418.828C48.7814 -416.515 49.6808 -414.203 50.5757 -411.902C52.9247 -405.862 55.3545 -399.616 57.431 -393.714C76.6001 -339.202 73.3959 -277.928 69.3184 -236.58L68.6163 -229.543C67.8091 -221.49 67.0463 -213.883 66.4463 -206.382C63.5094 -169.653 63.9441 -137.053 67.7735 -106.718C69.7057 -91.4116 72.5355 -77.4546 75.959 -66.3534C77.8963 -60.0715 81.3493 -53.0041 85.0048 -45.5212C91.9917 -31.2192 99.9115 -15.0085 98.2163 -1.03234C96.0482 16.8348 78.6213 28.114 69.2581 34.1738C58.236 41.3078 39.0427 46.9694 16.8192 53.5255C-28.0806 66.7701 -83.9608 83.2534 -87.5803 120.011C-90.9773 154.524 -61.0889 190.091 -37.0703 218.675C-31.4126 225.407 -26.069 231.766 -21.5902 237.608C0.777218 266.781 19.5405 300.494 37.6854 333.094C39.495 336.346 41.3 339.589 43.1019 342.816C59.6927 372.529 82.8146 417.35 92.0047 463.389C102.284 514.88 92.613 556.633 63.2592 587.487L62.3116 586.38Z" fill="#A1A7FF"/>
<path d="M52.9718 593.403C116.81 524.768 75.3884 426.097 32.1622 347.792L29.1726 342.373C9.66645 307.002 -10.5035 270.426 -35.866 238.873C-40.6074 232.975 -46.1293 226.632 -51.9757 219.916C-77.9111 190.122 -110.188 153.043 -108.786 115.124C-107.252 73.6593 -44.6886 56.9444 5.58102 43.5127C25.6896 38.1401 43.057 33.5006 52.9932 28.1171C64.0447 22.1331 82.4531 12.1623 84.3907 -3.23245C85.7279 -13.85 79.0839 -28.5722 72.6593 -42.8095C67.8596 -53.4455 62.8961 -64.4442 61.3871 -73.584C59.1898 -86.8785 57.774 -101.275 57.2916 -115.214C56.2884 -144.209 57.9812 -176.011 62.6176 -215.294C63.0418 -218.891 63.482 -222.531 63.9266 -226.213C64.6792 -232.444 65.4465 -238.793 66.1792 -245.255C72.464 -300.718 67.0096 -348.479 48.4907 -400.115C45.6231 -408.113 42.5456 -416.459 39.5696 -424.531L39.3898 -425.02C38.6443 -427.042 37.1325 -430.726 35.2195 -435.392C22.7742 -465.738 -10.2854 -546.347 2.1375 -572.104C4.22582 -576.434 7.50608 -579.106 11.8859 -580.046L12.1007 -578.517C8.12081 -577.663 5.26571 -575.34 3.37196 -571.413C-8.71792 -546.347 24.1355 -466.239 36.5038 -436.082C38.4978 -431.218 39.9385 -427.705 40.6943 -425.656L40.8747 -425.168C43.8515 -417.093 46.93 -408.743 49.8 -400.739C68.4085 -348.851 73.8898 -300.857 67.5736 -245.12C66.8416 -238.655 66.0733 -232.301 65.3204 -226.066C64.8758 -222.386 64.4355 -218.747 64.0112 -215.152C59.3859 -175.958 57.6965 -144.241 58.6967 -115.336C59.1763 -101.467 60.5847 -87.1462 62.7698 -73.9232C64.245 -64.9931 69.1641 -54.0919 73.9215 -43.55C80.4398 -29.1048 87.1797 -14.1696 85.7837 -3.07654C83.7385 13.1732 64.8864 23.3833 53.6225 29.4836C43.4891 34.9718 26.051 39.6309 5.85931 45.0262C-43.9289 58.3286 -105.891 74.8843 -107.381 115.127C-108.759 152.392 -76.7034 189.219 -50.9443 218.813C-45.0887 225.539 -39.558 231.893 -34.8002 237.812C-9.35807 269.463 10.8437 306.096 30.3809 341.523L33.3698 346.943C51.8301 380.379 74.1632 424.464 83.1063 468.909C93.4486 520.31 83.6326 562.565 53.9311 594.499L52.9718 593.403Z" fill="#A1A7FF"/>
<path d="M43.5298 600.402C72.8676 567.93 83.2711 526.158 74.4521 476.25C66.5929 431.769 44.9333 387.492 26.9432 353.885C7.71145 317.96 -15.3785 276.586 -46.086 240.185C-51.4551 233.821 -57.5986 227.083 -64.1022 219.95C-91.8997 189.463 -126.498 151.518 -127.909 110.837C-129.476 65.6749 -58.5622 48.3133 -6.78244 35.637C11.2936 31.2108 26.9047 27.3888 35.9253 23.2052C49.4752 16.9202 70.6559 3.75776 69.8094 -4.80555C69.1295 -11.6966 65.7314 -21.0534 61.7964 -31.8886C56.2094 -47.2744 49.8768 -64.7147 49.0015 -81.3456C48.2973 -94.7153 48.3106 -109.323 49.0406 -123.59C50.7345 -156.685 55.2506 -189.63 60.1255 -223.279C61.6478 -233.787 62.9255 -243.469 64.0294 -252.877C70.9751 -312.06 57.51 -357.792 40.5601 -407.225C38.1918 -414.131 35.7339 -421.133 33.2636 -428.173L31.9944 -431.789C30.9737 -434.699 29.0944 -439.386 26.7159 -445.321C13.7254 -477.728 -13.3053 -545.163 -2.2072 -573.679C-0.0527842 -579.216 3.47 -583.062 8.26327 -585.111L8.72236 -583.66C4.31474 -581.777 1.07044 -578.228 -0.920176 -573.112C-11.7714 -545.23 15.0934 -478.209 28.0044 -446C30.3905 -440.048 32.2752 -435.346 33.3073 -432.403L34.5765 -428.787C37.0479 -421.745 39.5073 -414.739 41.8769 -407.828C58.8941 -358.201 72.4111 -312.277 65.423 -252.737C64.3166 -243.313 63.038 -233.617 61.5132 -223.092C56.6445 -189.485 52.134 -156.585 50.4445 -123.564C49.7177 -109.356 49.7036 -94.8103 50.4052 -81.4978C51.2669 -65.1159 57.5559 -47.7976 63.1038 -32.5185C67.0757 -21.581 70.5052 -12.1355 71.2069 -5.03711C72.4723 7.76248 36.7832 24.4712 36.4227 24.6379C27.2818 28.8782 11.6117 32.7145 -6.5327 37.1569C-57.805 49.7096 -128.025 66.902 -126.505 110.715C-125.116 150.798 -90.727 188.516 -63.0935 218.821C-56.5802 225.965 -50.4288 232.712 -45.0411 239.098C-14.2432 275.604 8.89216 317.06 28.1597 353.051C69.872 430.968 109.427 529.62 44.5025 601.483L43.5298 600.402Z" fill="#A1A7FF"/>
<path d="M33.9632 607.385C98.8203 530.838 63.617 435.926 25.6986 361.729C1.69736 314.786 -23.6558 276.797 -54.0907 242.176C-60.1896 235.238 -67.1327 227.941 -74.483 220.215C-104.272 188.903 -141.347 149.937 -146.003 107.143C-151.411 57.4318 -72.5132 39.7442 -20.305 28.04C-4.35694 24.4654 9.415 21.3775 17.5352 18.1233C18.538 17.7213 19.7046 17.2826 20.9887 16.8008C32.0122 12.6588 52.5333 4.95158 48.5291 -10.8449L47.0778 -16.5369C40.9688 -40.4275 35.6926 -61.0594 37.2644 -89.0242C38.0066 -102.208 39.3785 -116.513 41.3438 -131.541C44.2149 -153.497 48.0006 -175.891 51.6607 -197.548C53.4878 -208.36 55.3779 -219.54 57.1228 -230.487C58.5692 -239.564 59.8778 -249.369 61.0114 -259.631C66.6267 -310.486 52.2898 -353.903 37.1111 -399.869C35.5067 -404.726 33.8935 -409.613 32.2929 -414.538C30.4596 -420.182 28.5798 -425.867 26.6971 -431.561L24.3702 -438.605C23.2942 -441.867 21.4551 -446.72 19.1252 -452.864C4.50252 -491.432 -25.9249 -571.685 5.42025 -588.595L5.99294 -587.198C-24.1041 -570.962 7.09948 -488.661 20.4244 -453.517C22.7608 -447.355 24.606 -442.488 25.6922 -439.193L28.0194 -432.149C29.903 -426.453 31.7833 -420.765 33.6183 -415.119C35.2178 -410.195 36.8306 -405.312 38.4337 -400.457C53.6708 -354.314 68.0635 -310.73 62.4067 -259.504C61.2697 -249.214 59.9579 -239.38 58.5071 -230.277C56.7603 -219.321 54.8704 -208.137 53.0425 -197.321C49.3849 -175.68 45.602 -153.302 42.7348 -131.379C40.7753 -116.393 39.4075 -102.131 38.6681 -88.9892C37.1103 -61.2895 42.3564 -40.7733 48.4311 -17.0183L49.8839 -11.3218C54.2572 5.93024 32.877 13.9613 21.3904 18.2757C20.1175 18.7538 18.9598 19.1884 17.9646 19.5873C9.74401 22.882 -4.07625 25.9804 -20.0796 29.5686C-71.7583 41.1539 -149.854 58.6611 -144.606 106.896C-140.009 149.148 -103.13 187.915 -73.4935 219.063C-66.1332 226.799 -59.181 234.106 -53.0644 241.064C-22.548 275.779 2.87073 313.864 26.9282 360.918C65.0664 435.545 100.475 531.116 34.9707 608.427L33.9632 607.385Z" fill="#A1A7FF"/>
<path d="M24.2821 614.329C90.6339 532.018 60.9998 441.074 27.7691 371.04C7.26834 327.853 -19.151 289.989 -60.5787 244.477C-67.1395 237.27 -74.7043 229.579 -82.7125 221.438C-114.962 188.649 -155.095 147.846 -162.734 103.605C-164.656 92.4685 -162.743 82.2034 -157.045 73.097C-137.404 41.7051 -75.8832 29.0969 -35.1727 20.7545C-21.2868 17.9092 -9.29459 15.4517 -1.9691 12.9034C12.669 7.80822 28.2704 0.769253 28.0822 -18.3592C27.9919 -27.6019 27.0525 -36.8569 26.1442 -45.8084C24.5002 -62.01 22.8002 -78.7622 25.9111 -96.6111C28.7507 -112.903 31.3475 -126.803 33.85 -139.106C35.5477 -147.452 37.2972 -155.814 39.0478 -164.185C44.0509 -188.1 49.2243 -212.83 53.1127 -237.049C54.4741 -245.529 55.6238 -254.884 56.6279 -265.65C60.6415 -308.671 46.3615 -352.262 32.5513 -394.419C29.4005 -404.036 26.4249 -413.119 23.6739 -422.175C22.3726 -426.458 21.0514 -430.753 19.7315 -435.041C18.6471 -438.564 17.5642 -442.085 16.4939 -445.592C15.314 -449.46 13.4494 -454.783 11.2905 -460.947C-2.04942 -499.027 -26.8805 -569.908 3.19479 -590.691L3.9015 -589.375C-25.1406 -569.307 -0.587602 -499.218 12.603 -461.563C14.7676 -455.383 16.6377 -450.046 17.8277 -446.146C18.8972 -442.64 19.9796 -439.121 21.0635 -435.598C22.3835 -431.308 23.7056 -427.012 25.0073 -422.726C27.7539 -413.687 30.7269 -404.612 33.874 -395.004C47.7367 -352.686 62.0722 -308.927 58.0252 -265.552C57.0181 -254.748 55.8632 -245.354 54.4955 -236.836C50.6009 -212.576 45.4234 -187.826 40.4159 -163.891C38.6655 -155.523 36.9169 -147.164 35.2198 -138.823C32.7202 -126.536 30.1263 -112.651 27.2898 -96.3771C24.2199 -78.7625 25.9077 -62.1305 27.5403 -46.046C28.452 -37.0573 29.3951 -27.7612 29.4872 -18.4399C29.7029 3.49416 9.33897 10.5818 -1.60116 14.3913C-9.01051 16.968 -21.0428 19.4338 -34.9739 22.2892C-75.4476 30.5827 -136.611 43.1171 -155.903 73.9512C-161.368 82.6872 -163.202 92.5457 -161.354 103.252C-153.804 147.004 -113.846 187.628 -81.742 220.268C-73.7235 228.42 -66.1502 236.119 -59.5709 243.347C-18.0413 288.972 8.4412 326.925 29.0178 370.27C51.5994 417.863 63.0065 457.054 64.9153 493.611C67.311 539.493 54.3569 579.311 25.3108 615.343L24.2821 614.329Z" fill="#A1A7FF"/>
<path d="M14.7371 621.329C32.7763 595.562 54.2712 560.989 60.4235 522.034C68.2659 472.387 51.5864 425.136 32.3939 381.471C8.1567 326.333 -31.3399 284.054 -66.1901 246.749C-73.231 239.212 -80.9808 231.389 -89.1859 223.109C-124.73 187.228 -165.011 146.564 -177.557 100.076C-180.608 88.7631 -179.516 78.3039 -174.315 68.9898C-156.782 37.6052 -95.8907 24.5894 -55.5966 15.9755C-41.2322 12.9046 -28.8266 10.2525 -22.3996 7.57827C-14.6251 4.34293 4.02501 -5.44766 9.27099 -26.4139C12.5965 -39.7048 12.5664 -54.4985 12.5379 -68.8047C12.5124 -81.383 12.4882 -93.2644 14.5829 -104.078C16.2288 -112.572 19.05 -122.054 21.7783 -131.224C23.274 -136.25 24.8205 -141.448 26.144 -146.39C34.4054 -177.24 42.7169 -210.315 47.5478 -243.147C48.2994 -248.254 48.7554 -253.768 49.1959 -259.1C49.5289 -263.132 49.8739 -267.303 50.3402 -271.156C52.3498 -287.773 46.6191 -309.377 41.5622 -328.439C40.2988 -333.202 39.1056 -337.701 38.0872 -341.923C30.8666 -371.855 22.5792 -402.057 14.6993 -430.237C13.8875 -433.14 13.0697 -436.041 12.2541 -438.934C10.9385 -443.604 9.62751 -448.254 8.3561 -452.859C7.1097 -457.372 5.47169 -462.65 3.57502 -468.761C-7.70016 -505.088 -26.5708 -565.886 1.496 -591.611L2.36228 -590.424C-24.9195 -565.418 -6.24953 -505.264 4.90552 -469.325C6.80619 -463.2 8.44813 -457.911 9.70044 -453.373C10.9715 -448.77 12.2814 -444.123 13.5966 -439.457C14.4129 -436.563 15.2304 -433.661 16.0427 -430.757C23.9268 -402.562 32.2185 -372.342 39.4447 -342.386C40.4591 -338.182 41.6502 -333.691 42.9116 -328.936C48.0072 -309.728 53.7816 -287.958 51.7319 -271.012C51.27 -267.192 50.9424 -263.223 50.5955 -259.022C50.152 -253.662 49.6942 -248.12 48.9351 -242.958C44.0907 -210.037 35.7646 -176.903 27.4897 -146.002C26.16 -141.038 24.6099 -135.828 23.1111 -130.79C20.3948 -121.661 17.5859 -112.22 15.9566 -103.81C13.8945 -93.1635 13.9181 -81.3651 13.9434 -68.8731C13.9721 -54.4593 14.0022 -39.5565 10.6233 -26.0547C5.19619 -4.3599 -13.968 5.71432 -21.9561 9.03772C-28.4971 11.7595 -40.363 14.2967 -55.3871 17.5082C-95.4287 26.0679 -155.939 39.0041 -173.128 69.7729C-178.103 78.6791 -179.14 88.7045 -176.208 99.5715C-163.773 145.671 -123.632 186.184 -88.2165 221.933C-80.0045 230.222 -72.2479 238.052 -65.1934 245.603C-30.2631 282.993 9.32958 325.381 33.6624 380.738C52.9563 424.634 69.7201 472.158 61.8078 522.24C55.5991 561.548 33.9781 596.337 15.8348 622.255L14.7371 621.329Z" fill="#A1A7FF"/>
<path d="M5.36767 628.35C25.4116 597.599 45.7531 564.693 54.9645 530.243C68.8483 478.319 53.5501 429.426 38.6704 392.63C18.0698 341.678 -19.7409 302.488 -56.3072 264.576C-61.4153 259.281 -66.5048 254.005 -71.5274 248.717C-78.7765 241.086 -86.5106 233.303 -94.6975 225.064C-131.794 187.732 -173.838 145.418 -190.491 96.8496C-195.1 83.4109 -194.766 71.331 -189.499 60.9447C-175.002 32.3609 -126.735 21.1469 -87.9508 12.1365C-70.0284 7.9716 -54.5494 4.3757 -46.1452 -0.161106C-31.1411 -8.26199 -15.829 -17.6017 -7.90622 -34.6727C0.202576 -52.1501 3.04835 -73.0735 5.79956 -93.3073C6.71174 -100.015 7.57305 -106.352 8.61892 -112.57C11.1505 -127.632 13.428 -140.212 17.7165 -153.52C29.3607 -189.655 36.38 -219.988 39.8062 -248.975C39.9533 -250.216 40.11 -251.452 40.2663 -252.689C41.2045 -260.078 42.1744 -267.72 40.8131 -276.366C32.4016 -329.772 19.778 -381.517 5.35371 -438.779L4.1271 -443.637C2.69176 -449.316 1.26922 -454.944 -0.0685388 -460.468C-1.02978 -464.437 -2.21146 -468.926 -3.4623 -473.677C-13.0373 -510.051 -27.508 -565.019 0.297503 -591.615L1.18707 -590.449C-25.9005 -564.539 -11.5851 -510.159 -2.11236 -474.175C-0.85968 -469.414 0.323798 -464.918 1.28924 -460.934C2.62576 -455.415 4.04721 -449.792 5.48114 -444.118L6.70779 -439.259C21.1423 -381.958 33.7757 -330.174 42.1973 -276.699C43.5968 -267.812 42.6106 -260.046 41.6579 -252.536C41.5013 -251.304 41.3453 -250.072 41.1994 -248.837C37.7591 -219.734 30.7168 -189.296 19.0373 -153.05C14.7847 -139.854 12.5196 -127.337 9.99973 -112.346C8.95829 -106.155 8.09862 -99.8321 7.18872 -93.1382C4.41994 -72.7747 1.55655 -51.7184 -6.66403 -34.0041C-14.7954 -16.4792 -30.3464 -6.98489 -45.5767 1.23795C-54.143 5.86456 -69.7034 9.47984 -87.721 13.6646C-126.212 22.6085 -174.116 33.7383 -188.281 61.6674C-193.329 71.6206 -193.63 83.2523 -189.176 96.2408C-172.636 144.476 -130.716 186.665 -93.7311 223.885C-85.5379 232.131 -77.7993 239.919 -70.5387 247.561C-65.5182 252.846 -60.4319 258.12 -55.3263 263.413C-18.6619 301.425 19.2474 340.726 39.9568 391.939C54.9334 428.976 70.3265 478.21 56.3099 530.631C47.0328 565.327 26.6134 598.364 6.49265 629.231L5.36767 628.35Z" fill="#A1A7FF"/>
<path d="M-4.00376 635.384L-1.00549 630.537C16.6432 602.018 36.6471 569.696 49.0782 538.258C65.4508 496.854 64.3341 454.224 45.5656 404.098C26.797 353.973 -12.8852 314.503 -51.2609 276.33C-60.3192 267.32 -68.8761 258.808 -77.1579 250.16C-84.4108 242.588 -91.9089 235.016 -99.8482 227.001C-137.948 188.529 -181.147 144.921 -201.738 93.8785C-207.59 79.3852 -207.87 66.2258 -202.572 54.7662C-188.344 23.9883 -137.016 10.6647 -99.5408 0.935691C-86.7221 -2.39176 -75.6525 -5.266 -68.1833 -8.27009C-54.8008 -13.6556 -36.1795 -24.0435 -23.4664 -42.9502C-10.6277 -62.0443 -4.7562 -86.4572 0.922485 -110.066C1.8383 -113.874 2.74229 -117.631 3.66303 -121.307C4.34752 -124.04 5.03939 -126.779 5.73003 -129.516C8.46934 -140.367 11.3011 -151.587 13.6225 -162.167C20.6069 -193.997 27.0558 -225.032 29.2166 -254.789C29.831 -263.249 28.5975 -272.645 27.1683 -283.523L27.1386 -283.749C20.2622 -336.114 8.75415 -388.35 -2.37519 -438.865L-4.72565 -449.542C-6.17438 -456.121 -7.54265 -462.335 -8.78151 -468.491C-9.34846 -471.306 -9.96313 -474.246 -10.5993 -477.292C-18.1343 -513.354 -28.4528 -562.744 -0.561647 -590.862L0.35625 -589.723C-26.8941 -562.252 -16.6848 -513.387 -9.23046 -477.708C-8.59294 -474.659 -7.97782 -471.713 -7.41031 -468.895C-6.17392 -462.755 -4.80679 -456.547 -3.35965 -449.975L-1.00952 -439.299C10.1274 -388.749 21.6437 -336.478 28.5296 -284.04L28.5593 -283.815C30.0002 -272.843 31.2445 -263.367 30.6168 -254.73C28.4479 -224.857 21.9861 -193.753 14.9875 -161.858C12.6596 -151.251 9.82384 -140.018 7.08238 -129.154C6.3914 -126.417 5.70013 -123.681 5.01609 -120.949C4.09678 -117.278 3.19393 -113.525 2.27904 -109.723C-3.43531 -85.9641 -9.34482 -61.3974 -22.3539 -42.0475C-35.2877 -22.8125 -54.1832 -12.2644 -67.7557 -6.80242C-75.306 -3.76491 -86.4145 -0.881029 -99.2778 2.45793C-136.473 12.114 -187.415 25.338 -201.328 55.4341C-206.417 66.4411 -206.122 79.143 -200.452 93.1889C-179.949 143.937 -136.882 187.447 -98.8785 225.823C-90.9358 233.843 -83.4337 241.418 -76.1732 249C-67.903 257.635 -59.3521 266.14 -50.2994 275.145C-11.8138 313.425 27.9873 353.013 46.866 403.444C65.531 453.293 66.6746 497.579 50.3612 538.836C37.8732 570.417 17.827 602.808 0.14216 631.386L-2.85739 636.234L-4.00376 635.384Z" fill="#A1A7FF"/>
<path d="M-13.3791 642.442C-7.9352 633.005 -2.24851 623.538 3.25107 614.383C41.5374 550.649 77.7013 490.45 51.9301 415.372C34.6638 365.051 -10.0978 322.188 -49.5868 284.369C-61.7305 272.738 -73.1995 261.754 -83.5873 250.892C-90.2391 243.937 -97.0001 237.025 -104.159 229.707C-143.502 189.488 -188.072 143.906 -211.466 91.1093C-218.481 75.2611 -219.344 60.9338 -214.029 48.5286C-200.96 18.024 -152.903 3.98649 -117.812 -6.26235C-105.791 -9.7733 -95.4096 -12.8065 -87.9109 -15.976C-72.9409 -22.3026 -51.4247 -32.8185 -37.4695 -51.0197C-20.0251 -73.7647 -9.92549 -102.459 -1.07528 -129.9C4.1209 -146.014 7.86364 -159.492 10.3681 -171.105C16.7148 -200.54 15.9287 -226.429 15.0173 -256.405L14.8752 -261.14C14.5797 -271.051 13.4858 -282.617 12.4537 -292.625C7.72274 -338.53 -0.841299 -384.487 -9.12317 -428.93C-10.8974 -438.453 -12.6708 -447.971 -14.409 -457.489L-14.4901 -457.935C-15.7042 -464.582 -16.851 -470.862 -17.7814 -476.967L-17.8597 -477.483C-23.2337 -512.789 -30.5944 -561.141 -1.14722 -589.578L-0.253374 -588.415C-29.0741 -560.584 -21.7917 -512.742 -16.474 -477.81L-16.3953 -477.295C-15.4693 -471.213 -14.3245 -464.946 -13.1128 -458.31L-13.031 -457.865C-11.2938 -448.349 -9.52041 -438.833 -7.74661 -429.312C0.541523 -384.835 9.11121 -338.844 13.85 -292.871C14.8846 -282.832 15.983 -271.226 16.2792 -261.261L16.4219 -256.526C17.3362 -226.435 18.1258 -200.449 11.7338 -170.804C9.21754 -159.133 5.45902 -145.599 0.244999 -129.43C-8.65104 -101.845 -18.8104 -72.9933 -36.4173 -50.0338C-50.5965 -31.5419 -72.3411 -20.9074 -87.4629 -14.5153C-95.0346 -11.3158 -105.45 -8.27243 -117.512 -4.75059C-152.322 5.41793 -199.996 19.342 -212.765 49.1504C-217.883 61.0952 -217.02 74.9629 -210.2 90.3681C-186.946 142.924 -142.444 188.4 -103.184 228.533C-96.0234 235.853 -89.2591 242.768 -82.6021 249.73C-72.2354 260.57 -60.7756 271.544 -48.644 283.163C-9.03795 321.095 35.8487 364.08 53.2459 414.759C79.2742 490.588 42.909 551.124 4.40885 615.213C-1.08728 624.362 -6.77051 633.822 -12.208 643.247L-13.3791 642.442Z" fill="#A1A7FF"/>
<path d="M-22.7561 649.515C-4.46307 615.355 12.4514 584.513 34.2389 552.955C64.8552 508.613 71.7248 469.439 56.5124 425.933C38.7224 375.046 -8.52928 330.38 -50.2185 290.964C-64.9912 276.999 -78.9442 263.807 -91.2775 250.763C-97.0768 244.629 -103.028 238.429 -109.055 232.146C-149.145 190.368 -194.584 142.981 -219.819 88.5139C-227.962 70.9252 -229.306 55.1709 -223.814 41.6881C-211.451 11.3312 -167.8 -2.56064 -132.726 -13.7237C-122.453 -16.9931 -112.75 -20.0813 -105.271 -23.1918C-87.912 -30.4116 -65.9307 -40.9842 -49.9017 -58.8037C-27.8743 -83.2919 -14.701 -114.105 -5.68613 -138.213C-0.0386019 -153.317 4.17878 -167.676 6.50889 -179.738C12.4428 -210.451 10.7838 -235.798 0.590315 -270.14C-1.57347 -277.431 -2.1127 -286.257 -2.68376 -295.6C-2.83221 -298.03 -2.98421 -300.511 -3.16713 -303.031C-6.06233 -342.844 -12.1177 -382.826 -17.9741 -421.49C-20.2666 -436.629 -22.6372 -452.281 -24.7828 -467.695C-25.7479 -474.62 -26.5266 -480.361 -27.0512 -485.932C-30.5693 -523.294 -29.9183 -561.51 -1.57949 -587.944L-0.706701 -586.761C-28.5143 -560.822 -29.1307 -523.083 -25.655 -486.164C-25.1336 -480.629 -24.3571 -474.907 -23.3956 -468.003C-21.2512 -452.6 -18.8812 -436.952 -16.5888 -421.818C-10.728 -383.122 -4.66794 -343.107 -1.76751 -303.227C-1.58347 -300.701 -1.43177 -298.214 -1.28312 -295.777C-0.717829 -286.532 -0.184111 -277.801 1.92605 -270.691C12.2039 -236.064 13.8735 -210.489 7.88033 -179.474C5.53241 -167.319 1.28823 -152.861 -4.39328 -137.667C-13.4614 -113.418 -26.7191 -82.4161 -48.9323 -57.7213C-65.165 -39.6743 -87.3331 -29.0063 -104.833 -21.7284C-112.365 -18.5956 -122.096 -15.4983 -132.397 -12.2199C-167.177 -1.1508 -210.462 12.6248 -222.54 42.2805C-227.843 55.2999 -226.505 70.5966 -218.565 87.7464C-193.448 141.99 -148.085 189.284 -108.072 230.979C-102.041 237.265 -96.0894 243.468 -90.2875 249.603C-77.9818 262.62 -64.0418 275.798 -49.2833 289.751C-7.47635 329.275 39.9079 374.075 57.824 425.307C73.2341 469.38 66.2995 509.032 35.3382 553.875C13.5991 585.36 -3.29064 616.158 -21.5589 650.271L-22.7561 649.515Z" fill="#A1A7FF"/>
<path d="M-32.1305 656.601C-30.7079 653.703 -29.3047 650.83 -27.9123 647.982C-12.6349 616.707 1.7964 587.167 24.4668 559.265C53.2968 523.784 77.3031 484.193 57.9255 435.171C37.8885 384.487 -8.19373 340.221 -52.7566 297.423C-69.9178 280.94 -86.1272 265.372 -100.64 249.669C-105.113 244.83 -109.658 239.952 -114.249 235.026C-154.709 191.596 -200.554 142.375 -226.922 86.0839C-235.871 66.9666 -237.548 49.971 -231.904 35.5681C-220.074 5.38363 -178.455 -9.09538 -145.013 -20.73C-136.03 -23.8556 -127.545 -26.8075 -120.344 -29.808C-95.0175 -40.3622 -76.105 -51.9135 -60.824 -66.1631C-35.2045 -90.0531 -19.1986 -122.834 -10.2825 -146.128C-3.69197 -163.345 0.176824 -176.649 1.89278 -187.996C7.14656 -222.745 -1.37047 -250.348 -11.2324 -282.31C-12.0107 -284.832 -12.8749 -287.27 -13.79 -289.852C-16.4675 -297.404 -19.2356 -305.213 -19.6263 -314.947C-21.0058 -349.349 -25.0294 -383.995 -28.9204 -417.502C-31.2385 -437.464 -33.6353 -458.106 -35.4461 -478.462C-36.0027 -484.721 -36.4716 -490.316 -36.5775 -495.401C-37.438 -536.691 -26.7555 -564.686 -1.94006 -586.172L-1.11066 -584.95C-25.517 -563.818 -36.0221 -536.233 -35.1736 -495.509C-35.0687 -490.477 -34.6018 -484.914 -34.0476 -478.687C-32.2397 -458.353 -29.8438 -437.723 -27.5272 -417.772C-23.6322 -384.235 -19.6052 -349.555 -18.2228 -315.087C-17.8431 -305.61 -15.1175 -297.921 -12.4814 -290.485C-11.6003 -288.001 -10.6906 -285.433 -9.90207 -282.88C0.0205651 -250.72 8.59002 -222.946 3.27646 -187.804C1.54184 -176.328 -2.3576 -162.907 -8.99479 -145.568C-17.9749 -122.108 -34.1056 -89.0824 -59.953 -64.9797C-75.3672 -50.6054 -94.4179 -38.9641 -119.906 -28.3438C-127.146 -25.326 -135.649 -22.3675 -144.652 -19.2357C-177.805 -7.7016 -219.065 6.65318 -230.621 36.1409C-236.084 50.0817 -234.418 66.6236 -225.67 85.3096C-199.435 141.355 -153.639 190.52 -113.252 233.871C-108.66 238.799 -104.114 243.68 -99.6403 248.52C-85.1536 264.193 -68.9593 279.746 -51.814 296.213C-7.13942 339.119 39.0589 383.484 59.2135 434.483C67.8667 456.374 68.5967 477.763 61.4452 499.872C55.5196 518.191 44.0938 537.387 25.4884 560.287C2.93657 588.042 -11.4518 617.497 -26.6877 648.681C-28.0797 651.532 -29.4839 654.405 -30.9058 657.304L-32.1305 656.601Z" fill="#A1A7FF"/>
<path d="M-41.4996 663.693C-25.2213 627.523 -11.1628 596.285 14.1645 565.594C45.7462 527.321 75.5753 491.172 53.9685 441.963C31.4952 390.78 -14.1937 345.925 -58.387 302.523C-77.6105 283.643 -95.7672 265.811 -112.042 247.556L-119.613 239.078C-160.161 193.701 -206.119 142.273 -232.876 83.8338C-242.261 63.3393 -244.018 45.1803 -238.1 29.8617C-226.141 -1.08945 -184.661 -16.4808 -151.331 -28.8487C-144.919 -31.227 -138.863 -33.4744 -133.195 -35.7476C-107.433 -46.0788 -86.2918 -58.5948 -70.3582 -72.947C-47.0209 -93.9683 -27.3517 -122.613 -14.9741 -153.604C-10.4856 -164.843 -4.87685 -181.293 -3.64725 -195.837C-1.11857 -225.749 -9.74981 -252.199 -18.8875 -280.204C-20.495 -285.132 -22.1576 -290.227 -23.7563 -295.339C-25.6059 -301.253 -27.4278 -307.612 -29.1898 -313.763C-30.7017 -319.039 -32.2646 -324.495 -33.8559 -329.714C-38.9491 -346.416 -39.4139 -367.044 -39.8635 -386.993C-40.0724 -396.271 -40.2695 -405.033 -40.9084 -413.341C-41.4545 -420.43 -42.0575 -427.519 -42.6609 -434.609C-44.1976 -452.668 -45.7873 -471.341 -46.3489 -489.759C-46.5347 -495.844 -46.4267 -501.561 -46.3292 -505.332C-45.5172 -536.705 -31.5326 -561.849 -2.31976 -584.46L-1.55633 -583.185C-30.347 -560.9 -44.1279 -536.17 -44.9255 -505.358C-45.0222 -501.609 -45.1304 -495.925 -44.9461 -489.883C-44.3849 -471.514 -42.798 -452.863 -41.2629 -434.827C-40.6588 -427.733 -40.055 -420.639 -39.5093 -413.546C-38.8668 -405.192 -38.669 -396.406 -38.4595 -387.104C-38.0125 -367.271 -37.5509 -346.763 -32.5243 -330.28C-30.9292 -325.047 -29.3638 -319.584 -27.8501 -314.303C-26.0908 -308.161 -24.2718 -301.811 -22.4282 -295.917C-20.8325 -290.814 -19.1718 -285.723 -17.5654 -280.801C-8.37378 -252.63 0.308667 -226.022 -2.24903 -195.76C-3.49687 -181 -9.16301 -164.371 -13.6964 -153.022C-26.1678 -121.794 -45.9889 -92.9291 -69.5076 -71.7447C-85.5713 -57.2751 -106.857 -44.6684 -132.776 -34.2743C-138.46 -31.9953 -144.524 -29.7451 -150.944 -27.3627C-183.991 -15.0995 -225.12 0.161543 -236.813 30.425C-242.637 45.4983 -240.937 62.7179 -231.619 83.0688C-204.962 141.339 -159.075 192.645 -118.596 237.943L-111.024 246.423C-94.78 264.644 -76.6385 282.461 -57.4334 301.323C-13.1419 344.822 32.6566 389.798 55.2344 441.22C77.2618 491.387 47.1049 527.933 15.1772 566.627C-10.008 597.147 -24.0237 628.287 -40.2509 664.344L-41.4996 663.693Z" fill="#A1A7FF"/>
<path d="M-50.8641 670.79C-36.4371 635.542 -22.3799 603.794 3.60277 572.173L4.94247 570.543C38.3628 529.889 67.2272 494.778 44.1923 446.198C20.1849 395.482 -23.3365 351.454 -65.4096 308.828C-86.0816 287.885 -107.457 266.227 -125.8 244.405C-129.375 240.154 -133.004 235.862 -136.667 231.532C-174.07 187.321 -216.453 137.212 -237.774 81.7654C-246.311 59.5557 -247.293 40.8992 -240.774 24.7285C-228.261 -6.3148 -190.272 -21.9085 -153.534 -36.9878C-150.319 -38.3076 -147.118 -39.6215 -143.95 -40.9397C-116.759 -52.2537 -95.3682 -64.7409 -78.5549 -79.116C-52.5093 -101.385 -31.6831 -130.311 -19.9114 -160.567C-14.4964 -174.486 -10.8986 -190.459 -10.2876 -203.292C-9.00427 -230.245 -18.8428 -257.854 -28.3567 -284.555C-31.3789 -293.038 -34.2336 -301.049 -36.6893 -308.922C-38.6824 -315.314 -40.6414 -322.142 -42.5357 -328.745C-44.1402 -334.338 -45.7991 -340.121 -47.4795 -345.645C-59.8303 -386.229 -59.5658 -444.55 -57.4394 -501.529C-57.2755 -505.908 -56.8935 -510.564 -56.2699 -515.763C-52.1136 -550.406 -24.7763 -568.482 -2.81016 -583.007L-2.138 -581.665C-23.826 -567.324 -50.8171 -549.477 -54.8791 -515.627C-55.496 -510.476 -55.8751 -505.867 -56.0369 -501.538C-58.1574 -444.709 -58.4272 -386.559 -46.1481 -346.212C-44.4643 -340.676 -42.8028 -334.887 -41.197 -329.288C-39.3053 -322.693 -37.349 -315.873 -35.3612 -309.501C-32.9153 -301.658 -30.0656 -293.661 -27.0487 -285.195C-17.4806 -258.342 -7.58585 -230.574 -8.88483 -203.282C-9.5053 -190.268 -13.1471 -174.087 -18.628 -159.998C-30.499 -129.486 -51.4905 -100.325 -77.7349 -77.8864C-94.6672 -63.4094 -116.184 -50.8437 -143.515 -39.4718C-146.685 -38.1523 -149.888 -36.8381 -153.105 -35.5181C-189.553 -20.5564 -227.243 -5.08594 -239.498 25.3173C-245.843 41.0561 -244.855 59.2994 -236.478 81.0899C-215.263 136.306 -172.951 186.305 -135.626 230.425C-131.961 234.756 -128.331 239.048 -124.755 243.302C-106.448 265.081 -85.0924 286.718 -64.4392 307.642C-22.2831 350.353 21.3441 394.56 45.4404 445.412C68.9369 494.965 38.3453 532.178 5.95694 571.576L4.61856 573.205C-21.2169 604.645 -35.2176 636.272 -49.5902 671.387L-50.8641 670.79Z" fill="#A1A7FF"/>
<path d="M-60.2389 677.879C-46.0783 639.639 -32.2832 609.762 -7.29896 579.004C25.3404 538.819 56.1734 500.862 27.7149 447.473C1.91691 399.071 -37.6549 356.678 -75.9228 315.681C-98.586 291.402 -122.02 266.297 -142.243 240.293C-178.409 193.79 -218.508 138.387 -241.705 80.0878C-250.148 58.8701 -251.194 39.7312 -244.815 23.2047C-231.667 -10.8584 -188.978 -29.4838 -154.677 -44.4495L-152.792 -45.272C-124.574 -57.5908 -102.603 -70.4268 -85.6242 -84.5126C-57.3777 -107.947 -35.9691 -137.203 -25.3419 -166.892C-20.2638 -181.078 -17.5751 -197.666 -18.3252 -210.181C-19.9611 -237.497 -29.8832 -265.298 -39.478 -292.184C-43.2534 -302.765 -46.8204 -312.758 -49.8776 -322.658C-53.1441 -333.234 -57.3866 -347.21 -61.2358 -361.537C-75.757 -415.592 -73.3505 -474.041 -68.7739 -513.556C-68.2518 -518.071 -67.3545 -522.408 -66.48 -526.464C-60.7544 -553.031 -34.0098 -566.488 -12.5201 -577.302C-9.38417 -578.88 -6.42282 -580.37 -3.62475 -581.85L-3.0741 -580.436C-5.88569 -578.949 -8.8531 -577.456 -11.995 -575.875C-33.1869 -565.212 -59.5613 -551.94 -65.1157 -526.164C-65.9808 -522.152 -66.8678 -517.863 -67.3817 -513.427C-71.9407 -474.063 -74.3414 -415.849 -59.8896 -362.054C-56.0476 -347.753 -51.8105 -333.795 -48.549 -323.233C-45.5018 -313.368 -41.9406 -303.39 -38.1711 -292.826C-28.5374 -265.831 -18.5755 -237.917 -16.925 -210.36C-16.1619 -197.623 -18.8891 -180.767 -24.0424 -166.369C-34.7709 -136.397 -56.3567 -106.885 -84.8236 -83.2673C-101.911 -69.0914 -123.995 -56.1855 -152.336 -43.8127L-154.222 -42.9898C-188.265 -28.1368 -230.631 -9.65262 -243.531 23.768C-249.833 40.0963 -248.815 58.2915 -240.419 79.3928C-217.284 137.515 -177.267 192.808 -141.167 239.23C-120.983 265.183 -97.5696 290.266 -74.929 314.521C-36.5959 355.585 3.04089 398.049 28.9306 446.622C57.908 500.958 26.732 539.387 -6.28042 580.029C-31.1185 610.608 -44.8461 640.347 -58.9462 678.42L-60.2389 677.879Z" fill="#A1A7FF"/>
<path d="M-69.6382 684.95C-57.8588 649.189 -44.6355 618.678 -18.3914 586.017C18.184 540.496 41.5722 503.967 8.87993 448.382C-16.5004 405.189 -51.0775 366.48 -84.5171 329.046C-111.13 299.254 -138.647 268.448 -161.645 235.334C-200.094 179.972 -228.103 127.292 -244.9 78.7687C-252.612 56.4887 -252.979 37.2083 -246.022 19.8238C-233.001 -12.7147 -196.35 -31.8482 -159.926 -48.6581C-139.739 -57.9745 -113.749 -70.9817 -91.7709 -89.0247C-70.6057 -106.399 -42.9716 -134.983 -31.517 -172.49C-27.8718 -184.425 -25.3845 -202.659 -28.0439 -216.488C-33.5262 -244.993 -42.9395 -273.667 -52.0426 -301.397C-55.7922 -312.818 -59.669 -324.629 -63.1829 -336.173C-66.8596 -348.254 -71.1397 -362.55 -75.0071 -376.983C-88.2988 -426.587 -90.1565 -477.98 -80.3789 -525.606C-79.5482 -529.656 -78.4088 -533.586 -76.9931 -537.287C-68.0375 -560.694 -43.0001 -568.622 -20.9107 -575.617C-15.1799 -577.431 -9.76761 -579.144 -4.95851 -581.041L-4.54845 -579.561C-9.40134 -577.648 -14.8351 -575.927 -20.5882 -574.105C-42.3578 -567.213 -67.0318 -559.4 -75.7056 -536.728C-77.0873 -533.116 -78.1994 -529.278 -79.0107 -525.324C-88.7338 -477.964 -86.8834 -426.847 -73.6601 -377.499C-69.7993 -363.089 -65.5235 -348.81 -61.8504 -336.741C-58.3424 -325.214 -54.4684 -313.413 -50.7216 -302C-41.6027 -274.22 -32.173 -245.495 -26.6704 -216.887C-24.2819 -204.468 -25.6639 -186.867 -30.1906 -172.045C-41.7705 -134.129 -69.6375 -105.289 -90.9752 -87.7725C-113.085 -69.6224 -139.18 -56.5606 -159.444 -47.2092C-195.59 -30.5285 -231.95 -11.5663 -244.745 20.4087C-251.539 37.3826 -251.159 56.267 -243.588 78.141C-226.838 126.532 -198.89 179.083 -160.522 234.333C-137.573 267.376 -110.084 298.149 -83.5006 327.909C-50.0148 365.395 -15.3887 404.158 10.0656 447.475C43.2687 503.969 19.6471 540.972 -17.368 587.038C-43.4519 619.501 -56.6033 649.849 -68.3242 685.43L-69.6382 684.95Z" fill="#A1A7FF"/>
<path d="M-79.0445 692.01C-67.1175 650.684 -53.2797 622.98 -29.6898 593.2C-27.4093 590.322 -25.0739 587.452 -22.7265 584.571C-10.3789 569.406 2.38873 553.725 8.63435 534.405C19.0449 502.195 6.31732 477.19 -10.076 450.146C-34.7121 409.514 -67.1439 372.779 -98.5084 337.254C-128.398 303.398 -159.305 268.39 -183.379 230.093C-214.302 180.905 -234.175 122.628 -248.04 77.3516C-257.859 45.2826 -253.292 18.6225 -234.077 -4.15284C-217.198 -24.1598 -191.097 -38.5945 -165.406 -51.2138C-143.325 -62.0596 -117.935 -75.4778 -97.0453 -92.7594C-75.0875 -110.925 -47.1096 -140.375 -38.5212 -177.515C-35.4499 -190.795 -35.841 -209.254 -39.4717 -222.405C-49.7031 -259.463 -61.7452 -300.998 -76.284 -349.384C-80.1009 -362.086 -84.5383 -377.076 -88.5075 -391.946C-103.796 -449.221 -104.914 -495.55 -92.0255 -537.744C-90.8436 -541.612 -89.3594 -545.158 -87.6137 -548.282C-75.9525 -569.15 -47.8765 -573.752 -25.3174 -577.45C-18.5621 -578.557 -12.1818 -579.604 -6.74436 -580.976L-6.49849 -579.443C-11.9889 -578.057 -18.3965 -577.007 -25.1789 -575.895C-47.4379 -572.247 -75.1395 -567.705 -86.4334 -547.494C-88.0955 -544.521 -89.5703 -540.996 -90.6996 -537.3C-103.488 -495.436 -102.363 -449.412 -87.1605 -392.461C-83.1975 -377.613 -78.765 -362.638 -74.9519 -349.948C-60.4089 -301.551 -48.3641 -260.004 -38.1283 -222.933C-34.4299 -209.536 -34.0329 -190.725 -37.1629 -177.19C-45.8606 -139.578 -74.0939 -109.837 -96.2472 -91.5109C-117.255 -74.131 -142.738 -60.6621 -164.894 -49.7788C-190.441 -37.2307 -216.383 -22.8907 -233.079 -3.103C-251.885 19.1879 -256.344 45.3176 -246.711 76.7786C-232.876 121.962 -213.044 180.114 -182.219 229.149C-158.209 267.347 -127.341 302.31 -97.4884 336.123C-66.0813 371.694 -33.6065 408.478 -8.90277 449.223C7.70173 476.616 20.5875 501.97 9.95159 534.875C3.6058 554.508 -9.26415 570.313 -21.7115 585.6C-24.0537 588.476 -26.3843 591.339 -28.6596 594.211C-52.1002 623.801 -65.8532 651.34 -77.7115 692.429L-79.0445 692.01Z" fill="#A1A7FF"/>
<path d="M-88.4534 699.061C-78.5562 659.169 -65.2926 631.538 -41.1489 600.509C-39.3323 598.174 -37.4844 595.842 -35.6297 593.504C-23.1105 577.715 -10.1665 561.388 -4.78859 540.992C4.20333 506.902 -12.2846 479.667 -28.2354 453.326L-28.3704 453.103C-53.6858 411.293 -86.1475 373.004 -117.542 335.974C-146.395 301.941 -176.231 266.749 -200.479 228.88C-224.776 190.92 -234.522 148.748 -244.837 104.096C-246.988 94.7845 -249.211 85.1551 -251.567 75.6181C-268.782 5.89368 -218.17 -27.3324 -169.38 -53.0035C-146.221 -65.1878 -121.91 -78.526 -101.596 -95.7696C-79.2379 -114.747 -51.5369 -145.123 -46.5361 -182.061C-44.5373 -196.82 -48.0923 -215.38 -51.4268 -228.351C-63.13 -273.876 -76.982 -321.521 -88.9893 -362.124C-92.9516 -375.52 -97.517 -391.085 -101.566 -406.269C-113.133 -449.642 -123.783 -500.084 -103.591 -549.87C-102.164 -553.385 -100.316 -556.682 -98.2433 -559.404C-83.5368 -578.721 -52.8254 -579.858 -28.1477 -580.772C-21.1957 -581.029 -14.629 -581.272 -9.0394 -581.896L-8.96682 -580.332C-14.6027 -579.703 -21.1919 -579.459 -28.1682 -579.201C-52.5591 -578.298 -82.9142 -577.174 -97.1939 -558.418C-99.1755 -555.814 -100.947 -552.653 -102.316 -549.277C-122.303 -499.998 -111.714 -449.886 -100.219 -406.784C-96.1761 -391.619 -91.6133 -376.068 -87.6548 -362.681C-75.6432 -322.064 -61.7859 -274.402 -50.0758 -228.851C-46.7041 -215.733 -43.1117 -196.938 -45.1489 -181.899C-50.2229 -144.413 -78.2035 -113.698 -100.783 -94.5329C-121.213 -77.192 -145.603 -63.8082 -168.834 -51.5857C-217.078 -26.2026 -267.131 6.61573 -250.213 75.1335C-247.855 84.6828 -245.629 94.317 -243.477 103.634C-233.195 148.151 -223.483 190.197 -199.325 227.924C-175.13 265.713 -145.326 300.867 -116.502 334.864C-85.0721 371.935 -52.5728 410.268 -27.197 452.179L-27.0618 452.402C-10.9378 479.031 5.73629 506.568 -3.44298 541.369C-8.91572 562.119 -21.9727 578.589 -34.5998 594.516C-36.4514 596.85 -38.296 599.177 -40.1108 601.508C-64.0935 632.332 -77.2686 659.782 -87.1016 699.411L-88.4534 699.061Z" fill="#A1A7FF"/>
<path d="M-97.8624 706.1C-89.8386 667.563 -77.182 640.033 -52.7222 607.911C-51.4187 606.199 -50.1028 604.489 -48.7853 602.777C-36.1215 586.312 -23.0262 569.286 -18.6718 547.728C-11.9754 514.572 -28.9844 485.509 -43.9912 459.873L-45.4052 457.455C-70.8672 413.875 -103.381 373.626 -134.824 334.7C-161.399 301.801 -188.877 267.783 -211.968 231.915C-228.814 205.756 -246.229 178.706 -248.676 141.948L-248.82 139.801C-250.337 116.998 -251.77 95.46 -255.754 73.4778C-267.898 6.45761 -221.044 -26.3047 -172.012 -54.1166C-150.168 -66.507 -125.411 -80.5507 -105.586 -98.1375C-72.3974 -127.582 -55.6327 -157.222 -55.7575 -186.234C-55.8218 -201.286 -59.2728 -216.649 -62.6099 -231.507L-63.2864 -234.52C-72.9521 -277.771 -85.5488 -320.901 -97.7308 -362.612L-101.128 -374.252C-105.452 -389.087 -109.923 -404.427 -114.034 -419.826C-125.866 -464.147 -139.278 -514.381 -114.928 -561.888C-113.271 -565.123 -111.145 -568.131 -108.783 -570.586C-90.3665 -589.737 -56.715 -587.181 -29.6756 -585.128C-23.2784 -584.642 -17.2356 -584.183 -11.8988 -584.054L-11.9962 -582.482C-17.3649 -582.612 -23.4233 -583.072 -29.837 -583.559C-56.5996 -585.592 -89.9063 -588.122 -107.854 -569.458C-110.107 -567.117 -112.134 -564.246 -113.718 -561.156C-137.759 -514.253 -124.439 -464.361 -112.687 -420.343C-108.581 -404.961 -104.112 -389.63 -99.7908 -374.805L-96.3938 -363.164C-84.2042 -321.428 -71.6006 -278.272 -61.9222 -234.97L-61.2473 -231.958C-57.8902 -217.012 -54.4186 -201.557 -54.3527 -186.317C-54.2261 -156.778 -71.1811 -126.702 -104.747 -96.9236C-124.69 -79.2318 -149.519 -65.1476 -171.425 -52.7218C-219.947 -25.1986 -266.321 7.1872 -254.378 73.095C-250.376 95.1711 -248.94 116.756 -247.419 139.609L-247.276 141.757C-244.856 178.086 -227.549 204.966 -210.817 230.957C-187.767 266.758 -160.313 300.745 -133.762 333.615C-102.286 372.582 -69.7378 412.876 -44.218 456.551L-42.8046 458.967C-27.6523 484.858 -10.4764 514.203 -17.3013 548.004C-21.7371 569.963 -34.9564 587.149 -47.7403 603.769C-49.0559 605.479 -50.3693 607.187 -51.6709 608.896C-75.9623 640.795 -88.5296 668.129 -96.4962 706.386L-97.8624 706.1Z" fill="#A1A7FF"/>
<path d="M-107.263 713.133C-100.883 675.409 -89.2526 648.908 -64.3518 615.356L-62.2185 612.489C-49.375 595.239 -36.0941 577.401 -32.9216 554.523C-28.4771 522.485 -44.5903 492.954 -58.8027 466.896L-60.7673 463.288C-86.1412 416.611 -119.15 373.37 -151.072 331.554C-173.872 301.687 -197.447 270.802 -217.993 238.976C-220.188 235.575 -222.537 232.045 -224.965 228.398C-241.617 203.375 -262.342 172.229 -261.198 140.218C-261.007 134.894 -260.75 129.62 -260.502 124.519C-259.619 106.368 -258.785 89.222 -260.813 70.8654C-268.239 3.67601 -220.377 -25.7951 -174.093 -54.2949L-168.975 -57.4423C-148.201 -70.2027 -126.72 -83.398 -109.193 -99.9764C-87.0868 -120.885 -61.7163 -153.52 -66.3882 -190.252C-68.3465 -205.65 -71.0925 -222.158 -74.7838 -240.719C-83.7917 -286.015 -96.8528 -331.264 -109.484 -375.024L-114.061 -390.892C-117.996 -404.536 -122.064 -418.642 -125.783 -432.521L-126.66 -435.792C-138.587 -480.223 -152.105 -530.584 -125.888 -573.674C-123.954 -576.852 -121.542 -579.733 -119.097 -581.783C-95.7093 -601.399 -55.7659 -594.565 -26.6008 -589.576C-22.6689 -588.903 -18.903 -588.259 -15.3643 -587.707L-15.6226 -586.15C-19.1673 -586.702 -22.9388 -587.347 -26.8778 -588.021C-55.7939 -592.967 -95.3962 -599.743 -118.291 -580.541C-120.606 -578.599 -122.897 -575.861 -124.74 -572.832C-150.567 -530.384 -137.151 -480.405 -125.314 -436.31L-124.437 -433.038C-120.722 -419.175 -116.655 -405.075 -112.723 -391.44L-108.146 -375.571C-95.5053 -331.779 -82.4339 -286.495 -73.4122 -241.13C-69.7137 -222.53 -66.9612 -205.985 -64.9975 -190.546C-60.2334 -153.085 -85.925 -119.975 -108.317 -98.7953C-125.959 -82.1087 -147.507 -68.8722 -168.346 -56.0714L-173.462 -52.9259C-221.423 -23.3934 -266.724 4.50101 -259.419 70.5987C-257.376 89.0926 -258.214 106.305 -259.1 124.528C-259.347 129.624 -259.605 134.892 -259.794 140.205C-260.922 171.676 -240.351 202.585 -223.825 227.419C-221.394 231.074 -219.04 234.609 -216.842 238.015C-196.327 269.793 -172.769 300.655 -149.985 330.499C-118.03 372.36 -84.9866 415.646 -59.5594 462.426L-57.5947 466.03C-43.2588 492.307 -27.0131 522.09 -31.5339 554.691C-34.7685 578.018 -48.1831 596.036 -61.1581 613.461L-63.2889 616.327C-88.0103 649.636 -99.5556 675.933 -105.884 713.355L-107.263 713.133Z" fill="#A1A7FF"/>
<path d="M-116.646 720.169C-111.178 678.047 -97.5818 652.547 -75.9443 622.736C-37.7269 570.079 -45.3762 530.175 -74.2131 470.564C-74.549 469.868 -74.8884 469.171 -75.228 468.478C-100.084 417.708 -133.988 370.46 -166.792 324.747C-184.337 300.296 -202.479 275.013 -218.848 249.694C-221.732 245.234 -224.863 240.581 -228.178 235.655C-246.483 208.449 -269.266 174.593 -271.082 140.872C-271.741 128.641 -270.357 115.775 -269.017 103.333C-267.749 91.5499 -266.437 79.3653 -266.857 67.7176C-269.056 6.75928 -230.915 -17.8887 -190.535 -43.9843C-185.094 -47.5002 -179.468 -51.1356 -173.935 -54.8641C-171.361 -56.5987 -168.758 -58.3365 -166.139 -60.0859C-147.397 -72.601 -128.017 -85.5427 -112.571 -101.477C-85.7427 -129.151 -73.0764 -162.937 -77.8179 -194.17C-78.7225 -200.129 -79.5623 -206.217 -80.4511 -212.662C-82.0166 -224.007 -83.635 -235.74 -85.6521 -246.864C-94.7851 -297.255 -109.114 -347.404 -122.97 -395.902L-126.069 -406.718C-129.611 -419.056 -133.272 -431.814 -136.652 -444.352C-137.459 -447.344 -138.321 -450.463 -139.214 -453.689C-150.557 -494.709 -166.091 -550.888 -135.161 -584.733C-132.787 -587.332 -129.875 -589.767 -126.742 -591.775C-95.9623 -611.505 -55.2076 -602.86 -19.4236 -593.206L-19.8135 -591.676C-55.3351 -601.259 -95.7715 -609.855 -126.089 -590.42C-129.113 -588.481 -131.919 -586.135 -134.205 -583.634C-164.492 -550.493 -149.106 -494.849 -137.871 -454.219C-136.977 -450.99 -136.114 -447.867 -135.307 -444.872C-131.93 -432.347 -128.27 -419.595 -124.731 -407.264L-121.631 -396.446C-107.763 -347.909 -93.423 -297.72 -84.2747 -247.248C-82.2517 -236.088 -80.6308 -224.338 -79.0628 -212.974C-78.1747 -206.535 -77.3359 -200.453 -76.4331 -194.506C-71.6081 -162.726 -84.4434 -128.405 -111.647 -100.343C-127.208 -84.2901 -146.656 -71.3033 -165.464 -58.7442C-168.08 -56.9964 -170.682 -55.2599 -173.254 -53.5262C-178.799 -49.79 -184.431 -46.1508 -189.877 -42.631C-229.856 -16.7954 -267.616 7.607 -265.454 67.5788C-265.029 79.3539 -266.347 91.6028 -267.623 103.447C-268.955 115.82 -270.332 128.613 -269.681 140.703C-267.887 173.969 -245.241 207.625 -227.042 234.672C-223.723 239.603 -220.589 244.261 -217.698 248.734C-201.347 274.023 -183.217 299.291 -165.68 323.726C-132.844 369.487 -98.8999 416.79 -73.9899 467.67C-73.6479 468.369 -73.3095 469.064 -72.9712 469.765C-61.109 494.288 -49.9573 520.604 -48.7027 546.891C-47.4567 572.972 -55.7732 597.377 -74.8727 623.693C-96.3458 653.278 -109.837 678.574 -115.257 720.322L-116.646 720.169Z" fill="#A1A7FF"/>
<path d="M-126.009 727.205C-122.173 686.239 -109.516 661.481 -87.5017 630.123C-50.7988 577.837 -63.6087 534.564 -85.7142 479.139C-108.782 421.312 -144.739 368.3 -179.516 317.031C-191.382 299.538 -203.651 281.45 -215.064 263.643C-217.541 259.778 -220.062 255.887 -222.602 251.968C-244.115 218.769 -266.361 184.439 -276.164 144.834C-280.794 126.143 -278.56 107.508 -276.4 89.4875C-275.408 81.1984 -274.38 72.6263 -274.007 64.0683C-271.527 7.09568 -238.752 -13.38 -200.803 -37.0897C-191.894 -42.6554 -182.683 -48.4104 -173.619 -54.8267L-173.102 -55.1923C-152.848 -69.5304 -131.904 -84.3557 -115.975 -102.762C-92.442 -129.956 -84.5522 -157.623 -88.7428 -198.261C-90.4263 -214.593 -92.5756 -233.844 -95.7492 -252.795C-104.576 -305.488 -118.855 -357.473 -132.724 -406.203C-134.098 -411.03 -135.487 -415.865 -136.878 -420.703C-140.13 -432.019 -143.492 -443.72 -146.617 -455.211C-147.552 -458.646 -148.558 -462.226 -149.598 -465.92C-160.947 -506.257 -176.49 -561.501 -142.263 -593.548C-139.698 -595.951 -136.627 -598.19 -133.384 -600.028C-101.073 -618.338 -53.9658 -614.235 -24.1315 -600.72L-24.7111 -599.257C-54.2555 -612.642 -100.87 -616.724 -132.799 -598.631C-135.942 -596.851 -138.914 -594.682 -141.393 -592.361C-174.863 -561.022 -159.485 -506.366 -148.256 -466.457C-147.216 -462.758 -146.208 -459.174 -145.272 -455.734C-142.15 -444.254 -138.79 -432.559 -135.539 -421.25C-134.148 -416.41 -132.758 -411.573 -131.384 -406.745C-117.502 -357.97 -103.21 -305.934 -94.3689 -253.155C-91.1871 -234.159 -89.0342 -214.874 -87.3475 -198.515C-83.1017 -157.34 -91.1101 -129.289 -114.99 -101.695C-131.044 -83.1447 -152.065 -68.2637 -172.394 -53.8737L-172.91 -53.5085C-182.009 -47.0669 -191.239 -41.3007 -200.165 -35.7242C-237.725 -12.258 -270.163 8.00823 -272.606 64.07C-272.981 72.6953 -274.012 81.3005 -275.009 89.6232C-277.249 108.31 -279.364 125.959 -274.811 144.347C-265.068 183.696 -242.893 217.911 -221.453 251.005C-218.911 254.926 -216.389 258.819 -213.909 262.686C-202.508 280.476 -190.243 298.556 -178.383 316.042C-143.563 367.377 -107.554 420.462 -84.4294 478.442C-62.8434 532.561 -49.2841 578.164 -86.4166 631.058C-108.257 662.171 -120.814 686.722 -124.613 727.294L-126.009 727.205Z" fill="#A1A7FF"/>
<path d="M-135.361 734.23C-132.961 694.37 -121.21 670.349 -98.9302 637.404C-66.5378 589.502 -79.0809 545.784 -93.6047 495.164L-95.4369 488.764C-113.59 425.125 -150.44 368.315 -186.077 313.371C-193.13 302.498 -200.424 291.252 -207.348 280.282L-208.558 278.364C-233.734 238.479 -259.767 197.241 -277.48 151.455C-289.664 119.96 -287.166 99.5942 -283.384 68.7655C-283.037 65.9372 -282.679 63.0237 -282.322 60.0065C-275.849 5.37098 -241.342 -14.2994 -204.808 -35.1243C-194.146 -41.2024 -183.121 -47.4872 -172.79 -54.7185C-152.12 -69.1899 -132.756 -87.1498 -119.666 -103.994C-96.6216 -133.649 -96.609 -164.77 -98.9885 -202.374C-100.139 -220.556 -102.154 -239.4 -104.976 -258.38C-112.421 -308.446 -124.93 -357.249 -141.423 -415.124C-143.124 -421.096 -144.854 -427.083 -146.585 -433.074C-149.612 -443.554 -152.743 -454.391 -155.676 -465.002C-156.614 -468.395 -157.623 -471.924 -158.664 -475.558C-170.117 -515.601 -185.805 -570.44 -148.806 -600.756C-146.077 -602.992 -142.86 -605.094 -139.505 -606.835C-108.472 -622.941 -61.1942 -624.344 -29.5341 -610.097L-30.111 -608.633C-61.4558 -622.737 -108.254 -621.354 -138.968 -605.413C-142.235 -603.718 -145.364 -601.673 -148.014 -599.502C-184.153 -569.891 -168.647 -515.684 -157.324 -476.105C-156.283 -472.464 -155.273 -468.932 -154.333 -465.534C-151.402 -454.932 -148.273 -444.1 -145.247 -433.625C-143.515 -427.631 -141.786 -421.642 -140.083 -415.669C-123.573 -357.731 -111.049 -308.868 -103.591 -258.712C-100.761 -239.684 -98.7412 -220.792 -97.5881 -202.561C-95.1853 -164.58 -95.2082 -133.13 -118.627 -102.995C-131.811 -86.0296 -151.298 -67.9515 -172.089 -53.3959C-182.475 -46.1258 -193.53 -39.824 -204.221 -33.73C-240.393 -13.1106 -274.559 6.36547 -280.93 60.1379C-281.288 63.158 -281.645 66.0741 -281.992 68.9039C-285.743 99.4726 -288.22 119.666 -276.188 150.77C-258.528 196.411 -232.536 237.591 -207.399 277.414L-206.189 279.331C-199.27 290.295 -191.979 301.535 -184.928 312.406C-149.228 367.447 -112.316 424.361 -94.0984 488.219L-92.2657 494.617C-77.6214 545.657 -64.9758 589.735 -97.8267 638.317C-119.929 670.998 -131.585 694.809 -133.959 734.26L-135.361 734.23Z" fill="#A1A7FF"/>
<path d="M-144.72 741.258C-143.951 699.541 -129.772 676.511 -110.149 644.637C-85.7214 604.96 -91.9208 569.233 -99.1002 527.864C-100.713 518.561 -102.383 508.941 -103.717 499.061C-112.656 432.833 -148.759 375.295 -183.674 319.646C-188.042 312.684 -192.368 305.79 -196.586 298.959C-203.284 288.113 -210.722 276.844 -218.598 264.915C-258.291 204.778 -307.696 129.941 -291.796 55.6214C-286.219 29.5502 -279.371 4.68588 -257.139 -12.9761C-243.088 -24.1383 -225.538 -31.5494 -208.567 -38.7156C-195.843 -44.0885 -183.823 -49.164 -173.673 -55.5711C-156.755 -66.2487 -139.554 -83.4668 -123.931 -105.363C-105.31 -131.461 -106.802 -166.94 -108.116 -198.242C-108.231 -200.982 -108.345 -203.697 -108.445 -206.377C-109.14 -225.027 -110.762 -244.253 -113.264 -263.52C-120.419 -318.613 -134.772 -372.756 -149.217 -423.059C-151.136 -429.744 -153.097 -436.449 -155.059 -443.158C-157.988 -453.172 -161.017 -463.528 -163.857 -473.665C-164.744 -476.834 -165.692 -480.115 -166.665 -483.486C-178.156 -523.285 -193.892 -577.789 -154.869 -606.528C-151.95 -608.678 -148.689 -610.64 -145.177 -612.361C-111.527 -628.847 -66.0609 -631.583 -34.612 -619.014L-35.14 -617.529C-65.7911 -629.777 -111.854 -627 -144.669 -610.923C-148.104 -609.239 -151.29 -607.323 -154.14 -605.225C-192.22 -577.18 -176.676 -523.345 -165.327 -484.036C-164.353 -480.66 -163.404 -477.376 -162.516 -474.203C-159.678 -464.074 -156.651 -453.723 -153.723 -443.713C-151.76 -437.002 -149.798 -430.294 -147.878 -423.607C-133.416 -373.241 -119.044 -319.025 -111.875 -263.821C-109.366 -244.501 -107.74 -225.223 -107.043 -206.519C-106.943 -203.841 -106.829 -201.13 -106.714 -198.393C-105.387 -166.806 -103.882 -131.004 -122.851 -104.418C-138.594 -82.3535 -155.946 -64.9911 -173.031 -54.2082C-183.28 -47.7392 -195.35 -42.6421 -208.129 -37.2464C-225.013 -30.1163 -242.472 -22.7447 -256.366 -11.707C-278.172 5.61556 -284.923 30.1657 -290.433 55.9174C-306.18 129.526 -256.984 204.055 -217.455 263.938C-209.574 275.878 -202.129 287.155 -195.42 298.021C-191.203 304.849 -186.88 311.739 -182.513 318.699C-147.509 374.485 -111.317 432.171 -102.328 498.75C-100.999 508.6 -99.3331 518.203 -97.7219 527.49C-90.7835 567.475 -84.2305 605.241 -109.008 645.485C-128.485 677.123 -142.557 699.981 -143.317 741.213L-144.72 741.258Z" fill="#A1A7FF"/>
<path d="M-154.066 748.307C-154.791 708.866 -141.762 686.709 -123.731 656.041L-121.093 651.552C-102.593 619.997 -105.644 591.087 -108.874 560.48C-110.585 544.273 -112.354 527.517 -111.066 509.524C-106.508 445.796 -142.152 387.357 -173.594 335.797C-177.088 330.069 -180.522 324.438 -183.833 318.908C-192.528 304.389 -201.561 289.69 -210.297 275.474C-230.919 241.914 -252.244 207.213 -271.145 171.627C-272.101 169.825 -273.08 167.995 -274.074 166.135C-291.937 132.701 -314.17 91.1053 -302.363 51.0908C-293.342 20.5216 -285.187 -2.36854 -262.274 -18.5732C-247.351 -29.1269 -229.325 -35.7893 -211.893 -42.2316C-198.88 -47.041 -186.588 -51.5836 -175.773 -57.5588C-156.649 -68.1247 -140.952 -84.7609 -129.116 -107.007C-115.546 -132.511 -116.26 -168.827 -116.834 -198.006C-116.917 -202.205 -116.997 -206.283 -117.034 -210.196C-117.2 -227.457 -118.36 -246.415 -120.581 -268.154C-126.35 -324.614 -141.316 -379.054 -156.152 -429.976C-158.15 -436.837 -160.199 -443.721 -162.249 -450.608C-165.236 -460.642 -168.325 -471.017 -171.203 -481.163C-172.033 -484.091 -172.919 -487.127 -173.83 -490.25C-185.389 -529.868 -201.218 -584.127 -160.511 -611.05C-157.138 -613.281 -153.758 -615.207 -150.464 -616.776C-120.787 -630.912 -74.883 -639.603 -39.2307 -627.151L-39.7078 -625.645C-75.0241 -637.979 -120.534 -629.352 -149.971 -615.331C-153.205 -613.79 -156.526 -611.897 -159.843 -609.703C-199.525 -583.458 -183.901 -529.907 -172.495 -490.805C-171.582 -487.678 -170.695 -484.638 -169.864 -481.707C-166.988 -471.57 -163.901 -461.2 -160.916 -451.171C-158.865 -444.282 -156.815 -437.394 -154.815 -430.53C-139.959 -379.535 -124.97 -325.011 -119.186 -268.409C-116.961 -246.617 -115.798 -227.606 -115.631 -210.29C-115.594 -206.383 -115.514 -202.31 -115.432 -198.118C-114.853 -168.732 -114.134 -132.16 -127.921 -106.249C-139.907 -83.7191 -155.816 -66.8639 -175.204 -56.1527C-186.112 -50.1259 -198.451 -45.5654 -211.516 -40.7374C-228.863 -34.3259 -246.801 -27.6962 -261.569 -17.2518C-284.058 -1.3467 -292.11 21.2831 -301.032 51.5186C-312.636 90.8446 -290.581 132.115 -272.861 165.277C-271.867 167.138 -270.888 168.97 -269.93 170.773C-251.052 206.318 -229.74 241 -209.13 274.538C-200.391 288.757 -191.356 303.461 -182.657 317.988C-179.347 323.514 -175.915 329.141 -172.424 334.866C-140.854 386.63 -105.071 445.303 -109.669 509.573C-110.944 527.412 -109.183 544.089 -107.481 560.219C-104.219 591.124 -101.139 620.316 -119.932 652.372L-122.571 656.864C-141.122 688.416 -153.379 709.259 -152.664 748.198L-154.066 748.307Z" fill="#A1A7FF"/>
<path d="M-163.402 755.377C-165.456 717.818 -153.716 697.168 -137.466 668.587C-135.605 665.314 -133.683 661.934 -131.713 658.409C-119.344 636.268 -113.655 618.975 -118.995 591.035L-119.139 590.278C-124.206 563.779 -127.552 546.274 -118.17 519.561C-97.7534 461.442 -135.629 397.73 -163.284 351.215C-165.722 347.113 -168.093 343.127 -170.353 339.267C-184.307 315.428 -199.456 291.411 -214.107 268.185C-231.313 240.911 -249.104 212.706 -265.359 184.192C-267.801 179.909 -270.594 175.194 -273.551 170.202C-293.815 135.996 -324.442 84.3042 -313.927 46.6227C-306.349 19.4698 -295.589 -7.97907 -268.402 -24.8231C-252.976 -34.3799 -235.171 -40.2053 -217.952 -45.8387C-204.093 -50.3727 -191.003 -54.6548 -179.212 -60.6983C-156.741 -72.2145 -143.668 -86.7256 -135.499 -109.218C-125.803 -135.914 -125.304 -172.589 -124.903 -202.057C-124.848 -206.081 -124.795 -209.999 -124.721 -213.775C-124.381 -231.182 -125.106 -250.306 -126.935 -272.238C-131.698 -329.347 -147.021 -384.39 -162.308 -435.873C-164.309 -442.613 -166.374 -449.382 -168.44 -456.154C-171.58 -466.452 -174.829 -477.099 -177.794 -487.482C-178.499 -489.949 -179.238 -492.489 -179.994 -495.087C-191.462 -534.484 -207.167 -588.438 -165.82 -614.497C-162.287 -616.724 -158.792 -618.663 -155.435 -620.259C-126.931 -633.815 -80.4975 -645.703 -43.4426 -634.594L-43.8673 -633.07C-80.5809 -644.077 -126.649 -632.269 -154.944 -618.813C-158.251 -617.24 -161.695 -615.329 -165.181 -613.132C-205.467 -587.741 -189.972 -534.51 -178.658 -495.643C-177.901 -493.041 -177.161 -490.5 -176.455 -488.029C-173.495 -477.661 -170.249 -467.019 -167.109 -456.729C-165.043 -449.953 -162.976 -443.179 -160.973 -436.436C-145.662 -384.869 -130.314 -329.732 -125.537 -272.461C-123.703 -250.468 -122.977 -231.286 -123.317 -213.817C-123.391 -210.046 -123.444 -206.131 -123.499 -202.11C-123.902 -172.507 -124.404 -135.666 -134.203 -108.686C-142.529 -85.76 -155.831 -70.981 -178.682 -59.2693C-190.571 -53.1762 -203.71 -48.8771 -217.622 -44.3264C-234.765 -38.7184 -252.49 -32.9188 -267.772 -23.4508C-294.495 -6.89486 -305.105 20.2062 -312.59 47.0251C-322.904 83.9863 -292.494 135.32 -272.37 169.286C-269.41 174.284 -266.614 179.002 -264.166 183.297C-247.927 211.783 -230.146 239.972 -212.949 267.234C-198.291 290.469 -183.135 314.496 -169.167 338.357C-166.91 342.215 -164.541 346.199 -162.105 350.296C-134.282 397.093 -96.1808 461.185 -116.867 520.076C-126.09 546.334 -122.778 563.656 -117.766 589.876L-117.621 590.634C-112.181 619.1 -117.963 636.692 -130.535 659.196C-132.506 662.726 -134.43 666.111 -136.293 669.387C-152.395 697.705 -164.027 718.165 -162.001 755.202L-163.402 755.377Z" fill="#A1A7FF"/>
<path d="M-172.729 762.461C-176.014 726.312 -165.119 706.954 -150.041 680.161C-147.53 675.7 -144.934 671.088 -142.259 666.139C-128.659 640.991 -126.203 623.203 -132.528 595.64L-132.629 595.203C-138.48 569.709 -142.705 551.289 -125.908 528.518C-88.8029 478.212 -129.129 409.19 -155.82 363.517L-158.501 358.926C-175.274 330.123 -193.636 301.416 -211.393 273.652C-227.164 248.994 -243.47 223.498 -258.702 197.891C-262.37 191.726 -266.384 185.214 -270.635 178.32C-296.241 136.795 -328.105 85.1128 -324.163 43.7689C-318.756 -12.9346 -270.465 -31.1707 -223.765 -48.8061C-210.462 -53.8294 -196.706 -59.0243 -184.155 -65.0292C-167.193 -73.1435 -147.236 -85.8412 -143.426 -112.217L-143.351 -112.74C-138.364 -147.272 -133.206 -182.98 -131.509 -217.084C-130.642 -234.52 -130.925 -253.718 -132.375 -275.774C-136.135 -332.954 -151.935 -388.636 -167.797 -440.767C-169.563 -446.575 -171.394 -452.411 -173.227 -458.255C-176.756 -469.511 -180.406 -481.151 -183.549 -492.468C-184.426 -495.627 -185.36 -498.881 -186.315 -502.209C-197.753 -542.072 -211.987 -591.682 -170.856 -617.064C-167.18 -619.332 -163.581 -621.325 -160.157 -622.987C-120.337 -642.323 -78.1477 -649.217 -47.2984 -641.428L-47.6712 -639.889C-78.2422 -647.608 -120.106 -640.75 -159.656 -621.546C-163.036 -619.904 -166.593 -617.935 -170.228 -615.692C-210.287 -590.971 -196.253 -542.06 -184.977 -502.761C-184.02 -499.427 -183.086 -496.169 -182.207 -493.006C-179.072 -481.714 -175.426 -470.088 -171.899 -458.844C-170.066 -452.997 -168.234 -447.155 -166.466 -441.343C-150.576 -389.119 -134.747 -333.33 -130.975 -275.969C-129.52 -253.845 -129.236 -234.581 -130.107 -217.076C-131.808 -182.888 -136.972 -147.137 -141.965 -112.565L-142.04 -112.042C-145.966 -84.8624 -166.344 -71.8683 -183.659 -63.5845C-196.264 -57.5531 -210.048 -52.3482 -223.377 -47.314C-269.632 -29.8467 -317.461 -11.7858 -322.767 43.8574C-326.653 84.6303 -294.946 136.056 -269.467 177.379C-265.214 184.279 -261.195 190.796 -257.522 196.971C-242.303 222.557 -226.003 248.043 -210.239 272.69C-192.474 300.466 -174.104 329.189 -157.314 358.017L-154.634 362.607C-127.725 408.662 -87.0581 478.259 -124.846 529.485C-141.165 551.608 -137.013 569.7 -131.268 594.74L-131.168 595.177C-124.732 623.219 -127.231 641.319 -141.068 666.907C-143.751 671.867 -146.351 676.487 -148.864 680.955C-163.785 707.468 -174.566 726.624 -171.332 762.223L-172.729 762.461Z" fill="#A1A7FF"/>
<path d="M-182.044 769.559C-186.487 734.624 -176.243 716.54 -162.063 691.511C-159.074 686.235 -155.983 680.779 -152.797 674.757C-138.359 647.47 -139.247 628.725 -146.197 601.639C-152.014 578.965 -154.991 560.002 -136.461 539.63C-120.688 522.291 -109.546 508.163 -109.851 484.168C-110.33 446.117 -131.273 409.183 -148.106 379.506L-149.738 376.626C-168.778 343.014 -190.085 309.78 -210.689 277.642C-224.352 256.332 -238.479 234.298 -251.846 212.312C-256.594 204.501 -261.615 196.528 -266.929 188.088C-295.204 143.194 -327.244 92.3099 -331.599 43.5253C-337.357 -20.9978 -281.571 -39.1758 -232.351 -55.2141C-217.235 -60.1397 -202.956 -64.7924 -190.741 -70.5553C-166.476 -82.0011 -154.184 -97.0086 -153.162 -116.435C-152.257 -133.653 -148.664 -152.357 -145.19 -170.446C-142.021 -186.944 -138.744 -204.003 -137.44 -220.133C-136.035 -237.487 -135.886 -256.675 -136.984 -278.791C-139.802 -335.543 -156.201 -391.873 -172.757 -444.706L-175.09 -452.142C-179.567 -466.391 -184.197 -481.126 -188.349 -495.582C-189.269 -498.783 -190.237 -502.054 -191.222 -505.378C-202.811 -544.519 -217.235 -593.23 -175.684 -618.947C-171.888 -621.296 -168.191 -623.381 -164.696 -625.145C-145.159 -635.001 -94.9575 -656.934 -50.8494 -647.737L-51.1734 -646.186C-94.891 -655.301 -144.762 -633.504 -164.175 -623.71C-167.634 -621.965 -171.295 -619.9 -175.056 -617.572C-215.525 -592.525 -201.904 -546.526 -189.888 -505.942C-188.902 -502.613 -187.932 -499.338 -187.012 -496.133C-182.865 -481.696 -178.238 -466.971 -173.765 -452.732L-171.43 -445.295C-154.843 -392.359 -138.411 -335.91 -135.583 -278.958C-134.481 -256.764 -134.631 -237.501 -136.042 -220.068C-137.355 -203.841 -140.641 -186.733 -143.819 -170.187C-147.282 -152.158 -150.863 -133.516 -151.762 -116.42C-152.819 -96.3007 -165.41 -80.8231 -190.254 -69.1044C-202.548 -63.3049 -216.866 -58.6396 -232.024 -53.7005C-280.686 -37.8439 -335.839 -19.8723 -330.202 43.2899C-325.884 91.6775 -293.947 142.391 -265.771 187.136C-260.452 195.58 -255.428 203.557 -250.672 211.38C-237.317 233.35 -223.194 255.376 -209.537 276.678C-188.921 308.834 -167.604 342.084 -148.544 375.732L-146.911 378.613C-129.99 408.444 -108.932 445.579 -108.446 484.067C-108.136 508.71 -119.465 523.097 -135.505 540.73C-153.452 560.46 -150.53 578.977 -144.845 601.134C-137.784 628.653 -136.891 647.712 -151.6 675.513C-154.798 681.556 -157.895 687.023 -160.89 692.31C-174.901 717.04 -185.024 734.909 -180.656 769.259L-182.044 769.559Z" fill="#A1A7FF"/>
<path d="M-191.352 776.664C-197.131 741.93 -186.642 723.934 -172.126 699.027C-169.337 694.242 -166.452 689.292 -163.486 683.891C-149.968 659.268 -151.042 640.358 -157.465 616.013C-163.831 591.887 -168.86 572.83 -148.458 552.538C-133.226 537.385 -117.131 518.776 -113.238 495.654C-107.464 461.356 -126.404 426.178 -141.617 397.914C-142.763 395.786 -143.885 393.702 -144.972 391.665C-165.294 353.557 -188.998 316.29 -211.921 280.25C-222.993 262.842 -234.442 244.842 -245.36 226.983C-250.48 218.606 -255.7 210.269 -261.226 201.443C-291.033 153.829 -324.821 99.8622 -336.703 45.5901C-341.605 23.2031 -340.021 4.95408 -331.861 -10.1993C-315.931 -39.7815 -278.07 -51.3304 -241.456 -62.4981C-226.08 -67.1876 -211.558 -71.6176 -199.036 -77.2573C-177.022 -87.1728 -165.275 -101.65 -163.122 -121.515C-161.384 -137.551 -157.115 -154.905 -152.985 -171.687C-148.805 -188.678 -144.482 -206.247 -142.599 -222.952C-140.663 -240.142 -140.104 -259.242 -140.891 -281.346C-143.008 -340.858 -162.048 -400.126 -177.347 -447.749C-179.125 -453.283 -180.94 -458.828 -182.756 -464.374C-186.347 -475.341 -190.059 -486.682 -193.428 -497.807C-194.185 -500.311 -194.965 -502.844 -195.751 -505.402C-208.453 -546.684 -222.848 -593.475 -180.375 -620.332C-176.388 -622.853 -172.707 -625.004 -169.119 -626.908C-144.5 -639.975 -96.8274 -660.82 -54.149 -653.602L-54.427 -652.04C-96.7366 -659.196 -144.104 -638.476 -168.574 -625.488C-172.129 -623.6 -175.781 -621.467 -179.736 -618.966C-221.13 -592.791 -206.941 -546.674 -194.423 -505.984C-193.635 -503.425 -192.855 -500.888 -192.096 -498.383C-188.734 -487.275 -185.024 -475.943 -181.436 -464.986C-179.619 -459.435 -177.803 -453.889 -176.024 -448.351C-160.693 -400.629 -141.614 -341.238 -139.489 -281.488C-138.699 -259.298 -139.261 -240.111 -141.207 -222.834C-143.103 -206.013 -147.44 -188.386 -151.634 -171.339C-155.749 -154.614 -160.004 -137.32 -161.73 -121.404C-163.953 -100.879 -176.005 -85.9604 -198.573 -75.7964C-211.174 -70.1203 -225.736 -65.6781 -241.153 -60.975C-277.484 -49.8939 -315.053 -38.4347 -330.67 -9.43205C-338.62 5.33055 -340.147 23.1815 -335.339 45.1412C-323.517 99.1405 -291.258 150.665 -260.066 200.492C-254.538 209.322 -249.316 217.663 -244.19 226.046C-233.28 243.894 -221.834 261.888 -210.766 279.29C-187.827 315.354 -164.108 352.646 -143.759 390.804C-142.673 392.841 -141.552 394.922 -140.408 397.048C-125.073 425.533 -105.985 460.981 -111.86 495.873C-115.836 519.488 -132.137 538.354 -147.559 553.696C-167.256 573.288 -162.584 590.993 -156.119 615.496C-149.582 640.266 -148.498 659.527 -162.302 684.669C-165.28 690.092 -168.169 695.049 -170.964 699.845C-185.294 724.431 -195.646 742.195 -189.973 776.3L-191.352 776.664Z" fill="#A1A7FF"/>
<path d="M-200.653 783.771C-207.474 750.267 -197.574 733.724 -183.871 710.827C-180.703 705.536 -177.429 700.064 -174.061 693.903C-162.674 673.074 -167.021 651.657 -171.226 630.943C-176.163 606.621 -180.826 583.648 -160.463 563.472C-142.821 545.992 -133.028 530.053 -127.716 510.182C-116.52 468.287 -128.943 436.999 -145.053 403.321C-168.278 354.729 -198.796 307.648 -228.287 262.131C-271.653 195.201 -316.498 125.995 -339.915 49.7272C-355.602 -1.35372 -344.747 -36.3501 -306.733 -57.2619C-288.614 -67.2292 -268.34 -71.264 -248.734 -75.1658C-235.45 -77.8091 -221.715 -80.5422 -209.047 -85.0962C-190.727 -91.6814 -179.568 -104.753 -172.865 -127.479C-170.953 -133.961 -168.972 -140.466 -166.985 -146.986C-159.106 -172.851 -150.958 -199.597 -147.116 -225.614C-144.625 -242.483 -143.718 -260.885 -144.262 -283.525C-145.617 -339.943 -162.897 -394.48 -182.023 -450.033C-183.733 -455.001 -185.481 -459.979 -187.231 -464.966C-191.198 -476.268 -195.3 -487.955 -198.926 -499.449L-200.22 -503.537C-213.501 -545.471 -228.556 -592.999 -184.999 -621.423C-180.663 -624.253 -177.009 -626.491 -173.497 -628.467C-148.69 -642.433 -100.6 -664.982 -57.2523 -659.105L-57.4908 -657.538C-100.471 -663.365 -148.261 -640.945 -172.922 -627.063C-176.406 -625.102 -180.034 -622.88 -184.343 -620.069C-226.833 -592.34 -211.989 -545.479 -198.894 -504.135L-197.6 -500.044C-193.983 -488.576 -189.885 -476.901 -185.922 -465.611C-184.171 -460.622 -182.422 -455.64 -180.71 -450.669C-161.54 -394.987 -144.22 -340.315 -142.86 -283.65C-142.313 -260.906 -143.225 -242.408 -145.733 -225.436C-149.593 -199.285 -157.761 -172.473 -165.661 -146.545C-167.645 -140.031 -169.626 -133.531 -171.536 -127.053C-178.405 -103.764 -189.861 -90.3608 -208.684 -83.595C-221.445 -79.0073 -235.23 -76.2639 -248.559 -73.6122C-268.067 -69.73 -288.237 -65.7161 -306.17 -55.8516C-343.391 -35.3762 -353.994 -1.0322 -338.587 49.1444C-315.231 125.197 -270.448 194.317 -227.139 261.158C-197.624 306.715 -167.095 353.787 -143.81 402.518C-127.556 436.5 -115.024 468.088 -126.374 510.561C-131.772 530.755 -141.699 546.927 -159.569 564.632C-179.269 584.153 -174.697 606.674 -169.857 630.517C-165.59 651.539 -161.177 673.278 -172.876 694.679C-176.261 700.869 -179.543 706.355 -182.72 711.662C-196.216 734.214 -205.968 750.51 -199.285 783.343L-200.653 783.771Z" fill="#A1A7FF"/>
<path d="M-209.949 790.878C-217.758 758.514 -208.394 743.445 -195.432 722.589C-191.95 716.983 -188.347 711.187 -184.65 704.428C-173.02 683.174 -177.876 662.21 -182.571 641.937C-188.188 617.677 -193.493 594.765 -172.476 572.126C-131.514 528.006 -132.51 457.605 -150.771 410.863C-174.791 349.386 -210.643 291.63 -245.316 235.774C-280.969 178.339 -317.838 118.946 -341.64 55.7139C-359.276 8.85879 -368.716 -38.3324 -318.811 -66.1395C-301.994 -75.5114 -282.943 -78.9777 -264.521 -82.3297C-248.851 -85.1812 -234.053 -87.8744 -220.902 -93.9202C-201.23 -102.965 -192.897 -114.089 -182.662 -134.119C-168.375 -162.081 -156.891 -196.374 -151.154 -228.206C-148.177 -244.725 -146.953 -262.912 -147.302 -285.442C-148.232 -345.412 -169.959 -404.471 -187.415 -451.925C-188.76 -455.581 -190.122 -459.243 -191.487 -462.91C-196.097 -475.301 -200.864 -488.114 -204.959 -500.763C-218.768 -543.414 -234.419 -591.755 -189.627 -622.412C-185.132 -625.487 -181.406 -627.899 -177.9 -630.001C-153.049 -644.902 -104.715 -669.175 -60.2123 -664.32L-60.4199 -662.748C-104.551 -667.561 -152.587 -643.429 -177.292 -628.615C-180.772 -626.529 -184.475 -624.132 -188.944 -621.073C-232.698 -591.128 -217.925 -545.498 -203.639 -501.37C-199.553 -488.753 -194.792 -475.958 -190.188 -463.583C-188.824 -459.914 -187.46 -456.25 -186.114 -452.592C-168.614 -405.019 -146.834 -345.814 -145.899 -285.551C-145.548 -262.903 -146.781 -244.606 -149.779 -227.969C-155.546 -195.972 -167.092 -161.497 -181.455 -133.385C-191.864 -113.012 -200.352 -101.693 -220.43 -92.4617C-233.736 -86.3444 -248.615 -83.6361 -264.368 -80.7699C-282.684 -77.4374 -301.624 -73.9904 -318.244 -64.7298C-367.048 -37.5351 -357.707 8.9039 -340.342 55.0355C-316.6 118.128 -279.768 177.452 -244.152 234.826C-209.443 290.742 -173.549 348.557 -149.481 410.167C-131.03 457.395 -130.062 528.571 -171.534 573.241C-191.924 595.203 -186.72 617.675 -181.211 641.465C-176.442 662.061 -171.51 683.356 -183.466 705.207C-187.187 712.006 -190.801 717.824 -194.297 723.45C-207.031 743.939 -216.229 758.744 -208.593 790.393L-209.949 790.878Z" fill="#A1A7FF"/>
<path d="M-219.243 797.982C-227.993 766.674 -219.134 753.08 -206.873 734.268C-203.294 728.776 -199.237 722.551 -195.263 715.319C-183.331 693.604 -188.455 672.648 -193.412 652.382C-199.199 628.713 -205.183 604.238 -184.494 578.337C-147.641 532.2 -155.932 468.677 -162.593 417.633L-163.094 413.783C-167.935 376.549 -192.898 335.924 -214.928 300.084C-221.752 288.981 -228.196 278.495 -234.014 268.252C-240.556 256.736 -247.307 245.007 -253.836 233.663C-285.456 178.727 -318.155 121.919 -342.258 63.2881L-342.378 62.9984C-351.84 39.9861 -362.564 13.9032 -364.332 -10.7645C-366.394 -39.5442 -355.751 -60.6208 -331.797 -75.1949C-314.991 -85.421 -295.574 -88.9112 -276.797 -92.2857C-261.455 -95.0436 -246.965 -97.6476 -234.398 -103.673C-218.242 -111.42 -205.336 -122.984 -192.552 -141.17C-175.637 -165.229 -161.922 -197.917 -154.924 -230.853C-151.504 -246.955 -150.022 -264.871 -150.26 -287.24C-150.86 -343.529 -171.458 -396.558 -191.378 -447.841L-193.646 -453.682C-194.627 -456.214 -195.617 -458.75 -196.608 -461.29C-201.797 -474.592 -207.163 -488.347 -211.626 -501.984C-227.943 -551.843 -237.031 -592.451 -194.335 -623.498C-189.955 -626.681 -186.051 -629.364 -182.4 -631.699C-157.625 -647.544 -109.18 -673.503 -63.0914 -669.325L-63.276 -667.75C-108.986 -671.893 -157.129 -646.086 -181.758 -630.334C-185.384 -628.015 -189.263 -625.349 -193.619 -622.182C-235.391 -591.808 -226.401 -551.775 -210.307 -502.598C-205.857 -489.004 -200.5 -475.27 -195.319 -461.988C-194.328 -459.447 -193.338 -456.911 -192.355 -454.377L-190.088 -448.538C-170.114 -397.116 -149.46 -343.945 -148.857 -287.343C-148.618 -264.839 -150.112 -246.797 -153.561 -230.563C-160.608 -197.4 -174.425 -164.474 -191.47 -140.229C-204.42 -121.81 -217.508 -110.088 -233.908 -102.224C-246.64 -96.1188 -261.217 -93.4992 -276.648 -90.7262C-295.305 -87.3726 -314.598 -83.9049 -331.183 -73.8137C-383.874 -41.753 -360.156 15.9261 -341.1 62.2733L-340.981 62.5623C-316.915 121.096 -284.244 177.859 -252.648 232.755C-246.117 244.1 -239.366 255.832 -232.821 267.351C-227.016 277.571 -220.577 288.048 -213.761 299.139C-191.65 335.117 -166.59 375.892 -161.706 413.474L-161.204 417.323C-154.5 468.7 -146.155 532.641 -183.473 579.36C-203.625 604.587 -198.006 627.564 -192.057 651.889C-187.022 672.48 -181.815 693.774 -194.082 716.098C-198.086 723.387 -202.162 729.64 -205.759 735.158C-218.212 754.267 -226.439 766.891 -217.903 797.436L-219.243 797.982Z" fill="#A1A7FF"/>
<path d="M-228.535 805.078C-238.185 774.726 -230.242 763.209 -218.218 745.776C-214.417 740.265 -210.109 734.016 -205.905 726.409C-195.252 707.122 -200.248 692.059 -206.034 674.618C-207.864 669.101 -209.756 663.396 -211.209 657.319C-217.599 630.587 -212.928 606.68 -196.509 582.081C-171.611 544.777 -176.495 502.596 -181.217 461.803C-182.771 448.381 -184.379 434.502 -184.932 420.91C-187.059 368.728 -209.24 327.117 -232.718 283.072L-234.539 279.656C-244.406 261.133 -254.715 242.355 -264.685 224.195C-291.724 174.941 -319.682 124.009 -342.118 72.2077C-343.538 68.9266 -345.063 65.4877 -346.646 61.9145C-366.258 17.6604 -395.897 -49.2169 -345.304 -84.0384C-327.878 -96.032 -307.861 -99.9767 -288.502 -103.793C-275.366 -106.382 -261.781 -109.06 -249.475 -114.253C-231.763 -121.727 -214.663 -134.185 -202.559 -148.432C-182.274 -172.306 -167.917 -200.212 -158.666 -233.743C-153.744 -251.587 -153.235 -270.893 -153.418 -289.098C-153.945 -341.415 -174.025 -390.27 -193.443 -437.518C-195.922 -443.549 -198.388 -449.551 -200.8 -455.524L-202.708 -460.244C-208.397 -474.302 -214.278 -488.84 -218.992 -503.315C-234.069 -549.625 -242.984 -590.737 -199.193 -624.884C-195.129 -628.053 -191.05 -631.035 -187.07 -633.748C-162.452 -650.527 -113.98 -678.092 -65.9435 -674.194L-66.1182 -672.616C-113.76 -676.483 -161.922 -649.084 -186.39 -632.407C-190.344 -629.712 -194.397 -626.748 -198.437 -623.598C-241.431 -590.073 -233.069 -551.227 -217.671 -503.929C-212.975 -489.506 -207.103 -474.995 -201.425 -460.962L-199.516 -456.24C-197.107 -450.27 -194.642 -444.272 -192.163 -438.243C-172.686 -390.852 -152.544 -341.846 -152.013 -289.199C-151.829 -270.863 -152.345 -251.406 -157.328 -233.347C-166.648 -199.562 -181.119 -171.438 -201.569 -147.369C-213.825 -132.944 -231.129 -120.335 -249.044 -112.776C-261.478 -107.528 -275.13 -104.838 -288.332 -102.235C-307.556 -98.4466 -327.434 -94.5281 -344.618 -82.7009C-394.053 -48.6763 -364.765 17.4156 -345.383 61.1484C-343.797 64.7257 -342.271 68.1701 -340.849 71.4539C-318.444 123.193 -290.502 174.089 -263.48 223.312C-253.507 241.476 -243.196 260.26 -233.323 278.791L-231.504 282.206C-207.936 326.423 -185.674 368.188 -183.53 420.754C-182.979 434.28 -181.375 448.126 -179.825 461.518C-175.064 502.629 -170.143 545.143 -195.404 582.987C-211.528 607.147 -216.12 630.611 -209.851 656.832C-208.415 662.841 -206.534 668.513 -204.714 673.997C-199.047 691.084 -193.693 707.224 -204.725 727.192C-208.969 734.876 -213.303 741.159 -217.127 746.705C-228.853 763.707 -236.601 774.939 -227.211 804.476L-228.535 805.078Z" fill="#A1A7FF"/>
<path d="M-237.834 812.165C-242.546 798.795 -246.703 783.305 -241.823 769.78C-238.978 761.897 -233.389 756.681 -227.983 751.634C-223.665 747.603 -219.198 743.434 -216.267 737.966C-206.313 719.402 -212.275 702.694 -218.585 685.006C-221.356 677.241 -224.221 669.21 -225.578 661.066C-230.447 631.833 -220.265 606.514 -208.536 583.51C-189.536 546.252 -195.718 506.885 -201.696 468.813C-204.087 453.585 -206.56 437.839 -207.431 422.34C-207.846 414.96 -207.718 407.345 -207.585 399.282C-207.347 385.061 -207.102 370.356 -210.08 357.242C-214.707 336.885 -224.127 317.593 -233.251 298.932C-234.903 295.55 -236.535 292.199 -238.131 288.878C-252.391 259.137 -267.876 229.391 -282.866 200.62C-302.942 162.095 -323.699 122.254 -341.537 82.2134C-343.539 77.7176 -345.912 72.6493 -348.425 67.2843C-369.817 21.6065 -405.623 -54.8436 -359.204 -92.6608C-341.218 -107.313 -319.147 -112.07 -297.804 -116.67C-286.882 -119.024 -275.586 -121.458 -265.192 -125.192C-243.534 -132.973 -225.86 -143.261 -212.662 -155.769C-189.081 -178.118 -172.731 -204.692 -162.677 -237.011C-157.332 -254.191 -156.836 -273.218 -157.097 -291.22C-157.802 -340.018 -177.728 -385.677 -196.998 -429.833C-200.992 -438.985 -205.121 -448.449 -208.934 -457.64L-209.894 -459.952C-215.979 -474.609 -222.27 -489.765 -227.098 -504.934C-243.814 -557.458 -245.127 -592.432 -204.27 -626.781C-200.459 -629.984 -196.322 -633.203 -191.973 -636.347C-150.327 -666.464 -105.441 -682.013 -68.8242 -679.006L-68.9999 -677.429C-105.315 -680.411 -149.878 -664.956 -191.262 -635.029C-195.581 -631.906 -199.688 -628.711 -203.47 -625.53C-243.589 -591.804 -242.26 -557.339 -225.774 -505.538C-220.967 -490.434 -214.689 -475.31 -208.617 -460.685L-207.658 -458.372C-203.85 -449.195 -199.724 -439.738 -195.732 -430.591C-176.397 -386.287 -156.404 -340.474 -155.694 -291.33C-155.432 -273.18 -155.936 -253.982 -161.356 -236.56C-171.501 -203.947 -187.999 -177.133 -211.793 -154.582C-225.143 -141.93 -242.988 -131.535 -264.833 -123.687C-275.309 -119.923 -286.648 -117.479 -297.613 -115.116C-318.798 -110.55 -340.705 -105.83 -358.424 -91.395C-403.805 -54.4232 -368.357 21.2665 -347.177 66.4889C-344.662 71.8612 -342.285 76.9351 -340.276 81.4444C-322.459 121.445 -301.712 161.262 -281.647 199.767C-266.65 228.547 -251.153 258.301 -236.889 288.07C-235.296 291.39 -233.664 294.737 -232.014 298.114C-222.854 316.849 -213.389 336.232 -208.722 356.774C-205.696 370.091 -205.944 384.903 -206.181 399.228C-206.316 407.257 -206.442 414.841 -206.031 422.155C-205.165 437.569 -202.7 453.272 -200.315 468.458C-194.293 506.809 -188.065 546.466 -207.328 584.242C-218.918 606.975 -228.984 631.969 -224.197 660.696C-222.866 668.691 -220.026 676.651 -217.28 684.35C-211.12 701.616 -204.75 719.47 -215.078 738.733C-218.141 744.446 -222.707 748.709 -227.124 752.832C-232.627 757.969 -237.826 762.822 -240.528 770.311C-245.218 783.306 -241.137 798.433 -236.527 811.515L-237.834 812.165Z" fill="#A1A7FF"/>
<path d="M-247.135 819.241C-252.593 805.244 -256.973 790.536 -252.111 777.807C-249.32 770.498 -243.875 765.952 -238.612 761.556C-234.277 757.937 -229.794 754.194 -226.949 748.96C-217.606 731.781 -224.24 713.618 -230.657 696.053C-233.961 687.005 -237.082 678.46 -238.195 669.998C-242.316 638.631 -231.735 609.748 -220.544 582.851C-204.807 545.026 -213.203 508.237 -221.322 472.661C-225.322 455.131 -229.459 437.005 -230.739 418.841C-231.534 407.562 -230.955 395.508 -230.397 383.849C-229.994 375.455 -229.578 366.776 -229.669 358.391C-229.924 334.987 -236.761 316.147 -244.994 295.688C-261.416 254.872 -281.343 214.957 -300.613 176.356C-314.194 149.149 -328.241 121.013 -340.807 93.0338C-342.986 88.1817 -345.696 82.52 -348.835 75.9648C-371.543 28.5271 -413.811 -59.7713 -372.703 -100.057C-354.158 -118.231 -329.392 -123.804 -305.441 -129.193C-296.623 -131.178 -288.295 -133.052 -280.355 -135.519C-261.87 -141.262 -240.59 -149.021 -222.891 -163.014C-196.615 -183.788 -178.422 -209.27 -167.271 -240.919C-161.304 -257.853 -161.243 -277.123 -161.653 -293.855C-162.774 -339.501 -182.822 -382.88 -202.21 -424.831C-207.858 -437.05 -213.191 -448.591 -218.078 -460.195L-218.203 -460.493C-224.572 -475.617 -231.157 -491.256 -235.959 -506.995C-251.223 -557.031 -251.548 -591.358 -209.629 -629.412C-206.039 -632.67 -201.967 -636.036 -197.179 -639.701C-155.923 -671.283 -110.218 -687.373 -71.7851 -683.846L-71.974 -682.268C-110.087 -685.766 -155.452 -669.779 -196.435 -638.406C-201.188 -634.767 -205.228 -631.428 -208.786 -628.199C-250.024 -590.764 -249.683 -556.927 -234.629 -507.58C-229.852 -491.921 -223.283 -476.32 -216.93 -461.233L-216.804 -460.936C-211.928 -449.356 -206.6 -437.826 -200.959 -425.62C-181.5 -383.518 -161.379 -339.983 -160.251 -293.983C-159.837 -277.09 -159.902 -257.626 -165.971 -240.402C-177.233 -208.437 -195.602 -182.705 -222.127 -161.734C-240.013 -147.592 -261.445 -139.776 -280.05 -133.994C-288.041 -131.511 -296.396 -129.631 -305.239 -127.641C-329 -122.294 -353.57 -116.766 -371.816 -98.8857C-412.037 -59.47 -370.114 28.1071 -347.592 75.1561C-344.448 81.7209 -341.734 87.3906 -339.547 92.259C-326.995 120.211 -312.955 148.33 -299.381 175.524C-280.097 214.154 -260.16 254.097 -243.71 294.972C-235.413 315.588 -228.524 334.583 -228.265 358.287C-228.174 366.724 -228.59 375.431 -228.995 383.85C-229.552 395.457 -230.128 407.457 -229.341 418.633C-228.07 436.664 -223.948 454.724 -219.962 472.19C-211.78 508.037 -203.321 545.103 -219.28 583.46C-230.376 610.13 -240.869 638.756 -236.805 669.684C-235.718 677.961 -232.626 686.424 -229.354 695.384C-222.807 713.31 -216.037 731.846 -225.763 749.732C-228.763 755.249 -233.366 759.094 -237.817 762.81C-243.154 767.268 -248.196 771.478 -250.827 778.365C-255.472 790.528 -251.179 804.863 -245.847 818.54L-247.135 819.241Z" fill="#A1A7FF"/>
<path d="M-256.447 826.298C-262.227 812.232 -267.363 797.387 -261.305 784.089C-258.612 778.177 -253.809 774.422 -249.166 770.791C-244.974 767.512 -240.64 764.123 -237.988 759.185C-229.455 743.295 -236.294 723.273 -242.907 703.911C-246.86 692.334 -250.596 681.4 -251.117 671.482C-252.701 641.384 -242.943 611.906 -233.504 583.398L-232.565 580.564C-219.304 540.447 -229.362 509.999 -240.01 477.762C-246.806 457.188 -253.834 435.913 -254.948 411.214C-255.594 396.88 -254.337 382.325 -253.122 368.248C-251.16 345.531 -249.132 322.042 -255.317 299.755C-268.476 252.346 -290.707 207.06 -312.209 163.249C-321.699 143.919 -331.512 123.925 -340.192 104.394L-342.538 99.1156C-361.5 56.485 -381.108 12.404 -391.247 -34.5789C-396.072 -56.9407 -402.077 -84.7718 -385.851 -106.535C-368.439 -129.888 -339.717 -135.691 -314.375 -140.81C-307.526 -142.193 -301.056 -143.501 -294.935 -145.098C-273.845 -150.604 -251.776 -157.436 -233.251 -170.033C-205.35 -189.006 -186.282 -213.011 -173.245 -245.577C-166.889 -261.454 -166.89 -279.095 -167.479 -297.284C-168.865 -340.085 -189.221 -381.724 -208.913 -421.993C-215.946 -436.374 -222.588 -449.959 -228.225 -463.318C-233.89 -476.744 -240.94 -493.454 -245.56 -509.624C-261.344 -564.874 -253.715 -596.008 -215.329 -633.005C-211.679 -636.522 -207.446 -640.227 -202.747 -644.017C-162.472 -676.495 -114.669 -693.236 -74.8744 -688.8L-75.087 -687.224C-114.547 -691.623 -161.981 -674.996 -201.972 -642.747C-206.636 -638.986 -210.834 -635.311 -214.451 -631.825C-252.277 -595.369 -259.789 -564.674 -244.222 -510.183C-239.629 -494.107 -232.6 -477.447 -226.952 -464.061C-221.332 -450.743 -214.698 -437.174 -207.676 -422.814C-187.908 -382.387 -167.474 -340.593 -166.077 -297.427C-165.482 -279.039 -165.485 -261.193 -171.971 -244.991C-185.141 -212.096 -204.398 -187.85 -232.576 -168.688C-251.278 -155.971 -273.481 -149.094 -294.689 -143.558C-300.847 -141.95 -307.333 -140.64 -314.201 -139.252C-339.295 -134.183 -367.737 -128.437 -384.798 -105.555C-400.542 -84.4377 -394.631 -57.043 -389.882 -35.0306C-379.78 11.7861 -360.207 55.7898 -341.278 98.3453L-338.93 103.623C-330.264 123.13 -320.46 143.11 -310.973 162.425C-289.44 206.297 -267.175 251.653 -253.976 299.208C-247.708 321.794 -249.751 345.444 -251.726 368.316C-252.935 382.335 -254.188 396.831 -253.547 411.048C-252.443 435.51 -245.453 456.673 -238.691 477.139C-227.951 509.655 -217.806 540.367 -231.254 581.044L-232.192 583.88C-241.577 612.229 -251.283 641.543 -249.717 671.303C-249.207 680.98 -245.509 691.808 -241.594 703.272C-234.86 722.988 -227.898 743.375 -236.799 759.951C-239.618 765.199 -244.088 768.695 -248.41 772.076C-253.107 775.749 -257.543 779.217 -260.064 784.752C-265.827 797.4 -260.806 811.852 -255.167 825.571L-256.447 826.298Z" fill="#A1A7FF"/>
<path d="M-265.765 833.355C-270.697 822.263 -278.151 805.501 -271.611 791.914C-268.982 786.453 -264.365 783.212 -259.899 780.077C-255.698 777.131 -251.354 774.081 -248.805 769.208C-241.113 754.503 -248.073 733.315 -254.804 712.822C-258.999 700.052 -262.96 687.99 -263.258 677.921C-264.13 648.388 -255.988 618.747 -248.113 590.083C-246.927 585.765 -245.747 581.473 -244.608 577.21C-236.362 546.376 -236.985 521.389 -246.696 493.658C-250.305 483.348 -255.173 473.046 -259.882 463.082C-269.193 443.376 -278.824 423 -280.089 400.323C-281.03 383.48 -277.913 366.434 -274.898 349.949C-271.907 333.583 -268.812 316.659 -269.764 300.119C-272.436 253.766 -296.986 204.328 -318.642 160.705C-326.456 144.968 -333.839 130.101 -339.933 116.017L-343.765 107.172C-363.525 61.5969 -383.958 14.4702 -396.238 -35.125L-396.37 -35.6567C-401.979 -58.3039 -409.661 -89.3202 -398.222 -111.852C-383.845 -140.173 -351.201 -146.011 -324.971 -150.702C-319.277 -151.721 -313.898 -152.682 -308.937 -153.812C-288.289 -158.511 -264.398 -164.909 -243.744 -176.728C-214.292 -193.582 -193.614 -217.751 -180.528 -250.617C-173.807 -267.497 -173.966 -285.957 -175.008 -301.788C-177.719 -342.942 -198.213 -383.528 -218.031 -422.775C-225.807 -438.171 -233.151 -452.716 -239.346 -467.098C-244.763 -479.675 -251.537 -496.249 -255.868 -512.915C-269.611 -565.789 -260.6 -598.467 -221.436 -637.791C-217.288 -641.956 -213.017 -645.898 -208.744 -649.508C-168.814 -683.234 -119.993 -699.847 -78.1467 -693.95L-78.3953 -692.378C-119.882 -698.226 -168.311 -681.732 -207.942 -648.26C-212.182 -644.677 -216.419 -640.766 -220.535 -636.634C-259.181 -597.828 -268.075 -565.59 -254.52 -513.438C-250.217 -496.878 -243.472 -480.378 -238.078 -467.853C-231.902 -453.515 -224.568 -438.993 -216.803 -423.616C-196.91 -384.22 -176.343 -343.488 -173.61 -301.992C-172.554 -285.96 -172.399 -267.25 -179.254 -250.035C-192.487 -216.8 -213.392 -192.363 -243.164 -175.325C-263.977 -163.414 -287.989 -156.982 -308.732 -152.261C-313.724 -151.125 -319.116 -150.161 -324.826 -149.139C-350.743 -144.505 -382.997 -138.737 -397.015 -111.123C-408.151 -89.187 -400.559 -58.5394 -395.017 -36.1601L-394.885 -35.6285C-382.638 13.8338 -362.233 60.8992 -342.499 106.414L-338.666 115.258C-332.589 129.305 -325.215 144.154 -317.41 159.874C-295.682 203.638 -271.053 253.231 -268.365 299.93C-267.399 316.684 -270.513 333.715 -273.525 350.185C-276.52 366.567 -279.618 383.507 -278.688 400.136C-277.441 422.482 -267.881 442.713 -258.636 462.277C-253.909 472.278 -249.023 482.618 -245.387 493.008C-235.554 521.088 -234.921 546.384 -243.266 577.59C-244.407 581.856 -245.588 586.153 -246.775 590.475C-254.613 619.011 -262.72 648.518 -261.856 677.782C-261.564 687.602 -257.64 699.552 -253.484 712.203C-246.642 733.038 -239.564 754.582 -247.607 769.959C-250.344 775.192 -254.849 778.352 -259.205 781.41C-263.701 784.564 -267.948 787.545 -270.385 792.61C-276.569 805.455 -269.308 821.782 -264.503 832.583L-265.765 833.355Z" fill="#A1A7FF"/>
<path d="M-275.093 840.401L-275.333 839.896C-280.726 828.526 -288.873 811.345 -281.395 797.954C-278.903 793.491 -274.583 791.058 -270.402 788.706C-265.863 786.153 -261.573 783.739 -259.305 778.952C-252.657 764.929 -259.584 743.813 -266.284 723.394C-270.267 711.254 -274.03 699.786 -274.542 690.664C-276.328 658.877 -268.909 626.846 -261.734 595.87C-260.032 588.525 -258.273 580.933 -256.685 573.528C-249.158 538.44 -251.992 509.657 -265.873 480.197C-269.9 471.64 -274.746 463.25 -279.872 454.357C-292.041 433.254 -304.627 411.431 -306.145 386.898C-307.285 368.48 -302.216 350.496 -297.314 333.104C-294.154 321.895 -290.887 310.304 -289.314 298.71C-283.109 252.952 -305.96 203.227 -326.122 159.356C-331.264 148.167 -336.121 137.597 -340.245 127.616C-342.268 122.723 -344.297 117.829 -346.328 112.934C-364.168 69.9211 -382.617 25.4447 -396.225 -20.4643C-396.814 -22.4508 -397.427 -24.4904 -398.054 -26.5772C-406.047 -53.1641 -415.993 -86.2525 -408.039 -113.908C-398.134 -148.342 -363.43 -154.331 -335.546 -159.143C-330.89 -159.948 -326.495 -160.705 -322.346 -161.563C-299.264 -166.336 -275.057 -172.237 -254.404 -182.999C-223.206 -199.256 -201.851 -223.148 -189.121 -256.038C-183.844 -269.667 -182.418 -286.585 -184.76 -307.754C-189.035 -346.423 -208.581 -384.796 -227.49 -421.907C-236.239 -439.083 -244.505 -455.307 -251.389 -471.616C-258.967 -489.569 -263.872 -503.971 -266.823 -516.939C-278.413 -567.866 -268.259 -601.113 -228.022 -643.988C-223.914 -648.366 -219.61 -652.538 -215.229 -656.389C-175.601 -691.22 -125.665 -707.292 -81.6504 -699.381L-81.9442 -697.817C-125.577 -705.658 -175.096 -689.712 -214.407 -655.159C-218.75 -651.342 -223.018 -647.205 -227.091 -642.865C-266.858 -600.489 -276.9 -567.66 -265.465 -517.411C-262.536 -504.539 -257.659 -490.223 -250.118 -472.359C-243.257 -456.102 -235.003 -439.901 -226.265 -422.752C-207.295 -385.513 -187.679 -347.008 -183.368 -308.035C-180.995 -286.572 -182.458 -269.378 -187.841 -255.472C-200.727 -222.181 -222.327 -198.008 -253.876 -181.567C-274.678 -170.727 -298.991 -164.798 -322.168 -160.006C-326.337 -159.144 -330.744 -158.383 -335.409 -157.578C-362.889 -152.835 -397.089 -146.933 -406.708 -113.494C-414.517 -86.3454 -404.651 -53.5279 -396.724 -27.1585C-396.096 -25.0694 -395.482 -23.0277 -394.892 -21.0394C-381.309 24.7877 -362.877 69.2244 -345.052 112.199C-343.021 117.097 -340.99 121.99 -338.969 126.884C-334.856 136.836 -330.005 147.392 -324.869 158.568C-304.613 202.644 -281.654 252.603 -287.929 298.866C-289.518 310.586 -292.802 322.239 -295.979 333.508C-300.841 350.755 -305.868 368.588 -304.746 386.703C-303.251 410.844 -290.763 432.503 -278.684 453.443C-273.539 462.365 -268.696 470.759 -264.626 479.395C-250.58 509.208 -247.709 538.329 -255.322 573.821C-256.913 581.239 -258.675 588.841 -260.378 596.191C-267.523 627.043 -274.914 658.946 -273.142 690.478C-272.642 699.374 -268.914 710.74 -264.966 722.773C-258.16 743.519 -251.122 764.97 -258.076 779.64C-260.573 784.905 -265.28 787.554 -269.833 790.117C-274.01 792.467 -277.955 794.687 -280.22 798.745C-287.252 811.335 -279.33 828.037 -274.089 839.09L-273.848 839.596L-275.093 840.401Z" fill="#A1A7FF"/>
<path d="M-286.856 842.568C-295.791 824.03 -297.322 813.314 -282.638 798.053C-280.463 795.795 -278.571 794.071 -276.902 792.55C-270.71 786.909 -268.393 784.798 -269.01 771.105C-269.568 758.722 -273.559 747.348 -277.785 735.303C-282.196 722.728 -286.757 709.725 -287.14 695.343C-287.856 668.423 -281.955 641.02 -276.248 614.521C-269.368 582.561 -262.252 549.513 -266.868 517.423C-270.785 490.203 -285.799 467.48 -300.323 445.506C-315.991 421.796 -330.791 399.401 -333.044 371.697C-334.576 352.826 -326.627 334.546 -318.94 316.868C-313.08 303.392 -307.02 289.455 -305.031 275.162C-301.632 250.735 -310.219 225.623 -317.794 203.47C-318.664 200.922 -319.525 198.405 -320.358 195.922C-329.908 167.418 -341.055 139.144 -351.836 111.802C-355.985 101.276 -360.275 90.3915 -364.415 79.6485L-364.954 78.2524C-380.888 36.898 -397.365 -5.86459 -408.163 -50.1246L-409.133 -54.08C-414.768 -76.954 -421.78 -105.422 -413.562 -127.918C-403.026 -156.762 -371.616 -162.042 -346.379 -166.285C-342.413 -166.951 -338.668 -167.581 -335.151 -168.276C-278.606 -179.449 -218.221 -199.296 -199.089 -261.793C-182.922 -314.605 -213.056 -373.245 -239.64 -424.986C-249.169 -443.53 -258.17 -461.046 -264.275 -476.909C-291.719 -548.206 -283.553 -597.253 -235.15 -651.845C-196.599 -695.324 -137.838 -716.262 -85.4483 -705.186L-85.7788 -703.627C-137.718 -714.609 -195.971 -693.856 -234.186 -650.756C-282.078 -596.738 -290.152 -548.192 -262.983 -477.606C-256.907 -461.824 -247.925 -444.341 -238.416 -425.836C-211.685 -373.811 -181.387 -314.85 -197.765 -261.351C-217.152 -198.02 -278.009 -177.974 -334.983 -166.717C-338.517 -166.019 -342.272 -165.388 -346.246 -164.719C-371.112 -160.539 -402.058 -155.336 -412.268 -127.385C-420.298 -105.404 -413.356 -77.2242 -407.779 -54.5807L-406.807 -50.6234C-396.034 -6.46537 -379.576 36.2478 -363.66 77.5546L-363.123 78.9509C-358.986 89.6884 -354.696 100.57 -350.547 111.092C-339.759 138.454 -328.605 166.748 -319.04 195.292C-318.21 197.772 -317.35 200.284 -316.481 202.829C-308.844 225.164 -300.189 250.479 -303.645 275.324C-305.667 289.863 -311.778 303.915 -317.686 317.502C-325.634 335.781 -333.142 353.044 -331.645 371.466C-329.429 398.748 -314.736 420.981 -299.181 444.514C-284.565 466.628 -269.453 489.494 -265.483 517.086C-260.82 549.49 -267.971 582.699 -274.886 614.815C-280.57 641.209 -286.447 668.502 -285.737 695.208C-285.361 709.321 -280.844 722.198 -276.476 734.651C-272.396 746.279 -268.178 758.302 -267.608 770.94C-266.954 785.469 -269.807 788.066 -276.057 793.762C-277.708 795.265 -279.581 796.971 -281.718 799.193C-296.935 815.004 -294.038 825.272 -283.209 846.604L-284.436 847.448C-285.291 845.762 -286.101 844.135 -286.856 842.568Z" fill="#A1A7FF"/>
</g>
</svg>
