<svg width="20" height="20" viewBox="0 0 20 20" fill="none" xmlns="http://www.w3.org/2000/svg">
<g clip-path="url(#clip0_260_664)">
<path d="M4.56476 6.63844V19.6H0.248759V6.63844H4.56476ZM4.83916 2.63684C4.83996 2.66004 4.84076 2.68724 4.84076 2.71524C4.84076 3.31444 4.58636 3.85364 4.17996 4.23124L4.17836 4.23204C3.74236 4.63044 3.15916 4.87444 2.51836 4.87444C2.47916 4.87444 2.43916 4.87364 2.39996 4.87204H2.40556H2.37916C2.34636 4.87364 2.30796 4.87444 2.26956 4.87444C1.64236 4.87444 1.07276 4.62964 0.649559 4.23124L0.650359 4.23204C0.247159 3.84164 -0.00244141 3.29604 -0.00244141 2.69204C-0.00244141 2.67284 -0.00244141 2.65364 -0.00164141 2.63364V2.63684C-0.00244141 2.62004 -0.00244141 2.60084 -0.00244141 2.58164C-0.00244141 1.97204 0.256759 1.42324 0.670359 1.03844L0.671959 1.03764C1.10716 0.641637 1.68876 0.398438 2.32636 0.398438C2.36316 0.398438 2.39916 0.399237 2.43596 0.400838H2.43116C2.46556 0.399237 2.50476 0.398438 2.54556 0.398438C3.17356 0.398438 3.74556 0.640837 4.17276 1.03684L4.17116 1.03524C4.58316 1.43284 4.83916 1.98964 4.83916 2.60644V2.64004V2.63844V2.63684ZM20.0888 12.1728V19.6H15.7864V12.668C15.7904 12.6048 15.792 12.5312 15.792 12.4576C15.792 11.7408 15.5928 11.0712 15.2464 10.5L15.256 10.5168C14.9144 10.04 14.3624 9.73364 13.7392 9.73364C13.6912 9.73364 13.6432 9.73524 13.5952 9.73924H13.6016C13.58 9.73844 13.5552 9.73764 13.5304 9.73764C13.0344 9.73764 12.5784 9.90804 12.2176 10.1936L12.2224 10.1904C11.86 10.484 11.576 10.8592 11.3968 11.2904L11.3904 11.3088C11.2976 11.5928 11.2448 11.9192 11.2448 12.2584C11.2448 12.2968 11.2456 12.3352 11.2472 12.3736V12.368V19.6016H6.94476C6.96236 16.1227 6.97116 13.3019 6.97116 11.1392C6.97116 8.97657 6.96689 7.68617 6.95836 7.26804L6.94556 6.64004H11.248V8.52324H11.2216C11.3928 8.24724 11.5696 8.00804 11.764 7.78404L11.7576 7.79124C11.9824 7.54404 12.224 7.32084 12.484 7.12084L12.4968 7.11124C12.82 6.86244 13.1992 6.66724 13.6104 6.54804L13.6344 6.54244C14.0648 6.41364 14.56 6.33924 15.072 6.33924H15.1352H15.132C15.1888 6.33684 15.2552 6.33524 15.3216 6.33524C16.6664 6.33524 17.8776 6.90644 18.7264 7.82004L18.7288 7.82324C19.6365 8.8131 20.0904 10.2627 20.0904 12.172L20.0888 12.1728Z" fill="#412BA8"/>
</g>
<defs>
<clipPath id="clip0_260_664">
<rect width="20" height="20" fill="white"/>
</clipPath>
</defs>
</svg>
