<svg xmlns="http://www.w3.org/2000/svg" width="20" height="20" fill="none"><g clip-path="url(#a)"><path fill="#412BA8" d="M4.565 6.638V19.6H.249V6.638zm.274-4.001.002.078c0 .6-.255 1.139-.661 1.516l-.002.001a2.45 2.45 0 0 1-1.778.64h.006-.027l-.11.002a2.36 2.36 0 0 1-1.62-.643l.001.001a2.14 2.14 0 0 1-.652-1.598v.003-.055c0-.61.259-1.159.672-1.544h.002A2.45 2.45 0 0 1 2.436.4h-.005q.053-.003.115-.003c.628 0 1.2.243 1.627.639l-.002-.002c.412.398.668.955.668 1.571v.034-.003m15.25 9.536V19.6h-4.303v-6.932a3.762 3.762 0 0 0-.54-2.168l.01.017a1.86 1.86 0 0 0-1.66-.778h.006l-.072-.001c-.496 0-.952.17-1.312.456l.004-.004a2.8 2.8 0 0 0-.825 1.1l-.007.019a3.1 3.1 0 0 0-.143 1.065v-.006 7.234H6.945q.026-5.22.026-8.463t-.013-3.871l-.012-.628h4.302v1.883h-.026a5.7 5.7 0 0 1 .542-.739l-.006.007q.336-.37.726-.67l.013-.01a3.4 3.4 0 0 1 1.113-.563l.024-.006c.43-.128.926-.203 1.438-.203h.063-.003q.088-.003.19-.004c1.344 0 2.556.571 3.404 1.485l.003.003q1.362 1.485 1.361 4.349z"/></g><defs><clipPath id="a"><path fill="#fff" d="M0 0h20v20H0z"/></clipPath></defs></svg>