<svg width="173" height="62" viewBox="0 0 173 62" fill="none" xmlns="http://www.w3.org/2000/svg">
<path d="M20.5 16H12V9H37.5V16H29.5V52.5H20.5V16Z" fill="#404040"/>
<path d="M65 9H41V52.5H65V46H49.5V35H62.5V28H49.5V16H65V9Z" fill="#404040"/>
<path fill-rule="evenodd" clip-rule="evenodd" d="M86 9C88.8469 9 96.5 12.8 96.5 20.5C96.5 28.2 93.9997 33 88.8467 33L98 52.5H88.5L81 34H78V52.5H70V9H86ZM78 16V28H85.5C90.5 28 90 16 85.5 16H78Z" fill="#404040"/>
<path fill-rule="evenodd" clip-rule="evenodd" d="M123 8C127.418 8 131 11.5817 131 16V45C131 49.4183 127.418 53 123 53H112C107.582 53 104 49.4183 104 45V16C104 11.5817 107.582 8 112 8H123ZM114 15C112.895 15 112 15.8954 112 17V45C112 46.1046 112.895 47 114 47H121C122.105 47 123 46.1046 123 45V17C123 15.8954 122.105 15 121 15H114Z" fill="#404040"/>
<path d="M146.5 9H137.5V53H160.5V46.5H146.5V9Z" fill="#404040"/>
<path d="M9.5 4H37.5V8H9.5V12L0 6L9.5 0V4Z" fill="#163258"/>
<path d="M163 54H137.539V58H163V62L172.5 56L163 50V54Z" fill="#163258"/>
</svg>
