<svg width="48" height="48" viewBox="0 0 48 48" fill="none" xmlns="http://www.w3.org/2000/svg">
<path d="M42.42 31.7801C41.1476 34.789 39.1576 37.4405 36.6238 39.5027C34.0899 41.5649 31.0895 42.9749 27.8849 43.6096C24.6802 44.2444 21.3688 44.0844 18.2403 43.1437C15.1117 42.203 12.2612 40.5102 9.93804 38.2134C7.61483 35.9166 5.88963 33.0856 4.91327 29.968C3.93691 26.8504 3.73912 23.5411 4.33719 20.3294C4.93527 17.1176 6.31099 14.1013 8.34409 11.5441C10.3772 8.98695 13.0058 6.96672 16 5.66008M42 24.0001C43.104 24.0001 44.01 23.1021 43.9 22.0041C43.4389 17.4124 41.4041 13.1215 38.1406 9.85873C34.8772 6.59597 30.5858 4.56216 25.994 4.10208C24.894 3.99208 23.998 4.89808 23.998 6.00208V22.0021C23.998 22.5325 24.2087 23.0412 24.5838 23.4163C24.9589 23.7914 25.4676 24.0021 25.998 24.0021L42 24.0001Z" stroke="#412BA8" stroke-width="2" stroke-linecap="round" stroke-linejoin="round"/>
</svg>
