<svg xmlns="http://www.w3.org/2000/svg" width="48" height="48" fill="none"><path stroke="#412BA8" stroke-linecap="round" stroke-linejoin="round" stroke-width="2" d="M38.828 28.828C42 25.656 44 23 44 19a11 11 0 0 0-19.182-7.352m14.01 17.18a4.247 4.247 0 0 1-6.008 0 4.25 4.25 0 0 1-4.622 7.012 4.25 4.25 0 0 1-1.378-1.012 4.24 4.24 0 0 1 .008 6 4 4 0 0 1-5.758-.104L10 30c-3-3-6-6.4-6-11a11 11 0 0 1 19.182-7.35 1.2 1.2 0 0 0 1.636-.002m14.01 17.18a4 4 0 0 0 0-5.656l-3.762-3.764a4.82 4.82 0 0 0-6.818 0l-3.42 3.42a4 4 0 0 1-5.656-5.656l5.646-5.524"/></svg>