<svg width="48" height="48" viewBox="0 0 48 48" fill="none" xmlns="http://www.w3.org/2000/svg">
<path d="M4 19C4.00004 16.7744 4.67519 14.6011 5.93627 12.7673C7.19735 10.9334 8.98503 9.52527 11.0632 8.72876C13.1414 7.93224 15.4123 7.78485 17.576 8.30605C19.7397 8.82725 21.6944 9.99252 23.182 11.648C23.2868 11.76 23.4134 11.8493 23.5542 11.9104C23.6949 11.9714 23.8466 12.0029 24 12.0029C24.1534 12.0029 24.3051 11.9714 24.4458 11.9104C24.5866 11.8493 24.7132 11.76 24.818 11.648C26.3009 9.98176 28.256 8.80669 30.4233 8.27916C32.5905 7.75163 34.867 7.89665 36.9497 8.69493C39.0325 9.4932 40.8228 10.9069 42.0822 12.7478C43.3417 14.5887 44.0106 16.7695 44 19C44 23.58 41 27 38 30L27.016 40.626C26.6433 41.054 26.1839 41.3978 25.6681 41.6346C25.1523 41.8713 24.5921 41.9957 24.0246 41.9992C23.4571 42.0028 22.8953 41.8856 22.3766 41.6554C21.8579 41.4252 21.3941 41.0872 21.016 40.664L10 30C7 27 4 23.6 4 19Z" stroke="#412BA8" stroke-width="2" stroke-linecap="round" stroke-linejoin="round"/>
</svg>
