<svg width="48" height="48" viewBox="0 0 48 48" fill="none" xmlns="http://www.w3.org/2000/svg">
<path d="M25.9999 41.9998H41.9999M42.3479 13.6238C43.4053 12.5666 43.9994 11.1327 43.9996 9.63749C43.9998 8.14227 43.406 6.7082 42.3489 5.65079C41.2917 4.59337 39.8578 3.99921 38.3626 3.99902C36.8673 3.99884 35.4333 4.59263 34.3759 5.64979L7.68387 32.3478C7.21951 32.8108 6.8761 33.3808 6.68387 34.0078L4.04187 42.7118C3.99018 42.8848 3.98628 43.0685 4.03057 43.2435C4.07487 43.4185 4.16571 43.5782 4.29346 43.7058C4.42121 43.8333 4.58111 43.9239 4.75619 43.9679C4.93126 44.012 5.11499 44.0078 5.28787 43.9558L13.9939 41.3158C14.6202 41.1253 15.1902 40.784 15.6539 40.3218L42.3479 13.6238Z" stroke="#412BA8" stroke-width="2" stroke-linecap="round" stroke-linejoin="round"/>
</svg>
