<svg width="48" height="48" viewBox="0 0 48 48" fill="none" xmlns="http://www.w3.org/2000/svg">
<path d="M38.828 28.828C42 25.656 44 23 44 19C44 16.7744 43.3248 14.6012 42.0637 12.7674C40.8027 10.9335 39.015 9.52536 36.9368 8.72884C34.8586 7.93232 32.5877 7.78493 30.424 8.30613C28.2603 8.82733 26.3056 9.9926 24.818 11.648M38.828 28.828C38.4335 29.2226 37.9652 29.5355 37.4498 29.749C36.9343 29.9626 36.3819 30.0725 35.824 30.0725C35.2661 30.0725 34.7137 29.9626 34.1982 29.749C33.6828 29.5355 33.2145 29.2226 32.82 28.828C33.2471 29.2142 33.5912 29.6833 33.8315 30.2066C34.0717 30.7299 34.203 31.2966 34.2175 31.8722C34.232 32.4478 34.1292 33.0204 33.9156 33.5551C33.7019 34.0898 33.3818 34.5755 32.9746 34.9827C32.5675 35.3898 32.0818 35.71 31.5471 35.9236C31.0123 36.1373 30.4398 36.24 29.8641 36.2255C29.2885 36.2111 28.7218 36.0797 28.1985 35.8395C27.6752 35.5993 27.2062 35.2551 26.82 34.828C27.2148 35.2213 27.5282 35.6885 27.7423 36.203C27.9564 36.7175 28.067 37.2691 28.0677 37.8264C28.0685 38.3836 27.9594 38.9356 27.7466 39.4506C27.5339 39.9657 27.2218 40.4337 26.828 40.828C26.448 41.2082 25.9952 41.5079 25.4967 41.7091C24.9983 41.9104 24.4644 42.0091 23.9269 41.9994C23.3894 41.9897 22.8594 41.8718 22.3686 41.6526C21.8777 41.4335 21.4361 41.1177 21.07 40.724L10 30C7 27 4 23.6 4 19C4.00045 16.7746 4.67588 14.6017 5.93712 12.7681C7.19835 10.9346 8.98605 9.52675 11.0642 8.73048C13.1422 7.93422 15.413 7.78699 17.5765 8.30825C19.74 8.82951 21.6946 9.99473 23.182 11.65C23.4044 11.8567 23.6968 11.9714 24.0004 11.971C24.304 11.9707 24.5961 11.8553 24.818 11.648M38.828 28.828C39.5779 28.0779 39.9991 27.0607 39.9991 26C39.9991 24.9394 39.5779 23.9222 38.828 23.172L35.066 19.408C34.6184 18.9602 34.0869 18.605 33.502 18.3627C32.9171 18.1203 32.2901 17.9956 31.657 17.9956C31.0239 17.9956 30.3969 18.1203 29.812 18.3627C29.2271 18.605 28.6956 18.9602 28.248 19.408L24.828 22.828C24.0779 23.5779 23.0607 23.9992 22 23.9992C20.9393 23.9992 19.9221 23.5779 19.172 22.828C18.4221 22.0779 18.0009 21.0607 18.0009 20C18.0009 18.9394 18.4221 17.9222 19.172 17.172L24.818 11.648" stroke="#412BA8" stroke-width="2" stroke-linecap="round" stroke-linejoin="round"/>
</svg>
