<svg width="48" height="48" viewBox="0 0 48 48" fill="none" xmlns="http://www.w3.org/2000/svg">
<path d="M24 40V24M28.24 7.76L32 4M30 14.26V12C29.999 10.8092 29.6437 9.64565 28.9794 8.65742C28.315 7.66919 27.3716 6.901 26.2693 6.45063C25.1669 6.00026 23.9555 5.88809 22.7892 6.12838C21.6229 6.36867 20.5545 6.95057 19.72 7.8L16 4M36 24.68V22C36 19.8783 35.1571 17.8434 33.6569 16.3431C32.1566 14.8429 30.1217 14 28 14H25.4M4 4L44 44M42 10C41.9977 11.9643 41.2729 13.8591 39.9635 15.3234C38.6542 16.7877 36.8518 17.719 34.9 17.94M44 26H37.32M6 42C5.99768 39.9425 6.78817 37.9632 8.20724 36.4734C9.6263 34.9835 11.5648 34.0977 13.62 34M12 26H4M15.4 15.4C14.3421 16.1435 13.4802 17.1323 12.888 18.2817C12.2959 19.4312 11.9912 20.707 12 22V28C11.992 30.6225 12.8433 33.1754 14.4238 35.2682C16.0042 37.361 18.2267 38.8785 20.7513 39.5885C23.2759 40.2984 25.9635 40.1618 28.4031 39.1995C30.8427 38.2372 32.8999 36.5023 34.26 34.26" stroke="#412BA8" stroke-width="2" stroke-linecap="round" stroke-linejoin="round"/>
</svg>
