<svg width="48" height="48" viewBox="0 0 48 48" fill="none" xmlns="http://www.w3.org/2000/svg">
<path d="M8 18V30M22 18C22.5304 18 23.0391 17.7893 23.4142 17.4142C23.7893 17.0392 24 16.5305 24 16V10.122C23.9116 9.66909 23.9826 9.19952 24.2009 8.79294C24.4192 8.38636 24.7714 8.06778 25.1977 7.8912C25.6241 7.71463 26.0984 7.69094 26.5402 7.82413C26.9821 7.95733 27.3643 8.23923 27.622 8.62203L41.294 22.294C41.5182 22.5182 41.696 22.7843 41.8173 23.0772C41.9386 23.3701 42.0011 23.684 42.0011 24.001C42.0011 24.318 41.9386 24.632 41.8173 24.9249C41.696 25.2177 41.5182 25.4839 41.294 25.708L27.622 39.378C27.3643 39.7608 26.9821 40.0427 26.5402 40.1759C26.0984 40.3091 25.6241 40.2854 25.1977 40.1088C24.7714 39.9323 24.4192 39.6137 24.2009 39.2071C23.9826 38.8005 23.9116 38.331 24 37.878V32C24 31.4696 23.7893 30.9609 23.4142 30.5858C23.0391 30.2107 22.5304 30 22 30H18C17.4696 30 16.9609 29.7893 16.5858 29.4142C16.2107 29.0392 16 28.5305 16 28V20C16 19.4696 16.2107 18.9609 16.5858 18.5858C16.9609 18.2107 17.4696 18 18 18H22Z" stroke="#412BA8" stroke-width="2" stroke-linecap="round" stroke-linejoin="round"/>
</svg>
