<svg width="48" height="48" viewBox="0 0 48 48" fill="none" xmlns="http://www.w3.org/2000/svg">
<path d="M10 18C13.3137 18 16 15.3137 16 12C16 8.68629 13.3137 6 10 6C6.68629 6 4 8.68629 4 12C4 15.3137 6.68629 18 10 18ZM10 18V32C10 33.0609 10.4214 34.0783 11.1716 34.8284C11.9217 35.5786 12.9391 36 14 36H24M24 12H34C35.0609 12 36.0783 12.4214 36.8284 13.1716C37.5786 13.9217 38 14.9391 38 16V30M24 12L30 18M24 12L30 6M38 30C34.6863 30 32 32.6863 32 36C32 39.3137 34.6863 42 38 42C41.3137 42 44 39.3137 44 36C44 32.6863 41.3137 30 38 30ZM24 36L18 30M24 36L18 42" stroke="#412BA8" stroke-width="2" stroke-linecap="round" stroke-linejoin="round"/>
</svg>
