<svg width="48" height="48" viewBox="0 0 48 48" fill="none" xmlns="http://www.w3.org/2000/svg">
<path d="M42 10C42 13.3137 33.9411 16 24 16C14.0589 16 6 13.3137 6 10M42 10C42 6.68629 33.9411 4 24 4C14.0589 4 6 6.68629 6 10M42 10V38C42 39.5913 40.1036 41.1174 36.7279 42.2426C33.3523 43.3679 28.7739 44 24 44C19.2261 44 14.6477 43.3679 11.2721 42.2426C7.89642 41.1174 6 39.5913 6 38V10M6 24C6 25.5913 7.89642 27.1174 11.2721 28.2426C14.6477 29.3679 19.2261 30 24 30C28.7739 30 33.3523 29.3679 36.7279 28.2426C40.1036 27.1174 42 25.5913 42 24" stroke="#412BA8" stroke-width="2" stroke-linecap="round" stroke-linejoin="round"/>
</svg>
