<svg width="36" height="36" viewBox="0 0 36 36" fill="none" xmlns="http://www.w3.org/2000/svg">
<path d="M27 31.5001V15.0001C27 14.6023 26.842 14.2207 26.5607 13.9394C26.2794 13.6581 25.8978 13.5001 25.5 13.5001H10.5C10.1022 13.5001 9.72065 13.6581 9.43934 13.9394C9.15804 14.2207 9 14.6023 9 15.0001V31.5001M9 19.5001H27M9 25.5001H27M33 28.5001C33 29.2957 32.6839 30.0588 32.1213 30.6214C31.5587 31.184 30.7956 31.5001 30 31.5001H6C5.20435 31.5001 4.44129 31.184 3.87868 30.6214C3.31607 30.0588 3 29.2957 3 28.5001V12.0001C2.99967 11.4352 3.15886 10.8816 3.45926 10.4031C3.75965 9.92469 4.18904 9.54077 4.698 9.29559L16.623 3.33459C17.0489 3.11441 17.5213 2.99951 18.0007 2.99951C18.4802 2.99951 18.9526 3.11441 19.3785 3.33459L31.3005 9.29559C31.8097 9.54056 32.2394 9.92438 32.5401 10.4029C32.8408 10.8813 33.0002 11.435 33 12.0001V28.5001Z" stroke="#412BA8" stroke-width="2" stroke-linecap="round" stroke-linejoin="round"/>
</svg>
