<svg width="36" height="36" viewBox="0 0 36 36" fill="none" xmlns="http://www.w3.org/2000/svg">
<path d="M22.0507 9.45017C21.7759 9.73056 21.6219 10.1075 21.6219 10.5002C21.6219 10.8928 21.7759 11.2698 22.0507 11.5502L24.4507 13.9502C24.7311 14.225 25.1081 14.379 25.5007 14.379C25.8933 14.379 26.2703 14.225 26.5507 13.9502L31.2097 9.29267C31.6897 8.80967 32.5042 8.96267 32.6842 9.61967C33.1374 11.268 33.1118 13.0113 32.6104 14.6456C32.1089 16.2798 31.1524 17.7375 29.8528 18.848C28.5531 19.9585 26.9641 20.6759 25.2716 20.9163C23.5791 21.1566 21.8531 20.91 20.2957 20.2052L8.4307 32.0702C7.83396 32.6667 7.02469 33.0018 6.18092 33.0016C5.33715 33.0015 4.52799 32.6662 3.93145 32.0694C3.33491 31.4727 2.99986 30.6634 3 29.8196C3.00014 28.9759 3.33546 28.1667 3.9322 27.5702L15.7972 15.7052C15.0924 14.1477 14.8458 12.4218 15.0861 10.7293C15.3264 9.03679 16.0438 7.44774 17.1543 6.14809C18.2648 4.84844 19.7225 3.89193 21.3568 3.39051C22.9911 2.88908 24.7344 2.86347 26.3827 3.31667C27.0397 3.49667 27.1927 4.30967 26.7112 4.79267L22.0507 9.45017Z" stroke="#412BA8" stroke-width="2" stroke-linecap="round" stroke-linejoin="round"/>
</svg>
