<svg width="36" height="36" viewBox="0 0 36 36" fill="none" xmlns="http://www.w3.org/2000/svg">
<path d="M16.5 25.5L19.5 28.5C19.7955 28.7955 20.1463 29.0299 20.5323 29.1898C20.9184 29.3497 21.3321 29.432 21.75 29.432C22.1679 29.432 22.5816 29.3497 22.9677 29.1898C23.3537 29.0299 23.7045 28.7955 24 28.5C24.2955 28.2045 24.5299 27.8538 24.6898 27.4677C24.8497 27.0817 24.932 26.6679 24.932 26.25C24.932 25.8322 24.8497 25.4184 24.6898 25.0323C24.5299 24.6463 24.2955 24.2955 24 24M21 21L24.75 24.75C25.3467 25.3468 26.1561 25.682 27 25.682C27.8439 25.682 28.6533 25.3468 29.25 24.75C29.8467 24.1533 30.182 23.3439 30.182 22.5C30.182 21.6561 29.8467 20.8468 29.25 20.25L23.43 14.43C22.5862 13.5873 21.4425 13.114 20.25 13.114C19.0575 13.114 17.9138 13.5873 17.07 14.43L15.75 15.75C15.1533 16.3468 14.3439 16.682 13.5 16.682C12.6561 16.682 11.8467 16.3468 11.25 15.75C10.6533 15.1533 10.318 14.3439 10.318 13.5C10.318 12.6561 10.6533 11.8468 11.25 11.25L15.465 7.03502C16.8334 5.67024 18.6178 4.80085 20.536 4.56448C22.4541 4.32811 24.3962 4.73827 26.055 5.73002L26.76 6.15002C27.3987 6.5355 28.1581 6.6692 28.89 6.52502L31.5 6.00002M31.5 4.50002L33 21H30M4.5 4.50002L3 21L12.75 30.75C13.3467 31.3468 14.1561 31.682 15 31.682C15.8439 31.682 16.6533 31.3468 17.25 30.75C17.8467 30.1533 18.182 29.3439 18.182 28.5C18.182 27.6561 17.8467 26.8468 17.25 26.25M4.5 6.00002H16.5" stroke="#412BA8" stroke-width="2" stroke-linecap="round" stroke-linejoin="round"/>
</svg>
