<svg width="36" height="36" viewBox="0 0 36 36" fill="none" xmlns="http://www.w3.org/2000/svg">
<path d="M31.5 25.4999L28.266 22.6979C28.1591 22.5966 28.0247 22.5289 27.8797 22.5034C27.7346 22.478 27.5852 22.4958 27.4502 22.5547C27.3152 22.6135 27.2005 22.7109 27.1204 22.8345C27.0404 22.9581 26.9985 23.1026 27 23.2499V23.9999C27 24.3977 26.842 24.7793 26.5607 25.0606C26.2794 25.3419 25.8978 25.4999 25.5 25.4999H22.5C22.1022 25.4999 21.7206 25.3419 21.4393 25.0606C21.158 24.7793 21 24.3977 21 23.9999C21 20.1824 15.0135 18.0449 8.25 17.9999C7.25544 17.9999 6.30161 18.395 5.59835 19.0983C4.89509 19.8015 4.5 20.7553 4.5 21.7499C4.5 22.7445 4.89509 23.6983 5.59835 24.4016C6.30161 25.1048 7.25544 25.4999 8.25 25.4999C14.4795 25.4999 15.3675 8.5574 16.812 5.2499C17.056 4.69159 17.4324 4.20115 17.9086 3.82102C18.3848 3.44088 18.9464 3.1825 19.5449 3.06824C20.1434 2.95398 20.7607 2.98727 21.3435 3.16523C21.9262 3.3432 22.4568 3.66048 22.8893 4.08962C23.3219 4.51877 23.6433 5.04684 23.8259 5.62815C24.0084 6.20947 24.0466 6.82651 23.937 7.42589C23.8275 8.02526 23.5736 8.58892 23.1972 9.06809C22.8208 9.54725 22.3334 9.92749 21.777 10.1759M4.5 31.4999H31.5" stroke="#412BA8" stroke-width="2" stroke-linecap="round" stroke-linejoin="round"/>
</svg>
