<svg width="36" height="36" viewBox="0 0 36 36" fill="none" xmlns="http://www.w3.org/2000/svg">
<path d="M33 18H29.28C28.6245 17.9986 27.9865 18.212 27.4637 18.6075C26.9409 19.0029 26.562 19.5588 26.385 20.19L22.86 32.73C22.8373 32.8079 22.7899 32.8763 22.725 32.925C22.6601 32.9737 22.5811 33 22.5 33C22.4189 33 22.3399 32.9737 22.275 32.925C22.2101 32.8763 22.1627 32.8079 22.14 32.73L13.86 3.27C13.8373 3.19211 13.7899 3.12368 13.725 3.075C13.6601 3.02632 13.5811 3 13.5 3C13.4189 3 13.3399 3.02632 13.275 3.075C13.2101 3.12368 13.1627 3.19211 13.14 3.27L9.615 15.81C9.4387 16.4387 9.06207 16.9928 8.5423 17.388C8.02252 17.7833 7.38798 17.9981 6.735 18H3" stroke="#412BA8" stroke-width="2" stroke-linecap="round" stroke-linejoin="round"/>
</svg>
