<svg width="36" height="36" viewBox="0 0 36 36" fill="none" xmlns="http://www.w3.org/2000/svg">
<path d="M18.879 3.879C18.3165 3.31635 17.5536 3.00017 16.758 3H6C5.20435 3 4.44129 3.31607 3.87868 3.87868C3.31607 4.44129 3 5.20435 3 6V16.758C3.00017 17.5536 3.31635 18.3165 3.879 18.879L16.935 31.935C17.6168 32.6125 18.5389 32.9927 19.5 32.9927C20.4611 32.9927 21.3832 32.6125 22.065 31.935L31.935 22.065C32.6125 21.3832 32.9927 20.4611 32.9927 19.5C32.9927 18.5389 32.6125 17.6168 31.935 16.935L18.879 3.879Z" stroke="#412BA8" stroke-width="2" stroke-linecap="round" stroke-linejoin="round"/>
<path d="M11.25 12C11.6642 12 12 11.6642 12 11.25C12 10.8358 11.6642 10.5 11.25 10.5C10.8358 10.5 10.5 10.8358 10.5 11.25C10.5 11.6642 10.8358 12 11.25 12Z" stroke="#412BA8" stroke-width="2" stroke-linecap="round" stroke-linejoin="round"/>
</svg>
