<svg width="36" height="36" viewBox="0 0 36 36" fill="none" xmlns="http://www.w3.org/2000/svg">
<path d="M21.0007 28.5V10.5C21.0007 9.70435 20.6847 8.94129 20.1221 8.37868C19.5595 7.81607 18.7964 7.5 18.0007 7.5H13.5007M22.5007 28.5H13.5007M22.5007 28.5C22.5007 30.1569 23.8439 31.5 25.5007 31.5C27.1576 31.5 28.5007 30.1569 28.5007 28.5M22.5007 28.5C22.5007 26.8431 23.8439 25.5 25.5007 25.5C27.1576 25.5 28.5007 26.8431 28.5007 28.5M13.5007 28.5C13.5007 30.1569 12.1576 31.5 10.5007 31.5C8.84389 31.5 7.50075 30.1569 7.50075 28.5M13.5007 28.5C13.5007 26.8431 12.1576 25.5 10.5007 25.5C8.84389 25.5 7.50075 26.8431 7.50075 28.5M28.5007 28.5H31.5007C31.8986 28.5 32.2801 28.342 32.5614 28.0607C32.8427 27.7794 33.0007 27.3978 33.0007 27V21.525C32.9988 21.1867 32.8825 20.8589 32.6707 20.595L27.4507 14.07C27.3111 13.8932 27.1333 13.7502 26.9308 13.6515C26.7282 13.5528 26.5061 13.501 26.2807 13.5H21.0007M3.00075 19.5V27C3.00075 27.3978 3.15878 27.7794 3.44009 28.0607C3.72139 28.342 4.10292 28.5 4.50075 28.5H7.50075M6.00075 4.5L3.22575 7.725C3.1138 7.82739 3.03591 7.96161 3.00255 8.1096C2.96919 8.2576 2.98196 8.41226 3.03915 8.55277C3.09633 8.69329 3.19519 8.81291 3.32241 8.89555C3.44964 8.97819 3.59912 9.01988 3.75075 9.015H6.97575C7.13925 8.97674 7.31104 8.99809 7.46019 9.07522C7.60935 9.15234 7.72608 9.28017 7.78938 9.4357C7.85268 9.59123 7.85838 9.76425 7.80547 9.92361C7.75256 10.083 7.6445 10.2182 7.50075 10.305L4.50075 13.53" stroke="#412BA8" stroke-width="2" stroke-linecap="round" stroke-linejoin="round"/>
</svg>
