<svg width="36" height="36" viewBox="0 0 36 36" fill="none" xmlns="http://www.w3.org/2000/svg">
<path d="M9.00376 7.68758C8.97699 7.08822 9.07035 6.48956 9.27833 5.9268C9.48632 5.36405 9.80474 4.84857 10.2149 4.41068C10.625 3.97279 11.1185 3.62133 11.6665 3.37697C12.2144 3.13262 12.8057 3.0003 13.4055 2.98779C14.0053 2.97529 14.6016 3.08286 15.1592 3.30417C15.7169 3.52548 16.2246 3.85607 16.6527 4.27649C17.0807 4.69691 17.4203 5.19868 17.6515 5.75227C17.8828 6.30587 18.001 6.90012 17.9993 7.50008V27.0001M9.00376 7.68758C8.12206 7.91428 7.30351 8.33865 6.6101 8.92854C5.9167 9.51844 5.36662 10.2584 5.00152 11.0923C4.63643 11.9263 4.4659 12.8324 4.50284 13.742C4.53978 14.6517 4.78324 15.541 5.21476 16.3426M9.00376 7.68758C9.03342 8.41318 9.23825 9.12082 9.60076 9.75008M5.21476 16.3426C4.45603 16.959 3.8594 17.7514 3.47677 18.651C3.09413 19.5505 2.93709 20.53 3.0193 21.5041C3.10151 22.4781 3.42048 23.4174 3.94847 24.2401C4.47645 25.0628 5.19745 25.7441 6.04876 26.2246M5.21476 16.3426C5.48917 16.1191 5.78281 15.9218 6.09226 15.7501M6.04876 26.2246C5.94363 27.0379 6.00637 27.8642 6.23309 28.6524C6.45981 29.4405 6.8457 30.1738 7.36693 30.807C7.88817 31.4402 8.53367 31.9598 9.26359 32.3337C9.9935 32.7076 10.7923 32.928 11.6107 32.9811C12.4291 33.0342 13.2497 32.919 14.0218 32.6425C14.794 32.366 15.5012 31.9342 16.0999 31.3737C16.6986 30.8132 17.176 30.1359 17.5027 29.3837C17.8294 28.6314 17.9984 27.8202 17.9993 27.0001M6.04876 26.2246C6.94916 26.7324 7.9655 27.0006 8.99926 27.0001M17.9993 27.0001H26.9993C27.7949 27.0001 28.558 27.3161 29.1206 27.8788C29.6832 28.4414 29.9993 29.2044 29.9993 30.0001V31.5001M13.4993 19.5001C14.7586 19.0571 15.8583 18.2506 16.6593 17.1826C17.4603 16.1146 17.9266 14.8331 17.9993 13.5001M17.9993 19.5001H23.9993M17.9993 12.0001H29.9993M23.9993 12.0001V7.50008C23.9993 6.70443 24.3153 5.94136 24.8779 5.37875C25.4405 4.81615 26.2036 4.50008 26.9993 4.50008M24.7493 19.5001C24.7493 19.9143 24.4135 20.2501 23.9993 20.2501C23.585 20.2501 23.2493 19.9143 23.2493 19.5001C23.2493 19.0859 23.585 18.7501 23.9993 18.7501C24.4135 18.7501 24.7493 19.0859 24.7493 19.5001ZM27.7493 4.50008C27.7493 4.91429 27.4135 5.25008 26.9993 5.25008C26.585 5.25008 26.2493 4.91429 26.2493 4.50008C26.2493 4.08586 26.585 3.75008 26.9993 3.75008C27.4135 3.75008 27.7493 4.08586 27.7493 4.50008ZM30.7493 31.5001C30.7493 31.9143 30.4135 32.2501 29.9993 32.2501C29.585 32.2501 29.2493 31.9143 29.2493 31.5001C29.2493 31.0859 29.585 30.7501 29.9993 30.7501C30.4135 30.7501 30.7493 31.0859 30.7493 31.5001ZM30.7493 12.0001C30.7493 12.4143 30.4135 12.7501 29.9993 12.7501C29.585 12.7501 29.2493 12.4143 29.2493 12.0001C29.2493 11.5859 29.585 11.2501 29.9993 11.2501C30.4135 11.2501 30.7493 11.5859 30.7493 12.0001Z" stroke="#412BA8" stroke-width="2" stroke-linecap="round" stroke-linejoin="round"/>
</svg>
